<?xml version="1.0" encoding="UTF-8" standalone="no"?><svg version="1.1" id="svg1" width="64" height="64" viewBox="0 0 64 64" sodipodi:docname="css.svg" inkscape:version="1.3.1 (91b66b0783, 2023-11-16)" xml:space="preserve" xmlns:inkscape="http://www.inkscape.org/namespaces/inkscape" xmlns:sodipodi="http://sodipodi.sourceforge.net/DTD/sodipodi-0.dtd" xmlns="http://www.w3.org/2000/svg" xmlns:svg="http://www.w3.org/2000/svg"><defs id="defs1"><filter inkscape:collect="always" style="color-interpolation-filters:sRGB" id="filter258" x="-0.016298667" y="-0.01330499" width="1.0325973" height="1.0220441"><feGaussianBlur inkscape:collect="always" stdDeviation="0.022338502" id="feGaussianBlur258" /></filter></defs><sodipodi:namedview id="namedview1" pagecolor="#505050" bordercolor="#eeeeee" borderopacity="1" inkscape:showpageshadow="0" inkscape:pageopacity="0" inkscape:pagecheckerboard="0" inkscape:deskcolor="#505050" inkscape:zoom="6.421875" inkscape:cx="6.7737226" inkscape:cy="58.316302" inkscape:window-width="1920" inkscape:window-height="1017" inkscape:window-x="1912" inkscape:window-y="-8" inkscape:window-maximized="1" inkscape:current-layer="g1" /><g inkscape:groupmode="layer" inkscape:label="Image" id="g1"><g id="g2" transform="matrix(2.5050437,0,0,2.5050437,-48.161399,-54.625074)"><path id="path257" style="opacity:0.99;fill:#0b74b8;fill-opacity:1;fill-rule:evenodd;stroke:#f6f9ff;stroke-width:0.55;stroke-linecap:round;stroke-linejoin:round;stroke-dasharray:1.1, 0.55, 0.275, 0.55;stroke-dashoffset:2.585;stroke-opacity:1;paint-order:stroke markers fill;filter:url(#filter258)" inkscape:transform-center-x="0.035211673" inkscape:transform-center-y="1.5992022" d="m 21.919041,41.845974 0.0623,-19.514916 20.099619,0.133954 -0.192492,19.597704 -10.283669,4.879126 z" sodipodi:nodetypes="cccccc" /><path d="m 24.15812,24.403173 0.327146,0.08263 q -0.102865,0.403031 -0.370991,0.615508 -0.266439,0.21079 -0.652607,0.21079 -0.399658,0 -0.65092,-0.161887 -0.249576,-0.163573 -0.38111,-0.47217 -0.129846,-0.308597 -0.129846,-0.662725 0,-0.386168 0.14671,-0.672843 0.148396,-0.288361 0.419894,-0.436758 0.273185,-0.150083 0.600331,-0.150083 0.370991,0 0.62394,0.188869 0.252948,0.188868 0.352441,0.531191 l -0.322087,0.07588 q -0.086,-0.269812 -0.249576,-0.392913 -0.163574,-0.123102 -0.411463,-0.123102 -0.284989,0 -0.47723,0.136592 -0.190554,0.136592 -0.268125,0.367619 -0.07757,0.22934 -0.07757,0.473856 0,0.315343 0.09106,0.551428 0.09275,0.234399 0.286675,0.350755 0.193927,0.116357 0.419894,0.116357 0.274871,0 0.465425,-0.158515 0.190555,-0.158514 0.258008,-0.470484 z m 1.73986,0.07251 0.308598,-0.02698 q 0.02192,0.185495 0.101179,0.305224 0.08094,0.118043 0.249576,0.192241 0.168632,0.07251 0.379422,0.07251 0.187182,0 0.33052,-0.05565 0.143337,-0.05565 0.212477,-0.151769 0.07082,-0.09781 0.07082,-0.212476 0,-0.116357 -0.06745,-0.202359 -0.06745,-0.08769 -0.222594,-0.14671 -0.09949,-0.03879 -0.440131,-0.119729 -0.340637,-0.08263 -0.477229,-0.155142 -0.177064,-0.09275 -0.264753,-0.22934 -0.086,-0.138278 -0.086,-0.308597 0,-0.187182 0.106239,-0.349069 0.106238,-0.163573 0.310283,-0.247889 0.204045,-0.08432 0.453621,-0.08432 0.274871,0 0.483975,0.08937 0.21079,0.08769 0.323774,0.259694 0.112984,0.172005 0.121415,0.389541 l -0.313656,0.02361 q -0.02529,-0.234398 -0.172005,-0.354127 -0.145024,-0.119729 -0.430012,-0.119729 -0.296793,0 -0.433385,0.109611 -0.134906,0.107924 -0.134906,0.26138 0,0.133219 0.09612,0.219222 0.09443,0.086 0.492407,0.177064 0.399658,0.08938 0.548055,0.156828 0.215849,0.09949 0.318715,0.252948 0.102866,0.151769 0.102866,0.350755 0,0.1973 -0.112984,0.372678 -0.112984,0.173691 -0.325461,0.271498 -0.21079,0.09612 -0.475543,0.09612 -0.335578,0 -0.563232,-0.09781 -0.225967,-0.09781 -0.355814,-0.293421 -0.12816,-0.197299 -0.134906,-0.445189 z m 3.424498,0 0.308597,-0.02698 q 0.02192,0.185495 0.10118,0.305224 0.08094,0.118043 0.249576,0.192241 0.168632,0.07251 0.379422,0.07251 0.187182,0 0.33052,-0.05565 0.143337,-0.05565 0.212476,-0.151769 0.07083,-0.09781 0.07083,-0.212476 0,-0.116357 -0.06745,-0.202359 -0.06745,-0.08769 -0.222595,-0.14671 -0.09949,-0.03879 -0.44013,-0.119729 -0.340637,-0.08263 -0.477229,-0.155142 -0.177064,-0.09275 -0.264753,-0.22934 -0.086,-0.138278 -0.086,-0.308597 0,-0.187182 0.106239,-0.349069 0.106238,-0.163573 0.310283,-0.247889 0.204045,-0.08432 0.453621,-0.08432 0.274871,0 0.483975,0.08937 0.21079,0.08769 0.323774,0.259694 0.112984,0.172005 0.121415,0.389541 l -0.313656,0.02361 q -0.02529,-0.234398 -0.172005,-0.354127 -0.145024,-0.119729 -0.430012,-0.119729 -0.296793,0 -0.433385,0.109611 -0.134906,0.107924 -0.134906,0.26138 0,0.133219 0.09612,0.219222 0.09443,0.086 0.492407,0.177064 0.399658,0.08938 0.548055,0.156828 0.215849,0.09949 0.318715,0.252948 0.102865,0.151769 0.102865,0.350755 0,0.1973 -0.112983,0.372678 -0.112984,0.173691 -0.325461,0.271498 -0.21079,0.09612 -0.475543,0.09612 -0.335578,0 -0.563232,-0.09781 -0.225967,-0.09781 -0.355814,-0.293421 -0.128161,-0.197299 -0.134906,-0.445189 z" id="text257" style="font-size:3.45359px;line-height:94.42%;font-family:Arial;-inkscape-font-specification:Arial;letter-spacing:1.12098px;opacity:0.99;fill:#ffffff;fill-rule:evenodd;stroke-width:0.222989;stroke-linecap:round;stroke-linejoin:round;paint-order:stroke markers fill" aria-label="CSS" /><path style="font-size:22.6572px;line-height:94.42%;font-family:Lobster;-inkscape-font-specification:Lobster;letter-spacing:7.35415px;opacity:0.99;fill:#ffffff;fill-rule:evenodd;stroke-width:1.46291;stroke-linecap:round;stroke-linejoin:round;paint-order:stroke markers fill" d="m 30.935112,43.122029 q -1.608661,0 -3.058722,-0.793002 -1.450061,-0.793002 -1.450061,-3.058722 0,-1.472718 0.702374,-2.356348 0.72503,-0.883631 2.039148,-0.883631 1.540689,0 1.767261,1.155517 -1.155517,0.06797 -1.586004,0.793002 -0.407829,0.72503 -0.407829,1.653976 0,0.974259 0.56643,1.518032 0.56643,0.543773 1.382089,0.543773 0.72503,0 1.382089,-0.430487 0.679716,-0.430487 1.110203,-1.314118 0.430487,-0.88363 0.430487,-2.129776 0,-1.38209 -0.770345,-2.560264 -0.747688,-1.200832 -2.243063,-1.721947 1.200832,-0.339858 2.084462,-1.064889 0.883631,-0.747687 1.336775,-1.631318 0.453144,-0.906288 0.453144,-1.721947 0,-0.838317 -0.453144,-1.336775 -0.430487,-0.521116 -1.268803,-0.521116 -0.815659,0 -1.314118,0.498459 -0.475801,0.475801 -0.475801,1.268803 0,0.543773 0.203915,1.019574 0.226572,0.475801 0.657059,0.589087 -0.838317,0.770345 -1.721947,0.770345 -0.702374,0 -1.178175,-0.498458 -0.453144,-0.521116 -0.453144,-1.427404 0,-1.019574 0.611745,-1.789919 0.634401,-0.793002 1.69929,-1.223489 1.064888,-0.430486 2.379006,-0.430486 1.336774,0 2.288377,0.453144 0.951602,0.453144 1.427403,1.200831 0.498459,0.747688 0.498459,1.653976 0,1.178174 -0.793002,2.311034 -0.793002,1.13286 -2.311035,1.903205 1.427404,0.475801 2.129777,1.472718 0.725031,0.97426 0.725031,2.26572 0,1.404746 -0.81566,2.764178 -0.793002,1.336775 -2.26572,2.197749 -1.45006,0.860973 -3.307951,0.860973 z" id="text258" aria-label="3" /></g></g></svg>