<?xml version="1.0" encoding="UTF-8" standalone="no"?><svg width="300" height="300" viewBox="0 0 79.374998 79.375" version="1.1" id="svg1" xml:space="preserve" inkscape:version="1.3.1 (91b66b0783, 2023-11-16)" sodipodi:docname="filmora.svg" xmlns:inkscape="http://www.inkscape.org/namespaces/inkscape" xmlns:sodipodi="http://sodipodi.sourceforge.net/DTD/sodipodi-0.dtd" xmlns="http://www.w3.org/2000/svg" xmlns:svg="http://www.w3.org/2000/svg"><sodipodi:namedview id="namedview1" pagecolor="#505050" bordercolor="#eeeeee" borderopacity="1" inkscape:showpageshadow="0" inkscape:pageopacity="0" inkscape:pagecheckerboard="0" inkscape:deskcolor="#505050" inkscape:document-units="mm" inkscape:zoom="0.48728038" inkscape:cx="728.53334" inkscape:cy="591.03549" inkscape:window-width="1920" inkscape:window-height="1017" inkscape:window-x="1912" inkscape:window-y="-8" inkscape:window-maximized="1" inkscape:current-layer="layer1" /><defs id="defs1" /><g inkscape:label="Livello 1" inkscape:groupmode="layer" id="layer1"><g id="g140" transform="translate(-150.07767,-109.86155)"><path id="rect136" style="fill:#19384b;fill-rule:evenodd;stroke-width:0.409001;stroke-linecap:round;stroke-linejoin:round;paint-order:stroke markers fill" d="m 165.62043,114.35584 h 48.2354 c 6.30529,0 11.38139,5.0761 11.38139,11.38139 v 47.15146 c 0,6.30528 -5.0761,11.38138 -11.38139,11.38138 h -48.2354 c -6.30529,0 -11.38139,-5.0761 -11.38139,-11.38138 v -47.15146 c 0,-6.30529 5.0761,-11.38139 11.38139,-11.38139 z" /><path style="fill:#ffffff;fill-opacity:1;fill-rule:evenodd;stroke:#ffffff;stroke-width:0.406685;stroke-linecap:round;stroke-linejoin:round;stroke-opacity:1;paint-order:stroke markers fill" d="m 225.07425,170.90082 c 0,0 -8.02739,-1.40199 -12.05816,-1.99072 -4.24488,-0.62 -8.49167,-1.26915 -12.76629,-1.62289 -3.22469,-0.26685 -6.46383,-0.36783 -9.69928,-0.37531 -3.67458,-0.008 -7.35302,0.10008 -11.01753,0.37531 -4.24003,0.31845 -8.45615,0.91519 -12.67151,1.47487 -4.13104,0.54849 -12.36498,1.84514 -12.36498,1.84514 0,0 -0.15949,2.88275 0.15066,4.27423 0.31654,1.42009 0.90209,2.80673 1.71337,4.0145 1.09784,1.63439 2.4682,3.19151 4.15229,4.20082 1.18724,0.71154 2.60747,0.97812 3.9737,1.17443 1.5469,0.22225 3.61002,0.18033 5.65132,0.20591 l 4.93289,0.0618 11.02556,-0.15323 18.93127,0.0299 10.22407,-0.14438 c 0.76353,-0.0108 1.4903,-0.35189 2.21009,-0.6098 0.76635,-0.27458 1.53732,-0.56717 2.23242,-0.99375 0.78298,-0.4805 1.50066,-1.07881 2.14311,-1.73904 0.62131,-0.63853 1.16885,-1.35784 1.62967,-2.123 0.46945,-0.77951 0.86764,-1.61368 1.13852,-2.48436 0.2428,-0.78039 0.34714,-1.60219 0.42416,-2.41661 0.0943,-0.99683 0.0446,-3.00382 0.0446,-3.00382 z" id="path136" sodipodi:nodetypes="caaaaacaaasscccsaaaaaacc" /><g id="g139" transform="translate(-1.3697119)"><path id="rect134" style="fill:#55e6c5;fill-rule:evenodd;stroke-width:0.470863;stroke-linecap:round;stroke-linejoin:round;paint-order:stroke markers fill" inkscape:transform-center-x="-0.14723838" inkscape:transform-center-y="-0.1468936" transform="matrix(0.70990954,0.70429287,-0.70594582,0.70826584,0,0)" d="m 232.05467,-45.724831 h 14.78018 v 28.309924 h -14.78018 z" /><path id="rect135" style="fill:#ffffff;fill-rule:evenodd;stroke-width:0.409001;stroke-linecap:round;stroke-linejoin:round;paint-order:stroke markers fill" d="m 186.04346,119.94109 10.52482,10.61187 -11.33745,11.24447 -1.49492,1.54194 0.61855,-2.42556 -9.64844,-9.72824 z" sodipodi:nodetypes="ccccccc" /></g><g id="g138" transform="rotate(-39.785964,127.13398,103.56046)"><path id="rect137" style="fill-rule:evenodd;stroke:none;stroke-width:0.409001;stroke-linecap:round;stroke-linejoin:round;paint-order:stroke markers fill" d="m 119.6756,189.02796 h 5.29405 v 12.0813 h -5.29405 z" sodipodi:nodetypes="ccccc" /><path id="rect137-6" style="fill-rule:evenodd;stroke:none;stroke-width:0.409001;stroke-linecap:round;stroke-linejoin:round;paint-order:stroke markers fill" d="m 125.82061,194.11523 0.0172,-0.79189 0.37195,0.79189 h 4.90487 v 12.0813 h -5.29405 z" sodipodi:nodetypes="ccccccc" /><path id="rect138" style="fill-rule:evenodd;stroke:none;stroke-width:0.371378;stroke-linecap:round;stroke-linejoin:round;paint-order:stroke markers fill" d="m 132.33247,200.86171 -0.004,-0.89987 0.41994,0.89987 h 4.57594 v 5.33167 h -4.99232 z" sodipodi:nodetypes="ccccccc" /></g></g></g></svg>