<?xml version="1.0" encoding="UTF-8" standalone="no"?><svg width="635.95856" height="45.822937" viewBox="0 0 52.203188 3.761414" version="1.1" id="svg1" xml:space="preserve" inkscape:version="1.3.1 (91b66b0783, 2023-11-16)" sodipodi:docname="logo-wada2.svg" xmlns:inkscape="http://www.inkscape.org/namespaces/inkscape" xmlns:sodipodi="http://sodipodi.sourceforge.net/DTD/sodipodi-0.dtd" xmlns="http://www.w3.org/2000/svg" xmlns:svg="http://www.w3.org/2000/svg"><sodipodi:namedview id="namedview1" pagecolor="#505050" bordercolor="#eeeeee" borderopacity="1" inkscape:showpageshadow="false" inkscape:pageopacity="0" inkscape:pagecheckerboard="false" inkscape:deskcolor="#505050" inkscape:document-units="px" inkscape:zoom="0.71770833" inkscape:cx="548.96952" inkscape:cy="248.70827" inkscape:window-width="1920" inkscape:window-height="1017" inkscape:window-x="1912" inkscape:window-y="-8" inkscape:window-maximized="1" inkscape:current-layer="layer1" showguides="true" labelstyle="default" inkscape:clip-to-page="false" inkscape:export-bgcolor="#ffffff00" /><defs id="defs1" /><g inkscape:label="Livello 1" inkscape:groupmode="layer" id="layer1" transform="translate(-22.691258,-22.447174)"><path id="text2" style="font-style:normal;font-variant:normal;font-weight:normal;font-stretch:normal;font-size:20.0102px;line-height:94.42%;font-family:Arial;-inkscape-font-specification:Arial;letter-spacing:1.43643px;fill:#ffffff;fill-opacity:1;fill-rule:evenodd;stroke:none;stroke-width:0.0493752;stroke-linecap:round;stroke-linejoin:miter;stroke-dasharray:none;stroke-opacity:1;paint-order:markers stroke fill" d="m 29.4294,22.447184 -1.264413,2.958232 c -0.109561,0.259767 -0.20933,0.432073 -0.299454,0.516895 -0.04418,0.04241 -0.141397,0.07682 -0.291602,0.103323 v 0.09814 h 1.131786 v -0.09814 c -0.173179,-0.01237 -0.286256,-0.03885 -0.339272,-0.07949 -0.05124,-0.04241 -0.07682,-0.09102 -0.07682,-0.145802 0,-0.06892 0.03006,-0.17317 0.09014,-0.312773 l 0.243796,-0.567224 h 1.39171 l 0.217302,0.516895 c 0.07069,0.167876 0.105991,0.290676 0.105991,0.36843 0,0.05831 -0.02558,0.107821 -0.07683,0.148465 -0.04948,0.04064 -0.145803,0.06443 -0.288941,0.0715 v 0.09814 h 1.418069 v -0.09814 c -0.14667,-0.0088 -0.261402,-0.04862 -0.344459,-0.119305 -0.08129,-0.07245 -0.172371,-0.228761 -0.273098,-0.469089 l -1.251099,-2.990056 z m 8.620118,0 -1.264409,2.958232 c -0.10956,0.259767 -0.209332,0.432073 -0.299456,0.516895 -0.04418,0.04241 -0.141397,0.07682 -0.291602,0.103323 v 0.09814 h 1.131783 v -0.09814 c -0.173174,-0.01237 -0.286255,-0.03885 -0.339267,-0.07949 -0.05125,-0.04241 -0.07683,-0.09102 -0.07683,-0.145802 0,-0.06892 0.03006,-0.17317 0.09014,-0.312773 l 0.243796,-0.567224 h 1.391709 l 0.217298,0.516895 c 0.07069,0.167876 0.105989,0.290676 0.105989,0.36843 0,0.05831 -0.02558,0.107821 -0.07683,0.148465 -0.04948,0.04064 -0.145803,0.06443 -0.288939,0.0715 v 0.09814 h 1.418199 v -0.09814 c -0.14667,-0.0088 -0.261541,-0.04862 -0.344593,-0.119305 -0.08129,-0.07245 -0.172376,-0.228761 -0.273099,-0.469089 l -1.251089,-2.990056 z m 5.251103,0 c -0.305713,0 -0.557588,0.09377 -0.755504,0.281089 -0.197918,0.185547 -0.296792,0.40722 -0.296792,0.665219 0,0.148439 0.03351,0.284547 0.100661,0.408246 0.06715,0.123698 0.165264,0.236776 0.294264,0.339269 0.130768,0.102493 0.34989,0.240394 0.657371,0.413572 0.307479,0.171411 0.495646,0.283592 0.564562,0.336606 0.102492,0.07775 0.177577,0.161665 0.225288,0.251788 0.04948,0.09012 0.07431,0.179414 0.07431,0.26777 0,0.159041 -0.06447,0.296802 -0.193469,0.413432 -0.127232,0.11663 -0.301332,0.174962 -0.522219,0.174962 -0.190852,0 -0.366743,-0.04233 -0.527552,-0.127156 -0.15904,-0.08482 -0.277358,-0.190867 -0.355109,-0.3181 -0.07776,-0.129 -0.139673,-0.322543 -0.185621,-0.580543 h -0.09799 v 1.232585 h 0.09799 c 0.01236,-0.08306 0.03092,-0.1378 0.05566,-0.164307 0.0265,-0.02651 0.06195,-0.03982 0.106126,-0.03982 0.04595,0 0.15454,0.02827 0.325951,0.08482 0.173178,0.05478 0.287153,0.08664 0.341933,0.09547 0.09189,0.0159 0.190007,0.02383 0.294267,0.02383 0.332219,0 0.603396,-0.09812 0.813685,-0.294267 0.212054,-0.197918 0.318101,-0.432898 0.318101,-0.705035 0,-0.143137 -0.03351,-0.280142 -0.10066,-0.410909 -0.06538,-0.130767 -0.159913,-0.243844 -0.283612,-0.339269 -0.121931,-0.09719 -0.350776,-0.235849 -0.68653,-0.416095 -0.411741,-0.220891 -0.672442,-0.39768 -0.782003,-0.530214 -0.07599,-0.09012 -0.113977,-0.189893 -0.113977,-0.299454 0,-0.143137 0.06013,-0.27042 0.180289,-0.381748 0.120162,-0.113096 0.272131,-0.169635 0.455911,-0.169635 0.162573,0 0.319782,0.04158 0.471753,0.124632 0.151974,0.08305 0.268636,0.195236 0.349925,0.336606 0.08305,0.14137 0.140488,0.331327 0.172299,0.569888 h 0.09813 v -1.243239 h -0.09813 c -0.01766,0.08305 -0.04146,0.138837 -0.0715,0.167111 -0.02827,0.02651 -0.06551,0.03967 -0.111454,0.03967 -0.04065,0 -0.11035,-0.02213 -0.209309,-0.06631 -0.213823,-0.09366 -0.416193,-0.140474 -0.60704,-0.140474 z m 4.002535,0 c -0.470054,0 -0.873754,0.156448 -1.211274,0.469229 -0.388766,0.360492 -0.583207,0.826111 -0.583207,1.396892 0,0.558411 0.167824,1.013411 0.503576,1.365068 0.337522,0.351658 0.753775,0.52755 1.248568,0.52755 0.489491,0 0.906503,-0.180235 1.251088,-0.540728 0.344591,-0.360493 0.516899,-0.81384 0.516899,-1.359881 0,-0.530137 -0.17141,-0.971829 -0.514235,-1.325253 -0.341054,-0.355192 -0.744893,-0.532877 -1.211415,-0.532877 z m 18.228999,0 c -0.470054,0 -0.873898,0.156448 -1.211417,0.469229 -0.388764,0.360492 -0.583069,0.826111 -0.583069,1.396892 0,0.558411 0.167825,1.013411 0.503578,1.365068 0.33752,0.351658 0.753773,0.52755 1.248567,0.52755 0.489493,0 0.906503,-0.180235 1.251092,-0.540728 0.344589,-0.360493 0.516895,-0.81384 0.516895,-1.359881 0,-0.530137 -0.171408,-0.971829 -0.514231,-1.325253 -0.341054,-0.355192 -0.744898,-0.532877 -1.211415,-0.532877 z m 8.026381,0 c -0.305713,0 -0.557588,0.09377 -0.755502,0.281089 -0.197921,0.185547 -0.296792,0.40722 -0.296792,0.665219 0,0.148439 0.03351,0.284547 0.100658,0.408246 0.06715,0.123698 0.165267,0.236776 0.294267,0.339269 0.130768,0.102493 0.349892,0.240394 0.657369,0.413572 0.307481,0.171411 0.495643,0.283592 0.564564,0.336606 0.102489,0.07775 0.177579,0.161665 0.225288,0.251788 0.04948,0.09012 0.0743,0.179414 0.0743,0.26777 0,0.159041 -0.06461,0.296802 -0.193609,0.413432 -0.127231,0.11663 -0.30119,0.174962 -0.522082,0.174962 -0.190847,0 -0.366739,-0.04233 -0.527547,-0.127156 -0.159043,-0.08482 -0.277358,-0.190867 -0.355114,-0.3181 -0.07775,-0.129 -0.139671,-0.322543 -0.185614,-0.580543 h -0.098 v 1.232585 h 0.098 c 0.01236,-0.08306 0.03092,-0.1378 0.05566,-0.164307 0.0265,-0.02651 0.06181,-0.03982 0.105986,-0.03982 0.04595,0 0.154682,0.02827 0.326092,0.08482 0.173179,0.05478 0.287152,0.08664 0.341934,0.09547 0.09189,0.0159 0.190005,0.02383 0.294267,0.02383 0.332219,0 0.603394,-0.09812 0.813685,-0.294267 0.212054,-0.197918 0.318101,-0.432898 0.318101,-0.705035 0,-0.143137 -0.03351,-0.280142 -0.100661,-0.410909 -0.06538,-0.130767 -0.159912,-0.243844 -0.283614,-0.339269 -0.121928,-0.09719 -0.350776,-0.235849 -0.686527,-0.416095 -0.411742,-0.220891 -0.672443,-0.39768 -0.782003,-0.530214 -0.07598,-0.09012 -0.113977,-0.189893 -0.113977,-0.299454 0,-0.143137 0.06012,-0.27042 0.180289,-0.381748 0.120165,-0.113096 0.272131,-0.169635 0.455914,-0.169635 0.162572,0 0.319779,0.04158 0.47175,0.124632 0.151971,0.08305 0.268636,0.195236 0.349925,0.336606 0.08305,0.14137 0.14049,0.331327 0.172296,0.569888 h 0.09814 v -1.243239 h -0.09814 c -0.01766,0.08305 -0.0416,0.138837 -0.07164,0.167111 -0.02828,0.02651 -0.06537,0.03967 -0.111315,0.03967 -0.04064,0 -0.110352,-0.02213 -0.209309,-0.06631 -0.213823,-0.09366 -0.416193,-0.140474 -0.607042,-0.140474 z m -50.86728,0.08229 v 0.098 c 0.104262,0 0.18652,0.01675 0.246601,0.05033 0.06185,0.03181 0.110459,0.08131 0.145803,0.148465 0.0212,0.04064 0.07147,0.172269 0.150987,0.394926 l 1.068279,2.984729 h 0.09547 l 0.813687,-2.298199 0.819152,2.298199 h 0.105987 l 1.001965,-2.897248 c 0.07599,-0.23326 0.131629,-0.380743 0.166973,-0.442592 0.05301,-0.09189 0.108655,-0.154705 0.16697,-0.18828 0.05832,-0.03357 0.134298,-0.05033 0.227955,-0.05033 v -0.098 H 26.62762 v 0.098 c 0.107795,0 0.195292,0.01241 0.262444,0.03715 0.03888,0.01414 0.07059,0.03882 0.09533,0.07416 0.02651,0.03534 0.03982,0.07333 0.03982,0.113977 0,0.08482 -0.03889,0.236788 -0.116644,0.455911 l -0.683865,1.980099 -0.689192,-1.953602 c -0.07952,-0.224424 -0.119306,-0.381629 -0.119306,-0.471753 0,-0.07245 0.02303,-0.129887 0.06897,-0.172298 0.04595,-0.04241 0.118342,-0.06365 0.217302,-0.06365 h 0.09547 v -0.098 h -1.399557 v 0.098 c 0.07245,0 0.125405,0.0054 0.158981,0.01598 0.04418,0.01414 0.08845,0.03703 0.132624,0.06883 0.03357,0.02297 0.06184,0.05124 0.08482,0.08482 0.04594,0.06715 0.08738,0.144927 0.124493,0.233283 l 0.08482,0.241274 0.106128,0.302118 -0.596527,1.714992 -0.707697,-2.01711 c -0.07775,-0.222657 -0.116642,-0.365041 -0.116642,-0.42689 0,-0.06008 0.02482,-0.111242 0.0743,-0.153653 0.04948,-0.04241 0.120979,-0.06365 0.214635,-0.06365 h 0.06365 v -0.098 z m 9.24314,0 v 0.098 h 0.135146 c 0.136069,0 0.238528,0.03889 0.307444,0.116641 0.04948,0.05655 0.0743,0.196999 0.0743,0.421423 v 2.322032 c 0,0.203219 -0.01944,0.333948 -0.05832,0.392263 -0.06362,0.09719 -0.171454,0.145802 -0.323427,0.145802 h -0.135146 v 0.09814 h 1.60634 c 0.698016,0 1.217484,-0.187408 1.558539,-0.562038 0.303947,-0.335753 0.455911,-0.753659 0.455911,-1.253754 0,-0.372863 -0.08571,-0.701478 -0.257115,-0.985984 -0.169647,-0.284507 -0.394905,-0.487772 -0.675878,-0.609704 -0.279205,-0.121931 -0.687388,-0.182812 -1.224595,-0.182812 z m 17.802106,0 v 0.098 h 0.135289 c 0.136069,0 0.23853,0.03889 0.307446,0.116641 0.04948,0.05655 0.07416,0.196999 0.07416,0.421423 v 2.319369 c 0,0.204986 -0.01856,0.335715 -0.05566,0.392262 -0.06539,0.09896 -0.17398,0.148466 -0.325953,0.148466 h -0.135289 v 0.09814 h 2.78327 l 0.307447,-0.97547 -0.08748,-0.0185 c -0.09189,0.222658 -0.183734,0.385998 -0.275621,0.490258 -0.09189,0.102493 -0.193454,0.174134 -0.304785,0.214777 -0.111325,0.04064 -0.304871,0.06099 -0.580539,0.06099 h -0.262443 c -0.231494,0 -0.369255,-0.0088 -0.413434,-0.0265 -0.04417,-0.01767 -0.07693,-0.04504 -0.09813,-0.08215 -0.02827,-0.05478 -0.04234,-0.155587 -0.04234,-0.302258 v -2.258384 c 0,-0.213822 0.01407,-0.349034 0.04234,-0.405581 0.02827,-0.05655 0.08047,-0.103365 0.156455,-0.140475 0.07776,-0.03711 0.212068,-0.05476 0.402922,-0.05299 v -0.098 z m 3.626257,0 v 0.098 h 0.13515 c 0.136066,0 0.234183,0.0344 0.294266,0.103323 0.06185,0.06892 0.09281,0.213851 0.09281,0.434741 v 1.404884 c 0,0.432944 0.02827,0.72805 0.08482,0.885324 0.08482,0.229726 0.228859,0.412651 0.432074,0.548719 0.203219,0.136069 0.500874,0.204123 0.893179,0.204123 0.360491,0 0.64498,-0.07074 0.8535,-0.212114 0.210289,-0.143137 0.350876,-0.31365 0.421561,-0.511567 0.07245,-0.199685 0.108649,-0.47969 0.108649,-0.840183 v -1.457876 c 0,-0.199685 0.01856,-0.326968 0.05566,-0.381748 0.07598,-0.118398 0.184717,-0.177626 0.326087,-0.177626 h 0.135148 v -0.098 h -1.272401 v 0.098 h 0.135288 c 0.136072,0 0.238526,0.03889 0.307445,0.116641 0.04948,0.05655 0.07416,0.196999 0.07416,0.421423 v 1.455213 c 0,0.381699 -0.03441,0.653018 -0.103323,0.813826 -0.06715,0.159041 -0.193536,0.28977 -0.379087,0.392263 -0.185547,0.102493 -0.395844,0.153792 -0.63087,0.153792 -0.183783,0 -0.339193,-0.03275 -0.466425,-0.09813 -0.125465,-0.06538 -0.221792,-0.148399 -0.28894,-0.249125 -0.06715,-0.100726 -0.113968,-0.241176 -0.140476,-0.421423 -0.02474,-0.180246 -0.03715,-0.340281 -0.03715,-0.479883 v -1.566528 c 0,-0.201451 0.02213,-0.333973 0.06631,-0.39759 0.06361,-0.09366 0.169521,-0.140474 0.31796,-0.140474 h 0.137951 v -0.098 z m 4.487609,0 -0.04234,0.842845 h 0.100658 c 0.01236,-0.162575 0.05126,-0.29151 0.116642,-0.386935 0.06538,-0.09542 0.144057,-0.160032 0.235947,-0.193608 0.07068,-0.02474 0.189898,-0.03701 0.357773,-0.03701 h 0.432079 v 2.746119 c 0,0.201452 -0.01944,0.330388 -0.05832,0.386935 -0.06362,0.09189 -0.171315,0.137811 -0.323288,0.137811 h -0.127294 v 0.09814 h 1.524188 v -0.09814 h -0.124637 c -0.139599,0 -0.242956,-0.0371 -0.310106,-0.111314 -0.04771,-0.05478 -0.07164,-0.192542 -0.07164,-0.413432 v -2.746119 h 0.506384 c 0.148439,0 0.267652,0.02468 0.357773,0.07416 0.09189,0.04771 0.165186,0.122798 0.219964,0.225292 0.03357,0.06362 0.06019,0.169661 0.07963,0.318099 h 0.100658 l -0.03967,-0.842845 z m 3.634106,0 v 0.098 h 0.127296 c 0.08482,0 0.166045,0.02124 0.243796,0.06365 0.05478,0.03181 0.09112,0.0698 0.10879,0.113978 0.02299,0.05831 0.03435,0.178425 0.03435,0.360438 v 2.322032 c 0,0.215589 -0.02111,0.351697 -0.06351,0.408245 -0.06715,0.08659 -0.174991,0.12982 -0.323428,0.12982 h -0.127296 v 0.09814 h 1.540171 v -0.09814 h -0.129958 c -0.08482,0 -0.16529,-0.02124 -0.241273,-0.06365 -0.05655,-0.03181 -0.09365,-0.0698 -0.111316,-0.113977 -0.02298,-0.05832 -0.03435,-0.178425 -0.03435,-0.360439 v -2.322032 c 0,-0.215589 0.02201,-0.351556 0.06617,-0.408104 0.06715,-0.08659 0.174093,-0.12996 0.320768,-0.12996 h 0.129958 v -0.098 z m 6.300874,0 v 0.098 c 0.104262,0 0.181898,0.0079 0.233144,0.02383 0.10426,0.03357 0.182935,0.06977 0.235947,0.10865 0.05478,0.03888 0.134349,0.119343 0.238611,0.241274 v 2.499658 c 0,0.201452 -0.01944,0.330388 -0.05832,0.386935 -0.06362,0.09189 -0.172352,0.137811 -0.326094,0.137811 h -0.124493 v 0.09814 h 1.251091 v -0.09814 h -0.127293 c -0.139604,0 -0.242959,-0.0371 -0.310109,-0.111314 -0.04771,-0.05478 -0.0715,-0.192542 -0.0715,-0.413432 v -2.213382 l 2.369696,2.894584 h 0.09533 v -3.029731 c 0,-0.201452 0.01944,-0.330527 0.05832,-0.387076 0.06361,-0.09189 0.171454,-0.13781 0.323425,-0.13781 h 0.127296 v -0.098 h -1.25123 v 0.098 h 0.124634 c 0.141369,0 0.244724,0.03709 0.310108,0.111314 0.04948,0.05478 0.0743,0.192682 0.0743,0.413572 v 2.072767 l -2.197534,-2.695646 z m -20.532524,0.111317 c 0.342825,0 0.611456,0.12011 0.80584,0.360439 0.242095,0.302178 0.363102,0.760765 0.363102,1.375723 0,0.567246 -0.110389,0.982462 -0.331281,1.245763 -0.219121,0.263302 -0.497474,0.394927 -0.834994,0.394927 -0.316312,0 -0.570738,-0.12011 -0.763356,-0.360439 -0.250932,-0.316315 -0.376421,-0.767869 -0.376421,-1.354554 0,-0.572547 0.121007,-1.007207 0.363102,-1.304084 0.194384,-0.238561 0.452398,-0.357775 0.774008,-0.357775 z m 18.228999,0 c 0.342821,0 0.611452,0.12011 0.805836,0.360439 0.242095,0.302178 0.363104,0.760765 0.363104,1.375723 0,0.567246 -0.110391,0.982462 -0.331279,1.245763 -0.219124,0.263302 -0.497477,0.394927 -0.834994,0.394927 -0.316317,0 -0.570881,-0.12011 -0.763499,-0.360439 -0.25093,-0.316315 -0.376282,-0.767869 -0.376282,-1.354554 0,-0.572547 0.121007,-1.007207 0.363102,-1.304084 0.194384,-0.238561 0.452395,-0.357775 0.774012,-0.357775 z m -31.978238,0.09 c 0.424111,0 0.771272,0.14314 1.041641,0.429414 0.27037,0.286274 0.405582,0.677703 0.405582,1.174264 0,0.493027 -0.135212,0.88356 -0.405582,1.171601 -0.270369,0.288041 -0.610498,0.432078 -1.020471,0.432078 -0.151973,0 -0.340137,-0.02468 -0.564559,-0.07416 V 22.80776 c 0.203216,-0.05125 0.384349,-0.07697 0.543389,-0.07697 z m -4.172183,0.540868 0.609567,1.452549 h -1.235252 z m 8.62012,0 0.609562,1.452549 h -1.23525 z" /></g></svg>