<?xml version="1.0" encoding="UTF-8" standalone="no"?><svg width="500" height="500" viewBox="0 0 132.29166 132.29167" version="1.1" id="svg1" inkscape:version="1.3.2 (091e20e, 2023-11-25, custom)" sodipodi:docname="btn-home.svg" xmlns:inkscape="http://www.inkscape.org/namespaces/inkscape" xmlns:sodipodi="http://sodipodi.sourceforge.net/DTD/sodipodi-0.dtd" xmlns="http://www.w3.org/2000/svg" xmlns:svg="http://www.w3.org/2000/svg"><sodipodi:namedview id="namedview1" pagecolor="#505050" bordercolor="#eeeeee" borderopacity="1" inkscape:showpageshadow="0" inkscape:pageopacity="0" inkscape:pagecheckerboard="0" inkscape:deskcolor="#505050" inkscape:document-units="mm" showguides="true" inkscape:zoom="0.73228115" inkscape:cx="319.5494" inkscape:cy="268.33956" inkscape:window-width="1920" inkscape:window-height="1017" inkscape:window-x="1912" inkscape:window-y="-8" inkscape:window-maximized="1" inkscape:current-layer="layer1" /><defs id="defs1"><inkscape:path-effect effect="bend_path" id="path-effect8" is_visible="true" lpeversion="1" bendpath="m 22.28419,20.261837 c 29.750348,-2.037005 58.935777,-3.801559 87.72329,-1.987226" prop_scale="1" scale_y_rel="false" vertical="false" hide_knot="false" bendpath-nodetypes="cc" /><inkscape:perspective sodipodi:type="inkscape:persp3d" inkscape:vp_x="-15.017091 : 14.792849 : 1" inkscape:vp_y="0 : 1000 : 0" inkscape:vp_z="101.18036 : 14.792849 : 1" inkscape:persp3d-origin="43.081633 : -7.2557631 : 1" id="perspective267" /><rect x="105.2528" y="91.734093" width="297.41159" height="99.459068" id="rect264" /><filter inkscape:label="Button" inkscape:menu="Bevels" inkscape:menu-tooltip="Soft bevel, slightly depressed middle" style="color-interpolation-filters:sRGB" id="filter52" x="-0.38971364" y="-0.38971367" width="1.7794273" height="1.7794273"><feGaussianBlur stdDeviation="5.8788731" in="SourceAlpha" result="result0" id="feGaussianBlur49" /><feMorphology in="SourceAlpha" radius="6.6" result="result1" id="feMorphology49" /><feGaussianBlur stdDeviation="8.9" in="result1" id="feGaussianBlur50" /><feColorMatrix values="1 0 0 0 0 0 1 0 0 0 0 0 1 0 0 0 0 0 0.3 0" result="result91" id="feColorMatrix50" /><feComposite in="result0" operator="out" result="result2" in2="result91" id="feComposite50" /><feGaussianBlur stdDeviation="1.7" result="result4" id="feGaussianBlur51" /><feDiffuseLighting surfaceScale="10" id="feDiffuseLighting51"><feDistantLight azimuth="225" elevation="45" id="feDistantLight51" /></feDiffuseLighting><feBlend in2="SourceGraphic" mode="multiply" id="feBlend51" /><feComposite in2="SourceAlpha" operator="in" result="result3" id="feComposite51" /><feSpecularLighting in="result4" surfaceScale="5" specularExponent="17.89999962" id="feSpecularLighting52"><feDistantLight azimuth="225" elevation="45" id="feDistantLight52" /></feSpecularLighting><feComposite in2="result3" operator="atop" id="feComposite52" /></filter><filter inkscape:label="Drop Shadow" inkscape:menu="Bevels" inkscape:menu-tooltip="Soft bevel, slightly depressed middle" style="color-interpolation-filters:sRGB" id="filter4" x="-0.34052795" y="-0.3428935" width="1.6822387" height="1.6834215"><feGaussianBlur stdDeviation="2.3" in="SourceAlpha" result="result0" id="feGaussianBlur1" /><feMorphology in="SourceAlpha" radius="6.6" result="result1" id="feMorphology1" /><feGaussianBlur stdDeviation="8.9" in="result1" id="feGaussianBlur2" /><feColorMatrix values="1 0 0 0 0 0 1 0 0 0 0 0 1 0 0 0 0 0 0.3 0" result="result91" id="feColorMatrix2" /><feComposite in="result0" operator="out" result="result2" in2="result91" id="feComposite2" /><feGaussianBlur stdDeviation="1.7" result="result4" id="feGaussianBlur3" /><feDiffuseLighting surfaceScale="10" id="feDiffuseLighting3"><feDistantLight azimuth="225" elevation="45" id="feDistantLight3" /></feDiffuseLighting><feBlend in2="SourceGraphic" mode="multiply" id="feBlend3" /><feComposite in2="SourceAlpha" operator="in" result="result3" id="feComposite3" /><feSpecularLighting in="result4" surfaceScale="5" specularExponent="17.89999962" id="feSpecularLighting4"><feDistantLight azimuth="225" elevation="45" id="feDistantLight4" /></feSpecularLighting><feComposite in2="result3" operator="atop" id="feComposite4" result="fbSourceGraphic" /><feColorMatrix result="fbSourceGraphicAlpha" in="fbSourceGraphic" values="0 0 0 -1 0 0 0 0 -1 0 0 0 0 -1 0 0 0 0 1 0" id="feColorMatrix4" /><feFlood id="feFlood4" result="flood" in="fbSourceGraphic" flood-opacity="1.000000" flood-color="rgb(255,255,255)" /><feGaussianBlur id="feGaussianBlur4" result="blur" in="fbSourceGraphic" stdDeviation="1.846154" /><feOffset id="feOffset4" result="offset" in="blur" dx="0.100000" dy="-0.200000" /><feComposite id="feComposite5" result="comp1" operator="in" in="flood" in2="offset" /><feComposite id="feComposite6" result="comp2" operator="over" in="fbSourceGraphic" in2="comp1" /></filter></defs><g inkscape:label="Livello 1" inkscape:groupmode="layer" id="layer1"><path id="path1" style="mix-blend-mode:normal;fill:#000000;fill-opacity:1;fill-rule:evenodd;stroke:none;stroke-width:2.617;stroke-linecap:round;stroke-linejoin:round;stroke-opacity:1;paint-order:markers stroke fill;filter:url(#filter4)" d="M 109.95248,56.86216 A 42.273724,42.273724 0 0 1 67.678758,99.135878 42.273724,42.273724 0 0 1 25.405034,56.86216 42.273724,42.273724 0 0 1 67.678758,14.588436 42.273724,42.273724 0 0 1 109.95248,56.86216 Z" transform="matrix(1.1991258,0,0,1.1991258,-14.467536,7.5357787)" /><path d="m 32.326063,33.636863 c -3.393738,-4.920034 -6.812427,-9.831366 -10.235474,-14.736894 1.031113,-0.671344 2.062694,-1.34262 3.095021,-2.013638 1.347081,1.931822 2.692864,3.864727 4.036092,5.798893 2.020981,-1.312013 4.044374,-2.622308 6.072284,-3.929457 -1.339726,-1.93807 -2.683228,-3.874518 -4.029249,-5.809519 1.036333,-0.669272 2.073962,-1.337914 3.113164,-2.005736 3.417608,4.921856 6.814923,9.854242 10.171354,14.800059 -1.032608,0.660604 -2.063943,1.322509 -3.094285,1.985524 -1.472089,-2.15906 -2.951225,-4.31578 -4.435686,-6.470403 -2.025987,1.305087 -4.047654,2.613633 -6.067104,3.924208 1.489523,2.149942 2.975227,4.301534 4.455392,6.455018 -1.027522,0.666639 -2.054599,1.334018 -3.081509,2.001945 z M 45.342536,15.707222 c -0.429245,-1.762897 -0.516293,-3.304788 -0.257216,-4.62702 0.196046,-0.975254 0.562918,-1.8939006 1.101787,-2.7552967 0.547138,-0.8632734 1.205875,-1.5600639 1.976221,-2.0897801 1.022979,-0.710817 2.278006,-1.2309824 3.764559,-1.5573576 2.69118,-0.5908373 5.038938,-0.2591373 7.019749,0.9870729 1.990665,1.2454108 3.298769,3.2857903 3.931682,6.1152025 0.627391,2.804733 0.315282,5.167555 -0.909698,7.087249 -1.227598,1.913129 -3.152314,3.151298 -5.783722,3.728852 -2.663717,0.584644 -4.961351,0.277237 -6.909897,-0.933556 -1.949874,-1.218327 -3.262796,-3.201083 -3.933435,-5.955368 -10e-6,1e-6 -2e-5,2e-6 -3e-5,2e-6 z m 3.723223,-0.970728 c 0.470742,1.960898 1.297736,3.343401 2.478628,4.149254 1.179443,0.798256 2.489447,1.037376 3.936372,0.719846 1.446753,-0.317495 2.517955,-1.074962 3.215913,-2.276446 0.703963,-1.210461 0.830922,-2.822949 0.370458,-4.835607 C 58.611953,10.503982 57.811117,9.1180146 56.66288,8.3368751 55.523495,7.5543372 54.192241,7.3280492 52.676713,7.6606388 c -1.515579,0.3325969 -2.616112,1.100764 -3.30132,2.2998199 -0.687418,1.1916993 -0.788004,2.7833663 -0.309634,4.7760353 z m 18.77078,5.662675 c 1.042148,-5.841122 2.117009,-11.6788167 3.228201,-17.5126187 1.873193,0.3118818 3.745416,0.6321293 5.616127,0.961556 0.327174,4.1689377 0.648457,8.3380127 0.963731,12.5072207 1.868267,-3.773134 3.776531,-7.5357143 5.730491,-11.28643 1.870537,0.3533044 3.738904,0.7168056 5.604554,1.0913227 C 87.672749,11.950307 86.41341,17.746153 85.198007,23.547292 84.083134,23.324859 82.966281,23.106379 81.847579,22.891657 82.774767,18.318137 83.72783,13.747673 84.708531,9.1804906 82.512125,13.513038 80.375457,17.860975 78.29015,22.222411 77.126862,22.007899 75.961735,21.797203 74.794913,21.590106 74.477702,16.792578 74.15466,11.995151 73.825892,7.1978299 72.937105,11.785676 72.071705,16.376097 71.227925,20.968866 c -1.129064,-0.19298 -2.25957,-0.382814 -3.391386,-0.569697 z m 20.733904,4.860819 c 3.199784,-5.020543 6.502015,-10.005613 9.928245,-14.949327 3.881832,2.416215 7.700992,4.887751 11.442502,7.421965 -0.59662,0.818944 -1.18928,1.639254 -1.7781,2.460903 -2.7103,-1.830763 -5.46192,-3.628956 -8.249091,-5.397414 -0.756088,1.093281 -1.506074,2.188632 -2.250193,3.285988 2.579604,1.631096 5.128214,3.287231 7.641154,4.97069 -0.57581,0.822672 -1.14796,1.646626 -1.71656,2.471833 -2.50276,-1.671729 -5.041348,-3.316669 -7.611122,-4.937104 -0.902766,1.350913 -1.796957,2.704775 -2.683009,4.061468 2.84315,1.784595 5.64734,3.598463 8.406161,5.444753 -0.55841,0.827915 -1.1134,1.657053 -1.66508,2.487384 -3.742531,-2.496595 -7.56956,-4.934328 -11.464907,-7.321139 z" id="text264" style="font-weight:bold;font-size:14.1111px;line-height:94.42%;font-family:Arial;-inkscape-font-specification:'Arial Bold';white-space:pre;fill:#ffa500;fill-rule:evenodd;stroke-width:2.73045;stroke-linecap:round;stroke-linejoin:round;stroke-opacity:0.708145;paint-order:stroke markers fill;fill-opacity:1" inkscape:transform-center-x="-10.040338" inkscape:transform-center-y="43.334796" aria-label="HOME" inkscape:path-effect="#path-effect8" inkscape:original-d="m 31.512892,32.287558 -9.228702,-15.384869 3.219896,-1.797666 3.632308,6.055302 6.309263,-3.522448 -3.632309,-6.055302 3.21991,-1.7976548 9.228706,15.3848738 -3.219902,1.797659 -4.035195,-6.726942 -6.309276,3.522435 4.035204,6.726951 z M 45.629224,15.205669 q -0.490487,-2.674473 0.0059,-4.630838 0.373563,-1.4428555 1.243015,-2.6871612 0.88184,-1.2464051 2.062407,-1.9773988 1.568523,-0.9818998 3.783828,-1.3600367 4.009847,-0.6844289 6.850918,1.3056112 2.853452,1.9879329 3.637359,6.2623175 0.777337,4.238567 -1.171113,7.046138 -1.950638,2.795629 -5.948099,3.477957 -4.046962,0.690776 -6.871285,-1.277502 -2.82651,-1.980219 -3.5929,-6.159087 z m 3.752795,-0.763699 q 0.54523,2.972967 2.250943,4.270245 1.703522,1.285337 3.894081,0.911432 2.19056,-0.373908 3.310962,-2.128949 1.130588,-1.769093 0.572219,-4.813696 Q 58.858426,9.6722162 57.213165,8.4261876 55.580281,7.1780444 53.315465,7.5646261 51.050648,7.9512027 49.94044,9.6922033 48.828029,11.421245 49.382019,14.44197 Z M 67.860458,20.89761 71.524645,3.4773159 76.981171,4.5455245 77.758103,17.069808 83.496977,5.8211071 88.965824,6.8917245 85.301633,24.312022 81.914398,23.648912 84.798759,9.9360748 78.330089,22.947223 74.819683,22.259999 74.132053,7.8478824 71.247693,21.56072 Z m 20.872126,5.11131 9.625834,-15.156695 11.649062,6.885625 -1.62837,2.564015 -8.476923,-5.010599 -2.133969,3.360113 7.887502,4.66221 -1.62181,2.55368 -7.887509,-4.662204 -2.619855,4.125185 8.776994,5.18797 -1.62182,2.553687 z" /><path id="path266" style="fill:#ffffff;stroke:#000000;stroke-width:0.442864" d="m 40.972417,67.638051 a 0.3280968,0.3280968 0 0 1 -0.328098,0.328096 0.3280968,0.3280968 0 0 1 -0.328097,-0.328096 0.3280968,0.3280968 0 0 1 0.328097,-0.328097 0.3280968,0.3280968 0 0 1 0.328098,0.328097 z" /><g id="g16" transform="matrix(1.1808337,0,0,1.0445899,-196.85302,-41.302059)" style="fill:#ffa500;fill-opacity:1"><path id="rect291-7" style="fill:#ffa500;fill-rule:evenodd;stroke:#000000;stroke-width:3.30457;stroke-linecap:round;stroke-linejoin:round;stroke-opacity:1;paint-order:stroke markers fill;fill-opacity:1" d="m 234.99865,90.182215 h 4.87191 V 105.7103 h -4.87191 z" /><path id="rect283-2" style="fill:#ffa500;fill-rule:evenodd;stroke:#000000;stroke-width:2.14768;stroke-linecap:round;stroke-linejoin:round;stroke-opacity:1;paint-order:stroke markers fill;fill-opacity:1" d="m 205.53929,106.48578 v 30.80529 h 35.38697 v -30.80529 z m 13.79911,19.87573 h 7.78876 v 10.81331 h -1.44149 -6.34727 z" sodipodi:nodetypes="ccccccccccc" /><path style="fill:#ffa500;fill-opacity:1;fill-rule:evenodd;stroke:#000000;stroke-width:3.00733;stroke-linecap:round;stroke-linejoin:round;stroke-dasharray:none;stroke-opacity:1;paint-order:stroke markers fill" d="M 197.03053,111.55015 C 224.30224,86.417392 224.124,86.595637 224.124,86.595637 l 25.311,24.241523 z" id="path289-1" /></g><path id="rect2" style="opacity:0;fill-rule:evenodd;stroke-width:0.836908;stroke-linecap:round;stroke-linejoin:round;paint-order:stroke markers fill" d="m 67.799459,91.478988 h 0.42764 V 108.6915 h -0.42764 z" /></g></svg>