<?xml version="1.0" encoding="UTF-8" standalone="no"?><svg width="500" height="500" viewBox="0 0 132.29166 132.29167" version="1.1" id="svg1" inkscape:version="1.3.2 (091e20e, 2023-11-25, custom)" sodipodi:docname="btn-curriculum.svg" xmlns:inkscape="http://www.inkscape.org/namespaces/inkscape" xmlns:sodipodi="http://sodipodi.sourceforge.net/DTD/sodipodi-0.dtd" xmlns="http://www.w3.org/2000/svg" xmlns:svg="http://www.w3.org/2000/svg"><sodipodi:namedview id="namedview1" pagecolor="#505050" bordercolor="#eeeeee" borderopacity="1" inkscape:showpageshadow="0" inkscape:pageopacity="0" inkscape:pagecheckerboard="0" inkscape:deskcolor="#505050" inkscape:document-units="mm" showguides="true" inkscape:zoom="0.822" inkscape:cx="344.28224" inkscape:cy="319.34307" inkscape:window-width="1904" inkscape:window-height="1001" inkscape:window-x="1946" inkscape:window-y="0" inkscape:window-maximized="0" inkscape:current-layer="layer1" /><defs id="defs1"><rect x="104.76999" y="43.935802" width="248.64766" height="91.734093" id="rect299" /><inkscape:path-effect effect="bspline" id="path-effect296" is_visible="true" lpeversion="1.3" weight="33.333333" steps="2" helper_size="0" apply_no_weight="true" apply_with_weight="true" only_selected="false" uniform="false" /><inkscape:path-effect effect="bspline" id="path-effect293" is_visible="true" lpeversion="1.3" weight="33.333333" steps="2" helper_size="0" apply_no_weight="true" apply_with_weight="true" only_selected="false" uniform="false" /><inkscape:perspective sodipodi:type="inkscape:persp3d" inkscape:vp_x="-15.017091 : 14.792849 : 1" inkscape:vp_y="0 : 1000 : 0" inkscape:vp_z="101.18036 : 14.792849 : 1" inkscape:persp3d-origin="43.081633 : -7.2557631 : 1" id="perspective267" /><rect x="105.2528" y="91.734093" width="297.41159" height="99.459068" id="rect264" /><filter inkscape:label="Button" inkscape:menu="Bevels" inkscape:menu-tooltip="Soft bevel, slightly depressed middle" style="color-interpolation-filters:sRGB" id="filter52" x="-0.38971364" y="-0.38971367" width="1.7794273" height="1.7794273"><feGaussianBlur stdDeviation="5.8788731" in="SourceAlpha" result="result0" id="feGaussianBlur49" /><feMorphology in="SourceAlpha" radius="6.6" result="result1" id="feMorphology49" /><feGaussianBlur stdDeviation="8.9" in="result1" id="feGaussianBlur50" /><feColorMatrix values="1 0 0 0 0 0 1 0 0 0 0 0 1 0 0 0 0 0 0.3 0" result="result91" id="feColorMatrix50" /><feComposite in="result0" operator="out" result="result2" in2="result91" id="feComposite50" /><feGaussianBlur stdDeviation="1.7" result="result4" id="feGaussianBlur51" /><feDiffuseLighting surfaceScale="10" id="feDiffuseLighting51"><feDistantLight azimuth="225" elevation="45" id="feDistantLight51" /></feDiffuseLighting><feBlend in2="SourceGraphic" mode="multiply" id="feBlend51" /><feComposite in2="SourceAlpha" operator="in" result="result3" id="feComposite51" /><feSpecularLighting in="result4" surfaceScale="5" specularExponent="17.89999962" id="feSpecularLighting52"><feDistantLight azimuth="225" elevation="45" id="feDistantLight52" /></feSpecularLighting><feComposite in2="result3" operator="atop" id="feComposite52" /></filter><inkscape:path-effect effect="bspline" id="path-effect293-0" is_visible="true" lpeversion="1.3" weight="33.333333" steps="2" helper_size="0" apply_no_weight="true" apply_with_weight="true" only_selected="false" uniform="false" /><inkscape:path-effect effect="bspline" id="path-effect293-2" is_visible="true" lpeversion="1.3" weight="33.333333" steps="2" helper_size="0" apply_no_weight="true" apply_with_weight="true" only_selected="false" uniform="false" /><inkscape:path-effect effect="bspline" id="path-effect293-02" is_visible="true" lpeversion="1.3" weight="33.333333" steps="2" helper_size="0" apply_no_weight="true" apply_with_weight="true" only_selected="false" uniform="false" /><inkscape:path-effect effect="bspline" id="path-effect293-3" is_visible="true" lpeversion="1.3" weight="33.333333" steps="2" helper_size="0" apply_no_weight="true" apply_with_weight="true" only_selected="false" uniform="false" /><inkscape:path-effect effect="bspline" id="path-effect293-4" is_visible="true" lpeversion="1.3" weight="33.333333" steps="2" helper_size="0" apply_no_weight="true" apply_with_weight="true" only_selected="false" uniform="false" /><inkscape:path-effect effect="bspline" id="path-effect293-7" is_visible="true" lpeversion="1.3" weight="33.333333" steps="2" helper_size="0" apply_no_weight="true" apply_with_weight="true" only_selected="false" uniform="false" /><inkscape:path-effect effect="bspline" id="path-effect293-36" is_visible="true" lpeversion="1.3" weight="33.333333" steps="2" helper_size="0" apply_no_weight="true" apply_with_weight="true" only_selected="false" uniform="false" /><inkscape:path-effect effect="bspline" id="path-effect293-06" is_visible="true" lpeversion="1.3" weight="33.333333" steps="2" helper_size="0" apply_no_weight="true" apply_with_weight="true" only_selected="false" uniform="false" /><inkscape:path-effect effect="bspline" id="path-effect293-8" is_visible="true" lpeversion="1.3" weight="33.333333" steps="2" helper_size="0" apply_no_weight="true" apply_with_weight="true" only_selected="false" uniform="false" /><inkscape:path-effect effect="bspline" id="path-effect293-1" is_visible="true" lpeversion="1.3" weight="33.333333" steps="2" helper_size="0" apply_no_weight="true" apply_with_weight="true" only_selected="false" uniform="false" /><filter inkscape:label="Drop Shadow" inkscape:menu="Bevels" inkscape:menu-tooltip="Soft bevel, slightly depressed middle" style="color-interpolation-filters:sRGB" id="filter4" x="-0.34052795" y="-0.3428935" width="1.6822387" height="1.6834215"><feGaussianBlur stdDeviation="2.3" in="SourceAlpha" result="result0" id="feGaussianBlur1" /><feMorphology in="SourceAlpha" radius="6.6" result="result1" id="feMorphology1" /><feGaussianBlur stdDeviation="8.9" in="result1" id="feGaussianBlur2" /><feColorMatrix values="1 0 0 0 0 0 1 0 0 0 0 0 1 0 0 0 0 0 0.3 0" result="result91" id="feColorMatrix2" /><feComposite in="result0" operator="out" result="result2" in2="result91" id="feComposite2" /><feGaussianBlur stdDeviation="1.7" result="result4" id="feGaussianBlur3" /><feDiffuseLighting surfaceScale="10" id="feDiffuseLighting3"><feDistantLight azimuth="225" elevation="45" id="feDistantLight3" /></feDiffuseLighting><feBlend in2="SourceGraphic" mode="multiply" id="feBlend3" /><feComposite in2="SourceAlpha" operator="in" result="result3" id="feComposite3" /><feSpecularLighting in="result4" surfaceScale="5" specularExponent="17.89999962" id="feSpecularLighting4"><feDistantLight azimuth="225" elevation="45" id="feDistantLight4" /></feSpecularLighting><feComposite in2="result3" operator="atop" id="feComposite4" result="fbSourceGraphic" /><feColorMatrix result="fbSourceGraphicAlpha" in="fbSourceGraphic" values="0 0 0 -1 0 0 0 0 -1 0 0 0 0 -1 0 0 0 0 1 0" id="feColorMatrix4" /><feFlood id="feFlood4" result="flood" in="fbSourceGraphic" flood-opacity="1.000000" flood-color="rgb(255,255,255)" /><feGaussianBlur id="feGaussianBlur4" result="blur" in="fbSourceGraphic" stdDeviation="1.846154" /><feOffset id="feOffset4" result="offset" in="blur" dx="0.100000" dy="-0.200000" /><feComposite id="feComposite5" result="comp1" operator="in" in="flood" in2="offset" /><feComposite id="feComposite6" result="comp2" operator="over" in="fbSourceGraphic" in2="comp1" /></filter></defs><g inkscape:label="Livello 1" inkscape:groupmode="layer" id="layer1"><text xml:space="preserve" transform="scale(0.26458333)" id="text299" style="font-style:normal;font-variant:normal;font-weight:bold;font-stretch:normal;font-size:53.3333px;line-height:94.42%;font-family:Arial;-inkscape-font-specification:'Arial Bold';white-space:pre;shape-inside:url(#rect299);display:inline;opacity:1;fill:#ffffff;fill-opacity:1;fill-rule:evenodd;stroke:none;stroke-width:2.64567;stroke-linecap:round;stroke-linejoin:round;stroke-dasharray:none;stroke-opacity:0.708145;paint-order:stroke markers fill" /><path id="path1" style="mix-blend-mode:normal;fill:#000000;fill-opacity:1;fill-rule:evenodd;stroke:none;stroke-width:2.617;stroke-linecap:round;stroke-linejoin:round;stroke-opacity:1;paint-order:markers stroke fill;filter:url(#filter4)" d="M 109.95248,56.86216 A 42.273724,42.273724 0 0 1 67.678758,99.135878 42.273724,42.273724 0 0 1 25.405034,56.86216 42.273724,42.273724 0 0 1 67.678758,14.588436 42.273724,42.273724 0 0 1 109.95248,56.86216 Z" transform="matrix(1.0822531,0,0,1.0822531,-7.0997081,13.602431)" /><path id="path266" style="fill:#ffffff;stroke:#000000;stroke-width:0.399701" d="m 42.876011,68.150748 a 0.29611886,0.29611886 0 0 1 -0.29612,0.296117 0.29611886,0.29611886 0 0 1 -0.296119,-0.296117 0.29611886,0.29611886 0 0 1 0.296119,-0.29612 0.29611886,0.29611886 0 0 1 0.29612,0.29612 z" /><path id="path295" style="stroke:#000000;stroke-width:0.399701" d="m 9.5373789,64.149473 a 0.05234691,0.05234691 0 0 1 -0.052345,0.05235 0.05234691,0.05234691 0 0 1 -0.052345,-0.05235 0.05234691,0.05234691 0 0 1 0.052345,-0.05235 0.05234691,0.05234691 0 0 1 0.052345,0.05235 z" /><path d="m 13.387236,56.498629 1.498898,-2.846116 q 2.453843,1.119076 3.428136,2.941513 0.965391,1.810173 0.53542,4.283765 -0.532,3.060545 -3.008868,4.676721 -2.487595,1.614396 -6.1985798,0.998359 -3.925482,-0.651646 -5.74766,-2.992268 Q 2.0616676,61.218201 2.6228138,57.989955 3.1129089,55.17048 5.1243357,53.692713 6.314711,52.811943 8.2934712,52.601238 l 0.216958,3.195658 q -1.2700637,0.06954 -2.1291669,0.821981 -0.8572718,0.741958 -1.0722568,1.978753 -0.2969623,1.708455 0.7720735,2.985863 1.0708515,1.266926 3.8808932,1.733406 2.9816558,0.494967 4.4294398,-0.34307 1.447787,-0.838038 1.739293,-2.51505 0.214986,-1.236795 -0.434554,-2.261241 -0.649542,-1.024446 -2.308915,-1.698909 z M 6.7469231,44.302842 8.3042862,41.548424 15.864864,45.630876 q 1.799684,0.971766 2.3908,1.157337 0.956958,0.285943 1.854232,-0.09196 0.893011,-0.392346 1.545419,-1.546224 0.662929,-1.172489 0.514027,-2.030262 -0.158425,-0.862914 -0.804189,-1.369507 -0.645763,-0.506594 -2.302617,-1.401236 l -7.722455,-4.169858 1.557356,-2.75442 7.33205,3.959053 q 2.513847,1.357388 3.425487,2.141158 0.911642,0.783768 1.283815,1.774245 0.377434,0.981171 0.237706,2.217535 -0.149255,1.231222 -1.064726,2.850374 -1.104883,1.954148 -2.135432,2.721646 -1.034812,0.753052 -2.09948,0.94339 -1.074192,0.185198 -1.988802,-0.06573 -1.352369,-0.377986 -3.694815,-1.642826 z m 22.2796099,-6.03713 -10.629482,-11.619486 5.052863,-4.41438 q 1.905974,-1.665135 3.055718,-2.099179 1.150604,-0.449054 2.401995,-0.102007 1.251392,0.347041 2.193979,1.377418 1.196361,1.307788 1.19271,2.851105 -0.0109,1.53539 -1.373213,3.124855 1.184648,-0.236372 2.173297,-0.14464 0.996758,0.08465 3.096339,0.688904 l 3.525477,0.998493 -2.87113,2.508331 -4.048616,-1.012052 q -2.164467,-0.547575 -2.824138,-0.598719 -0.666923,-0.05907 -1.164128,0.147139 -0.504457,0.198286 -1.331731,0.921026 l -0.486632,0.425131 4.43741,4.8507 z m -3.733349,-8.80274 1.776207,-1.551765 q 1.727545,-1.509251 2.026889,-2.027458 0.299347,-0.518209 0.223633,-1.079523 -0.07571,-0.561314 -0.554258,-1.084428 -0.536548,-0.586523 -1.18725,-0.659764 -0.649842,-0.08826 -1.320808,0.326803 -0.328232,0.215455 -1.788129,1.490877 l -1.873534,1.636792 z m 16.149371,-1.304424 -6.107033,-14.39782 6.261049,-2.536223 q 2.361712,-0.956683 3.593627,-0.99535 1.237799,-0.05262 2.301731,0.678822 1.063934,0.731391 1.605485,2.008135 0.687353,1.620491 0.162423,3.076067 -0.529097,1.445747 -2.352073,2.50644 1.198068,0.15917 2.100266,0.564786 0.912246,0.401545 2.689877,1.649439 l 2.990334,2.080143 -3.557643,1.44113 -3.479549,-2.261758 q -1.858029,-1.215325 -2.463417,-1.476474 -0.609554,-0.270971 -1.148548,-0.236773 -0.54316,0.02438 -1.568244,0.439618 l -0.602991,0.244258 2.549457,6.010549 z m -0.549498,-9.513709 2.200915,-0.891547 q 2.140616,-0.86712 2.598274,-1.259663 0.457656,-0.392546 0.575856,-0.946802 0.118198,-0.554256 -0.156738,-1.202465 -0.308268,-0.726762 -0.897721,-1.005873 -0.58357,-0.292998 -1.357147,-0.11773 -0.382624,0.09752 -2.191594,0.83022 l -2.321513,0.940404 z M 56.509013,23.038325 53.968791,7.6515649 57.147872,7.1503409 59.688092,22.5371 Z m 16.855872,-6.162111 3.041707,1.18755 q -0.906639,2.493542 -2.670427,3.614629 -1.752144,1.111257 -4.312747,0.928158 -3.168201,-0.226545 -5.050017,-2.482424 -1.881019,-2.266481 -1.606327,-5.935159 0.29057,-3.88075 2.50159,-5.8759401 2.211815,-2.00579 5.553618,-1.766843 2.918651,0.208704 4.615222,2.024938 1.010373,1.074289 1.413146,2.9792301 l -3.234626,0.514894 Q 73.424429,10.83632 72.576277,10.07211 71.738974,9.3086859 70.458673,9.2171409 q -1.768552,-0.126525 -2.96814,1.0349741 -1.188738,1.162193 -1.396741,3.940217 -0.220705,2.947664 0.770615,4.276417 0.991319,1.328752 2.727321,1.452885 1.2803,0.09155 2.262094,-0.637738 0.981794,-0.729286 1.511063,-2.407682 z m 11.791868,-7.6193721 2.953858,1.2531371 -3.439734,7.743227 q -0.81878,1.843159 -0.951607,2.435851 -0.20029,0.958133 0.269969,1.795086 0.484569,0.831436 1.721994,1.3564 1.257386,0.533432 2.116998,0.30702 0.863944,-0.236163 1.318587,-0.912541 0.454642,-0.676376 1.208437,-2.373254 l 3.513381,-7.90901 2.953857,1.253137 -3.335762,7.509174 q -1.14369,2.574574 -1.855399,3.535955 -0.711707,0.961381 -1.685268,1.41761 -0.963585,0.460464 -2.236291,0.442085 -1.268372,-0.02813 -3.004762,-0.764775 -2.095642,-0.889052 -2.975436,-1.818616 -0.865484,-0.935083 -1.1606,-1.952716 -0.290784,-1.027386 -0.122129,-1.940991 0.256454,-1.351547 1.322166,-3.750581 z m 8.224563,21.2580731 10.432044,-11.61995 2.42062,2.075391 -8.659879,9.645998 6.018849,5.160435 -1.77215,1.973953 z m 23.672234,0.967478 1.65576,2.699046 -7.40859,4.340415 q -1.76351,1.033172 -2.2245,1.439599 -0.73348,0.665237 -0.84951,1.613302 -0.1011,0.951716 0.59253,2.082398 0.70481,1.148919 1.53869,1.453704 0.84319,0.299319 1.61572,0.0079 0.77252,-0.291449 2.39607,-1.242623 l 7.56722,-4.433346 1.65576,2.699046 -7.18465,4.209218 q -2.46331,1.443162 -3.61461,1.820171 -1.1513,0.377009 -2.21471,0.1943 -1.0578,-0.173587 -2.08182,-0.912382 -1.01468,-0.744261 -1.988,-2.330861 -1.1747,-1.914865 -1.33655,-3.171164 -0.14692,-1.252646 0.21913,-2.248028 0.37539,-1.000847 1.05662,-1.64787 1.01345,-0.953214 3.30881,-2.297977 z m -5.67373,21.775111 15.69748,-2.755072 0.85193,4.635572 -10.19616,4.662748 11.21347,0.872732 0.85384,4.646035 -15.69749,2.755073 -0.52884,-2.877613 12.35668,-2.168726 -12.91629,-0.87631 -0.54809,-2.982254 11.799,-5.203298 -12.35669,2.168726 z" id="text300" style="font-weight:bold;font-size:14.1111px;line-height:94.42%;font-family:Arial;-inkscape-font-specification:'Arial Bold';fill:#ffa500;fill-rule:evenodd;stroke-width:2.0291;stroke-linecap:round;stroke-linejoin:round;stroke-opacity:0.708145;paint-order:stroke markers fill;fill-opacity:1" aria-label="CURRICULUM" /><path style="fill:#ffffff;fill-opacity:1;fill-rule:evenodd;stroke:none;stroke-width:1.96389;stroke-linecap:round;stroke-linejoin:round;stroke-dasharray:none;stroke-opacity:0.708145;paint-order:stroke markers fill" d="m 82.617699,66.085181 c -0.121564,8.509454 0,0 0,0 z" id="path1020" /><g id="g19" transform="matrix(0.82644844,0,0,0.82644844,-72.677948,41.612243)" style="fill:#ffa500;stroke:none;stroke-opacity:1;fill-opacity:1"><path id="path19" style="fill:#ffa500;fill-rule:evenodd;stroke-width:0.402;stroke-linecap:round;fill-opacity:1" d="M 188.9421,56.167629 A 20.922039,10.46102 0 0 1 168.02007,66.62865 20.922039,10.46102 0 0 1 147.09803,56.167629 20.922039,10.46102 0 0 1 168.02007,45.706609 20.922039,10.46102 0 0 1 188.9421,56.167629 Z" /><path id="rect19" style="fill:#ffa500;fill-rule:evenodd;stroke:none;stroke-width:0.388668;stroke-linecap:round;stroke-opacity:1;fill-opacity:1" d="m 147.39595,28.961187 h 41.58966 l -0.16094,28.340807 -41.68477,-1.358361 z" sodipodi:nodetypes="ccccc" /></g><path style="fill:#ffa500;fill-opacity:1;fill-rule:evenodd;stroke:#000000;stroke-width:1.34646;stroke-linecap:round;stroke-linejoin:round;stroke-dasharray:none;stroke-opacity:1;paint-order:stroke markers fill" d="M 36.951889,68.904485 C 66.095118,54.400016 66.095118,54.062699 66.095118,54.062699 l 29.352891,16.3597 -28.933561,12.311943 z" id="path1019" /><path style="fill:#ffffff;fill-opacity:1;fill-rule:evenodd;stroke:none;stroke-width:1.06725;stroke-linecap:round;stroke-linejoin:round;stroke-dasharray:none;stroke-opacity:0.708145;paint-order:stroke markers fill" d="M 95.212823,71.674594 95.18755,84.39499 94.857497,68.236644 Z" id="path1021" /><path style="fill:#ffffff;fill-opacity:1;fill-rule:evenodd;stroke:none;stroke-width:1.17986;stroke-linecap:round;stroke-linejoin:round;stroke-dasharray:none;stroke-opacity:0.708145;paint-order:stroke markers fill" d="m 95.160494,81.738195 -0.301866,1.243572 -0.563472,5.821009 c 0,0 0.136352,-0.828325 0.442743,-0.810163 0.30639,0.01816 0.342098,0.852223 0.342098,0.852223 0,0 0.0423,-0.871911 0.357477,-0.880159 0.315177,-0.0082 0.39952,0.852778 0.39952,0.852778 0,0 -0.01799,-0.851047 0.299322,-0.870547 0.317308,-0.0195 0.432734,0.886934 0.432734,0.886934 l -0.04013,-0.479117 -1.005976,-5.413192 z" id="path1022" sodipodi:nodetypes="ccczczczcccc" /></g></svg>