<?xml version="1.0" encoding="UTF-8" standalone="no"?><svg width="1920" height="300" viewBox="0 0 507.99999 79.375" version="1.1" id="svg1" inkscape:version="1.3.1 (91b66b0783, 2023-11-16)" sodipodi:docname="title.svg" xmlns:inkscape="http://www.inkscape.org/namespaces/inkscape" xmlns:sodipodi="http://sodipodi.sourceforge.net/DTD/sodipodi-0.dtd" xmlns:xlink="http://www.w3.org/1999/xlink" xmlns="http://www.w3.org/2000/svg" xmlns:svg="http://www.w3.org/2000/svg"><sodipodi:namedview id="namedview1" pagecolor="#505050" bordercolor="#eeeeee" borderopacity="1" inkscape:showpageshadow="0" inkscape:pageopacity="0" inkscape:pagecheckerboard="0" inkscape:deskcolor="#505050" inkscape:document-units="mm" inkscape:zoom="0.73228114" inkscape:cx="1097.2562" inkscape:cy="185.72102" inkscape:window-width="1920" inkscape:window-height="1017" inkscape:window-x="1912" inkscape:window-y="-8" inkscape:window-maximized="1" inkscape:current-layer="layer1" /><defs id="defs1"><linearGradient id="linearGradient1195" inkscape:collect="always"><stop style="stop-color:#008000;stop-opacity:1;" offset="0" id="stop1195" /><stop style="stop-color:#008000;stop-opacity:0.49803922;" offset="0.5" id="stop1197" /><stop style="stop-color:#008000;stop-opacity:0;" offset="1" id="stop1196" /></linearGradient><rect x="147.48434" y="-16.387149" width="1556.7791" height="330.47417" id="rect2" /><filter y="-0.12901868" height="1.2580374" inkscape:menu-tooltip="Darkens the edge with an inner blur and adds a flexible glow" inkscape:menu="Shadows and Glows" inkscape:label="Dark and Glow" style="color-interpolation-filters:sRGB;" id="filter3" x="-0.0081192216" width="1.0162384"><feGaussianBlur stdDeviation="1.638196" result="result6" id="feGaussianBlur2" /><feComposite result="result8" in="SourceGraphic" operator="atop" in2="result6" id="feComposite2" /><feComposite result="result9" operator="over" in2="SourceAlpha" in="result8" id="feComposite3" /><feColorMatrix values="1 0 0 0 0 0 1 0 0 0 0 0 1 0 0 0 0 0 1 0 " result="result10" id="feColorMatrix3" /><feBlend in="result10" mode="normal" in2="result6" id="feBlend3" /></filter><rect x="147.48434" y="-16.38715" width="1556.7791" height="330.47418" id="rect2-1" /><filter y="-0.08458947" height="1.1691789" inkscape:menu-tooltip="Darkens the edge with an inner blur and adds a flexible glow" inkscape:menu="Shadows and Glows" inkscape:label="Dark and Glow" style="color-interpolation-filters:sRGB" id="filter3-0" x="-0.0053232654" width="1.0106465"><feGaussianBlur stdDeviation="2.1154395" result="result6" id="feGaussianBlur2-9" /><feComposite result="result8" in="SourceGraphic" operator="atop" in2="result6" id="feComposite2-3" /><feComposite result="result9" operator="over" in2="SourceAlpha" in="result8" id="feComposite3-8" /><feColorMatrix values="1 0 0 0 0 0 1 0 0 0 0 0 1 0 0 0 0 0 1 0 " result="result10" id="feColorMatrix3-0" /><feBlend in="result10" mode="normal" in2="result6" id="feBlend3-6" /></filter><rect x="147.48434" y="-16.38715" width="1556.7791" height="330.47418" id="rect2-2" /><filter y="-0.057005525" height="1.1140111" inkscape:menu-tooltip="Darkens the edge with an inner blur and adds a flexible glow" inkscape:menu="Shadows and Glows" inkscape:label="Dark and Glow" style="color-interpolation-filters:sRGB" id="filter3-5" x="-0.0035873914" width="1.0071748"><feGaussianBlur stdDeviation="2.1154395" result="result6" id="feGaussianBlur2-2" /><feComposite result="result8" in="SourceGraphic" operator="atop" in2="result6" id="feComposite2-2" /><feComposite result="result9" operator="over" in2="SourceAlpha" in="result8" id="feComposite3-7" /><feColorMatrix values="1 0 0 0 0 0 1 0 0 0 0 0 1 0 0 0 0 0 1 0 " result="result10" id="feColorMatrix3-6" /><feBlend in="result10" mode="normal" in2="result6" id="feBlend3-2" /></filter><filter y="-0.08458947" height="1.1691789" inkscape:menu-tooltip="Darkens the edge with an inner blur and adds a flexible glow" inkscape:menu="Shadows and Glows" inkscape:label="Dark and Glow" style="color-interpolation-filters:sRGB" id="filter3-3" x="-0.0053232654" width="1.0106465"><feGaussianBlur stdDeviation="2.1154395" result="result6" id="feGaussianBlur2-93" /><feComposite result="result8" in="SourceGraphic" operator="atop" in2="result6" id="feComposite2-9" /><feComposite result="result9" operator="over" in2="SourceAlpha" in="result8" id="feComposite3-0" /><feColorMatrix values="1 0 0 0 0 0 1 0 0 0 0 0 1 0 0 0 0 0 1 0 " result="result10" id="feColorMatrix3-4" /><feBlend in="result10" mode="normal" in2="result6" id="feBlend3-0" /></filter><filter y="-0.08458947" height="1.1691789" inkscape:menu-tooltip="Horizontal rippling of edges" inkscape:menu="Distort" inkscape:label="Ripple" style="color-interpolation-filters:sRGB;" id="filter3-55" x="-0.0053232654" width="1.0106465"><feGaussianBlur stdDeviation="2.1154395" result="result6" id="feGaussianBlur2-21" /><feComposite result="result8" in="SourceGraphic" operator="atop" in2="result6" id="feComposite2-95" /><feComposite result="result9" operator="over" in2="SourceAlpha" in="result8" id="feComposite3-77" /><feColorMatrix values="1 0 0 0 0 0 1 0 0 0 0 0 1 0 0 0 0 0 1 0 " result="result10" id="feColorMatrix3-1" /><feBlend in="result10" mode="normal" in2="result6" id="feBlend3-7" result="fbSourceGraphic" /><feColorMatrix result="fbSourceGraphicAlpha" in="fbSourceGraphic" values="0 0 0 -1 0 0 0 0 -1 0 0 0 0 -1 0 0 0 0 1 0" id="feColorMatrix1201" /><feTurbulence id="feTurbulence1201" numOctaves="1" baseFrequency="0.002 0.107" in="fbSourceGraphic" /><feColorMatrix id="feColorMatrix1202" values="2 0 0 0 0 0 0 0 0 0 0 0 0 0 0 0 0 0 0.5 0.5" result="result91" /><feDisplacementMap id="feDisplacementMap1202" yChannelSelector="A" xChannelSelector="R" scale="14.3" in="fbSourceGraphic" in2="result91" /></filter><linearGradient inkscape:collect="always" xlink:href="#linearGradient1195" id="linearGradient1196" x1="846.75427" y1="258.25513" x2="844.5614" y2="39.759808" gradientUnits="userSpaceOnUse" /></defs><g inkscape:label="Livello 1" inkscape:groupmode="layer" id="layer1"><path id="rect1" style="opacity:0;fill:#ffffff;fill-rule:evenodd;stroke:#000000;stroke-width:3.29999;stroke-linecap:round;stroke-linejoin:round;paint-order:stroke markers fill" d="M -0.7262727,-0.7796518 H 508.72627 V 80.154652 H -0.7262727 Z" /><path d="m 200.07812,91.881479 -32.90625,-71.625 v 56.90625 q 0,4.40625 0.5625,6.9375 0.65625,2.4375 1.78125,3.65625 1.21875,1.21875 2.90625,1.5 1.6875,0.28125 3.84375,0.28125 h 3 v 2.34375 h -29.625 v -2.34375 h 3 q 2.25,0 3.9375,-0.28125 1.6875,-0.375 2.8125,-1.59375 1.125,-1.3125 1.6875,-3.75 0.5625,-2.53125 0.5625,-6.75 v -55.6875 q 0,-3 -0.28125,-5.25 -0.28125,-2.34375 -1.5,-3.9375 -1.125,-1.59375 -3.5625,-2.4374997 -2.34375,-0.84375 -6.65625,-0.84375 v -2.34375 h 24.09375 l 30.9375,66.6562497 30.375,-66.6562497 h 24.09375 v 2.34375 h -2.90625 q -2.34375,0 -4.03125,0.375 -1.6875,0.375 -2.8125,1.6874997 -1.125,1.21875 -1.6875,3.75 -0.5625,2.4375 -0.5625,6.65625 v 55.6875 q 0,4.40625 0.5625,6.9375 0.65625,2.4375 1.78125,3.65625 1.21875,1.21875 2.90625,1.5 1.6875,0.28125 3.84375,0.28125 h 2.90625 v 2.34375 h -36.1875 v -2.34375 h 3 q 2.25,0 3.9375,-0.375 1.6875,-0.375 2.8125,-1.59375 1.21875,-1.3125 1.78125,-3.75 0.5625,-2.4375 0.5625,-6.65625 v -56.90625 l -32.8125,71.625 z M 323.17187,6.6627293 h 29.71875 v 2.34375 h -1.6875 q -3.5625,0 -7.6875,3.2812497 -4.125,3.1875 -9.09375,11.15625 l -20.53125,32.34375 v 21.375 q 0,4.3125 0.5625,6.84375 0.65625,2.4375 1.78125,3.65625 1.21875,1.21875 2.90625,1.59375 1.78125,0.28125 4.03125,0.28125 h 2.71875 v 2.34375 h -36.1875 v -2.34375 h 3.09375 q 2.25,0 3.9375,-0.375 1.6875,-0.375 2.8125,-1.59375 1.125,-1.3125 1.6875,-3.75 0.5625,-2.4375 0.5625,-6.65625 v -20.25 l -23.34375,-35.625 q -2.15625,-3.1875 -3.5625,-5.0625 -1.3125,-1.96875 -2.0625,-2.8125 -0.375,-0.375 -1.3125,-1.125 -0.84375,-0.75 -2.15625,-1.40625 -1.3125,-0.75 -2.90625,-1.3124997 -1.59375,-0.5625 -3.375,-0.5625 v -2.34375 h 36.375 v 2.34375 h -1.875 q -1.40625,0 -2.8125,0.375 -1.40625,0.28125 -2.53125,0.9374997 -1.125,0.65625 -1.875,1.78125 -0.65625,1.03125 -0.65625,2.4375 -0.0937,1.125 0.9375,3.1875 1.03125,1.96875 2.90625,4.96875 l 17.71875,27.46875 16.78125,-26.25 q 3.5625,-5.71875 3.75,-8.8125 -0.1875,-1.3125 -0.65625,-2.4375 -0.375,-1.125 -1.40625,-1.875 -0.9375,-0.8437497 -2.53125,-1.3124997 -1.59375,-0.46875 -4.03125,-0.46875 z m 85.3125,45.3749997 v 24.75 q 0,8.15625 1.78125,10.03125 2.4375,2.71875 7.21875,2.71875 h 3.28125 v 2.34375 h -36.46875 v -2.34375 h 3.1875 q 5.34375,0 7.6875,-3.46875 1.3125,-2.0625 1.3125,-9.28125 v -55.03125 q 0,-7.96875 -1.6875,-9.9375 -2.53125,-2.8124997 -7.3125,-2.8124997 h -3.1875 v -2.34375 h 31.21875 q 11.25,0 18,2.4375 3.28125,1.1249997 6.09375,3.1874997 2.90625,1.96875 4.96875,4.78125 2.15625,2.71875 3.375,6.09375 1.21875,3.28125 1.21875,7.125 0,5.15625 -1.78125,9.46875 -1.78125,4.3125 -5.15625,7.40625 -3.375,3.09375 -8.25,4.875 -4.875,1.6875 -11.15625,1.6875 -6.09375,0 -14.34375,-1.6875 z m 0,-3.65625 q 3.375,0.65625 5.90625,1.03125 2.53125,0.28125 4.40625,0.28125 3.28125,0 6.1875,-1.3125 2.90625,-1.40625 5.0625,-3.75 2.25,-2.4375 3.46875,-5.8125 1.3125,-3.375 1.3125,-7.3125 0,-4.6875 -1.40625,-8.34375 -1.40625,-3.65625 -3.84375,-6.1875 -2.4375,-2.53125 -5.71875,-3.84375 -3.28125,-1.3125 -7.125,-1.3125 -3.1875,0 -8.25,1.125 z m 72.09375,-37.03125 v 33.65625 h 18.65625 q 4.125,0 6.65625,-0.75 2.53125,-0.75 3.9375,-2.25 1.5,-1.5 2.0625,-3.84375 0.5625,-2.34375 0.75,-5.53125 h 2.34375 v 29.625 h -2.34375 q -0.46875,-3.65625 -1.125,-6.09375 -0.5625,-2.4375 -1.96875,-3.84375 -1.3125,-1.5 -3.75,-2.0625 -2.4375,-0.65625 -6.5625,-0.65625 h -18.65625 v 28.125 q 0,3.1875 0.0937,5.0625 0.0937,1.875 0.75,2.90625 0.65625,0.9375 2.0625,1.21875 1.40625,0.28125 4.125,0.28125 h 14.4375 q 3.65625,0 6.1875,-0.1875 2.53125,-0.1875 4.3125,-0.75 1.875,-0.5625 3.28125,-1.5 1.40625,-1.03125 3,-2.53125 3.75,-3.65625 7.96875,-11.71875 h 2.53125 l -7.40625,21.375 h -65.625 v -2.34375 h 3 q 1.21875,0 2.53125,-0.28125 1.3125,-0.28125 2.4375,-0.75 1.21875,-0.5625 2.15625,-1.40625 0.9375,-0.84375 1.3125,-1.96875 0.75,-2.0625 0.75,-8.25 v -55.3125 q 0,-8.15625 -1.59375,-10.03125 -2.25,-2.5312497 -7.59375,-2.5312497 h -3 v -2.34375 h 65.625 V 25.318979 h -1.5 q -0.9375,-4.59375 -2.0625,-7.3125 -1.03125,-2.8125 -2.8125,-4.3125 -1.78125,-1.5 -4.59375,-1.875 -2.71875,-0.46875 -7.03125,-0.46875 z m 138.5625,80.53125 h -22.6875 l -28.875,-39.84375 q -1.59375,0.09375 -2.90625,0.1875 -1.21875,0 -2.25,0 -0.84375,0 -1.78125,0 -0.9375,-0.09375 -1.96875,-0.1875 v 24.75 q 0,4.5 0.5625,7.125 0.65625,2.53125 1.78125,3.84375 1.21875,1.21875 2.8125,1.5 1.6875,0.28125 3.75,0.28125 h 3.375 v 2.34375 h -36.5625 v -2.34375 h 3.28125 q 5.25,0 7.6875,-3.46875 1.3125,-2.0625 1.3125,-9.28125 v -55.03125 q 0,-7.875 -1.78125,-9.9375 -2.4375,-2.8124997 -7.21875,-2.8124997 h -3.28125 v -2.34375 h 31.03125 q 6.84375,0 11.8125,0.5625 4.96875,0.46875 8.15625,1.5 3.1875,1.03125 6,2.9062497 2.8125,1.78125 4.875,4.40625 2.15625,2.53125 3.375,5.71875 1.21875,3.1875 1.21875,6.84375 0,7.96875 -5.0625,13.6875 -5.0625,5.71875 -15.84375,8.15625 l 17.53125,24.375 q 3.09375,4.21875 5.4375,6.9375 2.4375,2.71875 4.78125,4.3125 2.4375,1.59375 5.0625,2.34375 2.71875,0.75 6.375,1.125 z m -60.46875,-43.78125 q 1.21875,0 2.0625,0.09375 0.9375,0 1.5,0 6.09375,0 10.6875,-1.40625 4.59375,-1.40625 7.6875,-3.9375 3.09375,-2.53125 4.59375,-5.90625 1.59375,-3.46875 1.59375,-7.5 0,-3.9375 -1.3125,-7.21875 -1.3125,-3.375 -3.75,-5.71875 -2.4375,-2.4375 -5.8125,-3.75 -3.375,-1.3125 -7.40625,-1.3125 -3.84375,0 -9.84375,1.21875 z M 676.98437,4.7877293 V 34.225229 h -2.34375 q -1.59375,-11.90625 -7.78125,-18.1875 -6.1875,-6.2812497 -15.75,-6.2812497 -3.28125,0 -6,1.1249997 -2.71875,1.125 -4.78125,3 -2.0625,1.78125 -3.1875,4.125 -1.125,2.34375 -1.125,4.875 0,2.34375 0.9375,4.5 0.9375,2.0625 5.8125,6.5625 8.15625,5.15625 14.53125,8.53125 6,3.28125 16.21875,9.9375 4.40625,3.375 6.75,8.0625 2.34375,4.59375 2.34375,9.65625 0,4.78125 -1.96875,9.09375 -1.96875,4.3125 -5.53125,7.59375 -3.46875,3.1875 -8.4375,5.0625 -4.96875,1.96875 -10.875,1.96875 -3.75,0 -6.9375,-0.5625 -0.5625,-0.09375 -3,-0.84375 -2.34375,-0.65625 -5.0625,-1.40625 -2.71875,-0.75 -5.0625,-1.40625 -2.34375,-0.65625 -2.71875,-0.65625 -1.59375,0 -2.53125,0.9375 -0.84375,0.9375 -1.3125,3.9375 h -2.34375 v -29.25 h 2.34375 q 1.6875,9 4.40625,13.78125 1.3125,2.25 3.46875,4.21875 2.25,1.875 4.96875,3.375 2.8125,1.40625 6,2.25 3.1875,0.75 6.46875,0.75 3.9375,0 7.03125,-1.125 3.1875,-1.125 5.34375,-3 2.25,-1.96875 3.375,-4.5 1.21875,-2.53125 1.21875,-5.34375 0,-3.1875 -1.78125,-6.375 -1.6875,-3.1875 -5.8125,-6.28125 -4.03125,-2.4375 -9.5625,-5.71875 -10.59375,-6.09375 -18.84375,-11.71875 -4.59375,-3.65625 -7.03125,-7.96875 -2.34375,-4.40625 -2.34375,-9.75 0,-4.5 1.875,-8.53125 1.875,-4.125 5.15625,-7.21875 3.375,-3.0937497 7.96875,-4.8749997 4.59375,-1.78125 9.9375,-1.78125 6.75,0 14.34375,3.28125 1.78125,0.75 3,1.21875 1.21875,0.46875 1.96875,0.375 1.6875,0 2.71875,-0.9375 1.03125,-0.9375 1.59375,-3.9375 z m 59.625,0 q 8.15625,0 15.5625,3.375 7.40625,3.3749997 13.03125,9.2812497 5.625,5.90625 8.90625,13.96875 3.375,7.96875 3.375,17.34375 0,9.65625 -3.375,17.90625 -3.28125,8.25 -9,14.34375 -5.625,6 -13.3125,9.46875 -7.59375,3.375 -16.21875,3.375 -8.71875,0 -16.3125,-3.28125 -7.59375,-3.28125 -13.21875,-9.1875 -5.53125,-6 -8.8125,-14.25 -3.1875,-8.25 -3.1875,-18.1875 0,-9.1875 3.1875,-17.25 3.28125,-8.0625 8.90625,-13.96875 5.71875,-6 13.5,-9.4687497 7.78125,-3.46875 16.96875,-3.46875 z m -1.21875,4.59375 q -6.46875,0 -11.53125,2.8124997 -4.96875,2.71875 -8.4375,7.875 -3.375,5.0625 -5.15625,12.375 -1.78125,7.21875 -1.78125,16.3125 0,9 1.6875,16.5 1.78125,7.40625 5.15625,12.84375 3.46875,5.34375 8.53125,8.34375 5.0625,2.90625 11.625,2.90625 5.90625,0 10.875,-2.25 5.0625,-2.25 8.8125,-6.9375 3.75,-4.78125 5.8125,-12.09375 2.15625,-7.40625 2.15625,-17.625 0,-9.65625 -1.78125,-17.25 -1.6875,-7.6875 -5.25,-12.9375 -3.46875,-5.34375 -8.71875,-8.0625 -5.15625,-2.8124997 -12,-2.8124997 z m 45.375,-2.71875 h 23.0625 l 52.125,63.9374997 v -49.125 q 0,-4.3125 -0.65625,-6.84375 -0.5625,-2.53125 -1.78125,-3.75 -1.125,-1.2187497 -2.8125,-1.4999997 -1.6875,-0.375 -3.84375,-0.375 h -3 v -2.34375 h 29.71875 v 2.34375 h -3.09375 q -2.25,0 -3.9375,0.375 -1.6875,0.375 -2.8125,1.6874997 -1.125,1.3125 -1.6875,3.75 -0.5625,2.4375 -0.5625,6.65625 v 71.8125 h -2.25 l -56.15625,-68.625 v 52.5 q 0,4.40625 0.5625,6.9375 0.65625,2.4375 1.78125,3.65625 1.125,1.21875 2.8125,1.5 1.6875,0.28125 3.84375,0.28125 h 3 v 2.34375 h -29.625 v -2.34375 h 3 q 2.25,0 3.9375,-0.375 1.6875,-0.375 2.8125,-1.59375 1.21875,-1.3125 1.78125,-3.75 0.5625,-2.4375 0.5625,-6.65625 v -59.25 q -1.875,-2.25 -3.1875,-3.5625 -1.21875,-1.3125 -2.34375,-2.15625 -1.125,-0.84375 -2.4375,-1.40625 -1.3125,-0.5625 -3.28125,-1.2187497 -1.875,-0.5625 -5.53125,-0.5625 z M 934.23437,63.381479 h -33 l -5.8125,13.40625 q -2.0625,4.96875 -2.0625,7.40625 0,1.03125 0.28125,1.875 0.375,0.84375 1.40625,1.59375 1.125,0.65625 3,1.21875 1.96875,0.46875 5.15625,0.65625 v 2.34375 h -26.8125 v -2.34375 q 3.1875,-0.46875 5.15625,-1.40625 1.96875,-0.9375 3.375,-2.53125 1.40625,-1.6875 2.53125,-4.3125 1.21875,-2.625 2.90625,-6.46875 l 30,-70.0312497 h 2.15625 l 29.625,70.7812497 q 1.78125,4.40625 3.28125,7.125 1.59375,2.625 3.1875,4.125 1.6875,1.5 3.5625,2.0625 1.96875,0.5625 4.6875,0.65625 v 2.34375 h -33.65625 v -2.34375 q 5.0625,-0.1875 6.84375,-1.59375 1.875,-1.5 1.875,-3.5625 -0.0937,-2.71875 -2.53125,-8.8125 z m -1.78125,-4.6875 -14.4375,-34.40625 -14.8125,34.40625 z m 109.59378,9.65625 2.0625,0.375 -7.3125,23.15625 h -66.00003 v -2.34375 h 3.28125 q 5.25,0 7.6875,-3.46875 1.3125,-2.0625 1.3125,-9.28125 v -55.03125 q 0,-7.875 -1.78125,-9.9375 -2.4375,-2.8124997 -7.21875,-2.8124997 h -3.28125 v -2.34375 h 38.62503 v 2.34375 q -3.4688,0 -5.8125,0.375 -2.25,0.28125 -3.75003,0.9374997 -1.5,0.5625 -2.34375,1.40625 -0.84375,0.84375 -1.40625,1.875 -0.9375,1.875 -0.9375,9.65625 v 53.53125 q 0,4.40625 0.65625,6.375 0.65625,1.96875 2.625,2.71875 1.68748,0.5625 9.84378,0.5625 h 6.1875 q 9.8437,0 13.7812,-1.40625 1.9688,-0.65625 3.75,-1.875 1.7813,-1.21875 3.4688,-3.1875 1.6875,-1.96875 3.2812,-4.78125 1.5938,-2.8125 3.2813,-6.84375 z M 1192.2344,6.6627293 v 2.34375 q -2.5313,0 -4.2188,0.46875 -1.5937,0.46875 -3,2.1562497 -1.4062,1.59375 -2.8125,4.875 -1.4062,3.1875 -3.2812,8.625 l -23.7188,68.71875 h -2.5312 l -19.4063,-54.46875 -19.2187,54.46875 h -2.3438 l -25.3125,-70.78125 q -1.4062,-3.9375 -2.25,-6.1875 -0.8437,-2.34375 -1.3125,-3.09375 -1.3125,-2.4375 -3.4687,-3.5625 -2.0625,-1.2187497 -5.8125,-1.2187497 v -2.34375 h 31.5 v 2.34375 h -1.5 q -3.2813,0 -5.0625,1.4999997 -1.7813,1.5 -1.7813,3.65625 0,2.25 2.8125,10.125 l 16.7813,47.8125 14.0625,-40.6875 -4.5,-12.84375 q -1.0313,-2.34375 -2.0625,-4.125 -1.0313,-1.78125 -2.3438,-3 -1.3125,-1.21875 -3.0937,-1.7812497 -1.7813,-0.65625 -4.3125,-0.65625 v -2.34375 h 33.0937 v 2.34375 h -2.25 q -3.5625,0 -5.1562,1.4999997 -1.5938,1.5 -1.5938,4.125 0,3.1875 2.8125,11.15625 l 16.3125,46.3125 16.2188,-46.96875 q 1.3125,-3.9375 2.0625,-6.5625 0.75,-2.625 0.75,-4.21875 0,-3 -2.625,-4.125 -2.625,-1.2187497 -6.8438,-1.2187497 v -2.34375 z m 48.0937,-1.875 q 8.1563,0 15.5625,3.375 7.4063,3.3749997 13.0313,9.2812497 5.625,5.90625 8.9062,13.96875 3.375,7.96875 3.375,17.34375 0,9.65625 -3.375,17.90625 -3.2812,8.25 -9,14.34375 -5.625,6 -13.3125,9.46875 -7.5937,3.375 -16.2187,3.375 -8.7188,0 -16.3125,-3.28125 -7.5938,-3.28125 -13.2188,-9.1875 -5.5312,-6 -8.8125,-14.25 -3.1875,-8.25 -3.1875,-18.1875 0,-9.1875 3.1875,-17.25 3.2813,-8.0625 8.9063,-13.96875 5.7187,-6 13.5,-9.4687497 7.7812,-3.46875 16.9687,-3.46875 z m -1.2187,4.59375 q -6.4688,0 -11.5313,2.8124997 -4.9687,2.71875 -8.4375,7.875 -3.375,5.0625 -5.1562,12.375 -1.7813,7.21875 -1.7813,16.3125 0,9 1.6875,16.5 1.7813,7.40625 5.1563,12.84375 3.4687,5.34375 8.5312,8.34375 5.0625,2.90625 11.625,2.90625 5.9063,0 10.875,-2.25 5.0625,-2.25 8.8125,-6.9375 3.75,-4.78125 5.8125,-12.09375 2.1563,-7.40625 2.1563,-17.625 0,-9.65625 -1.7813,-17.25 -1.6875,-7.6875 -5.25,-12.9375 -3.4687,-5.34375 -8.7187,-8.0625 -5.1563,-2.8124997 -12,-2.8124997 z m 133.9687,82.4999997 h -22.6875 l -28.875,-39.84375 q -1.5937,0.09375 -2.9062,0.1875 -1.2188,0 -2.25,0 -0.8438,0 -1.7813,0 -0.9375,-0.09375 -1.9687,-0.1875 v 24.75 q 0,4.5 0.5625,7.125 0.6562,2.53125 1.7812,3.84375 1.2188,1.21875 2.8125,1.5 1.6875,0.28125 3.75,0.28125 h 3.375 v 2.34375 h -36.5625 v -2.34375 h 3.2813 q 5.25,0 7.6875,-3.46875 1.3125,-2.0625 1.3125,-9.28125 v -55.03125 q 0,-7.875 -1.7813,-9.9375 -2.4375,-2.8124997 -7.2187,-2.8124997 h -3.2813 v -2.34375 h 31.0313 q 6.8437,0 11.8125,0.5625 4.9687,0.46875 8.1562,1.5 3.1875,1.03125 6,2.9062497 2.8125,1.78125 4.875,4.40625 2.1563,2.53125 3.375,5.71875 1.2188,3.1875 1.2188,6.84375 0,7.96875 -5.0625,13.6875 -5.0625,5.71875 -15.8438,8.15625 l 17.5313,24.375 q 3.0937,4.21875 5.4375,6.9375 2.4375,2.71875 4.7812,4.3125 2.4375,1.59375 5.0625,2.34375 2.7188,0.75 6.375,1.125 z m -60.4687,-43.78125 q 1.2187,0 2.0625,0.09375 0.9375,0 1.5,0 6.0937,0 10.6875,-1.40625 4.5937,-1.40625 7.6875,-3.9375 3.0937,-2.53125 4.5937,-5.90625 1.5938,-3.46875 1.5938,-7.5 0,-3.9375 -1.3125,-7.21875 -1.3125,-3.375 -3.75,-5.71875 -2.4375,-2.4375 -5.8125,-3.75 -3.375,-1.3125 -7.4063,-1.3125 -3.8437,0 -9.8437,1.21875 z m 97.7812,-3.46875 31.4063,31.21875 q 3.9375,3.9375 7.125,6.5625 3.1875,2.53125 6,4.125 2.8125,1.5 5.4375,2.25 2.7187,0.65625 5.5312,0.75 v 2.34375 h -40.5 v -2.34375 q 4.0313,0 5.4375,-1.40625 1.4063,-1.40625 1.4063,-3 0,-0.65625 -0.094,-1.125 -0.094,-0.5625 -0.5625,-1.21875 -0.375,-0.65625 -1.3125,-1.6875 -0.9375,-1.03125 -2.5312,-2.625 l -29.4375,-29.15625 v 27.46875 q 0,3 0.094,4.875 0.1875,1.875 0.4688,3.09375 0.375,1.21875 1.0312,1.96875 0.75,0.65625 1.875,1.3125 2.7188,1.5 5.7188,1.5 h 2.9062 v 2.34375 h -36.2812 v -2.34375 h 3 q 5.25,0 7.6875,-3.09375 1.5,-2.0625 1.5,-9.65625 v -55.03125 q 0,-2.8125 -0.094,-4.6875 -0.094,-1.96875 -0.4687,-3.1875 -0.375,-1.21875 -1.0313,-1.96875 -0.6562,-0.84375 -1.7812,-1.40625 -3,-1.4999997 -5.8125,-1.4999997 h -3 v -2.34375 h 36.2812 v 2.34375 h -2.9062 q -2.3438,0 -4.9688,1.0312497 -2.5312,1.03125 -3.4687,3.46875 -0.75,2.0625 -0.75,8.25 v 26.0625 q 0.094,-0.09375 1.2187,-1.125 1.2188,-1.125 2.625,-2.4375 1.5,-1.3125 2.8125,-2.625 1.4063,-1.3125 1.9688,-1.78125 6.8437,-6.28125 11.5312,-10.78125 4.6875,-4.5 7.5,-7.59375 2.8125,-3.1875 4.0313,-5.25 1.2187,-2.15625 1.2187,-3.5625 0,-1.5 -1.3125,-2.53125 -1.3125,-1.1249997 -4.5,-1.1249997 h -1.9687 v -2.34375 h 31.3125 v 2.34375 q -1.6875,0.09375 -3.4688,0.375 -1.6875,0.1875 -3.8437,1.1249997 -2.0625,0.9375 -4.7813,2.90625 -2.7187,1.96875 -6.4687,5.4375 -0.75,0.65625 -3.8438,3.9375 -3.0937,3.1875 -8.9062,8.90625 z M 1523.8281,4.7877293 V 34.225229 h -2.3437 q -1.5938,-11.90625 -7.7813,-18.1875 -6.1875,-6.2812497 -15.75,-6.2812497 -3.2812,0 -6,1.1249997 -2.7187,1.125 -4.7812,3 -2.0625,1.78125 -3.1875,4.125 -1.125,2.34375 -1.125,4.875 0,2.34375 0.9375,4.5 0.9375,2.0625 5.8125,6.5625 8.1562,5.15625 14.5312,8.53125 6,3.28125 16.2188,9.9375 4.4062,3.375 6.75,8.0625 2.3437,4.59375 2.3437,9.65625 0,4.78125 -1.9687,9.09375 -1.9688,4.3125 -5.5313,7.59375 -3.4687,3.1875 -8.4375,5.0625 -4.9687,1.96875 -10.875,1.96875 -3.75,0 -6.9375,-0.5625 -0.5625,-0.09375 -3,-0.84375 -2.3437,-0.65625 -5.0625,-1.40625 -2.7187,-0.75 -5.0625,-1.40625 -2.3437,-0.65625 -2.7187,-0.65625 -1.5938,0 -2.5313,0.9375 -0.8437,0.9375 -1.3125,3.9375 h -2.3437 v -29.25 h 2.3437 q 1.6875,9 4.4063,13.78125 1.3125,2.25 3.4687,4.21875 2.25,1.875 4.9688,3.375 2.8125,1.40625 6,2.25 3.1875,0.75 6.4687,0.75 3.9375,0 7.0313,-1.125 3.1875,-1.125 5.3437,-3 2.25,-1.96875 3.375,-4.5 1.2188,-2.53125 1.2188,-5.34375 0,-3.1875 -1.7813,-6.375 -1.6875,-3.1875 -5.8125,-6.28125 -4.0312,-2.4375 -9.5625,-5.71875 -10.5937,-6.09375 -18.8437,-11.71875 -4.5938,-3.65625 -7.0313,-7.96875 -2.3437,-4.40625 -2.3437,-9.75 0,-4.5 1.875,-8.53125 1.875,-4.125 5.1562,-7.21875 3.375,-3.0937497 7.9688,-4.8749997 4.5937,-1.78125 9.9375,-1.78125 6.75,0 14.3437,3.28125 1.7813,0.75 3,1.21875 1.2188,0.46875 1.9688,0.375 1.6875,0 2.7187,-0.9375 1.0313,-0.9375 1.5938,-3.9375 z m 35.1563,64.4999997 h -2.3438 l -5.5312,-50.8125 q -0.1875,-1.6875 -0.2813,-2.90625 -0.094,-1.3125 -0.094,-2.0625 0,-3.9374997 2.0625,-6.2812497 2.0625,-2.4375 5.0625,-2.4375 3,0 4.9687,2.34375 2.0625,2.34375 2.0625,7.1249997 0,1.40625 -0.2812,4.21875 z m -1.2188,10.5 q 2.8125,0 4.875,2.0625 2.0625,2.0625 2.0625,4.78125 0,2.90625 -2.0625,4.96875 -1.9687,2.0625 -4.875,2.0625 -2.9062,0 -4.9687,-2.0625 -2.0625,-2.0625 -2.0625,-4.96875 0,-2.8125 2.0625,-4.78125 2.1562,-2.0625 4.9687,-2.0625 z" id="text1" style="font-size:192px;line-height:94.42%;font-family:'Microsoft Himalaya';-inkscape-font-specification:'Microsoft Himalaya';white-space:pre;opacity:0.98615;fill:#008000;fill-rule:evenodd;stroke:#fbfbfb;stroke-width:15.11811043;stroke-linecap:round;stroke-linejoin:round;paint-order:stroke markers fill;filter:url(#filter3);stroke-dasharray:none" transform="matrix(0.26458333,0,0,0.26458333,27.900802,24.413614)" aria-label="MY PERSONAL WORKS!" /><path d="m 200.07812,91.881479 -32.90625,-71.625 v 56.90625 q 0,4.40625 0.5625,6.9375 0.65625,2.4375 1.78125,3.65625 1.21875,1.21875 2.90625,1.5 1.6875,0.28125 3.84375,0.28125 h 3 v 2.34375 h -29.625 v -2.34375 h 3 q 2.25,0 3.9375,-0.28125 1.6875,-0.375 2.8125,-1.59375 1.125,-1.3125 1.6875,-3.75 0.5625,-2.53125 0.5625,-6.75 v -55.6875 q 0,-3 -0.28125,-5.25 -0.28125,-2.34375 -1.5,-3.9375 -1.125,-1.59375 -3.5625,-2.4374997 -2.34375,-0.84375 -6.65625,-0.84375 v -2.34375 h 24.09375 l 30.9375,66.6562497 30.375,-66.6562497 h 24.09375 v 2.34375 h -2.90625 q -2.34375,0 -4.03125,0.375 -1.6875,0.375 -2.8125,1.6874997 -1.125,1.21875 -1.6875,3.75 -0.5625,2.4375 -0.5625,6.65625 v 55.6875 q 0,4.40625 0.5625,6.9375 0.65625,2.4375 1.78125,3.65625 1.21875,1.21875 2.90625,1.5 1.6875,0.28125 3.84375,0.28125 h 2.90625 v 2.34375 h -36.1875 v -2.34375 h 3 q 2.25,0 3.9375,-0.375 1.6875,-0.375 2.8125,-1.59375 1.21875,-1.3125 1.78125,-3.75 0.5625,-2.4375 0.5625,-6.65625 v -56.90625 l -32.8125,71.625 z M 323.17187,6.6627293 h 29.71875 v 2.34375 h -1.6875 q -3.5625,0 -7.6875,3.2812497 -4.125,3.1875 -9.09375,11.15625 l -20.53125,32.34375 v 21.375 q 0,4.3125 0.5625,6.84375 0.65625,2.4375 1.78125,3.65625 1.21875,1.21875 2.90625,1.59375 1.78125,0.28125 4.03125,0.28125 h 2.71875 v 2.34375 h -36.1875 v -2.34375 h 3.09375 q 2.25,0 3.9375,-0.375 1.6875,-0.375 2.8125,-1.59375 1.125,-1.3125 1.6875,-3.75 0.5625,-2.4375 0.5625,-6.65625 v -20.25 l -23.34375,-35.625 q -2.15625,-3.1875 -3.5625,-5.0625 -1.3125,-1.96875 -2.0625,-2.8125 -0.375,-0.375 -1.3125,-1.125 -0.84375,-0.75 -2.15625,-1.40625 -1.3125,-0.75 -2.90625,-1.3124997 -1.59375,-0.5625 -3.375,-0.5625 v -2.34375 h 36.375 v 2.34375 h -1.875 q -1.40625,0 -2.8125,0.375 -1.40625,0.28125 -2.53125,0.9374997 -1.125,0.65625 -1.875,1.78125 -0.65625,1.03125 -0.65625,2.4375 -0.0937,1.125 0.9375,3.1875 1.03125,1.96875 2.90625,4.96875 l 17.71875,27.46875 16.78125,-26.25 q 3.5625,-5.71875 3.75,-8.8125 -0.1875,-1.3125 -0.65625,-2.4375 -0.375,-1.125 -1.40625,-1.875 -0.9375,-0.8437497 -2.53125,-1.3124997 -1.59375,-0.46875 -4.03125,-0.46875 z m 85.3125,45.3749997 v 24.75 q 0,8.15625 1.78125,10.03125 2.4375,2.71875 7.21875,2.71875 h 3.28125 v 2.34375 h -36.46875 v -2.34375 h 3.1875 q 5.34375,0 7.6875,-3.46875 1.3125,-2.0625 1.3125,-9.28125 v -55.03125 q 0,-7.96875 -1.6875,-9.9375 -2.53125,-2.8124997 -7.3125,-2.8124997 h -3.1875 v -2.34375 h 31.21875 q 11.25,0 18,2.4375 3.28125,1.1249997 6.09375,3.1874997 2.90625,1.96875 4.96875,4.78125 2.15625,2.71875 3.375,6.09375 1.21875,3.28125 1.21875,7.125 0,5.15625 -1.78125,9.46875 -1.78125,4.3125 -5.15625,7.40625 -3.375,3.09375 -8.25,4.875 -4.875,1.6875 -11.15625,1.6875 -6.09375,0 -14.34375,-1.6875 z m 0,-3.65625 q 3.375,0.65625 5.90625,1.03125 2.53125,0.28125 4.40625,0.28125 3.28125,0 6.1875,-1.3125 2.90625,-1.40625 5.0625,-3.75 2.25,-2.4375 3.46875,-5.8125 1.3125,-3.375 1.3125,-7.3125 0,-4.6875 -1.40625,-8.34375 -1.40625,-3.65625 -3.84375,-6.1875 -2.4375,-2.53125 -5.71875,-3.84375 -3.28125,-1.3125 -7.125,-1.3125 -3.1875,0 -8.25,1.125 z m 72.09375,-37.03125 v 33.65625 h 18.65625 q 4.125,0 6.65625,-0.75 2.53125,-0.75 3.9375,-2.25 1.5,-1.5 2.0625,-3.84375 0.5625,-2.34375 0.75,-5.53125 h 2.34375 v 29.625 h -2.34375 q -0.46875,-3.65625 -1.125,-6.09375 -0.5625,-2.4375 -1.96875,-3.84375 -1.3125,-1.5 -3.75,-2.0625 -2.4375,-0.65625 -6.5625,-0.65625 h -18.65625 v 28.125 q 0,3.1875 0.0937,5.0625 0.0937,1.875 0.75,2.90625 0.65625,0.9375 2.0625,1.21875 1.40625,0.28125 4.125,0.28125 h 14.4375 q 3.65625,0 6.1875,-0.1875 2.53125,-0.1875 4.3125,-0.75 1.875,-0.5625 3.28125,-1.5 1.40625,-1.03125 3,-2.53125 3.75,-3.65625 7.96875,-11.71875 h 2.53125 l -7.40625,21.375 h -65.625 v -2.34375 h 3 q 1.21875,0 2.53125,-0.28125 1.3125,-0.28125 2.4375,-0.75 1.21875,-0.5625 2.15625,-1.40625 0.9375,-0.84375 1.3125,-1.96875 0.75,-2.0625 0.75,-8.25 v -55.3125 q 0,-8.15625 -1.59375,-10.03125 -2.25,-2.5312497 -7.59375,-2.5312497 h -3 v -2.34375 h 65.625 V 25.318979 h -1.5 q -0.9375,-4.59375 -2.0625,-7.3125 -1.03125,-2.8125 -2.8125,-4.3125 -1.78125,-1.5 -4.59375,-1.875 -2.71875,-0.46875 -7.03125,-0.46875 z m 138.5625,80.53125 h -22.6875 l -28.875,-39.84375 q -1.59375,0.09375 -2.90625,0.1875 -1.21875,0 -2.25,0 -0.84375,0 -1.78125,0 -0.9375,-0.09375 -1.96875,-0.1875 v 24.75 q 0,4.5 0.5625,7.125 0.65625,2.53125 1.78125,3.84375 1.21875,1.21875 2.8125,1.5 1.6875,0.28125 3.75,0.28125 h 3.375 v 2.34375 h -36.5625 v -2.34375 h 3.28125 q 5.25,0 7.6875,-3.46875 1.3125,-2.0625 1.3125,-9.28125 v -55.03125 q 0,-7.875 -1.78125,-9.9375 -2.4375,-2.8124997 -7.21875,-2.8124997 h -3.28125 v -2.34375 h 31.03125 q 6.84375,0 11.8125,0.5625 4.96875,0.46875 8.15625,1.5 3.1875,1.03125 6,2.9062497 2.8125,1.78125 4.875,4.40625 2.15625,2.53125 3.375,5.71875 1.21875,3.1875 1.21875,6.84375 0,7.96875 -5.0625,13.6875 -5.0625,5.71875 -15.84375,8.15625 l 17.53125,24.375 q 3.09375,4.21875 5.4375,6.9375 2.4375,2.71875 4.78125,4.3125 2.4375,1.59375 5.0625,2.34375 2.71875,0.75 6.375,1.125 z m -60.46875,-43.78125 q 1.21875,0 2.0625,0.09375 0.9375,0 1.5,0 6.09375,0 10.6875,-1.40625 4.59375,-1.40625 7.6875,-3.9375 3.09375,-2.53125 4.59375,-5.90625 1.59375,-3.46875 1.59375,-7.5 0,-3.9375 -1.3125,-7.21875 -1.3125,-3.375 -3.75,-5.71875 -2.4375,-2.4375 -5.8125,-3.75 -3.375,-1.3125 -7.40625,-1.3125 -3.84375,0 -9.84375,1.21875 z M 676.98437,4.7877293 V 34.225229 h -2.34375 q -1.59375,-11.90625 -7.78125,-18.1875 -6.1875,-6.2812497 -15.75,-6.2812497 -3.28125,0 -6,1.1249997 -2.71875,1.125 -4.78125,3 -2.0625,1.78125 -3.1875,4.125 -1.125,2.34375 -1.125,4.875 0,2.34375 0.9375,4.5 0.9375,2.0625 5.8125,6.5625 8.15625,5.15625 14.53125,8.53125 6,3.28125 16.21875,9.9375 4.40625,3.375 6.75,8.0625 2.34375,4.59375 2.34375,9.65625 0,4.78125 -1.96875,9.09375 -1.96875,4.3125 -5.53125,7.59375 -3.46875,3.1875 -8.4375,5.0625 -4.96875,1.96875 -10.875,1.96875 -3.75,0 -6.9375,-0.5625 -0.5625,-0.09375 -3,-0.84375 -2.34375,-0.65625 -5.0625,-1.40625 -2.71875,-0.75 -5.0625,-1.40625 -2.34375,-0.65625 -2.71875,-0.65625 -1.59375,0 -2.53125,0.9375 -0.84375,0.9375 -1.3125,3.9375 h -2.34375 v -29.25 h 2.34375 q 1.6875,9 4.40625,13.78125 1.3125,2.25 3.46875,4.21875 2.25,1.875 4.96875,3.375 2.8125,1.40625 6,2.25 3.1875,0.75 6.46875,0.75 3.9375,0 7.03125,-1.125 3.1875,-1.125 5.34375,-3 2.25,-1.96875 3.375,-4.5 1.21875,-2.53125 1.21875,-5.34375 0,-3.1875 -1.78125,-6.375 -1.6875,-3.1875 -5.8125,-6.28125 -4.03125,-2.4375 -9.5625,-5.71875 -10.59375,-6.09375 -18.84375,-11.71875 -4.59375,-3.65625 -7.03125,-7.96875 -2.34375,-4.40625 -2.34375,-9.75 0,-4.5 1.875,-8.53125 1.875,-4.125 5.15625,-7.21875 3.375,-3.0937497 7.96875,-4.8749997 4.59375,-1.78125 9.9375,-1.78125 6.75,0 14.34375,3.28125 1.78125,0.75 3,1.21875 1.21875,0.46875 1.96875,0.375 1.6875,0 2.71875,-0.9375 1.03125,-0.9375 1.59375,-3.9375 z m 59.625,0 q 8.15625,0 15.5625,3.375 7.40625,3.3749997 13.03125,9.2812497 5.625,5.90625 8.90625,13.96875 3.375,7.96875 3.375,17.34375 0,9.65625 -3.375,17.90625 -3.28125,8.25 -9,14.34375 -5.625,6 -13.3125,9.46875 -7.59375,3.375 -16.21875,3.375 -8.71875,0 -16.3125,-3.28125 -7.59375,-3.28125 -13.21875,-9.1875 -5.53125,-6 -8.8125,-14.25 -3.1875,-8.25 -3.1875,-18.1875 0,-9.1875 3.1875,-17.25 3.28125,-8.0625 8.90625,-13.96875 5.71875,-6 13.5,-9.4687497 7.78125,-3.46875 16.96875,-3.46875 z m -1.21875,4.59375 q -6.46875,0 -11.53125,2.8124997 -4.96875,2.71875 -8.4375,7.875 -3.375,5.0625 -5.15625,12.375 -1.78125,7.21875 -1.78125,16.3125 0,9 1.6875,16.5 1.78125,7.40625 5.15625,12.84375 3.46875,5.34375 8.53125,8.34375 5.0625,2.90625 11.625,2.90625 5.90625,0 10.875,-2.25 5.0625,-2.25 8.8125,-6.9375 3.75,-4.78125 5.8125,-12.09375 2.15625,-7.40625 2.15625,-17.625 0,-9.65625 -1.78125,-17.25 -1.6875,-7.6875 -5.25,-12.9375 -3.46875,-5.34375 -8.71875,-8.0625 -5.15625,-2.8124997 -12,-2.8124997 z m 45.375,-2.71875 h 23.0625 l 52.125,63.9374997 v -49.125 q 0,-4.3125 -0.65625,-6.84375 -0.5625,-2.53125 -1.78125,-3.75 -1.125,-1.2187497 -2.8125,-1.4999997 -1.6875,-0.375 -3.84375,-0.375 h -3 v -2.34375 h 29.71875 v 2.34375 h -3.09375 q -2.25,0 -3.9375,0.375 -1.6875,0.375 -2.8125,1.6874997 -1.125,1.3125 -1.6875,3.75 -0.5625,2.4375 -0.5625,6.65625 v 71.8125 h -2.25 l -56.15625,-68.625 v 52.5 q 0,4.40625 0.5625,6.9375 0.65625,2.4375 1.78125,3.65625 1.125,1.21875 2.8125,1.5 1.6875,0.28125 3.84375,0.28125 h 3 v 2.34375 h -29.625 v -2.34375 h 3 q 2.25,0 3.9375,-0.375 1.6875,-0.375 2.8125,-1.59375 1.21875,-1.3125 1.78125,-3.75 0.5625,-2.4375 0.5625,-6.65625 v -59.25 q -1.875,-2.25 -3.1875,-3.5625 -1.21875,-1.3125 -2.34375,-2.15625 -1.125,-0.84375 -2.4375,-1.40625 -1.3125,-0.5625 -3.28125,-1.2187497 -1.875,-0.5625 -5.53125,-0.5625 z M 934.23437,63.381479 h -33 l -5.8125,13.40625 q -2.0625,4.96875 -2.0625,7.40625 0,1.03125 0.28125,1.875 0.375,0.84375 1.40625,1.59375 1.125,0.65625 3,1.21875 1.96875,0.46875 5.15625,0.65625 v 2.34375 h -26.8125 v -2.34375 q 3.1875,-0.46875 5.15625,-1.40625 1.96875,-0.9375 3.375,-2.53125 1.40625,-1.6875 2.53125,-4.3125 1.21875,-2.625 2.90625,-6.46875 l 30,-70.0312497 h 2.15625 l 29.625,70.7812497 q 1.78125,4.40625 3.28125,7.125 1.59375,2.625 3.1875,4.125 1.6875,1.5 3.5625,2.0625 1.96875,0.5625 4.6875,0.65625 v 2.34375 h -33.65625 v -2.34375 q 5.0625,-0.1875 6.84375,-1.59375 1.875,-1.5 1.875,-3.5625 -0.0937,-2.71875 -2.53125,-8.8125 z m -1.78125,-4.6875 -14.4375,-34.40625 -14.8125,34.40625 z m 109.59378,9.65625 2.0625,0.375 -7.3125,23.15625 h -66.00003 v -2.34375 h 3.28125 q 5.25,0 7.6875,-3.46875 1.3125,-2.0625 1.3125,-9.28125 v -55.03125 q 0,-7.875 -1.78125,-9.9375 -2.4375,-2.8124997 -7.21875,-2.8124997 h -3.28125 v -2.34375 h 38.62503 v 2.34375 q -3.4688,0 -5.8125,0.375 -2.25,0.28125 -3.75003,0.9374997 -1.5,0.5625 -2.34375,1.40625 -0.84375,0.84375 -1.40625,1.875 -0.9375,1.875 -0.9375,9.65625 v 53.53125 q 0,4.40625 0.65625,6.375 0.65625,1.96875 2.625,2.71875 1.68748,0.5625 9.84378,0.5625 h 6.1875 q 9.8437,0 13.7812,-1.40625 1.9688,-0.65625 3.75,-1.875 1.7813,-1.21875 3.4688,-3.1875 1.6875,-1.96875 3.2812,-4.78125 1.5938,-2.8125 3.2813,-6.84375 z M 1192.2344,6.6627293 v 2.34375 q -2.5313,0 -4.2188,0.46875 -1.5937,0.46875 -3,2.1562497 -1.4062,1.59375 -2.8125,4.875 -1.4062,3.1875 -3.2812,8.625 l -23.7188,68.71875 h -2.5312 l -19.4063,-54.46875 -19.2187,54.46875 h -2.3438 l -25.3125,-70.78125 q -1.4062,-3.9375 -2.25,-6.1875 -0.8437,-2.34375 -1.3125,-3.09375 -1.3125,-2.4375 -3.4687,-3.5625 -2.0625,-1.2187497 -5.8125,-1.2187497 v -2.34375 h 31.5 v 2.34375 h -1.5 q -3.2813,0 -5.0625,1.4999997 -1.7813,1.5 -1.7813,3.65625 0,2.25 2.8125,10.125 l 16.7813,47.8125 14.0625,-40.6875 -4.5,-12.84375 q -1.0313,-2.34375 -2.0625,-4.125 -1.0313,-1.78125 -2.3438,-3 -1.3125,-1.21875 -3.0937,-1.7812497 -1.7813,-0.65625 -4.3125,-0.65625 v -2.34375 h 33.0937 v 2.34375 h -2.25 q -3.5625,0 -5.1562,1.4999997 -1.5938,1.5 -1.5938,4.125 0,3.1875 2.8125,11.15625 l 16.3125,46.3125 16.2188,-46.96875 q 1.3125,-3.9375 2.0625,-6.5625 0.75,-2.625 0.75,-4.21875 0,-3 -2.625,-4.125 -2.625,-1.2187497 -6.8438,-1.2187497 v -2.34375 z m 48.0937,-1.875 q 8.1563,0 15.5625,3.375 7.4063,3.3749997 13.0313,9.2812497 5.625,5.90625 8.9062,13.96875 3.375,7.96875 3.375,17.34375 0,9.65625 -3.375,17.90625 -3.2812,8.25 -9,14.34375 -5.625,6 -13.3125,9.46875 -7.5937,3.375 -16.2187,3.375 -8.7188,0 -16.3125,-3.28125 -7.5938,-3.28125 -13.2188,-9.1875 -5.5312,-6 -8.8125,-14.25 -3.1875,-8.25 -3.1875,-18.1875 0,-9.1875 3.1875,-17.25 3.2813,-8.0625 8.9063,-13.96875 5.7187,-6 13.5,-9.4687497 7.7812,-3.46875 16.9687,-3.46875 z m -1.2187,4.59375 q -6.4688,0 -11.5313,2.8124997 -4.9687,2.71875 -8.4375,7.875 -3.375,5.0625 -5.1562,12.375 -1.7813,7.21875 -1.7813,16.3125 0,9 1.6875,16.5 1.7813,7.40625 5.1563,12.84375 3.4687,5.34375 8.5312,8.34375 5.0625,2.90625 11.625,2.90625 5.9063,0 10.875,-2.25 5.0625,-2.25 8.8125,-6.9375 3.75,-4.78125 5.8125,-12.09375 2.1563,-7.40625 2.1563,-17.625 0,-9.65625 -1.7813,-17.25 -1.6875,-7.6875 -5.25,-12.9375 -3.4687,-5.34375 -8.7187,-8.0625 -5.1563,-2.8124997 -12,-2.8124997 z m 133.9687,82.4999997 h -22.6875 l -28.875,-39.84375 q -1.5937,0.09375 -2.9062,0.1875 -1.2188,0 -2.25,0 -0.8438,0 -1.7813,0 -0.9375,-0.09375 -1.9687,-0.1875 v 24.75 q 0,4.5 0.5625,7.125 0.6562,2.53125 1.7812,3.84375 1.2188,1.21875 2.8125,1.5 1.6875,0.28125 3.75,0.28125 h 3.375 v 2.34375 h -36.5625 v -2.34375 h 3.2813 q 5.25,0 7.6875,-3.46875 1.3125,-2.0625 1.3125,-9.28125 v -55.03125 q 0,-7.875 -1.7813,-9.9375 -2.4375,-2.8124997 -7.2187,-2.8124997 h -3.2813 v -2.34375 h 31.0313 q 6.8437,0 11.8125,0.5625 4.9687,0.46875 8.1562,1.5 3.1875,1.03125 6,2.9062497 2.8125,1.78125 4.875,4.40625 2.1563,2.53125 3.375,5.71875 1.2188,3.1875 1.2188,6.84375 0,7.96875 -5.0625,13.6875 -5.0625,5.71875 -15.8438,8.15625 l 17.5313,24.375 q 3.0937,4.21875 5.4375,6.9375 2.4375,2.71875 4.7812,4.3125 2.4375,1.59375 5.0625,2.34375 2.7188,0.75 6.375,1.125 z m -60.4687,-43.78125 q 1.2187,0 2.0625,0.09375 0.9375,0 1.5,0 6.0937,0 10.6875,-1.40625 4.5937,-1.40625 7.6875,-3.9375 3.0937,-2.53125 4.5937,-5.90625 1.5938,-3.46875 1.5938,-7.5 0,-3.9375 -1.3125,-7.21875 -1.3125,-3.375 -3.75,-5.71875 -2.4375,-2.4375 -5.8125,-3.75 -3.375,-1.3125 -7.4063,-1.3125 -3.8437,0 -9.8437,1.21875 z m 97.7812,-3.46875 31.4063,31.21875 q 3.9375,3.9375 7.125,6.5625 3.1875,2.53125 6,4.125 2.8125,1.5 5.4375,2.25 2.7187,0.65625 5.5312,0.75 v 2.34375 h -40.5 v -2.34375 q 4.0313,0 5.4375,-1.40625 1.4063,-1.40625 1.4063,-3 0,-0.65625 -0.094,-1.125 -0.094,-0.5625 -0.5625,-1.21875 -0.375,-0.65625 -1.3125,-1.6875 -0.9375,-1.03125 -2.5312,-2.625 l -29.4375,-29.15625 v 27.46875 q 0,3 0.094,4.875 0.1875,1.875 0.4688,3.09375 0.375,1.21875 1.0312,1.96875 0.75,0.65625 1.875,1.3125 2.7188,1.5 5.7188,1.5 h 2.9062 v 2.34375 h -36.2812 v -2.34375 h 3 q 5.25,0 7.6875,-3.09375 1.5,-2.0625 1.5,-9.65625 v -55.03125 q 0,-2.8125 -0.094,-4.6875 -0.094,-1.96875 -0.4687,-3.1875 -0.375,-1.21875 -1.0313,-1.96875 -0.6562,-0.84375 -1.7812,-1.40625 -3,-1.4999997 -5.8125,-1.4999997 h -3 v -2.34375 h 36.2812 v 2.34375 h -2.9062 q -2.3438,0 -4.9688,1.0312497 -2.5312,1.03125 -3.4687,3.46875 -0.75,2.0625 -0.75,8.25 v 26.0625 q 0.094,-0.09375 1.2187,-1.125 1.2188,-1.125 2.625,-2.4375 1.5,-1.3125 2.8125,-2.625 1.4063,-1.3125 1.9688,-1.78125 6.8437,-6.28125 11.5312,-10.78125 4.6875,-4.5 7.5,-7.59375 2.8125,-3.1875 4.0313,-5.25 1.2187,-2.15625 1.2187,-3.5625 0,-1.5 -1.3125,-2.53125 -1.3125,-1.1249997 -4.5,-1.1249997 h -1.9687 v -2.34375 h 31.3125 v 2.34375 q -1.6875,0.09375 -3.4688,0.375 -1.6875,0.1875 -3.8437,1.1249997 -2.0625,0.9375 -4.7813,2.90625 -2.7187,1.96875 -6.4687,5.4375 -0.75,0.65625 -3.8438,3.9375 -3.0937,3.1875 -8.9062,8.90625 z M 1523.8281,4.7877293 V 34.225229 h -2.3437 q -1.5938,-11.90625 -7.7813,-18.1875 -6.1875,-6.2812497 -15.75,-6.2812497 -3.2812,0 -6,1.1249997 -2.7187,1.125 -4.7812,3 -2.0625,1.78125 -3.1875,4.125 -1.125,2.34375 -1.125,4.875 0,2.34375 0.9375,4.5 0.9375,2.0625 5.8125,6.5625 8.1562,5.15625 14.5312,8.53125 6,3.28125 16.2188,9.9375 4.4062,3.375 6.75,8.0625 2.3437,4.59375 2.3437,9.65625 0,4.78125 -1.9687,9.09375 -1.9688,4.3125 -5.5313,7.59375 -3.4687,3.1875 -8.4375,5.0625 -4.9687,1.96875 -10.875,1.96875 -3.75,0 -6.9375,-0.5625 -0.5625,-0.09375 -3,-0.84375 -2.3437,-0.65625 -5.0625,-1.40625 -2.7187,-0.75 -5.0625,-1.40625 -2.3437,-0.65625 -2.7187,-0.65625 -1.5938,0 -2.5313,0.9375 -0.8437,0.9375 -1.3125,3.9375 h -2.3437 v -29.25 h 2.3437 q 1.6875,9 4.4063,13.78125 1.3125,2.25 3.4687,4.21875 2.25,1.875 4.9688,3.375 2.8125,1.40625 6,2.25 3.1875,0.75 6.4687,0.75 3.9375,0 7.0313,-1.125 3.1875,-1.125 5.3437,-3 2.25,-1.96875 3.375,-4.5 1.2188,-2.53125 1.2188,-5.34375 0,-3.1875 -1.7813,-6.375 -1.6875,-3.1875 -5.8125,-6.28125 -4.0312,-2.4375 -9.5625,-5.71875 -10.5937,-6.09375 -18.8437,-11.71875 -4.5938,-3.65625 -7.0313,-7.96875 -2.3437,-4.40625 -2.3437,-9.75 0,-4.5 1.875,-8.53125 1.875,-4.125 5.1562,-7.21875 3.375,-3.0937497 7.9688,-4.8749997 4.5937,-1.78125 9.9375,-1.78125 6.75,0 14.3437,3.28125 1.7813,0.75 3,1.21875 1.2188,0.46875 1.9688,0.375 1.6875,0 2.7187,-0.9375 1.0313,-0.9375 1.5938,-3.9375 z m 35.1563,64.4999997 h -2.3438 l -5.5312,-50.8125 q -0.1875,-1.6875 -0.2813,-2.90625 -0.094,-1.3125 -0.094,-2.0625 0,-3.9374997 2.0625,-6.2812497 2.0625,-2.4375 5.0625,-2.4375 3,0 4.9687,2.34375 2.0625,2.34375 2.0625,7.1249997 0,1.40625 -0.2812,4.21875 z m -1.2188,10.5 q 2.8125,0 4.875,2.0625 2.0625,2.0625 2.0625,4.78125 0,2.90625 -2.0625,4.96875 -1.9687,2.0625 -4.875,2.0625 -2.9062,0 -4.9687,-2.0625 -2.0625,-2.0625 -2.0625,-4.96875 0,-2.8125 2.0625,-4.78125 2.1562,-2.0625 4.9687,-2.0625 z" id="text1-1" style="font-size:192px;line-height:94.42%;font-family:'Microsoft Himalaya';-inkscape-font-specification:'Microsoft Himalaya';white-space:pre;opacity:0.98615;fill:url(#linearGradient1196);fill-rule:evenodd;stroke:#fbfbfb;stroke-width:4.91339;stroke-linecap:round;stroke-linejoin:round;paint-order:stroke markers fill;filter:url(#filter3-55)" transform="matrix(0.26458333,0,0,-0.26458333,27.71103,77.060948)" aria-label="MY PERSONAL WORKS!" /></g></svg>