<svg width="300" height="300" viewBox="0 0 79.375 79.375" xmlns="http://www.w3.org/2000/svg"><path d="M37.767 8.8a5.1 5.1 0 00-.84.274 4.5 4.5 0 00-.563.273c-.116.068-.218.153-.325.232a3.07 3.07 0 00-.816.855 2.48 2.48 0 00-.26.575 2.537 2.537 0 00-.114.632c-.064 1.39 1.16 2.323 2.202 3.126l-.064-.063.064.063c.167.129.342.262.493.385.238.194.5.386.749.58.404.313.802.627 1.222.943 1.904 1.43 3.892 2.912 5.27 4.712H16.101v-.014c-.626.095-1.226.239-1.77.472-.066.027-.132.053-.196.083a4.975 4.975 0 00-.362.195c-.057.034-.118.062-.175.098-.116.074-.22.156-.325.237a4.225 4.225 0 00-.835.836 3.708 3.708 0 00-.315.52 3.42 3.42 0 00-.237.6c-.439 1.51.265 3.124 2.265 3.676 3.842 1.061 10.766.937 14.85.071l-.09-.09h.556v.556l-.27-.27c-.134.144-.267.289-.407.429-.092.092-.187.183-.282.274-.224.214-.45.427-.687.632l-.024.049-.016-.015c-.1.085-.203.168-.304.252-.353.296-.714.585-1.083.867-.106.08-.21.162-.315.242-.107.08-.214.156-.322.236-.16.118-.322.233-.484.35l-.324.234-.323.233c-.162.116-.324.236-.485.35-.11.079-.214.157-.323.235-.234.167-.458.334-.688.5l-.068.136-.05-.05c-.252.183-.514.367-.757.55l-.028.021-.178.137-.473.363-.315.241-.315.242-.473.363-.314.242-.615.472-.102.204-.07-.07-.316.241-.642.493-.46.354-.316.241-.314.243-.473.362-.315.242c-.202.157-.406.31-.608.467l-.106.212-.074-.074c-.105.08-.21.16-.315.242l-.634.486-.47.36-.315.241-.315.242-.473.362-.316.242-.315.241-.473.363-.315.241-.62.476-.099.198-.07-.07c-.245.187-.488.377-.734.564l-.211.161-.099.076c-.118.09-.265.184-.388.274-.104.075-.22.154-.326.23l-.327.23c-.165.115-.32.229-.49.346-.113.078-.212.151-.327.23-.143.098-.281.2-.427.3l-.221.444-.169-.169-.326.23-.359.253c-.263.186-.527.36-.785.553-.374.279-.74.565-1.091.859-.102.085-.193.176-.293.263-.123.108-.245.216-.363.326-.525.487-1.005.994-1.398 1.533a7.47 7.47 0 00-.336.5c-.022.037-.048.072-.07.108-.05.085-.082.168-.126.253a6.175 6.175 0 00-.093.185c-.062.126-.13.252-.18.377-.029.07-.045.139-.07.209a4.903 4.903 0 00-.228.885c-.503 3.192 2.621 5.49 6.165 4.083.034-.013.066-.032.1-.046.064-.026.126-.06.19-.088.127-.057.255-.113.38-.177.063-.031.127-.056.189-.089.119-.063.233-.138.35-.206.117-.069.235-.134.35-.207.17-.107.335-.221.5-.337.058-.04.118-.08.176-.122.388-.28.766-.576 1.138-.884.237-.197.467-.4.699-.6.352-.307.703-.6 1.047-.903.07-.062.14-.12.21-.182.266-.232.535-.473.797-.69.135-.111.274-.219.41-.33.183-.15.37-.297.554-.447.36-.29.717-.581 1.08-.87l.231-.187 1.156-.92.627-.498c.362-.288.72-.58 1.08-.87l.155-.127c.398-.322.792-.65 1.185-.978.213-.178.432-.35.644-.531.35-.3.697-.602 1.041-.908.09-.08.18-.159.268-.24.175-.157.346-.32.519-.48.173-.16.349-.318.519-.48 0 2.142.075 4.128.539 6.108.059.251.124.503.197.754.077.269.157.538.251.808.105.3.22.602.347.904.009.02.014.039.022.058.065.151.136.297.203.446.078.17.152.343.233.51.093.194.192.381.29.57.109.21.225.412.34.617.263.474.536.94.828 1.386.555.847 1.17 1.628 1.816 2.373a22.525 22.525 0 003.693 3.415c.945.692 1.938 1.31 2.97 1.855.18.095.366.181.55.272 6.116 3.034 13.48 3.56 20.034 1.655.283-.082.559-.184.839-.275.28-.092.562-.175.838-.275.203-.074.4-.159.6-.237.265-.104.529-.211.79-.323.195-.084.393-.162.586-.25.189-.087.37-.187.557-.278.187-.091.374-.182.558-.277.184-.096.37-.184.552-.284.118-.066.231-.14.349-.208l.174-.104c.117-.069.233-.138.349-.209.116-.07.235-.135.35-.207.056-.036.116-.068.173-.104.109-.07.215-.143.323-.215.17-.113.333-.237.5-.355.11-.076.22-.152.327-.23.083-.061.168-.117.25-.178.29-.216.568-.445.846-.675a22.407 22.407 0 001.089-.949 21.502 21.502 0 001.765-1.878l.149-.297-.148.297c.28-.333.554-.67.815-1.022.079-.107.153-.219.23-.327.116-.163.233-.324.345-.49.075-.112.157-.215.23-.328.11-.17.207-.35.312-.523.07-.116.136-.236.204-.353l.101-.177c.068-.119.139-.233.204-.354.033-.06.07-.116.101-.177.065-.12.133-.239.195-.362.094-.185.184-.373.273-.562.03-.063.062-.124.091-.188.059-.127.112-.26.168-.389l.084-.194c.055-.13.113-.26.166-.391.026-.067.05-.136.076-.202.079-.201.156-.402.23-.607l.071-.206c.072-.208.14-.419.206-.63.022-.07.047-.139.068-.21.065-.215.123-.435.182-.653.031-.114.066-.226.095-.34.09-.355.174-.715.25-1.08.01-.053.016-.105.027-.158.063-.32.114-.637.162-.952.029-.187.06-.375.084-.56h-.088v-.836l.131.394c.125-1.192.148-2.345.064-3.458h-.195v-.835l.168.505a18.278 18.278 0 00-.268-1.82c-.037-.19-.07-.38-.112-.568a18.802 18.802 0 00-.57-1.963 20.54 20.54 0 00-.324-.88c-3.34-8.344-12.24-14.343-19.818-19.818l.038.039.28.278-.28-.278-.038-.04c-.337-.242-.677-.487-1.007-.728l.21.21-.21-.21c-.367-.267-.719-.532-1.076-.798l.172.173-.172-.173c-.366-.271-.738-.544-1.093-.814-.042-.031-.086-.063-.127-.095a30.767 30.767 0 01-1.459-1.212l.067.066.278.279-.278-.279-.067-.066c-1.458-1.267-3.08-2.738-4.78-3.667L42 9.69l.278.279L42 9.69l-.113-.112a9.71 9.71 0 00-.58-.301 7.935 7.935 0 00-.482-.204 5.764 5.764 0 00-1.61-.387 4.854 4.854 0 00-1.066.055c-.128.019-.255.03-.382.059zm9.935 22.495A11.387 11.387 0 0159.09 42.682a11.387 11.387 0 01-11.387 11.387 11.387 11.387 0 01-11.387-11.387 11.387 11.387 0 0111.387-11.387zm-15.17 9.585l.278 2.506h-.279z" fill="#ff9802"/><path d="M47.005 34.125l.303.1h-.835v-.04c-.418.057-.823.13-1.206.227-.074.019-.144.042-.217.062a9.82 9.82 0 00-.635.2c-.069.024-.14.046-.207.072a9.082 9.082 0 00-.584.251 8.757 8.757 0 00-.554.282c-.18.099-.36.197-.529.306-.113.073-.218.153-.326.23-4.806 3.447-4.562 11.045.26 14.185l-.18-.18.18.18c.212.138.434.264.663.384l-.007-.007.007.007c.171.09.348.172.53.251.158.07.314.141.48.202.13.047.27.083.404.125l-.029-.028.029.028c.131.041.261.084.398.12.118.03.24.056.36.082.113.025.229.045.344.065.116.021.226.05.345.066.063.01.13.013.195.021v-.104l.643.161c.422.026.853.037 1.307.014.092-.005.185-.021.278-.028v-.147l.42.105a11.43 11.43 0 001.637-.275l.22-.058c.215-.058.423-.132.633-.203.07-.023.142-.042.212-.067.201-.073.396-.158.591-.244.065-.028.127-.059.19-.088.127-.06.257-.112.38-.177.056-.03.117-.05.172-.08l.017-.01c.121-.068.23-.14.347-.21.115-.07.235-.139.346-.211.056-.037.11-.076.165-.114.111-.076.215-.156.321-.235.116-.088.234-.174.344-.265.524-.432.966-.9 1.34-1.393.08-.106.163-.212.237-.32.038-.057.07-.115.107-.171.073-.114.15-.226.215-.342.104-.182.195-.368.281-.555.09-.195.17-.393.242-.593.025-.068.053-.135.076-.203.07-.216.132-.434.182-.653.017-.079.027-.158.042-.236.762-3.925-1.658-8.25-5.698-9.875a9.103 9.103 0 00-.856-.3 9.237 9.237 0 00-1.8-.331l.473.117h-1.114v-.156a9.985 9.985 0 00-.836.021c-.104.008-.2.025-.303.035z" fill="#1976d2" fill-rule="evenodd" paint-order="stroke markers fill"/><path d="M30.722 42.051c.1.065.142.162.162.276.006.034.019.07.009.103-.007.022-.075.033-.054.044 1.165.579 2.35 1.12 3.524 1.68-.02-.139-.045-.26-.007-.398.011-.043.082-.107.042-.128-3.498-1.9-2.906-2.915-3.584-1.643l-.06.108c-.019.031-.037.062-.057.092-.017.025-.042.098-.054.071-.021-.046-.03-.175.016-.153 6.826 3.402 4.41 2.31 3.25 1.786a.835.835 0 01-.112-.368c-.003-.035-.002-.07-.006-.105-.012-.083-.036-.157-.06-.238-.097-.308-.04-.62.068-.915a3.11 3.11 0 01.105-.2l-3.402-1.898c-.025.096-.055.19-.063.29-.019.16-.04.32-.057.482-.008.082-.028.301-.04.385-.008.06-.02.119-.03.178 0 .044-.002.088.003.132.012.116.028.105.057.219.035.139.054.283.055.426-.16 1.465-.09.355 3.431 2.095.034.016.185-.28.22-.326.015-.02.034-.038.052-.057 1.319-.287-.105.034-3.38-1.834-.038-.022.068-.069.112-.071.03-.001.053.035.064.062.026.068-.001.13-.02.191 1.17.604 2.34 1.203 3.507 1.81.024.013-.062-.002-.077-.024-.023-.033-.018-.079-.023-.12a.957.957 0 01.019-.342z" fill="#ff9802" fill-rule="evenodd" paint-order="stroke markers fill"/><path d="M34.296 45.932c.058-.212.037-.104.055-.434.051-.91-.012.176-.006-1.026.003-.53.044-.78.102-1.302.1-.638.201-1.277.332-1.91.114-.551.028-.077.115-.583.049-.357.023-.112.042-.467.01-.174.014-.206.03-.37l-3.347-1.686c.026.15.044.238.056.392.005.078.005.157.008.235l.022.254c.015.198.036.459.045.652.03.686.001 1.373-.025 2.058-.053.466-.065.778-.209 1.226-.052.161-.13.312-.204.465-.105.22-.175.364-.385.482z" fill="#ff9802" fill-rule="evenodd" paint-order="stroke markers fill"/></svg>