<?xml version="1.0" encoding="UTF-8" standalone="no"?>
<!-- Created with Inkscape (http://www.inkscape.org/) -->

<svg
   width="500"
   height="500"
   viewBox="0 0 132.29166 132.29167"
   version="1.1"
   id="svg1"
   inkscape:version="1.3.1 (91b66b0783, 2023-11-16)"
   sodipodi:docname="btn-projects.svg"
   xmlns:inkscape="http://www.inkscape.org/namespaces/inkscape"
   xmlns:sodipodi="http://sodipodi.sourceforge.net/DTD/sodipodi-0.dtd"
   xmlns="http://www.w3.org/2000/svg"
   xmlns:svg="http://www.w3.org/2000/svg">
  <sodipodi:namedview
     id="namedview1"
     pagecolor="#505050"
     bordercolor="#eeeeee"
     borderopacity="1"
     inkscape:showpageshadow="0"
     inkscape:pageopacity="0"
     inkscape:pagecheckerboard="0"
     inkscape:deskcolor="#505050"
     inkscape:document-units="mm"
     showguides="true"
     inkscape:zoom="2.0712039"
     inkscape:cx="239.71566"
     inkscape:cy="213.88527"
     inkscape:window-width="1920"
     inkscape:window-height="1017"
     inkscape:window-x="1912"
     inkscape:window-y="-8"
     inkscape:window-maximized="1"
     inkscape:current-layer="layer1" />
  <defs
     id="defs1">
    <inkscape:path-effect
       effect="bspline"
       id="path-effect29"
       is_visible="true"
       lpeversion="1.3"
       weight="33.333333"
       steps="2"
       helper_size="0"
       apply_no_weight="true"
       apply_with_weight="true"
       only_selected="false"
       uniform="false" />
    <inkscape:path-effect
       effect="bspline"
       id="path-effect2"
       is_visible="true"
       lpeversion="1.3"
       weight="33.333333"
       steps="2"
       helper_size="0"
       apply_no_weight="true"
       apply_with_weight="true"
       only_selected="false"
       uniform="false" />
    <inkscape:path-effect
       effect="bspline"
       id="path-effect296"
       is_visible="true"
       lpeversion="1.3"
       weight="33.333333"
       steps="2"
       helper_size="0"
       apply_no_weight="true"
       apply_with_weight="true"
       only_selected="false"
       uniform="false" />
    <inkscape:path-effect
       effect="bspline"
       id="path-effect293"
       is_visible="true"
       lpeversion="1.3"
       weight="33.333333"
       steps="2"
       helper_size="0"
       apply_no_weight="true"
       apply_with_weight="true"
       only_selected="false"
       uniform="false" />
    <inkscape:perspective
       sodipodi:type="inkscape:persp3d"
       inkscape:vp_x="-15.017091 : 14.792849 : 1"
       inkscape:vp_y="0 : 1000 : 0"
       inkscape:vp_z="101.18036 : 14.792849 : 1"
       inkscape:persp3d-origin="43.081633 : -7.2557631 : 1"
       id="perspective267" />
    <rect
       x="105.2528"
       y="91.73409"
       width="297.41158"
       height="99.459066"
       id="rect264" />
    <filter
       inkscape:label="Button"
       inkscape:menu="Bevels"
       inkscape:menu-tooltip="Soft bevel, slightly depressed middle"
       style="color-interpolation-filters:sRGB;"
       id="filter52"
       x="-0.38971365"
       y="-0.38971367"
       width="1.7794273"
       height="1.7794273">
      <feGaussianBlur
         stdDeviation="5.8788731"
         in="SourceAlpha"
         result="result0"
         id="feGaussianBlur49" />
      <feMorphology
         in="SourceAlpha"
         radius="6.6"
         result="result1"
         id="feMorphology49" />
      <feGaussianBlur
         stdDeviation="8.9"
         in="result1"
         id="feGaussianBlur50" />
      <feColorMatrix
         values="1 0 0 0 0 0 1 0 0 0 0 0 1 0 0 0 0 0 0.3 0"
         result="result91"
         id="feColorMatrix50" />
      <feComposite
         in="result0"
         operator="out"
         result="result2"
         in2="result91"
         id="feComposite50" />
      <feGaussianBlur
         stdDeviation="1.7"
         result="result4"
         id="feGaussianBlur51" />
      <feDiffuseLighting
         surfaceScale="10"
         id="feDiffuseLighting51">
        <feDistantLight
           azimuth="225"
           elevation="45"
           id="feDistantLight51" />
      </feDiffuseLighting>
      <feBlend
         in2="SourceGraphic"
         mode="multiply"
         id="feBlend51" />
      <feComposite
         in2="SourceAlpha"
         operator="in"
         result="result3"
         id="feComposite51" />
      <feSpecularLighting
         in="result4"
         surfaceScale="5"
         specularExponent="17.9"
         id="feSpecularLighting52">
        <feDistantLight
           azimuth="225"
           elevation="45"
           id="feDistantLight52" />
      </feSpecularLighting>
      <feComposite
         in2="result3"
         operator="atop"
         id="feComposite52" />
    </filter>
    <inkscape:path-effect
       effect="bspline"
       id="path-effect293-0"
       is_visible="true"
       lpeversion="1.3"
       weight="33.333333"
       steps="2"
       helper_size="0"
       apply_no_weight="true"
       apply_with_weight="true"
       only_selected="false"
       uniform="false" />
    <inkscape:path-effect
       effect="bspline"
       id="path-effect293-2"
       is_visible="true"
       lpeversion="1.3"
       weight="33.333333"
       steps="2"
       helper_size="0"
       apply_no_weight="true"
       apply_with_weight="true"
       only_selected="false"
       uniform="false" />
    <inkscape:path-effect
       effect="bspline"
       id="path-effect293-02"
       is_visible="true"
       lpeversion="1.3"
       weight="33.333333"
       steps="2"
       helper_size="0"
       apply_no_weight="true"
       apply_with_weight="true"
       only_selected="false"
       uniform="false" />
    <inkscape:path-effect
       effect="bspline"
       id="path-effect293-3"
       is_visible="true"
       lpeversion="1.3"
       weight="33.333333"
       steps="2"
       helper_size="0"
       apply_no_weight="true"
       apply_with_weight="true"
       only_selected="false"
       uniform="false" />
    <inkscape:path-effect
       effect="bspline"
       id="path-effect293-4"
       is_visible="true"
       lpeversion="1.3"
       weight="33.333333"
       steps="2"
       helper_size="0"
       apply_no_weight="true"
       apply_with_weight="true"
       only_selected="false"
       uniform="false" />
    <inkscape:path-effect
       effect="bspline"
       id="path-effect293-7"
       is_visible="true"
       lpeversion="1.3"
       weight="33.333333"
       steps="2"
       helper_size="0"
       apply_no_weight="true"
       apply_with_weight="true"
       only_selected="false"
       uniform="false" />
    <inkscape:path-effect
       effect="bspline"
       id="path-effect293-36"
       is_visible="true"
       lpeversion="1.3"
       weight="33.333333"
       steps="2"
       helper_size="0"
       apply_no_weight="true"
       apply_with_weight="true"
       only_selected="false"
       uniform="false" />
    <inkscape:path-effect
       effect="bspline"
       id="path-effect293-06"
       is_visible="true"
       lpeversion="1.3"
       weight="33.333333"
       steps="2"
       helper_size="0"
       apply_no_weight="true"
       apply_with_weight="true"
       only_selected="false"
       uniform="false" />
    <inkscape:path-effect
       effect="bspline"
       id="path-effect293-8"
       is_visible="true"
       lpeversion="1.3"
       weight="33.333333"
       steps="2"
       helper_size="0"
       apply_no_weight="true"
       apply_with_weight="true"
       only_selected="false"
       uniform="false" />
    <inkscape:path-effect
       effect="bspline"
       id="path-effect293-1"
       is_visible="true"
       lpeversion="1.3"
       weight="33.333333"
       steps="2"
       helper_size="0"
       apply_no_weight="true"
       apply_with_weight="true"
       only_selected="false"
       uniform="false" />
  </defs>
  <g
     inkscape:label="Livello 1"
     inkscape:groupmode="layer"
     id="layer1">
    <path
       id="path1"
       style="opacity:1;mix-blend-mode:normal;fill:#000000;fill-opacity:1;fill-rule:evenodd;stroke:none;stroke-width:2.617;stroke-linecap:round;stroke-linejoin:round;stroke-opacity:1;paint-order:markers stroke fill;filter:url(#filter52)"
       d="M 109.95248,56.86216 A 42.273724,42.273724 0 0 1 67.678758,99.135878 42.273724,42.273724 0 0 1 25.405034,56.86216 42.273724,42.273724 0 0 1 67.678758,14.588436 42.273724,42.273724 0 0 1 109.95248,56.86216 Z"
       transform="matrix(0.71640055,0,0,0.71640055,18.410549,25.409755)" />
    <path
       d="m 37.529413,53.368426 -9.202223,-5.193831 1.677727,-2.988637 q 0.953654,-1.698803 1.38138,-2.136795 0.652181,-0.67586 1.649159,-0.817413 0.990709,-0.145085 2.089198,0.474907 0.847416,0.478287 1.251836,1.112533 0.404423,0.634242 0.468667,1.300194 0.06151,0.65612 -0.107286,1.207111 -0.242583,0.741339 -0.952521,2.006004 l -0.681686,1.214332 3.471239,1.959201 z m -6.600015,-6.177596 2.61127,1.473828 0.572192,-1.019281 q 0.618114,-1.101076 0.682134,-1.55378 0.06407,-0.452692 -0.126993,-0.833939 -0.187487,-0.387525 -0.595503,-0.617812 -0.502166,-0.28343 -0.994586,-0.171941 -0.492408,0.111492 -0.828318,0.518448 -0.249977,0.29804 -0.815099,1.30474 z m 11.705465,-2.317122 -7.077541,-7.857779 3.329977,-3.014296 q 1.256096,-1.137014 2.015789,-1.435477 0.760198,-0.308668 1.589893,-0.07697 0.829692,0.231707 1.457305,0.928507 0.796585,0.884403 0.799516,1.932606 -0.0019,1.042842 -0.898325,2.126722 0.783483,-0.164327 1.43834,-0.105176 0.660202,0.05431 2.052331,0.458004 l 2.337518,0.666897 -1.892156,1.712778 -2.683911,-0.674435 q -1.434893,-0.36499 -1.871808,-0.397622 -0.441742,-0.03798 -0.770207,0.103653 -0.333293,0.136274 -0.878488,0.629795 l -0.320705,0.290301 2.95461,3.280329 z m -2.502169,-5.966725 1.17057,-1.0596 q 1.138499,-1.030569 1.334889,-1.383483 0.196385,-0.352912 0.144319,-0.733905 -0.05207,-0.38099 -0.370704,-0.734749 -0.357257,-0.396644 -0.78831,-0.44431 -0.430532,-0.05787 -0.873318,0.226177 -0.216561,0.147382 -1.178674,1.018287 l -1.234711,1.117659 z m 8.299185,-5.671234 q -0.606062,-1.499177 -0.570087,-2.698076 0.03072,-0.885109 0.363977,-1.713863 0.339935,-0.831461 0.911122,-1.398431 0.75756,-0.759509 1.952403,-1.244681 2.162729,-0.878187 4.001533,-0.05878 1.845478,0.816704 2.814099,3.212707 0.960505,2.375925 0.216047,4.244284 -0.747161,1.861668 -2.903218,2.737144 -2.182755,0.886321 -4.009472,0.07758 -1.829421,-0.815431 -2.776399,-3.157892 z m 2.008849,-0.893617 q 0.673704,1.666494 1.79037,2.218155 1.113958,0.544968 2.295448,0.06522 1.181493,-0.479749 1.592161,-1.636009 0.414642,-1.165662 -0.275299,-2.872316 -0.681824,-1.68657 -1.758259,-2.215611 -1.06976,-0.53175 -2.291302,-0.03574 -1.221542,0.496012 -1.628241,1.642869 -0.409404,1.140166 0.275111,2.833433 z m 14.211233,-9.027087 2.118908,-0.157449 0.496049,6.682543 q 0.09729,1.310585 -0.08018,2.033361 -0.240439,0.94468 -1.010392,1.566668 -0.770493,0.614787 -2.099297,0.713525 -1.558655,0.115807 -2.46371,-0.693064 -0.905595,-0.81608 -1.038391,-2.507785 l 1.986879,-0.379339 q 0.103275,0.904657 0.360908,1.262032 0.386997,0.543262 1.090904,0.490961 0.711092,-0.05286 0.97565,-0.477977 0.264024,-0.43234 0.168877,-1.714118 z m 5.213974,10.424113 2.208433,-10.350848 7.656071,1.643929 -0.373605,1.75104 -5.571243,-1.196276 -0.489595,2.294695 5.183868,1.113091 -0.372089,1.743975 -5.183866,-1.1131 -0.601069,2.817183 5.768457,1.238626 -0.372089,1.74397 z m 17.394615,2.463067 1.445133,1.621385 q -1.289492,1.248269 -2.673254,1.408553 -1.373886,0.157757 -2.836719,-0.7106 -1.809946,-1.0744 -2.245262,-3.002519 -0.431664,-1.934327 0.8376,-4.084019 1.34261,-2.273952 3.255113,-2.833558 1.916184,-0.565815 3.825304,0.56745 1.667375,0.98978 2.125455,2.595788 0.275062,0.951956 -0.06067,2.229421 l -2.072935,-0.643174 q 0.25703,-0.803942 -0.01533,-1.519398 -0.26617,-0.711771 -0.997584,-1.145945 -1.010354,-0.599749 -2.071791,-0.248133 -1.055227,0.355288 -2.016338,1.983094 -1.019792,1.727207 -0.832806,2.828284 0.186973,1.101077 1.178738,1.689785 0.731414,0.434176 1.533404,0.280959 0.80199,-0.153219 1.621941,-1.017373 z m 2.72338,7.527966 6.561572,-5.83569 -2.079638,-2.349958 1.336009,-1.188215 5.569617,6.293559 -1.33601,1.188219 -2.074873,-2.344554 -6.561568,5.835691 z m 7.127542,3.253394 1.044625,1.808292 q -0.87239,0.605194 -1.081753,1.327933 -0.206365,0.729307 0.197363,1.616252 0.42758,0.939515 1.03603,1.232819 0.61798,0.296878 1.14874,0.05423 0.34073,-0.155773 0.48394,-0.467291 0.152733,-0.30794 0.102423,-0.888149 -0.0375,-0.395566 -0.289323,-1.748814 -0.325,-1.740424 -0.0486,-2.628766 0.389203,-1.249429 1.529363,-1.770678 0.73389,-0.335515 1.55787,-0.212179 0.83351,0.126909 1.52354,0.755963 0.69299,0.635624 1.19831,1.745962 0.82528,1.81333 0.44802,3.089044 -0.37424,1.282278 -1.67693,1.933393 l -0.97025,-1.905787 q 0.68362,-0.463342 0.81632,-1.024043 0.14225,-0.557125 -0.23148,-1.378383 -0.38574,-0.847533 -0.9513,-1.168376 -0.36332,-0.206943 -0.73681,-0.03619 -0.34073,0.155775 -0.45164,0.555701 -0.14051,0.508714 0.1712,2.080618 0.31167,1.571911 0.25925,2.413386 -0.0429,0.845054 -0.49194,1.510698 -0.43952,0.669224 -1.35034,1.085623 -0.825633,0.377455 -1.755723,0.247071 -0.9301,-0.130378 -1.666674,-0.809576 -0.730018,-0.682196 -1.301129,-1.937074 -0.831247,-1.826469 -0.438043,-3.18885 0.399763,-1.365379 1.924989,-2.292842 z"
       id="text264"
       style="font-weight:bold;font-size:14.1111px;line-height:94.42%;font-family:Arial;-inkscape-font-specification:'Arial Bold';white-space:pre;fill:#ffffff;fill-rule:evenodd;stroke:none;stroke-width:1.5951;stroke-linecap:round;stroke-linejoin:round;stroke-opacity:0.708145;paint-order:stroke markers fill"
       inkscape:transform-center-x="-31.061544"
       inkscape:transform-center-y="25.603631"
       aria-label="PROJECTS" />
    <circle
       id="path266"
       style="fill:#ffffff;stroke:#000000;stroke-width:0.264583"
       cx="50.586525"
       cy="61.316998"
       r="0.19601674" />
    <circle
       id="path295"
       style="fill:#000000;stroke:#000000;stroke-width:0.264583"
       cx="28.679287"
       cy="58.668343"
       r="0.034651194" />
    <path
       style="opacity:0;fill:#000000;fill-rule:evenodd;stroke:none;stroke-width:1.875;stroke-linecap:round;stroke-linejoin:round;paint-order:stroke markers fill"
       d="m 57.420811,55.568527 c 0,0 19.417048,22.993873 19.417048,22.993873"
       id="path2"
       inkscape:path-effect="#path-effect2"
       inkscape:original-d="M 57.420811,55.568527 76.837859,78.5624" />
    <rect
       style="opacity:0;fill:#000000;fill-rule:evenodd;stroke:none;stroke-width:1.875;stroke-linecap:round;stroke-linejoin:round;paint-order:stroke markers fill"
       id="rect14"
       width="2.2582116"
       height="2.8905108"
       x="56.681114"
       y="54.919704" />
    <circle
       id="path16"
       style="fill:#ffffff;stroke:#000000;stroke-width:0.264583"
       cx="77.377617"
       cy="80.222969"
       r="0.0022737002" />
    <circle
       id="path17"
       style="fill:#ffffff;stroke:#000000;stroke-width:0.264583"
       cx="77.840553"
       cy="80.595573"
       r="0.0022737002" />
    <circle
       id="path18"
       style="fill:#ffffff;stroke:#000000;stroke-width:0.264583"
       cx="78.07766"
       cy="80.731071"
       r="0.0022737002" />
    <circle
       id="path19"
       style="fill:#ffffff;stroke:#000000;stroke-width:0.264583"
       cx="78.630928"
       cy="80.832687"
       r="0.0022737002" />
    <circle
       id="path20"
       style="fill:#ffffff;stroke:#000000;stroke-width:0.264583"
       cx="78.518021"
       cy="80.268127"
       r="0.0022737002" />
    <circle
       id="path21"
       style="fill:#ffffff;stroke:#000000;stroke-width:0.264583"
       cx="78.066376"
       cy="80.121353"
       r="0.0022737002" />
    <circle
       id="path22"
       style="fill:#ffffff;stroke:#000000;stroke-width:0.264583"
       cx="76.824356"
       cy="80.042313"
       r="0.0022737002" />
    <circle
       id="path24"
       style="fill:#ffffff;stroke:#000000;stroke-width:0.264583"
       cx="77.604324"
       cy="79.584351"
       r="0.0064309947" />
    <circle
       id="path25"
       style="fill:#ffffff;stroke:#000000;stroke-width:0.264583"
       cx="77.859802"
       cy="79.903702"
       r="0.0064309947" />
    <circle
       id="path26"
       style="fill:#ffffff;stroke:#000000;stroke-width:0.264583"
       cx="79.009499"
       cy="80.638237"
       r="0.0064309947" />
    <circle
       id="path27"
       style="fill:#ffffff;stroke:#000000;stroke-width:0.264583"
       cx="77.572388"
       cy="80.765984"
       r="0.0064309947" />
    <g
       id="g34"
       transform="matrix(1.1824237,0,0,1.1824237,-12.924939,-12.951139)">
      <g
         id="g33">
        <g
           id="g32">
          <g
             id="g299"
             transform="translate(0.59243666,0.94415825)">
            <g
               id="g297"
               style="stroke-width:0.7;stroke-dasharray:none">
              <path
                 style="fill:#ffffff;fill-opacity:1;fill-rule:evenodd;stroke:#000000;stroke-width:0.7;stroke-linecap:round;stroke-linejoin:round;stroke-dasharray:none;stroke-opacity:0.708145;paint-order:stroke markers fill"
                 d="m 77.684599,54.312929 c -20.414231,24.38869 -20.775546,24.38869 -20.775546,24.38869 l -1.987228,-1.80657 20.414234,-24.38869 z"
                 id="path291-1"
                 inkscape:transform-center-x="15.355838"
                 inkscape:transform-center-y="32.698892" />
              <path
                 style="opacity:1;fill:#000000;fill-opacity:1;fill-rule:evenodd;stroke:none;stroke-width:0.7;stroke-linecap:round;stroke-linejoin:round;stroke-dasharray:none;stroke-opacity:0.708145;paint-order:stroke markers fill"
                 d="m 55.824016,75.943655 c 0.127743,0.06387 0.255487,0.127744 0.340649,0.191615 0.08516,0.06387 0.127744,0.127744 0.20226,0.191615 0.07452,0.06387 0.180972,0.127745 0.234199,0.170331 0.05323,0.04259 0.05323,0.06387 0.06388,0.07451 0.01065,0.01065 0.03193,0.01065 0.06386,0.03194 0.03194,0.02129 0.07451,0.06387 0.106457,0.08516 0.03194,0.02129 0.05322,0.02129 0.06387,0.03194 0.01064,0.01065 0.01064,0.03193 0.04258,0.06387 0.03193,0.03193 0.09581,0.07452 0.127745,0.106457 0.03194,0.03194 0.03194,0.05322 0.07452,0.06387 0.04258,0.01064 0.127742,0.01064 0.170324,0.03194 0.04258,0.02129 0.04258,0.06387 0.06387,0.117097 0.02129,0.05323 0.06387,0.117099 0.08516,0.170325 0.02129,0.05323 0.02129,0.09581 0.07452,0.159679 0.05323,0.06387 0.159679,0.149036 0.266134,0.2342"
                 id="path293"
                 inkscape:path-effect="#path-effect293"
                 inkscape:original-d="m 55.824016,75.943655 c 0.127744,0.06387 0.255487,0.127743 0.383231,0.191616 0.04258,0.06387 0.08516,0.127744 0.127743,0.191614 0.106452,0.06387 0.212908,0.127744 0.31936,0.191617 0,0.0213 0,0.04258 0,0.06387 0.0213,0 0.04258,0 0.06387,0 0.04258,0.04258 0.08516,0.08516 0.127744,0.127744 0.0213,0 0.04258,0 0.06387,0 0,0.0213 0,0.04258 0,0.06387 0.06387,0.04258 0.127743,0.08516 0.191617,0.127743 0,0.0213 0,0.04258 0,0.06387 0.08516,0 0.170322,0 0.255486,0 0,0.04258 0,0.08516 0,0.127744 0.04258,0.06387 0.08516,0.127743 0.127744,0.191614 0,0.04258 0,0.08516 0,0.127746 0.106452,0.08516 0.212905,0.170323 0.31936,0.255487" />
              <path
                 style="fill:#000000;fill-opacity:1;fill-rule:evenodd;stroke:none;stroke-width:0.7;stroke-linecap:round;stroke-linejoin:round;stroke-dasharray:none;stroke-opacity:0.708145;paint-order:stroke markers fill"
                 d="m 55.824016,75.943655 c 0.127743,0.06387 0.255487,0.127744 0.340649,0.191615 0.08516,0.06387 0.127744,0.127744 0.20226,0.191615 0.07452,0.06387 0.180972,0.127745 0.234199,0.170331 0.05323,0.04259 0.05323,0.06387 0.06388,0.07451 0.01065,0.01065 0.03193,0.01065 0.06386,0.03194 0.03194,0.02129 0.07451,0.06387 0.106457,0.08516 0.03194,0.02129 0.05322,0.02129 0.06387,0.03194 0.01064,0.01065 0.01064,0.03193 0.04258,0.06387 0.03193,0.03193 0.09581,0.07452 0.127745,0.106457 0.03194,0.03194 0.03194,0.05322 0.07452,0.06387 0.04258,0.01064 0.127742,0.01064 0.170324,0.03194 0.04258,0.02129 0.04258,0.06387 0.06387,0.117097 0.02129,0.05323 0.06387,0.117099 0.08516,0.170325 0.02129,0.05323 0.02129,0.09581 0.07452,0.159679 0.05323,0.06387 0.159679,0.149036 0.266134,0.2342"
                 id="path293-3"
                 inkscape:path-effect="#path-effect293-0"
                 inkscape:original-d="m 55.824016,75.943655 c 0.127744,0.06387 0.255487,0.127743 0.383231,0.191616 0.04258,0.06387 0.08516,0.127744 0.127743,0.191614 0.106452,0.06387 0.212908,0.127744 0.31936,0.191617 0,0.0213 0,0.04258 0,0.06387 0.0213,0 0.04258,0 0.06387,0 0.04258,0.04258 0.08516,0.08516 0.127744,0.127744 0.0213,0 0.04258,0 0.06387,0 0,0.0213 0,0.04258 0,0.06387 0.06387,0.04258 0.127743,0.08516 0.191617,0.127743 0,0.0213 0,0.04258 0,0.06387 0.08516,0 0.170322,0 0.255486,0 0,0.04258 0,0.08516 0,0.127744 0.04258,0.06387 0.08516,0.127743 0.127744,0.191614 0,0.04258 0,0.08516 0,0.127746 0.106452,0.08516 0.212905,0.170323 0.31936,0.255487"
                 transform="translate(1.8233997,-2.2264989)" />
              <path
                 style="fill:#000000;fill-opacity:1;fill-rule:evenodd;stroke:none;stroke-width:0.7;stroke-linecap:round;stroke-linejoin:round;stroke-dasharray:none;stroke-opacity:0.708145;paint-order:stroke markers fill"
                 d="m 55.824016,75.943655 c 0.127743,0.06387 0.255487,0.127744 0.340649,0.191615 0.08516,0.06387 0.127744,0.127744 0.20226,0.191615 0.07452,0.06387 0.180972,0.127745 0.234199,0.170331 0.05323,0.04259 0.05323,0.06387 0.06388,0.07451 0.01065,0.01065 0.03193,0.01065 0.06386,0.03194 0.03194,0.02129 0.07451,0.06387 0.106457,0.08516 0.03194,0.02129 0.05322,0.02129 0.06387,0.03194 0.01064,0.01065 0.01064,0.03193 0.04258,0.06387 0.03193,0.03193 0.09581,0.07452 0.127745,0.106457 0.03194,0.03194 0.03194,0.05322 0.07452,0.06387 0.04258,0.01064 0.127742,0.01064 0.170324,0.03194 0.04258,0.02129 0.04258,0.06387 0.06387,0.117097 0.02129,0.05323 0.06387,0.117099 0.08516,0.170325 0.02129,0.05323 0.02129,0.09581 0.07452,0.159679 0.05323,0.06387 0.159679,0.149036 0.266134,0.2342"
                 id="path293-4"
                 inkscape:path-effect="#path-effect293-2"
                 inkscape:original-d="m 55.824016,75.943655 c 0.127744,0.06387 0.255487,0.127743 0.383231,0.191616 0.04258,0.06387 0.08516,0.127744 0.127743,0.191614 0.106452,0.06387 0.212908,0.127744 0.31936,0.191617 0,0.0213 0,0.04258 0,0.06387 0.0213,0 0.04258,0 0.06387,0 0.04258,0.04258 0.08516,0.08516 0.127744,0.127744 0.0213,0 0.04258,0 0.06387,0 0,0.0213 0,0.04258 0,0.06387 0.06387,0.04258 0.127743,0.08516 0.191617,0.127743 0,0.0213 0,0.04258 0,0.06387 0.08516,0 0.170322,0 0.255486,0 0,0.04258 0,0.08516 0,0.127744 0.04258,0.06387 0.08516,0.127743 0.127744,0.191614 0,0.04258 0,0.08516 0,0.127746 0.106452,0.08516 0.212905,0.170323 0.31936,0.255487"
                 transform="translate(3.675483,-4.4529978)" />
              <path
                 style="fill:#000000;fill-opacity:1;fill-rule:evenodd;stroke:none;stroke-width:0.7;stroke-linecap:round;stroke-linejoin:round;stroke-dasharray:none;stroke-opacity:0.708145;paint-order:stroke markers fill"
                 d="m 55.824016,75.943655 c 0.127743,0.06387 0.255487,0.127744 0.340649,0.191615 0.08516,0.06387 0.127744,0.127744 0.20226,0.191615 0.07452,0.06387 0.180972,0.127745 0.234199,0.170331 0.05323,0.04259 0.05323,0.06387 0.06388,0.07451 0.01065,0.01065 0.03193,0.01065 0.06386,0.03194 0.03194,0.02129 0.07451,0.06387 0.106457,0.08516 0.03194,0.02129 0.05322,0.02129 0.06387,0.03194 0.01064,0.01065 0.01064,0.03193 0.04258,0.06387 0.03193,0.03193 0.09581,0.07452 0.127745,0.106457 0.03194,0.03194 0.03194,0.05322 0.07452,0.06387 0.04258,0.01064 0.127742,0.01064 0.170324,0.03194 0.04258,0.02129 0.04258,0.06387 0.06387,0.117097 0.02129,0.05323 0.06387,0.117099 0.08516,0.170325 0.02129,0.05323 0.02129,0.09581 0.07452,0.159679 0.05323,0.06387 0.159679,0.149036 0.266134,0.2342"
                 id="path293-7"
                 inkscape:path-effect="#path-effect293-02"
                 inkscape:original-d="m 55.824016,75.943655 c 0.127744,0.06387 0.255487,0.127743 0.383231,0.191616 0.04258,0.06387 0.08516,0.127744 0.127743,0.191614 0.106452,0.06387 0.212908,0.127744 0.31936,0.191617 0,0.0213 0,0.04258 0,0.06387 0.0213,0 0.04258,0 0.06387,0 0.04258,0.04258 0.08516,0.08516 0.127744,0.127744 0.0213,0 0.04258,0 0.06387,0 0,0.0213 0,0.04258 0,0.06387 0.06387,0.04258 0.127743,0.08516 0.191617,0.127743 0,0.0213 0,0.04258 0,0.06387 0.08516,0 0.170322,0 0.255486,0 0,0.04258 0,0.08516 0,0.127744 0.04258,0.06387 0.08516,0.127743 0.127744,0.191614 0,0.04258 0,0.08516 0,0.127746 0.106452,0.08516 0.212905,0.170323 0.31936,0.255487"
                 transform="translate(5.5275663,-6.6794967)" />
              <path
                 style="fill:#000000;fill-opacity:1;fill-rule:evenodd;stroke:none;stroke-width:0.7;stroke-linecap:round;stroke-linejoin:round;stroke-dasharray:none;stroke-opacity:0.708145;paint-order:stroke markers fill"
                 d="m 55.824016,75.943655 c 0.127743,0.06387 0.255487,0.127744 0.340649,0.191615 0.08516,0.06387 0.127744,0.127744 0.20226,0.191615 0.07452,0.06387 0.180972,0.127745 0.234199,0.170331 0.05323,0.04259 0.05323,0.06387 0.06388,0.07451 0.01065,0.01065 0.03193,0.01065 0.06386,0.03194 0.03194,0.02129 0.07451,0.06387 0.106457,0.08516 0.03194,0.02129 0.05322,0.02129 0.06387,0.03194 0.01064,0.01065 0.01064,0.03193 0.04258,0.06387 0.03193,0.03193 0.09581,0.07452 0.127745,0.106457 0.03194,0.03194 0.03194,0.05322 0.07452,0.06387 0.04258,0.01064 0.127742,0.01064 0.170324,0.03194 0.04258,0.02129 0.04258,0.06387 0.06387,0.117097 0.02129,0.05323 0.06387,0.117099 0.08516,0.170325 0.02129,0.05323 0.02129,0.09581 0.07452,0.159679 0.05323,0.06387 0.159679,0.149036 0.266134,0.2342"
                 id="path293-5"
                 inkscape:path-effect="#path-effect293-3"
                 inkscape:original-d="m 55.824016,75.943655 c 0.127744,0.06387 0.255487,0.127743 0.383231,0.191616 0.04258,0.06387 0.08516,0.127744 0.127743,0.191614 0.106452,0.06387 0.212908,0.127744 0.31936,0.191617 0,0.0213 0,0.04258 0,0.06387 0.0213,0 0.04258,0 0.06387,0 0.04258,0.04258 0.08516,0.08516 0.127744,0.127744 0.0213,0 0.04258,0 0.06387,0 0,0.0213 0,0.04258 0,0.06387 0.06387,0.04258 0.127743,0.08516 0.191617,0.127743 0,0.0213 0,0.04258 0,0.06387 0.08516,0 0.170322,0 0.255486,0 0,0.04258 0,0.08516 0,0.127744 0.04258,0.06387 0.08516,0.127743 0.127744,0.191614 0,0.04258 0,0.08516 0,0.127746 0.106452,0.08516 0.212905,0.170323 0.31936,0.255487"
                 transform="translate(7.3796497,-8.9059956)" />
              <path
                 style="fill:#000000;fill-opacity:1;fill-rule:evenodd;stroke:none;stroke-width:0.7;stroke-linecap:round;stroke-linejoin:round;stroke-dasharray:none;stroke-opacity:0.708145;paint-order:stroke markers fill"
                 d="m 55.824016,75.943655 c 0.127743,0.06387 0.255487,0.127744 0.340649,0.191615 0.08516,0.06387 0.127744,0.127744 0.20226,0.191615 0.07452,0.06387 0.180972,0.127745 0.234199,0.170331 0.05323,0.04259 0.05323,0.06387 0.06388,0.07451 0.01065,0.01065 0.03193,0.01065 0.06386,0.03194 0.03194,0.02129 0.07451,0.06387 0.106457,0.08516 0.03194,0.02129 0.05322,0.02129 0.06387,0.03194 0.01064,0.01065 0.01064,0.03193 0.04258,0.06387 0.03193,0.03193 0.09581,0.07452 0.127745,0.106457 0.03194,0.03194 0.03194,0.05322 0.07452,0.06387 0.04258,0.01064 0.127742,0.01064 0.170324,0.03194 0.04258,0.02129 0.04258,0.06387 0.06387,0.117097 0.02129,0.05323 0.06387,0.117099 0.08516,0.170325 0.02129,0.05323 0.02129,0.09581 0.07452,0.159679 0.05323,0.06387 0.159679,0.149036 0.266134,0.2342"
                 id="path293-6"
                 inkscape:path-effect="#path-effect293-4"
                 inkscape:original-d="m 55.824016,75.943655 c 0.127744,0.06387 0.255487,0.127743 0.383231,0.191616 0.04258,0.06387 0.08516,0.127744 0.127743,0.191614 0.106452,0.06387 0.212908,0.127744 0.31936,0.191617 0,0.0213 0,0.04258 0,0.06387 0.0213,0 0.04258,0 0.06387,0 0.04258,0.04258 0.08516,0.08516 0.127744,0.127744 0.0213,0 0.04258,0 0.06387,0 0,0.0213 0,0.04258 0,0.06387 0.06387,0.04258 0.127743,0.08516 0.191617,0.127743 0,0.0213 0,0.04258 0,0.06387 0.08516,0 0.170322,0 0.255486,0 0,0.04258 0,0.08516 0,0.127744 0.04258,0.06387 0.08516,0.127743 0.127744,0.191614 0,0.04258 0,0.08516 0,0.127746 0.106452,0.08516 0.212905,0.170323 0.31936,0.255487"
                 transform="translate(9.4963163,-11.132494)" />
              <path
                 style="fill:#000000;fill-opacity:1;fill-rule:evenodd;stroke:none;stroke-width:0.7;stroke-linecap:round;stroke-linejoin:round;stroke-dasharray:none;stroke-opacity:0.708145;paint-order:stroke markers fill"
                 d="m 55.824016,75.943655 c 0.127743,0.06387 0.255487,0.127744 0.340649,0.191615 0.08516,0.06387 0.127744,0.127744 0.20226,0.191615 0.07452,0.06387 0.180972,0.127745 0.234199,0.170331 0.05323,0.04259 0.05323,0.06387 0.06388,0.07451 0.01065,0.01065 0.03193,0.01065 0.06386,0.03194 0.03194,0.02129 0.07451,0.06387 0.106457,0.08516 0.03194,0.02129 0.05322,0.02129 0.06387,0.03194 0.01064,0.01065 0.01064,0.03193 0.04258,0.06387 0.03193,0.03193 0.09581,0.07452 0.127745,0.106457 0.03194,0.03194 0.03194,0.05322 0.07452,0.06387 0.04258,0.01064 0.127742,0.01064 0.170324,0.03194 0.04258,0.02129 0.04258,0.06387 0.06387,0.117097 0.02129,0.05323 0.06387,0.117099 0.08516,0.170325 0.02129,0.05323 0.02129,0.09581 0.07452,0.159679 0.05323,0.06387 0.159679,0.149036 0.266134,0.2342"
                 id="path293-2"
                 inkscape:path-effect="#path-effect293-7"
                 inkscape:original-d="m 55.824016,75.943655 c 0.127744,0.06387 0.255487,0.127743 0.383231,0.191616 0.04258,0.06387 0.08516,0.127744 0.127743,0.191614 0.106452,0.06387 0.212908,0.127744 0.31936,0.191617 0,0.0213 0,0.04258 0,0.06387 0.0213,0 0.04258,0 0.06387,0 0.04258,0.04258 0.08516,0.08516 0.127744,0.127744 0.0213,0 0.04258,0 0.06387,0 0,0.0213 0,0.04258 0,0.06387 0.06387,0.04258 0.127743,0.08516 0.191617,0.127743 0,0.0213 0,0.04258 0,0.06387 0.08516,0 0.170322,0 0.255486,0 0,0.04258 0,0.08516 0,0.127744 0.04258,0.06387 0.08516,0.127743 0.127744,0.191614 0,0.04258 0,0.08516 0,0.127746 0.106452,0.08516 0.212905,0.170323 0.31936,0.255487"
                 transform="translate(11.567303,-13.61448)" />
              <path
                 style="fill:#000000;fill-opacity:1;fill-rule:evenodd;stroke:none;stroke-width:0.7;stroke-linecap:round;stroke-linejoin:round;stroke-dasharray:none;stroke-opacity:0.708145;paint-order:stroke markers fill"
                 d="m 55.824016,75.943655 c 0.127743,0.06387 0.255487,0.127744 0.340649,0.191615 0.08516,0.06387 0.127744,0.127744 0.20226,0.191615 0.07452,0.06387 0.180972,0.127745 0.234199,0.170331 0.05323,0.04259 0.05323,0.06387 0.06388,0.07451 0.01065,0.01065 0.03193,0.01065 0.06386,0.03194 0.03194,0.02129 0.07451,0.06387 0.106457,0.08516 0.03194,0.02129 0.05322,0.02129 0.06387,0.03194 0.01064,0.01065 0.01064,0.03193 0.04258,0.06387 0.03193,0.03193 0.09581,0.07452 0.127745,0.106457 0.03194,0.03194 0.03194,0.05322 0.07452,0.06387 0.04258,0.01064 0.127742,0.01064 0.170324,0.03194 0.04258,0.02129 0.04258,0.06387 0.06387,0.117097 0.02129,0.05323 0.06387,0.117099 0.08516,0.170325 0.02129,0.05323 0.02129,0.09581 0.07452,0.159679 0.05323,0.06387 0.159679,0.149036 0.266134,0.2342"
                 id="path293-49"
                 inkscape:path-effect="#path-effect293-36"
                 inkscape:original-d="m 55.824016,75.943655 c 0.127744,0.06387 0.255487,0.127743 0.383231,0.191616 0.04258,0.06387 0.08516,0.127744 0.127743,0.191614 0.106452,0.06387 0.212908,0.127744 0.31936,0.191617 0,0.0213 0,0.04258 0,0.06387 0.0213,0 0.04258,0 0.06387,0 0.04258,0.04258 0.08516,0.08516 0.127744,0.127744 0.0213,0 0.04258,0 0.06387,0 0,0.0213 0,0.04258 0,0.06387 0.06387,0.04258 0.127743,0.08516 0.191617,0.127743 0,0.0213 0,0.04258 0,0.06387 0.08516,0 0.170322,0 0.255486,0 0,0.04258 0,0.08516 0,0.127744 0.04258,0.06387 0.08516,0.127743 0.127744,0.191614 0,0.04258 0,0.08516 0,0.127746 0.106452,0.08516 0.212905,0.170323 0.31936,0.255487"
                 transform="translate(14.787983,-17.811991)" />
              <path
                 style="fill:#000000;fill-opacity:1;fill-rule:evenodd;stroke:none;stroke-width:0.7;stroke-linecap:round;stroke-linejoin:round;stroke-dasharray:none;stroke-opacity:0.708145;paint-order:stroke markers fill"
                 d="m 55.824016,75.943655 c 0.127743,0.06387 0.255487,0.127744 0.340649,0.191615 0.08516,0.06387 0.127744,0.127744 0.20226,0.191615 0.07452,0.06387 0.180972,0.127745 0.234199,0.170331 0.05323,0.04259 0.05323,0.06387 0.06388,0.07451 0.01065,0.01065 0.03193,0.01065 0.06386,0.03194 0.03194,0.02129 0.07451,0.06387 0.106457,0.08516 0.03194,0.02129 0.05322,0.02129 0.06387,0.03194 0.01064,0.01065 0.01064,0.03193 0.04258,0.06387 0.03193,0.03193 0.09581,0.07452 0.127745,0.106457 0.03194,0.03194 0.03194,0.05322 0.07452,0.06387 0.04258,0.01064 0.127742,0.01064 0.170324,0.03194 0.04258,0.02129 0.04258,0.06387 0.06387,0.117097 0.02129,0.05323 0.06387,0.117099 0.08516,0.170325 0.02129,0.05323 0.02129,0.09581 0.07452,0.159679 0.05323,0.06387 0.159679,0.149036 0.266134,0.2342"
                 id="path293-8"
                 inkscape:path-effect="#path-effect293-06"
                 inkscape:original-d="m 55.824016,75.943655 c 0.127744,0.06387 0.255487,0.127743 0.383231,0.191616 0.04258,0.06387 0.08516,0.127744 0.127743,0.191614 0.106452,0.06387 0.212908,0.127744 0.31936,0.191617 0,0.0213 0,0.04258 0,0.06387 0.0213,0 0.04258,0 0.06387,0 0.04258,0.04258 0.08516,0.08516 0.127744,0.127744 0.0213,0 0.04258,0 0.06387,0 0,0.0213 0,0.04258 0,0.06387 0.06387,0.04258 0.127743,0.08516 0.191617,0.127743 0,0.0213 0,0.04258 0,0.06387 0.08516,0 0.170322,0 0.255486,0 0,0.04258 0,0.08516 0,0.127744 0.04258,0.06387 0.08516,0.127743 0.127744,0.191614 0,0.04258 0,0.08516 0,0.127746 0.106452,0.08516 0.212905,0.170323 0.31936,0.255487"
                 transform="translate(16.640066,-20.03849)" />
              <path
                 style="fill:#000000;fill-opacity:1;fill-rule:evenodd;stroke:none;stroke-width:0.7;stroke-linecap:round;stroke-linejoin:round;stroke-dasharray:none;stroke-opacity:0.708145;paint-order:stroke markers fill"
                 d="m 55.824016,75.943655 c 0.127743,0.06387 0.255487,0.127744 0.340649,0.191615 0.08516,0.06387 0.127744,0.127744 0.20226,0.191615 0.07452,0.06387 0.180972,0.127745 0.234199,0.170331 0.05323,0.04259 0.05323,0.06387 0.06388,0.07451 0.01065,0.01065 0.03193,0.01065 0.06386,0.03194 0.03194,0.02129 0.07451,0.06387 0.106457,0.08516 0.03194,0.02129 0.05322,0.02129 0.06387,0.03194 0.01064,0.01065 0.01064,0.03193 0.04258,0.06387 0.03193,0.03193 0.09581,0.07452 0.127745,0.106457 0.03194,0.03194 0.03194,0.05322 0.07452,0.06387 0.04258,0.01064 0.127742,0.01064 0.170324,0.03194 0.04258,0.02129 0.04258,0.06387 0.06387,0.117097 0.02129,0.05323 0.06387,0.117099 0.08516,0.170325 0.02129,0.05323 0.02129,0.09581 0.07452,0.159679 0.05323,0.06387 0.159679,0.149036 0.266134,0.2342"
                 id="path293-23"
                 inkscape:path-effect="#path-effect293-8"
                 inkscape:original-d="m 55.824016,75.943655 c 0.127744,0.06387 0.255487,0.127743 0.383231,0.191616 0.04258,0.06387 0.08516,0.127744 0.127743,0.191614 0.106452,0.06387 0.212908,0.127744 0.31936,0.191617 0,0.0213 0,0.04258 0,0.06387 0.0213,0 0.04258,0 0.06387,0 0.04258,0.04258 0.08516,0.08516 0.127744,0.127744 0.0213,0 0.04258,0 0.06387,0 0,0.0213 0,0.04258 0,0.06387 0.06387,0.04258 0.127743,0.08516 0.191617,0.127743 0,0.0213 0,0.04258 0,0.06387 0.08516,0 0.170322,0 0.255486,0 0,0.04258 0,0.08516 0,0.127744 0.04258,0.06387 0.08516,0.127743 0.127744,0.191614 0,0.04258 0,0.08516 0,0.127746 0.106452,0.08516 0.212905,0.170323 0.31936,0.255487"
                 transform="translate(18.49215,-22.264989)" />
              <path
                 style="fill:#000000;fill-opacity:1;fill-rule:evenodd;stroke:none;stroke-width:0.7;stroke-linecap:round;stroke-linejoin:round;stroke-dasharray:none;stroke-opacity:0.708145;paint-order:stroke markers fill"
                 d="m 55.824016,75.943655 c 0.127743,0.06387 0.255487,0.127744 0.340649,0.191615 0.08516,0.06387 0.127744,0.127744 0.20226,0.191615 0.07452,0.06387 0.180972,0.127745 0.234199,0.170331 0.05323,0.04259 0.05323,0.06387 0.06388,0.07451 0.01065,0.01065 0.03193,0.01065 0.06386,0.03194 0.03194,0.02129 0.07451,0.06387 0.106457,0.08516 0.03194,0.02129 0.05322,0.02129 0.06387,0.03194 0.01064,0.01065 0.01064,0.03193 0.04258,0.06387 0.03193,0.03193 0.09581,0.07452 0.127745,0.106457 0.03194,0.03194 0.03194,0.05322 0.07452,0.06387 0.04258,0.01064 0.127742,0.01064 0.170324,0.03194 0.04258,0.02129 0.04258,0.06387 0.06387,0.117097 0.02129,0.05323 0.06387,0.117099 0.08516,0.170325 0.02129,0.05323 0.02129,0.09581 0.07452,0.159679 0.05323,0.06387 0.159679,0.149036 0.266134,0.2342"
                 id="path293-42"
                 inkscape:path-effect="#path-effect293-1"
                 inkscape:original-d="m 55.824016,75.943655 c 0.127744,0.06387 0.255487,0.127743 0.383231,0.191616 0.04258,0.06387 0.08516,0.127744 0.127743,0.191614 0.106452,0.06387 0.212908,0.127744 0.31936,0.191617 0,0.0213 0,0.04258 0,0.06387 0.0213,0 0.04258,0 0.06387,0 0.04258,0.04258 0.08516,0.08516 0.127744,0.127744 0.0213,0 0.04258,0 0.06387,0 0,0.0213 0,0.04258 0,0.06387 0.06387,0.04258 0.127743,0.08516 0.191617,0.127743 0,0.0213 0,0.04258 0,0.06387 0.08516,0 0.170322,0 0.255486,0 0,0.04258 0,0.08516 0,0.127744 0.04258,0.06387 0.08516,0.127743 0.127744,0.191614 0,0.04258 0,0.08516 0,0.127746 0.106452,0.08516 0.212905,0.170323 0.31936,0.255487"
                 transform="translate(13.209579,-15.777108)" />
            </g>
            <g
               id="g298"
               style="stroke-width:0.6;stroke-dasharray:none">
              <path
                 style="opacity:1;fill:#ffffff;fill-opacity:1;fill-rule:evenodd;stroke:#000000;stroke-width:0.6;stroke-linecap:round;stroke-linejoin:round;stroke-dasharray:none;stroke-opacity:0.708145;paint-order:stroke markers fill"
                 d="M 54.921821,54.312929 C 75.336052,78.701617 75.697367,78.701617 75.697367,78.701617 L 77.684595,76.895048 57.270361,52.506362 Z"
                 id="path291" />
              <path
                 style="opacity:1;fill:#ffffff;fill-opacity:1;fill-rule:evenodd;stroke:none;stroke-width:0.6;stroke-linecap:round;stroke-linejoin:round;stroke-dasharray:none;stroke-opacity:0.708145;paint-order:stroke markers fill"
                 d="m 54.964872,54.309991 c -0.361315,-2.958259 -0.338733,-2.958259 -0.338733,-2.958259 l 2.66469,1.219436 z"
                 id="path294" />
              <path
                 style="opacity:1;fill:#000000;fill-opacity:1;fill-rule:evenodd;stroke:none;stroke-width:0.6;stroke-linecap:round;stroke-linejoin:round;stroke-dasharray:none;stroke-opacity:0.708145;paint-order:stroke markers fill"
                 d="m 55.010036,54.242244 c 0.105384,-0.120438 0.210767,-0.240876 0.293568,-0.308622 0.0828,-0.06775 0.143019,-0.0828 0.180655,-0.105381 0.03764,-0.02258 0.05269,-0.05269 0.13549,-0.105384 0.0828,-0.05269 0.233349,-0.127964 0.316149,-0.180655 0.0828,-0.05269 0.09785,-0.0828 0.127962,-0.112912 0.03011,-0.03011 0.07528,-0.06022 0.120439,-0.120439 0.04516,-0.06022 0.09033,-0.15055 0.127964,-0.195714 0.03764,-0.04516 0.06775,-0.04516 0.127966,-0.0828 0.06022,-0.03764 0.150549,-0.112912 0.210769,-0.150549 0.06022,-0.03764 0.09033,-0.03764 0.105384,-0.04516 0.01505,-0.0075 0.01505,-0.02258 0.05269,-0.04516 0.03764,-0.02258 0.112913,-0.05269 0.15055,-0.07527 0.03764,-0.02258 0.03764,-0.03764 0.06775,-0.05269 0.03011,-0.01505 0.09033,-0.0301 0.120436,-0.04516 0.03011,-0.01505 0.03011,-0.03011 0.04516,-0.04516 0.01505,-0.01505 0.04517,-0.03011 0.07528,-0.04516"
                 id="path296"
                 inkscape:path-effect="#path-effect296"
                 inkscape:original-d="m 55.010036,54.242244 c 0.105384,-0.120438 0.210767,-0.240876 0.316151,-0.361315 0.06022,-0.01505 0.120435,-0.03011 0.180655,-0.04516 0.01505,-0.03011 0.03011,-0.06022 0.04516,-0.09033 0.150548,-0.07527 0.301096,-0.150545 0.451644,-0.225819 0.01505,-0.03011 0.03011,-0.06022 0.04516,-0.09033 0.04516,-0.03011 0.09033,-0.06022 0.135493,-0.09033 0.04516,-0.09033 0.09033,-0.180658 0.135491,-0.270987 0.03011,0 0.06022,0 0.09033,0 0.09033,-0.07527 0.180658,-0.150548 0.270987,-0.225822 0.03011,0 0.06022,0 0.09033,0 0,-0.01505 0,-0.03011 0,-0.04516 0.07527,-0.03011 0.150548,-0.06022 0.225822,-0.09033 0,-0.01505 0,-0.03011 0,-0.04516 0.06022,-0.01505 0.120436,-0.03011 0.180655,-0.04516 0,-0.01505 0,-0.03011 0,-0.04516 0.03011,-0.01505 0.06022,-0.03011 0.09033,-0.04516" />
            </g>
          </g>
          <rect
             style="opacity:1;fill:#000000;fill-opacity:1;fill-rule:evenodd;stroke:none;stroke-width:2.88737;stroke-linecap:round;stroke-linejoin:round;paint-order:stroke markers fill"
             id="rect15"
             width="0.48748234"
             height="31.812214"
             x="6.8508191"
             y="78.127937"
             transform="matrix(0.77155399,-0.63616385,0.64734452,0.76219753,0,0)" />
          <rect
             style="fill:#000000;fill-opacity:1;fill-rule:evenodd;stroke:none;stroke-width:2.88737;stroke-linecap:round;stroke-linejoin:round;paint-order:stroke markers fill"
             id="rect15-0"
             width="0.48748234"
             height="31.812214"
             x="7.8116679"
             y="78.08757"
             transform="matrix(0.77155399,-0.63616385,0.64734452,0.76219753,0,0)" />
          <rect
             style="fill:#000000;fill-opacity:1;fill-rule:evenodd;stroke:none;stroke-width:2.88737;stroke-linecap:round;stroke-linejoin:round;paint-order:stroke markers fill"
             id="rect15-8"
             width="0.48748234"
             height="31.812214"
             x="8.7112026"
             y="78.120277"
             transform="matrix(0.77155399,-0.63616385,0.64734452,0.76219753,0,0)" />
        </g>
        <path
           id="rect16"
           style="opacity:1;fill:#ffffff;fill-rule:evenodd;stroke:#000000;stroke-width:0.397899;stroke-linecap:round;stroke-linejoin:round;paint-order:stroke markers fill"
           d="m 76.791611,79.393748 0.718283,-0.618815 0.589026,-0.455268 c 0.473125,-0.365674 0.338405,-0.439679 0.733069,0.01287 l 0.666839,0.764645 c 0.394638,0.45252 0.357701,1.143637 -0.08282,1.549587 l -0.556104,0.512463 c -0.440521,0.405951 -1.112871,0.368459 -1.507509,-0.08406 l -0.666839,-0.764645 c -0.394638,-0.452519 -0.356255,-0.536942 0.106055,-0.916776 z"
           sodipodi:nodetypes="scssssssss" />
      </g>
      <path
         style="opacity:1;fill:#000000;fill-opacity:1;fill-rule:evenodd;stroke:#000000;stroke-width:0.4;stroke-linecap:round;stroke-linejoin:round;stroke-dasharray:none;stroke-opacity:1;paint-order:stroke markers fill"
         d="m 55.241184,52.350982 c 0,0 0.09581,0.07585 0.09581,0.07585"
         id="path29"
         inkscape:path-effect="#path-effect29"
         inkscape:original-d="m 55.241184,52.350982 0.09581,0.07585" />
    </g>
  </g>
</svg>
