<?xml version="1.0" encoding="UTF-8" standalone="no"?>
<!-- Created with Inkscape (http://www.inkscape.org/) -->

<svg
   width="500"
   height="500"
   viewBox="0 0 132.29166 132.29167"
   version="1.1"
   id="svg1"
   inkscape:version="1.3.1 (91b66b0783, 2023-11-16)"
   sodipodi:docname="btn-menu.svg"
   xmlns:inkscape="http://www.inkscape.org/namespaces/inkscape"
   xmlns:sodipodi="http://sodipodi.sourceforge.net/DTD/sodipodi-0.dtd"
   xmlns="http://www.w3.org/2000/svg"
   xmlns:svg="http://www.w3.org/2000/svg">
  <sodipodi:namedview
     id="namedview1"
     pagecolor="#505050"
     bordercolor="#eeeeee"
     borderopacity="1"
     inkscape:showpageshadow="0"
     inkscape:pageopacity="0"
     inkscape:pagecheckerboard="0"
     inkscape:deskcolor="#505050"
     inkscape:document-units="mm"
     showguides="true"
     inkscape:zoom="0.73228115"
     inkscape:cx="46.430254"
     inkscape:cy="127.6832"
     inkscape:window-width="1920"
     inkscape:window-height="1017"
     inkscape:window-x="1912"
     inkscape:window-y="-8"
     inkscape:window-maximized="1"
     inkscape:current-layer="layer1" />
  <defs
     id="defs1">
    <rect
       x="105.2528"
       y="91.73409"
       width="297.41158"
       height="99.459066"
       id="rect264" />
    <filter
       inkscape:label="Button"
       inkscape:menu="Bevels"
       inkscape:menu-tooltip="Soft bevel, slightly depressed middle"
       style="color-interpolation-filters:sRGB;"
       id="filter52"
       x="-0.40519165"
       y="-0.40519167"
       width="1.8103833"
       height="1.8103833">
      <feGaussianBlur
         stdDeviation="5.8788731"
         in="SourceAlpha"
         result="result0"
         id="feGaussianBlur49" />
      <feMorphology
         in="SourceAlpha"
         radius="6.6"
         result="result1"
         id="feMorphology49" />
      <feGaussianBlur
         stdDeviation="8.9"
         in="result1"
         id="feGaussianBlur50" />
      <feColorMatrix
         values="1 0 0 0 0 0 1 0 0 0 0 0 1 0 0 0 0 0 0.3 0"
         result="result91"
         id="feColorMatrix50" />
      <feComposite
         in="result0"
         operator="out"
         result="result2"
         in2="result91"
         id="feComposite50" />
      <feGaussianBlur
         stdDeviation="1.7"
         result="result4"
         id="feGaussianBlur51" />
      <feDiffuseLighting
         surfaceScale="10"
         id="feDiffuseLighting51">
        <feDistantLight
           azimuth="225"
           elevation="45"
           id="feDistantLight51" />
      </feDiffuseLighting>
      <feBlend
         in2="SourceGraphic"
         mode="multiply"
         id="feBlend51" />
      <feComposite
         in2="SourceAlpha"
         operator="in"
         result="result3"
         id="feComposite51" />
      <feSpecularLighting
         in="result4"
         surfaceScale="5"
         specularExponent="17.9"
         id="feSpecularLighting52">
        <feDistantLight
           azimuth="225"
           elevation="45"
           id="feDistantLight52" />
      </feSpecularLighting>
      <feComposite
         in2="result3"
         operator="atop"
         id="feComposite52" />
    </filter>
  </defs>
  <g
     inkscape:label="Livello 1"
     inkscape:groupmode="layer"
     id="layer1">
    <g
       id="g1"
       transform="matrix(1.6238255,0,0,1.6238255,-39.640981,-31.8693)">
      <path
         id="path1"
         style="opacity:1;mix-blend-mode:normal;fill:#000000;fill-opacity:1;fill-rule:evenodd;stroke:#000000;stroke-width:2.61725;stroke-linecap:round;stroke-linejoin:round;stroke-dasharray:none;stroke-opacity:1;paint-order:stroke markers fill;filter:url(#filter52)"
         d="M 109.95248,56.86216 A 42.273724,42.273724 0 0 1 67.678758,99.135878 42.273724,42.273724 0 0 1 25.405034,56.86216 42.273724,42.273724 0 0 1 67.678758,14.588436 42.273724,42.273724 0 0 1 109.95248,56.86216 Z"
         transform="matrix(0.71640055,0,0,0.71640055,17.660735,25.409755)" />
      <path
         id="rect2"
         style="opacity:1;fill:#ffffff;fill-rule:evenodd;stroke-width:0.893736;stroke-linecap:round;stroke-linejoin:round;paint-order:stroke markers fill"
         transform="scale(-1,1)"
         d="m -78.681206,56.191654 h 26.380373 c 1.217209,0 2.197129,0.97992 2.197129,2.197129 0,1.217209 -0.97992,2.197128 -2.197129,2.197128 h -26.380373 c -1.217209,0 -2.197128,-0.979919 -2.197128,-2.197128 0,-1.217209 0.979919,-2.197129 2.197128,-2.197129 z" />
      <path
         id="rect2-5"
         style="fill:#ffffff;fill-rule:evenodd;stroke-width:0.893736;stroke-linecap:round;stroke-linejoin:round;paint-order:stroke markers fill"
         transform="scale(-1,1)"
         d="m -78.835418,62.596992 h 26.380372 c 1.217209,0 2.197129,0.97992 2.197129,2.197129 0,1.217209 -0.97992,2.197129 -2.197129,2.197129 h -26.380372 c -1.21721,0 -2.197129,-0.97992 -2.197129,-2.197129 0,-1.217209 0.979919,-2.197129 2.197129,-2.197129 z" />
      <path
         id="rect2-0"
         style="fill:#ffffff;fill-rule:evenodd;stroke-width:0.893736;stroke-linecap:round;stroke-linejoin:round;paint-order:stroke markers fill"
         transform="scale(-1,1)"
         d="m -78.894584,69.002319 h 26.380372 c 1.217209,0 2.197129,0.97992 2.197129,2.197129 0,1.217209 -0.97992,2.197128 -2.197129,2.197128 h -26.380372 c -1.21721,0 -2.197129,-0.979919 -2.197129,-2.197128 0,-1.217209 0.979919,-2.197129 2.197129,-2.197129 z" />
      <path
         d="m 96.802995,67.200304 9.911355,1.948208 -0.58872,2.995041 -7.114306,0.469449 6.411306,3.107022 -0.59004,3.001801 -9.911357,-1.948208 0.365455,-1.859224 7.801982,1.533583 -7.415264,-3.50098 0.378745,-1.926832 8.187369,-0.427053 -7.80198,-1.533583 z m -2.834514,11.4601 8.645049,5.224318 -3.873688,6.410077 -1.462464,-0.883786 2.818852,-4.664555 -1.916538,-1.158188 -2.62285,4.340218 -1.456568,-0.880223 2.62285,-4.340218 -2.352917,-1.421898 -2.918633,4.829672 -1.456568,-0.880223 z m -5.14386,7.960657 6.534567,7.70259 -1.513197,1.283735 -7.516299,-2.46937 4.363807,5.143817 -1.444893,1.225789 -6.534566,-7.70259 1.560484,-1.323852 7.366491,2.388641 -4.261286,-5.022971 z m -4.376531,15.756209 -1.90367,0.73184 -1.963092,-5.106469 q -0.467285,-1.21552 -0.676484,-1.548477 -0.344712,-0.531843 -0.937318,-0.710024 -0.596565,-0.169278 -1.394049,0.137301 -0.810346,0.311523 -1.095857,0.797754 -0.28304,0.492663 -0.181216,1.007153 0.101823,0.51449 0.532022,1.63354 l 2.005123,5.215802 -1.90367,0.73183 -1.903754,-4.95212 q -0.652716,-1.697863 -0.767857,-2.458215 -0.115141,-0.760351 0.117465,-1.403407 0.226173,-0.640583 0.809497,-1.197012 0.585797,-0.549998 1.704846,-0.980197 1.350577,-0.519206 2.170266,-0.479995 0.815731,0.04811 1.411279,0.387564 0.598021,0.345881 0.936802,0.843095 0.498032,0.738646 1.106244,2.320751 z"
         id="text264"
         style="font-weight:bold;font-size:14.1111px;line-height:94.42%;font-family:Arial;-inkscape-font-specification:'Arial Bold';white-space:pre;fill:#ffffff;fill-rule:evenodd;stroke-width:1.524;stroke-linecap:round;stroke-linejoin:round;stroke-opacity:0.708145;paint-order:stroke markers fill"
         inkscape:transform-center-x="-8.6044427"
         inkscape:transform-center-y="41.468761"
         transform="rotate(-128.8525,65.570959,64.689582)"
         aria-label="MENU" />
      <path
         id="path2"
         style="opacity:0;fill:#ffffff;fill-rule:evenodd;stroke:#000000;stroke-width:1.875;stroke-linecap:round;stroke-linejoin:round;paint-order:stroke markers fill"
         d="m 36.312043,52.264946 a 5.0583944,8.1846533 0 0 1 -5.058394,8.184653 5.0583944,8.1846533 0 0 1 -5.058395,-8.184653 5.0583944,8.1846533 0 0 1 5.058395,-8.184653 5.0583944,8.1846533 0 0 1 5.058394,8.184653 z" />
      <path
         id="path3"
         style="opacity:0;fill:#ffffff;fill-rule:evenodd;stroke:#ffffff;stroke-width:1.875;stroke-linecap:round;stroke-linejoin:round;paint-order:stroke markers fill"
         d="m 41.731751,53.745438 a 8.7618608,8.2198906 0 0 1 -8.76186,8.21989 8.7618608,8.2198906 0 0 1 -8.761861,-8.21989 8.7618608,8.2198906 0 0 1 8.761861,-8.219891 8.7618608,8.2198906 0 0 1 8.76186,8.219891 z" />
      <path
         id="path4"
         style="opacity:0;fill:#ffffff;fill-rule:evenodd;stroke:#ffffff;stroke-width:1.875;stroke-linecap:round;stroke-linejoin:round;paint-order:stroke markers fill"
         d="m 37.757298,77.592155 a 8.7618608,10.749087 0 0 1 -8.76186,10.749088 8.7618608,10.749087 0 0 1 -8.761861,-10.749088 8.7618608,10.749087 0 0 1 8.761861,-10.749087 8.7618608,10.749087 0 0 1 8.76186,10.749087 z" />
      <path
         id="path5"
         style="opacity:0;fill:#ffffff;fill-rule:evenodd;stroke:#ffffff;stroke-width:1.875;stroke-linecap:round;stroke-linejoin:round;paint-order:stroke markers fill"
         d="M 40.467154,79.940697 A 13.097628,12.916971 0 0 1 27.369526,92.857668 13.097628,12.916971 0 0 1 14.271898,79.940697 13.097628,12.916971 0 0 1 27.369526,67.023726 13.097628,12.916971 0 0 1 40.467154,79.940697 Z" />
      <path
         id="path6"
         style="opacity:0;fill:#ffffff;fill-rule:evenodd;stroke:#ffffff;stroke-width:1.875;stroke-linecap:round;stroke-linejoin:round;paint-order:stroke markers fill"
         d="m 20.233575,55.913322 a 6.3229928,8.5812044 0 0 1 -6.322992,8.581205 6.3229928,8.5812044 0 0 1 -6.3229933,-8.581205 6.3229928,8.5812044 0 0 1 6.3229933,-8.581204 6.3229928,8.5812044 0 0 1 6.322992,8.581204 z" />
      <path
         id="path7"
         style="opacity:0;fill:#ffffff;fill-rule:evenodd;stroke:#ffffff;stroke-width:1.875;stroke-linecap:round;stroke-linejoin:round;paint-order:stroke markers fill"
         d="m 29.989051,51.848541 a 7.8585768,9.9361315 0 0 1 -7.858577,9.936132 7.8585768,9.9361315 0 0 1 -7.858577,-9.936132 7.8585768,9.9361315 0 0 1 7.858577,-9.936131 7.8585768,9.9361315 0 0 1 7.858577,9.936131 z" />
      <path
         id="path8"
         style="opacity:0;fill:#f6f6f6;fill-rule:evenodd;stroke:#ffffff;stroke-width:1.875;stroke-linecap:round;stroke-linejoin:round;paint-order:stroke markers fill"
         d="M 66.481752,74.520981 A 28.634123,28.634123 0 0 1 37.84763,103.1551 28.634123,28.634123 0 0 1 9.2135067,74.520981 28.634123,28.634123 0 0 1 37.84763,45.886858 28.634123,28.634123 0 0 1 66.481752,74.520981 Z" />
    </g>
  </g>
</svg>
