<?xml version="1.0" encoding="UTF-8"?>
<svg width="350" height="350" version="1.1" viewBox="0 0 92.604 92.604" xml:space="preserve" xmlns="http://www.w3.org/2000/svg"><g fill-rule="evenodd"><path d="m74.798 2.3921-57.058 0.034485-17.599 54.276 46.181 33.51 46.14-33.566z" fill="#0c74b8"/><path d="m36.464 9.9597 1.2206 0.30828q-0.38378 1.5037-1.3841 2.2964-0.99404 0.78644-2.4348 0.78644-1.4911 0-2.4285-0.60398-0.93114-0.61027-1.4219-1.7616-0.48443-1.1513-0.48443-2.4726 0-1.4408 0.54735-2.5103 0.55365-1.0758 1.5666-1.6295 1.0192-0.55994 2.2398-0.55994 1.3841 0 2.3278 0.70465 0.94373 0.70465 1.3149 1.9818l-1.2017 0.2831q-0.32086-1.0066-0.93113-1.4659-0.61028-0.45928-1.5351-0.45928-1.0633 0-1.7805 0.50961-0.71094 0.50961-1.0003 1.3715-0.28941 0.85564-0.28941 1.7679 0 1.1765 0.33973 2.0573 0.34605 0.87452 1.0696 1.3086 0.72352 0.43412 1.5666 0.43412 1.0255 0 1.7364-0.5914 0.71094-0.5914 0.9626-1.7553zm6.4912 0.27053 1.1514-0.10066q0.0818 0.69206 0.37749 1.1388 0.30198 0.44041 0.93114 0.71723 0.62915 0.27053 1.4156 0.27053 0.69836 0 1.2331-0.20762 0.53477-0.20762 0.79273-0.56623 0.26422-0.36492 0.26422-0.79273 0-0.43412-0.25165-0.75498-0.25165-0.32716-0.83047-0.54736-0.37119-0.14472-1.6421-0.4467-1.2709-0.30828-1.7805-0.57882-0.6606-0.34604-0.98776-0.85564-0.32086-0.5159-0.32086-1.1513 0-0.69836 0.39637-1.3023 0.39636-0.61027 1.1576-0.92485 0.76127-0.31459 1.6924-0.31459 1.0255 0 1.8057 0.33343 0.78644 0.32716 1.208 0.96889 0.42153 0.64173 0.45298 1.4533l-1.1702 0.08809q-0.0944-0.87451-0.64174-1.3212-0.54106-0.4467-1.6043-0.4467-1.1073 0-1.6169 0.40895-0.50332 0.40265-0.50332 0.97518 0 0.49702 0.35862 0.81789 0.3523 0.32086 1.8371 0.66061 1.4911 0.33347 2.0447 0.58511 0.80531 0.37119 1.1891 0.94372 0.38378 0.56623 0.38378 1.3086 0 0.7361-0.42153 1.3904-0.42153 0.64802-1.2143 1.0129-0.78643 0.35861-1.7742 0.35861-1.252 0-2.1014-0.36492-0.84306-0.36492-1.3275-1.0947-0.47815-0.7361-0.50332-1.661zm12.776 0 1.1513-0.10066q0.0818 0.69206 0.3775 1.1388 0.30197 0.44041 0.93113 0.71723 0.62914 0.27053 1.4156 0.27053 0.69836 0 1.2331-0.20762 0.53478-0.20762 0.79273-0.56623 0.26426-0.36492 0.26426-0.79273 0-0.43412-0.25165-0.75498-0.25165-0.32716-0.83048-0.54736-0.37118-0.14472-1.6421-0.4467-1.2709-0.30828-1.7805-0.57882-0.6606-0.34604-0.98776-0.85564-0.32086-0.5159-0.32086-1.1513 0-0.69836 0.39637-1.3023 0.39636-0.61027 1.1576-0.92485 0.76126-0.31459 1.6924-0.31459 1.0255 0 1.8057 0.33343 0.78644 0.32716 1.208 0.96889 0.42153 0.64173 0.45298 1.4533l-1.1702 0.08809q-0.0944-0.87451-0.64174-1.3212-0.54106-0.4467-1.6043-0.4467-1.1073 0-1.6169 0.40895-0.50332 0.40265-0.50332 0.97518 0 0.49702 0.35862 0.81789 0.35229 0.32086 1.8371 0.66061 1.4911 0.33347 2.0447 0.58511 0.80531 0.37119 1.1891 0.94372 0.38378 0.56623 0.38378 1.3086 0 0.7361-0.42153 1.3904-0.42153 0.64802-1.2143 1.0129-0.78643 0.35861-1.7742 0.35861-1.252 0-2.1014-0.36492-0.84306-0.36492-1.3275-1.0947-0.47816-0.7361-0.50332-1.661z" fill="#fff" opacity=".99" stroke="#fff" stroke-linecap="round" stroke-linejoin="round" stroke-width=".832" style="paint-order:stroke markers fill" aria-label="CSS"/><path d="m43.229 70.956q-4.6431 0-8.8283-2.2888-4.1853-2.2888-4.1853-8.8282 0-4.2506 2.0273-6.801 2.0926-2.5504 5.8856-2.5504 4.4469 0 5.1008 3.3351-3.3351 0.19618-4.5777 2.2888-1.1771 2.0926-1.1771 4.7738 0 2.8119 1.6349 4.3814 1.6349 1.5695 3.9891 1.5695 2.0927 0 3.9891-1.2425 1.9619-1.2425 3.2044-3.7928 1.2425-2.5504 1.2425-6.147 0-3.989-2.2234-7.3895-2.158-3.4659-6.4741-4.9699 3.4659-0.98091 6.0164-3.0735 2.5504-2.158 3.8583-4.7084 1.3079-2.6158 1.3079-4.9699 0-2.4196-1.3079-3.8582-1.2425-1.5041-3.6621-1.5041-2.3542 0-3.7929 1.4387-1.3733 1.3733-1.3733 3.6621 0 1.5695 0.58856 2.9427 0.65394 1.3733 1.8965 1.7002-2.4196 2.2234-4.97 2.2234-2.0273 0-3.4005-1.4387-1.3079-1.5041-1.3079-4.1198 0-2.9427 1.7657-5.1661 1.8311-2.2888 4.9046-3.5313 3.0736-1.2425 6.8665-1.2425 3.8583 0 6.6049 1.3079 2.7466 1.3079 4.1199 3.4659 1.4387 2.158 1.4387 4.7738 0 3.4005-2.2888 6.6702-2.2888 3.2697-6.6703 5.4931 4.1199 1.3733 6.1472 4.2506 2.0926 2.8119 2.0926 6.5394 0 4.0544-2.3542 7.978-2.2888 3.8582-6.5395 6.3432-4.1853 2.485-9.5477 2.485z" fill="#fff" opacity=".99" stroke-linecap="round" stroke-linejoin="round" stroke-width="4.2223" style="paint-order:stroke markers fill" aria-label="3"/></g></svg>
