<svg width="350" height="350" viewBox="0 0 92.604 92.604" xmlns="http://www.w3.org/2000/svg"><g fill-rule="evenodd"><path d="M74.798 2.392l-57.058.035L.141 56.703l46.181 33.51 46.14-33.566z" fill="#0c74b8"/><path d="M36.464 9.96l1.22.308q-.383 1.504-1.384 2.296-.994.787-2.434.787-1.491 0-2.429-.604-.93-.61-1.422-1.762-.484-1.151-.484-2.472 0-1.441.547-2.51.554-1.076 1.567-1.63 1.019-.56 2.24-.56 1.384 0 2.327.705.944.704 1.315 1.981l-1.201.283q-.321-1.006-.932-1.465-.61-.46-1.535-.46-1.063 0-1.78.51-.711.51-1 1.371-.29.856-.29 1.768 0 1.177.34 2.058.346.874 1.07 1.308.723.434 1.566.434 1.026 0 1.737-.591.71-.591.962-1.755zm6.491.27l1.152-.1q.081.692.377 1.138.302.44.931.718.63.27 1.416.27.698 0 1.233-.207.535-.208.793-.567.264-.365.264-.792 0-.435-.252-.755-.251-.328-.83-.548-.371-.145-1.642-.446-1.271-.309-1.78-.58-.661-.345-.989-.855-.32-.516-.32-1.151 0-.699.396-1.303.396-.61 1.158-.924.76-.315 1.692-.315 1.025 0 1.806.333.786.328 1.208.97.421.641.453 1.453l-1.17.088q-.095-.875-.642-1.321-.541-.447-1.605-.447-1.107 0-1.617.409-.503.402-.503.975 0 .497.359.818.352.32 1.837.66 1.49.334 2.045.586.805.37 1.189.943.383.567.383 1.309 0 .736-.421 1.39-.422.648-1.214 1.013-.787.359-1.775.359-1.252 0-2.101-.365-.843-.365-1.327-1.095-.479-.736-.504-1.66zm12.776 0l1.151-.1q.082.692.378 1.138.302.44.931.718.63.27 1.416.27.698 0 1.233-.207.535-.208.793-.567.264-.365.264-.792 0-.435-.252-.755-.251-.328-.83-.548-.371-.145-1.642-.446-1.271-.309-1.78-.58-.662-.345-.989-.855-.32-.516-.32-1.151 0-.699.396-1.303.396-.61 1.157-.924.762-.315 1.693-.315 1.025 0 1.806.333.786.328 1.208.97.421.641.453 1.453l-1.17.088q-.095-.875-.642-1.321-.541-.447-1.605-.447-1.107 0-1.617.409-.503.402-.503.975 0 .497.359.818.352.32 1.837.66 1.49.334 2.044.586.806.37 1.19.943.383.567.383 1.309 0 .736-.421 1.39-.422.648-1.214 1.013-.787.359-1.775.359-1.252 0-2.101-.365-.843-.365-1.328-1.095-.478-.736-.503-1.66z" fill="#fff" opacity=".99" stroke="#fff" stroke-linecap="round" stroke-linejoin="round" stroke-width=".832" aria-label="CSS" paint-order="stroke markers fill"/><path d="M43.229 70.956q-4.643 0-8.828-2.289-4.186-2.289-4.186-8.828 0-4.25 2.028-6.801 2.092-2.55 5.885-2.55 4.447 0 5.101 3.335-3.335.196-4.578 2.288-1.177 2.093-1.177 4.774 0 2.812 1.635 4.382 1.635 1.57 3.99 1.57 2.092 0 3.988-1.243 1.962-1.243 3.205-3.793 1.242-2.55 1.242-6.147 0-3.99-2.223-7.39-2.158-3.466-6.474-4.97 3.466-.98 6.016-3.073 2.55-2.158 3.858-4.708 1.308-2.616 1.308-4.97 0-2.42-1.308-3.858-1.242-1.505-3.662-1.505-2.354 0-3.793 1.44-1.373 1.372-1.373 3.661 0 1.57.589 2.943.654 1.373 1.896 1.7-2.42 2.224-4.97 2.224-2.027 0-3.4-1.44-1.308-1.503-1.308-4.119 0-2.943 1.766-5.166 1.83-2.289 4.904-3.531 3.074-1.243 6.867-1.243 3.858 0 6.605 1.308 2.746 1.308 4.12 3.466 1.438 2.158 1.438 4.774 0 3.4-2.289 6.67-2.288 3.27-6.67 5.493 4.12 1.373 6.147 4.25 2.093 2.813 2.093 6.54 0 4.054-2.354 7.978-2.29 3.858-6.54 6.343-4.185 2.485-9.548 2.485z" fill="#fff" opacity=".99" aria-label="3" paint-order="stroke markers fill"/></g></svg>