<?xml version="1.0" encoding="UTF-8" standalone="no"?>
<!-- Created with Inkscape (http://www.inkscape.org/) -->

<svg
   width="300"
   height="300"
   viewBox="0 0 79.374998 79.375"
   version="1.1"
   id="svg1"
   xml:space="preserve"
   inkscape:version="1.4.2 (f4327f4, 2025-05-13)"
   sodipodi:docname="email-footer.svg"
   xmlns:inkscape="http://www.inkscape.org/namespaces/inkscape"
   xmlns:sodipodi="http://sodipodi.sourceforge.net/DTD/sodipodi-0.dtd"
   xmlns="http://www.w3.org/2000/svg"
   xmlns:svg="http://www.w3.org/2000/svg"><sodipodi:namedview
     id="namedview1"
     pagecolor="#505050"
     bordercolor="#eeeeee"
     borderopacity="1"
     inkscape:showpageshadow="0"
     inkscape:pageopacity="0"
     inkscape:pagecheckerboard="0"
     inkscape:deskcolor="#505050"
     inkscape:document-units="mm"
     inkscape:zoom="0.98520767"
     inkscape:cx="74.60356"
     inkscape:cy="198.94283"
     inkscape:window-width="1920"
     inkscape:window-height="1009"
     inkscape:window-x="1912"
     inkscape:window-y="-8"
     inkscape:window-maximized="1"
     inkscape:current-layer="layer1" /><defs
     id="defs1" /><g
     inkscape:label="Livello 1"
     inkscape:groupmode="layer"
     id="layer1"><path
       style="fill:#ffb347;fill-opacity:1"
       d="M 58.814208,20.99877 V 8.0417244 l -19.11793,0.03571 -19.11794,0.03571 -0.0704,12.8598896 -0.0704,12.85989 -2.56329,-2.015828 -2.563283,-2.015829 -0.0069,-12.454373 c -0.0069,-12.4106146 -0.0058,-12.4565416 0.29184,-13.0714586 0.179948,-0.371722 0.525833,-0.767381 0.869913,-0.99508 l 0.57118,-0.377995 h 22.6241 22.62409 l 0.58548,0.387445 c 0.32201,0.213095 0.71347,0.638347 0.86992,0.945005 0.27907,0.547013 0.28445,0.794628 0.28445,13.0890576 v 12.531497 l -2.53444,2.050222 c -1.39393,1.127623 -2.56636,2.050223 -2.60539,2.050223 -0.039,0 -0.071,-5.830671 -0.071,-12.957046 z"
       id="path10" /><path
       style="fill:#f9f9f9;fill-opacity:1"
       d="m 37.971088,39.368416 c -0.19365,-0.03403 -0.81619,-0.130403 -1.38344,-0.214162 -1.32279,-0.195322 -2.66747,-0.655465 -4.13722,-1.415732 -0.91543,-0.473529 -1.45902,-0.895724 -2.5071,-1.947209 -1.51163,-1.516541 -2.11891,-2.452563 -2.67744,-4.126856 -1.05129,-3.15142 -0.86203,-7.123642 0.47753,-10.022957 1.74618,-3.779367 5.08506,-6.450561 9.21426,-7.371644 1.5545,-0.346756 5.31628,-0.335515 6.85793,0.02049 2.45874,0.567786 4.28277,1.504422 5.88808,3.02352 2.0323,1.92316 3.05475,4.452976 3.05475,7.558285 0,4.350692 -2.17315,7.701926 -5.56779,8.586116 -1.59502,0.41545 -3.15547,0.224459 -4.14531,-0.507364 -0.45622,-0.337296 -1.12926,-1.533997 -1.13351,-2.015421 -0.002,-0.18793 -0.15129,-0.01936 -0.42725,0.481336 -0.53093,0.963312 -0.88012,1.339546 -1.68268,1.813029 -0.56631,0.334105 -0.7761,0.373814 -1.97165,0.373209 -1.18033,-5.97e-4 -1.42288,-0.04543 -2.05943,-0.380621 -1.98399,-1.044734 -2.936,-3.462599 -2.58892,-6.575231 0.33778,-3.029206 1.7476,-5.29418 3.94419,-6.33659 0.66725,-0.31665 0.96131,-0.367582 2.12224,-0.367582 1.22719,0 1.39891,0.03388 1.92099,0.379066 0.31534,0.208486 0.65914,0.572889 0.764,0.809784 0.26641,0.601862 0.38121,0.53841 0.43105,-0.238234 l 0.0429,-0.668952 1.72519,-0.03954 c 1.45916,-0.03344 1.72519,-0.0069 1.72519,0.172264 0,0.116493 -0.12762,1.539794 -0.28361,3.16289 -0.37299,3.881191 -0.41921,6.141476 -0.13704,6.702176 0.65805,1.307629 2.31959,0.678991 3.12226,-1.181293 0.65409,-1.515948 0.86491,-4.251404 0.47093,-6.110669 -0.62401,-2.944881 -2.92228,-5.255132 -5.91934,-5.950196 -1.39938,-0.324539 -3.93334,-0.296699 -5.29972,0.05823 -3.55848,0.924337 -6.33868,3.746839 -7.32197,7.433361 -0.38236,1.433552 -0.41631,4.183013 -0.0684,5.540605 0.42529,1.659556 1.11335,2.890915 2.23506,3.999845 1.79432,1.773872 3.58426,2.460268 6.72357,2.578314 2.19409,0.0825 3.8681,-0.148793 5.7389,-0.792941 l 1.16186,-0.400048 v 1.446666 1.446667 l -0.55555,0.222289 c -1.0891,0.435772 -3.32103,0.790473 -5.3746,0.854139 -1.11477,0.03456 -2.18529,0.035 -2.37893,9.64e-4 z m 1.53948,-8.508129 c 1.4226,-0.407998 2.40081,-2.562893 2.39864,-5.283973 -0.002,-2.165997 -0.69598,-3.101081 -2.21877,-2.988448 -0.87775,0.06492 -1.33479,0.359334 -1.93883,1.248921 -0.71459,1.052389 -0.9776,2.088708 -0.9776,3.852006 0,1.393277 0.0354,1.61151 0.35208,2.16889 0.35654,0.627591 1.08446,1.140662 1.6183,1.140662 0.15664,0 0.50142,-0.06213 0.76618,-0.138058 z"
       id="path9" /><path
       style="fill:#ffb347;fill-opacity:1"
       d="m 8.0442934,76.391358 c -2.562321,-0.57347 -4.749649,-2.20713 -5.901773,-4.40788 -1.076147,-2.05562 -0.998992,-0.42386 -0.998992,-21.127825 0,-20.546084 -0.06094,-19.141924 0.922214,-21.250624 0.957941,-2.054629 2.514916,-3.632617 7.633327,-7.736342 l 2.4997676,-2.004207 -0.0013,3.841741 -0.0013,3.84174 -1.122038,0.898991 c -0.617121,0.494445 -1.0888526,0.952685 -1.048294,1.01831 0.09414,0.152319 29.662053,23.597653 29.833803,23.656162 0.0705,0.02402 6.74418,-5.276562 14.83039,-11.779071 l 14.70216,-11.822744 -0.60636,-0.564246 c -0.3335,-0.310336 -0.84565,-0.753956 -1.13812,-0.985824 l -0.53175,-0.421578 0.0388,-3.781655 0.0388,-3.781655 2.53497,2.009771 c 5.00045,3.964437 6.59361,5.555711 7.51523,7.506318 0.9924,2.100422 0.92078,0.556305 0.96884,20.889255 0.0482,20.401593 0.0905,19.402433 -0.90625,21.430623 -0.7648,1.55626 -2.2674,3.03406 -3.85664,3.79297 -0.65241,0.31154 -1.52204,0.63553 -1.9325,0.71996 -0.52693,0.1084 -9.92407,0.14872 -31.96886,0.13719 -17.1724,-0.009 -31.3492996,-0.0447 -31.5042146,-0.0794 z m 50.6041346,-14.6459 -8.82667,-8.82667 -4.1383,3.330278 c -2.27606,1.831654 -4.37006,3.427116 -4.65332,3.545472 -0.68617,0.286699 -1.59433,0.267137 -2.28448,-0.04921 -0.30983,-0.142018 -2.45009,-1.756673 -4.75614,-3.588122 -2.30604,-1.83145 -4.2092,-3.329909 -4.22923,-3.329909 -0.0322,0 -17.422968,17.373881 -17.656327,17.639201 -0.05109,0.0581 12.386507,0.10563 27.639117,0.10563 h 27.73202 z M 24.873708,49.011579 c 0,-0.131082 -17.4326536,-13.929107 -17.5982646,-13.929107 -0.100655,0 -0.146557,4.973123 -0.146557,15.878385 V 66.839243 L 16.0013,57.967667 c 4.879828,-4.879367 8.872408,-8.909606 8.872408,-8.956088 z m 47.31954,1.902754 c 0,-10.27628 -0.0485,-15.838815 -0.13781,-15.808389 -0.10131,0.03451 -15.12785,12.064342 -17.24549,13.80627 -0.28542,0.23478 -0.11919,0.41152 8.51046,9.048454 4.84087,4.844949 8.81761,8.808997 8.83721,8.808997 0.0196,0 0.0356,-7.134899 0.0356,-15.855332 z"
       id="path3" /></g></svg>
