<?xml version="1.0" encoding="UTF-8" standalone="no"?>
<svg
   width="50"
   height="50"
   viewBox="0 0 13.229 13.229"
   version="1.1"
   id="svg2"
   sodipodi:docname="logo.svg"
   inkscape:version="1.4.2 (f4327f4, 2025-05-13)"
   xmlns:inkscape="http://www.inkscape.org/namespaces/inkscape"
   xmlns:sodipodi="http://sodipodi.sourceforge.net/DTD/sodipodi-0.dtd"
   xmlns="http://www.w3.org/2000/svg"
   xmlns:svg="http://www.w3.org/2000/svg">
  <defs
     id="defs2" />
  <sodipodi:namedview
     id="namedview2"
     pagecolor="#505050"
     bordercolor="#eeeeee"
     borderopacity="1"
     inkscape:showpageshadow="0"
     inkscape:pageopacity="0"
     inkscape:pagecheckerboard="0"
     inkscape:deskcolor="#505050"
     inkscape:zoom="15.64"
     inkscape:cx="25"
     inkscape:cy="25"
     inkscape:window-width="1920"
     inkscape:window-height="1009"
     inkscape:window-x="1912"
     inkscape:window-y="-8"
     inkscape:window-maximized="1"
     inkscape:current-layer="g2" />
  <g
     fill="#001f3f"
     fill-rule="evenodd"
     stroke="#fff"
     stroke-linecap="round"
     stroke-width=".053"
     id="g2">
    <path
       d="M10.054 10.734c-.604.433-1.524.278-2.163-.338-.756-.73-.67-1.895-1.19-2.366-.435-.429-1.008-.274-1.531-.153.931-.63.901-1.404.263-2.294-.335-.462-1.568-2.379.32-3.336-1.168 1.13-.177 2.079.387 3.167.346.683.213 1.486-.287 2.113.284-.01.729.028 1.148.282.854.458.946 1.498 1.309 2.298.382.74 1.024.67 1.744.627z"
       id="path1"
       style="stroke:#000000;stroke-opacity:1;stroke-width:0.052916;stroke-dasharray:none;paint-order:stroke markers fill;fill:#ffb347;fill-opacity:1" />
    <path
       d="M4.4 9.753c.167.416-.242.444-.252.715-.011.323-.273.523-.545.467-.455-.094-.566-.283-.369-.292.28-.013.445-.303.366-.688-.043-.583.337-.436.541-.517.257-.133 4.293-7.46 4.705-6.981C9.28 2.96 4.37 9.51 4.4 9.753z"
       id="path2"
       style="fill:#f9f9f9;fill-opacity:1;stroke:#000000;stroke-opacity:1;stroke-width:0.052916;stroke-dasharray:none;stroke-linejoin:round;stroke-linecap:round;paint-order:stroke markers fill" />
  </g>
</svg>
