<svg version="1.1" width="500" height="500" id="prefix__svg15" xml:space="preserve" xmlns:xlink="http://www.w3.org/1999/xlink" xmlns="http://www.w3.org/2000/svg"><defs id="prefix__defs15"><linearGradient id="prefix__c" x1="14.321" x2="79.479" y1="-56.719" y2="118.79" gradientTransform="rotate(-3.841 122.891 25.154) scale(.99582)" gradientUnits="userSpaceOnUse"><stop stop-color="#0ff" offset="0" id="prefix__stop1-6"/><stop stop-color="#007272" offset=".177" id="prefix__stop2-9"/><stop stop-color="#0ff" offset=".492" id="prefix__stop3-4"/><stop stop-color="#0ff" stop-opacity=".247" offset=".7" id="prefix__stop4-4"/><stop stop-color="#0ff" stop-opacity="0" offset="1" id="prefix__stop5-1"/></linearGradient><linearGradient id="prefix__a"><stop stop-color="#0aa" offset=".099" id="prefix__stop6-6"/><stop stop-color="#00bebe" offset=".209" id="prefix__stop7-8"/><stop stop-color="#0ff" stop-opacity=".688" offset=".354" id="prefix__stop8-5"/><stop stop-color="#0ff" stop-opacity=".43" offset=".512" id="prefix__stop9-4"/><stop stop-color="#0ff" stop-opacity=".247" offset=".664" id="prefix__stop10-3"/><stop stop-color="#0ff" stop-opacity="0" offset="1" id="prefix__stop11-7"/></linearGradient><linearGradient id="prefix__b" x1="43.145" x2="43.671" y1="-40.596" y2="79.515" gradientUnits="userSpaceOnUse" xlink:href="#prefix__a" gradientTransform="translate(-167.192 -2.989)"/><linearGradient id="prefix__d" x1="79.437" x2="-22.895" y1="-5.391" y2="120.96" gradientTransform="rotate(-.806 583.668 -211.786) scale(.90953)" gradientUnits="userSpaceOnUse" xlink:href="#prefix__a"/><defs id="prefix__defs11"><linearGradient id="prefix__SvgjsLinearGradient1003" x1="14.321" x2="79.479" y1="-56.719" y2="118.79" gradientTransform="rotate(-3.841 122.891 25.154) scale(.99582)" gradientUnits="userSpaceOnUse"><stop stop-color="#0ff" offset="0" id="prefix__stop1"/><stop stop-color="#007272" offset=".177" id="prefix__stop2"/><stop stop-color="#0ff" offset=".492" id="prefix__stop3"/><stop stop-color="#0ff" stop-opacity=".247" offset=".7" id="prefix__stop4"/><stop stop-color="#0ff" stop-opacity="0" offset="1" id="prefix__stop5"/></linearGradient><linearGradient id="prefix__SvgjsLinearGradient1002"><stop stop-color="#0aa" offset=".099" id="prefix__stop6"/><stop stop-color="#00bebe" offset=".209" id="prefix__stop7"/><stop stop-color="#0ff" stop-opacity=".688" offset=".354" id="prefix__stop8"/><stop stop-color="#0ff" stop-opacity=".43" offset=".512" id="prefix__stop9"/><stop stop-color="#0ff" stop-opacity=".247" offset=".664" id="prefix__stop10"/><stop stop-color="#0ff" stop-opacity="0" offset="1" id="prefix__stop11"/></linearGradient><linearGradient id="prefix__SvgjsLinearGradient1001" x1="43.145" x2="43.671" y1="-40.596" y2="79.515" gradientUnits="userSpaceOnUse" xlink:href="#prefix__a"/><linearGradient id="prefix__SvgjsLinearGradient1000" x1="79.437" x2="-22.895" y1="-5.391" y2="120.96" gradientTransform="rotate(-.806 583.668 -211.786) scale(.90953)" gradientUnits="userSpaceOnUse" xlink:href="#prefix__a"/></defs></defs><g fill-rule="evenodd" id="prefix__g14" transform="scale(3.77958)"><g id="prefix__g17" transform="matrix(1.07915 0 0 1.07915 -5.235 -5.235)"><g stroke="#fff" stroke-linecap="round" stroke-width="1.2" id="prefix__g13" transform="matrix(1.24992 0 0 1.24992 -16.116 -16.533)"><path d="M73.746 82.539c-5.989 4.31-15.122 2.78-21.466-3.324-7.516-7.223-6.674-18.795-11.853-23.458-4.311-4.246-9.997-2.7-15.186-1.493 9.234-6.277 8.924-13.945 2.58-22.772-3.333-4.574-15.592-23.58 3.115-33.107-11.57 11.228-1.718 20.63 3.892 31.416 3.445 6.78 2.14 14.749-2.816 20.973 2.815-.097 7.235.27 11.402 2.787 8.473 4.529 9.402 14.848 13.015 22.783 3.805 7.328 10.174 6.629 17.318 6.196z" fill="url(#prefix__c)" transform="translate(24.235 24.423)" id="prefix__path12"/><path d="M22.662 71.471c2.132 3.511-2.566 3.905-2.54 6.237.03 2.783-2.88 4.598-6.041 4.218-5.294-.635-6.667-2.22-4.4-2.37 3.22-.214 4.972-2.775 3.863-6.046-.791-4.994 3.664-3.88 5.975-4.647 2.892-1.24 45.692-65.714 50.686-61.757 5.253 4.164-48.027 62.3-47.543 64.364z" fill="url(#prefix__d)" id="prefix__path13" transform="translate(24.235 24.423)"/></g></g></g><style id="style14">@media (prefers-color-scheme:light){:root{filter:none}}</style></svg>