<svg width="300" height="300" viewBox="0 0 79.375 79.375" xmlns="http://www.w3.org/2000/svg"><g fill-rule="evenodd" paint-order="stroke markers fill"><path d="M15.543 4.494h48.235A11.356 11.356 0 0175.16 15.876v47.151A11.356 11.356 0 0163.778 74.41H15.543A11.356 11.356 0 014.16 63.027V15.876A11.356 11.356 0 0115.543 4.494z" fill="#19384b"/><path d="M74.997 61.04s-8.028-1.403-12.059-1.991c-4.244-.62-8.491-1.27-12.766-1.623-3.225-.267-6.464-.368-9.7-.376-3.674-.008-7.352.1-11.017.376-4.24.318-8.456.915-12.671 1.475-4.131.548-12.365 1.845-12.365 1.845s-.16 2.882.15 4.274c.317 1.42.903 2.807 1.714 4.014 1.098 1.635 2.468 3.192 4.152 4.201 1.187.712 2.608.978 3.974 1.175 1.547.222 3.61.18 5.651.206l4.933.061 11.026-.153 18.93.03 10.225-.144c.763-.011 1.49-.352 2.21-.61.766-.275 1.537-.567 2.232-.994.783-.48 1.501-1.079 2.144-1.739a11.719 11.719 0 001.63-2.123c.469-.78.867-1.614 1.138-2.484.243-.78.347-1.602.424-2.417.094-.997.045-3.004.045-3.004z" fill="#fff" stroke="#fff" stroke-width=".407" stroke-linecap="round" stroke-linejoin="round"/><path d="M45.57 21.188l10.492 10.41-19.985 20.05-10.493-10.41z" fill="#55e6c5"/><path d="M34.596 10.08L45.121 20.69 33.783 31.936l-1.494 1.542.618-2.426-9.648-9.728z" fill="#fff"/><g><path d="M26.017 64.148l4.069-3.387 7.73 9.283-4.067 3.388zM33.995 64.125l-.494-.62.793.371 3.77-3.138 7.73 9.283-4.068 3.388zM43.316 65.142l-.579-.688.899.422 3.516-2.928 3.412 4.097-3.836 3.195z"/></g></g></svg>