<svg width="64" height="64" xmlns="http://www.w3.org/2000/svg"><path d="M12.053 3.086c-4.967 0-8.967 3.922-8.967 8.795v40.238c0 4.873 4 8.795 8.967 8.795h39.894c4.967 0 8.967-3.922 8.967-8.795V11.881c0-4.873-4-8.795-8.967-8.795zm29.605.023h4.121c.088 0 .158.069.158.155V15.54a6.141 6.025 0 013.805 5.564 6.141 6.025 0 01-3.804 5.563v11.574a6.141 6.025 0 013.537 5.45 6.141 6.025 0 01-6.143 6.025 6.141 6.025 0 01-6.14-6.026 6.141 6.025 0 014.308-5.738v-11.22a6.141 6.025 0 01-.484-.243L25.889 41.377a6.141 6.025 0 01.318 1.906 6.141 6.025 0 01-6.143 6.024 6.141 6.025 0 01-6.14-6.024 6.141 6.025 0 016.14-6.025 6.141 6.025 0 012.971.758l14.918-14.678a6.141 6.025 0 01-.494-2.233 6.141 6.025 0 014.041-5.628V3.264c0-.086.07-.155.158-.155z" fill="#df4c37" fill-rule="evenodd"/></svg>