<?xml version="1.0" encoding="UTF-8" standalone="no"?>
<svg
   version="1.1"
   id="svg1"
   width="64"
   height="64"
   viewBox="0 0 64 64"
   sodipodi:docname="git.svg"
   inkscape:version="1.3.2 (091e20e, 2023-11-25, custom)"
   xml:space="preserve"
   xmlns:inkscape="http://www.inkscape.org/namespaces/inkscape"
   xmlns:sodipodi="http://sodipodi.sourceforge.net/DTD/sodipodi-0.dtd"
   xmlns="http://www.w3.org/2000/svg"
   xmlns:svg="http://www.w3.org/2000/svg"><defs
     id="defs1" /><sodipodi:namedview
     id="namedview1"
     pagecolor="#505050"
     bordercolor="#eeeeee"
     borderopacity="1"
     inkscape:showpageshadow="0"
     inkscape:pageopacity="0"
     inkscape:pagecheckerboard="0"
     inkscape:deskcolor="#505050"
     inkscape:zoom="4.0000002"
     inkscape:cx="2.4999999"
     inkscape:cy="32.374998"
     inkscape:window-width="1920"
     inkscape:window-height="1017"
     inkscape:window-x="1912"
     inkscape:window-y="-8"
     inkscape:window-maximized="1"
     inkscape:current-layer="g1" /><g
     inkscape:groupmode="layer"
     inkscape:label="Image"
     id="g1"><path
       d="m 12.052734,3.0859375 c -4.9668294,0 -8.9667965,3.9225264 -8.9667965,8.7949215 v 40.238282 c 0,4.872394 3.9999671,8.794921 8.9667965,8.794921 h 39.894532 c 4.966821,0 8.966796,-3.922527 8.966796,-8.794921 V 11.880859 c 10e-7,-4.8723951 -3.999975,-8.7949215 -8.966796,-8.7949215 z m 29.605469,0.023437 h 4.121094 c 0.0878,0 0.158203,0.068168 0.158203,0.1542969 V 15.541016 a 6.1413803,6.0246234 0 0 1 3.804687,5.564453 6.1413803,6.0246234 0 0 1 -3.804687,5.5625 v 11.574218 a 6.1413803,6.0246234 0 0 1 3.537109,5.449219 6.1413803,6.0246234 0 0 1 -6.142578,6.025391 A 6.1413803,6.0246234 0 0 1 37.191406,43.691406 6.1413803,6.0246234 0 0 1 41.5,37.953125 V 26.732422 A 6.1413803,6.0246234 0 0 1 41.015625,26.490234 L 25.888672,41.376953 a 6.1413803,6.0246234 0 0 1 0.318359,1.90625 6.1413803,6.0246234 0 0 1 -6.142578,6.023438 6.1413803,6.0246234 0 0 1 -6.140625,-6.023438 6.1413803,6.0246234 0 0 1 6.140625,-6.025391 6.1413803,6.0246234 0 0 1 2.970703,0.757813 L 37.953125,23.337891 A 6.1413803,6.0246234 0 0 1 37.458984,21.105469 6.1413803,6.0246234 0 0 1 41.5,15.476563 V 3.2636719 c 0,-0.086131 0.07041,-0.1542969 0.158203,-0.1542969 z"
       style="fill:#df4c37;fill-rule:evenodd;stroke-width:3.11664;stroke-linecap:round;stroke-miterlimit:3.7"
       id="path1" /></g></svg>
