<?xml version="1.0" encoding="UTF-8" standalone="no"?>
<svg
   width="40"
   height="40"
   version="1.1"
   id="svg5"
   sodipodi:docname="github.svg"
   inkscape:version="1.3.2 (091e20e, 2023-11-25, custom)"
   xmlns:inkscape="http://www.inkscape.org/namespaces/inkscape"
   xmlns:sodipodi="http://sodipodi.sourceforge.net/DTD/sodipodi-0.dtd"
   xmlns="http://www.w3.org/2000/svg"
   xmlns:svg="http://www.w3.org/2000/svg">
  <sodipodi:namedview
     id="namedview5"
     pagecolor="#505050"
     bordercolor="#eeeeee"
     borderopacity="1"
     inkscape:showpageshadow="0"
     inkscape:pageopacity="0"
     inkscape:pagecheckerboard="0"
     inkscape:deskcolor="#505050"
     inkscape:zoom="5.7912045"
     inkscape:cx="16.576862"
     inkscape:cy="4.7485803"
     inkscape:window-width="1920"
     inkscape:window-height="1017"
     inkscape:window-x="1912"
     inkscape:window-y="-8"
     inkscape:window-maximized="1"
     inkscape:current-layer="svg5" />
  <defs
     id="defs5">
    <linearGradient
       id="a"
       x1="25.556999"
       x2="25.747999"
       y1="-7.0139999"
       y2="54.404999"
       gradientTransform="matrix(0.71783601,0,0,0.80413024,2.1301741,-0.13180633)"
       gradientUnits="userSpaceOnUse">
      <stop
         stop-color="#0ff"
         offset="0"
         id="stop1" />
      <stop
         stop-color="#00a0a0"
         offset=".238"
         id="stop2" />
      <stop
         stop-color="#0ff"
         offset=".366"
         id="stop3" />
      <stop
         stop-color="#0ff"
         stop-opacity=".247"
         offset=".61"
         id="stop4" />
      <stop
         stop-color="#0ff"
         stop-opacity="0"
         offset="1"
         id="stop5" />
    </linearGradient>
  </defs>
  <path
     d="M 31.528287,0.49171492 C 29.935106,0.50619262 27.816765,2.7821424 26.616963,2.9713223 24.606802,3.2869438 22.051813,2.2618978 19.931507,2.31981 18.584187,2.3564872 16.953636,3.2000755 15.646638,2.9558791 13.846934,2.6190231 12.184912,0.10177274 10.170818,0.65193861 7.9177455,1.2687035 9.6102538,5.8302546 9.1509859,7.3089466 8.6474622,8.936279 7.5725573,10.126374 7.303093,11.916827 c -0.6461237,4.304806 0.4986062,9.357647 3.887557,11.884549 1.749548,1.305919 3.805931,1.706479 5.82691,2.133099 -0.493689,0.919839 -0.788723,2.340619 -1.367972,3.129189 -0.79069,1.074271 -3.11752,0.873509 -4.116699,0.388012 -2.6651357,-1.294337 -3.0565467,-5.12716 -6.5133548,-4.669653 0.5015574,1.199747 1.5823627,1.818443 2.2648736,2.881131 0.6943116,1.081029 1.0276992,2.404321 1.768233,3.452533 1.6394032,2.321314 4.2160272,2.417835 6.5939972,1.922684 0,1.219053 0.455335,3.961195 -0.275364,4.93219 a 0.9834447,0.96520334 0 0 1 -0.463204,0.344578 20.203888,22.632088 0 0 0 6.216354,1.136043 20.203888,22.632088 0 0 0 6.219305,-1.137009 1.0473686,1.0279416 0 0 1 -0.186854,-0.09652 c -0.896901,-0.588775 -0.540895,-2.662032 -0.540895,-3.642678 0,-3.167796 0.131783,-5.844305 -1.369938,-8.640499 1.960005,-0.528932 3.897392,-0.787607 5.65579,-2.010519 3.532533,-2.455476 4.714635,-7.641513 4.058676,-12.007128 C 34.68711,10.100314 33.399781,8.7992196 33.06246,7.1168701 32.695636,5.2936015 34.124581,2.4771382 32.52845,0.89613513 A 1.333551,1.3088157 0 0 0 31.528287,0.49171492 Z M 16.213102,11.282688 a 1.9590218,1.2489732 0 0 1 1.958038,1.248008 1.9590218,1.2489732 0 0 1 -1.958038,1.249938 1.9590218,1.2489732 0 0 1 -1.959021,-1.249938 1.9590218,1.2489732 0 0 1 1.959021,-1.248973 z m 9.395831,0 a 1.9590218,1.2489732 0 0 1 1.959021,1.248008 1.9590218,1.2489732 0 0 1 -1.959021,1.249938 1.9590218,1.2489732 0 0 1 -1.959022,-1.249938 1.9590218,1.2489732 0 0 1 1.959022,-1.248973 z"
     fill="url(#a)"
     fill-rule="evenodd"
     stroke="#ffffff"
     stroke-linecap="round"
     stroke-width="0.736556"
     id="path5"
     style="fill:url(#a)" />
</svg>
