<?xml version="1.0" encoding="UTF-8" standalone="no"?>
<svg
   width="300"
   height="300"
   viewBox="0 0 79.375 79.375"
   version="1.1"
   id="svg5"
   sodipodi:docname="github-footer.svg"
   inkscape:version="1.4.2 (f4327f4, 2025-05-13)"
   xmlns:inkscape="http://www.inkscape.org/namespaces/inkscape"
   xmlns:sodipodi="http://sodipodi.sourceforge.net/DTD/sodipodi-0.dtd"
   xmlns="http://www.w3.org/2000/svg"
   xmlns:svg="http://www.w3.org/2000/svg">
  <defs
     id="defs5" />
  <sodipodi:namedview
     id="namedview5"
     pagecolor="#505050"
     bordercolor="#eeeeee"
     borderopacity="1"
     inkscape:showpageshadow="0"
     inkscape:pageopacity="0"
     inkscape:pagecheckerboard="0"
     inkscape:deskcolor="#505050"
     inkscape:zoom="1.3033333"
     inkscape:cx="154.21995"
     inkscape:cy="186.44501"
     inkscape:window-width="1920"
     inkscape:window-height="1009"
     inkscape:window-x="1912"
     inkscape:window-y="-8"
     inkscape:window-maximized="1"
     inkscape:current-layer="svg5" />
  <path
     d="m 50.486324,75.389197 c -0.207485,-0.07885 -0.400074,-0.192932 -0.572575,-0.348299 -1.274,-1.15 -0.699699,-4.235674 -0.699699,-5.769674 0,-4.774 -0.342295,-8.233209 -2.182295,-12.660209 10.677,-2.071 18.157393,-9.42176 16.457393,-20.95376 -0.412,-2.795 -2.178898,-4.821252 -2.986898,-7.421252 -0.889,-2.862 1.465946,-7.470128 -1.435054,-9.760128 -2.622,-2.068 -7.321146,2.364056 -9.853146,2.853056 -3.764,0.726 -9.115841,-0.560147 -13.095841,-0.513147 -1.952,0.024 -4.209255,0.919959 -6.111255,0.491959 -2.779,-0.624 -5.62913,-3.892846 -8.71213,-3.154846 -3.817,0.915 -1.569869,7.853255 -2.569869,10.519255 -0.743,1.982 -2.166031,3.525105 -2.544031,5.675105 -2.09,11.9 4.614992,20.670758 16.444992,22.263758 -0.767,1.458 -1.43683,3.386155 -2.53783,4.613155 -5.585,6.214 -12.385298,-7.108302 -17.980298,-6.359302 1.554,3.207 6.259132,10.191038 9.606132,11.576038 2.543,1.052 5.600034,0.646989 8.293034,0.646989 0,1.92 0.848301,6.556003 -0.699699,7.953003 -0.186708,0.16823 -0.400729,0.290255 -0.636137,0.372587 a 35.278,35.278 0 0 0 10.869104,1.716691 35.278,35.278 0 0 0 10.946102,-1.740979 z M 30.97382,34.844902 a 5.208,2.056 0 0 1 5.208984,2.055171 5.208,2.056 0 0 1 0,5.17e-4 5.208,2.056 0 0 1 0,5.17e-4 5.208,2.056 0 0 1 -5.208984,2.054655 5.208,2.056 0 0 1 -5.207951,-2.054655 5.208,2.056 0 0 1 5.207951,-2.056205 z m 18.998324,0 a 5.208,2.056 0 0 1 5.20795,2.055171 5.208,2.056 0 0 1 -5.20795,2.055689 5.208,2.056 0 0 1 -5.208985,-2.054655 5.208,2.056 0 0 1 5.208985,-2.056205 z"
     style="fill-rule:evenodd;stroke:#000000;stroke-width:0.4;stroke-linecap:round;stroke-miterlimit:3.7;fill:#ffb347;fill-opacity:1"
     id="path6" />
  <path
     d="m 10.081038,41.327193 c -1.0133329,0 -1.8598962,0.175617 -2.5398962,0.527617 -0.892,0.458666 -1.5696175,1.11744 -2.0329509,1.976106 -0.4626666,0.858 -0.6940145,1.83934 -0.6940145,2.944007 0,1.018 0.2070008,1.961284 0.6216675,2.829284 0.4146667,0.863334 1.0350182,1.528778 1.8603516,1.996778 0.824,0.462666 1.7902313,0.694014 2.8995645,0.694014 0.873333,0 1.734638,-0.163959 2.583305,-0.491959 0.854,-0.332667 1.504852,-0.715801 1.952852,-1.149801 v -4.225065 h -4.614705 v 1.786971 h 2.45153 v 1.344621 c -0.323333,0.251333 -0.711454,0.466405 -1.164787,0.644405 -0.448,0.173333 -0.896471,0.259932 -1.345137,0.259932 -0.9066671,0 -1.6394993,-0.313327 -2.1988326,-0.939994 -0.56,-0.631333 -0.8397421,-1.576669 -0.8397421,-2.836003 0,-1.166666 0.2747559,-2.046815 0.8247559,-2.640149 0.5546667,-0.593333 1.3000392,-0.889868 2.2360388,-0.889868 0.617334,0 1.130625,0.151419 1.539958,0.454753 0.415333,0.3 0.697643,0.710416 0.846977,1.230416 l 2.127002,-0.397392 c -0.212,-0.974667 -0.689654,-1.736682 -1.432988,-2.286682 -0.737333,-0.554667 -1.764282,-0.831991 -3.080949,-0.831991 z"
     style="font-weight:700;font-size:14.817px;line-height:113.22%;font-family:Arial;-inkscape-font-specification:'Arial, Bold';text-align:center;letter-spacing:2.019;text-anchor:middle;fill-rule:evenodd;stroke:#000000;stroke-width:0.4;stroke-linecap:round;stroke-miterlimit:3.7;fill:#ffb347;fill-opacity:1"
     id="path7" />
  <path
     d="M 73.566052,51.17052 V 41.508061 H 71.424064 V 45.683 h -4.196126 v -4.174939 h -2.140955 v 10.606071 h 2.140955 v -4.636927 h 4.196126 v 4.636927 h 1.869653 a 35.278,35.278 0 0 0 0.272335,-0.943612 z"
     style="font-weight:700;font-size:14.817px;line-height:113.22%;font-family:Arial;-inkscape-font-specification:'Arial, Bold';text-align:center;letter-spacing:2.019;text-anchor:middle;fill-rule:evenodd;stroke:#000000;stroke-width:0.4;stroke-linecap:round;stroke-miterlimit:3.7;fill:#ffb347;fill-opacity:1"
     id="path8" />
</svg>
