<?xml version="1.0" encoding="UTF-8" standalone="no"?>
<svg
   width="300"
   height="300"
   viewBox="0 0 79.375 79.375"
   version="1.1"
   id="svg1"
   sodipodi:docname="github.svg"
   xml:space="preserve"
   inkscape:version="1.3.2 (091e20e, 2023-11-25, custom)"
   xmlns:inkscape="http://www.inkscape.org/namespaces/inkscape"
   xmlns:sodipodi="http://sodipodi.sourceforge.net/DTD/sodipodi-0.dtd"
   xmlns="http://www.w3.org/2000/svg"
   xmlns:svg="http://www.w3.org/2000/svg"><defs
     id="defs1"><rect
       x="-307.69231"
       y="568.49817"
       width="386.81319"
       height="79.120879"
       id="rect6" /><rect
       x="-843.95604"
       y="290.10989"
       width="514.28571"
       height="180.21978"
       id="rect5" /></defs><sodipodi:namedview
     id="namedview1"
     pagecolor="#505050"
     bordercolor="#eeeeee"
     borderopacity="1"
     inkscape:showpageshadow="0"
     inkscape:pageopacity="0"
     inkscape:pagecheckerboard="0"
     inkscape:deskcolor="#505050"
     showgrid="false"
     showguides="true"
     inkscape:zoom="0.96520076"
     inkscape:cx="95.834985"
     inkscape:cy="194.2601"
     inkscape:window-width="1920"
     inkscape:window-height="1017"
     inkscape:window-x="1912"
     inkscape:window-y="-8"
     inkscape:window-maximized="1"
     inkscape:current-layer="svg1" /><text
     xml:space="preserve"
     transform="scale(0.26458333)"
     id="text5"
     style="-inkscape-font-specification:'Arial, Bold';font-family:Arial;font-size:2.21366572px;line-height:113.22%;fill:#000000;letter-spacing:7.63px;fill-rule:evenodd;stroke-miterlimit:3.7;stroke-linecap:round;stroke-width:1.51181102;text-align:center;font-weight:bold;opacity:1;stroke:#000000;stroke-opacity:1;stroke-dasharray:none;white-space:pre;shape-inside:url(#rect5)" /><text
     xml:space="preserve"
     transform="scale(0.26458333)"
     id="text6"
     style="-inkscape-font-specification:'Arial, Bold';font-family:Arial;font-size:2.21366572px;line-height:113.22%;fill:#000000;letter-spacing:7.63px;fill-rule:evenodd;stroke-miterlimit:3.7;stroke-linecap:round;stroke-width:1.51181102;text-align:center;font-weight:bold;opacity:1;stroke:#000000;stroke-opacity:1;stroke-dasharray:none;white-space:pre;shape-inside:url(#rect6)" /><text
     xml:space="preserve"
     style="font-weight:bold;font-size:14.8167px;line-height:113.22%;font-family:Arial;-inkscape-font-specification:'Arial, Bold';text-align:center;letter-spacing:2.01877px;text-anchor:middle;opacity:1;fill:none;fill-rule:evenodd;stroke:#ffffff;stroke-width:0.4;stroke-linecap:round;stroke-miterlimit:3.7;stroke-dasharray:none;stroke-opacity:1;font-style:normal;font-stretch:normal;font-variant:normal;font-variant-ligatures:normal;font-variant-caps:normal;font-variant-numeric:normal;font-variant-east-asian:normal"
     x="-87.225273"
     y="37.022282"
     id="text8"><tspan
       sodipodi:role="line"
       id="tspan8"></tspan></text><path
     id="path3"
     style="fill-rule:evenodd;stroke:#000000;stroke-width:0.4;stroke-linecap:round;stroke-miterlimit:3.7"
     d="M 74.81854,41.852108 A 35.277775,35.277775 0 0 1 39.540765,77.129883 35.277775,35.277775 0 0 1 4.2629902,41.852108 35.277775,35.277775 0 0 1 39.540765,6.5743337 35.277775,35.277775 0 0 1 74.81854,41.852108 Z" /><g
     id="g3"
     transform="translate(-0.0013607,-0.79135082)"><path
       style="fill:#ffffff;stroke:#000000;stroke-width:0.4;stroke-dasharray:none;stroke-opacity:1"
       d="m 30.007936,67.879291 c -2.692835,0 -5.749808,0.404737 -8.292571,-0.647408 -3.347087,-1.384928 -8.051904,-8.36814 -9.605557,-11.575705 5.595037,-0.748475 12.394503,12.573045 17.97897,6.358797 1.10203,-1.226316 1.771534,-3.154862 2.538396,-4.612632 C 20.796548,55.809252 14.091871,47.037851 16.182158,35.138821 c 0.377797,-2.150628 1.801269,-3.69351 2.544462,-5.675023 1.000059,-2.666366 -1.24762,-9.604717 2.569721,-10.519054 3.083355,-0.738533 5.933182,2.530592 8.711595,3.154808 1.901997,0.427314 4.15936,-0.468554 6.111556,-0.491779 3.979781,-0.04737 9.332308,1.238378 13.09619,0.512328 2.531813,-0.488391 7.231123,-4.921037 9.852798,-2.852329 2.901282,2.289342 0.545668,6.897987 1.434921,9.75949 0.807761,2.59926 2.574848,4.626431 2.986729,7.421178 1.699598,11.532408 -5.780634,18.883409 -16.457146,20.953903 1.840007,4.426564 2.182698,7.886373 2.182698,12.65965 0,1.534515 -0.573974,4.621167 0.699946,5.770003 1.478983,1.333764 4.421034,-0.387511 5.84815,-1.081247 C 61.238589,72.089383 65.926769,68.357648 69.629976,63.513887 79.484864,50.623815 79.640907,31.581159 69.960751,18.550309 66.904193,14.435754 63.190728,11.091392 58.819557,8.4277044 28.918378,-9.793366 -6.6097254,21.402637 4.2537799,53.473487 7.134332,61.977343 13.17908,68.79868 20.840603,73.356589 c 1.716173,1.02096 6.538164,4.215202 8.467388,2.475407 1.548152,-1.396156 0.699945,-6.033015 0.699945,-7.952705 z"
       id="path1" /><path
       id="path2"
       style="opacity:1;fill:#ffffff;fill-rule:evenodd;stroke:#000000;stroke-width:0.4;stroke-linecap:round;stroke-miterlimit:3.7"
       d="m 36.184182,37.691856 a 5.2083292,2.0559194 0 0 1 -5.208329,2.05592 5.2083292,2.0559194 0 0 1 -5.208329,-2.05592 5.2083292,2.0559194 0 0 1 5.208329,-2.055919 5.2083292,2.0559194 0 0 1 5.208329,2.055919 z" /><path
       id="path2-3"
       style="fill:#ffffff;fill-rule:evenodd;stroke:#000000;stroke-width:0.4;stroke-linecap:round;stroke-miterlimit:3.7"
       d="m 55.181241,37.691856 a 5.2083292,2.0559194 0 0 1 -5.208329,2.05592 5.2083292,2.0559194 0 0 1 -5.208329,-2.05592 5.2083292,2.0559194 0 0 1 5.208329,-2.055919 5.2083292,2.0559194 0 0 1 5.208329,2.055919 z" /></g><path
     d="m 10.116658,48.214799 v -1.786975 h 4.61575 v 4.225075 q -0.672829,0.651124 -1.953374,1.15032 -1.27331,0.49196 -2.582794,0.49196 -1.6639844,0 -2.901121,-0.694532 -1.2371365,-0.701768 -1.8593222,-1.996782 -0.6221856,-1.302249 -0.6221856,-2.828774 0,-1.656751 0.6945328,-2.94453 0.6945328,-1.28778 2.0329554,-1.975078 1.0200951,-0.528134 2.5393856,-0.528134 1.975077,0 3.081989,0.831992 1.114146,0.824758 1.432474,2.286171 l -2.127007,0.397909 q -0.224276,-0.781349 -0.846462,-1.229902 -0.614951,-0.455787 -1.540994,-0.455787 -1.4035351,0 -2.2355275,0.88987 -0.8247577,0.88987 -0.8247577,2.640672 0,1.888261 0.8392271,2.836009 0.8392272,0.940513 2.1993541,0.940513 0.672828,0 1.345657,-0.26045 0.680063,-0.267684 1.164789,-0.643889 v -1.345658 z"
     id="text9"
     style="font-weight:bold;font-size:14.8167px;line-height:113.22%;font-family:Arial;-inkscape-font-specification:'Arial, Bold';text-align:center;letter-spacing:2.01877px;text-anchor:middle;fill:#000000;fill-rule:evenodd;stroke:#000000;stroke-width:0.4;stroke-linecap:round;stroke-miterlimit:3.7;fill-opacity:1"
     aria-label="G" /><path
     d="M 65.086786,52.114312 V 41.508217 h 2.141476 v 4.174431 h 4.196135 v -4.174431 h 2.141477 v 10.606095 h -2.141477 v -4.637454 h -4.196135 v 4.637454 z"
     id="text10"
     style="font-weight:bold;font-size:14.8167px;line-height:113.22%;font-family:Arial;-inkscape-font-specification:'Arial, Bold';text-align:center;letter-spacing:2.01877px;text-anchor:middle;fill:#000000;fill-rule:evenodd;stroke:#000000;stroke-width:0.4;stroke-linecap:round;stroke-miterlimit:3.7;fill-opacity:1"
     aria-label="H" /></svg>
