<svg width="50" height="50" xmlns="http://www.w3.org/2000/svg"><defs><linearGradient id="a" x1="25.557" x2="25.748" y1="-7.014" y2="54.405" gradientTransform="matrix(.72992 0 0 .83312 6.777 4.172)" gradientUnits="userSpaceOnUse"><stop stop-color="#0ff" offset="0"/><stop stop-color="#00a0a0" offset=".238"/><stop stop-color="#0ff" offset=".366"/><stop stop-color="#0ff" stop-opacity=".247" offset=".61"/><stop stop-color="#0ff" stop-opacity="0" offset="1"/></linearGradient></defs><path d="M36.67 4.818c-1.62.015-3.774 2.373-4.994 2.569-2.044.327-4.642-.735-6.798-.675-1.37.038-3.028.912-4.357.659-1.83-.349-3.52-2.957-5.568-2.387-2.291.639-.57 5.365-1.037 6.897-.512 1.686-1.605 2.919-1.879 4.774-.657 4.46.507 9.695 3.953 12.313 1.779 1.353 3.87 1.768 5.925 2.21-.502.953-.802 2.425-1.391 3.242-.804 1.113-3.17.905-4.186.402-2.71-1.341-3.108-5.312-6.623-4.838.51 1.243 1.609 1.884 2.303 2.985.706 1.12 1.045 2.491 1.798 3.577 1.667 2.405 4.287 2.505 6.705 1.992 0 1.263.463 4.104-.28 5.11a1 1 0 0 1-.471.357 20.544 23.448 0 0 0 6.321 1.177 20.544 23.448 0 0 0 6.324-1.178 1.065 1.065 0 0 1-.19-.1c-.912-.61-.55-2.758-.55-3.774 0-3.282.134-6.055-1.393-8.952 1.993-.548 3.963-.816 5.751-2.083 3.592-2.544 4.794-7.917 4.127-12.44-.278-1.882-1.587-3.23-1.93-4.973-.373-1.889 1.08-4.807-.543-6.445a1.356 1.356 0 0 0-1.017-.419zm-15.573 11.18a1.992 1.294 0 0 1 1.991 1.293 1.992 1.294 0 0 1-1.991 1.295 1.992 1.294 0 0 1-1.992-1.295 1.992 1.294 0 0 1 1.992-1.294zm9.554 0a1.992 1.294 0 0 1 1.992 1.293 1.992 1.294 0 0 1-1.992 1.295 1.992 1.294 0 0 1-1.992-1.295 1.992 1.294 0 0 1 1.992-1.294z" fill="url(#a)" fill-rule="evenodd" stroke="#fff" stroke-linecap="round" stroke-width=".756"/></svg>