<svg width="300" height="300" viewBox="0 0 79.375 79.375" xmlns="http://www.w3.org/2000/svg"><path d="M74.819 41.852A35.278 35.278 0 0139.54 77.13 35.278 35.278 0 014.263 41.852 35.278 35.278 0 0139.541 6.574a35.278 35.278 0 0135.278 35.278z" fill-rule="evenodd" stroke="#000" stroke-width=".4" stroke-linecap="round" stroke-miterlimit="3.7"/><g fill="#fff" stroke="#000" stroke-width=".4"><path d="M30.007 67.088c-2.693 0-5.75.405-8.293-.647-3.347-1.385-8.052-8.369-9.606-11.576 5.595-.749 12.395 12.573 17.98 6.359 1.101-1.227 1.771-3.155 2.538-4.613-11.83-1.593-18.535-10.364-16.445-22.264.378-2.15 1.801-3.693 2.544-5.675 1-2.666-1.247-9.604 2.57-10.519 3.083-.738 5.933 2.531 8.712 3.155 1.902.428 4.159-.468 6.111-.492 3.98-.047 9.332 1.239 13.096.513 2.532-.489 7.231-4.921 9.853-2.853 2.901 2.29.546 6.898 1.435 9.76.808 2.6 2.575 4.626 2.987 7.421 1.7 11.532-5.78 18.883-16.457 20.954 1.84 4.427 2.182 7.886 2.182 12.66 0 1.534-.574 4.62.7 5.77 1.48 1.333 4.421-.388 5.848-1.082 5.475-2.661 10.163-6.393 13.867-11.236 9.855-12.89 10.01-31.933.33-44.964-3.056-4.115-6.77-7.459-11.14-10.123-29.902-18.22-65.43 12.975-54.567 45.046 2.881 8.504 8.926 15.325 16.587 19.883 1.716 1.021 6.538 4.215 8.468 2.476 1.548-1.397.7-6.033.7-7.953z"/><path d="M36.183 36.9a5.208 2.056 0 01-5.209 2.056 5.208 2.056 0 01-5.208-2.055 5.208 2.056 0 015.208-2.056 5.208 2.056 0 015.209 2.056zm18.997 0a5.208 2.056 0 01-5.208 2.056 5.208 2.056 0 01-5.209-2.055 5.208 2.056 0 015.209-2.056A5.208 2.056 0 0155.18 36.9z" fill-rule="evenodd" stroke-linecap="round" stroke-miterlimit="3.7"/></g><path d="M10.117 48.215v-1.787h4.615v4.225q-.672.651-1.953 1.15-1.273.492-2.583.492-1.664 0-2.9-.694-1.238-.702-1.86-1.997-.622-1.302-.622-2.829 0-1.657.694-2.944.695-1.288 2.033-1.976 1.02-.528 2.54-.528 1.975 0 3.081.832 1.115.825 1.433 2.287l-2.127.397q-.224-.78-.847-1.23-.614-.455-1.54-.455-1.404 0-2.236.89-.825.89-.825 2.64 0 1.889.84 2.836.839.94 2.199.94.673 0 1.345-.26.68-.267 1.165-.644v-1.345z" style="line-height:113.22%;-inkscape-font-specification:'Arial, Bold';text-align:center" aria-label="G" font-weight="700" font-size="14.817" font-family="Arial" letter-spacing="2.019" text-anchor="middle" fill-rule="evenodd" stroke="#000" stroke-width=".4" stroke-linecap="round" stroke-miterlimit="3.7"/><path d="M65.087 52.114V41.508h2.141v4.175h4.196v-4.175h2.142v10.606h-2.142v-4.637h-4.196v4.637z" style="line-height:113.22%;-inkscape-font-specification:'Arial, Bold';text-align:center" aria-label="H" font-weight="700" font-size="14.817" font-family="Arial" letter-spacing="2.019" text-anchor="middle" fill-rule="evenodd" stroke="#000" stroke-width=".4" stroke-linecap="round" stroke-miterlimit="3.7"/></svg>