<?xml version="1.0" encoding="UTF-8" standalone="no"?>
<svg
   width="300"
   height="300"
   viewBox="0 0 79.375 79.375"
   version="1.1"
   id="svg5"
   sodipodi:docname="github-footer.svg"
   inkscape:version="1.4.2 (f4327f4, 2025-05-13)"
   xmlns:inkscape="http://www.inkscape.org/namespaces/inkscape"
   xmlns:sodipodi="http://sodipodi.sourceforge.net/DTD/sodipodi-0.dtd"
   xmlns="http://www.w3.org/2000/svg"
   xmlns:svg="http://www.w3.org/2000/svg">
  <defs
     id="defs5" />
  <sodipodi:namedview
     id="namedview5"
     pagecolor="#505050"
     bordercolor="#eeeeee"
     borderopacity="1"
     inkscape:showpageshadow="0"
     inkscape:pageopacity="0"
     inkscape:pagecheckerboard="0"
     inkscape:deskcolor="#505050"
     inkscape:zoom="1.3033333"
     inkscape:cx="154.60358"
     inkscape:cy="185.67775"
     inkscape:window-width="1920"
     inkscape:window-height="1009"
     inkscape:window-x="1912"
     inkscape:window-y="-8"
     inkscape:window-maximized="1"
     inkscape:current-layer="svg5" />
  <path
     d="m 55.845819,75.386487 c -0.265937,-0.10104 -0.512781,-0.247226 -0.733879,-0.446315 -1.632907,-1.473623 -0.896816,-5.427642 -0.896816,-7.393327 0,-6.117459 -0.438725,-10.55013 -2.797084,-16.222939 C 65.10293,48.670103 74.690676,39.250754 72.511757,24.473515 71.98369,20.89197 69.719027,18.295507 68.6834,14.963837 67.543954,11.296437 70.562327,5.3915278 66.844067,2.4570952 63.483406,-0.1928639 57.460431,5.486424 54.215124,6.1130343 49.390742,7.0433391 42.531198,5.3952554 37.429965,5.4554818 34.928054,5.4862357 32.034892,6.6343279 29.597067,6.0858838 26.035176,5.2862829 22.382116,1.0975458 18.430583,2.0432275 13.53827,3.2157191 16.418456,12.10648 15.136739,15.522723 c -0.952316,2.539758 -2.776238,4.517111 -3.260727,7.272146 -2.6787875,15.248798 5.915113,26.487749 21.077822,28.529037 -0.983077,1.868298 -1.841609,4.339059 -3.252779,5.911351 -7.158388,7.962691 -15.874445,-9.108661 -23.0456495,-8.148884 1.991788,4.109487 8.0224345,13.058915 12.3123405,14.83367 3.259405,1.348045 7.177657,0.829059 10.629321,0.829059 0,2.46031 1.087281,8.400938 -0.896816,10.19107 -0.239307,0.215572 -0.513621,0.371936 -0.815348,0.477437 a 45.216405,45.205638 0 0 0 13.931113,2.199788 45.216405,45.205638 0 0 0 14.029803,-2.23091 z M 30.836315,23.432557 a 6.6751811,2.6345822 0 0 1 6.676442,2.63352 6.6751811,2.6345822 0 0 1 0,6.62e-4 6.6751811,2.6345822 0 0 1 0,6.63e-4 6.6751811,2.6345822 0 0 1 -6.676442,2.632858 6.6751811,2.6345822 0 0 1 -6.675118,-2.632858 6.6751811,2.6345822 0 0 1 6.675118,-2.634845 z m 24.350471,0 a 6.6751811,2.6345822 0 0 1 6.675117,2.63352 6.6751811,2.6345822 0 0 1 -6.675117,2.634183 6.6751811,2.6345822 0 0 1 -6.676443,-2.632858 6.6751811,2.6345822 0 0 1 6.676443,-2.634845 z"
     style="fill:#ffb347;fill-opacity:1;fill-rule:evenodd;stroke:#f9f9f9;stroke-width:0.400001;stroke-linecap:round;stroke-miterlimit:3.7"
     id="path6" />
</svg>
