<svg width="350" height="350" viewBox="0 0 92.604 92.604" xmlns="http://www.w3.org/2000/svg"><g fill-rule="evenodd"><path d="M74.798 2.39l-57.058.034L.141 56.7l46.181 33.51 46.14-33.566z" fill="#db561b"/><path d="M42.238 70.953q-5.814 0-8.919-2.485-3.105-2.485-3.105-7.063 0-4.12 2.378-6.604 2.379-2.55 6.21-2.55 4.03 0 4.691 3.335-2.709.326-4.36 1.961-1.586 1.57-1.586 4.12 0 2.289 1.388 3.597 1.387 1.308 3.7 1.308 3.831 0 6.276-3.4 2.444-3.401 2.444-8.698 0-4.512-1.916-6.932-1.916-2.485-5.351-2.485-3.502 0-8.655 2.943l-.859-.589 5.087-24.784q7.466.85 11.1.85 6.011 0 11.495-1.83.132 1.438.132 2.157 0 3.4-1.85 5.493-1.784 2.093-5.748 2.093-1.519 0-3.633-.327t-4.03-.72q-1.652-.326-3.37-.588l-2.642 11.836q4.294-2.027 8.192-2.027 5.418 0 8.523 3.662 3.171 3.597 3.171 9.81 0 5.296-2.378 9.35-2.312 4.055-6.607 6.343-4.228 2.224-9.778 2.224z" fill="#fff" opacity=".99" aria-label="5" paint-order="stroke markers fill"/><path d="M25.03 12.4V4.759h1.126v3.138h4.42V4.759h1.126V12.4h-1.125V8.798h-4.421V12.4zm14.568 0V5.66h-2.803V4.76h6.743v.901h-2.814v6.74zm8.916 0V4.759h1.695l2.013 5.41q.279.756.406 1.131.145-.417.453-1.225l2.036-5.316h1.515V12.4h-1.085V6.004L53.075 12.4H52.06L49.6 5.895V12.4zm13.744 0V4.759h1.126v6.74h4.19v.901z" fill="#fff" opacity=".99" stroke="#fff" stroke-linecap="round" stroke-linejoin="round" stroke-width=".833" aria-label="HTML" paint-order="stroke markers fill"/></g></svg>