<?xml version="1.0" encoding="UTF-8"?>
<svg width="350" height="350" version="1.1" viewBox="0 0 92.604 92.604" xml:space="preserve" xmlns="http://www.w3.org/2000/svg"><g fill-rule="evenodd"><path d="m74.798 2.3892-57.058 0.034486-17.599 54.276 46.181 33.51 46.14-33.566z" fill="#db561b"/><path d="m42.238 70.953q-5.8139 0-8.919-2.485-3.1052-2.485-3.1052-7.0625 0-4.1198 2.3784-6.6047 2.3784-2.5504 6.2102-2.5504 4.03 0 4.6907 3.3351-2.7087 0.32696-4.3604 1.9618-1.5856 1.5694-1.5856 4.1198 0 2.2887 1.3874 3.5966 1.3874 1.3079 3.6998 1.3079 3.8318 0 6.2763-3.4005 2.4445-3.4005 2.4445-8.6973 0-4.5121-1.916-6.9317-1.916-2.485-5.3514-2.485-3.5015 0-8.6549 2.9427l-0.85885-0.58854 5.0871-24.784q7.4655 0.85011 11.099 0.85011 6.0121 0 11.496-1.8311 0.13213 1.4387 0.13213 2.158 0 3.4005-1.8499 5.4931-1.7838 2.0926-5.7478 2.0926-1.5195 0-3.6337-0.32696-2.1141-0.32697-4.0301-0.71932-1.6516-0.32696-3.3694-0.58854l-2.6426 11.836q4.2943-2.0272 8.1925-2.0272 5.4175 0 8.5229 3.662 3.1712 3.5966 3.1712 9.8093 0 5.2968-2.3784 9.351-2.3123 4.0544-6.6067 6.3432-4.2283 2.2234-9.7782 2.2234z" fill="#fff" opacity=".99" stroke-linecap="round" stroke-linejoin="round" stroke-width="4.244" style="paint-order:stroke markers fill" aria-label="5"/><path d="m25.03 12.4v-7.6414h1.1256v3.1379h4.4213v-3.1379h1.1256v7.6414h-1.1256v-3.6018h-4.4213v3.6018zm14.568 0v-6.7397h-2.8025v-0.90175h6.7422v0.90175h-2.8141v6.7397zm8.9165 0v-7.6414h1.6942l2.0134 5.4105q0.2785 0.7558 0.40616 1.1311 0.14504-0.41699 0.45256-1.2249l2.0366-5.3167h1.5144v7.6414h-1.085v-6.3956l-2.4717 6.3956h-1.0154l-2.4601-6.5051v6.5051zm13.744 0v-7.6414h1.1256v6.7397h4.1892v0.90175z" fill="#fff" opacity=".99" stroke="#fff" stroke-linecap="round" stroke-linejoin="round" stroke-width=".8326" style="paint-order:stroke markers fill" aria-label="HTML"/></g></svg>
