<svg version="1.0" width="390" height="390" xmlns="http://www.w3.org/2000/svg"><path d="M159.312 18.452L16.482 163.578c-48.26 59.34 32.842 52.436 67.608 69.528 12.472 12.658-47.801 22-35.33 34.669 12.471 12.658 75.413 24.386 87.906 37.044 12.47 12.658-25.528 26.086-13.057 38.744 12.472 12.658 41.316.665 46.718 29.886 3.848 20.882 51.98 8.974 75.519-8.128 12.471-12.669-23.858-11.476-11.387-24.133 31.013-31.492 59.89-11.444 70.5-42.999 5.242-15.592-45.653-24.038-33.16-36.695 35.883-20.808 159.905-34.353 101.057-92.785L224.805 18.452c-18.106-17.26-48.323-17.45-65.493 0zM323.374 298.19c0 7.2 53.426 11.92 53.426-1.7-7.612-21.873-47.11-20.395-53.426 1.7zM82.708 336.448c12.652 10.863 32.194-2.703 38.052-17.863-12.259-16.173-58.146.58-38.052 17.863zm233.968-23.468c-16.31 14.526 1.829 29.263 17.905 19.878 3.583-3.61-.096-16.268-17.905-19.878z" fill="#fff"/><path fill="#fff" d="M125.13 240.96c3.817 2.355 61.549 13.999 75.657 16.321 4.891 1.024 1.425 6.028-5.316 9.407-15.204 4.011-88.947-25.728-70.341-25.728zm91.042-212.33l56.509 56.986c5.359 5.436 5.284 15.972 2.286 19.002l-28.058-22.286-5.518 33.001-23.444-12.288-37.541 23.552-12.43-49.649-20.168 34.648h-30.833c-12.567 0-14.045-15.835-2.626-27.173 19.946-21.378 42.836-43.168 55.276-55.794 12.503-12.69 34.288-12.33 46.547 0z"/><path d="M316.547 313.554c-15.34 13.76 1.72 27.72 16.84 18.83 3.37-3.42-.09-15.41-16.84-18.83zM83.719 335.24c11.9 10.29 30.28-2.56 35.79-16.92-11.53-15.32-54.69.55-35.79 16.92zm241.149-37.38c0 6.82 50.25 11.29 50.25-1.61-7.16-20.72-44.31-19.32-50.25 1.61z"/><path d="M163.15 27.83L28.81 165.3c-45.39 56.21 30.89 49.67 63.59 65.86C104.13 243.15 47.44 252 59.17 264c11.73 11.99 70.93 23.1 82.68 35.09 11.73 11.99-24.01 24.71-12.28 36.7 11.73 11.99 38.86.63 43.94 28.31 3.62 19.78 48.89 8.5 71.03-7.7 11.73-12-22.44-10.87-10.71-22.86 29.17-29.83 56.33-10.84 66.31-40.73 4.93-14.77-42.94-22.77-31.19-34.76 33.75-19.71 150.4-32.54 95.05-87.89L224.75 27.83c-17.03-16.35-45.45-16.53-61.6 0z"/><path fill="#fff" d="M131 238.6c3.59 2.23 57.89 13.26 71.16 15.46 4.6.97 1.34 5.71-5 8.91-14.3 3.8-83.66-24.37-66.16-24.37zm85.63-201.13l53.15 53.98c5.04 5.15 4.97 15.13 2.15 18l-26.39-21.11-5.19 31.26-22.05-11.64-35.31 22.31-11.69-47.03-18.97 32.82h-29c-11.82 0-13.21-15-2.47-25.74 18.76-20.25 40.29-40.89 51.99-52.85 11.76-12.02 32.25-11.68 43.78 0z"/></svg>