<?xml version="1.0" encoding="UTF-8" standalone="no"?>
<svg
   version="1.0"
   width="390"
   height="390"
   id="svg3"
   sodipodi:docname="Inkscape.svg"
   inkscape:version="1.3.2 (091e20e, 2023-11-25, custom)"
   xmlns:inkscape="http://www.inkscape.org/namespaces/inkscape"
   xmlns:sodipodi="http://sodipodi.sourceforge.net/DTD/sodipodi-0.dtd"
   xmlns="http://www.w3.org/2000/svg"
   xmlns:svg="http://www.w3.org/2000/svg">
  <defs
     id="defs3" />
  <sodipodi:namedview
     id="namedview3"
     pagecolor="#505050"
     bordercolor="#eeeeee"
     borderopacity="1"
     inkscape:showpageshadow="0"
     inkscape:pageopacity="0"
     inkscape:pagecheckerboard="0"
     inkscape:deskcolor="#505050"
     showgrid="false"
     inkscape:zoom="0.74246212"
     inkscape:cx="12.121831"
     inkscape:cy="255.23188"
     inkscape:window-width="1920"
     inkscape:window-height="1017"
     inkscape:window-x="1912"
     inkscape:window-y="-8"
     inkscape:window-maximized="1"
     inkscape:current-layer="svg3" />
  <path
     d="M 159.31175,18.452481 16.48121,163.57824 c -48.258735,59.34036 32.842306,52.43614 67.609009,69.52777 12.471358,12.65773 -47.801558,22.00059 -35.3302,34.66887 12.471359,12.65773 75.412911,24.38645 87.905531,37.04418 12.47136,12.65773 -25.52748,26.08611 -13.05612,38.74384 12.47136,12.65772 41.31603,0.66508 46.71709,29.88659 3.8488,20.88156 51.97995,8.97337 75.51924,-8.12881 12.47135,-12.66829 -23.85826,-11.47536 -11.3869,-24.13309 31.0136,-31.49124 59.89017,-11.44368 70.50092,-42.99827 5.24159,-15.59254 -45.65389,-24.03807 -33.16127,-36.6958 35.88307,-20.80765 159.90557,-34.35216 101.05734,-92.78462 L 224.80499,18.452481 c -18.10633,-17.2605382 -48.32253,-17.4505625 -65.49324,0 z M 323.37444,298.18932 c 0,7.19981 53.42589,11.91875 53.42589,-1.69966 -7.61252,-21.8739 -47.11047,-20.39594 -53.42589,1.69966 z M 82.708056,336.44754 c 12.652103,10.86306 32.193754,-2.70256 38.051994,-17.86228 -12.25872,-16.17318 -58.14651,0.58063 -38.051994,17.86228 z M 316.67627,312.97955 c -16.30952,14.5263 1.8287,29.26373 17.90432,19.87865 3.58299,-3.61047 -0.0957,-16.26819 -17.90432,-19.87865 z"
     id="path1-5"
     style="fill:#ffffff;stroke-width:1.05944" />
  <path
     fill="#ffffff"
     d="m 125.12981,240.96035 c 3.8169,2.35419 61.54876,13.99845 75.65745,16.32097 4.89073,1.02402 1.42469,6.02799 -5.31601,9.4062 -15.20379,4.01163 -88.94747,-25.72717 -70.34144,-25.72717 z"
     id="path2-0"
     style="fill:#ffffff;stroke-width:1.05944" />
  <path
     fill="#ffffff"
     d="m 216.17179,28.629336 56.50918,56.986168 c 5.35854,5.436806 5.28412,15.972596 2.28589,19.002426 l -28.0579,-22.285623 -5.51802,33.000883 -23.4436,-12.28824 -37.54166,23.55246 -12.42883,-49.649124 -20.16894,34.647754 h -30.83286 c -12.56704,0 -14.04489,-15.835351 -2.62611,-27.173466 19.94567,-21.377731 42.83641,-43.167181 55.27587,-55.793238 12.50326,-12.689398 34.28826,-12.330464 46.54698,0 z"
     id="path3-3"
     style="fill:#ffffff;stroke-width:1.05944" />
  <path
     d="m 316.54748,313.55435 c -15.34,13.76 1.72,27.72 16.84,18.83 3.37,-3.42 -0.09,-15.41 -16.84,-18.83 z"
     id="path6" />
  <path
     d="m 83.719048,335.24048 c 11.9,10.29 30.280002,-2.56 35.790002,-16.92 -11.53,-15.32 -54.690002,0.55 -35.790002,16.92 z"
     id="path5" />
  <path
     d="m 324.86779,297.86076 c 0,6.82 50.25,11.29 50.25,-1.61 -7.16,-20.72 -44.31,-19.32 -50.25,1.61 z"
     id="path4" />
  <path
     d="M 163.15,27.83 28.81,165.3 C -16.58,221.51 59.7,214.97 92.4,231.16 104.13,243.15 47.44,252 59.17,264 c 11.73,11.99 70.93,23.1 82.68,35.09 11.73,11.99 -24.01,24.71 -12.28,36.7 11.73,11.99 38.86,0.63 43.94,28.31 3.62,19.78 48.89,8.5 71.03,-7.7 11.73,-12 -22.44,-10.87 -10.71,-22.86 29.17,-29.83 56.33,-10.84 66.31,-40.73 4.93,-14.77 -42.94,-22.77 -31.19,-34.76 33.75,-19.71 150.4,-32.54 95.05,-87.89 L 224.75,27.83 c -17.03,-16.35 -45.45,-16.53 -61.6,0 z"
     id="path1" />
  <path
     fill="#ffffff"
     d="m 131,238.6 c 3.59,2.23 57.89,13.26 71.16,15.46 4.6,0.97 1.34,5.71 -5,8.91 -14.3,3.8 -83.66,-24.37 -66.16,-24.37 z"
     id="path2" />
  <path
     fill="#ffffff"
     d="m 216.63,37.47 53.15,53.98 c 5.04,5.15 4.97,15.13 2.15,18 L 245.54,88.34 240.35,119.6 218.3,107.96 182.99,130.27 171.3,83.24 152.33,116.06 h -29 c -11.82,0 -13.21,-15 -2.47,-25.74 18.76,-20.25 40.29,-40.89 51.99,-52.85 11.76,-12.02 32.25,-11.68 43.78,0 z"
     id="path3" />
</svg>
