<?xml version="1.0" encoding="UTF-8"?>
<svg width="300" height="300" version="1.1" viewBox="0 0 79.375 79.375" xml:space="preserve" xmlns="http://www.w3.org/2000/svg"><defs><filter id="prefix__a" x="-.016258" y="-.013292" width="1.0325" height="1.0258" color-interpolation-filters="sRGB"><feGaussianBlur stdDeviation=".022"/></filter></defs><g transform="matrix(10.75 0 0 11.963 -2151.3 -1831)" fill-rule="evenodd" stroke-linecap="round" stroke-linejoin="round"><path transform="matrix(.26458 0 0 .26458 195.36 147.21)" d="m21.919 41.846 0.062-19.515 20.1 0.134-0.193 19.598-10.283 4.879z" fill="#f7e018" filter="url(#prefix__a)" opacity=".99" stroke="#f6f9ff" stroke-dasharray="1.1, 0.55, 0.275, 0.55" stroke-dashoffset="2.585" stroke-width=".55" paint-order="stroke markers fill"/><path d="m201.33 153.16h0.0799v0.43857q0 0.0861-8e-3 0.13236-0.0117 0.0605-0.0422 0.0973-0.0305 0.0363-0.0806 0.0363-0.0588 0-0.0903-0.0572-0.0317-0.0577-0.0319-0.1687l0.0755-0.0149q9.5e-4 0.0595 0.0104 0.0841 0.013 0.0374 0.0396 0.0374 0.0268 0 0.0378-0.0264 0.011-0.0269 0.011-0.11105zm0.47968 0.34405-0.069-0.0218q0.0117-0.0727 0.04-0.10774 0.0284-0.035 0.0844-0.035 0.0509 0 0.0758 0.0213 0.0249 0.0208 0.0349 0.0534 0.0104 0.0322 0.0104 0.11865l-8e-4 0.155q0 0.0661 4e-3 0.0978 4e-3 0.0312 0.0139 0.0671h-0.0752q-3e-3 -0.0132-7e-3 -0.0392-2e-3 -0.0116-3e-3 -0.0149-0.0195 0.0331-0.0417 0.0496-0.0221 0.0165-0.0473 0.0165-0.0444 0-0.0701-0.0421-0.0254-0.042-0.0254-0.10626 0-0.0425 0.0117-0.0757 0.0117-0.0335 0.0325-0.0511 0.0212-0.018 0.0606-0.0312 0.0533-0.0175 0.074-0.0325v-0.0132q0-0.0383-0.0108-0.0544-0.0107-0.0165-0.0408-0.0165-0.0203 0-0.0317 0.0149-0.0114 0.0132-0.0183 0.0488zm0.10177 0.10774q-0.0146 8e-3 -0.0462 0.0203-0.0317 0.0116-0.0415 0.0231-0.0149 0.0183-0.0149 0.0468 0 0.0279 0.0119 0.0482t0.0303 0.0203q0.0205 0 0.0393-0.0236 0.0139-0.018 0.0181-0.0439 3e-3 -0.017 3e-3 -0.0648zm0.48698 0.24103-0.11582-0.50189h0.0799l0.0542 0.25613 0.0157 0.0856q6e-3 -0.0325 7e-3 -0.043 4e-3 -0.0213 8e-3 -0.0425l0.0547-0.25614h0.0782l-0.1142 0.5019zm0.54435-0.34877-0.069-0.0218q0.0117-0.0727 0.04-0.10774 0.0284-0.035 0.0844-0.035 0.0509 0 0.0758 0.0213 0.0249 0.0208 0.0349 0.0534 0.0104 0.0322 0.0104 0.11865l-8.2e-4 0.155q0 0.0661 4e-3 0.0978 4e-3 0.0312 0.0139 0.0671h-0.0752q-3e-3 -0.0132-7e-3 -0.0392-2e-3 -0.0116-3e-3 -0.0149-0.0195 0.0331-0.0417 0.0496-0.0221 0.0165-0.0473 0.0165-0.0444 0-0.0701-0.0421-0.0254-0.042-0.0254-0.10626 0-0.0425 0.0117-0.0757 0.0117-0.0335 0.0325-0.0511 0.0211-0.018 0.0606-0.0312 0.0533-0.0175 0.074-0.0325v-0.0132q0-0.0383-0.0108-0.0544-0.0108-0.0165-0.0408-0.0165-0.0202 0-0.0317 0.0149-0.0114 0.0132-0.0183 0.0488zm0.10177 0.10774q-0.0146 8e-3 -0.0463 0.0203-0.0317 0.0116-0.0415 0.0231-0.0149 0.0183-0.0149 0.0468 0 0.0279 0.0119 0.0482t0.0303 0.0203q0.0205 0 0.0393-0.0236 0.0138-0.018 0.0181-0.0439 3e-3 -0.017 3e-3 -0.0648zm0.38117 0.0978 0.0763-0.0203q5e-3 0.0387 0.0198 0.059 0.0149 0.0198 0.0417 0.0198 0.0295 0 0.0444-0.0188 0.0104-0.0132 0.0104-0.0354 0-0.0149-5e-3 -0.0251-5e-3 -0.01-0.0254-0.0175-0.092-0.0354-0.11663-0.0648-0.0341-0.0406-0.0341-0.11303 0-0.0653 0.0295-0.10956 0.0295-0.0444 0.0915-0.0444 0.0591 0 0.0877 0.0335t0.0396 0.0993l-0.0717 0.0231q-5e-3 -0.0293-0.0176-0.045-0.0127-0.0149-0.0366-0.0149-0.03 0-0.043 0.0149-8e-3 0.01-8e-3 0.0269 0 0.0149 7e-3 0.0241 0.0104 0.0132 0.0708 0.0373 0.0608 0.0241 0.085 0.0592 0.0239 0.0354 0.0239 0.0988 0 0.0691-0.033 0.11865-0.033 0.0496-0.0977 0.0496-0.0588 0-0.0931-0.0417-0.0341-0.0416-0.0447-0.11286zm0.84392-0.2103-0.075 0.0236q-4e-3 -0.0392-0.0173-0.0592-0.0132-0.0198-0.0346-0.0198-0.0283 0-0.0454 0.0345-0.0168 0.034-0.0168 0.11435 0 0.0894 0.017 0.12625 0.0173 0.0368 0.0462 0.0368 0.0217 0 0.0355-0.0213 0.0138-0.0216 0.0195-0.0742l0.0747 0.0221q-0.0117 0.0897-0.0447 0.13567-0.033 0.0458-0.0884 0.0458-0.063 0-0.10063-0.0694-0.0374-0.0694-0.0374-0.19235 0-0.12427 0.0376-0.19328 0.0376-0.0694 0.10177-0.0694 0.0525 0 0.0833 0.0397 0.0311 0.0392 0.0447 0.11997zm0.38875 0.3535h-0.076v-0.50189h0.0706v0.0714q0.0181-0.0506 0.0324-0.0666 0.0146-0.0165 0.033-0.0165 0.026 0 0.05 0.0251l-0.0235 0.11584q-0.0192-0.0218-0.0357-0.0218-0.0159 0-0.0271 0.0149-0.011 0.0149-0.0176 0.0554-6e-3 0.0401-6e-3 0.16824zm0.40119-0.56994v-0.12295h0.0761v0.12295zm0 0.56994v-0.50189h0.0761v0.50189zm0.41014-0.50189h0.0708v0.0737q0.0138-0.0378 0.0374-0.0615 0.0235-0.0236 0.0522-0.0236 0.0501 0 0.085 0.0686t0.0349 0.19093q0 0.12576-0.0352 0.19566-0.0352 0.0694-0.0852 0.0694-0.0239 0-0.0433-0.0165-0.0192-0.0165-0.0406-0.0567v0.25285h-0.076zm0.0752 0.24243q0 0.0846 0.0192 0.12526 0.0192 0.0402 0.0469 0.0402 0.0265 0 0.0441-0.0369 0.0176-0.0374 0.0176-0.12196 0-0.079-0.0181-0.11716-0.0181-0.0383-0.045-0.0383-0.0279 0-0.0462 0.0378-0.0183 0.0373-0.0183 0.11104zm0.65557-0.24243v0.10592h-0.052v0.20227q0 0.0615 9.5e-4 0.0719 2e-3 0.01 6e-3 0.0165 5e-3 7e-3 0.0129 7e-3 0.0105 0 0.0305-0.0132l6e-3 0.10295q-0.0265 0.0198-0.0601 0.0198-0.0205 0-0.0371-0.0116-0.0165-0.0116-0.0243-0.0312-7e-3 -0.0193-0.0105-0.0521-3e-3 -0.0231-3e-3 -0.0935v-0.21881h-0.0349v-0.10592h0.0349v-0.0996l0.0763-0.0775v0.17721z" opacity=".99" stroke-width=".016228" style="paint-order:stroke markers fill" aria-label="Javascript"/><g transform="matrix(.26458 0 0 .26458 195.36 147.21)" fill="#020504" font-family="Arial" font-size="10.667px" font-weight="700" paint-order="stroke markers fill"><path transform="matrix(1.3023,0,0,1.3023,-7.985,-14.07)" d="m31.191 38.688 1.5-0.14584q0.13542 0.75523 0.54689 1.1094 0.41668 0.35418 1.1198 0.35418 0.74482 0 1.1198-0.31251 0.38022-0.31772 0.38022-0.73961 0-0.27084-0.16146-0.45835-0.15626-0.19271-0.5521-0.33334-0.27084-0.09375-1.2344-0.33334-1.2396-0.3073-1.7396-0.75523-0.70315-0.63023-0.70315-1.5365 0-0.58335 0.32814-1.0886 0.33334-0.51043 0.95316-0.77607 0.62502-0.26563 1.5053-0.26563 1.4375 0 2.1615 0.63023 0.72919 0.63023 0.76565 1.6823l-1.5417 0.06771q-0.09896-0.58856-0.4271-0.84378-0.32293-0.26042-0.97399-0.26042-0.6719 0-1.0521 0.27605-0.2448 0.17709-0.2448 0.47397 0 0.27084 0.22917 0.46356 0.29168 0.2448 1.4167 0.51043t1.6615 0.5521q0.54168 0.28126 0.84378 0.77607 0.3073 0.4896 0.3073 1.2136 0 0.65627-0.3646 1.2292-0.3646 0.57294-1.0313 0.85419-0.66669 0.27605-1.6615 0.27605-1.448 0-2.224-0.66669-0.77607-0.6719-0.92711-1.9532z" opacity=".99" stroke-width="1.463" aria-label="S"/><path transform="matrix(1.3023,0,0,1.3023,-7.985,-14.07)" d="m27.356 33.473h1.5365v4.8335q0 0.94795-0.16667 1.4584-0.22397 0.66669-0.81253 1.073-0.58856 0.40106-1.5521 0.40106-1.1302 0-1.7396-0.63023-0.60939-0.63544-0.6146-1.8594l1.4532-0.16667q0.02604 0.65627 0.19271 0.92711 0.25001 0.41147 0.76044 0.41147 0.51564 0 0.72919-0.29168 0.21355-0.29688 0.21355-1.224z" opacity=".99" stroke-dasharray="1.1, 0.55, 0.275, 0.55" stroke-dashoffset="2.585" stroke-width=".55" aria-label="J"/></g></g></svg>
