<?xml version="1.0" encoding="UTF-8"?>
<svg width="350" height="350" version="1.1" viewBox="0 0 92.604 92.604" xml:space="preserve" xmlns="http://www.w3.org/2000/svg"><g fill-rule="evenodd"><path d="m74.799 2.3918-57.058 0.03449-17.599 54.276 46.181 33.51 46.14-33.566z" fill="#f6df19"/><path d="m18.082 9.4333 0.84462-0.13756q0.0338 0.9629 0.30406 1.3183 0.27028 0.35536 0.74809 0.35536 0.35233 0 0.60812-0.18914 0.25581-0.19487 0.35233-0.52157 0.0965-0.33243 0.0965-1.0546v-5.7888h0.93632v5.7258q0 1.0546-0.21719 1.6335-0.21236 0.57888-0.68052 0.88266-0.46333 0.30377-1.0908 0.30377-0.93148 0-1.4286-0.6362-0.49229-0.6362-0.47298-1.8914zm9.7617 1.6335q-0.48264 0.48718-0.93149 0.68778-0.44403 0.2006-0.95563 0.2006-0.84462 0-1.2983-0.48718-0.45369-0.49291-0.45369-1.2552 0-0.44706 0.16893-0.81388 0.17375-0.37255 0.44885-0.59608 0.27994-0.22353 0.62743-0.33816 0.25581-0.08024 0.77222-0.15475 1.0522-0.14902 1.5493-0.35535 5e-3 -0.21207 5e-3 -0.26938 0-0.63047-0.24615-0.88839-0.33301-0.34962-0.9894-0.34962-0.61296 0-0.90736 0.25792-0.28959 0.25219-0.42955 0.89985l-0.84944-0.13756q0.11583-0.64766 0.38128-1.0431 0.26546-0.40121 0.7674-0.61327 0.50194-0.2178 1.1632-0.2178 0.6564 0 1.0666 0.18341 0.41024 0.18341 0.6033 0.46425 0.19306 0.27511 0.27028 0.69925 0.0434 0.26365 0.0434 0.95143v1.3756q0 1.4386 0.0531 1.8226 0.0579 0.37828 0.22202 0.7279h-0.90736q-0.13515-0.32097-0.17376-0.75083zm-0.0724-2.3041q-0.47299 0.22926-1.419 0.38974-0.53573 0.0917-0.75774 0.20634-0.22202 0.11463-0.34268 0.33816-0.12066 0.2178-0.12066 0.48718 0 0.41267 0.26063 0.68778 0.26545 0.27511 0.77222 0.27511 0.50194 0 0.89288-0.25792 0.39094-0.26365 0.57434-0.71644 0.13997-0.34962 0.13997-1.0317zm4.7568 3.0549-1.9499-6.0869h0.91702l1.1004 3.6453q0.17858 0.59035 0.3282 1.2265 0.11583-0.48145 0.32337-1.1578l1.139-3.714h0.89289l-1.9402 6.0869zm7.9712-0.75083q-0.48264 0.48718-0.9315 0.68778-0.44403 0.2006-0.95562 0.2006-0.84462 0-1.2983-0.48718-0.45368-0.49291-0.45368-1.2552 0-0.44706 0.16892-0.81388 0.17375-0.37255 0.44886-0.59608 0.27993-0.22353 0.62743-0.33816 0.2558-0.08024 0.77222-0.15475 1.0522-0.14902 1.5493-0.35535 5e-3 -0.21207 5e-3 -0.26938 0-0.63047-0.24614-0.88839-0.33302-0.34962-0.98941-0.34962-0.61295 0-0.90736 0.25792-0.28958 0.25219-0.42955 0.89985l-0.84944-0.13756q0.11583-0.64766 0.38129-1.0431 0.26545-0.40121 0.76739-0.61327 0.50194-0.2178 1.1632-0.2178 0.6564 0 1.0666 0.18341t0.6033 0.46425q0.19305 0.27511 0.27027 0.69925 0.0434 0.26365 0.0434 0.95143v1.3756q0 1.4386 0.0531 1.8226 0.0579 0.37828 0.22201 0.7279h-0.90736q-0.13514-0.32097-0.17374-0.75083zm-0.0724-2.3041q-0.473 0.22926-1.419 0.38974-0.53573 0.0917-0.75775 0.20634-0.22202 0.11463-0.34267 0.33816-0.12066 0.2178-0.12066 0.48718 0 0.41267 0.26062 0.68778 0.26545 0.27511 0.77222 0.27511 0.50194 0 0.89289-0.25792 0.39094-0.26365 0.57434-0.71644 0.13997-0.34962 0.13997-1.0317zm2.9855 1.238 0.85909-0.16048q0.0724 0.61327 0.40059 0.93997 0.33302 0.3267 0.92667 0.3267 0.59847 0 0.88805-0.28658 0.28959-0.29231 0.28959-0.68205 0-0.34962-0.2558-0.55023-0.17858-0.13756-0.88806-0.34962-0.95562-0.28658-1.3272-0.49291-0.36681-0.21207-0.55986-0.57888-0.18824-0.37255-0.18824-0.81961 0-0.40694 0.15445-0.75083 0.15927-0.34962 0.42955-0.57888 0.20271-0.17768 0.55021-0.29804 0.35233-0.12609 0.75292-0.12609 0.60329 0 1.057 0.20634 0.45851 0.20634 0.6757 0.56169 0.21718 0.34962 0.29924 0.93997l-0.84945 0.13756q-0.0579-0.46998-0.33785-0.73364-0.2751-0.26365-0.78187-0.26365-0.59848 0-0.85427 0.23499-0.2558 0.23499-0.2558 0.55023 0 0.2006 0.10618 0.36109 0.10618 0.16622 0.33302 0.27511 0.13031 0.05731 0.76739 0.26365 0.92184 0.29231 1.2838 0.48145 0.36681 0.18341 0.57435 0.53876 0.20753 0.35536 0.20753 0.88266 0 0.51584-0.2558 0.97436-0.25097 0.45279-0.72879 0.70498-0.47781 0.24646-1.0811 0.24646-0.99906 0-1.5251-0.49291-0.52125-0.49291-0.66603-1.4615zm9.7424-0.41267 0.85427 0.13182q-0.13997 1.0489-0.71913 1.6449-0.57434 0.59035-1.4141 0.59035-1.0522 0-1.6941-0.81388-0.63709-0.81961-0.63709-2.3442 0-0.98582 0.27511-1.7252t0.83496-1.1062q0.56469-0.37255 1.2259-0.37255 0.83496 0 1.3659 0.50437 0.5309 0.49864 0.68053 1.4214l-0.84463 0.15475q-0.12066-0.61327-0.42955-0.92278-0.30406-0.3095-0.73843-0.3095-0.65639 0-1.0666 0.56169-0.41025 0.55596-0.41025 1.7653 0 1.2265 0.39577 1.7825 0.39576 0.55596 1.0328 0.55596 0.5116 0 0.85428-0.37255 0.34267-0.37255 0.43437-1.1463zm2.6959 2.2296v-6.0869h0.78188v0.92278q0.29923-0.64766 0.5502-0.854 0.25581-0.20634 0.55987-0.20634 0.43919 0 0.89288 0.33243l-0.29924 0.95717q-0.31854-0.22353-0.63708-0.22353-0.28476 0-0.5116 0.20634-0.22684 0.2006-0.32337 0.56169-0.14479 0.55023-0.14479 1.2036v3.1867zm4.4141-7.216v-1.1864h0.86875v1.1864zm0 7.216v-6.0869h0.86875v6.0869zm3.2992 2.3327v-8.4196h0.79152v0.79095q0.27993-0.46426 0.63226-0.69352 0.35232-0.23499 0.85427-0.23499 0.65639 0 1.1583 0.40121 0.50195 0.40121 0.75774 1.1348 0.25581 0.7279 0.25581 1.5991 0 0.93424-0.28476 1.6851-0.27994 0.7451-0.82049 1.1463-0.53573 0.39548-1.1294 0.39548-0.43438 0-0.78187-0.2178-0.34268-0.2178-0.5647-0.55023v2.9632zm0.7867-5.3418q0 1.175 0.40059 1.7367 0.40059 0.56169 0.97011 0.56169 0.57916 0 0.9894-0.57888 0.41507-0.58462 0.41507-1.8054 0-1.1635-0.40541-1.7424-0.40059-0.57888-0.96046-0.57888-0.55503 0-0.98458 0.619-0.42472 0.61327-0.42472 1.7882zm7.7154 2.0863 0.12549 0.91131q-0.36681 0.0917-0.65639 0.0917-0.47298 0-0.73361-0.17768-0.26062-0.17768-0.36681-0.46425-0.10618-0.29231-0.10618-1.2208v-3.502h-0.63708v-0.80241h0.63708v-1.5074l0.86392-0.61901v2.1264h0.87358v0.80241h-0.87358v3.5593q0 0.44133 0.0434 0.56742 0.0483 0.12609 0.14962 0.2006 0.10618 0.07451 0.29924 0.07451 0.14478 0 0.38128-0.04012z" opacity=".99" stroke="#000" stroke-linecap="round" stroke-linejoin="round" stroke-width=".40852" style="paint-order:stroke markers fill" aria-label="Javascript"/><path d="m32.831 30.989h6.1586v19.374q0 3.7996-0.66805 5.8455-0.89771 2.6722-3.2568 4.3006-2.3591 1.6075-6.2213 1.6075-4.5303 0-6.9728-2.5261-2.4426-2.547-2.4635-7.453l5.8246-0.66806q0.10438 2.6305 0.77244 3.7161 1.0021 1.6493 3.048 1.6493 2.0668 0 2.9228-1.1691 0.85595-1.19 0.85595-4.906zm16.995 20.647 6.0125-0.58455q0.5428 3.0271 2.1921 4.4467 1.6701 1.4196 4.4885 1.4196 2.9854 0 4.4885-1.2526 1.524-1.2735 1.524-2.9645 0-1.0856-0.64718-1.8372-0.6263-0.77244-2.2129-1.3361-1.0856-0.37578-4.9478-1.3361-4.9687-1.2317-6.9728-3.0271-2.8184-2.5261-2.8184-6.1586 0-2.3382 1.3152-4.3632 1.3361-2.0459 3.8204-3.1106 2.5052-1.0647 6.0334-1.0647 5.762 0 8.6638 2.5261 2.9228 2.5261 3.0689 6.7432l-6.1795 0.2714q-0.39665-2.3591-1.7119-3.382-1.2944-1.0438-3.904-1.0438-2.6931 0-4.2171 1.1065-0.98121 0.70981-0.98121 1.8998 0 1.0856 0.91858 1.858 1.1691 0.98121 5.6785 2.0459 4.5094 1.0647 6.6597 2.2129 2.1712 1.1273 3.382 3.1106 1.2317 1.9624 1.2317 4.8643 0 2.6305-1.4614 4.9269-1.4614 2.2964-4.1336 3.4238-2.6722 1.1065-6.6597 1.1065-5.8037 0-8.9144-2.6722-3.1106-2.6931-3.7161-7.8288z" fill="#040704" stroke-miterlimit="3.7" stroke-width="0" aria-label="JS"/></g></svg>
