<svg width="350" height="350" viewBox="0 0 92.604 92.604" xmlns="http://www.w3.org/2000/svg"><g fill-rule="evenodd"><path d="M74.799 2.392l-57.058.034L.142 56.702l46.181 33.51 46.14-33.566z" fill="#f6df19"/><path d="M18.082 9.433l.845-.137q.033.963.304 1.318.27.355.748.355.352 0 .608-.189.256-.195.352-.521.097-.333.097-1.055V3.415h.936v5.726q0 1.055-.217 1.634-.213.578-.68.882-.464.304-1.091.304-.932 0-1.43-.636-.491-.636-.472-1.892zm9.762 1.634q-.483.487-.932.688-.444.2-.955.2-.845 0-1.299-.487-.453-.493-.453-1.255 0-.447.169-.814.173-.373.448-.596.28-.224.628-.338.256-.08.772-.155 1.052-.15 1.55-.355l.004-.27q0-.63-.246-.888-.333-.35-.99-.35-.612 0-.907.258-.29.252-.43.9l-.849-.138q.116-.647.382-1.043.265-.4.767-.613.502-.218 1.163-.218.657 0 1.067.184.41.183.603.464.193.275.27.7.044.263.044.95v1.376q0 1.439.053 1.823.058.378.222.728h-.907q-.136-.321-.174-.751zm-.073-2.304q-.473.229-1.419.39-.535.091-.757.206-.222.114-.343.338-.12.218-.12.487 0 .413.26.688.265.275.772.275.502 0 .893-.258.39-.264.574-.716.14-.35.14-1.032zm4.757 3.055l-1.95-6.087h.917l1.1 3.645q.18.59.329 1.226.116-.481.323-1.157l1.14-3.714h.892l-1.94 6.087zm7.971-.751q-.482.487-.931.688-.444.2-.956.2-.844 0-1.298-.487-.454-.493-.454-1.255 0-.447.17-.814.173-.373.448-.596.28-.224.627-.338.256-.08.773-.155 1.052-.15 1.549-.355.005-.213.005-.27 0-.63-.246-.888-.333-.35-.99-.35-.613 0-.907.258-.29.252-.43.9l-.849-.138q.116-.647.381-1.043.266-.4.768-.613.502-.218 1.163-.218.656 0 1.067.184t.603.464q.193.275.27.7.043.263.043.95v1.376q0 1.439.054 1.823.057.378.222.728h-.908q-.135-.321-.174-.751zm-.072-2.304q-.473.229-1.42.39-.535.091-.757.206-.222.114-.343.338-.12.218-.12.487 0 .413.26.688.266.275.773.275.502 0 .893-.258.39-.264.574-.716.14-.35.14-1.032zM43.412 10l.86-.16q.072.612.4.94.333.326.927.326.598 0 .888-.287.29-.292.29-.682 0-.35-.256-.55-.179-.138-.888-.35-.956-.286-1.328-.493-.366-.212-.56-.578-.188-.373-.188-.82 0-.407.155-.75.159-.35.43-.58.202-.177.55-.298.352-.126.752-.126.604 0 1.057.206.459.207.676.562.217.35.3.94l-.85.138q-.058-.47-.338-.734-.275-.264-.782-.264-.598 0-.854.235t-.256.55q0 .201.106.362.106.166.333.275.13.057.768.263.921.293 1.283.482.367.183.575.539.207.355.207.882 0 .516-.255.975-.251.452-.73.705-.477.246-1.08.246-1 0-1.525-.493-.522-.493-.666-1.461zm9.743-.413l.854.132q-.14 1.049-.72 1.645-.573.59-1.413.59-1.052 0-1.694-.814-.637-.82-.637-2.344 0-.986.275-1.725t.835-1.106q.564-.373 1.226-.373.835 0 1.366.504.53.499.68 1.422l-.845.155q-.12-.614-.43-.923-.303-.31-.738-.31-.656 0-1.066.562-.41.556-.41 1.765 0 1.227.395 1.783.396.556 1.033.556.512 0 .854-.373.343-.372.435-1.146zm2.696 2.23V5.73h.782v.922q.299-.647.55-.854.256-.206.56-.206.439 0 .893.333l-.3.957q-.318-.224-.637-.224-.285 0-.511.207-.227.2-.324.561-.145.55-.145 1.204v3.187zm4.414-7.216V3.415h.869v1.187zm0 7.216V5.73h.869v6.087zm3.299 2.332V5.73h.792v.792q.28-.465.632-.694.352-.235.854-.235.656 0 1.158.401.502.402.758 1.135.256.728.256 1.6 0 .933-.285 1.684-.28.745-.82 1.147-.536.395-1.13.395-.434 0-.782-.218-.342-.217-.564-.55v2.963zm.787-5.342q0 1.175.4 1.737t.97.562q.58 0 .99-.579.415-.585.415-1.805 0-1.164-.406-1.743-.4-.579-.96-.579-.555 0-.985.62-.424.613-.424 1.788zm7.715 2.087l.126.911q-.367.092-.657.092-.473 0-.733-.178-.261-.178-.367-.464-.106-.292-.106-1.22V6.532h-.637v-.802h.637V4.223l.864-.619v2.127h.873v.802h-.873v3.56q0 .44.043.567.048.126.15.2.106.075.299.075.145 0 .381-.04z" opacity=".99" stroke="#000" stroke-linecap="round" stroke-linejoin="round" stroke-width=".409" aria-label="Javascript" paint-order="stroke markers fill"/><path d="M32.074 22.461h6.159v30.163q0 5.916-.668 9.1-.898 4.161-3.257 6.696-2.36 2.503-6.222 2.503-4.53 0-6.972-3.933-2.443-3.965-2.464-11.604l5.825-1.04q.104 4.096.772 5.786Q26.25 62.7 28.295 62.7q2.067 0 2.923-1.82.856-1.853.856-7.639zm16.995 32.145l6.013-.91q.542 4.713 2.192 6.923 1.67 2.21 4.488 2.21 2.986 0 4.489-1.95 1.524-1.983 1.524-4.615 0-1.69-.648-2.86-.626-1.203-2.212-2.08-1.086-.586-4.948-2.081-4.969-1.918-6.973-4.713-2.818-3.933-2.818-9.588 0-3.64 1.315-6.793 1.336-3.186 3.82-4.843 2.505-1.658 6.034-1.658 5.762 0 8.663 3.933 2.923 3.933 3.07 10.498l-6.18.423q-.397-3.673-1.712-5.266-1.295-1.625-3.904-1.625-2.693 0-4.217 1.723-.981 1.105-.981 2.958 0 1.69.918 2.892 1.17 1.528 5.679 3.186 4.509 1.657 6.66 3.445 2.17 1.755 3.381 4.843 1.232 3.055 1.232 7.573 0 4.095-1.461 7.67-1.462 3.576-4.134 5.331-2.672 1.723-6.66 1.723-5.803 0-8.914-4.16-3.11-4.193-3.716-12.19z" fill="#040704" aria-label="JS"/></g></svg>