<svg width="50" height="50" xml:space="preserve" xmlns:xlink="http://www.w3.org/1999/xlink" xmlns="http://www.w3.org/2000/svg"><defs><linearGradient id="a"><stop style="stop-color:#0ff;stop-opacity:1" offset="0"/><stop style="stop-color:#0ff;stop-opacity:1" offset=".5"/><stop style="stop-color:#0ff;stop-opacity:.24705882" offset=".699"/><stop style="stop-color:#0ff;stop-opacity:0" offset="1"/></linearGradient><linearGradient xlink:href="#a" id="b" x1="23.702" y1="-7.693" x2="23.765" y2="53.089" gradientUnits="userSpaceOnUse" gradientTransform="translate(3.397 3.39) scale(.86413)"/></defs><path d="M7.564 8.41q0-1.119.739-1.881.762-.787 1.835-.787 1.12 0 1.882.787.786.786.786 1.882 0 1.048-.786 1.834-.763.787-1.882.787-1.12 0-1.859-.763-.715-.762-.715-1.858Zm.548 35.836V17.894h3.956v26.352zm34.324 0h-3.98V29.187q0-8.53-6.242-8.53-3.264 0-5.36 2.455-2.097 2.43-2.097 6.1v15.034h-3.98V17.894h3.98v4.408h.119q2.954-5.028 8.649-5.028 4.336 0 6.623 2.788 2.288 2.788 2.288 8.077z" style="font-size:56.4686px;line-height:94.42%;font-family:&quot;Microsoft JhengHei&quot;;-inkscape-font-specification:&quot;Microsoft JhengHei&quot;;letter-spacing:.0431357px;opacity:.921769;fill:url(#b);fill-rule:evenodd;stroke:#fff;stroke-width:.75590551;stroke-linecap:round;stroke-dasharray:none" aria-label="in"/></svg>