<?xml version="1.0" encoding="UTF-8" standalone="no"?>
<svg
   width="40"
   height="40"
   xml:space="preserve"
   version="1.1"
   id="svg4"
   sodipodi:docname="linkedIn.svg"
   inkscape:version="1.3.2 (091e20e, 2023-11-25, custom)"
   xmlns:inkscape="http://www.inkscape.org/namespaces/inkscape"
   xmlns:sodipodi="http://sodipodi.sourceforge.net/DTD/sodipodi-0.dtd"
   xmlns:xlink="http://www.w3.org/1999/xlink"
   xmlns="http://www.w3.org/2000/svg"
   xmlns:svg="http://www.w3.org/2000/svg"><sodipodi:namedview
     id="namedview4"
     pagecolor="#505050"
     bordercolor="#eeeeee"
     borderopacity="1"
     inkscape:showpageshadow="0"
     inkscape:pageopacity="0"
     inkscape:pagecheckerboard="0"
     inkscape:deskcolor="#505050"
     inkscape:zoom="8.19"
     inkscape:cx="21.245421"
     inkscape:cy="11.904762"
     inkscape:window-width="1920"
     inkscape:window-height="1017"
     inkscape:window-x="1912"
     inkscape:window-y="-8"
     inkscape:window-maximized="1"
     inkscape:current-layer="svg4" /><defs
     id="defs4"><linearGradient
       id="a"><stop
         style="stop-color:#0ff;stop-opacity:1"
         offset="0"
         id="stop1" /><stop
         style="stop-color:#0ff;stop-opacity:1"
         offset=".5"
         id="stop2" /><stop
         style="stop-color:#0ff;stop-opacity:.24705882"
         offset=".699"
         id="stop3" /><stop
         style="stop-color:#0ff;stop-opacity:0"
         offset="1"
         id="stop4" /></linearGradient><linearGradient
       xlink:href="#a"
       id="b"
       x1="23.702"
       y1="-7.6929998"
       x2="23.764999"
       y2="53.089001"
       gradientUnits="userSpaceOnUse"
       gradientTransform="matrix(0.86413,0,0,0.86413,-1.6030001,-1.604)" /></defs><path
     d="m 2.5639999,3.416 q 0,-1.119 0.739,-1.881 0.762,-0.787 1.835,-0.787 1.12,0 1.882,0.787 0.786,0.786 0.786,1.882 0,1.048 -0.786,1.834 -0.763,0.787 -1.882,0.787 -1.12,0 -1.859,-0.763 -0.715,-0.762 -0.715,-1.858 z m 0.548,35.836 V 12.9 h 3.956 v 26.352 z m 34.3240001,0 h -3.98 V 24.193 q 0,-8.53 -6.242,-8.53 -3.264,0 -5.36,2.455 -2.097,2.43 -2.097,6.1 v 15.034 h -3.98 V 12.9 h 3.98 v 4.408 h 0.119 q 2.954,-5.028 8.649,-5.028 4.336,0 6.623,2.788 2.288,2.788 2.288,8.077 z"
     style="font-size:56.4686px;line-height:94.42%;font-family:'Microsoft JhengHei';-inkscape-font-specification:'Microsoft JhengHei';letter-spacing:0.0431357px;opacity:0.921769;fill:url(#b);fill-rule:evenodd;stroke:#ffffff;stroke-width:0.755906;stroke-linecap:round;stroke-dasharray:none"
     aria-label="in"
     id="path4" /></svg>
