<?xml version="1.0" encoding="UTF-8" standalone="no"?>
<!-- Created with Inkscape (http://www.inkscape.org/) -->

<svg
   width="100"
   height="100"
   viewBox="0 0 26.458333 26.458333"
   version="1.1"
   id="svg1"
   xml:space="preserve"
   inkscape:version="1.4.2 (ebf0e94, 2025-05-08)"
   sodipodi:docname="mysql.svg"
   xmlns:inkscape="http://www.inkscape.org/namespaces/inkscape"
   xmlns:sodipodi="http://sodipodi.sourceforge.net/DTD/sodipodi-0.dtd"
   xmlns="http://www.w3.org/2000/svg"
   xmlns:svg="http://www.w3.org/2000/svg"><sodipodi:namedview
     id="namedview1"
     pagecolor="#ffffff"
     bordercolor="#000000"
     borderopacity="0.25"
     inkscape:showpageshadow="2"
     inkscape:pageopacity="0.0"
     inkscape:pagecheckerboard="true"
     inkscape:deskcolor="#d1d1d1"
     inkscape:document-units="mm"
     inkscape:clip-to-page="false"
     inkscape:zoom="4.0920134"
     inkscape:cx="98.851093"
     inkscape:cy="65.004674"
     inkscape:window-width="1920"
     inkscape:window-height="1017"
     inkscape:window-x="1912"
     inkscape:window-y="-8"
     inkscape:window-maximized="1"
     inkscape:current-layer="layer1" /><defs
     id="defs1" /><g
     inkscape:label="Layer 1"
     inkscape:groupmode="layer"
     id="layer1"><g
       id="g29"
       transform="matrix(0.11920526,0,0,0.11920526,-0.22839821,-0.40596552)"><g
         id="g1"
         transform="matrix(0.20670573,0,0,0.20670573,-0.52228195,-0.93490808)"><path
           d="m 117,608.4 v 178.5 c 1.5,93.7 155.7,169.5 395,169.5 239.3,0 393.4,-75.8 395,-169.5 V 608.4 Z"
           fill="#1b9bdb"
           id="path1" /><path
           d="m 907,607.7 c 0,99.4 -154.8,180 -395,180 -240.2,0 -395,-80.6 -395,-180 0,-99.4 154.8,-180 395,-180 240.2,0 395,80.5 395,180 z"
           fill="#ffffff"
           id="path2" /><path
           d="m 117,428.4 v 158.5 c 1.5,93.7 155.7,179.5 395,179.5 239.3,0 393.4,-85.8 395,-179.5 V 428.4 Z"
           fill="#1b9bdb"
           id="path3" /><path
           d="m 907,427.7 c 0,99.4 -154.8,180 -395,180 -240.2,0 -395,-80.6 -395,-180 0,-99.4 154.8,-180 395,-180 240.2,0 395,80.5 395,180 z"
           fill="#ffffff"
           id="path4" /><path
           d="m 117,248.4 v 158.5 c 1.5,93.7 155.7,179.5 395,179.5 239.3,0 393.4,-85.8 395,-179.5 V 248.4 Z"
           fill="#1b9bdb"
           id="path5" /><path
           d="m 907,247.7 c 0,99.4 -154.8,180 -395,180 -240.2,0 -395,-80.6 -395,-180 0,-99.4 154.8,-180 395,-180 240.2,0 395,80.5 395,180 z"
           fill="#3ed6ff"
           id="path6" /></g><g
         id="g28"
         transform="translate(1.3060049,-60.003061)"><path
           style="fill:#000000;fill-opacity:1;stroke:#ffffff;stroke-width:0.0517268;paint-order:fill markers stroke"
           d="m 37.37162,262.90133 c 0.236946,-6.39879 1.137706,-19.06757 1.766913,-24.8508 l 0.579239,-5.32395 3.343648,0.15126 3.343648,0.15129 4.12464,12.60589 c 2.268552,6.93325 4.317861,12.40335 4.554023,12.1558 0.236159,-0.24757 2.214202,-5.98905 4.395652,-12.75887 l 3.966268,-12.30873 3.192749,0.15296 3.192748,0.15295 0.85377,8.27627 c 0.469575,4.55197 1.028891,12.1752 1.242923,16.94053 l 0.389152,8.66423 h -2.66541 -2.665407 v -4.38621 c 0,-5.48473 -0.981435,-19.65997 -1.5049,-21.73581 -0.337399,-1.33799 -0.870463,-0.0551 -3.868798,9.31082 -1.912615,5.97445 -3.891262,12.14287 -4.396992,13.70759 -0.902959,2.79376 -0.955206,2.84498 -2.90237,2.84498 h -1.982859 l -1.175045,-3.62087 c -0.646274,-1.99149 -2.627915,-8.15991 -4.403647,-13.70759 -3.088303,-9.6484 -3.24572,-9.9968 -3.622498,-8.01767 -0.216642,1.138 -0.560949,7.3646 -0.765127,13.83692 l -0.371234,11.76784 h -2.384765 -2.384766 z"
           id="path9" /><path
           style="fill:#000000;fill-opacity:1;stroke:#ffffff;stroke-width:0.0182882;paint-order:fill markers stroke"
           d="m 76.228021,274.48332 c -0.818859,-0.31737 -1.185955,-1.68368 -0.607727,-2.2619 0.173763,-0.17375 0.604036,-0.28739 1.088287,-0.28739 3.38581,0 6.111703,-1.97443 6.752257,-4.89085 0.164266,-0.7479 -0.279969,-3.10176 -1.102866,-5.84369 -0.568354,-1.89381 -6.016561,-18.96912 -6.248503,-19.58356 -0.06961,-0.18439 0.426186,-0.2232 2.336266,-0.18288 l 2.42462,0.0512 0.989235,3.10899 c 1.918118,6.02832 3.530153,11.50662 4.28449,14.56031 0.493393,1.99734 0.845749,3.08779 0.997752,3.08779 0.642451,0 3.243763,-9.42115 4.468913,-16.18504 0.674135,-3.72178 0.82608,-4.2383 1.325428,-4.50556 0.458665,-0.24545 3.547258,-0.11195 3.824541,0.16531 0.238713,0.23874 -0.109868,1.98427 -1.524135,7.63212 -1.739376,6.94618 -3.036424,10.67199 -5.189037,14.90559 -2.50245,4.92165 -5.296374,8.26818 -8.026347,9.61382 -1.378537,0.67951 -1.545175,0.71681 -3.383312,0.75758 -1.06335,0.0236 -2.147787,-0.0402 -2.409862,-0.14181 z"
           id="path20" /><path
           style="fill:#000000;fill-opacity:1;stroke:#ffffff;stroke-width:0.0182882;paint-order:fill markers stroke"
           d="m 107.77873,265.73675 c -2.71896,-0.60124 -5.66933,-2.01541 -5.66933,-2.71743 0,-0.52155 0.88756,-1.69241 1.28291,-1.69241 0.19543,0 0.95371,0.20037 1.68507,0.4453 2.8045,0.93913 7.21767,1.10027 8.96223,0.32721 1.19722,-0.53052 2.64086,-2.00692 2.80193,-2.86549 0.0693,-0.36947 0.0902,-1.35345 0.0465,-2.18663 -0.14485,-2.75976 -0.70321,-3.32375 -7.00672,-7.07707 -4.96201,-2.95458 -5.71544,-3.58167 -6.7068,-5.58234 -0.72473,-1.46256 -0.78444,-1.69706 -0.84934,-3.33571 -0.0574,-1.4497 2.3e-4,-1.96982 0.32477,-2.93052 0.95536,-2.82805 2.95836,-4.7811 5.76886,-5.62502 1.53686,-0.46148 5.81624,-0.45561 7.86391,0.0109 1.62453,0.36999 3.45939,1.21169 3.72554,1.709 0.20126,0.37605 -0.11614,1.27463 -0.58881,1.6669 -0.25791,0.21405 -0.55256,0.20053 -1.994,-0.0915 -1.97088,-0.39931 -5.49668,-0.45678 -6.65795,-0.10854 -2.11627,0.63466 -3.72177,2.54352 -3.71859,4.42124 0.004,2.29444 2.03776,4.30462 7.49644,7.40905 4.1061,2.33521 6.30611,4.14621 7.2298,5.95141 0.61094,1.19393 0.80612,3.31777 0.45871,4.99123 -0.69717,3.35822 -3.44398,6.22432 -6.86554,7.16367 -1.74366,0.47871 -5.67913,0.5393 -7.5896,0.11687 z"
           id="path19" /><path
           style="fill:#000000;fill-opacity:1;stroke:#ffffff;stroke-width:0.0517268;paint-order:fill markers stroke"
           d="m 145.3585,268.18015 c -3.41766,-1.85798 -3.80061,-1.94947 -7.02809,-1.67888 -4.41221,0.36988 -6.77224,-0.42627 -9.57668,-3.2307 -2.91061,-2.91063 -3.83754,-6.03459 -3.82092,-12.87753 0.0154,-6.33132 0.61055,-9.12657 2.60604,-12.23934 3.76226,-5.86869 13.30077,-7.40243 18.36793,-2.95341 3.40383,2.9886 4.97275,7.49951 4.95396,14.24337 -0.0149,5.35972 -1.44207,9.99175 -3.9987,12.97861 l -1.81582,2.12137 3.1273,1.57866 c 1.72002,0.86826 3.1199,1.74988 3.11085,1.95916 -0.0283,0.65413 -1.36817,2.19406 -1.85101,2.12736 -0.25314,-0.035 -2.08682,-0.94787 -4.07486,-2.02867 z m -2.94785,-6.44075 c 2.15864,-1.81636 3.28063,-4.98078 3.57705,-10.08864 0.42599,-7.34055 -1.20476,-13.29785 -4.04176,-14.76491 -0.801,-0.41421 -2.84664,-0.75311 -4.54587,-0.75311 -2.74094,0 -3.26404,0.17452 -4.63647,1.54696 -2.70836,2.70836 -3.34684,5.31114 -3.07361,12.52972 0.38162,10.08173 2.14113,12.81528 8.2515,12.8193 2.37612,0.003 3.22664,-0.24379 4.46916,-1.28932 z"
           id="path17" /><path
           style="fill:#000000;fill-opacity:1;stroke:#ffffff;stroke-width:0.00646583;paint-order:fill markers stroke"
           d="M 157.799,250.61624 V 233.5464 h 2.29538 2.29537 v 15.00077 15.00076 h 5.43131 5.43131 v 2.06907 2.06907 h -7.72668 -7.72669 z"
           id="path18" /><g
           id="g2"
           transform="matrix(1.107327,0,0,1.107327,29.990648,141.24218)"><path
             d="M -18.458,6.58 H 172.693 V 139.07 H -18.458 Z"
             fill="none"
             id="path1-0" /><path
             d="M 40.054,113.583 H 34.879 C 34.696,104.848 34.192,96.636 33.368,88.941 h -0.046 l -7.879,24.642 h -3.94 L 13.671,88.941 h -0.045 c -0.581,7.388 -0.947,15.602 -1.099,24.642 H 7.81 C 8.114,102.59 8.878,92.284 10.099,82.664 h 6.414 l 7.465,22.719 h 0.046 l 7.511,-22.719 h 6.137 c 1.344,11.268 2.138,21.575 2.382,30.919 M 62.497,90.771 c -2.107,11.434 -4.887,19.742 -8.337,24.928 -2.688,3.992 -5.633,5.99 -8.84,5.99 -0.855,0 -1.91,-0.258 -3.16,-0.77 v -2.757 c 0.611,0.088 1.328,0.138 2.152,0.138 1.498,0 2.702,-0.412 3.62,-1.238 1.098,-1.006 1.647,-2.137 1.647,-3.388 0,-0.858 -0.428,-2.612 -1.282,-5.268 L 42.618,90.77 h 5.084 l 4.076,13.19 c 0.916,2.995 1.298,5.086 1.145,6.277 2.229,-5.953 3.786,-12.444 4.673,-19.468 h 4.901 z"
             fill="#5d87a1"
             id="path2-9" /><path
             d="m 131.382,113.583 h -14.7 V 82.664 h 4.945 v 27.113 h 9.755 z m -18.548,0.747 -5.684,-2.805 c 0.504,-0.414 0.986,-0.862 1.42,-1.381 2.416,-2.838 3.621,-7.035 3.621,-12.594 0,-10.229 -4.014,-15.346 -12.045,-15.346 -3.938,0 -7.01,1.298 -9.207,3.895 -2.414,2.84 -3.619,7.022 -3.619,12.551 0,5.435 1.068,9.422 3.205,11.951 1.955,2.291 4.902,3.438 8.843,3.438 1.47,0 2.819,-0.18 4.048,-0.543 l 7.4,4.308 z m -18.413,-6.934 c -1.252,-2.014 -1.878,-5.248 -1.878,-9.707 0,-7.785 2.365,-11.682 7.1,-11.682 2.475,0 4.289,0.932 5.449,2.792 1.25,2.017 1.879,5.222 1.879,9.619 0,7.849 -2.367,11.774 -7.099,11.774 -2.476,0.001 -4.29,-0.928 -5.451,-2.796 m -9.256,-2.383 c 0,2.622 -0.962,4.773 -2.884,6.458 -1.924,1.678 -4.504,2.519 -7.737,2.519 -3.024,0 -5.956,-0.966 -8.794,-2.888 l 1.329,-2.655 c 2.442,1.223 4.653,1.831 6.638,1.831 1.863,0 3.319,-0.413 4.375,-1.232 1.055,-0.822 1.684,-1.975 1.684,-3.433 0,-1.837 -1.281,-3.407 -3.631,-4.722 -2.167,-1.19 -6.501,-3.678 -6.501,-3.678 -2.349,-1.712 -3.525,-3.55 -3.525,-6.578 0,-2.506 0.877,-4.529 2.632,-6.068 1.757,-1.545 4.024,-2.315 6.803,-2.315 2.87,0 5.479,0.769 7.829,2.291 l -1.192,2.656 c -2.01,-0.854 -3.994,-1.281 -5.951,-1.281 -1.585,0 -2.809,0.381 -3.66,1.146 -0.858,0.762 -1.387,1.737 -1.387,2.933 0,1.828 1.308,3.418 3.722,4.759 2.196,1.192 6.638,3.723 6.638,3.723 2.409,1.709 3.612,3.53 3.612,6.534"
             fill="#f8981d"
             id="path3-4" /><path
             d="m 142.24944,67.186729 c -2.99,-0.076 -5.305,0.225 -7.248,1.047 -0.561,0.224 -1.453,0.224 -1.531,0.933 0.303,0.3 0.338,0.784 0.601,1.198 0.448,0.747 1.229,1.752 1.942,2.276 0.783,0.6 1.569,1.194 2.393,1.717 1.453,0.899 3.1,1.422 4.516,2.318 0.825,0.521 1.645,1.195 2.471,1.756 0.406,0.299 0.666,0.784 1.193,0.971 v -0.114 c -0.264,-0.336 -0.339,-0.822 -0.598,-1.196 l -1.122,-1.082 c -1.084,-1.456 -2.431,-2.727 -3.884,-3.771 -1.196,-0.824 -3.812,-1.944 -4.297,-3.322 l -0.076,-0.076 c 0.822,-0.077 1.797,-0.375 2.578,-0.604 1.271,-0.335 2.43,-0.259 3.734,-0.594 0.6,-0.15 1.195,-0.338 1.797,-0.523 v -0.337 c -0.676,-0.673 -1.158,-1.567 -1.869,-2.203 -1.902,-1.643 -3.998,-3.25 -6.164,-4.595 -1.16,-0.749 -2.652,-1.231 -3.887,-1.868 -0.445,-0.225 -1.195,-0.336 -1.457,-0.71 -0.67,-0.822 -1.047,-1.904 -1.533,-2.877 -1.08,-2.053 -2.129,-4.331 -3.061,-6.502 -0.674,-1.456 -1.084,-2.91 -1.906,-4.257 -3.85,-6.35 -8.03101,-10.196 -14.45701,-13.971 -1.381,-0.786 -3.024,-1.121 -4.779,-1.533 l -2.803,-0.148 c -0.598,-0.262 -1.197,-0.973 -1.719,-1.309 -2.131996,-1.344 -7.620996,-4.257 -9.188996,-0.411 -1.01,2.431 1.494,4.821 2.354,6.054 0.635,0.856 1.458,1.83 1.902,2.802 0.263,0.635 0.337,1.309 0.6,1.98 0.598,1.644 1.157,3.473 1.943,5.007 0.41,0.782 0.856998,1.604 1.380996,2.312 0.3,0.414 0.822,0.597 0.936,1.272 -0.521,0.744 -0.562,1.867 -0.861,2.801 -1.343996,4.221 -0.818996,9.45 1.086,12.552 0.596,0.934 2.018,2.99 3.92,2.202 1.684,-0.672 1.311,-2.801 1.795,-4.668 0.111,-0.451 0.038,-0.747 0.262,-1.043 v 0.073 c 0.521,1.045 1.047,2.052 1.53,3.1 1.159,1.829 3.177,3.735 4.858,5.002 0.895,0.676 1.604,1.832 2.725,2.245 v -0.112 h -0.074 c -0.227,-0.335 -0.559,-0.485 -0.857,-0.745 -0.674,-0.673 -1.42,-1.495 -1.943,-2.241 -1.566,-2.093 -2.952,-4.41 -4.182,-6.801 -0.602,-1.16 -1.121,-2.428 -1.606,-3.586 -0.226,-0.447 -0.226,-1.121 -0.601,-1.346 -0.562,0.821 -1.381,1.532 -1.791,2.538 -0.711,1.609 -0.785,3.588 -1.049,5.646 l -0.147,0.072 c -1.19,-0.299 -1.604,-1.53 -2.056,-2.575 -1.119,-2.654 -1.307,-6.914 -0.336,-9.976 0.26,-0.783 1.385,-3.249 0.936,-3.995 -0.225,-0.715 -0.973,-1.122 -1.383,-1.685 -0.482,-0.708 -1.01,-1.604 -1.345998,-2.39 -0.895998,-2.091 -1.346998,-4.408 -2.311998,-6.498 -0.451,-0.974 -1.234,-1.982 -1.868,-2.879 -0.712,-1.008 -1.495,-1.718 -2.058,-2.913 -0.186,-0.411 -0.447,-1.083 -0.148,-1.53 0.073,-0.3 0.225,-0.412 0.523,-0.487 0.484,-0.409 1.867,0.111 2.352,0.336 1.385,0.56 2.543,1.083 3.698996,1.867 0.523,0.375 1.084,1.085 1.755,1.272 h 0.786 c 1.193,0.26 2.538,0.072 3.661,0.41 1.979,0.636 3.772,1.569 5.38,2.576 4.893,3.103 8.92801,7.512 11.65201,12.778 0.447,0.858 0.637,1.644 1.045,2.539 0.787,1.832 1.76,3.7 2.541,5.493 0.785,1.755 1.533,3.547 2.654,5.005 0.559,0.784 2.805,1.195 3.812,1.606 0.745,0.335 1.905,0.633 2.577,1.044 1.271,0.783 2.537,1.682 3.732,2.543 0.595,0.448 2.465,1.382 2.576,2.13 m -38.10601,-32.464 a 5.82,5.82 0 0 0 -1.529,0.188 v 0.075 h 0.072 c 0.301,0.597 0.824,1.011 1.197,1.532 0.301,0.599 0.562,1.193 0.857,1.791 l 0.072,-0.074 c 0.527,-0.373 0.789,-0.971 0.789,-1.868 -0.227,-0.264 -0.262,-0.522 -0.451,-0.784 -0.22,-0.374 -0.705,-0.56 -1.007,-0.86"
             fill="#5d87a1"
             id="path4-8-6"
             style="fill:#000000" /><path
             d="m 143.19558,66.935985 c -2.99,-0.076 -5.305,0.225 -7.248,1.047 -0.561,0.224 -1.453,0.224 -1.531,0.933 0.303,0.3 0.338,0.784 0.601,1.198 0.448,0.747 1.229,1.752 1.942,2.276 0.783,0.6 1.569,1.194 2.393,1.717 1.453,0.899 3.1,1.422 4.516,2.318 0.825,0.521 1.645,1.195 2.471,1.756 0.406,0.299 0.666,0.784 1.193,0.971 v -0.114 c -0.264,-0.336 -0.339,-0.822 -0.598,-1.196 l -1.122,-1.082 c -1.084,-1.456 -2.431,-2.727 -3.884,-3.771 -1.196,-0.824 -3.812,-1.944 -4.297,-3.322 l -0.076,-0.076 c 0.822,-0.077 1.797,-0.375 2.578,-0.604 1.271,-0.335 2.43,-0.259 3.734,-0.594 0.6,-0.15 1.195,-0.338 1.797,-0.523 v -0.337 c -0.676,-0.673 -1.158,-1.567 -1.869,-2.203 -1.902,-1.643 -3.998,-3.25 -6.164,-4.595 -1.16,-0.749 -2.652,-1.231 -3.887,-1.868 -0.445,-0.225 -1.195,-0.336 -1.457,-0.71 -0.67,-0.822 -1.047,-1.904 -1.533,-2.877 -1.08,-2.053 -2.129,-4.331 -3.061,-6.502 -0.674,-1.456 -1.084,-2.91 -1.906,-4.257 -3.85,-6.35 -8.031,-10.196002 -14.457,-13.971002 -1.381,-0.786 -3.024,-1.121 -4.779,-1.533 l -2.803,-0.148 c -0.598,-0.262 -1.197,-0.973 -1.719,-1.309 -2.131996,-1.344 -7.620996,-4.257 -9.188996,-0.411 -1.01,2.431 1.494,4.821 2.354,6.054 0.635,0.856 1.458,1.83 1.902,2.802 0.263,0.635002 0.337,1.309002 0.6,1.980002 0.598,1.644 1.157,3.473 1.943,5.007 0.409996,0.782 0.856996,1.604 1.380996,2.312 0.3,0.414 0.822,0.597 0.936,1.272 -0.521,0.744 -0.562,1.867 -0.861,2.801 -1.343996,4.221 -0.819,9.45 1.086,12.552 0.596,0.934 2.018,2.99 3.92,2.202 1.684,-0.672 1.311,-2.801 1.795,-4.668 0.111,-0.451 0.038,-0.747 0.262,-1.043 v 0.073 c 0.521,1.045 1.047,2.052 1.53,3.1 1.159,1.829 3.177,3.735 4.858,5.002 0.895,0.676 1.604,1.832 2.725,2.245 v -0.112 h -0.074 c -0.227,-0.335 -0.559,-0.485 -0.857,-0.745 -0.674,-0.673 -1.42,-1.495 -1.943,-2.241 -1.566,-2.093 -2.952,-4.41 -4.182,-6.801 -0.602,-1.16 -1.121,-2.428 -1.606,-3.586 -0.226,-0.447 -0.226,-1.121 -0.601,-1.346 -0.562,0.821 -1.381,1.532 -1.791,2.538 -0.711,1.609 -0.785,3.588 -1.049,5.646 l -0.147,0.072 c -1.19,-0.299 -1.604,-1.53 -2.056,-2.575 -1.119,-2.654 -1.307,-6.914 -0.336,-9.976 0.26,-0.783 1.385,-3.249 0.936,-3.995 -0.225,-0.715 -0.973,-1.122 -1.383,-1.685 -0.482,-0.708 -1.01,-1.604 -1.346,-2.39 -0.895996,-2.091 -1.346996,-4.408 -2.311996,-6.498002 -0.451,-0.974 -1.234,-1.982 -1.868,-2.879 -0.712,-1.008 -1.495,-1.718 -2.058,-2.913 -0.186,-0.411 -0.447,-1.083 -0.148,-1.53 0.073,-0.3 0.225,-0.412 0.523,-0.487 0.484,-0.409 1.867,0.111 2.352,0.336 1.385,0.56 2.543,1.083 3.698996,1.867 0.523,0.375 1.084,1.085 1.755,1.272 h 0.786 c 1.193,0.26 2.538,0.072 3.661,0.41 1.979,0.636 3.772,1.569 5.38,2.576 4.893,3.103002 8.928,7.512002 11.652,12.778002 0.447,0.858 0.637,1.644 1.045,2.539 0.787,1.832 1.76,3.7 2.541,5.493 0.785,1.755 1.533,3.547 2.654,5.005 0.559,0.784 2.805,1.195 3.812,1.606 0.745,0.335 1.905,0.633 2.577,1.044 1.271,0.783 2.537,1.682 3.732,2.543 0.595,0.448 2.465,1.382 2.576,2.13 m -38.106,-32.464002 a 5.82,5.82 0 0 0 -1.529,0.188 v 0.075 h 0.072 c 0.301,0.597 0.824,1.011 1.197,1.532002 0.301,0.599 0.562,1.193 0.857,1.791 l 0.072,-0.074 c 0.527,-0.373 0.789,-0.971 0.789,-1.868002 -0.227,-0.264 -0.262,-0.522 -0.451,-0.784 -0.22,-0.374 -0.705,-0.56 -1.007,-0.86"
             fill="#5d87a1"
             id="path4-8" /></g></g></g><path
       style="fill:#ffffff;fill-opacity:1;stroke:#ffffff;stroke-width:0.195503;paint-order:fill markers stroke"
       d=""
       id="path14"
       transform="scale(0.26458333)" /><path
       style="fill:#ffffff;fill-opacity:1;stroke:#ffffff;stroke-width:0.195503;paint-order:fill markers stroke"
       d=""
       id="path15"
       transform="scale(0.26458333)" /></g></svg>
