<?xml version="1.0" encoding="UTF-8"?>
<svg width="300" height="300" version="1.1" viewBox="0 0 79.375 79.375" xmlns="http://www.w3.org/2000/svg">
 <ellipse cx="39.688" cy="39.688" rx="37.146" ry="37.281" fill="#fff" fill-rule="evenodd" stroke-width="1.9583" paint-order="stroke markers fill"/>
 <g stroke="#fff" stroke-width=".39688">
  <path d="m44.564 2.4856c1.8153 1.2052 3.9242 1.94 5.7335 3.2298 6.3151 4.5095 11.128 10.643 12.26 18.475 0.28777 1.9968 0.35848 3.8735 0.25993 5.8761-0.03745 0.75026-0.02742 2.0398-0.54777 2.6345-0.52232 0.5947-2.6215-0.0708-3.3745-0.0708-2.9289-0.0059-5.5994 0.31924-8.2977 1.5539-10.551 4.8285-12.579 19.519-4.0721 27.206 9.0331 8.1604 23.297 3.7727 27.777-7.058 7.4839-18.088-0.19473-39.463-17.82-48.265-3.5732-1.786-7.8641-3.4975-11.919-3.5822z"/>
  <path d="m21.102 32.68c5.5192-0.1933 11.227 2.2713 14.487 6.7309 2.6116 3.5739 3.5283 7.861 3.2287 12.209-0.1892 2.7372-1.5059 5.5296-3.1399 7.6858-0.473 0.62623-2.229 2.03-1.8407 2.8649 0.3489 0.74832 1.3282 1.3374 1.9766 1.8061a25.223 25.2 0 0 0 6.0353 3.2293c7.595 2.7688 15.898 1.9178 22.929-2.0009 2.1957-1.2248 3.8635-2.9691 5.8818-4.3909l0.0021-5.17e-4c-1.8527 3.8931-5.771 7.1069-9.2005 9.5586-14.375 10.261-34.706 9.0074-47.521-3.2355-3.0925-2.9535-6.4393-6.7404-7.89-10.844-2.8011-7.9338 0.65636-17.502 7.89-21.639 2.1834-1.2486 4.6531-1.8857 7.1618-1.9735z"/>
  <path d="m38.983 2.0371c-18.344-0.44308-34.088 15.096-36.464 32.702-0.91454 6.7839 0.35276 13.034 2.5228 19.442 0.34033-0.95322-0.17692-2.5932-0.27544-3.6168-0.16951-1.7822-0.022136-3.6507 0.14934-5.425 0.74307-7.6602 4.9237-15.06 11.44-19.313 1.4605-0.95309 3.7923-2.7569 5.58-2.8908 1.0742-0.08074 1.2082 1.5753 1.4645 2.3079 0.89089 2.5501 2.5724 4.809 4.5728 6.6068 7.5568 6.7957 20.946 4.9878 25.899-4.1946 5.978-11.083-2.2529-25.314-14.889-25.62z"/>
 </g>
 <g fill="#fff" fill-rule="evenodd" stroke-miterlimit="3.7" stroke-width="0">
  <path d="m32.763 19.235q0-3.3951 1.8231-5.3113 1.8231-1.9255 4.7067-1.9255 1.8883 0 3.4044 0.90227 1.5162 0.90227 2.3068 2.5208 0.79995 1.6092 0.79995 3.6556 0 2.0743-0.83716 3.7114-0.83716 1.6371-2.3719 2.4836-1.5348 0.83716-3.3114 0.83716-1.9255 0-3.4416-0.93018-1.5162-0.93018-2.2975-2.5394t-0.78135-3.4044zm1.8604 0.02791q0 2.465 1.3208 3.8881 1.3302 1.4139 3.33 1.4139 2.0371 0 3.3486-1.4325 1.3208-1.4325 1.3208-4.0649 0-1.665-0.56741-2.9021-0.55811-1.2464-1.6464-1.9255-1.079-0.68833-2.4278-0.68833-1.9162 0-3.3021 1.3208-1.3767 1.3115-1.3767 4.3904z" aria-label="O"/>
  <path d="m20.28 49.677v5.0881h3.0138q1.5162 0 2.2417-0.62322 0.73484-0.63252 0.73484-1.9255 0-1.3022-0.73484-1.9162-0.72554-0.62322-2.2417-0.62322zm0-5.7113v4.1858h2.7812q1.3767 0 2.0464-0.5116 0.67903-0.5209 0.67903-1.5813 0-1.0511-0.67903-1.572-0.66973-0.5209-2.0464-0.5209zm-1.879-1.5441h4.7997q2.1487 0 3.3114 0.89297 1.1627 0.89297 1.1627 2.5394 0 1.2743-0.59531 2.0278-0.59531 0.75344-1.7487 0.93948 1.386 0.29766 2.1487 1.2464 0.77205 0.93948 0.77205 2.3533 0 1.8604-1.265 2.8742t-3.5998 1.0139h-4.9857z" aria-label="B"/>
  <path d="m62.307 42.392v1.8324q-1.0697-0.5116-2.0185-0.76274-0.94878-0.25115-1.8324-0.25115-1.5348 0-2.3719 0.59531-0.82786 0.59531-0.82786 1.6929 0 0.92087 0.5488 1.3953 0.5581 0.46509 2.1022 0.75344l1.1348 0.23254q2.1022 0.39998 3.0975 1.4139 1.0046 1.0046 1.0046 2.6975 0 2.0185-1.3581 3.0603-1.3488 1.0418-3.9625 1.0418-0.98599 0-2.1022-0.22324-1.1069-0.22324-2.2975-0.66042v-1.9348q1.1441 0.64182 2.2417 0.96738 1.0976 0.32556 2.158 0.32556 1.6092 0 2.4836-0.63252 0.87437-0.63252 0.87437-1.8045 0-1.0232-0.63252-1.5999-0.62322-0.57671-2.0557-0.86506l-1.1441-0.22324q-2.1022-0.41858-3.0417-1.3115-0.93948-0.89297-0.93948-2.4836 0-1.8417 1.2929-2.9021 1.3022-1.0604 3.5812-1.0604 0.97668 0 1.9906 0.17673 1.0139 0.17673 2.0743 0.5302z" aria-label="S"/>
 </g>
</svg>
