<svg width="300" height="300" viewBox="0 0 79.375 79.375" xmlns="http://www.w3.org/2000/svg"><g transform="matrix(1.971 0 0 1.971 -23.384 -23.384)"><ellipse cx="32" cy="32" rx="19.092" ry="18.915" fill="#fff" fill-rule="evenodd" paint-order="stroke markers fill"/><path d="M14.422 39.378c.173-.484-.09-1.317-.14-1.837-.086-.905-.011-1.854.076-2.755.377-3.89 2.498-7.648 5.804-9.807.741-.484 1.924-1.4 2.831-1.468.545-.041.613.8.743 1.172.452 1.295 1.305 2.442 2.32 3.355 3.834 3.451 10.627 2.533 13.14-2.13 3.033-5.628-1.143-12.855-7.554-13.01-9.307-.225-17.295 7.666-18.5 16.607-.464 3.445.179 6.619 1.28 9.873m20.052-26.252c.921.612 1.991.985 2.909 1.64 3.204 2.29 5.646 5.405 6.22 9.382.146 1.014.182 1.967.132 2.984-.019.381-.014 1.036-.278 1.338-.265.302-1.33-.036-1.712-.036-1.486-.003-2.841.162-4.21.789-5.353 2.452-6.382 9.912-2.066 13.816 4.583 4.144 11.82 1.916 14.093-3.584 3.797-9.185-.099-20.04-9.041-24.51-1.813-.907-3.99-1.776-6.047-1.819m13.24 29.62c-1.024.722-1.87 1.608-2.984 2.23-3.567 1.99-7.78 2.422-11.633 1.016a12.797 12.797 0 01-3.062-1.64c-.329-.238-.826-.537-1.003-.917-.197-.424.694-1.137.934-1.455.829-1.095 1.497-2.513 1.593-3.903.152-2.208-.313-4.385-1.638-6.2-2.406-3.294-7.439-4.445-10.984-2.416-3.67 2.101-5.424 6.96-4.003 10.989.736 2.084 2.434 4.007 4.003 5.507 6.502 6.217 16.817 6.854 24.11 1.643 1.74-1.245 3.728-2.877 4.668-4.854z" fill="#0e0e0e"/></g></svg>