<svg width="300" height="300" viewBox="0 0 79.375 79.375" xmlns="http://www.w3.org/2000/svg"><ellipse cx="39.688" cy="39.688" rx="37.146" ry="37.281" fill="#fff" fill-rule="evenodd" paint-order="stroke markers fill"/><g stroke="#fff" stroke-width=".397"><path d="M44.564 2.486c1.815 1.205 3.924 1.94 5.734 3.23 6.315 4.509 11.127 10.642 12.26 18.474.287 1.997.358 3.874.26 5.876-.038.75-.028 2.04-.548 2.635-.523.595-2.622-.07-3.375-.07-2.929-.007-5.6.318-8.298 1.553-10.55 4.829-12.579 19.52-4.072 27.206 9.033 8.16 23.297 3.773 27.777-7.058 7.484-18.088-.194-39.463-17.82-48.265-3.573-1.786-7.864-3.497-11.919-3.582z"/><path d="M21.102 32.68c5.52-.193 11.227 2.271 14.487 6.73 2.612 3.575 3.528 7.862 3.229 12.21-.19 2.737-1.506 5.53-3.14 7.686-.473.626-2.23 2.03-1.84 2.865.348.748 1.327 1.337 1.976 1.806a25.223 25.2 0 006.035 3.229c7.595 2.769 15.898 1.918 22.929-2 2.196-1.226 3.864-2.97 5.882-4.392h.002c-1.853 3.893-5.771 7.107-9.2 9.558-14.376 10.261-34.707 9.008-47.522-3.235-3.092-2.954-6.439-6.74-7.89-10.844-2.8-7.934.657-17.502 7.89-21.64 2.184-1.248 4.654-1.885 7.162-1.973z"/><path d="M38.983 2.037C20.639 1.594 4.895 17.133 2.519 34.74c-.915 6.784.353 13.034 2.523 19.442.34-.953-.177-2.593-.276-3.617-.17-1.782-.022-3.65.15-5.425.743-7.66 4.923-15.06 11.44-19.313 1.46-.953 3.792-2.757 5.58-2.89 1.074-.081 1.208 1.575 1.464 2.307.891 2.55 2.573 4.81 4.573 6.607 7.557 6.796 20.946 4.988 25.899-4.194 5.978-11.083-2.253-25.314-14.889-25.62z"/></g><g fill="#fff" fill-rule="evenodd" stroke-miterlimit="3.7" stroke-width="0"><path d="M32.763 19.235q0-3.395 1.823-5.311 1.823-1.926 4.707-1.926 1.888 0 3.404.902 1.516.903 2.307 2.521.8 1.61.8 3.656 0 2.074-.837 3.711t-2.372 2.484q-1.535.837-3.312.837-1.925 0-3.441-.93-1.516-.93-2.298-2.54t-.781-3.404zm1.86.028q0 2.465 1.321 3.888 1.33 1.414 3.33 1.414 2.037 0 3.349-1.433 1.32-1.432 1.32-4.064 0-1.665-.567-2.903-.558-1.246-1.646-1.925-1.08-.688-2.428-.688-1.916 0-3.302 1.32-1.377 1.312-1.377 4.39z" aria-label="O"/><path d="M20.28 49.677v5.088h3.014q1.516 0 2.242-.623.734-.633.734-1.926 0-1.302-.735-1.916-.725-.623-2.241-.623zm0-5.711v4.185h2.781q1.377 0 2.047-.511.679-.521.679-1.581 0-1.051-.68-1.572-.67-.521-2.046-.521zm-1.879-1.544h4.8q2.148 0 3.311.893 1.163.893 1.163 2.539 0 1.274-.596 2.028-.595.753-1.748.94 1.386.297 2.148 1.246.773.94.773 2.353 0 1.86-1.265 2.874t-3.6 1.014H18.4z" aria-label="B"/><path d="M62.307 42.392v1.832q-1.07-.511-2.018-.762-.95-.251-1.833-.251-1.535 0-2.372.595-.828.595-.828 1.693 0 .92.55 1.395.557.465 2.101.753l1.135.233q2.102.4 3.098 1.414 1.004 1.004 1.004 2.697 0 2.019-1.358 3.06-1.349 1.042-3.962 1.042-.986 0-2.103-.223-1.106-.223-2.297-.66v-1.935q1.144.642 2.242.967 1.097.326 2.158.326 1.609 0 2.483-.633.875-.632.875-1.804 0-1.023-.633-1.6-.623-.577-2.056-.865l-1.144-.223q-2.102-.419-3.041-1.312-.94-.893-.94-2.483 0-1.842 1.293-2.902 1.302-1.06 3.581-1.06.977 0 1.99.176 1.015.177 2.075.53z" aria-label="S"/></g></svg>