<?xml version="1.0" encoding="UTF-8"?>
<svg width="300" height="300" version="1.1" viewBox="0 0 79.375 79.375" xmlns="http://www.w3.org/2000/svg">
 <ellipse cx="39.688" cy="39.688" rx="37.146" ry="37.281" fill="#fff" fill-rule="evenodd" stroke-width="1.9583" paint-order="stroke markers fill"/>
 <path d="m5.0418 54.23c0.34098-0.95396-0.17739-2.5958-0.27594-3.6207-0.16951-1.7838-0.021681-3.6542 0.1498-5.4301 0.74307-7.6672 4.9236-15.074 11.44-19.33 1.4605-0.95396 3.7922-2.7594 5.5799-2.8934 1.0742-0.08081 1.2082 1.5768 1.4645 2.31 0.89089 2.5524 2.5722 4.8132 4.5727 6.6127 7.5568 6.8019 20.946 4.9925 25.899-4.1982 5.978-11.093-2.2529-25.337-14.889-25.643-18.344-0.44348-34.088 15.11-36.464 32.732-0.91454 6.7901 0.35281 13.046 2.5229 19.46m39.522-51.743c1.8153 1.2063 3.9243 1.9414 5.7336 3.2324 6.3151 4.5136 11.128 10.653 12.26 18.492 0.28777 1.9986 0.35872 3.877 0.26017 5.8815-0.03745 0.75095-0.02759 2.042-0.54794 2.6372-0.52232 0.59524-2.6214-0.07096-3.3744-0.07096-2.9289-0.0059-5.5996 0.3193-8.2979 1.5551-10.551 4.8329-12.579 19.537-4.0721 27.231 9.0331 8.1678 23.297 3.7764 27.777-7.0641 7.4839-18.104-0.19513-39.499-17.82-48.309-3.5734-1.7877-7.8643-3.5005-11.919-3.5852m26.096 58.381c-2.0183 1.4231-3.6858 3.1694-5.8815 4.3953-7.0306 3.9223-15.334 4.7738-22.929 2.0025a25.223 25.223 0 0 1-6.0352-3.2324c-0.64846-0.4691-1.628-1.0584-1.9769-1.8074-0.38829-0.8357 1.3679-2.241 1.8409-2.8678 1.634-2.1582 2.9506-4.9531 3.1398-7.6928 0.29959-4.352-0.61692-8.6428-3.2285-12.22-4.7422-6.4925-14.662-8.7611-21.649-4.7619-7.2336 4.1411-10.691 13.718-7.8899 21.659 1.4507 4.1076 4.7974 7.8978 7.8899 10.854 12.815 12.254 33.146 13.509 47.521 3.2384 3.4295-2.4539 7.3479-5.6706 9.2006-9.5672z" fill="#0e0e0e" stroke-width="1.971"/>
</svg>
