<?xml version="1.0" encoding="UTF-8" standalone="no"?>
<svg
   version="1.0"
   width="390"
   height="390"
   id="svg3"
   sodipodi:docname="powerpoint.svg"
   inkscape:version="1.3.2 (091e20e, 2023-11-25, custom)"
   xml:space="preserve"
   xmlns:inkscape="http://www.inkscape.org/namespaces/inkscape"
   xmlns:sodipodi="http://sodipodi.sourceforge.net/DTD/sodipodi-0.dtd"
   xmlns="http://www.w3.org/2000/svg"
   xmlns:svg="http://www.w3.org/2000/svg"><defs
     id="defs3" /><sodipodi:namedview
     id="namedview3"
     pagecolor="#505050"
     bordercolor="#eeeeee"
     borderopacity="1"
     inkscape:showpageshadow="0"
     inkscape:pageopacity="0"
     inkscape:pagecheckerboard="0"
     inkscape:deskcolor="#505050"
     showgrid="false"
     inkscape:zoom="1.05"
     inkscape:cx="56.666667"
     inkscape:cy="175.71429"
     inkscape:window-width="1920"
     inkscape:window-height="1017"
     inkscape:window-x="1912"
     inkscape:window-y="-8"
     inkscape:window-maximized="1"
     inkscape:current-layer="svg3" /><g
     id="g18"
     transform="matrix(1.5700565,0,0,1.5700565,-150.86148,-142.92563)"><g
       id="g11"
       style="stroke:#000000;stroke-width:0.377953;stroke-dasharray:none;stroke-opacity:1"><path
         d="m 227.61914,102.85742 a 112.38095,112.38095 0 0 0 -0.0469,0.004 v 122.85351 h -72.13086 v 15.23828 H 145.03516 V 225.71484 H 115.98828 A 112.38095,112.38095 0 0 0 227.61914,327.61914 112.38095,112.38095 0 0 0 339.25,225.71484 H 227.66602 V 102.85938 a 112.38095,112.38095 0 0 0 -0.0469,-0.002 z"
         style="fill:#d35330;fill-rule:evenodd;stroke:#000000;stroke-width:0.377953;stroke-linecap:round;stroke-miterlimit:3.7;stroke-dasharray:none;stroke-opacity:1"
         id="path10" /><path
         d="M 227.66602,102.85938 V 225.71484 H 339.25 A 112.38095,112.38095 0 0 0 340,215.23828 112.38095,112.38095 0 0 0 227.66602,102.85938 Z"
         style="fill:#ff8f6a;fill-rule:evenodd;stroke:#000000;stroke-width:0.377953;stroke-linecap:round;stroke-miterlimit:3.7;stroke-dasharray:none;stroke-opacity:1"
         id="path9" /><path
         d="m 155.44141,198.13281 v 14.625 h 5.69531 c 4.10155,0 6.84375,-0.26953 8.22656,-0.80859 1.38281,-0.53906 2.46094,-1.38281 3.23438,-2.53125 0.79687,-1.14844 1.19531,-2.48438 1.19531,-4.00781 0,-1.875 -0.55079,-3.42188 -1.65235,-4.64063 -1.10156,-1.21874 -2.49609,-1.98047 -4.18359,-2.28516 -1.24218,-0.23437 -3.73828,-0.35156 -7.48828,-0.35156 z"
         style="fill:#f16e42;fill-rule:evenodd;stroke:#000000;stroke-width:0.377953;stroke-linecap:round;stroke-miterlimit:3.7;stroke-dasharray:none;stroke-opacity:1"
         id="path11" /><path
         d="m 115.98828,225.71484 h 29.04688 v -36.30078 h 16.69921 c 6.32812,0 10.45313,0.25781 12.375,0.77344 2.95312,0.77344 5.42579,2.46094 7.41797,5.0625 1.9922,2.57812 2.98828,5.91798 2.98828,10.01953 0,3.16406 -0.57421,5.82423 -1.72265,7.98047 -1.14844,2.15625 -2.61329,3.85547 -4.39453,5.09766 -1.75781,1.21874 -3.55078,2.02734 -5.37891,2.42578 -2.48437,0.49218 -6.08203,0.73828 -10.79297,0.73828 h -6.78515 v 4.20312 h 72.13086 V 102.86133 a 112.38095,112.38095 0 0 0 -112.33399,112.37695 112.38095,112.38095 0 0 0 0.75,10.47656 z"
         style="fill:#f16e42;fill-rule:evenodd;stroke:#000000;stroke-width:0.377953;stroke-linecap:round;stroke-miterlimit:3.7;stroke-dasharray:none;stroke-opacity:1"
         id="path8" /></g><g
       id="g7"
       transform="matrix(1,0,0,0.9903101,210.47618,-274.6689)"
       style="fill:#c43f1e;fill-opacity:1;stroke:#000000;stroke-width:1.13939;stroke-dasharray:none;stroke-opacity:1"><path
         d="m -55.033203,477.17969 v 14.625 h 5.695312 c 4.101559,0 6.843752,-0.26953 8.226563,-0.8086 1.382811,-0.53906 2.460938,-1.38281 3.234375,-2.53125 0.796874,-1.14843 1.195312,-2.48437 1.195312,-4.00781 0,-1.875 -0.550782,-3.42188 -1.652343,-4.64062 -1.101562,-1.21876 -2.496096,-1.98047 -4.183594,-2.28516 -1.242186,-0.23437 -3.738285,-0.35156 -7.488281,-0.35156 z"
         style="fill:#c43f1e;fill-opacity:1;fill-rule:evenodd;stroke:#000000;stroke-width:1.13939;stroke-linecap:round;stroke-miterlimit:3.7;stroke-dasharray:none;stroke-opacity:1"
         id="path7" /><path
         d="m -91.695312,437.14258 c -9.876778,0 -17.828128,7.95134 -17.828128,17.82812 v 87.20117 c 0,9.87679 7.95135,17.82813 17.828128,17.82813 h 89.1054682 c 9.876782,0 17.8281248,-7.95134 17.8281248,-17.82813 V 454.9707 c 0,-9.87678 -7.9513428,-17.82812 -17.8281248,-17.82812 z m 26.255859,31.31836 h 16.699219 c 6.328119,0 10.453127,0.25782 12.375,0.77343 2.953122,0.77344 5.425783,2.46095 7.417968,5.0625 1.992186,2.57813 2.988282,5.91797 2.988282,10.01954 0,3.16405 -0.57422,5.82422 -1.722657,7.98046 -1.148436,2.15626 -2.613283,3.85548 -4.394531,5.09766 -1.757811,1.21875 -3.550783,2.02735 -5.378906,2.42578 -2.484372,0.49219 -6.082036,0.73828 -10.792969,0.73828 h -6.785156 V 520 h -10.40625 z"
         style="fill:#c43f1e;fill-opacity:1;fill-rule:evenodd;stroke:#000000;stroke-width:1.13939;stroke-linecap:round;stroke-miterlimit:3.7;stroke-dasharray:none;stroke-opacity:1"
         id="path6" /></g></g></svg>
