<svg version="1.0" width="390" height="390" xmlns="http://www.w3.org/2000/svg"><g stroke="#000" fill-rule="evenodd" stroke-linecap="round" stroke-miterlimit="3.7"><g stroke-width=".593"><path d="M206.513 18.566a176.444 176.444 0 00-.073.007V211.46H93.19v23.925H76.852v-23.926H31.247a176.444 176.444 0 00175.266 159.996A176.444 176.444 0 00381.78 211.459H206.587V18.57a176.444 176.444 0 00-.074-.003z" fill="#d35330"/><path d="M206.587 18.57v192.89H381.78a176.444 176.444 0 001.178-16.45A176.444 176.444 0 00206.587 18.57z" fill="#ff8f6a"/><path d="M93.19 168.154v22.962h8.942c6.44 0 10.745-.423 12.916-1.27 2.172-.846 3.864-2.17 5.079-3.974 1.25-1.803 1.876-3.9 1.876-6.292 0-2.944-.864-5.373-2.594-7.286-1.73-1.914-3.919-3.11-6.568-3.588-1.95-.368-5.87-.552-11.757-.552z" fill="#f16e42"/><path d="M31.247 211.46h45.605v-56.995h26.219c9.935 0 16.412.405 19.43 1.214 4.636 1.215 8.518 3.864 11.646 7.949 3.128 4.048 4.691 9.291 4.691 15.731 0 4.968-.901 9.144-2.704 12.53-1.803 3.385-4.103 6.053-6.9 8.004-2.76 1.913-5.575 3.183-8.445 3.808-3.9.773-9.55 1.16-16.946 1.16H93.19v6.598h113.25V18.572A176.444 176.444 0 0030.07 195.011a176.444 176.444 0 001.177 16.448z" fill="#f16e42"/></g><g fill="#c43f1e" stroke-width="1.139"><path d="M-55.033 477.18v14.625h5.695c4.102 0 6.844-.27 8.227-.809 1.382-.539 2.46-1.383 3.234-2.531.797-1.149 1.195-2.485 1.195-4.008 0-1.875-.55-3.422-1.652-4.64-1.102-1.22-2.496-1.981-4.184-2.286-1.242-.234-3.738-.351-7.488-.351z" transform="matrix(1.57006 0 0 1.55484 179.598 -574.171)"/><path d="M-91.695 437.143a17.79 17.79 0 00-17.828 17.828v87.2A17.79 17.79 0 00-91.695 560H-2.59a17.79 17.79 0 0017.828-17.828V454.97A17.79 17.79 0 00-2.59 437.143zm26.256 31.318h16.699c6.328 0 10.453.258 12.375.773 2.953.774 5.426 2.461 7.418 5.063 1.992 2.578 2.988 5.918 2.988 10.02 0 3.163-.574 5.824-1.723 7.98-1.148 2.156-2.613 3.855-4.394 5.098-1.758 1.218-3.551 2.027-5.38 2.425-2.483.493-6.081.739-10.792.739h-6.785V520H-65.44z" transform="matrix(1.57006 0 0 1.55484 179.598 -574.171)"/></g></g></svg>