<?xml version="1.0" encoding="UTF-8" standalone="no"?>
<!-- Created with Inkscape (http://www.inkscape.org/) -->

<svg
   version="1.1"
   id="svg1"
   width="533.33331"
   height="533.33331"
   viewBox="0 0 533.33331 533.33331"
   sodipodi:docname="trovo.svg"
   inkscape:version="1.3.1 (91b66b0783, 2023-11-16)"
   xmlns:inkscape="http://www.inkscape.org/namespaces/inkscape"
   xmlns:sodipodi="http://sodipodi.sourceforge.net/DTD/sodipodi-0.dtd"
   xmlns="http://www.w3.org/2000/svg"
   xmlns:svg="http://www.w3.org/2000/svg">
  <defs
     id="defs1" />
  <sodipodi:namedview
     id="namedview1"
     pagecolor="#505050"
     bordercolor="#eeeeee"
     borderopacity="1"
     inkscape:showpageshadow="0"
     inkscape:pageopacity="0"
     inkscape:pagecheckerboard="0"
     inkscape:deskcolor="#505050"
     inkscape:zoom="0.76781253"
     inkscape:cx="98.982495"
     inkscape:cy="292.38908"
     inkscape:window-width="1920"
     inkscape:window-height="1017"
     inkscape:window-x="1912"
     inkscape:window-y="-8"
     inkscape:window-maximized="1"
     inkscape:current-layer="g1" />
  <g
     inkscape:groupmode="layer"
     inkscape:label="Image"
     id="g1">
    <path
       style="fill:#000000"
       d="m 273.11201,376.99655 c 3.6089,-0.79675 3.93043,-1.07007 1.41852,-1.2058 -6.9267,-0.3743 -21.17506,-4.63661 -30.26834,-9.05459 -15.58405,-7.57152 -28.00869,-21.67889 -33.86743,-38.45427 -4.53895,-12.99641 -5.39216,-35.83551 -1.97995,-52.99999 l 0.99398,-5 h -26.19023 c -23.42702,0 -26.28207,-0.23932 -27.06066,-2.2683 -0.99612,-2.59584 11.33128,-66.86602 13.31101,-69.39837 0.95954,-1.22738 7.86981,-1.66666 26.21819,-1.66666 17.83855,0 25.55683,-0.47339 27.17414,-1.66667 1.34022,-0.98884 4.18149,-8.6922 6.98623,-18.94136 2.60002,-9.50109 5.37166,-18.05109 6.15919,-19 1.10626,-1.33297 9.55642,-1.72531 37.15956,-1.72531 19.65023,0 36.67676,0.3642 37.83674,0.80932 2.93591,1.12662 2.70232,4.446 -1.44761,20.57093 -1.98832,7.72581 -3.2203,15.07581 -2.73774,16.33334 0.7949,2.07149 3.87545,2.28641 32.77151,2.28641 28.39137,0 32.20984,0.25626 34.76879,2.33334 l 2.87466,2.33333 -6.83387,33.33333 c -3.75863,18.33333 -7.61853,34.14469 -8.57757,35.13634 -1.44119,1.49021 -5.30481,1.5445 -22.27037,0.31297 -21.06509,-1.52913 -29.51639,-0.87512 -38.79622,3.00224 -20.10185,8.39909 -28.66523,40.0262 -15.68805,57.94068 6.8308,9.42964 20.67837,13.49798 31.10918,9.13971 5.47023,-2.28561 12.41831,-10.13807 13.55675,-15.32133 1.16917,-5.3232 -1.42643,-14.50125 -4.57804,-16.18794 -3.96725,-2.12321 -10.08035,-1.594 -12.50239,1.08232 -2.76874,3.05942 -2.78781,5.47193 -0.0739,9.34663 1.96808,2.80982 1.95212,3.24459 -0.20665,5.63 -7.72796,8.5393 -19.80197,-5.19008 -16.69122,-18.97963 2.37367,-10.52218 10.55259,-16.95111 23.10811,-18.16381 23.39806,-2.25995 40.14163,20.15839 33.7345,45.16787 -5.56175,21.70963 -24.5923,38.05511 -50.07751,43.01195 -10.35109,2.01327 -37.7906,4.13047 -29.33334,2.26332 z"
       id="path1" />
    <path
       style="opacity:0.921769;fill:#78e40c;fill-rule:evenodd;stroke:none;stroke-width:13.545;stroke-linecap:round"
       d="m 269.96348,374.5734 c -26.05456,-5.97475 -43.03903,-17.26795 -54.06584,-35.94907 -7.06154,-11.96335 -10.32285,-32.95571 -8.14406,-52.42165 0.74163,-6.62597 1.66597,-13.07286 2.05408,-14.32642 0.65511,-2.1159 -1.09691,-2.28063 -24.45332,-2.29914 -13.83744,-0.011 -25.96785,-0.53226 -26.95646,-1.15841 -2.21094,-1.40034 -1.81686,-4.43807 5.25391,-40.49849 2.87937,-14.68458 5.8422,-27.43183 6.58406,-28.32723 0.9571,-1.15517 6.88197,-1.66541 20.39981,-1.7568 10.47802,-0.0708 22.27438,-0.51041 26.21415,-0.9768 l 7.16321,-0.848 4.98081,-15.62882 c 6.91601,-21.70108 7.25071,-22.44888 10.42904,-23.30142 3.76399,-1.00963 67.81163,-1.01187 70.4421,-0.002 2.70654,1.03859 2.59896,4.6121 -0.54467,18.09428 -1.43264,6.1442 -2.60481,13.11637 -2.60481,15.49371 v 4.32244 l 8.00546,0.83673 c 4.403,0.46021 18.943,0.83674 32.3111,0.83674 19.00045,0 24.85747,0.40558 26.83378,1.85814 2.48002,1.82278 2.42048,2.38662 -3.12934,29.62963 -3.11161,15.27432 -6.62809,30.70189 -7.81441,34.28349 l -2.15693,6.51201 -25.39683,-0.46275 c -23.50844,-0.42834 -25.94955,-0.25345 -32.83054,2.35217 -14.8723,5.63167 -23.7993,20.33917 -23.77249,39.16587 0.0122,8.52809 0.53546,10.72201 4.03857,16.93122 5.03876,8.9311 14.09303,14.29676 24.12503,14.29676 7.90024,0 12.20333,-2.12891 18.58838,-9.19639 4.73004,-5.23559 4.90843,-5.76736 4.38095,-13.05953 -0.68051,-9.40809 -3.41259,-12.91719 -10.03497,-12.88898 -5.37258,0.0229 -6.98099,0.85515 -8.97312,4.64305 -1.0764,2.04672 -0.97859,3.56964 0.39989,6.22669 2.16014,4.16365 1.3922,6.92811 -2.24523,8.08259 -6.94965,2.20573 -13.46036,-7.19847 -12.42725,-17.95019 1.15317,-12.00136 10.9972,-19.76191 25.01576,-19.72125 21.66153,0.0628 35.93667,20.72958 30.08788,43.55959 -6.69695,26.14073 -30.16119,42.63465 -63.58348,44.69531 -6.60084,0.40698 -13.59079,0.004 -18.17422,-1.04662 z"
       id="path2" />
  </g>
</svg>
