<?xml version="1.0" encoding="UTF-8"?><svg width="48" height="48" version="1.1" viewBox="0 0 48 48" xmlns="http://www.w3.org/2000/svg"><g transform="matrix(4.8539 0 0 3.0244 -14.816 -.30288)"><path d="m9.2408 15.547c-0.54794 0.28802-1.0495 0.33854-1.5046 0.15158-0.4445-0.18132-0.76091-0.56454-0.94924-1.1497-0.11732-0.36451-0.15782-0.73575-0.12151-1.1137 0.03631-0.37797 0.14303-0.71444 0.32015-1.0094 0.17403-0.30456 0.3999-0.52984 0.67763-0.67582 0.28523-0.14993 0.5435-0.17914 0.7748-0.08763 0.23881 0.08756 0.40606 0.28002 0.50177 0.57739 0.0741 0.23022 0.09147 0.43417 0.05213 0.61186-0.1046-0.0796-0.22776-0.12141-0.36947-0.12543-0.1342-8e-3 -0.26511 0.02159-0.39271 0.08866-0.22518 0.11836-0.37821 0.31095-0.45908 0.57776-0.08087 0.26681-0.0719 0.55369 0.02689 0.86065 0.0988 0.30696 0.24662 0.52085 0.44348 0.64167 0.20436 0.11688 0.41163 0.12009 0.6218 0.0096 0.26271-0.13809 0.44004-0.40514 0.53199-0.80113 0.09194-0.396 0.09254-0.91221 0.0018-1.5486l-0.4605-3.4758-0.04504 0.02367c-0.08535 0.47104-0.24351 0.87941-0.4745 1.2251-0.22348 0.34177-0.50787 0.60341-0.85315 0.7849-0.43535 0.22884-0.86602 0.28137-1.292 0.15761-0.42598-0.12376-0.81703-0.41168-1.1732-0.86375-0.35171-0.46561-0.64488-1.0629-0.87952-1.7919-0.33961-1.0552-0.4682-2.1091-0.38577-3.1618 0.07934-1.0623 0.354-2.0085 0.82397-2.8388 0.23692-0.41853-1.8572-1.8112-1.5082-2.0753 1.2894-0.97599 2.9744 0.42988 3.3503 0.23228 0.63802-0.33536 1.198-0.42225 1.6801-0.26066 0.48954 0.15764 0.8331 0.54342 1.0307 1.1573 0.13276 0.41247 0.16046 0.78483 0.0831 1.1171-0.07736 0.33226-0.24364 0.56545-0.49885 0.6996-0.14262 0.07496-0.29008 0.10761-0.44238 0.09795-0.1448-0.01361-0.28163-0.07066-0.41051-0.17114 0.09806-0.18613 0.15199-0.42756 0.1618-0.72431 0.01422-0.31028-0.02035-0.59492-0.10371-0.85391-0.09262-0.28777-0.23118-0.47288-0.41569-0.55534-0.18009-0.096-0.39023-0.08087-0.63042 0.04539-0.43535 0.22884-0.77542 0.69918-1.0202 1.411-0.24787 0.70226-0.36754 1.5166-0.35899 2.4429 0.0085 0.92636 0.1533 1.826 0.43425 2.6989 0.23155 0.71942 0.49915 1.2236 0.80279 1.5126 0.30055 0.27941 0.61972 0.33034 0.95749 0.1528 0.40533-0.21305 0.67388-0.67384 0.80565-1.3824 0.13928-0.71247 0.13448-1.6408-0.01439-2.785l1.3332-0.68396 0.73411 5.2666c0.11033 0.78071 0.16441 1.4794 0.16225 2.0961-0.0012 0.33591 0.55715-1.5012 2.0951 0.5866 0.14102 0.19143-2.2168 0.8038-2.2677 1.007-0.21924 0.9003-0.67789 1.5339-1.376 1.9008z" fill="#f1b301" fill-rule="evenodd" stroke="#fff" stroke-linecap="round" stroke-miterlimit="3.7" stroke-width=".14421" aria-label="G"/></g></svg>