<?xml version="1.0" encoding="UTF-8" standalone="no"?><svg width="1280" height="400" version="1.1" viewBox="0 0 338.672 105.83" id="svg13" sodipodi:docname="shop-img.svg" inkscape:version="1.3.2 (091e20e, 2023-11-25, custom)" xmlns:inkscape="http://www.inkscape.org/namespaces/inkscape" xmlns:sodipodi="http://sodipodi.sourceforge.net/DTD/sodipodi-0.dtd" xmlns:xlink="http://www.w3.org/1999/xlink" xmlns="http://www.w3.org/2000/svg" xmlns:svg="http://www.w3.org/2000/svg"><sodipodi:namedview id="namedview13" pagecolor="#505050" bordercolor="#eeeeee" borderopacity="1" inkscape:showpageshadow="0" inkscape:pageopacity="0" inkscape:pagecheckerboard="0" inkscape:deskcolor="#505050" inkscape:zoom="0.67263533" inkscape:cx="659.34687" inkscape:cy="498.78439" inkscape:window-width="1920" inkscape:window-height="1017" inkscape:window-x="1912" inkscape:window-y="-8" inkscape:window-maximized="1" inkscape:current-layer="svg13" /><defs id="defs6"><linearGradient id="linearGradient47" inkscape:collect="always"><stop style="stop-color:#000000;stop-opacity:1;" offset="0" id="stop48" /><stop style="stop-color:#7e5f00;stop-opacity:1;" offset="0.19709544" id="stop52" /><stop style="stop-color:#ffc000;stop-opacity:1;" offset="0.46735039" id="stop50" /><stop style="stop-color:#000000;stop-opacity:1;" offset="0.75578457" id="stop51" /><stop style="stop-color:#fdbd00;stop-opacity:1;" offset="1" id="stop49" /></linearGradient><inkscape:path-effect effect="simplify" id="path-effect36" is_visible="true" lpeversion="1.3" threshold="74.551643" steps="22.995992" smooth_angles="360" helper_size="10" simplify_individual_paths="false" simplify_just_coalesce="false" /><rect x="161.89224" y="-68.331146" width="751.83795" height="75.73365" id="rect9" /><linearGradient id="linearGradient4" x1="125.84" x2="261.28" y1="49.047001" y2="104.89" gradientUnits="userSpaceOnUse"><stop offset="0" id="stop1" /><stop stop-opacity="0" offset="1" id="stop2" /></linearGradient><linearGradient id="linearGradient11721" x1="10.458" x2="204.64999" y1="26.288" y2="26.288" gradientUnits="userSpaceOnUse"><stop stop-color="#f1b300" offset="0" id="stop3" /><stop stop-color="#f1b300" stop-opacity="0" offset="1" id="stop4" /></linearGradient><linearGradient id="linearGradient11723" x1="8.7033005" x2="141.78999" y1="66.906998" y2="66.906998" gradientUnits="userSpaceOnUse" gradientTransform="translate(14.7418,77.603062)"><stop offset="0" id="stop5" /><stop stop-opacity="0" offset="1" id="stop6" /></linearGradient><linearGradient inkscape:collect="always" xlink:href="#linearGradient47" id="linearGradient49" x1="43.117706" y1="153.91893" x2="34.118908" y2="184.927" gradientUnits="userSpaceOnUse" gradientTransform="matrix(2.1043302,-0.58030975,0.59320539,1.9640785,-27.80173,-270.90985)" /><linearGradient inkscape:collect="always" xlink:href="#linearGradient47" id="linearGradient52" gradientUnits="userSpaceOnUse" x1="43.117706" y1="153.91893" x2="34.118908" y2="184.927" gradientTransform="matrix(2.0994128,-0.58031507,0.59181918,1.9640965,-27.733932,-242.33593)" /><linearGradient inkscape:collect="always" xlink:href="#linearGradient47" id="linearGradient54" x1="81.751472" y1="81.72216" x2="101.84618" y2="81.72216" gradientUnits="userSpaceOnUse" /></defs><path style="font-size:16.9336px;line-height:113.22%;font-family:'Playfair Display';-inkscape-font-specification:'Playfair Display, @wght=700';font-variation-settings:'wght' 700;letter-spacing:2.0188px;white-space:pre;opacity:0.114943;fill:url(#linearGradient52);fill-rule:evenodd;stroke:#f9f9f9;stroke-width:0.217729;stroke-linecap:round;stroke-miterlimit:3.7" d="M 3.4077721,82.283297 Q 4.7460684,80.272092 6.1862144,79.344408 7.6263529,78.416705 9.1394161,77.900083 9.6568779,77.70811 9.8143374,77.471541 10.188276,76.909598 8.4309968,75.645532 l 0.4526591,-0.680258 q 1.1796201,0.765436 2.9102811,1.809175 1.699406,1.025633 4.574967,2.691766 l -0.452659,0.680257 q -2.013134,-0.879573 -3.683615,-1.232769 -1.682056,-0.400889 -3.4498047,0.173067 -1.1912262,0.293318 -2.3060661,1.122635 -1.0951558,0.799749 -1.8036675,1.864499 -1.0824491,1.626692 -0.9435753,3.305369 0.107619,1.66057 1.1471541,3.287375 1.0395298,1.626807 2.7412383,3.104555 1.6704471,1.459622 3.7333492,2.65489 5.626097,3.259821 9.184719,3.313721 3.578295,0.02432 5.408616,-2.726288 0.472336,-0.709846 0.639058,-1.350875 0.166714,-0.641047 0.133157,-1.111267 -0.03704,-0.595173 -0.282439,-0.94226 -0.27668,-0.365207 -0.870538,-0.709295 l -3.063092,-1.774785 q -1.437785,-0.833075 -2.282868,-0.994889 -0.856653,-0.209487 -1.539701,0.296238 -0.683028,0.505805 -1.54088,1.7299 l -0.625126,-0.36221 q 0.444555,-0.602995 1.046557,-1.4426 0.590424,-0.887296 1.251468,-1.815627 0.629785,-0.946455 1.161171,-1.745006 0.826592,-1.242221 1.484165,-2.295508 0.657574,-1.053286 1.059295,-1.722081 l 0.625125,0.362211 q -0.342678,0.58007 -0.351953,0.984489 0.01043,0.374852 0.4943,0.819144 0.503565,0.414707 1.660037,1.084772 l 6.188708,3.585801 -0.393617,0.591532 q -0.551031,-0.278286 -1.313919,-0.433458 -0.743208,-0.184738 -1.038408,0.25895 -0.137778,0.207022 -0.248912,0.634385 -0.122723,0.379672 -0.157474,1.343055 -0.07182,1.474635 -0.409891,2.958911 -0.369326,1.46619 -1.254966,2.797116 -2.282977,3.430877 -5.201453,5.018271 -2.918484,1.58736 -6.225884,1.35119 Q 11.567531,101.84576 8.0355981,99.79934 4.4724024,97.734783 2.7522051,94.853 1.0516952,91.941669 1.1768044,88.694792 1.3215966,85.418347 3.4077689,82.283256 Z M 18.619351,58.964757 38.039058,74.232142 q 1.182073,0.929335 1.939116,0.887353 0.780978,-0.06865 1.61817,-1.003342 l 0.591034,0.464658 q -0.482621,0.485282 -1.419724,1.47794 -0.965254,0.970524 -1.898132,2.012015 -0.932881,1.041491 -1.833389,2.153951 -0.904738,1.063606 -1.354992,1.619835 l -0.591033,-0.464657 q 0.837201,-0.93466 0.749912,-1.640434 -0.06338,-0.732471 -1.245439,-1.661806 L 18.552218,65.465478 Q 17.285713,64.46978 16.359795,64.378972 15.429656,64.239351 14.54462,65.227446 l -0.591034,-0.464657 q 0.849872,-0.788181 1.567472,-1.589334 0.980717,-1.094906 1.781325,-2.149368 0.772458,-1.076595 1.316968,-2.05933 z m 31.824065,8.589646 q -1.341265,0.937415 -2.6063,1.090985 -1.26505,0.15351 -2.293124,-0.33113 -1.049915,-0.512455 -1.791617,-1.455173 -0.938036,-1.192259 -0.960727,-2.336704 0.0071,-1.165259 0.560256,-2.28238 0.553128,-1.117141 1.326567,-2.130411 0.803242,-1.034104 1.509083,-1.957134 0.713821,-0.97162 0.974726,-1.7556 0.268897,-0.832528 -0.232843,-1.470253 L 45.227882,52.76389 q -0.567186,-0.720911 -1.271732,-1.087957 -0.696563,-0.415635 -1.473033,-0.345667 -0.746658,0.04916 -1.581233,0.632404 -0.596117,0.41663 -1.061349,0.999618 -0.487042,0.555271 -0.590928,1.186525 1.052749,-0.305891 1.957912,-0.03622 0.913192,0.221243 1.480379,0.942154 0.741702,0.942718 0.462659,1.997224 -0.249245,1.033653 -1.203033,1.700259 -1.07301,0.749945 -2.119234,0.535793 -1.038246,-0.262761 -1.736322,-1.150027 -0.632625,-0.804079 -0.629838,-1.62254 0.0326,-0.839281 0.436707,-1.852268 0.485535,-1.026902 1.451632,-2.088873 0.995902,-1.082805 2.366972,-2.041056 1.371077,-0.958232 2.692042,-1.451732 1.299147,-0.521238 2.58967,-0.348828 1.18728,0.158608 2.137624,0.955505 0.92853,0.769179 2.041087,2.183265 l 5.933625,7.541763 q 0.545375,0.693195 0.912549,0.8663 0.345365,0.14539 0.703048,-0.104546 0.268233,-0.187551 0.397628,-0.492767 0.159176,-0.32613 0.304533,-0.728527 l 0.66891,0.263043 q -0.233257,0.936551 -0.849676,1.797098 -0.608426,0.811996 -1.621825,1.520272 -1.10282,0.770759 -1.976698,0.951782 -0.895684,0.153326 -1.586422,-0.137491 -0.660916,-0.311594 -1.184475,-0.977054 0.113623,1.553591 -0.419853,2.871855 -0.555294,1.290528 -2.01578,2.311284 z m 0.720073,-3.253569 q 0.596116,-0.416631 0.876676,-0.999487 0.288552,-0.631405 0.255715,-1.553873 l -4.472037,-5.684062 q 0.05898,0.603389 -0.156144,1.269432 -0.215117,0.666023 -0.468035,1.401431 -0.274729,0.707692 -0.454206,1.477737 -0.149671,0.749211 0.03219,1.567525 0.181868,0.818314 0.858123,1.677844 0.850778,1.081357 1.771963,1.25405 0.92118,0.172673 1.755738,-0.410636 z M 67.529458,38.177808 q 1.491937,-0.416654 2.704539,-0.35809 1.237923,0.01512 1.836406,0.208672 1.440447,0.427312 1.188611,-1.413356 l 0.746011,-0.208188 q 0.212142,0.950372 0.591288,2.322865 0.369027,1.339246 1.046661,3.565901 l -0.746016,0.208171 q -0.551838,-1.180076 -1.413278,-2.237697 -0.861442,-1.057621 -2.053219,-1.554331 -1.156258,-0.506635 -2.64829,-0.0903 -1.030372,0.286942 -1.568759,1.050726 -0.548672,0.72999 -0.23514,1.760232 0.303422,0.997014 1.175479,1.58295 0.861949,0.55271 2.069025,0.97304 1.23249,0.3772 2.566363,0.834248 1.425156,0.503711 2.637163,1.066893 1.201897,0.529955 2.063592,1.33512 0.861694,0.805167 1.266249,2.134506 0.455129,1.495513 -0.124639,2.88319 -0.589879,1.354451 -1.935377,2.378932 -1.309978,1.014556 -3.157248,1.530047 -1.065923,0.296768 -1.978989,0.33596 -0.877746,0.0286 -1.572691,-0.101988 -0.522502,-0.07054 -0.999365,-0.117742 -0.451448,-0.09034 -0.847151,-0.124155 -0.38561,-6.46e-4 -0.56864,0.41108 -0.147536,0.401721 -0.107583,1.039578 l -0.746015,0.208171 q -0.252596,-1.083295 -0.682307,-2.621941 -0.429716,-1.538664 -1.198372,-4.064419 l 0.746015,-0.20817 q 0.759293,1.735121 1.752471,2.972331 0.983061,1.203964 2.184956,1.733919 1.227305,0.486804 2.719331,0.07045 0.60392,-0.168509 1.101514,-0.559758 0.497593,-0.391248 0.691013,-1.022124 0.228947,-0.640781 -0.0239,-1.471625 -0.444998,-1.46227 -1.768522,-2.138564 -1.287988,-0.686204 -3.194939,-1.379975 -1.399742,-0.546842 -2.682803,-1.090214 -1.257646,-0.586503 -2.200501,-1.405066 -0.952973,-0.851807 -1.347416,-2.14792 -0.455128,-1.495514 0.08394,-2.763661 0.539053,-1.268166 1.772797,-2.153288 1.259161,-0.928252 2.857761,-1.374346 z m 27.668029,-8.317583 -0.208913,5.686239 4.355878,0.08991 -0.02553,0.693454 -4.355867,-0.08992 -0.514623,14.00757 q -0.03818,1.040171 0.351293,1.499281 0.390768,0.424457 1.20288,0.441213 0.66447,0.01378 1.345444,-0.423395 0.682284,-0.471687 1.241116,-1.605212 l 0.616081,0.32501 q -0.647951,1.548058 -1.903051,2.528405 -1.218197,0.98112 -3.28541,0.938358 -1.218163,-0.02513 -2.129554,-0.356236 -0.912669,-0.296431 -1.518556,-0.898815 -0.784089,-0.779552 -1.001723,-1.894388 -0.216375,-1.149523 -0.150127,-2.952475 l 0.430548,-11.719196 -3.100788,-0.06401 0.02546,-0.693453 3.100791,0.06401 0.168144,-4.576725 q 1.550399,0.03201 2.851304,-0.184038 1.339103,-0.249939 2.505062,-0.815851 z m 23.246243,8.748298 q 2.602,0.633135 4.30095,2.016774 1.69895,1.383657 2.22287,3.667232 0.5239,2.283574 -0.43483,5.607856 -0.95874,3.324284 -2.64475,5.070132 -1.67634,1.712257 -3.89824,2.141852 -2.22186,0.429692 -4.8239,-0.203521 -2.53072,-0.615799 -4.26532,-2.008115 -1.69894,-1.383638 -2.26819,-3.64232 -0.5239,-2.283575 0.43483,-5.607857 0.95874,-3.324264 2.64476,-5.070113 1.72166,-1.737168 3.94355,-2.166782 2.25758,-0.420838 4.78827,0.194862 z m -0.19369,0.671566 q -1.42576,-0.346904 -2.96921,1.43362 -1.53374,1.746973 -2.83143,6.246495 -1.29769,4.499519 -0.90667,6.714826 0.39102,2.215325 1.8168,2.56225 1.46139,0.355584 2.9595,-1.400048 1.53376,-1.746954 2.83144,-6.246494 1.2977,-4.499521 0.90666,-6.714827 -0.34568,-2.240218 -1.80709,-2.595822 z m 30.24661,9.293262 q 1.432,0.543312 2.16221,1.233605 0.7785,0.671072 1.03423,1.44431 0.27562,0.81836 0.0882,1.874222 -0.15341,1.06882 -0.87789,2.709887 l -3.82131,8.655756 q -0.59664,1.351447 -0.3324,2.015221 0.29836,0.67671 1.49168,1.129481 l -0.29832,0.675724 q -0.6336,-0.277952 -1.91501,-0.801716 -1.2672,-0.555926 -2.52873,-1.034569 -1.29561,-0.491582 -2.58555,-0.905881 -1.24162,-0.433524 -1.90364,-0.647133 l 0.29832,-0.675723 q 1.02286,0.388082 1.64509,0.06067 0.6222,-0.32752 1.21886,-1.678888 l 4.41795,-10.007225 q 0.35514,-0.804431 0.44036,-1.448315 0.0994,-0.676047 -0.20176,-1.165991 -0.28698,-0.522127 -1.17344,-0.858481 -0.92057,-0.34927 -1.91783,-0.164139 -0.96317,0.198145 -1.82408,0.88574 -0.81258,0.668448 -1.28137,1.730316 l -3.94916,8.945355 q -0.59664,1.351447 -0.40058,1.989346 0.23015,0.650838 1.21891,1.026003 l -0.29832,0.675723 q -0.5995,-0.265035 -1.77863,-0.749986 -1.13083,-0.504176 -2.39233,-0.98282 -1.29563,-0.491581 -2.68784,-0.944673 -1.37801,-0.485274 -2.07412,-0.71182 l 0.29831,-0.675743 q 1.19333,0.452769 1.88375,0.151221 0.72453,-0.288571 1.32114,-1.640077 l 4.47478,-10.135931 q 0.63925,-1.447993 0.46025,-2.30482 -0.13071,-0.876094 -1.39224,-1.354717 l 0.29832,-0.675742 q 1.04842,0.510503 2.07128,0.898584 1.432,0.543332 2.70203,0.912492 1.31835,0.349936 2.47473,0.52572 l -1.27849,2.895986 q 1.57686,-1.31765 3.34126,-1.437125 1.76442,-0.119456 3.57146,0.566166 z m 24.63858,9.911642 q 2.60457,1.125542 3.29714,3.879777 0.74174,2.737136 -1.34226,6.899872 -1.64194,3.279746 -3.70512,4.804739 -2.02978,1.539442 -4.20823,1.672086 -2.17844,0.132643 -4.24874,-0.762022 -1.36907,-0.591639 -2.31676,-1.538187 -0.94768,-0.946567 -1.27728,-2.31646 l 0.54641,0.04429 q 0.25373,0.953518 0.88146,1.646734 0.66113,0.707646 1.46255,1.05398 1.83655,0.793657 3.71699,-0.77197 1.88043,-1.565607 3.88549,-5.570671 1.35775,-2.712103 1.77984,-4.447624 0.47127,-1.752626 0.13497,-2.703491 -0.32051,-0.982396 -1.25549,-1.38643 -1.16871,-0.505061 -2.59493,-0.009 -1.41042,0.464548 -2.34918,2.015139 l 0.38563,-1.175904 q 1.50096,-1.5378 3.39465,-1.831866 1.90954,-0.325482 3.81285,0.496935 z m -1.14621,-10.123317 -12.03037,24.030386 q -0.77165,-0.486903 -1.70299,-0.735938 -0.93134,-0.249035 -1.82385,-0.251143 -0.87671,-0.03363 -1.58282,0.159883 l -0.3588,-0.500278 q 0.3546,-0.383787 0.60903,-0.810843 0.28782,-0.412646 0.50883,-0.854151 l 9.67798,-19.33154 q 0.71045,-1.419121 0.57452,-2.283386 -0.0867,-0.881391 -1.32226,-1.41529 l 0.33153,-0.662268 q 1.02119,0.556376 2.02294,0.989288 1.36908,0.591621 2.65195,1.030937 1.29865,0.407763 2.44431,0.634343 z m 29.89792,24.328448 -7.23995,12.927169 q -0.77755,1.388349 -0.70065,2.288851 0.0942,0.869638 1.26939,1.439839 l -0.36286,0.647904 q -0.96016,-0.583562 -1.97217,-1.074559 -1.37109,-0.66523 -2.59815,-1.142865 -1.22708,-0.477658 -2.40996,-0.737673 l 1.55512,-2.776722 q -1.64743,1.162496 -3.43133,1.160184 -1.73395,-0.01733 -3.43151,-0.840939 -1.37111,-0.665249 -2.02979,-1.416417 -0.65871,-0.751189 -0.85466,-1.513273 -0.22668,-0.85546 0.0805,-1.922755 0.30714,-1.067293 1.15382,-2.579067 l 4.3716,-7.805664 q 0.77757,-1.38835 0.68338,-2.25801 -0.0442,-0.884652 -1.25211,-1.470681 l 0.36286,-0.647904 q 0.99281,0.59939 1.97216,1.07456 1.3711,0.665229 2.59817,1.142866 1.277,0.462642 2.40994,0.737673 l -7.15352,12.772902 q -0.43199,0.771308 -0.62971,1.420863 -0.16507,0.665403 0.0692,1.210683 0.2516,0.51442 1.06773,0.910407 0.88143,0.427644 1.82615,0.297463 0.97737,-0.114412 1.85103,-0.710595 0.92357,-0.611274 1.49378,-1.629411 l 4.52712,-8.083332 q 0.77755,-1.388371 0.68338,-2.258011 -0.0442,-0.884652 -1.25213,-1.470701 l 0.36287,-0.647903 q 0.9928,0.59941 1.97217,1.074579 1.3711,0.665229 2.59816,1.142865 1.27699,0.462624 2.40996,0.737674 z m 16.61656,5.846735 q 1.12204,0.33562 1.66078,1.008161 0.55035,0.639501 0.62214,1.428096 0.10681,0.799059 -0.16022,1.559367 -0.42958,1.223096 -1.47963,1.785714 -1.00337,0.540058 -2.23062,0.172961 -1.22724,-0.367076 -1.73114,-1.138798 -0.45724,-0.794284 -0.12054,-1.752937 0.32508,-0.925592 0.95483,-1.394755 0.67644,-0.491726 1.49358,-0.722195 -0.44446,-0.279044 -0.9934,-0.260604 -0.70106,-0.100096 -1.44807,0.151332 -0.73547,0.21819 -1.37677,0.72061 -0.62975,0.469162 -1.13063,1.122982 -0.48926,0.620778 -0.72145,1.281907 l -3.0767,8.760016 q -0.55729,1.586721 0.0518,2.389901 0.64416,0.813677 2.29216,1.306618 l -0.2438,0.694189 q -0.79486,-0.274272 -2.32606,-0.768796 -1.51961,-0.527607 -3.20267,-1.031026 -1.40256,-0.41953 -2.86341,-0.783418 -1.44924,-0.396968 -2.19719,-0.584161 l 0.24382,-0.694189 q 1.22724,0.367096 1.89228,0.01807 0.70009,-0.338625 1.18774,-1.726905 l 3.6572,-10.412839 q 0.52245,-1.487559 0.27537,-2.328591 -0.20039,-0.863576 -1.49777,-1.251648 l 0.24381,-0.694188 q 1.08722,0.434801 2.13914,0.749442 1.47269,0.440488 2.76982,0.718901 1.34381,0.255832 2.51206,0.349571 l -1.07974,3.074261 q 0.73425,-0.766667 1.69095,-1.284162 0.95669,-0.517475 2.00766,-0.64155 1.06258,-0.157118 2.18464,0.17858 z m 22.33422,2.706851 -0.0673,0.691456 q -0.7157,0.121022 -1.40498,0.731514 -0.6859,0.575903 -1.42259,2.053465 l -6.51979,13.306117 -1.59667,2.319138 -6.35169,-17.708608 q -0.49398,-1.394753 -1.09233,-1.717723 -0.5582,-0.354815 -0.99959,-0.387574 l 0.0707,-0.726025 q 1.2037,0.193769 2.48436,0.358441 1.32079,0.132809 2.53461,0.222887 1.50807,0.111894 2.76541,0.135519 1.25733,0.02365 2.36754,0.03639 l -0.0707,0.726025 q -0.73564,-0.05458 -1.40783,1.7e-5 -0.63203,0.02279 -0.92992,0.418536 -0.25774,0.363928 0.0893,1.36474 l 3.61088,10.854055 -0.35126,0.182839 3.41894,-6.954662 q 0.88072,-1.81508 0.88485,-2.998751 0.007,-1.21826 -0.63411,-1.857853 -0.63824,-0.674161 -1.84532,-0.833361 l 0.0674,-0.691473 q 0.58514,0.07824 1.20709,0.159217 0.62529,0.0464 1.24723,0.127356 0.62528,0.0464 1.10346,0.08189 0.73564,0.05458 1.54823,0.08006 0.81257,0.02546 1.29411,0.02638 z m -9.41471,16.782552 -1.75805,3.595578 q -0.45201,0.83705 -0.91386,1.39478 -0.42844,0.59502 -0.94364,0.93985 -0.55538,0.37665 -1.38479,0.52406 -0.8328,0.1819 -1.89947,0.10282 -0.88277,-0.0655 -1.81217,-0.41303 -0.89263,-0.34482 -1.45731,-1.01353 -0.56468,-0.66871 -0.47041,-1.63676 0.10444,-1.07176 0.97759,-1.668596 0.86983,-0.562273 2.19397,-0.464112 1.21381,0.09006 1.93236,0.700538 0.71856,0.61049 0.61419,1.68224 -0.0673,0.69147 -0.60614,1.27829 -0.502,0.58958 -1.45187,0.8325 0.18053,0.0482 0.43799,0.0672 0.25746,0.019 0.40462,0.0301 1.10347,0.0819 2.01343,-0.51228 0.90997,-0.59414 1.59977,-1.97067 l 1.63422,-3.465511 z m 30.07561,-26.153149 q 2.14686,-0.376639 3.39372,-0.137795 1.24052,0.204762 2.16624,0.53518 0.48105,0.161991 0.76115,0.253657 0.31009,0.0511 0.56482,0.0064 0.36389,-0.06378 0.43963,-0.464336 0.11215,-0.406898 0.0818,-1.175972 l 0.83689,-0.146864 q 0.0842,0.654069 0.18268,1.587208 0.12856,0.892666 0.36496,2.364829 0.2728,1.46578 0.71689,3.851934 l -0.83691,0.146864 q -0.47544,-1.747047 -1.51403,-3.289665 -1.03862,-1.542635 -2.58161,-2.363159 -1.51295,-0.860982 -3.44148,-0.522648 -1.74659,0.306404 -2.7033,1.424716 -0.95672,1.118273 -0.6522,2.754502 0.25378,1.36351 1.16548,2.224382 0.90539,0.826791 2.45939,1.50457 1.5904,0.671401 3.83277,1.61563 1.94325,0.750292 3.52263,1.564419 1.57938,0.814148 2.66371,1.996738 1.08434,1.182608 1.42691,3.023343 0.41871,2.249801 -0.58205,3.939021 -0.96437,1.682841 -2.86248,2.790286 -1.90447,1.073349 -4.34241,1.501067 -2.25601,0.395812 -3.67846,0.222955 -1.42247,-0.172857 -2.41462,-0.456382 -0.88933,-0.336795 -1.32598,-0.260184 -0.3639,0.06378 -0.47602,0.470735 -0.0758,0.400503 -0.0453,1.169573 l -0.8369,0.146865 q -0.0794,-0.830888 -0.2825,-1.921704 -0.16663,-1.097189 -0.49016,-2.835672 -0.29351,-1.778958 -0.79469,-4.471903 l 0.83689,-0.146865 q 0.56425,2.224273 1.58719,4.086457 1.05297,1.821733 2.65774,2.772209 1.64114,0.944099 3.96992,0.535533 1.27353,-0.223514 2.17987,-0.804897 0.93637,-0.621898 1.39635,-1.582629 0.45999,-0.960712 0.22525,-2.221972 -0.26645,-1.431688 -1.19086,-2.36075 -0.88803,-0.935421 -2.29649,-1.63875 -1.37206,-0.709687 -3.15073,-1.383258 -1.90688,-0.756688 -3.59541,-1.551662 -1.68855,-0.794996 -2.85199,-1.998908 -1.12707,-1.210309 -1.47599,-3.085139 -0.39968,-2.14755 0.47456,-3.708968 0.90429,-1.601891 2.6395,-2.575137 1.76526,-1.01372 3.87571,-1.384001 z m 17.68549,-6.482007 4.32375,11.166437 q 0.2147,-1.99318 1.42206,-3.155159 1.22951,-1.206658 3.07031,-1.853721 1.49347,-0.524953 2.53475,-0.48535 1.02873,0.0072 1.77595,0.408343 0.82924,0.409193 1.44943,1.29754 0.65493,0.876151 1.29596,2.531643 l 3.38106,8.731872 q 0.52793,1.363346 1.20269,1.679325 0.7095,0.303781 1.92511,-0.123515 l 0.26406,0.681634 q -0.67271,0.198717 -2.03958,0.643142 -1.34497,0.399006 -2.59533,0.83846 -1.35454,0.476123 -2.61448,0.992798 -1.23779,0.471936 -1.85036,0.724243 l -0.26395,-0.681668 q 1.04195,-0.36631 1.2702,-0.999689 0.22825,-0.633417 -0.29965,-1.99675 l -3.90896,-10.095224 q -0.31424,-0.811514 -0.71413,-1.33477 -0.41248,-0.555697 -1.02441,-0.709381 -0.58977,-0.198362 -1.45807,0.106864 -0.93775,0.32964 -1.54806,1.097343 -0.58814,0.723046 -0.74758,1.737942 -0.12472,1.002698 0.30262,2.106353 l 3.50677,9.056495 q 0.5279,1.363332 1.13321,1.70374 0.60533,0.34041 1.64728,-0.02586 l 0.26393,0.681669 q -0.63783,0.186951 -1.86591,0.582158 -1.24083,0.362135 -2.49108,0.801982 -1.35453,0.476125 -2.71868,1.029409 -1.34197,0.508607 -2.02404,0.785249 l -0.26393,-0.681668 q 1.21561,-0.427296 1.51332,-1.085147 0.33244,-0.670029 -0.19546,-2.033381 l -7.15178,-18.470053 q -0.56561,-1.460717 -1.3158,-1.971466 -0.72803,-0.555408 -2.01311,-0.103678 l -0.26396,-0.681682 q 1.1491,-0.293377 2.1911,-0.65949 1.42399,-0.500637 2.67137,-1.049674 1.23481,-0.58158 2.2235,-1.187283 z m 22.27773,-1.476946 q 2.04349,-1.675552 4.23372,-2.236012 2.19023,-0.560524 4.50387,0.287901 2.31358,0.848352 4.6992,3.422178 2.38561,2.573827 2.96366,4.845262 0.55401,2.245425 -0.33505,4.209794 -0.88898,1.964371 -2.93248,3.639924 -1.98751,1.629649 -4.20575,2.213066 -2.1902,0.560517 -4.50774,-0.238956 -2.31362,-0.848365 -4.69923,-3.422192 -2.3856,-2.573807 -2.96364,-4.845248 -0.55011,-2.294376 0.33895,-4.258744 0.91698,-1.987322 2.90449,-3.616973 z m 0.48194,0.519962 q -1.11972,0.918112 -0.4297,3.097749 0.66493,2.15389 3.89491,5.637375 3.22902,3.48377 5.40656,4.397946 2.17753,0.91417 3.29726,-0.0039 1.14772,-0.941062 0.45381,-3.071749 -0.66494,-2.15389 -3.89492,-5.637374 -3.22903,-3.483771 -5.40657,-4.397941 -2.17365,-0.963122 -3.32135,-0.02206 z m 12.07345,-13.872575 18.12842,12.34826 q 1.3968,0.951426 2.36897,0.579229 1.00186,-0.352038 1.9231,-1.534631 l 0.6241,0.425089 q -0.59999,0.71192 -1.66836,1.966779 -1.01672,1.246925 -2.13533,2.68306 -0.81153,1.041903 -1.57143,2.075898 -0.70822,1.026073 -1.07331,1.553188 l -0.62409,-0.425114 q 0.7238,-0.929248 0.59287,-1.578726 -0.10891,-0.677672 -1.29774,-1.487372 L 314.42507,57.045682 q -1.33737,-0.910919 -2.26852,-0.941791 -0.96089,-0.05113 -1.75049,0.962618 l -0.62409,-0.425095 q 0.79104,-0.840386 1.44903,-1.685171 0.89926,-1.15454 1.62165,-2.257167 0.69267,-1.122882 1.16458,-2.137529 z m 3.31052,-4.425471 q 1.11859,-1.436128 2.82806,-1.995697 1.67974,-0.579846 3.87041,-0.12205 2.16094,0.437541 4.62757,2.117703 2.16947,1.47775 3.43114,3.069836 1.28359,1.56392 1.73296,3.206108 0.44157,1.593771 0.0631,3.189252 -0.35655,1.567318 -1.51903,3.05977 -0.85538,1.098222 -1.97333,1.715925 -1.08821,0.637956 -2.20405,0.610581 l -0.16646,-0.544888 q 0.75427,0.08277 1.44625,-0.221684 0.71391,-0.332658 1.24032,-1.008431 0.98702,-1.267201 0.66572,-2.606641 -0.35102,-1.359671 -1.74428,-2.782804 -1.40105,-1.471514 -3.68939,-3.030237 -2.55581,-1.7409 -4.25331,-2.423059 -1.69747,-0.682139 -2.73829,-0.572228 -1.04086,0.109838 -1.63304,0.870238 -0.78961,1.013758 -0.61549,2.425347 0.19603,1.38345 1.65369,2.548715 l -1.14981,-0.567711 q -1.29916,-1.660725 -1.21795,-3.458619 0.0735,-1.84632 1.34565,-3.479573 z" id="text9-7" aria-label="Glastonbury Shop" /><path style="font-size:16.9336px;line-height:113.22%;font-family:'Playfair Display';-inkscape-font-specification:'Playfair Display, @wght=700';font-variation-settings:'wght' 700;letter-spacing:2.0188px;white-space:pre;fill:url(#linearGradient49);fill-rule:evenodd;stroke:#f9f9f9;stroke-width:0.217983;stroke-linecap:round;stroke-miterlimit:3.7" d="m 3.4129182,53.706393 q 1.3414311,-2.011186 2.7849504,-2.938861 1.4435119,-0.927696 2.9601192,-1.444314 0.518674,-0.191969 0.6765023,-0.428537 0.3748139,-0.561938 -1.3865809,-1.825992 l 0.4537194,-0.680252 q 1.1823834,0.765429 2.9170974,1.809159 1.703387,1.025624 4.585683,2.691741 l -0.453719,0.680251 q -2.017848,-0.879565 -3.692242,-1.232758 -1.685997,-0.400885 -3.4578863,0.173066 -1.1940165,0.293315 -2.3114677,1.122626 -1.097721,0.799739 -1.8078923,1.864479 -1.0849846,1.626679 -0.9457855,3.30534 0.107871,1.660555 1.1498412,3.287346 1.0419647,1.626792 2.7476592,3.104526 1.6743599,1.459609 3.7420944,2.654866 5.639275,3.25979 9.206232,3.31369 3.586677,0.02431 5.421286,-2.726264 0.473442,-0.709839 0.640555,-1.350861 0.167105,-0.641042 0.133469,-1.111256 -0.03712,-0.59517 -0.283101,-0.942253 -0.277328,-0.365203 -0.872576,-0.709288 l -3.070268,-1.774769 q -1.441153,-0.833067 -2.288215,-0.994879 -0.85866,-0.209487 -1.543308,0.296235 -0.684628,0.5058 -1.54449,1.729883 L 16.548006,61.21711 q 0.445596,-0.602989 1.049008,-1.442586 0.591806,-0.887288 1.2544,-1.81561 0.631259,-0.946446 1.163891,-1.744991 0.828528,-1.24221 1.48764,-2.295486 0.659114,-1.053277 1.061777,-1.722065 l 0.62659,0.362207 q -0.343482,0.580064 -0.352777,0.98448 0.01045,0.374849 0.495456,0.819137 0.504745,0.414702 1.663927,1.084762 l 6.203204,3.585767 -0.394539,0.591527 q -0.552323,-0.278283 -1.316997,-0.433453 -0.74495,-0.184738 -1.04084,0.258946 -0.138102,0.207021 -0.249495,0.63438 -0.123011,0.379668 -0.157844,1.343043 -0.07199,1.474621 -0.410851,2.958883 -0.370191,1.466177 -1.257906,2.797092 -2.288324,3.430845 -5.213636,5.018219 -2.92532,1.587354 -6.240468,1.351183 Q 11.591791,73.268682 8.0515844,71.222272 4.4800423,69.157737 2.7558157,66.275982 1.0513226,63.364677 1.1767247,60.11783 1.321855,56.841415 3.412915,53.706351 Z M 18.660129,30.388066 38.125323,45.655313 q 1.184842,0.929325 1.943659,0.887344 0.782807,-0.06865 1.62196,-1.003331 l 0.592419,0.464652 q -0.483751,0.485277 -1.42305,1.477927 -0.967515,0.970515 -1.902578,2.011996 -0.935067,1.041482 -1.837683,2.153931 -0.906858,1.063596 -1.358166,1.619821 L 35.169465,52.803 q 0.839163,-0.934652 0.751669,-1.64042 -0.06352,-0.732463 -1.248356,-1.66179 L 18.592838,36.888728 q -1.26947,-0.995688 -2.197558,-1.086497 -0.932319,-0.139619 -1.819427,0.848467 l -0.592419,-0.464652 q 0.851863,-0.788174 1.571143,-1.589319 0.983016,-1.094897 1.785498,-2.149348 0.774269,-1.076587 1.320054,-2.059313 z m 31.898608,8.589568 q -1.344407,0.937407 -2.612404,1.090974 -1.268014,0.15351 -2.298496,-0.331127 -1.052374,-0.512449 -1.795813,-1.455158 -0.940234,-1.19225 -0.962978,-2.336682 0.0071,-1.165248 0.561568,-2.28236 0.554425,-1.117131 1.329674,-2.130391 0.805124,-1.034095 1.512617,-1.957117 0.715494,-0.971612 0.97701,-1.755583 0.269528,-0.832522 -0.233388,-1.470239 l -1.705541,-2.162695 q -0.568515,-0.720905 -1.27471,-1.087946 -0.698195,-0.415631 -1.476484,-0.345663 -0.748406,0.04916 -1.584937,0.632397 -0.597513,0.416627 -1.063834,0.999609 -0.488183,0.555266 -0.592313,1.186515 1.055215,-0.305889 1.962499,-0.03622 0.915331,0.221242 1.483846,0.942146 0.743439,0.942709 0.463742,1.997206 -0.249828,1.033642 -1.20585,1.700244 -1.075524,0.749937 -2.124199,0.535787 -1.040678,-0.262759 -1.740387,-1.150016 -0.63411,-0.804072 -0.631315,-1.622526 0.03268,-0.839272 0.437731,-1.85225 0.48667,-1.026893 1.455031,-2.088855 0.998234,-1.082795 2.372518,-2.041037 1.374287,-0.958223 2.698346,-1.45172 1.302191,-0.521232 2.595736,-0.348823 1.190062,0.158607 2.142631,0.955495 0.930706,0.769173 2.045869,2.183246 l 5.947522,7.541693 q 0.546653,0.693189 0.914688,0.866293 0.346172,0.145388 0.704694,-0.104546 0.268862,-0.187547 0.398559,-0.492762 0.159549,-0.326127 0.305247,-0.728521 l 0.670477,0.263041 q -0.233803,0.936542 -0.851667,1.797081 -0.60985,0.81199 -1.625623,1.520258 -1.105404,0.770754 -1.981328,0.951775 -0.897782,0.153324 -1.590138,-0.137492 -0.662465,-0.31159 -1.18725,-0.977043 0.11389,1.553577 -0.420836,2.871828 -0.556594,1.290517 -2.020502,2.311262 z m 0.721759,-3.253539 q 0.597514,-0.416628 0.87873,-0.999478 0.289228,-0.6314 0.256315,-1.553858 l -4.482513,-5.684011 q 0.05911,0.603384 -0.15651,1.26942 -0.215622,0.666018 -0.469131,1.40142 -0.275372,0.707685 -0.45527,1.477723 -0.150024,0.749203 0.03227,1.56751 0.182295,0.818306 0.860134,1.677829 0.85277,1.081347 1.776113,1.254038 0.923338,0.17267 1.759851,-0.410632 z M 67.684802,9.6013074 q 1.495431,-0.4166495 2.710874,-0.3580856 1.240822,0.015118 1.840706,0.2086685 1.443822,0.4273094 1.191396,-1.4133412 l 0.747758,-0.2081874 q 0.21264,0.950364 0.592672,2.3228433 0.369893,1.339234 1.049114,3.56587 l -0.747763,0.208168 q -0.55313,-1.180065 -1.416589,-2.237676 -0.863459,-1.057613 -2.058029,-1.554317 -1.158967,-0.5066296 -2.654493,-0.0903 -1.032785,0.286938 -1.572434,1.050716 -0.549956,0.729983 -0.235691,1.760214 0.304133,0.997006 1.178235,1.582938 0.863966,0.552703 2.073869,0.973031 1.235377,0.377195 2.572375,0.834239 1.428494,0.503706 2.643341,1.066883 1.204711,0.529951 2.068424,1.335109 0.863714,0.805158 1.269217,2.134486 0.456195,1.4955 -0.124932,2.883164 -0.59126,1.354437 -1.93991,2.378909 -1.313047,1.014547 -3.164644,1.530033 -1.06842,0.296765 -1.983624,0.335959 -0.879802,0.0286 -1.576375,-0.101988 -0.523725,-0.07054 -1.001706,-0.117741 -0.452505,-0.09033 -0.849136,-0.124154 -0.386512,-6.46e-4 -0.569972,0.411075 -0.147881,0.401718 -0.107834,1.03957 l -0.747763,0.208168 Q 66.6187,28.142273 66.187983,26.603643 65.757259,25.064992 64.986803,22.53926 l 0.747764,-0.208168 q 0.761071,1.735104 1.756576,2.972303 0.985363,1.203953 2.190074,1.733903 1.23018,0.4868 2.725699,0.07045 0.605335,-0.168507 1.104095,-0.559752 0.498758,-0.391246 0.692632,-1.022116 0.229484,-0.640776 -0.02396,-1.471611 -0.446041,-1.462256 -1.772665,-2.138544 -1.291005,-0.686197 -3.202423,-1.379963 -1.40302,-0.546838 -2.689087,-1.090204 -1.260592,-0.586498 -2.205655,-1.405052 -0.955204,-0.8518 -1.350572,-2.147903 -0.456195,-1.495498 0.08412,-2.763634 0.540316,-1.268154 1.776951,-2.153268 1.262109,-0.928245 2.864454,-1.3743347 z M 95.417635,1.2838013 95.208243,6.969989 99.574314,7.0599 99.548844,7.7533473 95.182769,7.6634373 94.666944,21.670879 q -0.0383,1.04016 0.352107,1.499266 0.39169,0.424454 1.205697,0.44121 0.666037,0.01378 1.348596,-0.423391 0.683891,-0.471682 1.244023,-1.605197 l 0.617523,0.325006 q -0.64946,1.548044 -1.907511,2.528382 -1.22104,0.981111 -3.293103,0.938349 -1.221019,-0.02513 -2.134544,-0.356232 -0.914804,-0.29643 -1.52211,-0.898808 -0.785925,-0.779544 -1.004069,-1.894369 -0.216883,-1.149514 -0.150479,-2.952449 l 0.431557,-11.7190893 -3.108052,-0.064003 0.02553,-0.6934474 3.108055,0.064003 0.168537,-4.5766833 q 1.554027,0.032001 2.857985,-0.1840365 1.342241,-0.2499359 2.510934,-0.815843 z m 23.300685,8.7482167 q 2.60812,0.63313 4.31104,2.016756 1.70293,1.383645 2.22806,3.667197 0.52514,2.283556 -0.43583,5.607807 -0.96099,3.324253 -2.65096,5.070086 -1.68026,1.71224 -3.90737,2.141831 -2.22705,0.429689 -4.8352,-0.203519 -2.53664,-0.615792 -4.2753,-2.008096 -1.70293,-1.383625 -2.27349,-3.642286 -0.52514,-2.283555 0.43583,-5.607807 0.961,-3.324232 2.65097,-5.070065 1.72569,-1.737153 3.95278,-2.1667635 2.26286,-0.4208336 4.79947,0.1948595 z m -0.19413,0.671561 q -1.42909,-0.346901 -2.97615,1.433607 -1.53735,1.746957 -2.83808,6.246437 -1.30073,4.499478 -0.90879,6.714764 0.39194,2.215306 1.82105,2.562228 1.46482,0.355581 2.96644,-1.400036 1.53736,-1.746938 2.83807,-6.246436 1.30073,-4.49948 0.9088,-6.714766 -0.34651,-2.240197 -1.81134,-2.595798 z m 30.31745,9.293177 q 1.43535,0.543306 2.16727,1.233594 0.78035,0.671065 1.03666,1.444296 0.27626,0.818353 0.0884,1.874204 -0.15376,1.068812 -0.87995,2.709863 l -3.83026,8.655678 q -0.59804,1.351433 -0.33317,2.015203 0.29906,0.676702 1.49517,1.129471 l -0.29901,0.675715 q -0.63509,-0.277949 -1.91951,-0.801707 -1.27016,-0.555922 -2.53464,-1.034561 -1.29865,-0.491576 -2.59161,-0.905871 -1.24454,-0.433521 -1.90811,-0.647127 l 0.29902,-0.675718 q 1.02526,0.388078 1.64894,0.06067 0.62365,-0.327518 1.22171,-1.678875 l 4.42831,-10.007131 q 0.35598,-0.804425 0.4414,-1.448303 0.0996,-0.676041 -0.20224,-1.16598 -0.28764,-0.522123 -1.17619,-0.858474 -0.92272,-0.349267 -1.92233,-0.164138 -0.96541,0.198145 -1.82834,0.885734 -0.81449,0.668441 -1.28437,1.730299 l -3.95841,8.945273 q -0.59805,1.351435 -0.40152,1.989329 0.23068,0.65083 1.22176,1.025992 l -0.29901,0.675718 q -0.60091,-0.265033 -1.7828,-0.74998 -1.13347,-0.50417 -2.39794,-0.982811 -1.29866,-0.491576 -2.69414,-0.944664 -1.38123,-0.485269 -2.07898,-0.711813 l 0.29902,-0.675738 q 1.19612,0.452766 1.88815,0.151221 0.72623,-0.288569 1.32425,-1.640062 l 4.48525,-10.135839 q 0.64076,-1.44798 0.46133,-2.304799 -0.13102,-0.876085 -1.3955,-1.354703 l 0.29902,-0.675738 q 1.05087,0.510499 2.07613,0.898577 1.43535,0.543325 2.70838,0.912483 1.32141,0.349932 2.48053,0.525716 l -1.28151,2.89596 q 1.58056,-1.317639 3.3491,-1.437114 1.76854,-0.119454 3.57982,0.566162 z m 24.6963,9.911551 q 2.61067,1.125531 3.30486,3.879743 0.74348,2.737108 -1.3454,6.899807 -1.64579,3.279717 -3.7138,4.804695 -2.03454,1.539429 -4.21809,1.672071 -2.18354,0.132642 -4.25868,-0.762014 -1.37229,-0.591635 -2.3222,-1.538173 -0.9499,-0.946559 -1.28026,-2.316439 l 0.54769,0.04429 q 0.25432,0.95351 0.88352,1.64672 0.66268,0.707639 1.46597,1.053971 1.84085,0.793649 3.72569,-0.771964 1.88484,-1.565592 3.8946,-5.57062 1.36093,-2.712078 1.78401,-4.447583 0.47237,-1.752611 0.13528,-2.703465 -0.32125,-0.982388 -1.25842,-1.386419 -1.17145,-0.505057 -2.60101,-0.009 -1.41373,0.464543 -2.35468,2.015119 l 0.38653,-1.175892 q 1.50447,-1.537788 3.40261,-1.83185 1.914,-0.325481 3.82176,0.49693 z m -1.14889,-10.123225 -12.05856,24.030166 q -0.77345,-0.486898 -1.70697,-0.73593 -0.93353,-0.249033 -1.82812,-0.251141 -0.87876,-0.03363 -1.58654,0.15988 l -0.35964,-0.500273 q 0.35543,-0.383782 0.61046,-0.810835 0.28849,-0.412642 0.51003,-0.854143 l 9.70064,-19.331363 q 0.71212,-1.419107 0.57586,-2.283364 -0.0869,-0.881386 -1.32535,-1.415278 l 0.33232,-0.662262 q 1.02357,0.556371 2.02768,0.98928 1.37227,0.591614 2.65815,1.030928 1.30168,0.407758 2.45004,0.634336 z m 29.96794,24.328225 -7.2569,12.92705 q -0.77938,1.388339 -0.7023,2.288832 0.0944,0.86963 1.27237,1.439825 l -0.36371,0.647897 q -0.96241,-0.583555 -1.97678,-1.074548 -1.37431,-0.665223 -2.60425,-1.142854 -1.22995,-0.477653 -2.41559,-0.737667 l 1.55875,-2.776695 q -1.65129,1.162484 -3.43936,1.160173 -1.73802,-0.01733 -3.43954,-0.840931 -1.37432,-0.665243 -2.03457,-1.416405 -0.66025,-0.751181 -0.85664,-1.513258 -0.22721,-0.855453 0.0806,-1.922738 0.30786,-1.067284 1.15652,-2.579044 l 4.38184,-7.805592 q 0.77939,-1.388338 0.68499,-2.257989 -0.0443,-0.884644 -1.25505,-1.470668 l 0.36371,-0.647897 q 0.99512,0.599384 1.97678,1.074549 1.37432,0.665223 2.60425,1.142854 1.27999,0.46264 2.4156,0.737667 l -7.1703,12.772787 q -0.43298,0.7713 -0.63117,1.42085 -0.16546,0.665396 0.0694,1.210671 0.2522,0.514416 1.07024,0.910399 0.88349,0.42764 1.83043,0.29746 0.97965,-0.114412 1.85537,-0.710588 0.92573,-0.61127 1.49727,-1.629397 l 4.53773,-8.083259 q 0.77937,-1.388357 0.68499,-2.257989 -0.0444,-0.884643 -1.25506,-1.470687 l 0.3637,-0.647897 q 0.99514,0.599404 1.9768,1.074569 1.37431,0.665222 2.60425,1.142854 1.27998,0.46262 2.41559,0.737666 z m 16.65549,5.846682 q 1.12468,0.335617 1.66468,1.008153 0.55163,0.639494 0.62357,1.428083 0.10707,0.799051 -0.16057,1.559353 -0.43059,1.223085 -1.48311,1.785698 -1.00572,0.540051 -2.23584,0.172959 -1.23011,-0.367073 -1.7352,-1.138788 -0.4583,-0.794277 -0.12082,-1.752921 0.32585,-0.925584 0.95707,-1.394743 0.67801,-0.49172 1.49707,-0.722188 -0.4455,-0.279042 -0.99572,-0.260603 -0.70269,-0.100093 -1.45147,0.151333 -0.73718,0.218188 -1.37998,0.720603 -0.63124,0.469158 -1.13328,1.12297 -0.4904,0.620773 -0.72315,1.281896 l -3.0839,8.759937 q -0.55859,1.586707 0.0519,2.389879 0.64568,0.813668 2.29755,1.306606 l -0.24439,0.694182 q -0.79673,-0.274269 -2.33152,-0.76879 -1.52315,-0.5276 -3.21016,-1.031016 -1.40585,-0.419526 -2.87012,-0.783409 -1.45262,-0.396965 -2.20232,-0.584156 l 0.24437,-0.694184 q 1.23012,0.367093 1.89672,0.01807 0.70173,-0.338621 1.19052,-1.726888 l 3.66577,-10.412744 q 0.52367,-1.487546 0.27601,-2.328571 -0.20085,-0.863567 -1.50128,-1.251635 l 0.24439,-0.694184 q 1.08976,0.434798 2.14415,0.749438 1.47613,0.440483 2.77631,0.718893 1.34696,0.255831 2.51795,0.349568 l -1.08229,3.074233 q 0.73597,-0.766661 1.69491,-1.284151 0.95895,-0.517471 2.01238,-0.641545 1.06506,-0.157116 2.18976,0.17858 z m 22.38653,2.706828 -0.0674,0.691449 q -0.71738,0.12102 -1.40827,0.731507 -0.68753,0.575897 -1.42594,2.053445 l -6.53507,13.305996 -1.6004,2.319114 -6.36657,-17.708443 q -0.49512,-1.394739 -1.09488,-1.717708 -0.55952,-0.354811 -1.00195,-0.38757 l 0.0709,-0.726018 q 1.20652,0.193767 2.49017,0.358438 1.32389,0.132808 2.54055,0.222885 1.51161,0.111892 2.77188,0.135519 1.26028,0.02365 2.37309,0.03639 l -0.0708,0.726017 q -0.73737,-0.05458 -1.41113,1.6e-5 -0.63351,0.02279 -0.93209,0.418533 -0.25835,0.363924 0.0895,1.364727 l 3.61934,10.853956 -0.35208,0.182838 3.42695,-6.954599 q 0.88276,-1.815063 0.88692,-2.998723 0.007,-1.21825 -0.63559,-1.857835 -0.63975,-0.674156 -1.84966,-0.833354 l 0.0675,-0.691468 q 0.58651,0.07823 1.20991,0.159217 0.62676,0.0464 1.25015,0.127355 0.62676,0.0464 1.10606,0.08188 0.73737,0.05458 1.55185,0.08005 0.81448,0.02546 1.29715,0.02638 z m -9.43677,16.782397 -1.76217,3.595557 q -0.45306,0.837029 -0.91599,1.394756 -0.42943,0.595022 -0.94585,0.939841 -0.55668,0.37666 -1.38803,0.52405 -0.83476,0.181902 -1.90392,0.102828 -0.88484,-0.06551 -1.81642,-0.413025 -0.89471,-0.344822 -1.46072,-1.013523 -0.56601,-0.668703 -0.4715,-1.636745 0.10457,-1.071752 0.97987,-1.668586 0.87188,-0.562265 2.19911,-0.464104 1.21665,0.09005 1.93688,0.700528 0.72024,0.610488 0.61563,1.682239 -0.0674,0.691449 -0.60756,1.278272 -0.50318,0.58957 -1.45527,0.832489 0.18095,0.04819 0.43902,0.06724 0.25805,0.01905 0.40556,0.03007 1.10606,0.08188 2.01816,-0.512288 0.91209,-0.594126 1.60351,-1.970653 l 1.63806,-3.465478 z m 30.14608,-26.152909 q 2.15188,-0.376635 3.40165,-0.137796 1.24343,0.204763 2.17133,0.535177 0.48218,0.16199 0.76292,0.253654 0.31083,0.0511 0.56614,0.0064 0.36475,-0.06378 0.44067,-0.464332 0.11241,-0.406895 0.082,-1.175962 l 0.83888,-0.146862 q 0.0844,0.654063 0.18308,1.587194 0.12887,0.892657 0.36582,2.364807 0.27345,1.465768 0.71856,3.851898 l -0.83886,0.146862 q -0.47656,-1.74703 -1.51758,-3.289633 -1.04104,-1.542622 -2.58766,-2.36314 -1.51648,-0.860972 -3.44953,-0.522642 -1.75069,0.306403 -2.70964,1.424704 -0.95896,1.118262 -0.65372,2.754476 0.25436,1.363498 1.16822,2.224361 0.90749,0.826786 2.46515,1.504557 1.59411,0.671395 3.84173,1.615616 1.94781,0.750285 3.53089,1.564404 1.58309,0.81414 2.66994,1.99672 1.08688,1.182598 1.43025,3.023316 0.41969,2.24978 -0.5834,3.938984 -0.96663,1.682827 -2.8692,2.790261 -1.90891,1.073339 -4.35257,1.501054 -2.26129,0.395807 -3.68708,0.222952 -1.4258,-0.172855 -2.42027,-0.456377 -0.89142,-0.336793 -1.32909,-0.260181 -0.36474,0.06378 -0.47714,0.470728 -0.076,0.4005 -0.0455,1.169564 l -0.83888,0.146864 q -0.0796,-0.83088 -0.28314,-1.921687 -0.16703,-1.097179 -0.49132,-2.835646 -0.2942,-1.778941 -0.79655,-4.471862 l 0.83886,-0.146863 q 0.56558,2.224251 1.5909,4.086419 1.05544,1.821715 2.66396,2.772182 1.64498,0.944091 3.97922,0.535529 1.27652,-0.223512 2.18498,-0.80489 0.93856,-0.621892 1.39962,-1.582614 0.46107,-0.960704 0.22578,-2.221951 -0.26708,-1.431675 -1.19365,-2.360728 -0.89011,-0.935415 -2.30187,-1.638736 -1.37527,-0.709681 -3.15811,-1.383244 -1.91134,-0.756683 -3.60384,-1.55165 -1.6925,-0.794987 -2.85867,-1.998888 -1.12969,-1.210298 -1.47944,-3.085113 -0.40062,-2.147529 0.47567,-3.708932 0.9064,-1.601877 2.64569,-2.575114 1.76939,-1.013711 3.88479,-1.383988 z m 17.7269,-6.481949 4.33388,11.166336 q 0.21522,-1.993162 1.42539,-3.155131 1.2324,-1.206647 3.0775,-1.853703 1.49698,-0.524947 2.54069,-0.485346 1.03113,0.0072 1.7801,0.40834 0.83119,0.409189 1.45284,1.297528 0.65645,0.876141 1.29899,2.531618 l 3.38898,8.731793 q 0.52917,1.363334 1.2055,1.67931 0.71117,0.303779 1.92963,-0.123513 l 0.26469,0.681627 q -0.6743,0.198715 -2.04437,0.643137 -1.34812,0.399001 -2.6014,0.838451 -1.35772,0.476119 -2.62061,0.992789 -1.24069,0.471932 -1.8547,0.724236 l -0.26456,-0.681662 q 1.04438,-0.366306 1.27318,-0.999679 0.22878,-0.633411 -0.30035,-1.996732 l -3.91814,-10.095131 q -0.31496,-0.811507 -0.7158,-1.334758 -0.41343,-0.555691 -1.0268,-0.709373 -0.59116,-0.198362 -1.46149,0.106861 -0.93995,0.329636 -1.55168,1.097335 -0.58952,0.723038 -0.74934,1.737923 -0.12501,1.002691 0.30335,2.106336 l 3.51496,9.056411 q 0.52915,1.363318 1.13588,1.703726 0.60675,0.340404 1.65113,-0.02587 l 0.26456,0.681663 q -0.63934,0.186948 -1.8703,0.582152 -1.24372,0.362132 -2.4969,0.801976 -1.35771,0.476119 -2.72504,1.0294 -1.34513,0.508601 -2.02878,0.78524 l -0.26457,-0.681662 q 1.21848,-0.427291 1.51688,-1.085136 0.33322,-0.670024 -0.19592,-2.033363 l -7.16854,-18.469878 q -0.56694,-1.460704 -1.31888,-1.971449 -0.72974,-0.555402 -2.01781,-0.103677 l -0.2646,-0.681676 q 1.1518,-0.293374 2.19624,-0.659485 1.42731,-0.500632 2.67763,-1.049665 1.23769,-0.581573 2.22872,-1.18727 z m 22.32991,-1.476932 q 2.04828,-1.675536 4.24364,-2.23599 2.19536,-0.560519 4.51441,0.287898 2.31902,0.848343 4.71022,3.422147 2.3912,2.573802 2.97061,4.845217 0.5553,2.245404 -0.33584,4.209755 -0.89107,1.964353 -2.93935,3.63989 -1.99215,1.629636 -4.21559,2.213047 -2.19535,0.560512 -4.51831,-0.238954 -2.31903,-0.848358 -4.71023,-3.422161 -2.3912,-2.573783 -2.9706,-4.845204 -0.55139,-2.294354 0.33975,-4.258705 0.91914,-1.987304 2.91129,-3.61694 z m 0.48308,0.519957 q -1.12234,0.918104 -0.43071,3.097721 0.66648,2.15387 3.90403,5.637323 3.23659,3.483739 5.41922,4.397907 2.18264,0.914162 3.305,-0.0039 1.15039,-0.941053 0.45486,-3.071721 -0.66648,-2.153871 -3.90404,-5.637322 -3.23658,-3.483739 -5.41923,-4.397901 -2.17874,-0.963113 -3.32913,-0.02206 z m 12.10172,-13.872448 18.17089,12.348148 q 1.40007,0.951417 2.37453,0.579224 1.0042,-0.352035 1.9276,-1.534618 l 0.62556,0.425086 q -0.6014,0.711912 -1.67226,1.966761 -1.01912,1.246914 -2.14035,2.683035 -0.81343,1.041894 -1.57509,2.075879 -0.70988,1.026064 -1.07583,1.553174 l -0.62556,-0.42511 q 0.72549,-0.929241 0.59426,-1.578712 -0.10916,-0.677666 -1.30077,-1.487358 L 315.15873,28.46901 q -1.3405,-0.910912 -2.27383,-0.941782 -0.96314,-0.05113 -1.7546,0.962608 l -0.62553,-0.425091 q 0.79287,-0.840377 1.45242,-1.685156 0.90136,-1.154529 1.62544,-2.257146 0.6943,-1.122872 1.1673,-2.13751 z m 3.31828,-4.425429 q 1.12122,-1.436115 2.83468,-1.99568 1.68369,-0.579839 3.87948,-0.122048 2.166,0.437536 4.63841,2.117684 2.17456,1.477736 3.43919,3.069807 1.28658,1.563906 1.73701,3.206079 0.44261,1.593756 0.0633,3.189221 -0.35739,1.567306 -1.5226,3.059744 -0.85739,1.098212 -1.97795,1.71591 -1.09076,0.637947 -2.20921,0.610574 l -0.16685,-0.544884 q 0.75604,0.08276 1.44964,-0.221681 0.71559,-0.332654 1.24323,-1.008422 0.98932,-1.267188 0.66727,-2.606616 -0.35183,-1.359659 -1.74837,-2.782778 -1.40432,-1.471502 -3.69803,-3.030211 -2.56179,-1.740883 -4.26325,-2.423036 -1.70147,-0.682132 -2.74473,-0.572223 -1.0433,0.109838 -1.63687,0.870231 -0.79145,1.013748 -0.61692,2.425325 0.19649,1.383436 1.65757,2.548691 l -1.15251,-0.567708 q -1.3022,-1.660708 -1.22081,-3.458585 0.0736,-1.846304 1.3488,-3.479542 z" id="text9" aria-label="Glastonbury Shop" /><path style="font-variation-settings:'wght' 700;fill:none;fill-opacity:1;fill-rule:evenodd;stroke:none;stroke-width:0.396881;stroke-linecap:round;stroke-miterlimit:3.7;stroke-dasharray:none;stroke-opacity:1" id="path36" d="m -25.770009,170.39355 c 8.458183,-7.78723 17.6191464,-15.96001 29.9974553,-17.06861 15.3693617,-1.37647 27.5574897,9.80095 38.9750827,18.50551 8.294067,6.32325 14.957678,15.15877 24.406742,19.57182 11.855897,5.53712 25.108416,7.20065 37.816659,5.99536 14.09359,-1.33669 23.04664,-13.18763 34.69315,-19.8504 7.09697,-4.06006 23.1306,-23.20839 17.90733,-16.62866 -11.0994,13.98187 -26.40268,23.19214 -41.64173,31.89966 -11.31182,6.46351 -24.35866,2.58079 -36.33386,1.12426 C 63.785587,191.96416 53.304362,178.32051 41.444081,168.64011 29.665817,159.02667 14.92645,149.51216 -1.1371507,152.92369 c -10.1103723,2.1472 -19.4948673,8.39779 -24.6328583,17.46986 z" inkscape:path-effect="#path-effect36" inkscape:original-d="m -25.770009,170.39355 c 3.968485,-3.53713 7.870034,-7.15836 12.053965,-10.44482 0.880006,-0.69125 1.788326,-1.34566 2.68249,-2.01849 2.1860764,-1.35961 4.4147074,-3.16773 6.961078,-3.83611 0.7782029,-0.20427 1.1212816,-0.15484 1.890529,-0.14827 4.2202671,-0.21912 8.4301774,-0.48203 12.657636,-0.41967 2.772131,0.21864 5.677647,0.37628 8.298683,1.42214 3.579667,1.42838 6.696014,3.92458 9.793638,6.14668 4.345495,3.15284 8.564102,6.47959 12.947176,9.58056 0.770564,0.54516 4.675179,3.23239 5.525781,3.81852 5.166351,3.51954 9.5423,8.00603 14.205374,12.13222 2.535913,2.2819 5.313449,4.34719 8.409057,5.81451 1.575325,0.7467 2.462447,0.97894 4.101188,1.51197 0.64181,0.16022 1.276524,0.35217 1.92543,0.48066 1.518653,0.30073 2.539624,0.33372 4.095026,0.45213 2.664745,0.20285 5.331822,0.36574 7.998147,0.54652 6.006633,0.46193 11.948615,1.48828 17.961441,1.89316 5.02209,0.22223 7.99984,-1.26618 12.08106,-3.92783 1.69173,-1.14219 2.93445,-2.77582 4.43957,-4.12398 0.75274,-0.67425 0.96357,-0.78648 1.79725,-1.37587 0.37153,-0.21924 0.74981,-0.42742 1.1146,-0.65771 1.69311,-1.06888 3.2677,-2.30951 4.9399,-3.41157 1.68695,-1.11179 3.39873,-2.18544 5.0978,-3.27861 4.92947,-3.20835 10.19977,-5.91094 14.80061,-9.61148 0.79461,-0.63912 1.52725,-1.35168 2.29087,-2.02752 2.78311,-2.60866 5.06959,-5.66166 6.60732,-9.15279 0.0728,-0.3432 0.29303,-0.83307 0.23062,-1.22055 0.006,-0.0584 -0.82021,-0.14717 -0.82649,-0.0887 v 0 c -0.088,0.14949 -0.18068,0.99296 -0.30415,0.96363 -1.63721,3.31011 -3.86125,6.23107 -6.62262,8.6987 -0.75258,0.64306 -1.47499,1.3232 -2.25774,1.92917 -0.87918,0.68063 -1.80702,1.29623 -2.7229,1.92662 -3.91896,2.69741 -8.01803,5.10426 -12.02227,7.66921 -1.91463,1.25714 -3.18885,2.07486 -5.05515,3.3721 -1.62384,1.12871 -3.15312,2.38745 -4.80413,3.47584 -0.3768,0.24839 -0.76672,0.47627 -1.15008,0.7144 -0.77547,0.56453 -1.16695,0.82076 -1.88187,1.45289 -1.47467,1.30391 -2.73,2.85762 -4.40273,3.93419 -1.69135,1.08318 -3.37792,2.21579 -5.28795,2.88936 -1.83409,0.64679 -3.77182,0.83152 -5.70423,0.74611 -6.00523,-0.47813 -11.949774,-1.50615 -17.957948,-1.94557 -2.675599,-0.14393 -5.351017,-0.28051 -8.025804,-0.43822 -1.532848,-0.0904 -2.460976,-0.0817 -3.952199,-0.37027 -0.628186,-0.12155 -1.24105,-0.31204 -1.861577,-0.46806 -1.464312,-0.47398 -2.548009,-0.77485 -3.950849,-1.4345 -3.029215,-1.4244 -5.708627,-3.49287 -8.157,-5.74897 -4.691139,-4.15602 -9.13672,-8.61673 -14.288667,-12.22134 -0.394008,-0.27679 -5.174633,-3.63405 -5.468786,-3.84541 -4.360476,-3.13314 -8.542831,-6.5063 -12.89932,-9.64568 -3.251289,-2.2956 -6.463343,-4.73553 -10.202937,-6.20454 -2.716685,-1.06718 -5.671367,-1.33379 -8.552071,-1.51848 -4.4087664,0 -8.8049035,0.23808 -13.1948878,0.65061 -0.8871521,0.009 -1.265468,-0.0361 -2.1636587,0.19524 -2.6824904,0.69084 -5.0264809,2.39704 -7.3476365,3.81334 -0.917627,0.67298 -1.853695,1.32151 -2.752882,2.01893 -4.215226,3.26942 -8.118252,6.93445 -11.827094,10.76209 -0.04056,0.0523 0.698833,0.62581 0.739388,0.57353 z" transform="matrix(0.95416334,0,0,1.0001176,-1.5291053,-0.02000058)" /><path d="m 91.208035,67.002377 q 2.366395,0 3.649864,0.521409 1.283469,0.481301 2.205962,1.042818 0.481301,0.280759 0.76206,0.441193 0.320867,0.120325 0.601626,0.120325 0.401084,0 0.561517,-0.441192 0.200542,-0.441193 0.320867,-1.323577 h 0.922489 q -0.0401,0.762059 -0.12032,1.844986 -0.0401,1.042818 -0.0802,2.767479 0,1.724661 0,4.532249 h -0.922491 q -0.280758,-2.48672 -1.082926,-4.411923 -0.76206,-1.965312 -2.246071,-3.088347 -1.48401,-1.123035 -3.930623,-1.123035 -2.406504,0 -3.609756,1.082926 -1.203252,1.042819 -1.203252,2.687263 0,0.922493 0.280759,1.724661 0.320867,0.76206 1.123035,1.604336 0.842277,0.842277 2.366396,1.965312 1.564227,1.123035 4.01084,2.687262 1.925203,1.203252 3.449322,2.486721 1.524119,1.243361 2.406507,2.807588 0.92249,1.564228 0.92249,3.730081 0,2.647154 -1.36369,4.371816 -1.363681,1.724661 -3.64986,2.607045 -2.24607,0.842277 -4.933333,0.842277 -2.48672,0 -3.890514,-0.521409 -1.403794,-0.52141 -2.246071,-0.922494 -0.521409,-0.280758 -0.922493,-0.441192 -0.401084,-0.160434 -0.762059,-0.160434 -0.401084,0 -0.601626,0.441193 -0.160434,0.441192 -0.280759,1.323577 h -0.922493 q 0.08022,-0.962602 0.08022,-2.24607 0.04011,-1.283469 0.04011,-3.328997 0.04011,-2.085637 0.04011,-5.254201 h 0.922493 q 0.200542,2.727372 0.76206,4.692683 0.561518,1.925203 1.524119,3.168564 1.00271,1.203251 2.486721,1.804877 1.524119,0.561518 3.609756,0.561518 1.885094,0 3.048238,-0.481301 1.203252,-0.521409 1.76477,-1.443902 0.601625,-0.922493 0.601625,-2.205962 0,-0.842276 -0.280758,-1.604336 -0.280759,-0.76206 -1.082927,-1.564227 -0.802168,-0.842277 -2.286179,-1.965312 -1.484011,-1.123035 -3.890514,-2.767479 -1.885095,-1.203252 -3.529539,-2.486721 -1.644445,-1.283469 -2.647155,-2.887805 -0.962601,-1.644444 -0.962601,-3.850406 0,-2.526829 1.24336,-4.131165 1.283469,-1.644445 3.328997,-2.406504 2.085637,-0.802168 4.411924,-0.802168 z M 90.285542,62.229478 V 101.21484 H 89.483374 V 62.229478 Z m 3.890514,0 V 101.21484 H 93.373888 V 62.229478 Z" id="text53" style="font-size:40.1084px;line-height:113.22%;font-family:'Playfair Display';-inkscape-font-specification:'Playfair Display, @wght=700';font-variation-settings:'wght' 700;letter-spacing:4.78167px;opacity:0.28965517;fill:url(#linearGradient54);fill-rule:evenodd;stroke:#f9f9f9;stroke-width:0.500102;stroke-linecap:round;stroke-miterlimit:3.7" aria-label="$" /></svg>