<?xml version="1.0" encoding="UTF-8"?>
<!-- Created with Inkscape (http://www.inkscape.org/) -->
<svg width="150" height="50" version="1.1" viewBox="0 0 39.687 13.229" xml:space="preserve" xmlns="http://www.w3.org/2000/svg" xmlns:xlink="http://www.w3.org/1999/xlink"><defs><linearGradient id="linearGradient1"><stop stop-color="#0ff" offset="0"/><stop stop-color="#0ff" offset=".46729"/><stop stop-color="#0ff" stop-opacity=".24706" offset=".6428"/><stop stop-color="#0ff" stop-opacity="0" offset="1"/></linearGradient><linearGradient id="linearGradient12" x1="6.9926" x2="6.9287" y1="-2.0175" y2="12.039" gradientTransform="translate(-.081623 .11574)" gradientUnits="userSpaceOnUse" xlink:href="#linearGradient1"/><linearGradient id="linearGradient16" x1="15.586" x2="15.739" y1="4.5194" y2="11.184" gradientTransform="translate(-6.9832 -1.6148)" gradientUnits="userSpaceOnUse" xlink:href="#linearGradient1"/><radialGradient id="radialGradient12" cx="7.0392" cy="12.044" r="3.8821" gradientTransform="matrix(1.6863 -.38482 .010161 4.9064 -23.479 -41.762)" gradientUnits="userSpaceOnUse" xlink:href="#linearGradient11"/><linearGradient id="linearGradient11"><stop stop-color="#0ff" stop-opacity=".32157" offset="0"/><stop stop-opacity="0" offset="1"/></linearGradient><radialGradient id="radialGradient12-0" cx="7.0392" cy="12.044" r="3.8821" gradientTransform="matrix(2.6273 -.037166 -.0042849 1.2799 -29.928 -29.774)" gradientUnits="userSpaceOnUse" xlink:href="#linearGradient11"/></defs><g transform="matrix(1.9381 0 0 .99034 42.105 -7.8648)" fill-rule="evenodd"><ellipse cx="-11.486" cy="14.621" rx="6.5481" ry="6.6251" fill="url(#radialGradient12)"/><ellipse transform="scale(1,-1)" cx="-11.486" cy="-14.621" rx="10.196" ry="6.6251" fill="url(#radialGradient12-0)"/></g><g transform="matrix(.9912 0 0 1.0604 13.287 -.39997)" stroke="#fff" stroke-width=".1"><path d="m6.1939 2.7765c0.47626 0.57357 1.0076 1.0527 1.5217 1.4928-1.6495 0.00612-4.6316 0.090338-4.7497 0.11277-0.37087 0.070453-0.45772 0.88947 0.057857 0.91396l2.2422 0.10653c-0.014168 0.014174-0.028663 0.028128-0.043236 0.042049-0.034323 0.03279-0.069023 0.065319-0.10528 0.096845-0.014228 0.015524-0.03509 0.029186-0.052671 0.043809-0.43058 0.3498-2.4765 1.6238-3.465 2.5971-0.2034 0.20027-0.35277 0.49846-0.34491 0.7838 0.00448 0.16284 0.092478 0.3359 0.22115 0.4358 0.11161 0.086643 0.27245 0.091607 0.41374 0.092126 0.10001 3.67e-4 0.20295-0.020247 0.29334-0.063061 0.86609-0.41025 2.2482-1.7921 2.2482-1.7921 0 0.32818 0.011607 0.63232 0.082599 0.93571 9e-3 0.03844 0.019068 0.076939 0.030115 0.1154 0.011837 0.041218 0.024111 0.082481 0.03855 0.12384 0.016064 0.046005 0.03356 0.092129 0.053171 0.13846 0.00126 0.00296 0.0021 0.0059 0.00337 0.00887 0.00991 0.02315 0.020731 0.045454 0.031052 0.068228 0.011849 0.026142 0.0233 0.052642 0.035676 0.078289 0.014271 0.029575 0.029464 0.058242 0.044424 0.087161 0.01664 0.032169 0.034449 0.063175 0.051921 0.094532 0.040479 0.072645 0.082265 0.14408 0.12702 0.21237 0.084963 0.12964 0.17913 0.24935 0.27816 0.36339 0.11083 0.12762 0.22873 0.24663 0.35483 0.35483 0.068427 0.05871 0.13845 0.11518 0.21081 0.1682 0.1447 0.10602 0.29673 0.20079 0.45479 0.28416 0.02774 0.01463 0.056193 0.02774 0.084287 0.04167 0.9368 0.46475 2.0648 0.54523 3.0686 0.25348 0.043355-0.0126 0.085598-0.02819 0.12846-0.04218 0.042856-0.01398 0.086149-0.02675 0.12846-0.04211 0.030973-0.01124 0.061126-0.02426 0.091784-0.03624 0.040653-0.01589 0.081028-0.03237 0.12109-0.04955 0.029877-0.01281 0.060137-0.02471 0.08966-0.03824 0.02896-0.01327 0.05681-0.02859 0.08541-0.04255 0.02861-0.01397 0.05724-0.02783 0.08547-0.04249 0.02812-0.0146 0.05675-0.0282 0.08447-0.04349 0.01817-0.01002 0.03542-0.02155 0.05342-0.03186 9e-3 -0.0052 0.01778-0.0107 0.02674-0.01593 0.01792-0.01046 0.03568-0.02117 0.05342-0.03193 0.01773-0.01076 0.03594-0.02075 0.05348-0.0318 0.0088-0.0055 0.01797-0.01034 0.02668-0.01593 0.01664-0.01068 0.03289-0.02186 0.04936-0.0328 0.02613-0.01736 0.05106-0.03639 0.07673-0.05442 0.0167-0.01174 0.03348-0.02334 0.04998-0.03537 0.01267-0.0092 0.02581-0.01778 0.03836-0.02718 0.04424-0.03313 0.08691-0.0682 0.12958-0.10341 0.02074-0.01711 0.04144-0.03426 0.06179-0.05186 0.03544-0.03065 0.07075-0.06134 0.10497-0.09347 0.04322-0.04059 0.08517-0.08264 0.12633-0.12559 0.04989-0.052053 0.11165-0.097209 0.14408-0.16207l0.02274-0.045487-0.02274 0.045487c-0.02979 0.059582 0.08492-0.10269 0.1249-0.15658 0.01212-0.016329 0.0234-0.033451 0.03524-0.050046 0.01778-0.024914 0.03571-0.04965 0.05286-0.075164 0.01141-0.016985 0.02405-0.032797 0.03518-0.050047 0.01677-0.025998 0.03175-0.053562 0.04786-0.080163 0.01074-0.017729 0.02074-0.036111 0.03118-0.054108 0.0052-0.00901 0.01041-0.01804 0.01556-0.027116 0.01029-0.01813 0.0212-0.035711 0.03118-0.054108 5e-3 -0.00921 0.01064-0.01784 0.01556-0.027117 0.0098-0.018575 0.02027-0.036639 0.0298-0.055482 0.01435-0.028374 0.02824-0.057116 0.04186-0.086098 0.0045-0.00966 0.0095-0.019014 0.01393-0.028741 9e-3 -0.019551 0.01705-0.039784 0.02568-0.059607 0.0043-0.0099 0.0086-0.019775 0.01287-0.029741 0.0085-0.019985 0.01724-0.039724 0.02537-0.059981 0.0041-0.010169 0.0077-0.020685 0.01174-0.030928 0.01198-0.030726 0.02387-0.061503 0.03505-0.092846 0.0037-0.010495 0.0073-0.02111 0.011-0.031678 0.01099-0.031791 0.02133-0.064054 0.03149-0.09647 0.0034-0.010797 0.0073-0.021246 0.01056-0.032114 0.01-0.032879 0.01877-0.066581 0.02786-0.10009 0.0047-0.017438 0.01-0.034498 0.0145-0.052108 0.01386-0.054325 0.02669-0.10937 0.03824-0.16532 0.0017-0.0082 0.0025-0.016073 0.0041-0.024242 0.01589-0.10048 0.03307-0.19861 0.04439-0.29926 0.03012-0.26779 0.0092-0.54085 0.0057-0.58019-0.0085-0.094837-0.02327-0.18741-0.04111-0.27866-0.0057-0.029045-0.01063-0.0584-0.01718-0.087098-0.02341-0.10251-0.05337-0.20238-0.08735-0.30059-0.01568-0.045343-0.0318-0.090493-0.0496-0.13496-0.51164-1.2779-1.8747-2.1968-3.0355-3.0354l0.00594 0.00594c0.048487 0.048416 0.043478 0.043478-3.2e-6 -3.2e-6 -0.51835-0.38971-1.026-0.80353-1.5563-1.1724-0.71491-0.63179-1.3651-0.24167-0.98907 0.36208zm1.9687 3.0104c0.96326 5.9e-6 1.7441 0.78088 1.7441 1.7441-5.1e-6 0.96326-0.78088 1.7441-1.7441 1.7441-0.96326-5.1e-6 -1.7441-0.78088-1.7441-1.7441 5.9e-6 -0.96326 0.78088-1.7441 1.7441-1.7441z" fill="url(#linearGradient12)"/><circle cx="8.1651" cy="7.535" r="1.3038" fill="url(#linearGradient16)" fill-rule="evenodd" stroke-linecap="round" stroke-linejoin="bevel" stroke-miterlimit="3.7"/></g></svg>
