<svg width="150" height="50" viewBox="0 0 39.687 13.229" xmlns="http://www.w3.org/2000/svg" xmlns:xlink="http://www.w3.org/1999/xlink"><defs><linearGradient id="prefix__a"><stop stop-color="#0ff" offset="0"/><stop stop-color="#0ff" offset=".467"/><stop stop-color="#0ff" stop-opacity=".247" offset=".643"/><stop stop-color="#0ff" stop-opacity="0" offset="1"/></linearGradient><linearGradient id="prefix__e" x1="6.993" x2="6.929" y1="-2.018" y2="12.039" gradientTransform="translate(-.082 .116)" gradientUnits="userSpaceOnUse" xlink:href="#prefix__a"/><linearGradient id="prefix__f" x1="15.586" x2="15.739" y1="4.519" y2="11.184" gradientTransform="translate(-6.983 -1.615)" gradientUnits="userSpaceOnUse" xlink:href="#prefix__a"/><linearGradient id="prefix__b"><stop stop-color="#0ff" stop-opacity=".322" offset="0"/><stop stop-opacity="0" offset="1"/></linearGradient><radialGradient id="prefix__c" cx="7.039" cy="12.044" r="3.882" gradientTransform="matrix(1.6863 -.38482 .01016 4.9064 -23.479 -41.762)" gradientUnits="userSpaceOnUse" xlink:href="#prefix__b"/><radialGradient id="prefix__d" cx="7.039" cy="12.044" r="3.882" gradientTransform="matrix(2.6273 -.03717 -.00428 1.2799 -29.928 -29.774)" gradientUnits="userSpaceOnUse" xlink:href="#prefix__b"/></defs><g transform="matrix(1.9381 0 0 .99034 42.105 -7.865)" fill-rule="evenodd"><ellipse cx="-11.486" cy="14.621" rx="6.548" ry="6.625" fill="url(#prefix__c)"/><ellipse transform="scale(1 -1)" cx="-11.486" cy="-14.621" rx="10.196" ry="6.625" fill="url(#prefix__d)"/></g><g transform="matrix(.9912 0 0 1.0604 13.287 -.4)" stroke="#fff" stroke-width=".1"><path d="M6.194 2.776C6.67 3.35 7.202 3.83 7.716 4.27c-1.65.006-4.632.09-4.75.113-.371.07-.458.89.058.914l2.242.107a2.615 2.615 0 01-.149.138c-.014.016-.035.03-.052.044-.43.35-2.477 1.624-3.465 2.597-.204.2-.353.499-.345.784a.598.598 0 00.221.436c.112.087.272.092.414.092.1 0 .203-.02.293-.063.866-.41 2.248-1.792 2.248-1.792 0 .328.012.632.083.936a2.4 2.4 0 00.122.377l.003.01.031.067c.012.027.023.053.036.079.014.03.03.058.044.087l.052.094c.04.073.082.144.127.213.085.13.18.25.278.363a3.426 3.426 0 001.02.807l.085.042c.937.465 2.065.545 3.069.254.043-.013.085-.029.128-.043.043-.014.086-.026.129-.042l.091-.036c.041-.016.081-.032.121-.05.03-.012.06-.024.09-.038.03-.013.057-.028.086-.042l.085-.043c.028-.014.057-.028.084-.043.019-.01.036-.022.054-.032l.027-.016a3.69 3.69 0 00.053-.032c.018-.01.036-.02.054-.032l.026-.016c.017-.01.033-.022.05-.033.026-.017.05-.036.076-.054l.05-.035.039-.028a3.517 3.517 0 00.191-.155 3.436 3.436 0 00.231-.219c.05-.052.112-.097.144-.162l.023-.045-.023.045c-.03.06.085-.103.125-.157l.036-.05.052-.075.036-.05.047-.08.032-.054.015-.027.031-.054.016-.027.03-.056.042-.086c.004-.01.01-.019.013-.029.01-.02.018-.04.026-.06l.013-.03.025-.06.012-.03.035-.093c.004-.01.008-.02.011-.032l.032-.096.01-.032.028-.1.015-.052.038-.166.004-.024c.016-.1.033-.198.044-.3a2.71 2.71 0 00-.035-.859c-.006-.028-.01-.057-.017-.086a2.88 2.88 0 00-.137-.436c-.512-1.278-1.875-2.196-3.036-3.035l.006.006c.049.048.044.043 0 0-.518-.39-1.026-.804-1.556-1.172-.715-.632-1.365-.242-.99.362zm1.969 3.01a1.744 1.744 0 110 3.49 1.744 1.744 0 010-3.49z" fill="url(#prefix__e)"/><circle cx="8.165" cy="7.535" r="1.304" fill="url(#prefix__f)" fill-rule="evenodd" stroke-linecap="round" stroke-linejoin="bevel" stroke-miterlimit="3.7"/></g></svg>