<?xml version="1.0" encoding="UTF-8" standalone="no"?>
<!-- Created with Inkscape (http://www.inkscape.org/) -->

<svg
   width="150"
   height="50"
   viewBox="0 0 39.687498 13.229167"
   version="1.1"
   id="svg1"
   xml:space="preserve"
   inkscape:version="1.3.2 (091e20e, 2023-11-25, custom)"
   sodipodi:docname="blender.svg"
   xmlns:inkscape="http://www.inkscape.org/namespaces/inkscape"
   xmlns:sodipodi="http://sodipodi.sourceforge.net/DTD/sodipodi-0.dtd"
   xmlns:xlink="http://www.w3.org/1999/xlink"
   xmlns="http://www.w3.org/2000/svg"
   xmlns:svg="http://www.w3.org/2000/svg"><sodipodi:namedview
     id="namedview1"
     pagecolor="#505050"
     bordercolor="#eeeeee"
     borderopacity="1"
     inkscape:showpageshadow="0"
     inkscape:pageopacity="0"
     inkscape:pagecheckerboard="0"
     inkscape:deskcolor="#505050"
     inkscape:document-units="mm"
     inkscape:zoom="2.8284272"
     inkscape:cx="57.629202"
     inkscape:cy="-1.5909902"
     inkscape:window-width="1920"
     inkscape:window-height="1017"
     inkscape:window-x="-30080"
     inkscape:window-y="-32000"
     inkscape:window-maximized="0"
     inkscape:current-layer="layer1"
     showgrid="false"
     showguides="true" /><defs
     id="defs1"><inkscape:path-effect
       effect="simplify"
       id="path-effect13"
       is_visible="true"
       lpeversion="1.3"
       threshold="0.01"
       steps="1"
       smooth_angles="360"
       helper_size="10"
       simplify_individual_paths="false"
       simplify_just_coalesce="false" /><linearGradient
       id="linearGradient3"
       inkscape:collect="always"><stop
         style="stop-color:#78e40c;stop-opacity:1;"
         offset="0"
         id="stop3" /><stop
         style="stop-color:#78e40c;stop-opacity:0;"
         offset="1"
         id="stop4" /></linearGradient><rect
       x="-3.6837471"
       y="-23.944357"
       width="239.44356"
       height="226.55045"
       id="rect2" /><linearGradient
       inkscape:collect="always"
       xlink:href="#linearGradient3"
       id="linearGradient4"
       x1="173.59016"
       y1="172.50076"
       x2="365.29922"
       y2="172.50076"
       gradientUnits="userSpaceOnUse" /><linearGradient
       id="linearGradient1"
       inkscape:collect="always"><stop
         style="stop-color:#00ffff;stop-opacity:1;"
         offset="0"
         id="stop1" /><stop
         style="stop-color:#00ffff;stop-opacity:1;"
         offset="0.46728775"
         id="stop3-8" /><stop
         style="stop-color:#00ffff;stop-opacity:0.24705882;"
         offset="0.64280301"
         id="stop4-7" /><stop
         style="stop-color:#00ffff;stop-opacity:0;"
         offset="1"
         id="stop2" /></linearGradient><rect
       x="26.822454"
       y="34.86919"
       width="905.25781"
       height="194.46278"
       id="rect1" /><linearGradient
       inkscape:collect="always"
       xlink:href="#linearGradient1"
       id="linearGradient12"
       gradientUnits="userSpaceOnUse"
       x1="6.9926195"
       y1="-2.017452"
       x2="6.9287248"
       y2="12.038538"
       gradientTransform="translate(-0.08162287,0.11574119)" /><inkscape:path-effect
       effect="simplify"
       id="path-effect13-4"
       is_visible="true"
       lpeversion="1.3"
       threshold="0.01"
       steps="1"
       smooth_angles="360"
       helper_size="10"
       simplify_individual_paths="false"
       simplify_just_coalesce="false" /><linearGradient
       inkscape:collect="always"
       xlink:href="#linearGradient1"
       id="linearGradient16"
       x1="15.586176"
       y1="4.5193605"
       x2="15.739484"
       y2="11.184394"
       gradientUnits="userSpaceOnUse"
       gradientTransform="translate(-6.9832337,-1.6148295)" /><radialGradient
       inkscape:collect="always"
       xlink:href="#linearGradient11"
       id="radialGradient12"
       cx="7.0392113"
       cy="12.043834"
       fx="7.0392113"
       fy="12.043834"
       r="3.8820899"
       gradientTransform="matrix(1.6863486,-0.38481546,0.01016113,4.9063959,-23.479188,-41.762372)"
       gradientUnits="userSpaceOnUse" /><linearGradient
       id="linearGradient11"
       inkscape:collect="always"><stop
         style="stop-color:#00ffff;stop-opacity:0.32156864;"
         offset="0"
         id="stop11" /><stop
         style="stop-color:#000000;stop-opacity:0;"
         offset="1"
         id="stop12" /></linearGradient><radialGradient
       inkscape:collect="always"
       xlink:href="#linearGradient11"
       id="radialGradient12-0"
       cx="7.0392113"
       cy="12.043834"
       fx="7.0392113"
       fy="12.043834"
       r="3.8820899"
       gradientTransform="matrix(2.6272571,-0.03716644,-0.00428489,1.2798895,-29.928458,-29.773803)"
       gradientUnits="userSpaceOnUse" /></defs><g
     inkscape:label="Livello 1"
     inkscape:groupmode="layer"
     id="layer1"><g
       id="g2"
       transform="matrix(0.80861245,0,0,1.0615361,3.891391,-0.39049958)"><g
         id="g1"
         transform="matrix(2.396789,0,0,0.93293117,47.373856,-7.0254753)"><ellipse
           style="fill:url(#radialGradient12);fill-rule:evenodd;stroke:none;stroke-width:0.546489;stroke-linecap:round;stroke-linejoin:bevel;stroke-miterlimit:3.7;stroke-dasharray:none;stroke-opacity:1"
           id="path10"
           cx="-11.486245"
           cy="14.620648"
           rx="6.5481038"
           ry="6.6250682" /><ellipse
           style="fill:url(#radialGradient12-0);fill-rule:evenodd;stroke:none;stroke-width:0.681939;stroke-linecap:round;stroke-linejoin:bevel;stroke-miterlimit:3.7;stroke-dasharray:none;stroke-opacity:1"
           id="path10-8"
           cx="-11.486245"
           cy="-14.620648"
           rx="10.196333"
           ry="6.6250682"
           transform="scale(1,-1)" /></g><g
         id="g104"
         transform="translate(13.2292,-0.07032024)"><path
           d="M 6.1938831,2.7765202 C 6.6701454,3.3500897 7.2015132,3.8292507 7.715593,4.269302 6.0660733,4.275422 3.0839661,4.35964 2.9658956,4.38207 2.5950256,4.452523 2.5081747,5.2715386 3.0237526,5.2960334 l 2.242233,0.106527 v 0 c -0.014168,0.014174 -0.028663,0.028128 -0.043236,0.042049 v 0 c -0.034323,0.03279 -0.069023,0.065319 -0.1052799,0.096845 -0.014228,0.015524 -0.03509,0.029186 -0.052671,0.043809 v 0 C 4.6342169,5.9350621 2.5883241,7.2090341 1.5998184,8.1823507 1.3964225,8.3826213 1.2470492,8.6808127 1.2549056,8.9661484 c 0.00448,0.1628385 0.092478,0.3359023 0.2211537,0.4357974 0.1116061,0.086643 0.2724493,0.091607 0.4137388,0.092126 0.1000132,3.67e-4 0.2029534,-0.020247 0.2933398,-0.063061 0.8660924,-0.4102532 2.2481592,-1.7920917 2.2481592,-1.7920917 0,0.3281815 0.011607,0.6323242 0.082599,0.9357077 v 0 c 0.009,0.03844 0.019068,0.076939 0.030115,0.1154009 v 0 c 0.011837,0.041218 0.024111,0.082481 0.03855,0.1238365 v 0 c 0.016064,0.046005 0.03356,0.092129 0.053171,0.1384566 v 0 c 0.00126,0.00296 0.0021,0.0059 0.00337,0.00887 0.00991,0.02315 0.020731,0.045454 0.031052,0.068228 v 0 c 0.011849,0.026142 0.0233,0.052642 0.035676,0.078289 v 0 c 0.014271,0.029575 0.029464,0.058242 0.044424,0.087161 v 0 c 0.01664,0.032169 0.034449,0.063175 0.051921,0.094532 v 0 c 0.040479,0.072645 0.082265,0.1440752 0.1270226,0.2123707 v 0 c 0.084963,0.1296437 0.1791308,0.2493465 0.2781634,0.363386 v 0 c 0.1108258,0.1276221 0.2287258,0.2466305 0.3548257,0.3548265 v 0 c 0.068427,0.05871 0.138447,0.115179 0.2108098,0.168198 v 0 c 0.1447014,0.106022 0.2967323,0.200786 0.454794,0.28416 v 0 c 0.02774,0.01463 0.056193,0.02774 0.084287,0.04167 v 0 c 0.9368042,0.464751 2.0648348,0.545227 3.0685997,0.253484 v 0 c 0.043355,-0.0126 0.085598,-0.02819 0.12846,-0.04218 v 0 c 0.042856,-0.01398 0.086149,-0.02675 0.12846,-0.04211 v 0 c 0.030973,-0.01124 0.061126,-0.02426 0.091784,-0.03624 v 0 c 0.040653,-0.01589 0.081028,-0.03237 0.1210859,-0.04955 v 0 c 0.029877,-0.01281 0.060137,-0.02471 0.08966,-0.03824 v 0 c 0.02896,-0.01327 0.05681,-0.02859 0.08541,-0.04255 v 0 c 0.02861,-0.01397 0.05724,-0.02783 0.08547,-0.04249 v 0 c 0.02812,-0.0146 0.05675,-0.0282 0.08447,-0.04349 v 0 c 0.01817,-0.01002 0.03542,-0.02155 0.05342,-0.03186 v 0 c 0.009,-0.0052 0.01778,-0.0107 0.02674,-0.01593 v 0 c 0.01792,-0.01046 0.03568,-0.02117 0.05342,-0.03193 v 0 c 0.01773,-0.01076 0.03594,-0.02075 0.05348,-0.0318 v 0 c 0.0088,-0.0055 0.01797,-0.01034 0.02668,-0.01593 v 0 c 0.01664,-0.01068 0.03289,-0.02186 0.04936,-0.0328 v 0 c 0.02613,-0.01736 0.05106,-0.03639 0.07673,-0.05442 v 0 c 0.0167,-0.01174 0.03348,-0.02334 0.04998,-0.03537 v 0 c 0.01267,-0.0092 0.02581,-0.01778 0.03836,-0.02718 v 0 c 0.04424,-0.03313 0.08691,-0.0682 0.129585,-0.103406 v 0 c 0.02074,-0.01711 0.04144,-0.03426 0.06179,-0.05186 v 0 c 0.03544,-0.03065 0.07075,-0.06134 0.104968,-0.09347 v 0 c 0.04322,-0.04059 0.08517,-0.08264 0.126334,-0.1255858 v 0 c 0.04989,-0.052053 0.111653,-0.097209 0.14408,-0.1620734 l 0.02274,-0.045487 v 0 l -0.02274,0.045487 c -0.02979,0.059582 0.08492,-0.1026864 0.124898,-0.156577 v 0 c 0.01212,-0.016329 0.0234,-0.033451 0.03524,-0.050046 v 0 c 0.01778,-0.024914 0.03571,-0.04965 0.05286,-0.075164 v 0 c 0.01141,-0.016985 0.02405,-0.032797 0.03518,-0.050047 v 0 c 0.01677,-0.025998 0.03175,-0.053562 0.04786,-0.080163 v 0 c 0.01074,-0.017729 0.02074,-0.036111 0.03118,-0.054108 v 0 c 0.0052,-0.00901 0.01041,-0.01804 0.01556,-0.027116 v 0 c 0.01029,-0.01813 0.0212,-0.035711 0.03118,-0.054108 v 0 c 0.005,-0.00921 0.01064,-0.01784 0.01556,-0.027117 v 0 c 0.0098,-0.018575 0.02027,-0.036639 0.0298,-0.055482 v 0 c 0.01435,-0.028374 0.02824,-0.057116 0.04186,-0.086098 v 0 c 0.0045,-0.00966 0.0095,-0.019014 0.01393,-0.028741 v 0 c 0.009,-0.019551 0.01705,-0.039784 0.02568,-0.059607 v 0 c 0.0043,-0.0099 0.0086,-0.019775 0.01287,-0.029741 v 0 c 0.0085,-0.019985 0.01724,-0.039724 0.02537,-0.059981 v 0 c 0.0041,-0.010169 0.0077,-0.020685 0.01174,-0.030928 v 0 c 0.01198,-0.030726 0.02387,-0.061503 0.03505,-0.092846 v 0 c 0.0037,-0.010495 0.0073,-0.02111 0.011,-0.031678 v 0 c 0.01099,-0.031791 0.02133,-0.064054 0.03149,-0.09647 v 0 c 0.0034,-0.010797 0.0073,-0.021246 0.01056,-0.032114 v 0 c 0.01,-0.032879 0.01877,-0.066581 0.02786,-0.100094 v 0 c 0.0047,-0.017438 0.01,-0.034498 0.0145,-0.052108 v 0 c 0.01386,-0.054325 0.02669,-0.1093704 0.03824,-0.1653234 0.0017,-0.0082 0.0025,-0.016073 0.0041,-0.024242 v 0 c 0.01589,-0.1004849 0.03307,-0.1986101 0.04439,-0.2992579 0.03012,-0.2677927 0.0092,-0.5408545 0.0057,-0.5801944 -0.0085,-0.094837 -0.02327,-0.1874071 -0.04111,-0.2786629 v 0 c -0.0057,-0.029045 -0.01063,-0.0584 -0.01718,-0.087098 v 0 c -0.02341,-0.1025121 -0.05337,-0.2023838 -0.08735,-0.3005929 v 0 c -0.01568,-0.045343 -0.0318,-0.090493 -0.0496,-0.1349571 v 0 C 11.257185,5.3384772 9.8940742,4.4195189 8.733337,3.5809444 l 0.00594,0.00594 c 0.048487,0.048416 0.043478,0.043478 -3.2e-6,-3.2e-6 C 8.2209204,3.1971731 7.7132917,2.7833553 7.1829483,2.4144353 v 0 C 6.4680363,1.7826415 5.8178778,2.1727659 6.1938831,2.7765202 Z m 1.9686956,3.0103696 c 0.9632595,5.9e-6 1.7441341,0.7808804 1.74414,1.7441399 -5.1e-6,0.96326 -0.78088,1.7441354 -1.74414,1.7441413 -0.9632605,-5.1e-6 -1.7441362,-0.7808808 -1.7441413,-1.7441413 5.9e-6,-0.96326 0.7808813,-1.7441348 1.7441413,-1.7441399 z"
           style="fill:url(#linearGradient12);fill-opacity:1;stroke:#ffffff;stroke-width:0.1;stroke-dasharray:none;stroke-opacity:1"
           id="path663"
           sodipodi:nodetypes="ccsscssscsssaaaacsssssssscssssssssssssssssssssssssssssssssssssssssssssssssssssssssssssssssssssssssssssssssssssssssssssssssssssssssssssssssssssssssssssscccsscccccc" /><circle
           style="fill:url(#linearGradient16);fill-opacity:1;fill-rule:evenodd;stroke:#ffffff;stroke-width:0.1;stroke-linecap:round;stroke-linejoin:bevel;stroke-miterlimit:3.7;stroke-dasharray:none;stroke-opacity:1"
           id="path15"
           cx="8.165102"
           cy="7.534976"
           r="1.3037741" /></g></g></g></svg>
