<svg width="150" height="50" viewBox="0 0 39.687 13.229" xmlns:xlink="http://www.w3.org/1999/xlink" xmlns="http://www.w3.org/2000/svg"><defs><linearGradient id="prefix__a"><stop offset="0" stop-color="#78e40c"/><stop offset="1" stop-color="#78e40c" stop-opacity="0"/></linearGradient><linearGradient id="prefix__b"><stop offset="0" stop-color="#0ff"/><stop offset=".311" stop-color="#0ff"/><stop offset=".547" stop-color="#0ff" stop-opacity=".247"/><stop offset="1" stop-color="#0ff" stop-opacity="0"/></linearGradient><linearGradient xlink:href="#prefix__b" id="prefix__f" x1="6.807" y1="3.013" x2="6.515" y2="10.216" gradientUnits="userSpaceOnUse" gradientTransform="matrix(1.532 0 0 1.68978 -3.519 -4.563)"/><linearGradient id="prefix__c"><stop offset="0" stop-color="#0ff" stop-opacity=".322"/><stop offset="1" stop-opacity="0"/></linearGradient><radialGradient xlink:href="#prefix__c" id="prefix__d" cx="7.039" cy="12.044" fx="7.039" fy="12.044" r="3.882" gradientTransform="matrix(1.68635 -.38482 .01016 4.9064 -23.48 -41.762)" gradientUnits="userSpaceOnUse"/><radialGradient xlink:href="#prefix__c" id="prefix__e" cx="7.039" cy="12.044" fx="7.039" fy="12.044" r="3.882" gradientTransform="matrix(2.62726 -.03717 -.00428 1.27989 -29.928 -29.774)" gradientUnits="userSpaceOnUse"/></defs><g fill-rule="evenodd"><g transform="matrix(1.94593 0 0 .99248 42.228 -7.86)"><ellipse cx="-11.486" cy="14.621" rx="6.548" ry="6.625" fill="url(#prefix__d)"/><ellipse cx="-11.486" cy="-14.621" rx="10.196" ry="6.625" transform="scale(1 -1)" fill="url(#prefix__e)"/></g><path style="line-height:113.22%;-inkscape-font-specification:'Great Vibes, Normal';text-align:center" d="M2.93 11.108q-.217 0-.443-.033-.62-.087-.916-.402-.286-.315-.286-.685 0-.402.325-.728.325-.336.916-.336.394 0 .857.173.256.098.611.326.355.229.818.479.492-.522.896-1.294.414-.771.818-1.651.414-.891.887-1.782.482-.891 1.113-1.674l.571-.706q-.364-.065-.758-.098-.394-.043-.818-.043-.532 0-1.094.065-.561.054-1.123.185-.926.217-1.566.695t-.975 1.043q-.325.555-.325 1.044 0 .336.167.608.177.26.522.38.217.076.444.076.334 0 .59-.152.257-.152.434-.37.177-.227.256-.434.089-.206.079-.304 0-.076.099-.076.098 0 .098.163v.01q0 .446-.246.772-.247.326-.62.5-.365.174-.74.174-.236 0-.492-.087-.532-.207-.788-.598-.257-.402-.257-.88 0-.445.217-.913.227-.478.66-.901.434-.435 1.074-.75.65-.315 1.497-.446.454-.076.897-.108.443-.033.857-.033.571 0 1.113.065.552.055 1.035.174.137-.13.275-.228.148-.098.266-.152.07-.033.119-.044.049-.01.078-.01.06 0 .06.043 0 .054-.148.174-.099.076-.187.174-.09.087-.109.13 1.005.283 1.626.782.63.49.63 1.163 0 .348-.207.76-.216.403-.6.653-.385.239-.818.358-.434.109-.808.13.325.11.71.327.393.206.718.51.335.305.444.717.069.261.069.533 0 .576-.306 1.043-.295.467-.798.804-.492.326-1.083.5-.591.185-1.173.185-.216 0-.443-.033-.946-.13-1.566-.326-.611-.196-1.074-.435-.956.794-2.079.794zm5.024-.315q.611 0 1.114-.207.502-.206.866-.543.375-.337.572-.75.207-.413.207-.815 0-.38-.207-.739-.207-.358-.65-.597-.385-.207-.798-.337-.404-.142-.7-.24-.295-.108-.345-.217 0-.13.099-.174.108-.054.276-.054.197 0 .473.033.276.032.58.032.316 0 .641-.152.335-.163.611-.424.276-.271.443-.586.178-.326.178-.663 0-.304-.188-.598-.187-.293-.62-.51-.434-.218-.936-.348-.493.75-.985 1.684-.493.924-.985 1.88-.493.945-.995 1.793-.503.847-1.005 1.456-.118.141-.187.217-.07.065-.187.185.463.206 1.054.391.59.185 1.35.26.078.012.157.012.089.01.167.01zm-5.22-.022q.55.032 1.004-.141.463-.185.857-.511l-.71-.38q-.354-.207-.758-.37-.285-.109-.522-.109-.364 0-.552.218-.187.206-.187.478 0 .282.217.543.217.25.65.272z" aria-label="B" font-size="6.43" font-family="Great Vibes" letter-spacing="1.072" text-anchor="middle" fill="url(#prefix__f)" stroke="#fff" stroke-width=".161" stroke-linecap="round" stroke-linejoin="bevel" stroke-miterlimit="3.7" transform="matrix(.81189 0 0 1.06383 14.507 -.387)"/></g></svg>