<svg width="32" height="32" xmlns="http://www.w3.org/2000/svg"><defs><linearGradient id="prefix__a" x1="54.539" x2="54.425" y1="4.495" y2="26.245" gradientTransform="translate(-35.864 1.316) scale(.95524)" gradientUnits="userSpaceOnUse"><stop stop-color="#001414" offset="0"/><stop stop-color="#00a0a0" offset=".31"/><stop stop-color="#0ff" offset=".684"/><stop stop-color="#0ff" stop-opacity=".247" offset=".947"/><stop stop-color="#b4b4b4" stop-opacity="0" offset="1"/></linearGradient></defs><path d="M8.605 26.366c-2.662-.471-5.05-1.665-6.71-3.354l-.467-.476.18-1.603c.567-5.01 1.547-8.587 3.27-11.925.454-.882.724-1.148 1.82-1.8a14.51 14.51 0 013.617-1.483c1.324-.335 1.658-.34 1.8-.025.06.129.096.243.082.254a5.004 5.004 0 01-.471.127c-.577.14-2.381.856-2.898 1.151-1.135.648-2.894 1.98-2.7 2.044.054.018.512-.175 1.017-.428 2.97-1.49 5.493-2.083 8.86-2.082 3.28 0 5.316.461 8.598 1.944.609.275 1.146.5 1.193.5.161 0-.697-.716-1.548-1.291-1.004-.68-1.988-1.155-3.339-1.613-.539-.183-1.014-.363-1.055-.399-.042-.036-.03-.15.025-.254.138-.258.645-.248 1.725.033 1.44.374 3.077 1.099 4.286 1.898.69.456 1.013.895 1.622 2.203 1.486 3.192 2.455 7.007 2.934 11.55l.127 1.204-.549.556c-1.755 1.782-4.714 3.134-7.376 3.372l-.669.06-.47-.65c-.258-.358-.439-.681-.4-.718.037-.038.4-.21.807-.384a12.379 12.379 0 002.67-1.564c.91-.69 1.957-1.661 1.878-1.743-.034-.036-.456.176-.936.471-2.104 1.292-4.04 1.995-6.563 2.385-.784.12-1.416.14-3.388.108-2.204-.037-2.526-.063-3.54-.28-2.184-.47-3.909-1.167-5.691-2.301-.458-.292-.85-.513-.872-.491-.022.021.34.401.804.845a14.42 14.42 0 004.36 2.82l.341.14-.265.385a7.016 7.016 0 01-.532.67c-.306.329-.457.343-1.577.144zm3.614-6.468c.52-.155 1.152-.69 1.46-1.236.254-.453.276-.555.276-1.338 0-.673-.04-.93-.188-1.253-.425-.919-1.18-1.44-2.086-1.44a2.09 2.09 0 00-1.546.625c-.426.411-.632.806-.77 1.477-.2.965.099 1.911.828 2.626.596.584 1.274.765 2.026.54zm8.7-.03c1.992-.592 2.346-3.742.555-4.927-.31-.205-.49-.252-1.057-.278-.81-.037-1.203.121-1.715.688-.419.463-.556.74-.69 1.388-.261 1.266.34 2.51 1.47 3.047.52.246.825.263 1.437.082z" fill="url(#prefix__a)" fill-rule="evenodd" opacity=".922" stroke="#fff" stroke-linecap="round" stroke-width=".191"/></svg>