<?xml version="1.0" encoding="UTF-8"?>
<!-- Created with Inkscape (http://www.inkscape.org/) -->
<svg width="32" height="32" version="1.1" viewBox="0 0 32 32" xml:space="preserve" xmlns="http://www.w3.org/2000/svg" xmlns:xlink="http://www.w3.org/1999/xlink"><defs><linearGradient id="linearGradient8" x1="54.539" x2="54.425" y1="4.4951" y2="26.245" gradientTransform="matrix(.95524 0 0 .95524 -35.864 1.3156)" gradientUnits="userSpaceOnUse"><stop stop-color="#001414" offset="0"/><stop stop-color="#00a0a0" offset=".3102"/><stop stop-color="#0ff" offset=".68369"/><stop stop-color="#0ff" stop-opacity=".24706" offset=".9466"/><stop stop-color="#b4b4b4" stop-opacity="0" offset="1"/></linearGradient></defs><g fill="none" stroke="#80ff00" stroke-linecap="round" stroke-width=".45568"/><path d="m8.6047 26.366c-2.6617-0.47121-5.0503-1.6654-6.7092-3.3542l-0.46773-0.47617 0.181-1.6025c0.56591-5.0105 1.5462-8.5868 3.2685-11.925 0.45492-0.88165 0.72487-1.1485 1.8203-1.7995 1.0356-0.61544 2.4075-1.1781 3.6177-1.4838 1.3239-0.33436 1.6575-0.33903 1.8005-0.025218 0.05875 0.12894 0.09524 0.2434 0.0812 0.25434-0.01404 0.010985-0.22625 0.0683-0.47145 0.12748-0.57661 0.13913-2.381 0.85554-2.8979 1.1506-1.1348 0.64769-2.8933 1.9796-2.6992 2.0443 0.053684 0.017863 0.51115-0.17502 1.0166-0.42867 2.9697-1.4903 5.4925-2.0831 8.8603-2.082 3.2793 9.552e-4 5.3152 0.46143 8.5974 1.9441 0.60916 0.27518 1.146 0.50033 1.1929 0.50033 0.16135 0-0.69666-0.71607-1.5475-1.2915-1.0037-0.67886-1.9883-1.1544-3.3387-1.6126-0.53944-0.18303-1.0146-0.36253-1.0559-0.39889-0.04136-0.036395-0.0299-0.15066 0.02541-0.25401 0.13793-0.25773 0.64518-0.2482 1.7252 0.032478 1.4403 0.37422 3.0764 1.099 4.2857 1.8985 0.68982 0.45603 1.0128 0.89474 1.6217 2.2028 1.4861 3.1926 2.4552 7.0073 2.9342 11.55l0.12692 1.2037-0.54866 0.5568c-1.7553 1.7813-4.7139 3.1338-7.3759 3.3718l-0.66874 0.0598-0.46998-0.65038c-0.2585-0.35771-0.43906-0.68083-0.40125-0.71804 0.03783-0.03725 0.40135-0.20976 0.80788-0.3834 0.94623-0.4042 1.7989-0.90357 2.6702-1.5638 0.91007-0.68961 1.9568-1.6615 1.8779-1.7435-0.03448-0.03582-0.45576 0.17634-0.93623 0.47137-2.1037 1.2918-4.0392 1.995-6.563 2.3845-0.78409 0.121-1.4157 0.14113-3.3883 0.10797-2.2038-0.03706-2.526-0.06257-3.5391-0.28016-2.1848-0.46927-3.9095-1.1664-5.6916-2.3005-0.45818-0.29158-0.85058-0.51261-0.872-0.4912-0.021397 0.0214 0.34031 0.40154 0.80386 0.8447 1.2109 1.1577 2.7858 2.1764 4.3612 2.821l0.34013 0.13918-0.26489 0.385c-0.14569 0.21176-0.38506 0.51365-0.53194 0.67088-0.30667 0.32828-0.45702 0.34197-1.5776 0.14359zm3.6146-6.4675c0.52056-0.15596 1.1513-0.69062 1.459-1.2368 0.25517-0.45291 0.27629-0.55517 0.27624-1.3375-5.8e-5 -0.67308-0.03859-0.93041-0.18775-1.2528-0.42519-0.91925-1.1793-1.4399-2.0854-1.4399-0.61813 0-1.1018 0.19523-1.5461 0.62405-0.42634 0.4115-0.6323 0.80625-0.77084 1.4775-0.19908 0.96455 0.099574 1.9111 0.8285 2.6259 0.59598 0.5844 1.2741 0.76496 2.0264 0.53956zm8.7001-0.03105c1.9913-0.59135 2.3458-3.7412 0.55448-4.9266-0.30918-0.20461-0.49027-0.25225-1.0569-0.27803-0.80925-0.03678-1.2033 0.12126-1.7154 0.68806-0.41821 0.46292-0.55606 0.74043-0.68963 1.3884-0.26097 1.266 0.33986 2.5106 1.4709 3.0469 0.51864 0.24591 0.82432 0.26323 1.4366 0.08139z" fill="url(#linearGradient8)" fill-rule="evenodd" opacity=".92177" stroke="#fff" stroke-linecap="round" stroke-width=".19105"/></svg>
