<svg width="32" height="32" xmlns="http://www.w3.org/2000/svg"><defs><linearGradient id="prefix__a" x1="25.557" x2="25.748" y1="-7.014" y2="54.405" gradientTransform="matrix(.46374 0 0 .52931 4.456 2.767)" gradientUnits="userSpaceOnUse"><stop stop-color="#0ff" offset="0"/><stop stop-color="#00a0a0" offset=".238"/><stop stop-color="#0ff" offset=".366"/><stop stop-color="#0ff" stop-opacity=".247" offset=".61"/><stop stop-color="#0ff" stop-opacity="0" offset="1"/></linearGradient></defs><path d="M23.448 3.178c-1.029.01-2.398 1.508-3.173 1.632-1.299.208-2.949-.467-4.319-.43-.87.025-1.924.58-2.768.42-1.162-.222-2.236-1.88-3.538-1.517-1.455.406-.362 3.409-.658 4.382-.326 1.071-1.02 1.854-1.194 3.033-.418 2.833.322 6.16 2.511 7.823 1.13.86 2.46 1.123 3.765 1.404-.32.606-.51 1.54-.884 2.06-.51.707-2.014.575-2.66.255-1.722-.852-1.974-3.374-4.208-3.073.324.79 1.023 1.197 1.464 1.896.448.712.664 1.583 1.142 2.273 1.06 1.528 2.724 1.591 4.26 1.265 0 .802.294 2.607-.178 3.246a.635.635 0 01-.3.228 13.052 14.898 0 004.017.747 13.052 14.898 0 004.018-.748.677.677 0 01-.121-.064c-.58-.387-.349-1.752-.349-2.397 0-2.085.085-3.847-.886-5.688 1.267-.348 2.518-.518 3.654-1.323 2.282-1.617 3.046-5.03 2.622-7.904-.176-1.196-1.008-2.052-1.226-3.16-.237-1.2.686-3.053-.345-4.094a.862.862 0 00-.646-.266zm-9.894 7.102a1.265.822 0 011.265.822 1.265.822 0 01-1.265.823 1.265.822 0 01-1.265-.823 1.265.822 0 011.265-.822zm6.07 0a1.265.822 0 011.266.822 1.265.822 0 01-1.266.823 1.265.822 0 01-1.265-.823 1.265.822 0 011.265-.822z" fill="url(#prefix__a)" fill-rule="evenodd" stroke="#fff" stroke-linecap="round" stroke-width=".48"/></svg>