<?xml version="1.0" encoding="UTF-8"?>
<!-- Created with Inkscape (http://www.inkscape.org/) -->
<svg width="32" height="32" version="1.1" viewBox="0 0 32 32" xml:space="preserve" xmlns="http://www.w3.org/2000/svg" xmlns:xlink="http://www.w3.org/1999/xlink"><defs><linearGradient id="linearGradient4-1" x1="25.557" x2="25.748" y1="-7.0145" y2="54.405" gradientTransform="matrix(.46374 0 0 .52931 4.4557 2.7671)" gradientUnits="userSpaceOnUse"><stop stop-color="#0ff" offset="0"/><stop stop-color="#00a0a0" offset=".23799"/><stop stop-color="#0ff" offset=".36615"/><stop stop-color="#0ff" stop-opacity=".24706" offset=".61011"/><stop stop-color="#0ff" stop-opacity="0" offset="1"/></linearGradient></defs><g fill="none" stroke="#80ff00" stroke-linecap="round" stroke-width=".45568"/><path d="m23.448 3.1777c-1.0287 0.00948-2.3977 1.5079-3.173 1.632-1.2986 0.20795-2.9489-0.4672-4.3186-0.4289-0.87079 0.024353-1.9239 0.57959-2.7682 0.41866-1.1625-0.22156-2.2363-1.8787-3.5377-1.5161-1.4556 0.4055-0.36259 3.4082-0.65858 4.3816-0.32577 1.0713-1.0203 1.8545-1.1941 3.0334-0.41769 2.8331 0.32221 6.1596 2.5112 7.823 1.1305 0.85904 2.4591 1.123 3.7649 1.4039-0.31929 0.60538-0.50973 1.5405-0.88433 2.0597-0.51026 0.70717-2.0132 0.57471-2.6591 0.25521-1.7221-0.8519-1.9746-3.3744-4.2081-3.0736 0.32358 0.78981 1.0223 1.197 1.4632 1.8963 0.44868 0.71164 0.66408 1.5831 1.1424 2.2731 1.0591 1.5278 2.7238 1.5912 4.2601 1.2654 0 0.80212 0.29424 2.6071-0.17766 3.246-0.08641 0.117-0.18907 0.18709-0.29968 0.22735a13.052 14.898 0 0 0 4.0161 0.74761 13.052 14.898 0 0 0 4.0179-0.74843c-0.04193-0.01715-0.08236-0.03769-0.12095-0.06349-0.57935-0.38746-0.34885-1.7525-0.34885-2.3977 2e-6 -2.0851 0.08493-3.8471-0.88576-5.6875 1.2667-0.34821 2.5181-0.51818 3.6543-1.3232 2.282-1.6167 3.0454-5.0301 2.6218-7.9037-0.17633-1.1961-1.0082-2.0524-1.2264-3.1596-0.23649-1.2001 0.68585-3.0542-0.34454-4.0948-0.18971-0.19159-0.40898-0.26846-0.64638-0.26627zm-9.8938 7.1025a1.2653 0.82242 0 0 1 1.2651 0.82216 1.2653 0.82242 0 0 1-1.2651 0.82257 1.2653 0.82242 0 0 1-1.2655-0.82257 1.2653 0.82242 0 0 1 1.2655-0.82216zm6.0701 0a1.2653 0.82242 0 0 1 1.2655 0.82216 1.2653 0.82242 0 0 1-1.2655 0.82257 1.2653 0.82242 0 0 1-1.2655-0.82257 1.2653 0.82242 0 0 1 1.2655-0.82216z" fill="url(#linearGradient4-1)" fill-rule="evenodd" stroke="#fff" stroke-linecap="round" stroke-width=".48026"/></svg>
