<?xml version="1.0" encoding="UTF-8"?>
<!-- Created with Inkscape (http://www.inkscape.org/) -->
<svg width="50" height="50" version="1.1" viewBox="0 0 13.229 13.229" xml:space="preserve" xmlns="http://www.w3.org/2000/svg" xmlns:xlink="http://www.w3.org/1999/xlink"><defs><linearGradient id="linearGradient9" x1="85.289" x2="3.9563" y1="-12.636" y2="85.679" gradientTransform="matrix(.1422 .009929 -.011886 .11878 1.4465 1.3713)" gradientUnits="userSpaceOnUse"><stop stop-color="#0ff" offset="0"/><stop stop-color="#0ff" stop-opacity=".32143" offset=".42213"/><stop stop-color="#0ff" stop-opacity=".24706" offset=".58188"/><stop stop-color="#0ff" stop-opacity="0" offset="1"/></linearGradient><radialGradient id="radialGradient12" cx="7.0392" cy="12.044" r="3.8821" gradientTransform="matrix(1.6863 -.38482 .010161 4.9064 -23.479 -41.762)" gradientUnits="userSpaceOnUse" xlink:href="#linearGradient11"/><linearGradient id="linearGradient11"><stop stop-color="#0ff" stop-opacity=".32157" offset="0"/><stop stop-opacity="0" offset="1"/></linearGradient><radialGradient id="radialGradient12-0" cx="7.0392" cy="12.044" r="3.8821" gradientTransform="matrix(2.6273 -.037166 -.0042849 1.2799 -29.928 -29.774)" gradientUnits="userSpaceOnUse" xlink:href="#linearGradient11"/></defs><g fill-rule="evenodd"><g transform="matrix(2.3968 0 0 .93293 34.145 -7.0255)"><ellipse cx="-11.486" cy="14.621" rx="6.5481" ry="6.6251" fill="url(#radialGradient12)"/><ellipse transform="scale(1,-1)" cx="-11.486" cy="-14.621" rx="10.196" ry="6.6251" fill="url(#radialGradient12-0)"/></g><path d="m3.5499 9.8869c0.27942 0.48515-0.46021 0.47668-0.4917 0.78115-0.037595 0.3634-0.51976 0.56307-1.0076 0.4733-0.81687-0.15028-1.0072-0.37453-0.65079-0.36529 0.50594 0.013131 0.81867-0.2986 0.69523-0.73927-0.047341-0.66146 0.63137-0.45957 1.0039-0.53001 0.47043-0.12492 8.1362-7.9894 8.8556-7.4096 0.75677 0.60994-8.4487 7.5142-8.4046 7.7897 1e-6 5.7e-6 3.8e-6 6.6e-6 5.6e-6 6.6e-6z" fill="url(#linearGradient9)" stroke="#fff" stroke-linecap="round" stroke-width=".11662"/></g></svg>
