<svg width="150" height="50" viewBox="0 0 39.687 13.229" xmlns:xlink="http://www.w3.org/1999/xlink" xmlns="http://www.w3.org/2000/svg"><defs><radialGradient id="prefix__b" cx="7.039" cy="12.044" r="3.882" gradientTransform="matrix(1.6863 -.38482 .01016 4.9064 -23.479 -41.762)" gradientUnits="userSpaceOnUse" xlink:href="#prefix__a"/><radialGradient id="prefix__c" cx="7.039" cy="12.044" r="3.882" gradientTransform="matrix(2.6273 -.03717 -.00428 1.2799 -29.928 -29.774)" gradientUnits="userSpaceOnUse" xlink:href="#prefix__a"/><linearGradient id="prefix__d" x1="85.289" x2="3.956" y1="-12.636" y2="85.679" gradientTransform="matrix(.1422 .00993 -.01189 .11878 1.446 1.371)" gradientUnits="userSpaceOnUse"><stop stop-color="#0ff" offset="0"/><stop stop-color="#0ff" stop-opacity=".321" offset=".422"/><stop stop-color="#0ff" stop-opacity=".247" offset=".582"/><stop stop-color="#0ff" stop-opacity="0" offset="1"/></linearGradient><linearGradient id="prefix__a"><stop stop-color="#0ff" stop-opacity=".322" offset="0"/><stop stop-opacity="0" offset="1"/></linearGradient></defs><g fill-rule="evenodd"><g transform="matrix(1.94055 0 0 .9881 42.133 -7.832)"><ellipse cx="-11.486" cy="14.621" rx="6.548" ry="6.625" fill="url(#prefix__b)"/><ellipse transform="scale(1 -1)" cx="-11.486" cy="-14.621" rx="10.196" ry="6.625" fill="url(#prefix__c)"/></g><path d="M3.55 9.887c.28.485-.46.477-.492.781-.037.363-.52.563-1.007.473-.817-.15-1.008-.374-.651-.365.506.013.818-.299.695-.74-.047-.66.631-.459 1.004-.53.47-.124 8.136-7.989 8.856-7.409.756.61-8.45 7.514-8.405 7.79 0 0 0 0 0 0z" fill="url(#prefix__d)" stroke="#fff" stroke-linecap="round" stroke-width=".117" transform="matrix(.80964 0 0 1.05913 14.487 -.392)"/></g></svg>