<svg width="32" height="32" xmlns="http://www.w3.org/2000/svg"><defs><linearGradient id="prefix__a" x1="23.702" x2="23.765" y1="-7.693" y2="53.089" gradientTransform="translate(3.397 3.39) scale(.86413)" gradientUnits="userSpaceOnUse"><stop stop-color="#0ff" offset="0"/><stop stop-color="#0ff" offset=".5"/><stop stop-color="#0ff" stop-opacity=".247" offset=".699"/><stop stop-color="#0ff" stop-opacity="0" offset="1"/></linearGradient></defs><path d="M7.564 8.41q0-1.119.739-1.881.762-.787 1.835-.787 1.12 0 1.882.787.786.786.786 1.882 0 1.048-.786 1.835-.763.786-1.882.786-1.12 0-1.859-.763-.715-.762-.715-1.858zm.548 35.836V17.894h3.956v26.352zm34.323 0h-3.979V29.188q0-8.53-6.242-8.53-3.264 0-5.361 2.454-2.097 2.43-2.097 6.1v15.034h-3.979V17.894h3.98v4.408h.118q2.955-5.028 8.65-5.028 4.336 0 6.623 2.788t2.287 8.077z" fill="url(#prefix__a)" fill-rule="evenodd" opacity=".922" stroke="#fff" stroke-linecap="round" stroke-width=".756" aria-label="in" transform="translate(.628 .628) scale(.61487)"/></svg>