<?xml version="1.0" encoding="UTF-8"?>
<!-- Created with Inkscape (http://www.inkscape.org/) -->
<svg width="32" height="32" version="1.1" viewBox="0 0 32 32" xml:space="preserve" xmlns="http://www.w3.org/2000/svg" xmlns:xlink="http://www.w3.org/1999/xlink"><defs><linearGradient id="linearGradient7" x1="23.702" x2="23.765" y1="-7.6933" y2="53.089" gradientTransform="matrix(.86413 0 0 .86413 3.3968 3.3907)" gradientUnits="userSpaceOnUse"><stop stop-color="#0ff" offset="0"/><stop stop-color="#0ff" offset=".5"/><stop stop-color="#0ff" stop-opacity=".24706" offset=".69936"/><stop stop-color="#0ff" stop-opacity="0" offset="1"/></linearGradient></defs><g fill="none" stroke="#80ff00" stroke-linecap="round" stroke-width=".45568"/><g transform="matrix(.61487 0 0 .61487 .62814 .62763)"><text fill="#75d811" fill-rule="evenodd" font-family="Arial" font-size="144px" letter-spacing=".11px" opacity=".92177" stroke-width="0" style="line-height:94.42%;shape-inside:url(#rect2-1);white-space:pre" xml:space="preserve"/><path d="m7.5644 8.4109q0-1.1198 0.73861-1.8823 0.76244-0.78627 1.8346-0.78627 1.1198 0 1.8823 0.78627 0.78626 0.78627 0.78626 1.8823 0 1.0484-0.78626 1.8346-0.76244 0.78627-1.8823 0.78627-1.1198 0-1.8584-0.76244-0.71479-0.76244-0.71479-1.8584zm0.548 35.835v-26.352h3.9552v26.352zm34.323 0h-3.979v-15.058q0-8.5298-6.2425-8.5298-3.2642 0-5.3609 2.4541-2.0967 2.4303-2.0967 6.0995v15.034h-3.979v-26.352h3.979v4.4079h0.11913q2.9545-5.0273 8.6489-5.0273 4.3364 0 6.6237 2.7877 2.2873 2.7877 2.2873 8.0771z" fill="url(#linearGradient7)" fill-rule="evenodd" opacity=".92177" stroke="#fff" stroke-linecap="round" stroke-width=".75591" aria-label="in"/></g></svg>
