<?xml version="1.0" encoding="UTF-8"?>
<!-- Created with Inkscape (http://www.inkscape.org/) -->
<svg width="32" height="32" version="1.1" viewBox="0 0 32 32" xml:space="preserve" xmlns="http://www.w3.org/2000/svg" xmlns:xlink="http://www.w3.org/1999/xlink"><defs><linearGradient id="linearGradient1-2"><stop stop-color="#0ff" offset="0"/><stop stop-color="#0ff" offset=".1313"/><stop stop-color="#0ff" stop-opacity=".24706" offset=".45776"/><stop stop-color="#0ff" stop-opacity="0" offset="1"/></linearGradient><linearGradient id="linearGradient11-3" x1="24.683" x2="24.409" y1="7.4233" y2="43.311" gradientTransform="translate(.027416 .040378)" gradientUnits="userSpaceOnUse" xlink:href="#linearGradient1-2"/><linearGradient id="linearGradient15" x1="25.808" x2="24.909" y1="3.7983" y2="44.811" gradientTransform="translate(.038651 -.040016)" gradientUnits="userSpaceOnUse" xlink:href="#linearGradient1-2"/><linearGradient id="linearGradient16" x1="25.308" x2="24.909" y1="10.673" y2="44.811" gradientTransform="translate(.030469 -5.8542e-5)" gradientUnits="userSpaceOnUse" xlink:href="#linearGradient1-2"/><linearGradient id="linearGradient17" x1="25.808" x2="24.909" y1="3.7983" y2="44.811" gradientTransform="translate(.032027 .0059935)" gradientUnits="userSpaceOnUse" xlink:href="#linearGradient1-2"/></defs><g fill="none" stroke="#80ff00" stroke-linecap="round" stroke-width=".45568"/><g transform="matrix(.62516 0 0 .62516 .35141 .37095)"><g fill="none" stroke="#80ff00" stroke-linecap="round" stroke-width=".45568"/><g stroke="#fff" stroke-linecap="round"><g fill-rule="evenodd" stroke-width=".37795"><path d="m2.0437 11.054 10.39 13.633-10.386 14.24z" fill="url(#linearGradient16)"/><path d="m2.1804 39.206 10.336-14.406 12.651 4.1114 12.344-3.9845 10.368 14.275z" fill="url(#linearGradient15)"/><path d="m47.863 10.794-10.482 13.915-6.1306 1.9335-6.1287 1.988-6.8564-2.2615-5.6258-1.8126-10.439-13.763 34.135 1.93e-4z" fill="url(#linearGradient11-3)"/><path d="m48.019 11.056-10.39 13.637 10.386 14.232z" fill="url(#linearGradient17)"/></g><path d="m2.0625 10.812h45.937v28.375h-45.937z" fill="none" stroke-linejoin="bevel" stroke-miterlimit="3.7" stroke-width=".41575"/></g></g></svg>
