<svg width="32" height="32" xmlns="http://www.w3.org/2000/svg" xmlns:xlink="http://www.w3.org/1999/xlink"><defs><linearGradient id="prefix__a"><stop stop-color="#0ff" offset="0"/><stop stop-color="#0ff" offset=".131"/><stop stop-color="#0ff" stop-opacity=".247" offset=".458"/><stop stop-color="#0ff" stop-opacity="0" offset="1"/></linearGradient><linearGradient id="prefix__d" x1="24.683" x2="24.409" y1="7.423" y2="43.311" gradientTransform="translate(.027 .04)" gradientUnits="userSpaceOnUse" xlink:href="#prefix__a"/><linearGradient id="prefix__c" x1="25.808" x2="24.909" y1="3.798" y2="44.811" gradientTransform="translate(.039 -.04)" gradientUnits="userSpaceOnUse" xlink:href="#prefix__a"/><linearGradient id="prefix__b" x1="25.308" x2="24.909" y1="10.673" y2="44.811" gradientTransform="translate(.03)" gradientUnits="userSpaceOnUse" xlink:href="#prefix__a"/><linearGradient id="prefix__e" x1="25.808" x2="24.909" y1="3.798" y2="44.811" gradientTransform="translate(.032 .006)" gradientUnits="userSpaceOnUse" xlink:href="#prefix__a"/></defs><g stroke-linecap="round"><g stroke="#fff"><g fill-rule="evenodd" stroke-width=".378"><path d="M2.044 11.054l10.39 13.633-10.386 14.24z" fill="url(#prefix__b)" transform="translate(.351 .371) scale(.62516)"/><path d="M2.18 39.206L12.516 24.8l12.651 4.111 12.344-3.984L47.88 39.202z" fill="url(#prefix__c)" transform="translate(.351 .371) scale(.62516)"/><path d="M47.863 10.794L37.381 24.709l-6.13 1.933-6.13 1.988-6.856-2.261-5.626-1.813L2.2 10.793h34.135z" fill="url(#prefix__d)" transform="translate(.351 .371) scale(.62516)"/><path d="M48.019 11.056l-10.39 13.637 10.386 14.232z" fill="url(#prefix__e)" transform="translate(.351 .371) scale(.62516)"/></g><path d="M1.64 7.13H30.36v17.74H1.64z" fill="none" stroke-linejoin="bevel" stroke-miterlimit="3.7" stroke-width=".26006656"/></g></g></svg>