<?xml version="1.0" encoding="UTF-8"?>
<!-- Created with Inkscape (http://www.inkscape.org/) -->
<svg width="32" height="32" version="1.1" viewBox="0 0 32 32" xml:space="preserve" xmlns="http://www.w3.org/2000/svg" xmlns:xlink="http://www.w3.org/1999/xlink"><defs><linearGradient id="linearGradient4-8" x1="5.9553" x2="25.511" y1="28.815" y2="28.815" gradientTransform="matrix(2.1467 0 0 1.2605 -8.7756 2.101)" gradientUnits="userSpaceOnUse"><stop stop-color="#001414" offset="0"/><stop stop-color="#00a0a0" offset=".3102"/><stop stop-color="#0ff" offset=".70308"/><stop stop-color="#0ff" stop-opacity=".24706" offset=".9466"/><stop stop-color="#b4b4b4" stop-opacity="0" offset="1"/></linearGradient><linearGradient id="linearGradient10" x1="1202.5" x2="1149.3" y1="261.04" y2="567.77" gradientUnits="userSpaceOnUse" xlink:href="#linearGradient4-8"/></defs><g fill="none" stroke="#80ff00" stroke-linecap="round" stroke-width=".45568"/><g transform="matrix(.10345 0 0 .10345 -104.67 -11.535)" fill="url(#linearGradient10)" fill-rule="evenodd" stroke="#fff" stroke-linecap="round"><path transform="matrix(.94059 -.33956 .27416 .96169 0 0)" d="m990.6 644.35 160.89-32.153-62.82 86.668-98.892 27.709z" opacity=".92177" stroke-width="1.9356"/><g transform="matrix(1.0986 0 0 1.0986 -156.26 -128.09)" stroke-width="1.7598"><path d="m1084.7 353.98 240.15-96.891-47.292 203.53-62.289-45.335-43.058 32.911 8.8647-56.126 99.761-95.093-128.58 77.545z" opacity=".92177"/><path d="m1181.6 392.02 33.211 22.792z" opacity=".92177"/><path d="m1152.3 375.09 19.536 74.562z" opacity=".92177"/></g></g></svg>
