<?xml version="1.0" encoding="UTF-8"?>
<!-- Created with Inkscape (http://www.inkscape.org/) -->
<svg width="32" height="32" version="1.1" viewBox="0 0 32 32" xml:space="preserve" xmlns="http://www.w3.org/2000/svg" xmlns:xlink="http://www.w3.org/1999/xlink"><defs><linearGradient id="linearGradient38" x1="54.134" x2="48.797" y1="5.3993" y2="43.318" gradientTransform="translate(-28.66 -.27113)" gradientUnits="userSpaceOnUse"><stop stop-color="#001414" offset="0"/><stop stop-color="#00a0a0" offset=".3102"/><stop stop-color="#0ff" offset=".70308"/><stop stop-color="#0ff" stop-opacity=".24706" offset=".9466"/><stop stop-color="#b4b4b4" stop-opacity="0" offset="1"/></linearGradient></defs><g fill="none" stroke="#80ff00" stroke-linecap="round" stroke-width=".45568"/><path d="m16.395 27.763c-2.8241-0.6476-4.665-1.8717-5.8602-3.8966-0.76541-1.2967-1.1189-3.5721-0.88274-5.682 0.08038-0.7182 0.18058-1.417 0.22264-1.5529 0.07101-0.22935-0.1189-0.2472-2.6505-0.2492-1.4999-0.0012-2.8147-0.05775-2.9218-0.12555-0.23964-0.15179-0.19693-0.48105 0.56948-4.3897 0.3121-1.5917 0.63324-2.9734 0.71365-3.0704 0.10374-0.12516 0.74594-0.18051 2.2112-0.19042 1.1357-0.00773 2.4143-0.055298 2.8414-0.10583l0.77643-0.091906 0.53988-1.694c0.74963-2.3522 0.78591-2.4333 1.1304-2.5257 0.40798-0.10944 7.3502-0.10969 7.6353-2.192e-4 0.29336 0.11253 0.2817 0.49991-0.05904 1.9613-0.15529 0.66597-0.28234 1.4217-0.28234 1.6794v0.46851l0.86772 0.090745c0.47724 0.049884 2.0532 0.090745 3.5022 0.090745 2.0595 0 2.6943 0.043955 2.9085 0.20141 0.26881 0.19758 0.26236 0.25869-0.33919 3.2116-0.33727 1.6556-0.71842 3.3278-0.84701 3.716l-0.23379 0.70584-2.7528-0.05014c-2.5481-0.0464-2.8127-0.02746-3.5585 0.25495-1.612 0.61043-2.5796 2.2046-2.5767 4.2452 0.0013 0.92437 0.05804 1.1622 0.43774 1.8352 0.54616 0.96805 1.5276 1.5496 2.6149 1.5496 0.85631 0 1.3227-0.23076 2.0148-0.99681 0.51269-0.56748 0.53203-0.62513 0.47486-1.4155-0.07376-1.0198-0.36989-1.4001-1.0877-1.3971-0.58234 0.0026-0.75668 0.09268-0.9726 0.50326-0.11667 0.22185-0.10607 0.38692 0.04335 0.67492 0.23414 0.4513 0.1509 0.75094-0.24336 0.87608-0.75328 0.23908-1.459-0.78026-1.347-1.9456 0.12499-1.3008 1.192-2.142 2.7115-2.1376 2.3479 0.0064 3.8952 2.2469 3.2613 4.7215-0.72589 2.8334-3.2692 4.6212-6.8919 4.8446-0.71547 0.04408-1.4731 4.25e-4 -1.9699-0.11343z" fill="url(#linearGradient38)" fill-rule="evenodd" opacity=".92177" stroke="#fff" stroke-linecap="round" stroke-width=".2"/></svg>
