<svg width="32" height="32" xmlns="http://www.w3.org/2000/svg"><defs><linearGradient id="prefix__a" x1="54.134" x2="48.797" y1="5.399" y2="43.318" gradientTransform="translate(-28.66 -.271)" gradientUnits="userSpaceOnUse"><stop stop-color="#001414" offset="0"/><stop stop-color="#00a0a0" offset=".31"/><stop stop-color="#0ff" offset=".703"/><stop stop-color="#0ff" stop-opacity=".247" offset=".947"/><stop stop-color="#b4b4b4" stop-opacity="0" offset="1"/></linearGradient></defs><path d="M16.395 27.763c-2.824-.648-4.665-1.872-5.86-3.897-.766-1.296-1.12-3.572-.883-5.682.08-.718.18-1.417.223-1.552.07-.23-.12-.248-2.65-.25-1.5 0-2.815-.057-2.923-.125-.24-.152-.197-.481.57-4.39.312-1.592.633-2.973.714-3.07.103-.126.745-.18 2.21-.19 1.136-.008 2.415-.056 2.842-.107l.777-.092.54-1.694c.75-2.352.785-2.433 1.13-2.525.408-.11 7.35-.11 7.635 0 .294.112.282.5-.059 1.96-.155.667-.282 1.423-.282 1.68v.469l.867.09c.478.05 2.054.091 3.503.091 2.06 0 2.694.044 2.908.202.269.197.263.258-.339 3.211-.337 1.656-.718 3.328-.847 3.716l-.234.706-2.753-.05c-2.548-.046-2.812-.027-3.558.255-1.612.61-2.58 2.205-2.577 4.245.001.925.058 1.162.438 1.835.546.968 1.528 1.55 2.615 1.55.856 0 1.323-.23 2.015-.997.512-.567.532-.625.474-1.415-.073-1.02-.37-1.4-1.087-1.397-.583.002-.757.092-.973.503-.116.222-.106.387.044.675.234.451.15.75-.244.876-.753.239-1.459-.78-1.347-1.946.125-1.3 1.192-2.142 2.712-2.137 2.348.006 3.895 2.246 3.261 4.721-.726 2.833-3.27 4.621-6.892 4.845-.715.044-1.473 0-1.97-.114z" fill="url(#prefix__a)" fill-rule="evenodd" opacity=".922" stroke="#fff" stroke-linecap="round" stroke-width=".2"/></svg>