<svg width="32" height="32" xmlns="http://www.w3.org/2000/svg" xmlns:xlink="http://www.w3.org/1999/xlink"><defs><linearGradient id="prefix__a" x1="5.955" x2="25.511" y1="28.815" y2="28.815" gradientTransform="matrix(2.1467 0 0 1.2605 -8.776 2.101)" gradientUnits="userSpaceOnUse"><stop stop-color="#001414" offset="0"/><stop stop-color="#00a0a0" offset=".31"/><stop stop-color="#0ff" offset=".703"/><stop stop-color="#0ff" stop-opacity=".247" offset=".947"/><stop stop-color="#b4b4b4" stop-opacity="0" offset="1"/></linearGradient><linearGradient id="prefix__b" x1="50.106" x2="45.949" y1="8.715" y2="34.403" gradientUnits="userSpaceOnUse" xlink:href="#prefix__a"/></defs><g transform="translate(-37.028 -5.81) scale(1.1063)" fill="url(#prefix__b)" fill-rule="evenodd" stroke="#fff" stroke-linecap="round" stroke-width=".2"><path d="M42.906 30.103c-.032-.054-.08-.68-.107-1.392l-.05-1.293h-5.042v-14.53l1.389-3.612 19.066-.047v12.793l-5.525 5.395-4.214.009-2.836 2.775h-1.311c-.829 0-1.333-.036-1.37-.099zm3.739-4.541l1.334-1.296 5.158-.013 3.238-3.192.004-5.034.004-5.034H40.997v13.27h4.18v1.299c0 .715.03 1.298.067 1.298.036-.001.667-.585 1.4-1.298z" opacity=".922"/><path d="M51.224 17.396v-2.691h1.868v5.382h-1.868zM46.066 17.396v-2.691h1.868v5.382h-1.868z" opacity=".922"/></g></svg>