<?xml version="1.0" encoding="UTF-8"?>
<!-- Created with Inkscape (http://www.inkscape.org/) -->
<svg width="32" height="32" version="1.1" viewBox="0 0 32 32" xml:space="preserve" xmlns="http://www.w3.org/2000/svg" xmlns:xlink="http://www.w3.org/1999/xlink"><defs><linearGradient id="linearGradient4-8" x1="5.9553" x2="25.511" y1="28.815" y2="28.815" gradientTransform="matrix(2.1467 0 0 1.2605 -8.7756 2.101)" gradientUnits="userSpaceOnUse"><stop stop-color="#001414" offset="0"/><stop stop-color="#00a0a0" offset=".3102"/><stop stop-color="#0ff" offset=".70308"/><stop stop-color="#0ff" stop-opacity=".24706" offset=".9466"/><stop stop-color="#b4b4b4" stop-opacity="0" offset="1"/></linearGradient><linearGradient id="linearGradient33" x1="50.106" x2="45.949" y1="8.7152" y2="34.403" gradientUnits="userSpaceOnUse" xlink:href="#linearGradient4-8"/></defs><g fill="none" stroke="#80ff00" stroke-linecap="round" stroke-width=".45568"/><g transform="matrix(1.1063 0 0 1.1063 -37.028 -5.8103)" fill="url(#linearGradient33)" fill-rule="evenodd" stroke="#fff" stroke-linecap="round" stroke-width=".2"><path d="m42.906 30.103c-0.03207-0.05414-0.08039-0.6805-0.10738-1.3919l-0.04908-1.2935h-5.0429v-14.529l1.3892-3.6125 19.066-0.047232v12.793l-5.525 5.3951-4.2134 9e-3 -2.8367 2.7749h-1.3112c-0.82827 0-1.3326-0.03626-1.3695-0.09844zm3.7386-4.5413 1.334-1.296 5.1583-0.0124 3.2378-3.1922 0.0042-5.0341 0.0042-5.0341h-15.386v13.27h4.18v1.2991c0 0.71451 0.03001 1.2984 0.0667 1.2975 0.03669-8.51e-4 0.66702-0.58476 1.4007-1.2975z" opacity=".92177"/><path d="m51.224 17.396v-2.691h1.8676v5.3821h-1.8676z" opacity=".92177"/><path d="m46.066 17.396v-2.691h1.8676v5.3821h-1.8676z" opacity=".92177"/></g></svg>
