<?xml version="1.0" encoding="UTF-8"?>
<!-- Created with Inkscape (http://www.inkscape.org/) -->
<svg width="32" height="32" version="1.1" viewBox="0 0 32 32" xml:space="preserve" xmlns="http://www.w3.org/2000/svg" xmlns:xlink="http://www.w3.org/1999/xlink"><defs><linearGradient id="linearGradient4-8" x1="5.9553" x2="25.511" y1="28.815" y2="28.815" gradientTransform="matrix(2.1467 0 0 1.2605 -8.7756 2.101)" gradientUnits="userSpaceOnUse"><stop stop-color="#001414" offset="0"/><stop stop-color="#00a0a0" offset=".3102"/><stop stop-color="#0ff" offset=".70308"/><stop stop-color="#0ff" stop-opacity=".24706" offset=".9466"/><stop stop-color="#b4b4b4" stop-opacity="0" offset="1"/></linearGradient><linearGradient id="linearGradient18" x1="54.881" x2="45.89" y1="11.727" y2="33.648" gradientTransform="translate(-34.475 -1.1933)" gradientUnits="userSpaceOnUse" xlink:href="#linearGradient4-8"/><linearGradient id="linearGradient24" x1="3.5352" x2="37.59" y1="16" y2="16.75" gradientUnits="userSpaceOnUse" xlink:href="#linearGradient4-8"/></defs><g stroke-linecap="round"><g fill="none" stroke="#80ff00" stroke-width=".45568"/><path d="m27.618 16c1e-6 6.4166-5.2017 11.618-11.618 11.618-2.2835 0-4.4131-0.65876-6.2092-1.7966-0.51118-0.32384-2.7419 1.0601-3.1949 0.66277-0.49663-0.43557 0.79077-2.6594 0.3745-3.1728-1.6188-1.9967-2.5887-4.5409-2.5887-7.3116 0-6.4166 5.2017-11.618 11.618-11.618 6.4166 0 11.618 5.2017 11.618 11.618z" fill="none" stroke="#fff" stroke-width="1.993"/><path d="m27.618 16c1e-6 6.4166-5.2017 11.618-11.618 11.618-2.2835 0-4.4131-0.65876-6.2092-1.7966-0.51118-0.32384-2.7419 1.0601-3.1949 0.66277-0.49663-0.43557 0.79077-2.6594 0.3745-3.1728-1.6188-1.9967-2.5887-4.5409-2.5887-7.3116 0-6.4166 5.2017-11.618 11.618-11.618 6.4166 0 11.618 5.2017 11.618 11.618z" fill="none" stroke="url(#linearGradient24)" stroke-width="1.693"/><path d="m18.33 23.507c-2.1291-0.79258-3.9091-2.4595-5.3973-4.1618-1.1118-1.2717-1.8563-2.7024-2.663-5.118-0.53422-1.5995-0.64221-2.2506-0.50451-3.0413 0.19469-1.118 0.94537-2.2156 1.772-2.5909 0.43417-0.19713 1.1833-0.23268 1.3176-0.062523 0.04964 0.062895 0.40186 1.0523 0.78271 2.1987l0.69245 2.0843-0.48446 0.32166c-0.82152 0.54546-0.89187 1.0153-0.31617 2.1115 0.61137 1.1641 1.2963 2.1203 2.2322 3.1162 1.2036 1.2809 1.5714 1.3861 2.4508 0.70096l0.43145-0.33614 1.7938 1.3602c0.98659 0.74809 1.8133 1.4109 1.8371 1.4729 0.07141 0.1861-0.19836 0.75763-0.43444 1.0563-0.2246 0.28417-0.55174 0.48618-0.88229 0.63428-0.44803 0.20073-0.94829 0.28014-1.4376 0.32018-0.39603 0.0324-0.81782 0.07206-1.1902-0.06656z" fill="url(#linearGradient18)" fill-rule="evenodd" stroke="#fff" stroke-width=".2"/></g></svg>
