<svg width="32" height="32" xmlns="http://www.w3.org/2000/svg" xmlns:xlink="http://www.w3.org/1999/xlink"><defs><linearGradient id="prefix__a" x1="5.955" x2="25.511" y1="28.815" y2="28.815" gradientTransform="matrix(2.1467 0 0 1.2605 -8.776 2.101)" gradientUnits="userSpaceOnUse"><stop stop-color="#001414" offset="0"/><stop stop-color="#00a0a0" offset=".31"/><stop stop-color="#0ff" offset=".703"/><stop stop-color="#0ff" stop-opacity=".247" offset=".947"/><stop stop-color="#b4b4b4" stop-opacity="0" offset="1"/></linearGradient><linearGradient id="prefix__c" x1="54.881" x2="45.89" y1="11.727" y2="33.648" gradientTransform="translate(-34.475 -1.193)" gradientUnits="userSpaceOnUse" xlink:href="#prefix__a"/><linearGradient id="prefix__b" x1="3.535" x2="37.59" y1="16" y2="16.75" gradientUnits="userSpaceOnUse" xlink:href="#prefix__a"/></defs><g stroke-linecap="round"><path d="M27.618 16c0 6.417-5.202 11.618-11.618 11.618-2.284 0-4.413-.659-6.21-1.797-.51-.323-2.741 1.06-3.194.663-.497-.435.79-2.66.374-3.173A11.57 11.57 0 014.382 16C4.382 9.583 9.583 4.382 16 4.382c6.416 0 11.618 5.201 11.618 11.618z" fill="none" stroke="#fff" stroke-width="1.993"/><path d="M27.618 16c0 6.417-5.202 11.618-11.618 11.618-2.284 0-4.413-.659-6.21-1.797-.51-.323-2.741 1.06-3.194.663-.497-.435.79-2.66.374-3.173A11.57 11.57 0 014.382 16C4.382 9.583 9.583 4.382 16 4.382c6.416 0 11.618 5.201 11.618 11.618z" fill="none" stroke="url(#prefix__b)" stroke-width="1.693"/><path d="M18.33 23.507c-2.13-.793-3.91-2.46-5.397-4.162-1.112-1.271-1.857-2.702-2.663-5.118-.535-1.6-.643-2.25-.505-3.041.195-1.118.946-2.216 1.772-2.591.434-.197 1.183-.233 1.318-.063.05.063.402 1.053.782 2.2l.693 2.083-.485.322c-.821.546-.891 1.015-.316 2.112a13.605 13.605 0 002.233 3.116c1.203 1.28 1.57 1.386 2.45.7l.432-.335 1.794 1.36c.986.748 1.813 1.41 1.837 1.473.071.186-.199.757-.435 1.056-.224.284-.552.486-.882.634-.448.201-.948.28-1.438.32-.396.033-.817.073-1.19-.066z" fill="url(#prefix__c)" fill-rule="evenodd" stroke="#fff" stroke-width=".2"/></g></svg>