<?xml version="1.0" encoding="UTF-8"?>
<!-- Created with Inkscape (http://www.inkscape.org/) -->
<svg width="32" height="32" version="1.1" viewBox="0 0 32 32" xml:space="preserve" xmlns="http://www.w3.org/2000/svg" xmlns:xlink="http://www.w3.org/1999/xlink"><defs><linearGradient id="linearGradient26" x1="49.841" x2="45.325" y1="6.6294" y2="27.879" gradientTransform="translate(-33.334 -.37836)" gradientUnits="userSpaceOnUse"><stop stop-color="#001414" offset="0"/><stop stop-color="#00a0a0" offset=".3102"/><stop stop-color="#0ff" offset=".70308"/><stop stop-color="#0ff" stop-opacity=".24706" offset=".9466"/><stop stop-color="#b4b4b4" stop-opacity="0" offset="1"/></linearGradient></defs><g fill="none" stroke="#80ff00" stroke-linecap="round" stroke-width=".45568"/><path d="m5.7559 25.007c-1.2849-0.34545-2.3503-1.4131-2.7304-2.736-0.14397-0.50108-0.15889-1.2409-0.13191-6.5395l0.03038-5.9745 0.26711-0.56999c0.33154-0.70746 1.1059-1.5393 1.7689-1.9001 0.43587-0.23723 0.66881-0.28481 1.7598-0.35944 1.657-0.11335 16.963-0.11245 18.525 0.0011 0.92052 0.06691 1.3263 0.14167 1.6688 0.30749 0.62139 0.30081 1.4146 1.1121 1.7963 1.8373l0.31814 0.60442 0.06337 5.1424c0.07317 5.9369 0.0036 7.356-0.39922 8.1511-0.49859 0.98392-1.3154 1.6544-2.4433 2.0054-0.57524 0.17903-1.0507 0.18741-10.28 0.1812-8.1473-0.0054-9.7614-0.0293-10.213-0.15087zm11.247-6.9023c1.9291-1.267 3.6046-2.3766 3.7232-2.4656 0.21061-0.15818 0.1431-0.20984-2.8978-2.2175-4.0238-2.6566-4.3477-2.8596-4.431-2.7765-0.08687 0.08674-0.15447 8.9992-0.07162 9.4408 0.03328 0.17737 0.08507 0.32248 0.1151 0.32248 0.03003 0 1.633-1.0367 3.5621-2.3037z" fill="url(#linearGradient26)" fill-rule="evenodd" opacity=".92177" stroke="#fff" stroke-linecap="round" stroke-width=".2"/></svg>
