<svg width="32" height="32" xmlns="http://www.w3.org/2000/svg"><defs><linearGradient id="prefix__a" x1="49.841" x2="45.325" y1="6.629" y2="27.879" gradientTransform="translate(-33.334 -.378)" gradientUnits="userSpaceOnUse"><stop stop-color="#001414" offset="0"/><stop stop-color="#00a0a0" offset=".31"/><stop stop-color="#0ff" offset=".703"/><stop stop-color="#0ff" stop-opacity=".247" offset=".947"/><stop stop-color="#b4b4b4" stop-opacity="0" offset="1"/></linearGradient></defs><path d="M5.756 25.007c-1.285-.345-2.35-1.413-2.73-2.736-.144-.501-.16-1.24-.132-6.54l.03-5.974.267-.57c.332-.707 1.106-1.54 1.769-1.9.436-.237.669-.285 1.76-.36 1.657-.113 16.963-.112 18.525.002.92.066 1.326.141 1.669.307.621.3 1.414 1.112 1.796 1.837l.318.605.063 5.142c.074 5.937.004 7.356-.399 8.151-.498.984-1.315 1.655-2.443 2.006-.575.179-1.05.187-10.28.18-8.147-.005-9.762-.028-10.213-.15zm11.247-6.902a330.314 330.314 0 003.723-2.466c.21-.158.143-.21-2.898-2.217-4.024-2.657-4.347-2.86-4.43-2.777-.088.087-.155 9-.072 9.44.033.178.085.323.115.323s1.633-1.036 3.562-2.303z" fill="url(#prefix__a)" fill-rule="evenodd" opacity=".922" stroke="#fff" stroke-linecap="round" stroke-width=".2"/></svg>