<?xml version="1.0" encoding="UTF-8" standalone="no"?><svg width="60" height="30" viewBox="0 0 15.874999 7.9375002" version="1.1" id="svg1" inkscape:version="1.3.2 (091e20e, 2023-11-25, custom)" sodipodi:docname="carousel-right.active.svg" xmlns:inkscape="http://www.inkscape.org/namespaces/inkscape" xmlns:sodipodi="http://sodipodi.sourceforge.net/DTD/sodipodi-0.dtd" xmlns="http://www.w3.org/2000/svg" xmlns:svg="http://www.w3.org/2000/svg"><sodipodi:namedview id="namedview1" pagecolor="#505050" bordercolor="#eeeeee" borderopacity="1" inkscape:showpageshadow="0" inkscape:pageopacity="0" inkscape:pagecheckerboard="0" inkscape:deskcolor="#505050" inkscape:document-units="mm" inkscape:zoom="4.1272894" inkscape:cx="9.449301" inkscape:cy="34.768582" inkscape:window-width="1920" inkscape:window-height="1017" inkscape:window-x="1912" inkscape:window-y="-8" inkscape:window-maximized="1" inkscape:current-layer="layer1" /><defs id="defs1" /><g inkscape:label="Layer 1" inkscape:groupmode="layer" id="layer1"><path d="m 1.8162714,0.96690739 c -0.22756,0.02386 -0.44395,0.08235 -0.63884,0.18005901 -2.04154997,1.02428 -0.40571997,5.127935 2.9358,4.550628 2.54237,-0.496593 5.10279,-0.919606 7.6787906,-1.262796 0.2042,-0.02717 0.12977,0.856129 -0.0986,1.312104 -0.2313,0.462406 -0.65196,0.842293 -1.34231,1.060189 -0.7973606,0.252102 1.62191,0.254197 2.20903,-0.13297 0.69069,-0.455395 1.13378,-2.579526 1.31157,-2.68532 0.70139,-0.418056 1.29532,-1.000985 1.7163,-1.91779 0.32761,-0.713659 -10.4307006,2.444689 -10.3634506,2.10013 0.35649,-1.828238 -1.8152,-3.37091201 -3.40815,-3.20413001 z" fill="#bc191b" id="path69-7" style="opacity:1;fill:#fc4502;fill-opacity:1;fill-rule:evenodd;stroke:none;stroke-width:0.272814;stroke-linecap:round;stroke-miterlimit:3.7" /></g></svg>