<?xml version="1.0" encoding="UTF-8" standalone="no"?><svg width="60" height="30" version="1.1" viewBox="0 0 15.875 7.9375" id="svg1" sodipodi:docname="carousel-right.svg" inkscape:version="1.3.2 (091e20e, 2023-11-25, custom)" xmlns:inkscape="http://www.inkscape.org/namespaces/inkscape" xmlns:sodipodi="http://sodipodi.sourceforge.net/DTD/sodipodi-0.dtd" xmlns="http://www.w3.org/2000/svg" xmlns:svg="http://www.w3.org/2000/svg"><defs id="defs1" /><sodipodi:namedview id="namedview1" pagecolor="#505050" bordercolor="#eeeeee" borderopacity="1" inkscape:showpageshadow="0" inkscape:pageopacity="0" inkscape:pagecheckerboard="0" inkscape:deskcolor="#505050" inkscape:zoom="12.65" inkscape:cx="30.039526" inkscape:cy="12.213439" inkscape:window-width="1920" inkscape:window-height="1017" inkscape:window-x="1912" inkscape:window-y="-8" inkscape:window-maximized="1" inkscape:current-layer="svg1" /><path d="m 1.7849265,0.96691 c -0.22756,0.02386 -0.44395,0.08235 -0.63884,0.18006 -2.04150002,1.0243 -0.40572002,5.1279 2.9358,4.5506 2.5424,-0.49659 5.1028,-0.91961 7.6787995,-1.2628 0.2042,-0.02717 0.12977,0.85613 -0.0986,1.3121 -0.2313,0.46241 -0.65196,0.84229 -1.3423,1.0602 -0.7973595,0.2521 1.6219,0.2542 2.209,-0.13297 0.69069,-0.4554 1.1338,-2.5795 1.3116,-2.6853 0.70139,-0.41806 1.2953,-1.001 1.7163,-1.9178 0.32761,-0.71366 -10.4309995,2.4447 -10.3629995,2.1001 0.35649,-1.8282 -1.8152,-3.3709 -3.4082,-3.2041 z" fill="#fc4502" fill-rule="evenodd" opacity="0.504" id="path1" /></svg>