<?xml version="1.0" encoding="UTF-8"?><svg width="60" height="30" version="1.1" viewBox="0 0 15.875 7.9375" xmlns="http://www.w3.org/2000/svg"><path d="m14.059 0.96691c0.22756 0.02386 0.44395 0.08235 0.63884 0.18006 2.0416 1.0243 0.40572 5.1279-2.9358 4.5506-2.5424-0.49659-5.1028-0.91961-7.6788-1.2628-0.2042-0.02717-0.12977 0.85613 0.0986 1.3121 0.2313 0.46241 0.65196 0.84229 1.3423 1.0602 0.79736 0.2521-1.6219 0.2542-2.209-0.13297-0.69069-0.4554-1.1338-2.5795-1.3116-2.6853-0.70139-0.41806-1.2953-1.001-1.7163-1.9178-0.32761-0.71366 10.431 2.4447 10.363 2.1001-0.35649-1.8282 1.8152-3.3709 3.4082-3.2041z" fill="#fc4502" fill-rule="evenodd" opacity=".504"/></svg>