<?xml version="1.0" encoding="UTF-8" standalone="no"?><svg width="500" height="500" viewBox="0 0 132.29166 132.29167" version="1.1" id="svg1" inkscape:version="1.3.2 (091e20e, 2023-11-25, custom)" sodipodi:docname="btn-menu.svg" xmlns:inkscape="http://www.inkscape.org/namespaces/inkscape" xmlns:sodipodi="http://sodipodi.sourceforge.net/DTD/sodipodi-0.dtd" xmlns="http://www.w3.org/2000/svg" xmlns:svg="http://www.w3.org/2000/svg"><sodipodi:namedview id="namedview1" pagecolor="#505050" bordercolor="#eeeeee" borderopacity="1" inkscape:showpageshadow="0" inkscape:pageopacity="0" inkscape:pagecheckerboard="0" inkscape:deskcolor="#505050" inkscape:document-units="mm" showguides="true" inkscape:zoom="0.73228115" inkscape:cx="45.747456" inkscape:cy="127.6832" inkscape:window-width="1920" inkscape:window-height="1017" inkscape:window-x="1912" inkscape:window-y="-8" inkscape:window-maximized="1" inkscape:current-layer="layer1" /><defs id="defs1"><inkscape:path-effect effect="bend_path" id="path-effect1" is_visible="true" lpeversion="1" bendpath="m 22.613669,21.025662 c 25.338439,-3.626316 65.129432,-3.914589 90.467871,1.083942" prop_scale="1.0901448" scale_y_rel="false" vertical="false" hide_knot="false" bendpath-nodetypes="cc" /><rect x="105.2528" y="91.734093" width="297.41159" height="99.459068" id="rect264" /><filter inkscape:label="Button" inkscape:menu="Bevels" inkscape:menu-tooltip="Soft bevel, slightly depressed middle" style="color-interpolation-filters:sRGB" id="filter52" x="-0.40519166" y="-0.40519166" width="1.8103833" height="1.8103833"><feGaussianBlur stdDeviation="5.8788731" in="SourceAlpha" result="result0" id="feGaussianBlur49" /><feMorphology in="SourceAlpha" radius="6.6" result="result1" id="feMorphology49" /><feGaussianBlur stdDeviation="8.9" in="result1" id="feGaussianBlur50" /><feColorMatrix values="1 0 0 0 0 0 1 0 0 0 0 0 1 0 0 0 0 0 0.3 0" result="result91" id="feColorMatrix50" /><feComposite in="result0" operator="out" result="result2" in2="result91" id="feComposite50" /><feGaussianBlur stdDeviation="1.7" result="result4" id="feGaussianBlur51" /><feDiffuseLighting surfaceScale="10" id="feDiffuseLighting51"><feDistantLight azimuth="225" elevation="45" id="feDistantLight51" /></feDiffuseLighting><feBlend in2="SourceGraphic" mode="multiply" id="feBlend51" /><feComposite in2="SourceAlpha" operator="in" result="result3" id="feComposite51" /><feSpecularLighting in="result4" surfaceScale="5" specularExponent="17.89999962" id="feSpecularLighting52"><feDistantLight azimuth="225" elevation="45" id="feDistantLight52" /></feSpecularLighting><feComposite in2="result3" operator="atop" id="feComposite52" /></filter><filter inkscape:label="Drop Shadow" inkscape:menu="Bevels" inkscape:menu-tooltip="Soft bevel, slightly depressed middle" style="color-interpolation-filters:sRGB" id="filter9" x="-0.35600595" y="-0.3583715" width="1.7131947" height="1.7143775"><feGaussianBlur stdDeviation="2.3" in="SourceAlpha" result="result0" id="feGaussianBlur6" /><feMorphology in="SourceAlpha" radius="6.6" result="result1" id="feMorphology6" /><feGaussianBlur stdDeviation="8.9" in="result1" id="feGaussianBlur7" /><feColorMatrix values="1 0 0 0 0 0 1 0 0 0 0 0 1 0 0 0 0 0 0.3 0" result="result91" id="feColorMatrix7" /><feComposite in="result0" operator="out" result="result2" in2="result91" id="feComposite7" /><feGaussianBlur stdDeviation="1.7" result="result4" id="feGaussianBlur8" /><feDiffuseLighting surfaceScale="10" id="feDiffuseLighting8"><feDistantLight azimuth="225" elevation="45" id="feDistantLight8" /></feDiffuseLighting><feBlend in2="SourceGraphic" mode="multiply" id="feBlend8" /><feComposite in2="SourceAlpha" operator="in" result="result3" id="feComposite8" /><feSpecularLighting in="result4" surfaceScale="5" specularExponent="17.89999962" id="feSpecularLighting9"><feDistantLight azimuth="225" elevation="45" id="feDistantLight9" /></feSpecularLighting><feComposite in2="result3" operator="atop" id="feComposite9" result="fbSourceGraphic" /><feColorMatrix result="fbSourceGraphicAlpha" in="fbSourceGraphic" values="0 0 0 -1 0 0 0 0 -1 0 0 0 0 -1 0 0 0 0 1 0" id="feColorMatrix32" /><feFlood id="feFlood32" result="flood" in="fbSourceGraphic" flood-opacity="1.000000" flood-color="rgb(255,255,255)" /><feGaussianBlur id="feGaussianBlur32" result="blur" in="fbSourceGraphic" stdDeviation="1.846154" /><feOffset id="feOffset32" result="offset" in="blur" dx="0.100000" dy="-0.200000" /><feComposite id="feComposite32" result="comp1" operator="in" in="flood" in2="offset" /><feComposite id="feComposite33" result="comp2" operator="over" in="fbSourceGraphic" in2="comp1" /></filter></defs><g inkscape:label="Livello 1" inkscape:groupmode="layer" id="layer1"><path id="path1" style="mix-blend-mode:normal;fill:#000000;fill-opacity:1;fill-rule:evenodd;stroke:#000000;stroke-width:2.61725;stroke-linecap:round;stroke-linejoin:round;stroke-dasharray:none;stroke-opacity:1;paint-order:stroke markers fill;filter:url(#filter9)" d="M 109.95248,56.86216 A 42.273724,42.273724 0 0 1 67.678758,99.135878 42.273724,42.273724 0 0 1 25.405034,56.86216 42.273724,42.273724 0 0 1 67.678758,14.588436 42.273724,42.273724 0 0 1 109.95248,56.86216 Z" transform="matrix(1.1633095,0,0,1.1633095,-12.585508,9.3917081)" /><path id="rect2" style="fill:#ffa500;fill-rule:evenodd;stroke-width:1.45127;stroke-linecap:round;stroke-linejoin:round;paint-order:stroke markers fill;fill-opacity:1" d="M 87.391151,59.376141 H 44.554028 c -1.976535,0 -3.567754,1.591219 -3.567754,3.567754 0,1.976535 1.591219,3.567752 3.567754,3.567752 h 42.837123 c 1.976535,0 3.567752,-1.591217 3.567752,-3.567752 0,-1.976535 -1.591217,-3.567754 -3.567752,-3.567754 z" /><path id="rect2-5" style="fill:#ffa500;fill-rule:evenodd;stroke-width:1.45127;stroke-linecap:round;stroke-linejoin:round;paint-order:stroke markers fill;fill-opacity:1" d="M 87.641564,69.777292 H 44.804443 c -1.976535,0 -3.567754,1.591219 -3.567754,3.567754 0,1.976535 1.591219,3.567754 3.567754,3.567754 h 42.837121 c 1.976537,0 3.567754,-1.591219 3.567754,-3.567754 0,-1.976535 -1.591217,-3.567754 -3.567754,-3.567754 z" /><path id="rect2-0" style="fill:#ffa500;fill-rule:evenodd;stroke-width:1.45127;stroke-linecap:round;stroke-linejoin:round;paint-order:stroke markers fill;fill-opacity:1" d="m 87.737639,80.178425 h -42.83712 c -1.976535,0 -3.567755,1.591219 -3.567755,3.567754 0,1.976535 1.59122,3.567753 3.567755,3.567753 h 42.83712 c 1.976537,0 3.567754,-1.591218 3.567754,-3.567753 0,-1.976535 -1.591217,-3.567754 -3.567754,-3.567754 z" /><path d="m 33.01839,33.998456 c -3.402959,-4.946185 -6.979552,-9.820652 -10.760279,-14.607814 1.622769,-1.079602 3.266898,-2.14146 4.930347,-3.186257 3.523746,2.691682 6.931934,5.458179 10.24261,8.286955 -1.354834,-3.996463 -2.755324,-7.982837 -4.204313,-11.958027 1.710535,-1.007304 3.438034,-1.998292 5.180446,-2.9736559 3.534626,5.0205859 6.895906,10.1071739 10.114339,15.2441769 -1.039357,0.567898 -2.07261,1.140821 -3.099271,1.718935 -2.56043,-4.017715 -5.213079,-8.001628 -7.972824,-11.944134 1.640586,4.585298 3.217805,9.184911 4.736364,13.79701 -1.048971,0.61071 -2.090307,1.22718 -3.123467,1.849594 -3.670135,-3.324963 -7.461863,-6.573002 -11.402218,-9.725668 2.871914,3.834495 5.625065,7.718469 8.27433,11.644319 -0.98031,0.612428 -1.952494,1.230562 -2.916064,1.854566 z m 19.411016,-10.1301 C 51.370509,17.991532 50.266878,12.119848 49.115551,6.2543243 54.068145,5.4551599 59.03115,4.7657516 63.988424,4.1643072 c 0.155563,0.9991791 0.310065,1.9984209 0.463521,2.9977204 -3.582463,0.4342939 -7.165482,0.9140149 -10.742839,1.4475603 0.236694,1.3037489 0.47121,2.6077391 0.703581,3.9119591 3.29283,-0.48976 6.593375,-0.934228 9.896623,-1.340169 0.151811,0.995195 0.302588,1.990446 0.452345,2.985749 -3.280799,0.403023 -6.556758,0.84358 -9.822865,1.328434 0.2813,1.601601 0.559405,3.203536 0.834373,4.805784 3.587357,-0.531073 7.191186,-1.009282 10.804583,-1.44395 0.14409,0.995737 0.287206,1.991509 0.429361,2.987311 -4.887677,0.588288 -9.752719,1.254998 -14.577701,2.02365 z m 18.068885,-1.919447 c 1.286921,-5.8416 2.620246,-11.681188 4.011342,-17.5147389 1.3012,0.2454307 2.603589,0.4978151 3.906464,0.7579018 1.742621,4.4275832 3.422564,8.8692921 5.020424,13.3225201 1.00695,-3.869312 2.046665,-7.733018 3.12253,-11.5899211 1.243092,0.282093 2.485294,0.5726305 3.725995,0.8722642 C 88.592254,13.547141 86.987734,19.315458 85.460121,25.097862 84.204136,24.800367 82.942641,24.511461 81.676409,24.230325 80.105684,19.886404 78.456484,15.55329 76.747363,11.233446 75.82906,15.032101 74.93671,18.833942 74.06716,22.637852 72.880083,22.403161 71.690256,22.173731 70.498291,21.948909 Z m 30.037839,-9.74543 c 1.10703,0.737926 2.20391,1.484675 3.28944,2.24061 -2.18907,2.519068 -4.299494,5.075347 -6.342153,7.663187 -0.968899,1.227496 -1.552814,2.068323 -1.754956,2.483645 -0.319558,0.682146 -0.36405,1.374395 -0.141984,2.076134 0.234272,0.700567 0.782046,1.347056 1.635487,1.948839 0.867075,0.611398 1.639854,0.911577 2.332329,0.897915 0.697357,-0.02012 1.280997,-0.236444 1.754807,-0.652284 0.47647,-0.41816 1.15805,-1.177425 2.07624,-2.284979 2.13484,-2.575109 4.34761,-5.111897 6.64991,-7.604344 1.03665,0.793133 2.05958,1.596161 3.06758,2.409448 -2.21892,2.323903 -4.35368,4.69033 -6.41418,7.094127 -1.41742,1.65358 -2.45245,2.761845 -3.17862,3.335768 -0.72018,0.569194 -1.48051,0.931067 -2.28736,1.087171 -0.80054,0.161152 -1.667763,0.121813 -2.611614,-0.11526 -0.939336,-0.24368 -1.992529,-0.784177 -3.181428,-1.617467 -1.436819,-1.007053 -2.429669,-1.911447 -2.962033,-2.744385 -0.519053,-0.832674 -0.818506,-1.650745 -0.890428,-2.458231 -0.06701,-0.813917 0.03512,-1.550545 0.311627,-2.20999 0.412519,-0.969753 1.235176,-2.283626 2.483542,-3.902456 1.988812,-2.579013 4.03995,-5.129961 6.163794,-7.647448 z" id="text264" style="font-weight:bold;font-size:14.1111px;line-height:94.42%;font-family:Arial;-inkscape-font-specification:'Arial Bold';white-space:pre;fill:#ffa500;fill-rule:evenodd;stroke-width:2.47471;stroke-linecap:round;stroke-linejoin:round;stroke-opacity:0.708145;paint-order:stroke markers fill;fill-opacity:1" inkscape:transform-center-x="-8.6044427" inkscape:transform-center-y="41.468761" aria-label="MENU" inkscape:path-effect="#path-effect1" inkscape:original-d="m 38.195162,31.12245 -7.632588,-14.518212 4.387159,-2.30643 7.840673,8.518374 -2.60184,-11.272565 4.397053,-2.3116477 7.63259,14.5182147 -2.723403,1.431761 -6.008191,-11.42839 3.126336,12.943453 -2.822435,1.483825 -8.880141,-9.918531 6.008189,11.428387 z m 17.379557,-8.089422 -2.19977,-16.2540965 12.051979,-1.6310802 0.372131,2.7496693 -8.77012,1.1869169 0.487673,3.6034015 8.160313,-1.104389 0.370631,2.738584 -8.160314,1.104389 0.598712,4.423865 9.080565,-1.228934 0.370631,2.738584 z M 70.881391,21.428671 73.965436,5.3189374 77.130241,5.9248077 81.664046,17.945174 83.723582,7.1870362 86.745532,7.7655578 83.661486,23.87529 80.397781,23.250487 75.914491,11.5018 73.90334,22.007192 Z m 24.383096,-10.515675 2.864649,1.661843 -4.457806,7.684206 q -1.061115,1.829112 -1.269063,2.432828 -0.321414,0.977679 0.05692,1.908579 0.393628,0.926838 1.593681,1.623019 1.219407,0.70741 2.125121,0.573159 0.911329,-0.143928 1.458218,-0.79678 0.546889,-0.65285 1.523788,-2.336795 l 4.553255,-7.84873 2.86464,1.661854 -4.32307,7.45194 q -1.48218,2.554945 -2.326421,3.475085 -0.844233,0.92014 -1.894371,1.281044 -1.040458,0.366519 -2.33831,0.195671 -1.292239,-0.180527 -2.976183,-1.157426 -2.032346,-1.179015 -2.817741,-2.255517 -0.770109,-1.080561 -0.947501,-2.179463 -0.171784,-1.108576 0.11188,-2.04348 0.426751,-1.382224 1.807886,-3.762973 z" transform="translate(-1.5346372,-3.1750001)" /><path id="path2" style="opacity:0;fill:#ffffff;fill-rule:evenodd;stroke:#000000;stroke-width:3.04467;stroke-linecap:round;stroke-linejoin:round;paint-order:stroke markers fill" d="M 19.32344,52.999852 A 8.2139498,13.290449 0 0 1 11.109491,66.2903 8.2139498,13.290449 0 0 1 2.8955404,52.999852 8.2139498,13.290449 0 0 1 11.109491,39.709404 8.2139498,13.290449 0 0 1 19.32344,52.999852 Z" /><path id="path3" style="opacity:0;fill:#ffffff;fill-rule:evenodd;stroke:#ffffff;stroke-width:3.04467;stroke-linecap:round;stroke-linejoin:round;paint-order:stroke markers fill" d="M 28.1241,55.403913 A 14.227733,13.347668 0 0 1 13.896369,68.75158 14.227733,13.347668 0 0 1 -0.33136458,55.403913 14.227733,13.347668 0 0 1 13.896369,42.056244 14.227733,13.347668 0 0 1 28.1241,55.403913 Z" /><path id="path4" style="opacity:0;fill:#ffffff;fill-rule:evenodd;stroke:#ffffff;stroke-width:3.04467;stroke-linecap:round;stroke-linejoin:round;paint-order:stroke markers fill" d="M 21.670282,94.12682 A 14.227733,17.454642 0 0 1 7.4425506,111.58146 14.227733,17.454642 0 0 1 -6.7851827,94.12682 14.227733,17.454642 0 0 1 7.4425506,76.672178 14.227733,17.454642 0 0 1 21.670282,94.12682 Z" /><path id="path5" style="opacity:0;fill:#ffffff;fill-rule:evenodd;stroke:#ffffff;stroke-width:3.04467;stroke-linecap:round;stroke-linejoin:round;paint-order:stroke markers fill" d="M 26.070616,97.940442 A 21.268262,20.974907 0 0 1 4.8023532,118.91535 21.268262,20.974907 0 0 1 -16.465909,97.940442 21.268262,20.974907 0 0 1 4.8023532,76.965535 21.268262,20.974907 0 0 1 26.070616,97.940442 Z" /><path id="path6" style="opacity:0;fill:#ffffff;fill-rule:evenodd;stroke:#ffffff;stroke-width:3.04467;stroke-linecap:round;stroke-linejoin:round;paint-order:stroke markers fill" d="M -6.785186,58.924178 A 10.267437,13.934379 0 0 1 -17.052622,72.858558 10.267437,13.934379 0 0 1 -27.320059,58.924178 10.267437,13.934379 0 0 1 -17.052622,44.9898 10.267437,13.934379 0 0 1 -6.785186,58.924178 Z" /><path id="path7" style="opacity:0;fill:#ffffff;fill-rule:evenodd;stroke:#ffffff;stroke-width:3.04467;stroke-linecap:round;stroke-linejoin:round;paint-order:stroke markers fill" d="M 9.0560047,52.323683 A 12.760957,16.134544 0 0 1 -3.704953,68.458228 12.760957,16.134544 0 0 1 -16.465911,52.323683 12.760957,16.134544 0 0 1 -3.704953,36.18914 12.760957,16.134544 0 0 1 9.0560047,52.323683 Z" /><path id="path8" style="opacity:0;fill:#f6f6f6;fill-rule:evenodd;stroke:#ffffff;stroke-width:3.04467;stroke-linecap:round;stroke-linejoin:round;paint-order:stroke markers fill" d="M 68.313783,89.139769 A 46.496819,46.496819 0 0 1 21.816966,135.63658 46.496819,46.496819 0 0 1 -24.679854,89.139769 46.496819,46.496819 0 0 1 21.816966,42.64295 46.496819,46.496819 0 0 1 68.313783,89.139769 Z" /></g></svg>