<?xml version="1.0" encoding="UTF-8" standalone="no"?><svg width="500" height="500" viewBox="0 0 132.29166 132.29167" version="1.1" id="svg1" inkscape:version="1.3.2 (091e20e, 2023-11-25, custom)" sodipodi:docname="btn-projects.svg" xml:space="preserve" xmlns:inkscape="http://www.inkscape.org/namespaces/inkscape" xmlns:sodipodi="http://sodipodi.sourceforge.net/DTD/sodipodi-0.dtd" xmlns="http://www.w3.org/2000/svg" xmlns:svg="http://www.w3.org/2000/svg"><sodipodi:namedview id="namedview1" pagecolor="#505050" bordercolor="#eeeeee" borderopacity="1" inkscape:showpageshadow="0" inkscape:pageopacity="0" inkscape:pagecheckerboard="0" inkscape:deskcolor="#505050" inkscape:document-units="mm" showguides="true" inkscape:zoom="1.5909903" inkscape:cx="278.44293" inkscape:cy="234.75945" inkscape:window-width="1920" inkscape:window-height="1017" inkscape:window-x="1912" inkscape:window-y="-8" inkscape:window-maximized="1" inkscape:current-layer="layer1" /><defs id="defs1"><inkscape:path-effect effect="bend_path" id="path-effect6" is_visible="true" lpeversion="1" bendpath="M 9.3344018,31.252944 126.13391,31.614258" prop_scale="0.80829183" scale_y_rel="false" vertical="false" hide_knot="false" bendpath-nodetypes="cc" /><inkscape:path-effect effect="bspline" id="path-effect29" is_visible="true" lpeversion="1.3" weight="33.333333" steps="2" helper_size="0" apply_no_weight="true" apply_with_weight="true" only_selected="false" uniform="false" /><inkscape:path-effect effect="bspline" id="path-effect2" is_visible="true" lpeversion="1.3" weight="33.333333" steps="2" helper_size="0" apply_no_weight="true" apply_with_weight="true" only_selected="false" uniform="false" /><inkscape:path-effect effect="bspline" id="path-effect296" is_visible="true" lpeversion="1.3" weight="33.333333" steps="2" helper_size="0" apply_no_weight="true" apply_with_weight="true" only_selected="false" uniform="false" /><inkscape:path-effect effect="bspline" id="path-effect293" is_visible="true" lpeversion="1.3" weight="33.333333" steps="2" helper_size="0" apply_no_weight="true" apply_with_weight="true" only_selected="false" uniform="false" /><inkscape:perspective sodipodi:type="inkscape:persp3d" inkscape:vp_x="-15.017091 : 14.792849 : 1" inkscape:vp_y="0 : 1000 : 0" inkscape:vp_z="101.18036 : 14.792849 : 1" inkscape:persp3d-origin="43.081633 : -7.2557631 : 1" id="perspective267" /><rect x="105.2528" y="91.734093" width="297.41159" height="99.459068" id="rect264" /><filter inkscape:label="Button" inkscape:menu="Bevels" inkscape:menu-tooltip="Soft bevel, slightly depressed middle" style="color-interpolation-filters:sRGB" id="filter52" x="-0.38971364" y="-0.38971367" width="1.7794273" height="1.7794273"><feGaussianBlur stdDeviation="5.8788731" in="SourceAlpha" result="result0" id="feGaussianBlur49" /><feMorphology in="SourceAlpha" radius="6.6" result="result1" id="feMorphology49" /><feGaussianBlur stdDeviation="8.9" in="result1" id="feGaussianBlur50" /><feColorMatrix values="1 0 0 0 0 0 1 0 0 0 0 0 1 0 0 0 0 0 0.3 0" result="result91" id="feColorMatrix50" /><feComposite in="result0" operator="out" result="result2" in2="result91" id="feComposite50" /><feGaussianBlur stdDeviation="1.7" result="result4" id="feGaussianBlur51" /><feDiffuseLighting surfaceScale="10" id="feDiffuseLighting51"><feDistantLight azimuth="225" elevation="45" id="feDistantLight51" /></feDiffuseLighting><feBlend in2="SourceGraphic" mode="multiply" id="feBlend51" /><feComposite in2="SourceAlpha" operator="in" result="result3" id="feComposite51" /><feSpecularLighting in="result4" surfaceScale="5" specularExponent="17.89999962" id="feSpecularLighting52"><feDistantLight azimuth="225" elevation="45" id="feDistantLight52" /></feSpecularLighting><feComposite in2="result3" operator="atop" id="feComposite52" /></filter><inkscape:path-effect effect="bspline" id="path-effect293-0" is_visible="true" lpeversion="1.3" weight="33.333333" steps="2" helper_size="0" apply_no_weight="true" apply_with_weight="true" only_selected="false" uniform="false" /><inkscape:path-effect effect="bspline" id="path-effect293-2" is_visible="true" lpeversion="1.3" weight="33.333333" steps="2" helper_size="0" apply_no_weight="true" apply_with_weight="true" only_selected="false" uniform="false" /><inkscape:path-effect effect="bspline" id="path-effect293-02" is_visible="true" lpeversion="1.3" weight="33.333333" steps="2" helper_size="0" apply_no_weight="true" apply_with_weight="true" only_selected="false" uniform="false" /><inkscape:path-effect effect="bspline" id="path-effect293-3" is_visible="true" lpeversion="1.3" weight="33.333333" steps="2" helper_size="0" apply_no_weight="true" apply_with_weight="true" only_selected="false" uniform="false" /><inkscape:path-effect effect="bspline" id="path-effect293-4" is_visible="true" lpeversion="1.3" weight="33.333333" steps="2" helper_size="0" apply_no_weight="true" apply_with_weight="true" only_selected="false" uniform="false" /><inkscape:path-effect effect="bspline" id="path-effect293-7" is_visible="true" lpeversion="1.3" weight="33.333333" steps="2" helper_size="0" apply_no_weight="true" apply_with_weight="true" only_selected="false" uniform="false" /><inkscape:path-effect effect="bspline" id="path-effect293-36" is_visible="true" lpeversion="1.3" weight="33.333333" steps="2" helper_size="0" apply_no_weight="true" apply_with_weight="true" only_selected="false" uniform="false" /><inkscape:path-effect effect="bspline" id="path-effect293-06" is_visible="true" lpeversion="1.3" weight="33.333333" steps="2" helper_size="0" apply_no_weight="true" apply_with_weight="true" only_selected="false" uniform="false" /><inkscape:path-effect effect="bspline" id="path-effect293-8" is_visible="true" lpeversion="1.3" weight="33.333333" steps="2" helper_size="0" apply_no_weight="true" apply_with_weight="true" only_selected="false" uniform="false" /><inkscape:path-effect effect="bspline" id="path-effect293-1" is_visible="true" lpeversion="1.3" weight="33.333333" steps="2" helper_size="0" apply_no_weight="true" apply_with_weight="true" only_selected="false" uniform="false" /><filter inkscape:label="Drop Shadow" inkscape:menu="Bevels" inkscape:menu-tooltip="Soft bevel, slightly depressed middle" style="color-interpolation-filters:sRGB" id="filter4" x="-0.34052795" y="-0.3428935" width="1.6822387" height="1.6834215"><feGaussianBlur stdDeviation="2.3" in="SourceAlpha" result="result0" id="feGaussianBlur1" /><feMorphology in="SourceAlpha" radius="6.6" result="result1" id="feMorphology1" /><feGaussianBlur stdDeviation="8.9" in="result1" id="feGaussianBlur2" /><feColorMatrix values="1 0 0 0 0 0 1 0 0 0 0 0 1 0 0 0 0 0 0.3 0" result="result91" id="feColorMatrix2" /><feComposite in="result0" operator="out" result="result2" in2="result91" id="feComposite2" /><feGaussianBlur stdDeviation="1.7" result="result4" id="feGaussianBlur3" /><feDiffuseLighting surfaceScale="10" id="feDiffuseLighting3"><feDistantLight azimuth="225" elevation="45" id="feDistantLight3" /></feDiffuseLighting><feBlend in2="SourceGraphic" mode="multiply" id="feBlend3" /><feComposite in2="SourceAlpha" operator="in" result="result3" id="feComposite3" /><feSpecularLighting in="result4" surfaceScale="5" specularExponent="17.89999962" id="feSpecularLighting4"><feDistantLight azimuth="225" elevation="45" id="feDistantLight4" /></feSpecularLighting><feComposite in2="result3" operator="atop" id="feComposite4" result="fbSourceGraphic" /><feColorMatrix result="fbSourceGraphicAlpha" in="fbSourceGraphic" values="0 0 0 -1 0 0 0 0 -1 0 0 0 0 -1 0 0 0 0 1 0" id="feColorMatrix4" /><feFlood id="feFlood4" result="flood" in="fbSourceGraphic" flood-opacity="1.000000" flood-color="rgb(255,255,255)" /><feGaussianBlur id="feGaussianBlur4" result="blur" in="fbSourceGraphic" stdDeviation="1.846154" /><feOffset id="feOffset4" result="offset" in="blur" dx="0.100000" dy="-0.200000" /><feComposite id="feComposite5" result="comp1" operator="in" in="flood" in2="offset" /><feComposite id="feComposite6" result="comp2" operator="over" in="fbSourceGraphic" in2="comp1" /></filter><filter inkscape:label="Button" inkscape:menu="Bevels" inkscape:menu-tooltip="Soft bevel, slightly depressed middle" style="color-interpolation-filters:sRGB" id="filter16" x="-4.1701694" y="-4.5800009" width="9.3402901" height="10.16"><feGaussianBlur stdDeviation="2.3" in="SourceAlpha" result="result0" id="feGaussianBlur13" /><feMorphology in="SourceAlpha" radius="6.6" result="result1" id="feMorphology13" /><feGaussianBlur stdDeviation="8.9" in="result1" id="feGaussianBlur14" /><feColorMatrix values="1 0 0 0 0 0 1 0 0 0 0 0 1 0 0 0 0 0 0.3 0" result="result91" id="feColorMatrix14" /><feComposite in="result0" operator="out" result="result2" in2="result91" id="feComposite14" /><feGaussianBlur stdDeviation="1.7" result="result4" id="feGaussianBlur15" /><feDiffuseLighting surfaceScale="10" id="feDiffuseLighting15"><feDistantLight azimuth="225" elevation="45" id="feDistantLight15" /></feDiffuseLighting><feBlend in2="SourceGraphic" mode="multiply" id="feBlend15" /><feComposite in2="SourceAlpha" operator="in" result="result3" id="feComposite15" /><feSpecularLighting in="result4" surfaceScale="5" specularExponent="17.89999962" id="feSpecularLighting16"><feDistantLight azimuth="225" elevation="45" id="feDistantLight16" /></feSpecularLighting><feComposite in2="result3" operator="atop" id="feComposite16" /></filter><filter inkscape:menu-tooltip="3D warped, fibered wood texture" inkscape:menu="Materials" inkscape:label="3D Wood" height="11.04037" y="-5.0201869" width="12.145392" x="-5.5727115" style="color-interpolation-filters:sRGB" id="filter21"><feGaussianBlur result="result8" stdDeviation="4" id="feGaussianBlur16" /><feTurbulence baseFrequency="0.025 0.2" numOctaves="3" type="fractalNoise" result="result7" seed="22" id="feTurbulence16" /><feComposite in2="result8" operator="in" in="SourceGraphic" result="result6" id="feComposite17" /><feDisplacementMap in2="result6" result="result4" scale="50" yChannelSelector="A" xChannelSelector="A" in="result7" id="feDisplacementMap17" /><feFlood flood-color="rgb(230,211,138)" flood-opacity="1" id="feFlood17" /><feComposite in2="result4" operator="atop" result="result2" id="feComposite18" /><feComposite in2="SourceGraphic" operator="atop" in="result2" result="result9" id="feComposite19" /><feGaussianBlur result="result0" in="result9" stdDeviation="8" id="feGaussianBlur19" /><feSpecularLighting specularExponent="15" specularConstant="0.69999999" surfaceScale="5" lighting-color="#ffffff" result="result1" in="result0" id="feSpecularLighting19"><feDistantLight azimuth="235" elevation="50" id="feDistantLight19" /></feSpecularLighting><feComposite operator="in" result="result2" in="result1" in2="result9" id="feComposite20" /><feComposite k3="0.5" k2="0.5" operator="arithmetic" result="result4" in="result9" in2="result2" id="feComposite21" k1="0" k4="0" /><feConvolveMatrix order="3 3" kernelMatrix="2 0 0 0 2 0 0 0 -2 " targetX="2" targetY="2" result="result10" id="feConvolveMatrix21" /><feBlend mode="multiply" in="result10" in2="result10" id="feBlend21" /></filter><filter inkscape:menu-tooltip="Transparent plastic with deep colors" inkscape:menu="Bevels" inkscape:label="Deep Colors Plastic" style="color-interpolation-filters:sRGB" id="filter26" x="-10.157614" y="-0.9555847" width="21.315228" height="2.91117"><feGaussianBlur in="SourceGraphic" result="result6" stdDeviation="10" id="feGaussianBlur21" /><feComposite in2="SourceGraphic" in="result6" operator="xor" id="feComposite22" /><feGaussianBlur result="result2" stdDeviation="10" id="feGaussianBlur22" /><feComposite in2="SourceGraphic" operator="atop" result="result91" id="feComposite23" /><feComposite result="result4" in="result2" operator="xor" in2="result91" id="feComposite24" /><feGaussianBlur in="result4" result="result3" stdDeviation="5" id="feGaussianBlur24" /><feSpecularLighting lighting-color="#ffffff" in="result3" result="result5" specularExponent="35" specularConstant="3" surfaceScale="12" id="feSpecularLighting24"><feDistantLight elevation="45" azimuth="235" id="feDistantLight24" /></feSpecularLighting><feComposite in2="result5" in="SourceGraphic" k3="0.7" k2="0.8" operator="arithmetic" result="result7" id="feComposite25" k1="0" k4="0" /><feComposite in="result7" operator="in" in2="SourceGraphic" id="feComposite26" /></filter><filter inkscape:menu-tooltip="3D warped, fibered wood texture" inkscape:menu="Materials" inkscape:label="3D Wood" height="3.2255931" y="-1.1127962" width="3.561198" x="-1.280599" style="color-interpolation-filters:sRGB" id="filter34"><feGaussianBlur result="result8" stdDeviation="4" id="feGaussianBlur30" /><feTurbulence baseFrequency="0.025 0.2" numOctaves="3" type="fractalNoise" result="result7" seed="22" id="feTurbulence30" /><feComposite in2="result8" operator="in" in="SourceGraphic" result="result6" id="feComposite30" /><feDisplacementMap in2="result6" result="result4" scale="50" yChannelSelector="A" xChannelSelector="A" in="result7" id="feDisplacementMap30" /><feFlood flood-color="rgb(230,211,138)" flood-opacity="1" id="feFlood30" /><feComposite in2="result4" operator="atop" result="result2" id="feComposite31" /><feComposite in2="SourceGraphic" operator="atop" in="result2" result="result9" id="feComposite32" /><feGaussianBlur result="result0" in="result9" stdDeviation="8" id="feGaussianBlur32" /><feSpecularLighting specularExponent="15" specularConstant="0.69999999" surfaceScale="5" lighting-color="#ffffff" result="result1" in="result0" id="feSpecularLighting32"><feDistantLight azimuth="235" elevation="50" id="feDistantLight32" /></feSpecularLighting><feComposite operator="in" result="result2" in="result1" in2="result9" id="feComposite33" /><feComposite k3="0.5" k2="0.5" operator="arithmetic" result="result4" in="result9" in2="result2" id="feComposite34" k1="0" k4="0" /><feConvolveMatrix order="3 3" kernelMatrix="2 0 0 0 2 0 0 0 -2 " targetX="2" targetY="2" result="result10" id="feConvolveMatrix34" /><feBlend mode="multiply" in="result10" in2="result10" id="feBlend34" /></filter><filter style="color-interpolation-filters:sRGB" inkscape:label="Colorize" id="filter48" x="0" y="0" width="1" height="1"><feComposite in2="SourceGraphic" operator="arithmetic" k1="0" k2="1.07692" result="composite1" id="feComposite47" k3="0" k4="0" /><feColorMatrix in="composite1" values="1" type="saturate" result="colormatrix1" id="feColorMatrix47" /><feFlood flood-opacity="1" flood-color="rgb(255,255,255)" result="flood1" id="feFlood47" /><feBlend in="flood1" in2="colormatrix1" mode="lighten" result="blend1" id="feBlend47" /><feBlend in2="blend1" mode="screen" result="blend2" id="feBlend48" /><feColorMatrix in="blend2" values="1" type="saturate" result="colormatrix2" id="feColorMatrix48" /><feComposite in="colormatrix2" in2="SourceGraphic" operator="in" result="fbSourceGraphic" id="feComposite48" /><feColorMatrix result="fbSourceGraphicAlpha" in="fbSourceGraphic" values="0 0 0 -1 0 0 0 0 -1 0 0 0 0 -1 0 0 0 0 1 0" id="feColorMatrix49" /><feComposite id="feComposite49" in2="fbSourceGraphic" operator="arithmetic" k1="0" k2="1.07692" result="composite1" in="fbSourceGraphic" k3="0" k4="0" /><feColorMatrix id="feColorMatrix51" in="composite1" values="1" type="saturate" result="colormatrix1" /><feFlood id="feFlood51" flood-opacity="1" flood-color="rgb(255,255,255)" result="flood1" /><feBlend id="feBlend52" in="flood1" in2="colormatrix1" mode="lighten" result="blend1" /><feBlend id="feBlend53" in2="blend1" mode="screen" result="blend2" /><feColorMatrix id="feColorMatrix53" in="blend2" values="1" type="saturate" result="colormatrix2" /><feComposite id="feComposite53" in="colormatrix2" in2="fbSourceGraphic" operator="in" result="fbSourceGraphic" /><feColorMatrix result="fbSourceGraphicAlpha" in="fbSourceGraphic" values="0 0 0 -1 0 0 0 0 -1 0 0 0 0 -1 0 0 0 0 1 0" id="feColorMatrix54" /><feComposite id="feComposite54" in2="fbSourceGraphic" operator="arithmetic" k1="0" k2="1.07692" result="composite1" in="fbSourceGraphic" k3="0" k4="0" /><feColorMatrix id="feColorMatrix55" in="composite1" values="1" type="saturate" result="colormatrix1" /><feFlood id="feFlood55" flood-opacity="1" flood-color="rgb(255,204,0)" result="flood1" /><feBlend id="feBlend55" in="flood1" in2="colormatrix1" mode="lighten" result="blend1" /><feBlend id="feBlend56" in2="blend1" mode="screen" result="blend2" /><feColorMatrix id="feColorMatrix56" in="blend2" values="1" type="saturate" result="colormatrix2" /><feComposite id="feComposite56" in="colormatrix2" in2="fbSourceGraphic" operator="in" result="composite2" /></filter><filter style="color-interpolation-filters:sRGB" inkscape:label="Colorize" id="filter48-9" x="0" y="0" width="1" height="1"><feComposite in2="SourceGraphic" operator="arithmetic" k1="0" k2="1.07692" result="composite1" id="feComposite47-4" k3="0" k4="0" /><feColorMatrix in="composite1" values="1" type="saturate" result="colormatrix1" id="feColorMatrix47-6" /><feFlood flood-opacity="1" flood-color="rgb(255,255,255)" result="flood1" id="feFlood47-6" /><feBlend in="flood1" in2="colormatrix1" mode="lighten" result="blend1" id="feBlend47-5" /><feBlend in2="blend1" mode="screen" result="blend2" id="feBlend48-1" /><feColorMatrix in="blend2" values="1" type="saturate" result="colormatrix2" id="feColorMatrix48-1" /><feComposite in="colormatrix2" in2="SourceGraphic" operator="in" result="fbSourceGraphic" id="feComposite48-7" /><feColorMatrix result="fbSourceGraphicAlpha" in="fbSourceGraphic" values="0 0 0 -1 0 0 0 0 -1 0 0 0 0 -1 0 0 0 0 1 0" id="feColorMatrix49-8" /><feComposite id="feComposite49-1" in2="fbSourceGraphic" operator="arithmetic" k1="0" k2="1.07692" result="composite1" in="fbSourceGraphic" k3="0" k4="0" /><feColorMatrix id="feColorMatrix51-7" in="composite1" values="1" type="saturate" result="colormatrix1" /><feFlood id="feFlood51-8" flood-opacity="1" flood-color="rgb(255,255,255)" result="flood1" /><feBlend id="feBlend52-3" in="flood1" in2="colormatrix1" mode="lighten" result="blend1" /><feBlend id="feBlend53-9" in2="blend1" mode="screen" result="blend2" /><feColorMatrix id="feColorMatrix53-8" in="blend2" values="1" type="saturate" result="colormatrix2" /><feComposite id="feComposite53-2" in="colormatrix2" in2="fbSourceGraphic" operator="in" result="fbSourceGraphic" /><feColorMatrix result="fbSourceGraphicAlpha" in="fbSourceGraphic" values="0 0 0 -1 0 0 0 0 -1 0 0 0 0 -1 0 0 0 0 1 0" id="feColorMatrix54-1" /><feComposite id="feComposite54-6" in2="fbSourceGraphic" operator="arithmetic" k1="0" k2="1.07692" result="composite1" in="fbSourceGraphic" k3="0" k4="0" /><feColorMatrix id="feColorMatrix55-3" in="composite1" values="1" type="saturate" result="colormatrix1" /><feFlood id="feFlood55-6" flood-opacity="1" flood-color="rgb(255,204,0)" result="flood1" /><feBlend id="feBlend55-1" in="flood1" in2="colormatrix1" mode="lighten" result="blend1" /><feBlend id="feBlend56-5" in2="blend1" mode="screen" result="blend2" /><feColorMatrix id="feColorMatrix56-7" in="blend2" values="1" type="saturate" result="colormatrix2" /><feComposite id="feComposite56-3" in="colormatrix2" in2="fbSourceGraphic" operator="in" result="composite2" /></filter><filter style="color-interpolation-filters:sRGB" inkscape:label="Colorize" id="filter59" x="-0.0035136079" y="-0.0033264321" width="1.0070194" height="1.0066772"><feComposite in2="SourceGraphic" operator="arithmetic" k1="0" k2="1.07692" result="composite1" id="feComposite58" k3="0" k4="0" /><feColorMatrix in="composite1" values="1" type="saturate" result="colormatrix1" id="feColorMatrix58" /><feFlood flood-opacity="1" flood-color="rgb(255,204,0)" result="flood1" id="feFlood58" /><feBlend in="flood1" in2="colormatrix1" mode="lighten" result="blend1" id="feBlend58" /><feBlend in2="blend1" mode="screen" result="blend2" id="feBlend59" /><feColorMatrix in="blend2" values="1" type="saturate" result="colormatrix2" id="feColorMatrix59" /><feComposite in="colormatrix2" in2="SourceGraphic" operator="in" result="composite2" id="feComposite59" /></filter><inkscape:path-effect effect="fill_between_many" method="originald" linkedpaths="#path56,0,1" id="path-effect62" is_visible="true" lpeversion="0" join="true" close="true" autoreverse="true" /><rect x="104.76999" y="43.935802" width="248.64766" height="91.734093" id="rect299" /><inkscape:path-effect effect="bspline" id="path-effect296-1" is_visible="true" lpeversion="1.3" weight="33.333333" steps="2" helper_size="0" apply_no_weight="true" apply_with_weight="true" only_selected="false" uniform="false" /><inkscape:path-effect effect="bspline" id="path-effect293-71" is_visible="true" lpeversion="1.3" weight="33.333333" steps="2" helper_size="0" apply_no_weight="true" apply_with_weight="true" only_selected="false" uniform="false" /><inkscape:perspective sodipodi:type="inkscape:persp3d" inkscape:vp_x="-15.017091 : 14.792849 : 1" inkscape:vp_y="0 : 1000 : 0" inkscape:vp_z="101.18036 : 14.792849 : 1" inkscape:persp3d-origin="43.081633 : -7.2557631 : 1" id="perspective267-5" /><rect x="105.2528" y="91.734093" width="297.41159" height="99.459068" id="rect264-6" /><filter inkscape:label="Button" inkscape:menu="Bevels" inkscape:menu-tooltip="Soft bevel, slightly depressed middle" style="color-interpolation-filters:sRGB" id="filter52-6" x="-0.38971364" y="-0.38971367" width="1.7794273" height="1.7794273"><feGaussianBlur stdDeviation="5.8788731" in="SourceAlpha" result="result0" id="feGaussianBlur49-1" /><feMorphology in="SourceAlpha" radius="6.6" result="result1" id="feMorphology49-6" /><feGaussianBlur stdDeviation="8.9" in="result1" id="feGaussianBlur50-5" /><feColorMatrix values="1 0 0 0 0 0 1 0 0 0 0 0 1 0 0 0 0 0 0.3 0" result="result91" id="feColorMatrix50-5" /><feComposite in="result0" operator="out" result="result2" in2="result91" id="feComposite50-4" /><feGaussianBlur stdDeviation="1.7" result="result4" id="feGaussianBlur51-3" /><feDiffuseLighting surfaceScale="10" id="feDiffuseLighting51-7"><feDistantLight azimuth="225" elevation="45" id="feDistantLight51-1" /></feDiffuseLighting><feBlend in2="SourceGraphic" mode="multiply" id="feBlend51-6" /><feComposite in2="SourceAlpha" operator="in" result="result3" id="feComposite51-3" /><feSpecularLighting in="result4" surfaceScale="5" specularExponent="17.89999962" id="feSpecularLighting52-2"><feDistantLight azimuth="225" elevation="45" id="feDistantLight52-5" /></feSpecularLighting><feComposite in2="result3" operator="atop" id="feComposite52-5" /></filter><inkscape:path-effect effect="bspline" id="path-effect293-0-2" is_visible="true" lpeversion="1.3" weight="33.333333" steps="2" helper_size="0" apply_no_weight="true" apply_with_weight="true" only_selected="false" uniform="false" /><inkscape:path-effect effect="bspline" id="path-effect293-2-1" is_visible="true" lpeversion="1.3" weight="33.333333" steps="2" helper_size="0" apply_no_weight="true" apply_with_weight="true" only_selected="false" uniform="false" /><inkscape:path-effect effect="bspline" id="path-effect293-02-3" is_visible="true" lpeversion="1.3" weight="33.333333" steps="2" helper_size="0" apply_no_weight="true" apply_with_weight="true" only_selected="false" uniform="false" /><inkscape:path-effect effect="bspline" id="path-effect293-3-1" is_visible="true" lpeversion="1.3" weight="33.333333" steps="2" helper_size="0" apply_no_weight="true" apply_with_weight="true" only_selected="false" uniform="false" /><inkscape:path-effect effect="bspline" id="path-effect293-4-7" is_visible="true" lpeversion="1.3" weight="33.333333" steps="2" helper_size="0" apply_no_weight="true" apply_with_weight="true" only_selected="false" uniform="false" /><inkscape:path-effect effect="bspline" id="path-effect293-7-2" is_visible="true" lpeversion="1.3" weight="33.333333" steps="2" helper_size="0" apply_no_weight="true" apply_with_weight="true" only_selected="false" uniform="false" /><inkscape:path-effect effect="bspline" id="path-effect293-36-3" is_visible="true" lpeversion="1.3" weight="33.333333" steps="2" helper_size="0" apply_no_weight="true" apply_with_weight="true" only_selected="false" uniform="false" /><inkscape:path-effect effect="bspline" id="path-effect293-06-4" is_visible="true" lpeversion="1.3" weight="33.333333" steps="2" helper_size="0" apply_no_weight="true" apply_with_weight="true" only_selected="false" uniform="false" /><inkscape:path-effect effect="bspline" id="path-effect293-8-3" is_visible="true" lpeversion="1.3" weight="33.333333" steps="2" helper_size="0" apply_no_weight="true" apply_with_weight="true" only_selected="false" uniform="false" /><inkscape:path-effect effect="bspline" id="path-effect293-1-4" is_visible="true" lpeversion="1.3" weight="33.333333" steps="2" helper_size="0" apply_no_weight="true" apply_with_weight="true" only_selected="false" uniform="false" /><filter inkscape:label="Drop Shadow" inkscape:menu="Bevels" inkscape:menu-tooltip="Soft bevel, slightly depressed middle" style="color-interpolation-filters:sRGB" id="filter4-3" x="-0.34052795" y="-0.34289351" width="1.6822387" height="1.6834215"><feGaussianBlur stdDeviation="2.3" in="SourceAlpha" result="result0" id="feGaussianBlur1-5" /><feMorphology in="SourceAlpha" radius="6.6" result="result1" id="feMorphology1-8" /><feGaussianBlur stdDeviation="8.9" in="result1" id="feGaussianBlur2-5" /><feColorMatrix values="1 0 0 0 0 0 1 0 0 0 0 0 1 0 0 0 0 0 0.3 0" result="result91" id="feColorMatrix2-3" /><feComposite in="result0" operator="out" result="result2" in2="result91" id="feComposite2-3" /><feGaussianBlur stdDeviation="1.7" result="result4" id="feGaussianBlur3-0" /><feDiffuseLighting surfaceScale="10" id="feDiffuseLighting3-7"><feDistantLight azimuth="225" elevation="45" id="feDistantLight3-3" /></feDiffuseLighting><feBlend in2="SourceGraphic" mode="multiply" id="feBlend3-6" /><feComposite in2="SourceAlpha" operator="in" result="result3" id="feComposite3-2" /><feSpecularLighting in="result4" surfaceScale="5" specularExponent="17.89999962" id="feSpecularLighting4-4"><feDistantLight azimuth="225" elevation="45" id="feDistantLight4-1" /></feSpecularLighting><feComposite in2="result3" operator="atop" id="feComposite4-2" result="fbSourceGraphic" /><feColorMatrix result="fbSourceGraphicAlpha" in="fbSourceGraphic" values="0 0 0 -1 0 0 0 0 -1 0 0 0 0 -1 0 0 0 0 1 0" id="feColorMatrix4-9" /><feFlood id="feFlood4-7" result="flood" in="fbSourceGraphic" flood-opacity="1.000000" flood-color="rgb(255,255,255)" /><feGaussianBlur id="feGaussianBlur4-5" result="blur" in="fbSourceGraphic" stdDeviation="1.846154" /><feOffset id="feOffset4-9" result="offset" in="blur" dx="0.100000" dy="-0.200000" /><feComposite id="feComposite5-2" result="comp1" operator="in" in="flood" in2="offset" /><feComposite id="feComposite6-1" result="comp2" operator="over" in="fbSourceGraphic" in2="comp1" /></filter></defs><g inkscape:label="Livello 1" inkscape:groupmode="layer" id="layer1"><path id="path1" style="mix-blend-mode:normal;fill:#000000;fill-opacity:1;fill-rule:evenodd;stroke:none;stroke-width:2.617;stroke-linecap:round;stroke-linejoin:round;stroke-opacity:1;paint-order:markers stroke fill;filter:url(#filter4)" d="M 109.95248,56.86216 A 42.273724,42.273724 0 0 1 67.678758,99.135878 42.273724,42.273724 0 0 1 25.405034,56.86216 42.273724,42.273724 0 0 1 67.678758,14.588436 42.273724,42.273724 0 0 1 109.95248,56.86216 Z" transform="matrix(1.1727079,0,0,1.1727079,-13.280216,9.7605777)" /><path d="M 23.008075,50.040011 C 18.407353,47.735066 13.80663,45.43012 9.2059072,43.125174 10.050069,41.809662 10.894231,40.49415 11.738393,39.178638 c 0.959678,-1.495529 1.654289,-2.435803 2.083832,-2.820822 0.654975,-0.594144 1.48187,-0.952102 2.480685,-1.073874 0.992548,-0.124908 2.038019,0.08778 3.136415,0.638068 0.847345,0.424514 1.472656,0.917125 1.875934,1.477835 0.403281,0.560706 0.636182,1.13487 0.698702,1.722493 0.05981,0.578943 0.0044,1.111162 -0.166104,1.596658 -0.244959,0.65317 -0.724649,1.536424 -1.439072,2.649762 l -1.028987,1.603542 5.206418,2.608395 z m -9.889148,-8.204385 3.916575,1.962188 0.863709,-1.345974 c 0.622018,-0.969324 0.965701,-1.653548 1.03105,-2.052672 0.0654,-0.399112 0.0029,-0.76711 -0.187353,-1.103993 -0.186703,-0.34241 -0.484045,-0.615813 -0.892027,-0.820209 -0.502123,-0.251564 -0.999906,-0.328937 -1.493347,-0.23212 -0.493428,0.09682 -0.908897,0.324193 -1.246407,0.682121 -0.251154,0.262121 -0.661077,0.836302 -1.229769,1.722543 z M 30.712167,38.824184 20.112565,28.39449 25.127138,24.421681 c 1.261027,-0.999048 2.272347,-1.629029 3.03396,-1.889944 0.762147,-0.269915 1.558356,-0.3014 2.388627,-0.09445 0.830267,0.206955 1.558713,0.618722 2.185338,1.235301 0.795331,0.782583 1.193034,1.63618 1.19311,2.56079 -0.0047,0.919866 -0.45746,1.856445 -1.358154,2.809738 0.785072,-0.142522 1.505432,-0.186681 2.161081,-0.132476 0.661015,0.04995 1.688049,0.255127 3.081103,0.615532 l 3.508651,0.893249 -2.849375,2.257422 -4.028967,-0.904832 c -1.435986,-0.326396 -2.372709,-0.504663 -2.810171,-0.534801 -0.442282,-0.03487 -0.828087,0.0097 -1.157417,0.133568 -0.33415,0.119172 -0.774892,0.395576 -1.322228,0.829213 l -0.482945,0.382614 4.42494,4.354006 z m -3.734295,-7.906336 1.762748,-1.396542 c 1.142969,-0.905519 1.813272,-1.513623 2.010911,-1.824313 0.197633,-0.31069 0.270899,-0.634148 0.219797,-0.970376 -0.05111,-0.336226 -0.235728,-0.660855 -0.553858,-0.973886 -0.356695,-0.350979 -0.750817,-0.548159 -1.182367,-0.591539 -0.431001,-0.05238 -0.868604,0.04602 -1.31281,0.295201 -0.217278,0.129332 -0.808863,0.576612 -1.774752,1.341841 l -1.859338,1.473062 z m 12.490111,-7.465172 c -0.602854,-1.324274 -0.884631,-2.515119 -0.845332,-3.572534 0.03318,-0.780643 0.217773,-1.535963 0.553775,-2.26596 0.342698,-0.732363 0.80083,-1.347717 1.374396,-1.846062 0.760735,-0.667602 1.740056,-1.213532 2.937962,-1.637792 2.168273,-0.767933 4.172032,-0.787659 6.011277,-0.05918 1.845936,0.726116 3.25065,2.14741 4.214143,4.263882 0.955421,2.098735 1.057811,3.970972 0.30717,5.616711 -0.753328,1.639829 -2.210784,2.842524 -4.372369,3.608086 -2.18835,0.775046 -4.19611,0.803051 -6.02328,0.08402 -1.829858,-0.724944 -3.21577,-2.122004 -4.157735,-4.19118 z m 3.021317,-1.17303 c 0.670137,1.472071 1.563599,2.453141 2.680386,2.943211 1.114092,0.484157 2.263397,0.516477 3.447917,0.09696 1.184521,-0.419517 1.983992,-1.138597 2.398413,-2.157241 0.418427,-1.026925 0.284496,-2.29416 -0.401793,-3.801706 -0.678214,-1.489804 -1.5556,-2.469703 -2.632159,-2.939695 -1.069866,-0.472361 -2.217136,-0.491672 -3.441809,-0.05793 -1.224674,0.433739 -2.042221,1.155789 -2.452641,2.16615 -0.413112,1.004452 -0.279222,2.254538 0.401669,3.750258 z m 21.384827,-11.877903 3.183633,-0.198478 0.717804,8.844128 c 0.09386,1.156344 0.05093,2.053016 -0.128767,2.690014 -0.243367,0.832539 -0.751436,1.521939 -1.524206,2.068198 -0.773293,0.539905 -1.825443,0.851347 -3.15645,0.934326 -1.56124,0.09732 -2.793943,-0.212163 -3.698108,-0.928457 -0.904686,-0.722655 -1.421216,-1.830299 -1.549589,-3.322933 l 2.986209,-0.492679 c 0.100957,0.798301 0.279952,1.355468 0.536985,1.6715 0.386078,0.4804 0.931654,0.698624 1.636728,0.654671 0.712271,-0.04443 1.201458,-0.253721 1.467561,-0.627889 0.265589,-0.380541 0.352489,-1.136275 0.2607,-2.267203 z m 7.789679,13.816607 3.359837,-13.685177 11.494095,2.210697 -0.56839,2.315104 -8.364133,-1.608709 -0.744853,3.033887 7.782564,1.496845 -0.566084,2.305764 -7.782561,-1.496857 -0.914447,3.724685 8.66021,1.66566 -0.566084,2.305757 z m 26.119818,3.339772 2.164225,2.152006 c -1.294777,1.09708 -2.635273,1.714169 -4.021487,1.851266 -1.376316,0.134898 -2.795771,-0.182899 -4.258363,-0.953393 -1.809649,-0.953315 -2.929818,-2.281027 -3.360506,-3.983134 -0.427014,-1.707572 -0.002,-3.507494 1.274944,-5.399766 1.350769,-2.001652 2.984561,-3.246324 4.901375,-3.734018 1.920517,-0.493159 3.835179,-0.236965 5.743988,0.768582 1.6671,0.878232 2.72783,2.026373 3.18219,3.444423 0.27287,0.840555 0.23945,1.823726 -0.10025,2.949515 l -3.11129,-0.860631 c 0.25959,-0.708346 0.25399,-1.378487 -0.0168,-2.010421 -0.264616,-0.628664 -0.762571,-1.135618 -1.493862,-1.520861 -1.010191,-0.532158 -2.047257,-0.644804 -3.111198,-0.337938 -1.057733,0.310124 -2.070075,1.181626 -3.037026,2.614507 -1.02599,1.520378 -1.446858,2.766477 -1.262605,3.738296 0.184241,0.971819 0.772163,1.718909 1.763765,2.24127 0.731294,0.385245 1.498729,0.511534 2.302304,0.378869 0.803575,-0.132668 1.617114,-0.578858 2.440616,-1.338572 z m 4.060216,9.973077 9.88056,-7.690842 -3.11438,-3.118947 2.0118,-1.565945 8.34082,8.353031 -2.0118,1.565951 -3.10724,-3.111774 -9.88056,7.690843 z m 10.69355,4.33776 1.56182,2.397446 c -0.87531,0.531128 -1.41879,1.115125 -1.63043,1.751991 -0.20866,0.642669 -0.11204,1.355808 0.28986,2.139417 0.42564,0.830053 0.94273,1.375381 1.55127,1.635984 0.61806,0.263785 1.19319,0.289482 1.72539,0.07709 0.34165,-0.136349 0.58461,-0.341694 0.72888,-0.616035 0.15379,-0.271154 0.20629,-0.662706 0.15749,-1.174653 -0.0365,-0.349038 -0.17897,-1.120785 -0.42745,-2.31524 -0.32073,-1.536203 -0.34149,-2.695672 -0.0623,-3.478406 0.39318,-1.100893 1.16139,-1.879465 2.30463,-2.335716 0.73587,-0.293679 1.51623,-0.384845 2.34107,-0.2735 0.83438,0.114526 1.59623,0.450296 2.28555,1.007311 0.69226,0.562819 1.28991,1.334716 1.79293,2.315691 0.82154,1.602061 1.04166,2.96515 0.66037,4.089265 -0.37829,1.129914 -1.22061,1.980022 -2.52697,2.550323 l -1.44969,-2.526098 c 0.68587,-0.406588 1.09602,-0.856968 1.23045,-1.351141 0.14398,-0.490989 0.0299,-1.099271 -0.34208,-1.824845 -0.38399,-0.748789 -0.85874,-1.265564 -1.42425,-1.550326 -0.36328,-0.183666 -0.73217,-0.200768 -1.10668,-0.05131 -0.34165,0.136351 -0.56855,0.380738 -0.68072,0.733162 -0.1421,0.448293 -0.0592,1.366195 0.24866,2.753708 0.30784,1.38752 0.43436,2.452323 0.37957,3.194411 -0.0453,0.745274 -0.29365,1.410791 -0.74517,1.996552 -0.44199,0.588949 -1.11962,1.065661 -2.0329,1.430137 -0.82787,0.330388 -1.70735,0.436637 -2.63843,0.318747 -0.9311,-0.117886 -1.76455,-0.477524 -2.50034,-1.078913 -0.72922,-0.604014 -1.37809,-1.460359 -1.9466,-2.569033 -0.82748,-1.61367 -1.04247,-3.020761 -0.64498,-4.221275 0.40407,-1.203137 1.37109,-2.211392 2.90107,-3.024765 z" id="text264" style="font-weight:bold;font-size:14.1111px;line-height:94.42%;font-family:Arial;-inkscape-font-specification:'Arial Bold';white-space:pre;fill:#ffa500;fill-rule:evenodd;stroke:none;stroke-width:2.61109;stroke-linecap:round;stroke-linejoin:round;stroke-opacity:0.708145;paint-order:stroke markers fill;fill-opacity:1" inkscape:transform-center-x="-31.061544" inkscape:transform-center-y="28.367205" aria-label="PROJECTS" inkscape:path-effect="#path-effect6" inkscape:original-d="M 18.978222,55.52737 3.9146939,47.025357 6.6610399,42.133124 q 1.5610786,-2.780846 2.2612423,-3.497814 1.0675842,-1.106346 2.6995818,-1.33806 1.621736,-0.237496 3.419901,0.777396 1.387173,0.78293 2.049186,1.821155 0.662018,1.038219 0.767182,2.128345 0.100689,1.074033 -0.175621,1.975974 -0.397095,1.213531 -1.559224,3.283717 l -1.115882,1.987794 5.682225,3.207104 z M 8.1743639,45.414989 l 4.2745041,2.412574 0.936647,-1.668506 q 1.011818,-1.8024 1.116615,-2.543452 0.104879,-0.741031 -0.20788,-1.365112 -0.306906,-0.634357 -0.974806,-1.011324 -0.822018,-0.463959 -1.628082,-0.281457 -0.806044,0.182506 -1.35591,0.84867 -0.4091989,0.487875 -1.3342723,2.135787 z M 27.33556,41.621989 15.750019,28.75924 21.201006,23.825005 q 2.05616,-1.861229 3.299735,-2.349796 1.244402,-0.505272 2.602567,-0.125996 1.358159,0.379292 2.385527,1.519915 1.303965,1.447718 1.308763,3.163569 -0.0031,1.707074 -1.470508,3.481325 1.282518,-0.268994 2.354483,-0.172167 1.080714,0.0889 3.359552,0.749727 l 3.826387,1.091674 -3.097354,2.803722 -4.393414,-1.104013 q -2.34884,-0.597468 -3.064045,-0.650885 -0.723108,-0.06217 -1.260787,0.169675 -0.545582,0.223073 -1.438036,1.030939 l -0.524976,0.475207 4.836533,5.369716 z m -4.095911,-9.767198 1.916158,-1.734507 q 1.86366,-1.686984 2.185139,-2.264684 0.321471,-0.577698 0.236242,-1.201362 -0.08524,-0.62366 -0.606822,-1.202744 -0.58481,-0.649284 -1.290419,-0.72731 -0.704757,-0.09473 -1.429573,0.370239 -0.354499,0.241256 -1.929424,1.666879 l -2.021154,1.829546 z m 13.585305,-9.283495 q -0.99209,-2.45407 -0.933201,-4.416601 0.05029,-1.448874 0.59581,-2.805499 0.556455,-1.361055 1.491456,-2.289154 1.240084,-1.243274 3.195976,-2.037473 3.540267,-1.4375438 6.550287,-0.09622 3.020945,1.336899 4.606524,5.259023 1.572294,3.889257 0.353657,6.947657 -1.223061,3.047448 -4.752407,4.480553 -3.573048,1.450859 -6.563283,0.126994 -2.99466,-1.334815 -4.544811,-5.169294 z m 3.288374,-1.462802 q 1.102816,2.727958 2.930737,3.630997 1.823487,0.892082 3.757521,0.106761 1.934038,-0.785322 2.606279,-2.678056 0.678746,-1.908124 -0.450649,-4.701822 -1.116108,-2.760821 -2.878173,-3.626832 -1.751138,-0.870445 -3.750734,-0.0585 -1.999596,0.811944 -2.66534,2.689285 -0.670172,1.866389 0.450341,4.638173 z m 23.263,-14.7768403 3.468535,-0.2577353 0.812004,10.9389516 q 0.159259,2.145355 -0.13125,3.3285 -0.393585,1.546388 -1.653955,2.564548 -1.261255,1.006372 -3.436433,1.168001 -2.551432,0.18957 -4.032957,-1.134507 -1.482408,-1.335878 -1.699788,-4.105105 l 3.252411,-0.620957 q 0.169055,1.480873 0.590786,2.065876 0.633493,0.88929 1.785749,0.803676 1.164018,-0.08653 1.597085,-0.782422 0.432193,-0.707716 0.276442,-2.805916 z M 71.911314,23.395348 75.526396,6.4515844 88.05896,9.142605 l -0.611571,2.866355 -9.119816,-1.958237 -0.801439,3.756288 8.485704,1.822068 -0.609089,2.854791 -8.485701,-1.822083 -0.983917,4.611572 9.442644,2.027562 -0.609089,2.854782 z m 28.474016,4.031904 2.36561,2.654117 q -2.11083,2.043347 -4.375973,2.305723 -2.248975,0.25824 -4.643551,-1.163212 -2.962781,-1.758733 -3.675369,-4.914957 -0.70661,-3.166386 1.371104,-6.685313 2.197778,-3.722333 5.32844,-4.638377 3.136687,-0.926208 6.261809,0.928884 2.7294,1.620215 3.47925,4.249161 0.45026,1.558299 -0.0993,3.649439 l -3.39328,-1.052841 q 0.42074,-1.316008 -0.0251,-2.48717 -0.43571,-1.165129 -1.63299,-1.875848 -1.653898,-0.981756 -3.391411,-0.40618 -1.727348,0.581587 -3.300633,3.246215 -1.669343,2.827342 -1.363258,4.629744 0.306065,1.802402 1.929529,2.766084 1.197284,0.710722 2.510097,0.459914 1.312813,-0.250811 2.655026,-1.665383 z m 4.45803,12.322863 10.74092,-9.552701 -3.40425,-3.846751 2.18698,-1.945042 9.11715,10.302207 -2.18698,1.945049 -3.39645,-3.837905 -10.74092,9.552702 z m 11.66739,5.325625 1.70999,2.960074 q -1.42805,0.990669 -1.77077,2.173752 -0.33781,1.193835 0.32307,2.645715 0.69993,1.537934 1.69593,2.018056 1.01159,0.485973 1.88042,0.08877 0.55776,-0.254992 0.79218,-0.76493 0.25002,-0.50408 0.16766,-1.45385 -0.0614,-0.64752 -0.4736,-2.862712 -0.53201,-2.848977 -0.0796,-4.303144 0.63711,-2.045246 2.50348,-2.898501 1.20134,-0.54922 2.55015,-0.347325 1.36441,0.207742 2.49395,1.237469 1.13439,1.040481 1.96157,2.858043 1.35094,2.96832 0.73338,5.056593 -0.61261,2.099018 -2.74504,3.164857 l -1.58824,-3.119667 q 1.11904,-0.758465 1.33627,-1.676302 0.23285,-0.911982 -0.37892,-2.256336 -0.63144,-1.387365 -1.55723,-1.912567 -0.59473,-0.338754 -1.20612,-0.05924 -0.55775,0.254995 -0.73931,0.909652 -0.23,0.832737 0.28025,3.405856 0.51019,2.573131 0.42438,3.950579 -0.0702,1.383307 -0.80528,2.472929 -0.71947,1.095482 -2.21043,1.777104 -1.35152,0.617873 -2.87402,0.404442 -1.52253,-0.213422 -2.72826,-1.325231 -1.195,-1.116717 -2.12987,-3.170883 -1.36071,-2.989828 -0.71706,-5.21997 0.65439,-2.23505 3.1511,-3.753255 z" transform="matrix(1,0,0,1.1079368,-0.96191938,-5.7000827)" /><path id="path266" style="fill:#ffffff;stroke:#000000;stroke-width:0.433108" d="m 39.71094,68.538742 a 0.32086852,0.32086852 0 0 1 -0.320869,0.320867 0.32086852,0.32086852 0 0 1 -0.320869,-0.320867 0.32086852,0.32086852 0 0 1 0.320869,-0.320869 0.32086852,0.32086852 0 0 1 0.320869,0.320869 z" /><path id="path295" style="stroke:#000000;stroke-width:0.433108" d="m 3.5858595,64.20304 a 0.05672207,0.05672207 0 0 1 -0.05672,0.05672 0.05672207,0.05672207 0 0 1 -0.05672,-0.05672 0.05672207,0.05672207 0 0 1 0.05672,-0.05672 0.05672207,0.05672207 0 0 1 0.05672,0.05672 z" /><path style="opacity:0;fill:#000000;fill-rule:evenodd;stroke:none;stroke-width:3.06927;stroke-linecap:round;stroke-linejoin:round;paint-order:stroke markers fill" d="m 50.577418,59.128814 c 0,0 31.78463,37.639694 31.78463,37.639694" id="path2" /><path id="rect14" style="opacity:0;fill-rule:evenodd;stroke-width:3.06927;stroke-linecap:round;stroke-linejoin:round;paint-order:stroke markers fill" d="m 49.366575,58.066726 h 3.696568 v 4.731606 h -3.696568 z" /><path id="path16" style="fill:#ffffff;stroke:#000000;stroke-width:0.433108" d="m 83.249324,99.486767 a 0.00372192,0.00372192 0 0 1 -0.0038,0.0038 0.00372192,0.00372192 0 0 1 -0.0038,-0.0038 0.00372192,0.00372192 0 0 1 0.0038,-0.0038 0.00372192,0.00372192 0 0 1 0.0038,0.0038 z" /><path id="path17" style="fill:#ffffff;stroke:#000000;stroke-width:0.433108" d="m 84.007125,100.0967 a 0.00372192,0.00372192 0 0 1 -0.0038,0.004 0.00372192,0.00372192 0 0 1 -0.0038,-0.004 0.00372192,0.00372192 0 0 1 0.0038,-0.004 0.00372192,0.00372192 0 0 1 0.0038,0.004 z" /><path id="path18" style="fill:#ffffff;stroke:#000000;stroke-width:0.433108" d="m 84.395254,100.3185 a 0.00372192,0.00372192 0 0 1 -0.0038,0.004 0.00372192,0.00372192 0 0 1 -0.0038,-0.004 0.00372192,0.00372192 0 0 1 0.0038,-0.004 0.00372192,0.00372192 0 0 1 0.0038,0.004 z" /><path id="path19" style="fill:#ffffff;stroke:#000000;stroke-width:0.433108" d="m 85.300925,100.48484 a 0.00372192,0.00372192 0 0 1 -0.0038,0.004 0.00372192,0.00372192 0 0 1 -0.0038,-0.004 0.00372192,0.00372192 0 0 1 0.0038,-0.004 0.00372192,0.00372192 0 0 1 0.0038,0.004 z" /><path id="path20" style="fill:#ffffff;stroke:#000000;stroke-width:0.433108" d="m 85.1161,99.560688 a 0.00372192,0.00372192 0 0 1 -0.0038,0.0038 0.00372192,0.00372192 0 0 1 -0.0038,-0.0038 0.00372192,0.00372192 0 0 1 0.0038,-0.0038 0.00372192,0.00372192 0 0 1 0.0038,0.0038 z" /><path id="path21" style="fill:#ffffff;stroke:#000000;stroke-width:0.433108" d="m 84.376783,99.320427 a 0.00372192,0.00372192 0 0 1 -0.0038,0.0038 0.00372192,0.00372192 0 0 1 -0.0038,-0.0038 0.00372192,0.00372192 0 0 1 0.0038,-0.0038 0.00372192,0.00372192 0 0 1 0.0038,0.0038 z" /><path id="path22" style="fill:#ffffff;stroke:#000000;stroke-width:0.433108" d="m 82.343666,99.191043 a 0.00372192,0.00372192 0 0 1 -0.0038,0.0038 0.00372192,0.00372192 0 0 1 -0.0038,-0.0038 0.00372192,0.00372192 0 0 1 0.0038,-0.0038 0.00372192,0.00372192 0 0 1 0.0038,0.0038 z" /><path id="path24" style="fill:#ffffff;stroke:#000000;stroke-width:0.433108" d="m 83.627236,98.441385 a 0.01052717,0.01052717 0 0 1 -0.01048,0.01048 0.01052717,0.01052717 0 0 1 -0.01048,-0.01048 0.01052717,0.01052717 0 0 1 0.01048,-0.01048 0.01052717,0.01052717 0 0 1 0.01048,0.01048 z" /><path id="path25" style="fill:#ffffff;stroke:#000000;stroke-width:0.433108" d="m 84.045439,98.964145 a 0.01052717,0.01052717 0 0 1 -0.01048,0.01048 0.01052717,0.01052717 0 0 1 -0.01048,-0.01048 0.01052717,0.01052717 0 0 1 0.01048,-0.01048 0.01052717,0.01052717 0 0 1 0.01048,0.01048 z" /><path id="path26" style="fill:#ffffff;stroke:#000000;stroke-width:0.433108" d="m 85.927429,100.16654 a 0.01052717,0.01052717 0 0 1 -0.01048,0.0105 0.01052717,0.01052717 0 0 1 -0.01048,-0.0105 0.01052717,0.01052717 0 0 1 0.01048,-0.0105 0.01052717,0.01052717 0 0 1 0.01048,0.0105 z" /><path id="path27" style="fill:#ffffff;stroke:#000000;stroke-width:0.433108" d="m 83.574958,100.37565 a 0.01052717,0.01052717 0 0 1 -0.01048,0.0105 0.01052717,0.01052717 0 0 1 -0.01048,-0.0105 0.01052717,0.01052717 0 0 1 0.01048,-0.0105 0.01052717,0.01052717 0 0 1 0.01048,0.0105 z" /><path style="fill:#ffffff;fill-opacity:1;fill-rule:evenodd;stroke:#ffcc00;stroke-width:0.884546;stroke-linecap:round;stroke-dasharray:none;stroke-opacity:1" d="" id="path63" transform="scale(0.26458333)" /><path style="fill:#ffffff;fill-opacity:1;fill-rule:evenodd;stroke:#ffcc00;stroke-width:1.25094;stroke-linecap:round;stroke-dasharray:none;stroke-opacity:1" d="" id="path69" transform="scale(0.26458333)" /><path style="fill:#ffffff;fill-opacity:1;fill-rule:evenodd;stroke:#ffcc00;stroke-width:1.25094;stroke-linecap:round;stroke-dasharray:none;stroke-opacity:1" d="" id="path70" transform="scale(0.26458333)" /><path style="fill:#ffffff;fill-opacity:1;fill-rule:evenodd;stroke:#ffcc00;stroke-width:0.221136;stroke-linecap:round;stroke-dasharray:none;stroke-opacity:1" d="" id="path78" transform="scale(0.26458333)" /><path style="fill:#ffffff;fill-opacity:1;fill-rule:evenodd;stroke:#ffcc00;stroke-width:0.221136;stroke-linecap:round;stroke-dasharray:none;stroke-opacity:1" d="" id="path81" transform="scale(0.26458333)" /><path style="fill:#ffffff;fill-opacity:1;fill-rule:evenodd;stroke:#ffcc00;stroke-width:0.221136;stroke-linecap:round;stroke-dasharray:none;stroke-opacity:1" d="" id="path85" transform="scale(0.26458333)" /><path style="fill:#ffffff;fill-opacity:1;fill-rule:evenodd;stroke:#ffcc00;stroke-width:0.221136;stroke-linecap:round;stroke-dasharray:none;stroke-opacity:1" d="" id="path88" transform="scale(0.26458333)" /><path style="fill:#ffffff;fill-opacity:1;fill-rule:evenodd;stroke:#ffcc00;stroke-width:0.625468;stroke-linecap:round;stroke-dasharray:none;stroke-opacity:1" d="" id="path92" transform="scale(0.26458333)" /><path style="fill:#ffffff;fill-opacity:1;fill-rule:evenodd;stroke:#ffcc00;stroke-width:0.625468;stroke-linecap:round;stroke-dasharray:none;stroke-opacity:1" d="" id="path95" transform="scale(0.26458333)" /><path style="fill:#ffffff;fill-opacity:1;fill-rule:evenodd;stroke:#ffcc00;stroke-width:0.625468;stroke-linecap:round;stroke-dasharray:none;stroke-opacity:1" d="" id="path96" transform="scale(0.26458333)" /><path style="fill:#ffffff;fill-opacity:1;fill-rule:evenodd;stroke:#ffcc00;stroke-width:0.625468;stroke-linecap:round;stroke-dasharray:none;stroke-opacity:1" d="" id="path101" transform="scale(0.26458333)" /><path style="fill:#ffffff;fill-opacity:1;fill-rule:evenodd;stroke:#ffcc00;stroke-width:0.625468;stroke-linecap:round;stroke-dasharray:none;stroke-opacity:1" d="" id="path117" transform="scale(0.26458333)" /><path style="fill:#ffffff;fill-opacity:1;fill-rule:evenodd;stroke:#ffcc00;stroke-width:0.625468;stroke-linecap:round;stroke-dasharray:none;stroke-opacity:1" d="" id="path118" transform="scale(0.26458333)" /><path style="fill:#ffcc00;fill-opacity:1;fill-rule:evenodd;stroke:#ffcc00;stroke-width:0.625468;stroke-linecap:round;stroke-dasharray:none;stroke-opacity:1" d="" id="path139" transform="scale(0.26458333)" /><path style="fill:#ffcc00;fill-opacity:1;fill-rule:evenodd;stroke:#ffcc00;stroke-width:0.625468;stroke-linecap:round;stroke-dasharray:none;stroke-opacity:1" d="" id="path160" transform="scale(0.26458333)" /><path style="fill:#ffcc00;fill-opacity:1;fill-rule:evenodd;stroke:#ffcc00;stroke-width:0.625468;stroke-linecap:round;stroke-dasharray:none;stroke-opacity:1" d="" id="path161" transform="scale(0.26458333)" /><path style="fill:#ffcc00;fill-opacity:1;fill-rule:evenodd;stroke:#ffcc00;stroke-width:0.625468;stroke-linecap:round;stroke-dasharray:none;stroke-opacity:1" d="" id="path162" transform="scale(0.26458333)" /><path style="fill:#ffcc00;fill-opacity:1;fill-rule:evenodd;stroke:#ffcc00;stroke-width:0.625468;stroke-linecap:round;stroke-dasharray:none;stroke-opacity:1" d="" id="path163" transform="scale(0.26458333)" /><path style="fill:#ffcc00;fill-opacity:1;fill-rule:evenodd;stroke:#ffcc00;stroke-width:0.625468;stroke-linecap:round;stroke-dasharray:none;stroke-opacity:1" d="" id="path164" transform="scale(0.26458333)" /><path style="fill:#ffcc00;fill-opacity:1;fill-rule:evenodd;stroke:#ffcc00;stroke-width:0.625468;stroke-linecap:round;stroke-dasharray:none;stroke-opacity:1" d="" id="path171" transform="scale(0.26458333)" /><path style="fill:#ffcc00;fill-opacity:1;fill-rule:evenodd;stroke:#ffcc00;stroke-width:0.625468;stroke-linecap:round;stroke-dasharray:none;stroke-opacity:1" d="" id="path196" transform="scale(0.26458333)" /><path style="fill:#ffcc00;fill-opacity:1;fill-rule:evenodd;stroke:#ffcc00;stroke-width:0.00977294;stroke-linecap:round;stroke-dasharray:none;stroke-opacity:1" d="" id="path236" transform="scale(0.26458333)" /><path style="fill:#ffcc00;fill-opacity:1;fill-rule:evenodd;stroke:#ffcc00;stroke-width:0.0195459;stroke-linecap:round;stroke-dasharray:none;stroke-opacity:1" d="" id="path238" transform="scale(0.26458333)" /><path style="fill:#ffcc00;fill-opacity:1;fill-rule:evenodd;stroke:#ffcc00;stroke-width:0.0668132;stroke-linecap:round;stroke-dasharray:none;stroke-opacity:1" d="" id="path254" transform="scale(0.26458333)" /><path style="fill:none;stroke:none;stroke-width:0;stroke-dasharray:none" d="m 32.45702,58.536768 0.0675,-24.409466 4.55045,-0.07234 4.55045,-0.07234 0.0798,-1.382874 0.0797,-1.382873 3.21446,-0.07407 c 3.16457,-0.07293 3.21698,-0.08414 3.37726,-0.722752 0.26052,-1.038011 1.66981,-2.438877 2.94251,-2.924925 2.41926,-0.923923 5.09804,0.104975 6.20003,2.381377 l 0.58482,1.208083 h 3.1514 3.1514 v 1.455209 c 0,0.979466 0.10812,1.460304 0.33073,1.470793 0.1819,0.0086 1.93807,0.04145 3.9026,0.07307 1.96453,0.03161 3.7207,0.150691 3.90261,0.264615 0.25353,0.158784 0.33072,2.210661 0.33072,8.790476 0,8.275432 0.0182,8.583344 0.50591,8.583344 0.38446,0 0.54905,0.255336 0.68561,1.063577 0.17316,1.024983 0.70692,1.84684 1.19943,1.84684 0.13006,0 0.64329,-0.357188 1.14051,-0.79375 0.49721,-0.436563 1.08876,-0.79375 1.31454,-0.79375 0.59434,0 3.0915,1.607953 3.0915,1.990658 0,0.178234 -0.16567,0.793635 -0.36816,1.367557 -0.56949,1.614093 -0.21797,1.995943 1.64421,1.786116 l 1.50208,-0.169251 0.7276,1.487072 c 0.40019,0.817889 0.72761,1.630015 0.72761,1.804724 0,0.174709 -0.48515,0.737618 -1.0781,1.250909 -1.31203,1.135763 -1.21319,1.6478 0.43997,2.279146 1.08812,0.415556 1.16626,0.510656 1.15205,1.402036 -0.008,0.525933 -0.0995,1.431281 -0.20249,2.011885 -0.18257,1.029294 -0.22001,1.060331 -1.49989,1.24341 -1.90106,0.271935 -2.16744,0.782262 -1.16718,2.236098 0.463,0.672947 0.71429,1.295412 0.60004,1.486343 -0.54681,0.913774 -2.10371,2.577464 -2.41201,2.577464 -0.19327,0 -0.82165,-0.23991 -1.39642,-0.533134 -0.87433,-0.446049 -1.13202,-0.478808 -1.57758,-0.200552 -0.45175,0.282125 -0.50831,0.515279 -0.3728,1.5368 0.19185,1.446234 0.0363,1.6091 -2.12976,2.230459 -1.49862,0.42989 -1.59092,0.428994 -1.91823,-0.01863 -0.18912,-0.258637 -0.36664,-0.596321 -0.3945,-0.750408 -0.0279,-0.154088 -0.11715,0.850934 -0.19844,2.233382 l -0.14779,2.513542 -20.17585,0.0678 -20.17586,0.0678 z m 39.62273,21.098869 c 0,-1.675695 -0.10499,-2.778125 -0.26458,-2.778125 -0.15679,0 -0.26458,0.970139 -0.26458,2.38125 v 2.38125 H 52.49914 33.44768 l 0.0676,-23.084897 0.0676,-23.084897 4.2796,-0.0726 c 4.02271,-0.06825 4.28928,-0.0421 4.4409,0.435621 0.0887,0.279524 0.1431,0.609852 0.12084,0.734063 -0.0222,0.12421 -0.0264,0.553259 -0.009,0.953441 l 0.0313,0.727605 h 10.7018 10.7018 l 0.08,-1.389063 0.08,-1.389063 h 3.70417 3.70417 l 0.0699,8.400522 0.0699,8.400521 h -0.64192 c -0.54019,0 -0.6696,0.163852 -0.8166,1.03393 -0.22639,1.339987 -0.61489,1.833862 -1.59162,2.023333 -0.66274,0.128562 -0.94,0.0025 -1.67986,-0.763684 l -0.88611,-0.917659 -1.16993,0.701103 c -0.99583,0.596775 -1.14863,0.79953 -1.02685,1.36256 0.46092,2.131004 0.45076,2.515278 -0.0792,2.994864 -0.44853,0.40591 -0.72917,0.441947 -1.85216,0.237836 l -1.32353,-0.24056 -0.60468,1.291009 -0.60468,1.291009 0.97547,0.804059 c 0.78439,0.646561 0.97546,0.98498 0.97546,1.727701 0,0.853936 -0.0994,0.967296 -1.31688,1.502091 l -1.31687,0.57845 0.16209,1.322917 c 0.0892,0.727604 0.19961,1.366644 0.24547,1.42009 0.0459,0.05344 0.62949,0.158727 1.29696,0.23396 1.98068,0.223252 2.50282,1.452208 1.34249,3.159796 l -0.64508,0.949313 0.84351,1.016255 c 0.46394,0.558941 0.93756,1.018402 1.05249,1.021025 0.11494,0.0026 0.68111,-0.236092 1.25815,-0.530479 0.97265,-0.496206 1.10697,-0.50536 1.84155,-0.125497 0.73115,0.378094 0.79237,0.519733 0.79237,1.833293 v 1.423543 l 1.25198,0.426592 c 1.22977,0.419025 1.26019,0.415946 1.71542,-0.173567 0.25489,-0.330086 0.53103,-0.802426 0.61363,-1.049644 0.39372,-1.17825 2.28087,-0.82011 3.17949,0.603397 l 0.63996,1.013766 1.2607,-0.382537 c 0.69338,-0.210395 1.29046,-0.383825 1.32684,-0.3854 0.0364,-0.0016 0.0661,-0.644015 0.0661,-1.427643 0,-1.246803 0.087,-1.481768 0.69629,-1.881 0.66808,-0.437748 0.74753,-0.432217 1.96196,0.136592 l 1.26568,0.592815 0.88231,-1.009007 c 0.96379,-1.102191 0.97007,-1.183265 0.17793,-2.29573 -0.40277,-0.565635 -0.49796,-0.984956 -0.37382,-1.646675 0.17688,-0.942883 0.5473,-1.203467 1.71072,-1.203467 1.05246,0 1.5363,-0.513882 1.69439,-1.799591 0.1398,-1.137018 0.13873,-1.138706 -1.09349,-1.722043 C 82.67011,64.88034 82.52197,64.70724 82.4512,63.863906 82.383,63.05183 82.5134,62.788697 83.34582,62.057809 l 0.9744,-0.855532 -0.61054,-1.303531 c -0.4283,-0.914442 -0.73483,-1.267352 -1.02692,-1.182322 -1.58251,0.460679 -2.29763,0.437328 -2.77543,-0.09063 -0.48476,-0.535655 -0.49758,-1.81842 -0.0297,-2.975632 0.12905,-0.3192 -0.13439,-0.651724 -0.97389,-1.229319 l -1.15079,-0.791761 -0.98053,0.898589 c -1.07576,0.985861 -1.33608,1.049527 -2.29898,0.562248 -0.45043,-0.227942 -0.73752,-0.69259 -0.9376,-1.517454 -0.22152,-0.913295 -0.4237,-1.208513 -0.87213,-1.27346 l -0.58376,-0.08455 V 43.501606 34.788758 H 67.97891 63.87787 V 33.333549 31.87834 h -3.1833 c -2.80167,0 -3.20019,-0.05551 -3.32416,-0.46302 -0.34741,-1.142055 -1.06567,-2.264127 -1.77063,-2.766102 -0.82749,-0.589222 -2.66715,-0.90538 -3.72431,-0.640048 -1.03122,0.258819 -2.30046,1.479876 -2.83534,2.72771 l -0.48929,1.14146 h -3.05211 c -2.97535,0 -3.05325,0.01497 -3.09736,0.595313 -0.0513,0.674898 -0.12657,1.496031 -0.18187,1.984376 -0.0284,0.250557 -1.15987,0.330729 -4.66767,0.330729 H 32.92162 V 58.601259 82.41376 h 19.57917 19.57916 z m -4.16718,-2.257204 c -0.50025,-0.201076 -0.59584,-0.441331 -0.59859,-1.504583 -0.003,-1.159095 -0.0827,-1.316776 -0.94982,-1.87863 -0.9383,-0.607989 -0.95779,-0.609291 -2.23678,-0.149373 -1.2404,0.446042 -1.31102,0.445154 -1.8283,-0.02299 -0.7039,-0.637014 -0.67872,-1.049601 0.12866,-2.108128 l 0.66674,-0.874137 -0.52504,-1.224876 c -0.47966,-1.118997 -0.60404,-1.224875 -1.43885,-1.224875 -1.46872,0 -1.75084,-0.211933 -1.75084,-1.315279 0,-0.931041 0.0738,-1.022269 1.16395,-1.438596 1.07905,-0.412092 1.1734,-0.525687 1.29343,-1.5573 0.11675,-1.00341 0.0414,-1.193556 -0.76707,-1.934574 -0.94136,-0.862856 -1.08207,-1.379907 -0.6137,-2.255067 0.24439,-0.456648 0.46929,-0.508784 1.65365,-0.383354 1.31141,0.138886 1.40253,0.106261 2.10372,-0.753265 0.69842,-0.856132 0.7179,-0.954659 0.41363,-2.09231 -0.257,-0.960879 -0.25172,-1.275321 0.0271,-1.61123 0.51216,-0.61712 1.45606,-0.5081 2.38764,0.275772 0.77597,0.652935 0.88991,0.674604 1.96477,0.373663 1.04289,-0.291993 1.1729,-0.425561 1.51166,-1.553027 0.34938,-1.162795 0.42376,-1.233559 1.29668,-1.233559 0.87545,0 0.94667,0.06869 1.30356,1.257253 0.3296,1.097672 0.49751,1.290588 1.32292,1.519879 1.32502,0.368084 1.43798,0.347149 2.13602,-0.395882 0.6965,-0.741394 1.50081,-0.844363 2.25988,-0.289315 0.46546,0.340353 0.48066,0.477851 0.17796,1.609625 -0.31733,1.186444 -0.3017,1.272037 0.37879,2.075254 0.63909,0.754337 0.85569,0.83777 2.17498,0.83777 1.4269,0 1.47176,0.02259 1.71581,0.863918 0.23134,0.797501 0.17668,0.929719 -0.71098,1.719792 -0.89333,0.795126 -0.95011,0.934799 -0.80001,1.96786 0.14694,1.01133 0.26624,1.15503 1.31803,1.5875 1.00837,0.414617 1.1566,0.578859 1.15747,1.282492 0.001,1.069488 -0.42307,1.44198 -1.64287,1.44198 -0.92804,0 -1.05353,0.09196 -1.56657,1.147955 l -0.55772,1.147955 0.714,1.078938 c 0.68896,1.041088 0.6983,1.102916 0.26615,1.762461 -0.52298,0.798164 -0.80191,0.830824 -2.22671,0.26073 -1.01088,-0.404474 -1.09709,-0.397807 -1.98973,0.153871 -0.86408,0.534034 -0.93306,0.673353 -0.93306,1.884551 0,1.160478 -0.0765,1.336969 -0.67869,1.565921 -1.10487,0.420071 -1.3735,0.312521 -1.99894,-0.800299 -0.5587,-0.994078 -0.66838,-1.058333 -1.80655,-1.058333 -1.12829,0 -1.25678,0.07288 -1.86582,1.058333 -0.66758,1.080163 -1.00033,1.207631 -2.05052,0.785505 z m 1.43059,-1.248526 c 0.70161,-1.132899 1.1565,-1.389377 2.45643,-1.385011 1.38989,0.0047 1.54855,0.08883 2.36145,1.25272 0.89633,1.283342 1.3583,1.130189 1.3583,-0.45031 0,-1.25203 0.052,-1.346015 1.17215,-2.116667 1.33579,-0.919048 1.71069,-0.971129 2.82874,-0.392963 0.6157,0.318388 0.88495,0.34268 1.1706,0.10561 0.31219,-0.25909 0.26724,-0.443906 -0.28359,-1.166076 -0.80869,-1.060245 -0.8089,-1.182741 -0.005,-2.769622 0.59971,-1.183473 0.74249,-1.296231 1.85208,-1.462624 1.57606,-0.236345 1.66047,-0.965412 0.18036,-1.557636 -0.80726,-0.323003 -1.05736,-0.586077 -1.19063,-1.252427 -0.34166,-1.708332 -0.19685,-2.442951 0.65479,-3.32162 1.07655,-1.110716 0.82288,-1.518663 -0.8051,-1.294758 -1.23322,0.169611 -1.25871,0.157825 -2.23419,-1.032613 -0.93099,-1.136152 -0.97109,-1.260507 -0.70986,-2.201186 0.15228,-0.548353 0.27754,-1.145833 0.27835,-1.327734 0.002,-0.560738 -0.93151,-0.365972 -1.58603,0.330729 -0.72869,0.775655 -1.07046,0.80551 -2.73367,0.238798 -1.13692,-0.387388 -1.26492,-0.519873 -1.53375,-1.5875 -0.40358,-1.602756 -1.10068,-1.591203 -1.5534,0.02574 -0.31318,1.118573 -0.41418,1.21459 -1.6699,1.5875 -1.71563,0.509486 -1.64777,0.516844 -2.71069,-0.293884 -0.49813,-0.379941 -1.082,-0.623143 -1.2975,-0.540447 -0.34516,0.132448 -0.34569,0.281094 -0.005,1.248141 0.4197,1.189564 0.41066,1.221316 -0.77084,2.70736 -0.78902,0.99239 -0.81546,1.002357 -2.19968,0.82941 -1.67619,-0.209426 -1.84247,0.157771 -0.60732,1.341129 0.81626,0.782025 0.92283,1.301118 0.63026,3.069878 -0.13328,0.805743 -0.34059,1.042076 -1.33997,1.527614 -0.65026,0.315922 -1.13468,0.720414 -1.07648,0.898872 0.0582,0.178459 0.67969,0.436934 1.38109,0.574389 1.20942,0.237015 1.30878,0.323127 1.92436,1.667726 l 0.64909,1.417807 -0.66298,1.001836 c -0.90653,1.369856 -0.5943,1.910241 0.73693,1.275423 1.2621,-0.601851 1.41724,-0.583735 2.86528,0.334587 1.21065,0.767773 1.24242,0.821903 1.24242,2.116667 0,1.544723 0.49749,1.787433 1.23216,0.601139 z m 0.93326,-4.050228 c -5.3468,-1.065715 -7.21302,-8.236648 -3.08648,-11.859796 1.41843,-1.245394 2.58725,-1.665313 4.63533,-1.665313 3.03904,0 5.51694,1.728937 6.46481,4.510776 1.75332,5.145705 -2.63832,10.085734 -8.01366,9.014333 z m 4.0631,-1.140069 c 2.31238,-1.076781 3.56107,-3.037436 3.56107,-5.591474 0,-2.554038 -1.24869,-4.514692 -3.56107,-5.591474 -3.42544,-1.595094 -7.39968,0.292917 -8.49537,4.035828 -0.85312,2.914289 0.62013,5.878529 3.58977,7.22278 1.58651,0.718158 3.25619,0.692406 4.9056,-0.07566 z m -4.20486,-0.17456 c -2.25448,-0.675758 -3.67531,-2.491764 -3.82821,-4.892951 -0.13923,-2.186523 0.26261,-3.297384 1.65807,-4.583672 3.69881,-3.40945 9.39528,-0.948003 9.39528,4.059709 0,3.814391 -3.59056,6.506344 -7.22514,5.416914 z m 4.52072,-1.492805 c 1.42713,-1.15347 2.03568,-2.326553 2.03568,-3.924109 0,-4.090949 -4.93539,-6.420256 -7.96579,-3.759532 -1.06788,0.937614 -1.92248,2.575635 -1.93137,3.701884 -0.0131,1.657136 1.43584,3.847998 3.0369,4.591971 0.48082,0.223429 1.39192,0.334571 2.31104,0.281919 1.2201,-0.0699 1.71242,-0.244636 2.51354,-0.892133 z M 43.15198,37.522788 c -0.097,-0.09701 -0.17639,-1.287639 -0.17639,-2.645833 v -2.469446 h 3.175 c 3.01928,0 3.175,-0.02647 3.175,-0.539707 0,-0.89661 0.95803,-2.473866 1.80158,-2.966022 0.98182,-0.572834 2.72724,-0.597449 3.77951,-0.0533 0.95572,0.494225 1.8249,1.837917 1.82625,2.823282 l 9.9e-4,0.719461 3.24115,0.07429 3.24114,0.07429 0.0773,2.208457 c 0.049,1.400626 -0.0354,2.344248 -0.23083,2.579687 -0.25417,0.30625 -2.00831,0.371232 -10.02118,0.371232 -5.3422,0 -9.79247,-0.07937 -9.88948,-0.176389 z m 19.40277,-2.601736 v -1.984376 h -3.14118 -3.14118 l -0.15962,-0.992188 c -0.20966,-1.303262 -0.8342,-2.154598 -1.91052,-2.604312 -1.75957,-0.735198 -3.73717,0.46391 -4.06063,2.462152 l -0.1622,1.002056 -3.17119,0.132292 -3.17118,0.132291 -0.0777,1.918231 -0.0777,1.918229 h 9.53659 9.53659 z M 52.10371,34.494131 c -0.86261,-0.48957 -1.19062,-1.070286 -1.19062,-2.10788 0,-1.444958 0.73622,-2.215674 2.1165,-2.215674 2.03931,0 3.10018,2.184385 1.7861,3.67767 -0.68712,0.780829 -1.94596,1.080633 -2.71198,0.645884 z m 2.02969,-0.937004 c 0.98502,-0.891431 0.30237,-2.737118 -1.01236,-2.737118 -0.75933,0 -1.67878,0.869456 -1.67878,1.5875 0,0.700059 0.91277,1.587501 1.63281,1.587501 0.31596,0 0.79221,-0.197047 1.05833,-0.437883 z m -1.88685,-0.475449 c -0.70285,-0.846888 0.32947,-2.147827 1.24623,-1.570498 0.58783,0.370189 0.7315,1.074887 0.32018,1.570498 -0.40868,0.492427 -1.15773,0.492427 -1.56641,0 z m 1.04779,-0.674169 c 0,-0.145521 -0.11906,-0.264583 -0.26459,-0.264583 -0.14552,0 -0.26458,0.119062 -0.26458,0.264583 0,0.145521 0.11906,0.264583 0.26458,0.264583 0.14553,0 0.26459,-0.119062 0.26459,-0.264583 z m 17.4625,47.081082 v -1.602254 l -0.59531,0.677229 -0.59532,0.677228 -1.78593,-0.542683 -1.78594,-0.542684 v -1.410311 c 0,-1.891067 -0.39808,-2.216884 -1.82138,-1.490768 -0.58738,0.299657 -1.23266,0.54483 -1.43396,0.54483 -0.37056,0 -2.5655,-2.421506 -2.5655,-2.83032 0,-0.122013 0.29766,-0.659883 0.66146,-1.195266 0.36381,-0.535382 0.66146,-1.16128 0.66146,-1.390884 0,-0.483753 -1.02059,-0.93353 -2.11827,-0.93353 -0.41851,0 -0.82287,-0.100246 -0.89859,-0.22277 -0.2255,-0.364864 -0.63536,-3.308902 -0.50716,-3.642975 0.0652,-0.169777 0.63401,-0.505581 1.26414,-0.746231 1.59273,-0.608268 1.70087,-1.259863 0.38464,-2.317619 -0.56935,-0.457537 -1.03518,-0.975738 -1.03518,-1.151557 0,-0.175819 0.30271,-1.004137 0.67268,-1.840707 l 0.67267,-1.521037 1.55505,0.175933 c 1.40669,0.159149 1.57112,0.125291 1.72352,-0.354881 0.0927,-0.291949 0.0433,-0.981389 -0.10958,-1.53209 -0.15293,-0.550701 -0.27871,-1.13989 -0.27953,-1.30931 -0.002,-0.381456 2.48792,-1.940923 3.09876,-1.940923 0.24555,0 0.82715,0.368993 1.29246,0.819985 1.1696,1.133619 1.81063,0.89436 2.22435,-0.830218 0.24058,-1.002849 0.43357,-1.312684 0.81768,-1.312684 0.48262,0 0.50278,-0.312949 0.50278,-7.805209 v -7.805208 h -3.175 -3.175 v 1.322917 1.322916 H 53.02975 41.65267 v -1.322916 -1.322917 h -3.70416 -3.70417 v 22.489584 22.489584 h 18.25625 18.25625 z m -35.65987,-5.078475 0.0734,-3.770313 3.74381,-0.07325 c 2.90774,-0.05689 3.81605,-0.160292 4.06729,-0.463021 0.61257,-0.738096 1.84619,-0.291885 1.84619,0.667782 0,0.232404 -0.47625,0.887599 -1.05833,1.455988 L 42.711,73.260737 v 2.459845 2.459845 h -3.84373 -3.84372 z m 7.08487,0.659626 v -2.58152 l 0.9533,-0.874905 c 0.52431,-0.481198 0.88223,-0.945971 0.79537,-1.03283 -0.0869,-0.08686 -0.37639,0.03978 -0.6434,0.281424 -0.40067,0.362601 -1.09425,0.43935 -3.97038,0.43935 h -3.48489 v 3.175001 3.175 h 3.175 3.175 z m -5.82083,-0.59348 v -2.645834 h 2.51354 c 2.24603,0 2.51354,0.05079 2.51354,0.477264 0,0.552666 -1.57109,2.16857 -2.10843,2.16857 -0.1999,0 -0.58191,-0.197708 -0.84892,-0.439351 -0.83338,-0.754197 -0.89433,-0.115216 -0.0679,0.711267 l 0.78412,0.784122 0.71212,-0.660311 c 1.16361,-1.078965 1.52896,-0.889025 1.52896,0.794898 v 1.455208 H 38.8745 36.36096 Z m 2.38125,1.771694 c 0,-0.04421 -0.41672,-0.484289 -0.92605,-0.977944 l -0.92604,-0.897555 v 0.977944 c 0,0.941261 0.0347,0.977944 0.92604,0.977944 0.50933,0 0.92605,-0.03618 0.92605,-0.08039 z m 2.11666,-0.448778 c 0,-0.291041 -0.0411,-0.529166 -0.0913,-0.529166 -0.0502,0 -0.30679,0.238125 -0.57018,0.529166 -0.46481,0.513613 -0.46213,0.529167 0.0913,0.529167 0.39378,0 0.57017,-0.163703 0.57017,-0.529167 z m -0.92604,-2.645833 c 0.47433,-0.52413 0.46213,-0.529167 -1.28191,-0.529167 -1.50852,0 -1.75781,0.06634 -1.73991,0.463021 0.0125,0.276605 0.0746,0.329867 0.15434,0.132292 0.18486,-0.45814 1.27751,-0.41504 1.67686,0.06614 0.43304,0.521788 0.61721,0.501326 1.19062,-0.132291 z m 6.32288,2.009115 c -0.0809,-0.210722 -0.10784,-0.659681 -0.06,-0.997686 l 0.0871,-0.614554 5.5064,-0.07156 5.5064,-0.07156 -0.0824,0.997605 -0.0824,0.997605 -5.36401,0.07164 c -4.48506,0.0599 -5.3881,0.0089 -5.51103,-0.311487 z m 10.47816,-0.686198 c 0,-0.167106 -1.85208,-0.264584 -5.02708,-0.264584 -3.175,0 -5.02708,0.09748 -5.02708,0.264584 0,0.167105 1.85208,0.264583 5.02708,0.264583 3.175,0 5.02708,-0.09748 5.02708,-0.264583 z M 35.03809,65.083553 v -3.836459 h 3.62097 c 3.37473,0 3.66342,-0.03988 4.24522,-0.586458 0.66462,-0.624378 1.19841,-0.503724 1.76827,0.399684 0.22293,0.353415 0.0582,0.662335 -0.84222,1.579833 l -1.11932,1.140513 v 2.569673 2.569672 h -3.83646 -3.83646 z m 7.14375,0.606468 v -2.43624 l 0.95002,-0.972909 c 0.52251,-0.5351 0.83366,-1.044825 0.69144,-1.132722 -0.14222,-0.0879 -0.40572,0.01747 -0.58555,0.234149 -0.25973,0.312967 -1.05464,0.393962 -3.86643,0.393962 h -3.53948 v 3.175 3.175 h 3.175 3.175 z m -5.82083,-0.606468 v -2.513542 h 2.51354 c 2.90425,0 3.05083,0.16171 1.5102,1.666095 -1.15204,1.12493 -1.38228,1.176647 -2.03372,0.456811 -0.26029,-0.28761 -0.57411,-0.460587 -0.6974,-0.384394 -0.12328,0.07619 0.16052,0.543506 0.63067,1.038472 l 0.85483,0.899937 0.80635,-0.780127 c 1.17897,-1.140634 1.44261,-1.01726 1.44261,0.675081 v 1.455209 h -2.51354 -2.51354 z m 2.62086,1.918229 c -0.0622,-0.03638 -0.55833,-0.476455 -1.10243,-0.977944 L 36.89017,65.11204 v 0.977944 c 0,0.971065 0.008,0.977944 1.10243,0.977944 0.60634,0 1.05151,-0.02977 0.98927,-0.06615 z m 1.87705,-0.595312 c 0,-0.363803 -0.0388,-0.661459 -0.0862,-0.661459 -0.0474,0 -0.3658,0.297656 -0.70758,0.661459 l -0.62141,0.661458 h 0.70758 c 0.57837,0 0.70758,-0.120795 0.70758,-0.661458 z M 39.80059,63.760636 40.422,63.099178 h -1.76592 c -1.39772,0 -1.76591,0.08322 -1.76591,0.399117 0,0.33213 0.0883,0.343964 0.52618,0.07051 0.44812,-0.279852 0.61386,-0.24093 1.11713,0.262341 0.32503,0.325021 0.60327,0.590947 0.61833,0.590947 0.015,0 0.307,-0.297656 0.64878,-0.661457 z m 6.35,1.322917 v -0.926042 h 4.23333 4.23333 v 0.926042 0.926042 h -4.23333 -4.23333 z m 7.9375,-0.132292 c 0,-0.16379 -1.41111,-0.264583 -3.70417,-0.264583 -2.29305,0 -3.70416,0.100793 -3.70416,0.264583 0,0.16379 1.41111,0.264584 3.70416,0.264584 2.29306,0 3.70417,-0.100794 3.70417,-0.264584 z m -18.99112,-9.326563 0.0734,-3.770312 3.74381,-0.07325 c 2.90774,-0.05689 3.81605,-0.160293 4.06729,-0.463021 0.61257,-0.738097 1.84619,-0.291886 1.84619,0.667781 0,0.232405 -0.47625,0.8876 -1.05833,1.455989 L 42.711,54.47532 v 2.459845 2.459845 h -3.84373 -3.84372 z m 7.08487,0.672614 V 53.72878 l 0.97974,-1.003343 c 0.53885,-0.551839 0.85109,-1.003343 0.69385,-1.003343 -0.15723,0 -0.4341,0.178594 -0.61526,0.396875 -0.26274,0.316585 -1.04543,0.396875 -3.86885,0.396875 h -3.53948 v 3.175 3.175 h 3.175 3.175 z m -5.63493,1.872496 c -0.10225,-0.10225 -0.1859,-1.297158 -0.1859,-2.655353 v -2.469444 h 2.51354 c 2.24603,0 2.51354,0.05079 2.51354,0.477264 0,0.552665 -1.57109,2.168569 -2.10843,2.168569 -0.1999,0 -0.58191,-0.197707 -0.84892,-0.43935 -0.81368,-0.736369 -0.89178,-0.137787 -0.0911,0.697974 l 0.74946,0.782271 0.8941,-0.785031 c 0.49176,-0.431767 1.01497,-0.78503 1.16269,-0.78503 0.15977,0 0.23643,0.616299 0.18923,1.521354 l -0.0793,1.521354 -2.26149,0.07567 c -1.24382,0.04162 -2.34515,-0.008 -2.4474,-0.110243 z m 2.19535,-0.70727 c 0,-0.04421 -0.41672,-0.484289 -0.92605,-0.977944 l -0.92604,-0.897555 v 0.977944 c 0,0.941262 0.0347,0.977945 0.92604,0.977945 0.50933,0 0.92605,-0.03618 0.92605,-0.08039 z m 2.11666,-0.448777 c 0,-0.291042 -0.0411,-0.529167 -0.0913,-0.529167 -0.0502,0 -0.30679,0.238125 -0.57018,0.529167 -0.46481,0.513613 -0.46213,0.529167 0.0913,0.529167 0.39378,0 0.57017,-0.163703 0.57017,-0.529167 z m -0.78113,-2.791553 0.63402,-0.674886 -1.82359,0.07957 c -1.22277,0.05336 -1.86181,0.195199 -1.9396,0.430523 -0.096,0.290375 -0.0202,0.291128 0.43895,0.0044 0.48451,-0.302583 0.62999,-0.27156 1.14591,0.244363 0.73879,0.738785 0.77315,0.736917 1.54431,-0.08394 z m 6.0728,0.807178 v -0.926042 h 6.48229 6.48229 v 0.926042 0.926042 H 52.63288 46.15059 Z M 58.586,54.887255 c 0,-0.155722 -2.31404,-0.254744 -5.95312,-0.254744 -5.23569,0 -6.2929,0.09973 -5.84336,0.551215 0.2382,0.239228 11.79648,-0.05126 11.79648,-0.296471 z m -23.37152,-4.92905 c -0.097,-0.09701 -0.17639,-1.82342 -0.17639,-3.836458 v -3.66007 h 3.66316 c 3.32714,0 3.70709,-0.04854 4.14205,-0.529167 0.64918,-0.717335 1.29289,-0.665368 1.72345,0.139136 0.33641,0.628581 0.29189,0.735324 -0.74904,1.795952 l -1.1067,1.127651 v 2.569672 2.569673 h -3.66007 c -2.01304,0 -3.73945,-0.07937 -3.83646,-0.176389 z m 6.96736,-3.053601 v -2.436241 l 0.95002,-0.972909 c 0.52251,-0.535099 0.83366,-1.044824 0.69144,-1.132721 -0.14222,-0.0879 -0.40572,0.01747 -0.58555,0.234149 -0.25973,0.312967 -1.05464,0.393962 -3.86643,0.393962 h -3.53948 v 3.175 3.175 h 3.175 3.175 z m -5.82083,-0.578161 c 0,-2.897979 -0.0916,-2.806433 2.80806,-2.806433 2.48044,0 2.7357,0.374604 1.27475,1.870749 -0.55836,0.571818 -1.1322,1.039668 -1.27519,1.039668 -0.14299,0 -0.53554,-0.258879 -0.87234,-0.575287 -0.3368,-0.316408 -0.61237,-0.457746 -0.61237,-0.314085 0,0.143662 0.35719,0.60341 0.79375,1.021664 l 0.79375,0.760461 0.74208,-0.71096 c 1.11268,-1.066016 1.37459,-0.924212 1.37459,0.744249 v 1.455208 h -2.51354 -2.51354 z m 4.49791,1.248489 v -0.707579 l -0.61236,0.575287 c -0.87023,0.817533 -1.59126,0.715157 -2.53523,-0.359961 l -0.82116,-0.935248 v 0.891151 c 0,0.490133 0.0794,0.970526 0.17639,1.06754 0.097,0.09701 0.98998,0.176389 1.98438,0.176389 1.78355,0 1.80798,-0.0096 1.80798,-0.707579 z M 39.80059,44.975219 40.422,44.31376 h -1.76592 c -1.39772,0 -1.76591,0.08322 -1.76591,0.399118 0,0.33213 0.0883,0.343964 0.52618,0.07051 0.44812,-0.279852 0.61386,-0.240929 1.11713,0.262342 0.32503,0.325021 0.60327,0.590947 0.61833,0.590947 0.015,0 0.307,-0.297656 0.64878,-0.661458 z m 6.35,0.79375 V 44.842927 H 56.9985 67.84642 v 0.926042 0.926042 H 56.9985 46.15059 Z m 21.16666,0.132292 c 0,-0.171867 -3.61597,-0.264584 -10.31875,-0.264584 -6.70277,0 -10.31874,0.09272 -10.31874,0.264584 0,0.171866 3.61597,0.264583 10.31874,0.264583 6.70278,0 10.31875,-0.09272 10.31875,-0.264583 z" id="path35" /><path style="fill:#ffcc00;stroke:none;stroke-opacity:1" d="m 50.50355,53.833638 c 0.26698,-0.169405 0.13039,-1.017162 -0.63876,-3.964699 -0.53809,-2.06207 -1.10763,-3.747395 -1.26564,-3.745167 -1.09845,0.01549 -1.06707,0.343852 0.66348,6.94126 0.2578,0.982817 0.58446,1.185143 1.24092,0.768606 z" id="path367" /><path style="fill:#ffa500;stroke:none;stroke-opacity:1;fill-opacity:1" d="M 48.7377,53.858778 C 48.59689,53.313075 48.1018,51.412 47.63751,49.634165 c -0.46428,-1.777834 -0.77867,-3.403077 -0.69863,-3.611651 0.13209,-0.344221 2.19308,-0.890696 2.43747,-0.646301 0.13619,0.13619 2.2398,8.196817 2.24149,8.588974 10e-4,0.326372 -1.35301,0.885779 -2.14463,0.885779 -0.33217,0 -0.55815,-0.30484 -0.73551,-0.992188 z" id="path366" /><path style="fill:#ffcc00;stroke:none;stroke-opacity:1" d="m 45.73051,57.242495 c 0.36409,-0.583003 0.58814,-0.375908 -3.85823,-3.566151 -2.30852,-1.656344 -2.4942,-1.741176 -2.82646,-1.291282 -0.22907,0.310174 -0.26496,0.575682 -0.10085,0.746112 0.32876,0.341422 6.14885,4.581596 6.32669,4.609249 0.0741,0.01153 0.28062,-0.21254 0.45885,-0.497928 z" id="path365" /><path style="fill:#ffa500;stroke:none;stroke-opacity:1;fill-opacity:1" d="m 41.54378,56.029679 c -1.95286,-1.389 -3.58902,-2.697999 -3.63591,-2.908887 -0.10661,-0.479475 0.93342,-1.973993 1.37369,-1.973993 0.49087,0 7.42977,5.021611 7.52806,5.447977 0.10874,0.471698 -0.94015,1.960356 -1.38125,1.960356 -0.18366,0 -1.93172,-1.136454 -3.88459,-2.525453 z" id="path364" /><path style="fill:#ffcc00;stroke:none;stroke-opacity:1" d="m 40.06184,64.758317 c 4.51512,-1.133032 4.67829,-1.185988 4.6741,-1.517029 -0.0129,-1.017344 -0.37945,-1.025864 -4.07464,-0.0947 -1.99823,0.503538 -3.69479,0.977169 -3.77013,1.052513 -0.15694,0.156934 0.14356,1.235202 0.34423,1.235202 0.073,0 1.34486,-0.304192 2.82644,-0.675982 z" id="path363" /><path style="fill:#ffa500;stroke:none;stroke-opacity:1;fill-opacity:1" d="m 36.29921,65.394817 c -0.49801,-1.428585 -0.38204,-1.768044 0.70172,-2.054004 4.84799,-1.279188 7.80488,-1.913154 7.99254,-1.71362 0.12168,0.129377 0.30228,0.734162 0.40135,1.343966 l 0.18012,1.108735 -1.01279,0.266191 c -2.86223,0.752285 -7.49527,1.881964 -7.7183,1.881964 -0.13979,0 -0.38488,-0.374955 -0.54464,-0.833232 z" id="path362" /><path style="fill:#ffcc00;stroke:none;stroke-opacity:1" d="m 84.30472,77.538987 c 0.10487,-0.42358 0.0711,-0.72761 -0.0807,-0.72761 -0.45525,0 -0.77733,0.62503 -0.95439,1.85209 l -0.1718,1.19062 0.51339,-0.79375 c 0.28236,-0.43656 0.59445,-1.12117 0.69353,-1.52135 z" id="path357" /><path style="fill:#ffcc00;stroke:none;stroke-opacity:1" d="m 82.42095,79.762417 c 0.26328,-2.67188 0.48656,-3.30683 1.22971,-3.49688 0.87111,-0.22277 1.57134,0.17307 1.56708,0.88588 -0.005,0.87232 -2.0548,4.42246 -2.55321,4.42246 -0.36266,0 -0.39695,-0.25499 -0.24358,-1.81146 z" id="path356" /><path style="fill:#ffcc00;stroke:none;stroke-opacity:1" d="m 94.48166,86.071797 v -0.79375 h -3.43958 -3.43959 v 0.79375 0.79375 h 3.43959 3.43958 z" id="path355" /><path style="fill:#ffa500;stroke:none;stroke-opacity:1;fill-opacity:1" d="m 87.07333,86.071797 v -1.32292 h 3.96875 3.96875 v 1.32292 1.32291 h -3.96875 -3.96875 z" id="path354" /><path style="fill:#ffa500;stroke:none;stroke-opacity:1;fill-opacity:1" d="m 50.15952,93.020594 c 0.2853,-1.90253 0.77772,-2.64845 1.98769,-3.01097 1.00316,-0.30056 1.12785,-0.26975 2.57815,0.63705 l 1.52401,0.95287 0.8883,-0.87846 c 1.14424,-1.13157 0.98674,-1.66621 -0.93525,-3.174707 l -1.45793,-1.14428 -1.05437,1.14385 c -1.40169,1.520647 -2.84837,2.055967 -5.1975,1.923227 -2.33988,-0.13221 -4.03843,-1.106597 -5.19774,-2.981727 -0.65587,-1.06086 -0.81512,-1.63637 -0.89601,-3.2381 -0.0858,-1.69954 -0.007,-2.13547 0.6211,-3.41847 0.76655,-1.56678 2.12432,-2.76261 3.74342,-3.29696 0.64413,-0.21258 0.87781,-0.42324 0.77287,-0.69672 -0.0827,-0.21561 -0.15043,-0.58162 -0.15043,-0.81337 0,-0.34194 -0.1146,-0.3137 -0.60803,0.14986 -1.06469,1.00022 -1.9915,0.98688 -3.62531,-0.0522 l -1.4552,-0.92548 -0.72427,0.69253 -0.72427,0.69252 0.54333,0.81359 c 1.93851,2.90278 1.40205,4.6 -1.65347,5.2311 l -1.54237,0.31857 v 0.98214 c 0,0.95003 0.0368,0.9882 1.12448,1.16729 1.96913,0.32423 2.75802,0.78269 3.09292,1.79745 0.33212,1.00632 0.0871,1.84754 -1.02156,3.507717 l -0.54333,0.81359 0.73855,0.70757 0.73855,0.70758 1.04405,-0.76019 c 1.386,-1.00915 2.06364,-1.18901 3.14067,-0.83355 1.00123,0.33043 1.569,1.27736 1.86801,3.11547 0.17788,1.09346 0.21065,1.12448 1.18796,1.12448 0.99576,0 1.00677,-0.0116 1.19298,-1.25329 z" id="path353" /><path style="fill:#ffcc00;stroke:none;stroke-opacity:1" d="m 91.91894,95.229454 c -4.98554,-4.19371 -4.91655,-4.14704 -5.30655,-3.59023 -0.41058,0.58618 -0.73261,0.23415 3.22001,3.51999 2.01237,1.67289 2.11252,1.72249 2.46436,1.22016 0.32948,-0.47039 0.29109,-0.58724 -0.37782,-1.14992 z" id="path351" /><path style="fill:#ffa500;stroke:none;stroke-opacity:1;fill-opacity:1" d="m 88.65245,95.196054 c -1.66888,-1.38457 -3.0727,-2.69357 -3.11958,-2.90888 -0.1006,-0.46196 0.92074,-1.98204 1.33173,-1.98204 0.49192,0 6.55873,5.06895 6.55873,5.47995 0,0.5373 -1.02108,1.928376 -1.41546,1.928376 -0.1766,0 -1.68654,-1.132826 -3.35542,-2.517406 z" id="path350" /><path style="fill:#ffcc00;stroke:none;stroke-opacity:1" d="m 67.87276,89.048354 c -0.52447,-2.981307 -2.34135,-5.141137 -5.77582,-6.866027 -5.18099,-2.60205 -7.82523,-6.69645 -7.82594,-12.11782 -4.7e-4,-3.616834 1.3582,-6.754562 4.02714,-9.300298 1.21695,-1.160775 1.53059,-1.608893 1.33884,-1.912883 -0.46919,-0.743821 -0.81863,-0.586822 -2.55209,1.146639 -2.02228,2.022279 -3.4185,4.606479 -4.00936,7.420709 -0.48731,2.321063 -0.48731,3.235183 0,5.556243 0.96884,4.61455 3.78331,8.16119 8.20724,10.3423 1.52599,0.75235 2.84176,1.61053 3.3409,2.17902 0.99727,1.13583 1.79846,2.82868 1.80635,3.816697 0.005,0.6332 0.11036,0.72761 0.81155,0.72761 0.78571,0 0.8014,-0.0247 0.63119,-0.99219 z" id="path349" /><path style="fill:#ffcc00;stroke:none;stroke-opacity:1" d="m 65.64093,89.108954 c -0.45762,-2.204357 -1.57214,-3.477507 -4.22648,-4.828087 -1.22087,-0.6212 -2.86042,-1.61316 -3.64344,-2.20434 -1.89151,-1.42811 -3.8546,-4.14688 -4.75692,-6.58808 -0.66537,-1.80012 -0.73248,-2.30375 -0.7228,-5.42396 0.01,-3.102979 0.0809,-3.617651 0.72844,-5.259229 1.27918,-3.242944 4.77778,-7.308474 6.28931,-7.308474 0.46296,0 1.30595,1.185949 1.30595,1.837243 0,0.151811 -0.82918,1.09053 -1.84262,2.08604 -2.1418,2.103912 -3.24991,4.175412 -3.71797,6.950403 -0.8877,5.262857 2.1598,10.730477 7.30617,13.108247 3.64264,1.683 5.83927,4.39136 6.12597,7.553067 l 0.13945,1.53791 h -1.34091 -1.3409 z" id="path348" /><path style="fill:#ffcc00;stroke:none;stroke-opacity:1" d="m 68.02333,94.009284 c 0,-1.29352 -0.0176,-1.32292 -0.79375,-1.32292 -0.77611,0 -0.79375,0.0294 -0.79375,1.32292 0,1.29351 0.0176,1.32291 0.79375,1.32291 0.77611,0 0.79375,-0.0294 0.79375,-1.32291 z" id="path347" /><path style="fill:#ffcc00;stroke:none;stroke-opacity:1" d="m 65.90666,94.009284 v -1.85209 h 1.32292 1.32291 v 1.85209 1.85208 h -1.32291 -1.32292 z" id="path346" /><path style="fill:#ffcc00;stroke:none;stroke-opacity:1" d="m 72.52124,98.04376 c 1.46843,-0.733556 1.85119,-1.817526 1.85167,-5.243806 3.8e-4,-2.67033 0.0647,-3.05604 0.72802,-4.365627 0.54657,-1.07909 1.17081,-1.76566 2.50891,-2.75942 0.97972,-0.72761 2.14951,-1.69133 2.59953,-2.1416 l 0.81823,-0.81869 -2.46724,-0.33882 c -5.13799,-0.70559 -4.95597,-0.54326 -4.51614,-4.02784 0.43414,-3.43946 0.2375,-3.57983 -2.32705,-1.66116 -2.67257,1.99948 -3.05673,1.94886 -5.07829,-0.66918 -2.62989,-3.40586 -2.9243,-3.89685 -2.75092,-4.58763 0.0948,-0.37784 0.96312,-1.23942 2.14729,-2.1307 1.09344,-0.82299 1.98808,-1.597994 1.98808,-1.722235 0,-0.481605 -0.74483,-0.751242 -2.88194,-1.043294 -1.22126,-0.166895 -2.38212,-0.437599 -2.57968,-0.601565 -0.19757,-0.163966 -0.35922,-0.756187 -0.35922,-1.316046 0,-1.844439 0.82839,-6.714943 1.2088,-7.107105 0.31929,-0.329154 0.74329,-0.337859 2.94035,-0.06036 3.58967,0.453384 3.74126,0.254593 1.78969,-2.346958 -1.21699,-1.622311 -1.46106,-2.12156 -1.38105,-2.824985 l 0.0972,-0.854425 -1.07071,0.146713 c -3.77897,0.517809 -5.93752,1.247841 -8.4592,2.86094 -4.64367,2.970517 -7.58441,7.450194 -8.51789,12.975428 -1.16459,6.893122 1.78985,13.720912 7.84185,18.122772 1.01192,0.73601 2.16885,1.83507 2.57094,2.44236 0.68609,1.036197 0.73923,1.325957 0.86338,4.708187 0.20525,5.591866 0.46389,5.802496 7.14375,5.817706 3.64051,0.008 4.51943,-0.0669 5.29166,-0.45266 z" id="path345" /><path style="fill:#ffcc00;stroke:none;stroke-opacity:1" d="m 60.67725,98.13146 -0.9883,-0.904936 -0.14544,-3.65912 c -0.18201,-4.57903 -0.50231,-5.314897 -3.15233,-7.242357 -5.44408,-3.95969 -8.47619,-9.65001 -8.47619,-15.90716 0,-3.412622 0.5564,-5.851208 2.04068,-8.943893 1.02832,-2.14263 1.55273,-2.855562 3.62412,-4.926956 2.06483,-2.064826 2.79112,-2.600007 4.92696,-3.630505 2.6751,-1.290682 5.61775,-2.034292 8.05021,-2.034292 1.55674,0 1.79838,0.252915 1.04112,1.089685 -0.39595,0.437516 -0.32303,0.609868 1.05833,2.501383 1.61022,2.204901 1.81643,3.05781 0.88658,3.66707 -0.51462,0.33719 -0.91489,0.34417 -2.90062,0.05058 -1.26699,-0.187328 -2.4429,-0.254512 -2.61314,-0.149298 -0.17024,0.105214 -0.5258,1.722309 -0.79014,3.593545 -0.55509,3.929455 -0.57216,3.887083 1.68021,4.171781 2.67333,0.337906 3.13174,0.482012 3.54637,1.114818 0.37331,0.569734 0.37329,0.688668 -1.4e-4,1.258608 -0.22683,0.346184 -1.19302,1.202574 -2.1471,1.903114 -0.95408,0.70053 -1.73469,1.41089 -1.73469,1.57858 0,0.34777 4.1557,5.94305 4.414,5.94305 0.093,0 1.03914,-0.65484 2.10252,-1.45521 2.12354,-1.5983 3.03221,-1.81287 3.64146,-0.85989 0.32367,0.50627 0.33046,0.9317 0.0454,2.84427 -0.18436,1.23692 -0.28341,2.39051 -0.2201,2.56352 0.13218,0.36121 0.44999,0.43436 4.50267,1.03644 1.90726,0.28334 2.97656,0.55712 2.97656,0.76209 0,0.4186 -2.69971,2.97217 -4.29327,4.06087 -0.69536,0.47507 -1.56926,1.3982 -1.96842,2.07931 -0.6602,1.126527 -0.72977,1.520727 -0.86611,4.907247 l -0.14824,3.68232 -0.9883,0.905136 -0.9883,0.90514 h -5.56402 -5.56402 z" id="path344" /><path style="fill:#ffcc00;stroke:none;stroke-opacity:1" d="m 82.83999,97.184324 v -3.43959 h -0.79375 -0.79375 v 3.43959 3.439576 h 0.79375 0.79375 z" id="path343" /><path style="fill:#ffa500;stroke:none;stroke-opacity:1;fill-opacity:1" d="m 80.72333,97.184324 v -3.96875 h 1.32291 1.32292 v 3.96875 3.968736 h -1.32292 -1.32291 z" id="path342" /><path style="fill:#ffcc00;stroke:none;stroke-opacity:1" d="m 71.19833,100.88848 v -0.79375 h -3.96875 -3.96875 v 0.79375 0.79375 h 3.96875 3.96875 z" id="path341" /><path style="fill:#ffa500;stroke:none;stroke-opacity:1;fill-opacity:1" d="m 62.73166,100.88848 v -1.32292 h 4.49792 4.49791 v 1.32292 1.32292 h -4.49791 -4.49792 z" id="path340" /><path style="fill:#ffcc00;stroke:none;stroke-opacity:1" d="m 69.96608,106.68014 c 0.64177,-0.29241 1.23225,-1.23528 1.23225,-1.96765 0,-0.31909 -0.67449,-0.38443 -3.96875,-0.38443 -3.29427,0 -3.96875,0.0653 -3.96875,0.38443 0,0.69439 0.57902,1.67323 1.15466,1.95195 0.76411,0.36999 4.74827,0.38126 5.55059,0.0157 z" id="path339" /><path style="fill:#ffa500;stroke:none;stroke-opacity:1;fill-opacity:1" d="m 63.38109,106.85363 c -0.49902,-0.49902 -0.64943,-0.92797 -0.64943,-1.85208 v -1.20265 h 4.49792 4.49791 v 1.20265 c 0,0.92411 -0.15041,1.35306 -0.64943,1.85208 -0.6179,0.61791 -0.80474,0.64943 -3.84848,0.64943 -3.04375,0 -3.23058,-0.0315 -3.84849,-0.64943 z" id="path62" /><path d="m 86.142546,74.784066 c -1.177643,0.486434 -2.032159,1.674814 -2.253093,3.303674 -0.09231,0.680558 -0.225289,1.445495 -0.295589,1.700155 -0.07033,0.254658 -0.2687,0.449115 -0.4408,0.432015 -0.810388,-0.0806 -2.889113,-0.472723 -2.978113,-0.561723 -0.05494,-0.05494 0.01686,-0.825252 0.15968,-1.71204 0.48625,-3.019334 -0.808643,-4.838981 -3.443717,-4.838981 -1.029908,0 -1.498423,0.184367 -2.756421,1.085205 -0.833518,0.596868 -1.544032,1.043387 -1.579232,0.992187 -0.03523,-0.05117 -0.454421,-0.599127 -0.931209,-1.217497 -0.47679,-0.618378 -0.827264,-1.230363 -0.778764,-1.360123 0.04854,-0.12976 0.708569,-0.723735 1.466577,-1.320333 1.957226,-1.540438 2.381519,-3.425297 1.186491,-5.27048 -0.550108,-0.849401 -1.606272,-1.335843 -3.342948,-1.539957 -0.816988,-0.09602 -1.538088,-0.260085 -1.602486,-0.364319 -0.11133,-0.180135 0.298792,-3.171259 0.454752,-3.316593 0.04077,-0.038 0.788269,0.04556 1.661397,0.186035 2.082956,0.33513 3.331964,-0.03029 4.259172,-1.245919 0.605528,-0.793884 0.68518,-1.110312 0.58446,-2.324923 -0.09195,-1.108759 -0.322848,-1.676486 -1.091406,-2.68304 -1.025123,-1.342562 -1.052293,-1.485476 0.385506,-2.493905 -2.156982,-0.872972 -4.506928,-1.358056 -6.9696,-1.358056 -10.42486,0 -18.87585,8.600264 -18.87585,19.209163 0,6.189914 2.876859,11.695884 7.344254,15.208891 3.189287,2.507957 7.18926,4.000272 11.531596,4.000272 4.126786,0 7.944131,-1.347915 11.050488,-3.634403 3.541417,-2.606732 6.157294,-6.434086 7.254855,-10.875305 z" style="fill:#ffa500;fill-rule:evenodd;stroke-width:0.424081;stroke-linecap:round;fill-opacity:1" id="path376" /><path id="rect339" style="fill:#ffa500;fill-rule:evenodd;stroke-width:0.406806;stroke-linecap:round;fill-opacity:1" d="m 71.11886,88.351873 c 0.24621,-0.0014 5.88407,-3.082584 6.74777,-2.994817 0.31297,0.0318 -2.8998,3.630311 -2.90771,3.719177 l -0.61836,6.947032 c -0.0297,0.334093 -0.89728,1.792935 -1.20003,1.937345 l -1.13304,0.54042 c -2.77445,0.44857 -4.97404,0.30554 -7.22526,0.18284 -0.84356,-0.0459 -1.63304,-0.21176 -2.55163,-0.16473 l -1.1615,-0.70393 c -0.28685,-0.17383 -0.80166,-1.550474 -0.84089,-1.88358 l -0.89697,-7.782488 -2.6567,-2.635038 2.44737,1.023713" sodipodi:nodetypes="csssscscssccc" /><g id="g379"><path d="m 86.142546,74.784066 c 0.371703,-1.504078 0.570507,-3.077997 0.570507,-4.699455 0,-0.07209 -0.0044,-0.14307 -0.0052,-0.214974 a 5.8932929,5.8932929 0 0 1 -2.739885,0.703833 5.8932929,5.8932929 0 0 1 -5.89318,-5.89318 5.8932929,5.8932929 0 0 1 5.098397,-5.788277 c -2.090934,-2.961783 -4.988039,-5.291215 -8.366415,-6.658509 -1.437799,1.008429 -1.410629,1.151343 -0.385506,2.493905 0.768558,1.006554 0.999458,1.574281 1.091406,2.68304 0.10072,1.214611 0.02107,1.531039 -0.58446,2.324923 -0.927208,1.215629 -2.176216,1.581049 -4.259172,1.245919 -0.873128,-0.140479 -1.620627,-0.224036 -1.661397,-0.186035 -0.15596,0.145334 -0.566082,3.136458 -0.454752,3.316593 0.0644,0.104234 0.785498,0.268298 1.602486,0.364319 1.736676,0.204114 2.79284,0.690556 3.342948,1.539957 1.195028,1.845183 0.770735,3.730042 -1.186491,5.27048 -0.758008,0.596598 -1.418037,1.190573 -1.466577,1.320333 -0.0485,0.12976 0.301974,0.741745 0.778764,1.360123 0.476788,0.61837 0.895979,1.166327 0.931209,1.217497 0.0352,0.0512 0.745714,-0.395319 1.579232,-0.992187 1.257998,-0.900838 1.726513,-1.085205 2.756421,-1.085205 2.635074,0 3.929967,1.819647 3.443717,4.838981 -0.14282,0.886788 -0.21462,1.6571 -0.15968,1.71204 0.089,0.089 2.167725,0.481123 2.978113,0.561723 0.1721,0.0171 0.37047,-0.177357 0.4408,-0.432015 0.0703,-0.25466 0.203279,-1.019597 0.295589,-1.700155 0.220934,-1.62886 1.07545,-2.81724 2.253093,-3.303674 z" style="fill:#ffcc00;stroke:#000000" id="path377" /><path d="m 84.762268,49.139636 c -0.106005,-3.1e-4 -0.177527,0.0073 -0.204122,0.02377 -0.10639,0.06575 -0.273347,0.825899 -0.371037,1.689303 -0.218258,1.929217 -1.013749,3.187907 -2.332157,3.689697 -1.865856,0.710152 -3.420265,-0.03254 -5.146973,-2.459281 L 76.150391,51.29971 75.06932,52.049018 c -0.09961,0.06903 -0.174219,0.122556 -0.262517,0.184485 3.378376,1.367294 6.275481,3.696726 8.366415,6.658509 a 5.8932929,5.8932929 0 0 1 0.794783,-0.104904 5.8932929,5.8932929 0 0 1 5.893181,5.893181 5.8932929,5.8932929 0 0 1 -3.153296,5.189347 c 7.78e-4,0.0719 0.0052,0.142882 0.0052,0.214974 0,1.621458 -0.198804,3.195377 -0.570507,4.699455 0.549906,-0.227143 1.169506,-0.30242 1.829345,-0.195854 1.219048,0.19689 1.901766,0.687648 2.910934,2.092896 0.469498,0.653758 0.947951,1.188558 1.063501,1.188558 0.11555,0 0.76321,-0.422296 1.439188,-0.938444 l 1.229383,-0.938444 -1.093474,-1.550293 c -1.031628,-1.462838 -1.08693,-1.634466 -0.971,-3.032374 0.21297,-2.568151 1.74079,-3.563887 4.729944,-3.082499 0.917488,0.147757 1.699362,0.237473 1.737362,0.199471 0.263148,-0.263148 0.525216,-3.250626 0.297656,-3.393074 -0.14755,-0.09236 -0.965649,-0.246702 -1.817977,-0.343132 -1.877486,-0.212413 -2.997309,-1.040603 -3.449919,-2.551265 -0.498388,-1.663478 0.01237,-2.898334 1.764751,-4.266923 0.796078,-0.621747 1.447456,-1.204363 1.447456,-1.294495 0,-0.09013 -0.423449,-0.718438 -0.941027,-1.396297 l -0.941028,-1.232483 -1.483114,1.062468 c -1.280868,0.917211 -1.673349,1.06195 -2.875277,1.06195 -2.888534,0 -4.129861,-2.433813 -3.121773,-6.12159 0.0949,-0.347308 -0.205246,-0.490424 -1.513602,-0.720886 -0.673275,-0.118596 -1.30359,-0.190788 -1.621607,-0.19172 z" style="fill:#ffcc00;stroke:#000000" id="path375" /></g><path id="path373-1" style="fill:#ffa500;stroke:#000000;stroke-opacity:1;fill-opacity:1" d="m 84.762264,49.139618 c -0.106,-3.1e-4 -0.17752,0.007 -0.20412,0.0238 -0.10639,0.0658 -0.27334,0.8259 -0.37103,1.68931 -0.21826,1.92921 -1.01375,3.1879 -2.33216,3.68969 -1.86586,0.71015 -3.42027,-0.0325 -5.14697,-2.45928 l -0.55759,-0.78341 -1.08107,0.7493 c -1.72162,1.19308 -1.73611,1.25338 -0.64803,2.67839 0.76856,1.00656 0.99946,1.57428 1.09141,2.68304 0.10072,1.21462 0.0211,1.53104 -0.58446,2.32493 -0.92721,1.21563 -2.17621,1.58105 -4.25917,1.24592 -0.87313,-0.14048 -1.62063,-0.22404 -1.6614,-0.18604 -0.15596,0.14534 -0.56608,3.13646 -0.45475,3.31659 0.0644,0.10424 0.7855,0.2683 1.60249,0.36432 1.73667,0.20412 2.79283,0.69056 3.34294,1.53996 1.19503,1.84518 0.77074,3.73004 -1.18649,5.27048 -0.75801,0.5966 -1.41804,1.19057 -1.46658,1.32033 -0.0485,0.12976 0.30198,0.74175 0.77877,1.36013 0.47679,0.61837 0.89598,1.16632 0.93121,1.21749 0.0352,0.0512 0.74571,-0.39532 1.57923,-0.99218 1.258,-0.90084 1.72651,-1.08521 2.75642,-1.08521 2.63508,0 3.92997,1.81964 3.44372,4.83898 -0.14282,0.88679 -0.21462,1.6571 -0.15968,1.71204 0.089,0.089 2.16772,0.48112 2.97811,0.56172 0.1721,0.0171 0.37047,-0.17735 0.4408,-0.43201 0.0703,-0.25466 0.20328,-1.0196 0.29559,-1.70016 0.3241,-2.38946 2.00953,-3.8343 4.08244,-3.49952 1.21905,0.19689 1.90176,0.68764 2.91093,2.09289 0.4695,0.65376 0.94795,1.18856 1.0635,1.18856 0.11555,0 0.76321,-0.42229 1.43919,-0.93844 l 1.22938,-0.93845 -1.09347,-1.55029 c -1.03163,-1.46284 -1.08693,-1.63447 -0.971,-3.03237 0.21297,-2.56816 1.74079,-3.56389 4.72994,-3.0825 0.91749,0.14775 1.69937,0.23747 1.73737,0.19947 0.26314,-0.26315 0.52521,-3.25063 0.29765,-3.39308 -0.14755,-0.0924 -0.96565,-0.2467 -1.81798,-0.34313 -1.87748,-0.21241 -2.9973,-1.0406 -3.44991,-2.55126 -0.49839,-1.66348 0.0124,-2.89834 1.76475,-4.26693 0.79608,-0.62174 1.44745,-1.20436 1.44745,-1.29449 0,-0.0901 -0.42344,-0.71844 -0.94102,-1.3963 l -0.94103,-1.23248 -1.48312,1.06247 c -1.28086,0.91721 -1.67334,1.06195 -2.87527,1.06195 -2.88854,0 -4.12987,-2.43381 -3.12178,-6.12159 0.0949,-0.34731 -0.20524,-0.49043 -1.5136,-0.72089 -0.67327,-0.11859 -1.30359,-0.19079 -1.62161,-0.19172 z m -0.79426,9.64747 a 5.8932929,5.8932929 0 0 1 5.89318,5.89319 5.8932929,5.8932929 0 0 1 -5.89318,5.89318 5.8932929,5.8932929 0 0 1 -5.89318,-5.89318 5.8932929,5.8932929 0 0 1 5.89318,-5.89319 z" /><path style="opacity:1;fill:#ffa500;fill-opacity:1;fill-rule:evenodd;stroke:#000000;stroke-width:2.1;stroke-linecap:round;stroke-dasharray:none;stroke-opacity:1" d="m 60.458012,58.305451 c 0,0 -3.78688,3.042324 -4.755663,5.175546 -1.418386,3.12323 -1.940459,6.897461 -1.12396,10.229084 0.612002,2.497201 2.534318,4.532454 4.292128,6.408798 2.409288,2.571752 8.207983,2.424951 8.382001,6.442769 l 0.199049,4.595737 -0.0072,-0.445696" id="path372" sodipodi:nodetypes="caaascc" /><rect style="opacity:1;fill:#aa0000;fill-opacity:1;fill-rule:evenodd;stroke:#000000;stroke-width:1.11382;stroke-linecap:round;stroke-dasharray:none;stroke-opacity:1" id="rect372" width="0.92257267" height="1.5348041" x="66.957581" y="93.907692" ry="0" /></g></svg>