<?xml version="1.0" encoding="UTF-8" standalone="no"?><svg version="1.1" id="svg1" width="128" height="128" viewBox="0 0 128 128" sodipodi:docname="homepage.svg" inkscape:version="1.3.1 (91b66b0783, 2023-11-16)" xmlns:inkscape="http://www.inkscape.org/namespaces/inkscape" xmlns:sodipodi="http://sodipodi.sourceforge.net/DTD/sodipodi-0.dtd" xmlns="http://www.w3.org/2000/svg" xmlns:svg="http://www.w3.org/2000/svg"><defs id="defs1" /><sodipodi:namedview id="namedview1" pagecolor="#505050" bordercolor="#eeeeee" borderopacity="1" inkscape:showpageshadow="0" inkscape:pageopacity="0" inkscape:pagecheckerboard="0" inkscape:deskcolor="#505050" inkscape:zoom="3.1992188" inkscape:cx="78.769231" inkscape:cy="69.860806" inkscape:window-width="1920" inkscape:window-height="1017" inkscape:window-x="1912" inkscape:window-y="-8" inkscape:window-maximized="1" inkscape:current-layer="g1" /><g inkscape:groupmode="layer" inkscape:label="Image" id="g1"><path style="fill:#000000" d="M 38.93845,96.431783 C 38.818302,96.311636 38.72,89.048468 38.72,80.29141 V 64.369487 l 1.838811,-1.544744 c 1.762891,-1.480964 5.155468,-4.43511 17.318793,-15.080641 3.056682,-2.675256 5.792682,-4.862853 6.08,-4.861326 0.287318,0.0015 1.026396,0.475366 1.642396,1.052978 0.616,0.577611 2.20875,1.980362 3.539444,3.117224 4.581473,3.914125 16.463729,14.281592 18.212137,15.890394 l 1.751581,1.611722 -0.09794,15.802453 c -0.05387,8.691349 -0.203719,15.912895 -0.333008,16.04788 -0.12929,0.134986 -4.04143,0.206986 -8.693644,0.16 L 71.52,96.48 71.43637,83.6 71.35274,70.72 h -7.35637 c -4.046004,0 -7.375928,0.036 -7.399832,0.08 -0.0239,0.044 -0.131904,5.84 -0.24,12.88 L 56.16,96.48 47.65845,96.56512 c -4.675853,0.04681 -8.599853,-0.01319 -8.72,-0.133334 z M 55.75637,83.12 55.84,70.24 63.92,70.154505 72,70.069011 V 83.034505 96 h 8.16 8.16 V 80.502545 65.00509 L 86,62.942187 C 84.724,61.807591 80.656,58.249855 76.96,55.036109 69.76029,48.775815 65.864458,45.380243 64.738861,44.384271 63.869863,43.615349 65.328314,42.489955 50.807044,55.134568 L 39.36,65.102253 V 80.551127 96 h 8.15637 8.15637 z M 29.451924,64.657558 C 28.741366,63.611215 28.16,62.614355 28.16,62.442313 c 0,-0.172042 1.908,-1.963245 4.24,-3.980452 2.332,-2.017207 5.617189,-4.872347 7.30042,-6.344755 C 41.383652,50.644698 45.907574,46.704 49.753582,43.36 c 3.846008,-3.344 8.509962,-7.412 10.364342,-9.04 1.854381,-1.628 3.554761,-2.96 3.778622,-2.96 0.419251,0 2.144227,1.426391 9.085754,7.513055 C 75.194565,40.812875 79.577269,44.632 82.721643,47.36 94.645342,57.704781 99.358955,61.960087 99.456761,62.467953 99.590788,63.163898 97.319463,66.56 96.719985,66.56 96.064666,66.56 91.520499,62.75396 78.381132,51.2 69.951083,43.787128 64.218664,38.88 63.989126,38.88 63.66071,38.88 56.464421,45.05618 42.56,57.271442 35.784465,63.223861 31.701455,66.56 31.191985,66.56 c -0.246476,0 -1.029503,-0.856099 -1.740061,-1.902442 z M 47.2,52.007337 c 8.272,-7.182295 15.362576,-13.34992 15.756835,-13.705834 0.590171,-0.532772 0.844617,-0.584069 1.44,-0.29031 C 64.794576,38.207437 72.176,44.553637 80.8,52.11386 l 15.68,13.745861 0.648104,-0.764949 c 0.356457,-0.420721 0.895215,-1.183274 1.19724,-1.694561 L 98.87448,62.470598 91.932864,56.435299 C 88.114975,53.115885 81.525898,47.376 77.290471,43.68 64.970268,32.928908 64.21094,32.293211 63.803567,32.388994 63.590688,32.439047 55.830595,39.104 46.558917,47.2 37.287239,55.296 29.509632,62.056256 29.275346,62.222791 c -0.336295,0.239047 -0.179213,0.655903 0.746147,1.980087 0.994676,1.423374 1.24527,1.615672 1.655314,1.270236 C 31.942563,65.249232 38.928,59.189632 47.2,52.007337 Z" id="path1" sodipodi:nodetypes="sscsscssscssscccssscsssccccccccccssssccccccsssssssssssssssssssscsscssssssss" /><path style="fill:#80ff00;fill-rule:evenodd;stroke:none;stroke-width:1.75428;stroke-linecap:round;fill-opacity:1" d="m 39.506686,80.512047 0.05676,-15.41273 10.609191,-9.250353 c 11.0012,-9.592151 13.451784,-11.643998 13.906792,-11.643998 0.227167,0 6.379073,5.299209 21.324381,18.368672 l 2.879604,2.518174 0.008,15.416482 0.008,15.416482 H 80.232013 72.164607 V 82.994824 70.064871 h -8.142972 -8.142972 l -0.144834,4.144216 c -0.07966,2.279318 -0.145116,8.097797 -0.14546,12.929952 l -6.24e-4,8.785737 h -8.068909 -8.068909 z" id="path2" /><path style="fill:#80ff00;fill-opacity:1;fill-rule:evenodd;stroke:none;stroke-width:1.75428;stroke-linecap:round" d="M 86.531221,56.982968 C 70.028212,42.485517 64.494305,37.795246 63.89222,37.795246 c -0.393749,0 -3.771194,2.809643 -12.553938,10.443423 -18.953427,16.473925 -19.647701,17.070367 -19.953259,17.141607 -0.302816,0.0706 -2.099233,-2.263696 -2.099233,-2.727784 0,-0.147192 2.809778,-2.707904 6.243951,-5.690468 3.434174,-2.982566 9.874285,-8.57806 14.311358,-12.434432 4.437074,-3.856372 9.401758,-8.141617 11.032631,-9.522767 l 2.965223,-2.511181 0.607865,0.385297 c 0.334326,0.211913 1.484445,1.131255 2.555818,2.042982 1.59162,1.35445 30.886996,26.816826 31.550495,27.422434 0.240307,0.21934 -1.761654,3.338573 -2.111221,3.28947 -0.0413,-0.0058 -4.501106,-3.898688 -9.910689,-8.650859 z" id="path3" /><path style="fill:#80ff00;fill-opacity:1;fill-rule:evenodd;stroke:none;stroke-width:1.24046;stroke-linecap:round" d="M 30.347781,65.639022 C 29.96037,65.208126 29.317073,64.311423 28.918233,63.646348 l -0.725164,-1.20923 1.219705,-1.159211 c 0.670838,-0.637566 3.610913,-3.238172 6.533502,-5.779122 2.922588,-2.54095 9.674237,-8.420612 15.003663,-13.065914 10.292893,-8.971622 11.788517,-10.250894 12.543154,-10.728697 l 0.475812,-0.301262 1.070493,0.810115 c 1.204539,0.911558 0.815781,0.576716 14.119781,12.16154 16.327647,14.217747 19.950246,17.474783 20.100073,18.071743 0.168272,0.670449 -1.938547,3.976156 -2.534114,3.976156 -0.648402,0 -3.702387,-2.540407 -16.158593,-13.441266 C 72.946894,46.312981 65.841468,40.180076 64.659427,39.251291 l -0.66694,-0.524044 -0.885224,0.680332 c -1.281317,0.984749 -7.714392,6.523305 -16.815957,14.4777 -10.594448,9.259115 -14.53689,12.537187 -15.078111,12.537187 -0.08857,0 -0.478003,-0.35255 -0.865414,-0.783444 z m 67.746176,-1.779073 c 0.51229,-0.764695 0.874899,-1.440433 0.805796,-1.501637 -1.3053,-1.156142 -29.806302,-25.92217 -31.305125,-27.202681 -2.769697,-2.366273 -3.347371,-2.804337 -3.695262,-2.802205 -0.327113,0.002 -5.163171,4.123625 -20.138682,17.163568 -5.67326,4.939998 -11.320438,9.855134 -12.549283,10.922526 -2.466875,2.142759 -2.409777,2.029441 -1.636553,3.247904 0.708954,1.117183 1.462808,1.953602 1.760759,1.953602 0.287168,0 1.873158,-1.357735 20.630205,-17.661106 11.060461,-9.613602 11.524342,-10.001898 11.948831,-10.001898 0.509672,0 5.249336,4.044462 23.684869,20.210831 l 8.83028,7.743394 0.366365,-0.340971 c 0.201501,-0.187533 0.78551,-0.966631 1.2978,-1.731327 z" id="path4" /><path style="fill:#80ff00;fill-opacity:1;fill-rule:evenodd;stroke:none;stroke-width:1.24046;stroke-linecap:round" d="" id="path5" /><path style="fill:#80ff00;fill-opacity:1;fill-rule:evenodd;stroke:none;stroke-width:1.24046;stroke-linecap:round" d="M 38.939154,94.99919 C 38.883303,94.212357 38.837607,87.009632 38.837607,78.993131 V 64.417674 l 1.523809,-1.302187 C 41.199512,62.399284 45.964347,58.258158 50.949939,53.912984 60.111043,45.92866 63.096,43.412169 63.769644,43.105237 c 0.317524,-0.144674 0.467254,-0.09373 1.060251,0.360707 1.104684,0.846569 18.466752,15.956349 22.051363,19.190756 l 2.173078,1.960776 -0.123462,13.522764 c -0.0679,7.43752 -0.166667,14.577709 -0.219475,15.867086 l -0.09601,2.344322 -8.454677,0.04041 -8.454678,0.04041 -0.101389,-1.759577 C 71.548877,93.705118 71.502933,87.90232 71.502543,81.777778 l -7.11e-4,-11.135531 h -7.414464 c -4.299137,0 -7.451489,0.05991 -7.502583,0.14258 -0.04846,0.07842 -0.161103,5.230066 -0.250305,11.448107 -0.0892,6.21804 -0.200922,11.956077 -0.248267,12.751193 l -0.08608,1.445665 H 47.520417 39.040701 Z M 71.970696,70.173382 v 12.971917 12.971917 h 8.205128 8.205128 V 80.499728 64.88224 l -0.44529,-0.362976 C 87.690753,64.319628 83.875368,60.990618 79.45703,57.121468 66.253063,45.558718 64.446568,43.997545 64.207105,43.942486 63.692628,43.824193 63.32527,44.129419 49.426129,56.223478 l -10.119658,8.80542 v 15.544159 15.544159 h 8.179805 8.179803 l 0.103229,-5.509157 c 0.05677,-3.030037 0.103336,-8.820924 0.103467,-12.868641 l 2.41e-4,-7.359481 4.336996,-0.102975 c 2.385348,-0.05664 6.007326,-0.10311 8.04884,-0.103277" id="path6" sodipodi:nodetypes="sscssssscsscccsscsssscccscccccccsssscccccsscsc" /><path style="fill:#80ff00;fill-opacity:1;fill-rule:evenodd;stroke:none;stroke-width:0.109642;stroke-linecap:round" d="m 39.363141,68.60284 v -3.492695 l 2.165353,-1.885464 c 1.190944,-1.037005 3.278074,-2.85433 4.638068,-4.0385 1.359993,-1.18417 3.357581,-2.924273 4.439084,-3.866895 1.081503,-0.942622 1.981042,-1.725055 1.998974,-1.73874 0.02412,-0.01841 0.05182,-0.0238 0.106434,-0.02072 l 0.07383,0.0042 -1.022936,0.890761 c -0.562614,0.489918 -3.537965,3.08353 -6.61189,5.76358 l -5.588955,4.87282 -0.0092,1.461169 c -0.0051,0.803643 -0.0092,1.940353 -0.0092,2.526023 -4e-6,0.585671 -0.0041,1.504132 -0.0092,2.041027 l -0.0092,0.976171 h -0.08061 -0.08061 z" id="path7" /><path style="fill:#80ff00;fill-opacity:1;fill-rule:evenodd;stroke:none;stroke-width:0.310115;stroke-linecap:round" d="M 39.365079,84.063492 V 72.126984 h 0.08388 0.08388 l -0.02518,4.131868 c -0.01385,2.272528 -0.0366,7.635207 -0.05055,11.917065 l -0.02537,7.785197 8.083893,-0.0099 8.083892,-0.0099 0.02411,-8.615385 c 0.0217,-7.754174 0.06165,-11.420678 0.148347,-13.616605 0.01847,-0.467892 0.02378,0.01606 0.01436,1.308913 -0.02621,3.597064 -0.128467,19.886179 -0.128338,20.444445 L 55.65812,96 H 47.5116 39.365079 Z" id="path8" /><path style="fill:#80ff00;fill-opacity:1;fill-rule:evenodd;stroke:none;stroke-width:0.310115;stroke-linecap:round" d="M 39.365079,84.063492 V 72.126984 h 0.0836 0.0836 l -0.02486,1.826618 c -0.01367,1.00464 -0.03374,4.727717 -0.04459,8.273504 -0.01085,3.545788 -0.03021,8.086447 -0.04301,10.090354 l -0.02327,3.643468 h 8.11125 8.111249 l 0.0011,-2.490842 c 0.0029,-6.407503 0.09514,-18.720162 0.139835,-18.675464 0.0063,0.0063 -0.01364,3.747126 -0.04431,8.312938 -0.03068,4.565812 -0.05618,9.334443 -0.05669,10.596958 L 55.65812,96 H 47.5116 39.365079 Z" id="path9" /><path style="fill:#80ff00;fill-opacity:1;fill-rule:evenodd;stroke:none;stroke-width:0.310115;stroke-linecap:round" d="M 39.365079,84.063492 V 72.126984 h 0.08377 0.08377 l -0.02499,1.96337 c -0.01375,1.079854 -0.03389,4.87326 -0.04477,8.429793 -0.01088,3.556532 -0.03016,8.035653 -0.04285,9.953602 l -0.02307,3.487179 h 8.111054 8.111054 l 5.25e-4,-2.529914 c 8.62e-4,-4.155531 0.08101,-16.233156 0.116088,-17.494506 0.02911,-1.046773 0.03091,-0.97154 0.01678,0.703297 -0.0087,1.031502 -0.02714,4.319414 -0.04097,7.306471 -0.01383,2.987057 -0.03015,5.457387 -0.03626,5.489622 -0.0061,0.03223 -0.01246,1.522344 -0.0141,3.311355 L 55.65812,96 H 47.5116 39.365079 Z" id="path10" /><path style="fill:#80ff00;fill-opacity:1;fill-rule:evenodd;stroke:none;stroke-width:0.310115;stroke-linecap:round" d="M 39.365079,84.063492 V 72.126984 h 0.08378 0.08378 l -0.025,2.178266 c -0.01375,1.198047 -0.03391,5.061783 -0.0448,8.586081 -0.01088,3.524298 -0.0302,7.906715 -0.04292,9.738706 l -0.02313,3.330891 h 8.111136 8.111136 l 3.99e-4,-2.842491 c 5.8e-4,-4.132317 0.07878,-15.854581 0.114754,-17.201465 0.03289,-1.231529 0.02885,-0.172369 -0.03872,10.15873 -0.02045,3.12674 -0.03722,6.638828 -0.03727,7.80464 L 55.65812,96 H 47.5116 39.365079 Z" id="path11" /><path style="fill:#80ff00;fill-opacity:1;fill-rule:evenodd;stroke:none;stroke-width:0.310115;stroke-linecap:round" d="M 39.365079,84.063492 V 72.126984 h 0.08378 0.08378 l -0.02507,2.608059 c -0.01379,1.434432 -0.03395,5.368498 -0.0448,8.742369 -0.01085,3.37387 -0.03011,7.562881 -0.04279,9.308913 l -0.02307,3.174603 h 8.11107 8.111071 l 2.84e-4,-3.037851 c 4.08e-4,-4.357563 0.07772,-15.646682 0.11647,-17.006105 0.02778,-0.974633 0.03043,-0.832843 0.01717,0.918193 -0.0086,1.13895 -0.03687,5.916972 -0.06277,10.617827 L 55.643114,96 h -8.139017 -8.139018 z" id="path12" /><path style="fill:#80ff00;fill-opacity:1;fill-rule:evenodd;stroke:none;stroke-width:0.310115;stroke-linecap:round" d="M 39.365079,84.063492 V 72.126984 h 0.08376 0.08376 l -0.02508,2.901099 c -0.01379,1.595605 -0.03395,5.635165 -0.0448,8.976801 -0.01085,3.341636 -0.03012,7.398779 -0.04283,9.015873 l -0.0231,2.940171 h 8.111126 8.111127 l 1.46e-4,-3.272283 c 1.98e-4,-4.441125 0.07635,-15.392743 0.11676,-16.791209 0.02622,-0.907483 0.02953,-0.685767 0.01662,1.113553 -0.0089,1.235653 -0.02743,4.664225 -0.04126,7.619048 -0.01383,2.954823 -0.03011,5.398779 -0.03618,5.431013 -0.0061,0.03224 -0.01238,1.381685 -0.01403,2.998779 L 55.65812,96 H 47.5116 39.365079 Z" id="path13" /><path style="fill:#80ff00;fill-opacity:1;fill-rule:evenodd;stroke:none;stroke-width:0.310115;stroke-linecap:round" d="m 55.892552,70.153846 c 0,-0.05183 0.588745,-0.05789 5.089133,-0.05239 l 5.089133,0.0062 -4.02442,0.0484 c -5.783347,0.06955 -6.153846,0.06941 -6.153846,-0.0022 z" id="path14" /><path style="fill:#80ff00;fill-opacity:1;fill-rule:evenodd;stroke:none;stroke-width:0.310115;stroke-linecap:round" d="m 56.820513,70.106046 c 0.06984,-0.0087 0.184127,-0.0087 0.253968,0 0.06984,0.0087 0.0127,0.01576 -0.126984,0.01576 -0.139683,0 -0.196825,-0.0071 -0.126984,-0.01576 z" id="path15" /><path style="fill:#80ff00;fill-opacity:1;fill-rule:evenodd;stroke:none;stroke-width:0.310115;stroke-linecap:round" d="" id="path16" /><path style="fill:#80ff00;fill-opacity:1;fill-rule:evenodd;stroke:none;stroke-width:0.310115;stroke-linecap:round" d="" id="path17" /><path style="fill:#80ff00;fill-opacity:1;fill-rule:evenodd;stroke:none;stroke-width:0.310115;stroke-linecap:round" d="" id="path18" /><path style="fill:#80ff00;fill-opacity:1;fill-rule:evenodd;stroke:none;stroke-width:0.310115;stroke-linecap:round" d="m 72.165824,83.008547 c 0,-7.113065 0.0045,-10.017133 0.01,-6.453486 0.0055,3.563648 0.0055,9.383428 -1e-6,12.932845 -0.0055,3.549417 -0.01,0.633706 -0.01,-6.479359 z" id="path19" /><path style="fill:#80ff00;fill-opacity:1;fill-rule:evenodd;stroke:none;stroke-width:0.310115;stroke-linecap:round" d="m 72.164935,72.595849 c 0,-1.386081 0.0049,-1.953114 0.01087,-1.260074 0.006,0.693041 0.006,1.827107 0,2.520147 -0.006,0.69304 -0.01087,0.126007 -0.01087,-1.260073 z" id="path20" /><path style="fill:#80ff00;fill-opacity:1;fill-rule:evenodd;stroke:none;stroke-width:0.310115;stroke-linecap:round" d="m 39.481318,94.544567 c -0.0028,-3.946515 0.08532,-28.271722 0.104394,-28.81718 l 0.02226,-0.636472 6.061706,-5.284592 c 3.333939,-2.906526 6.560406,-5.719014 7.169927,-6.249975 l 1.108221,-0.965383 h 9.989239 9.989239 l 1.268841,1.103266 c 1.601326,1.392366 5.247859,4.573488 9.658463,8.425742 l 3.42747,2.99358 0.0011,15.404152 0.0011,15.404151 h -8.04884 -8.04884 V 82.989011 70.056166 H 64.019536 55.85348 v 0.127392 c 0,0.07007 -0.03522,1.111824 -0.07827,2.315018 -0.136719,3.821148 -0.161064,5.775467 -0.183127,14.700447 l -0.02156,8.722833 H 47.526411 39.4823 Z" id="path21" /></g></svg>