<?xml version="1.0" encoding="UTF-8" standalone="no"?><svg version="1.1" id="svg1" width="426.66666" height="426.66666" viewBox="0 0 426.66666 426.66666" sodipodi:docname="phone.svg" inkscape:version="1.3.1 (91b66b0783, 2023-11-16)" xmlns:inkscape="http://www.inkscape.org/namespaces/inkscape" xmlns:sodipodi="http://sodipodi.sourceforge.net/DTD/sodipodi-0.dtd" xmlns="http://www.w3.org/2000/svg" xmlns:svg="http://www.w3.org/2000/svg"><defs id="defs1" /><sodipodi:namedview id="namedview1" pagecolor="#505050" bordercolor="#eeeeee" borderopacity="1" inkscape:showpageshadow="0" inkscape:pageopacity="0" inkscape:pagecheckerboard="0" inkscape:deskcolor="#505050" inkscape:zoom="0.95976565" inkscape:cx="109.40171" inkscape:cy="166.1864" inkscape:window-width="1920" inkscape:window-height="1017" inkscape:window-x="1912" inkscape:window-y="-8" inkscape:window-maximized="1" inkscape:current-layer="g1" /><g inkscape:groupmode="layer" inkscape:label="Image" id="g1"><g id="g11"><path id="rect1" style="opacity:0.921769;fill:none;fill-rule:evenodd;stroke:#78e40c;stroke-width:8.36099949;stroke-linecap:round;stroke-dasharray:none" d="m 156.05294,96.910629 h 114.56079 c 7.65559,0 13.81875,6.163161 13.81875,13.818751 v 207.81271 c 0,7.65559 -6.16316,13.81875 -13.81875,13.81875 H 156.05294 c -7.65559,0 -13.81875,-6.16316 -13.81875,-13.81875 V 110.72938 c 0,-7.65559 6.16316,-13.818751 13.81875,-13.818751 z" /><path style="opacity:0.921769;fill:none;fill-rule:evenodd;stroke:#78e40c;stroke-width:8.361;stroke-linecap:round;stroke-dasharray:none;stroke-opacity:1" d="m 142.19264,280.33315 142.56101,-1.84187 z" id="path2" /><path style="opacity:0.921769;fill:none;fill-rule:evenodd;stroke:#78e40c;stroke-width:8.361;stroke-linecap:round;stroke-dasharray:none;stroke-opacity:1" d="M 142.19264,122.3004 H 281.80665 Z" id="path3" /><circle style="opacity:0.921769;fill:none;fill-rule:evenodd;stroke:#78e40c;stroke-width:8.361;stroke-linecap:round;stroke-dasharray:none;stroke-opacity:1" id="path4" cx="213.28896" cy="306.48776" r="13.629864" /><ellipse style="opacity:0.921769;fill:none;fill-rule:evenodd;stroke:#78e40c;stroke-width:4.161;stroke-linecap:round;stroke-dasharray:none;stroke-opacity:1" id="path5" cx="204.81633" cy="110.97289" rx="10.867054" ry="1.8418735" /><ellipse style="opacity:0.921769;fill:none;fill-rule:evenodd;stroke:#78e40c;stroke-width:4.161;stroke-linecap:round;stroke-dasharray:none;stroke-opacity:1" id="path6" cx="228.80673" cy="110.97289" rx="5.3874803" ry="1.8879204" /><g id="g9"><path id="path9" style="opacity:0.921769;fill:none;fill-rule:evenodd;stroke:#78e40c;stroke-width:8.92459;stroke-linecap:round" d="m 101.99553,175.9537 c -3.876986,-4.3156 -8.093889,-8.91259 -10.72514,-14.24094 -1.715122,-3.47317 -2.463154,-7.37648 -3.120763,-11.19382 -0.355583,-2.06412 -0.637391,-4.18375 -0.4351,-6.26848 0.483059,-4.9782 1.672389,-10.01034 3.897484,-14.48971 2.491339,-5.01534 4.982683,-8.96231 10.291329,-13.27903" sodipodi:nodetypes="caaaac" /><path id="path9-2" style="opacity:0.921769;fill:none;fill-rule:evenodd;stroke:#78e40c;stroke-width:6.66472;stroke-linecap:round" d="m 119.92666,168.424 c -2.89526,-3.22281 -6.04437,-6.65576 -8.00934,-10.63487 -1.28082,-2.5937 -1.83944,-5.50862 -2.33053,-8.35934 -0.26554,-1.54145 -0.47599,-3.12435 -0.32492,-4.68119 0.36074,-3.71763 1.24891,-7.47553 2.91057,-10.82064 1.86049,-3.74537 3.72097,-6.69289 7.68537,-9.91654" sodipodi:nodetypes="caaaac" /></g><g id="g10" transform="translate(0,0.48015)"><path id="path9-4" style="opacity:0.921769;fill:none;fill-rule:evenodd;stroke:#78e40c;stroke-width:8.92459;stroke-linecap:round" d="m 324.1597,175.47355 c 3.87699,-4.3156 8.09389,-8.91259 10.72514,-14.24094 1.71512,-3.47317 2.46315,-7.37648 3.12076,-11.19382 0.35559,-2.06412 0.63739,-4.18375 0.4351,-6.26848 -0.48306,-4.9782 -1.67239,-10.01034 -3.89748,-14.48971 -2.49134,-5.01534 -4.98268,-8.96231 -10.29133,-13.27903" sodipodi:nodetypes="caaaac" /><path id="path9-2-6" style="opacity:0.921769;fill:none;fill-rule:evenodd;stroke:#78e40c;stroke-width:6.66472;stroke-linecap:round" d="m 306.22857,167.94385 c 2.89526,-3.22281 6.04437,-6.65576 8.00934,-10.63487 1.28082,-2.5937 1.83944,-5.50862 2.33053,-8.35934 0.26554,-1.54145 0.47599,-3.12435 0.32492,-4.68119 -0.36074,-3.71763 -1.24891,-7.47553 -2.91057,-10.82064 -1.86049,-3.74537 -3.72097,-6.69289 -7.68537,-9.91654" sodipodi:nodetypes="caaaac" /></g></g></g></svg>