<?xml version="1.0" encoding="UTF-8" standalone="no"?><svg version="1.1" id="svg1" width="533" height="533" viewBox="0 0 533 533" sodipodi:docname="youtube.svg" inkscape:version="1.3.1 (91b66b0783, 2023-11-16)" xmlns:inkscape="http://www.inkscape.org/namespaces/inkscape" xmlns:sodipodi="http://sodipodi.sourceforge.net/DTD/sodipodi-0.dtd" xmlns="http://www.w3.org/2000/svg" xmlns:svg="http://www.w3.org/2000/svg"><defs id="defs1" /><sodipodi:namedview id="namedview1" pagecolor="#505050" bordercolor="#eeeeee" borderopacity="1" inkscape:showpageshadow="0" inkscape:pageopacity="0" inkscape:pagecheckerboard="0" inkscape:deskcolor="#505050" inkscape:zoom="0.51720704" inkscape:cx="-44.469619" inkscape:cy="132.44213" inkscape:window-width="1920" inkscape:window-height="1017" inkscape:window-x="1912" inkscape:window-y="-8" inkscape:window-maximized="1" inkscape:current-layer="g1" /><g inkscape:groupmode="layer" inkscape:label="Image" id="g1"><path style="opacity:0.921769;fill:#78e40c;fill-rule:evenodd;stroke:none;stroke-width:10.054;stroke-linecap:round" d="m 166.53696,354.39963 c -12.53604,-3.37043 -22.93167,-13.78742 -26.64032,-26.69505 -1.40469,-4.88889 -1.55028,-12.10681 -1.28702,-63.80424 l 0.29685,-58.29174 2.6062,-5.56125 c 3.23475,-6.9025 10.79039,-15.01875 17.25871,-18.53925 4.25273,-2.31463 6.52537,-2.77882 17.16993,-3.50698 16.16681,-1.10591 165.50403,-1.09714 180.74523,0.0106 8.98134,0.65278 12.94001,1.3822 16.2822,3.00013 6.06278,2.93494 13.80215,10.85102 17.52631,17.92649 l 3.10401,5.89726 0.61835,50.17313 c 0.71389,57.92562 0.0358,71.77136 -3.89514,79.52862 -4.86466,9.59994 -12.83456,16.1415 -23.83862,19.56635 -5.61253,1.74682 -10.25142,1.82859 -100.29652,1.76791 -79.49179,-0.0536 -95.23963,-0.28619 -99.65017,-1.472 z m 109.73483,-67.34395 c 18.82222,-12.36207 35.16897,-23.18754 36.32611,-24.05659 2.05486,-1.54328 1.3962,-2.04733 -28.27329,-21.63614 -39.25936,-25.92037 -42.41977,-27.90072 -43.23199,-27.08966 -0.84754,0.84634 -1.50714,87.80311 -0.69871,92.11245 0.32465,1.73054 0.82998,3.14643 1.12296,3.14643 0.29298,0 15.93269,-10.11442 34.75492,-22.47649 z" id="path2" /></g></svg>