<svg width="210mm" height="297mm" viewBox="0 0 210 297" xmlns:xlink="http://www.w3.org/1999/xlink" xmlns="http://www.w3.org/2000/svg"><defs><path id="prefix__v" d="M453.469 1134.006h281.51v43.82h-281.51z"/><path id="prefix__r" d="M-420.666 226.219h152.507v83.879h-152.507z"/><path id="prefix__c" d="M282.343 1406.234h194.625v1326.739H282.343z"/><path id="prefix__j" d="M-315 193h120v75h-120z"/><path id="prefix__i" d="M176.709 227.887h289.687v132.29H176.709z"/><path id="prefix__h" d="M195.056 367.902h271.34v117.806h-271.34z"/><path id="prefix__g" d="M175.743 66.628h333.14v107.184h-333.14z"/><path id="prefix__f" d="M1159.391 518.926h479.324v512.098h-479.324z"/><path id="prefix__e" d="M695.088 230.786h445.184v99.688H695.088z"/><path id="prefix__d" d="M630.905 107.882h540.776v367.345H630.905z"/><path id="prefix__q" d="M-315 193h120v75h-120z"/><path id="prefix__p" d="M176.709 227.887h289.687v132.29H176.709z"/><path id="prefix__o" d="M195.056 367.902h271.34v117.806h-271.34z"/><path id="prefix__n" d="M175.743 66.628h333.14v107.184h-333.14z"/><path id="prefix__m" d="M1159.391 518.926h479.324v512.098h-479.324z"/><path id="prefix__l" d="M695.088 230.786h445.184v99.688H695.088z"/><path id="prefix__k" d="M630.905 107.882h540.776v367.345H630.905z"/><linearGradient id="prefix__b"><stop offset=".03" stop-color="#303030" stop-opacity=".769"/><stop offset=".178"/><stop offset=".5"/><stop offset=".816"/><stop offset=".973" stop-color="#313131" stop-opacity=".771"/></linearGradient><linearGradient id="prefix__a"><stop offset="0" stop-color="#0a3373"/><stop offset="1" stop-color="#0a3373" stop-opacity="0"/></linearGradient><linearGradient xlink:href="#prefix__b" id="prefix__s" gradientUnits="userSpaceOnUse" x1="228.179" y1="322.983" x2="25.422" y2="-19.386"/><linearGradient xlink:href="#prefix__b" id="prefix__t" gradientUnits="userSpaceOnUse" gradientTransform="rotate(180 390.102 388.329)" x1="105.047" y1="41.178" x2="85.045" y2="-45.72"/><filter id="prefix__u" x="-.001" y="-.001" width="1.001" height="1.001" color-interpolation-filters="sRGB"><feBlend in2="SourceGraphic" mode="multiply" result="blend"/></filter></defs><text style="line-height:94.42%;-inkscape-font-specification:'Microsoft Himalaya'" x="-108.953" y="234.434" font-weight="400" font-size="4.371" font-family="Microsoft Himalaya" letter-spacing=".437" fill="#fff" fill-rule="evenodd" stroke="#fff" stroke-width=".111" stroke-linecap="square" paint-order="fill markers stroke"/><text style="line-height:94.42%;-inkscape-font-specification:'Microsoft Himalaya'" x="-29.694" y="219.401" transform="rotate(-4.318)" font-size="19.756" font-family="Microsoft Himalaya" letter-spacing="1.974" fill="#fff" fill-rule="evenodd" stroke-width=".5" stroke-linecap="square" paint-order="fill markers stroke"/><text style="line-height:94.42%;-inkscape-font-specification:'Microsoft Himalaya'" x="-89.862" y="294.535" font-weight="400" font-size="6.379" font-family="Microsoft Himalaya" letter-spacing=".637" fill="#fff" fill-rule="evenodd" stroke="#fff" stroke-width=".161" stroke-linecap="square" paint-order="fill markers stroke"/><text style="line-height:94.42%;-inkscape-font-specification:'Source Sans Pro, Light';font-variant-ligatures:normal;font-variant-caps:normal;font-variant-numeric:normal;font-variant-east-asian:normal" x="-90.68" y="172.751" font-weight="300" font-size="19.756" font-family="Source Sans Pro" letter-spacing="1.974" fill="#fff" fill-rule="evenodd" stroke-width=".3" stroke-linecap="square"/><text style="line-height:94.42%;-inkscape-font-specification:'Arial, Normal';font-variant-ligatures:normal;font-variant-caps:normal;font-variant-numeric:normal;font-variant-east-asian:normal" x="-3.871" y="232.058" font-weight="400" font-size="3.528" font-family="Arial" letter-spacing="0" fill="#fff" fill-rule="evenodd" stroke="#fff" stroke-width=".1" stroke-linecap="square"/><text style="line-height:94.42%;-inkscape-font-specification:'Source Sans Pro'" x="-25.988" y="230.382" font-weight="400" font-size="49.884" font-family="Source Sans Pro" letter-spacing="0" fill="#fff" fill-rule="evenodd" stroke-width=".589" stroke-linecap="round" stroke-linejoin="round" paint-order="fill markers stroke"/><path d="M.726-.344h208.548c.191 0 .345.154.345.345v296.998c0 .191-.154.345-.345.345H.726a.344.344 0 01-.345-.345V.001c0-.191.154-.345.345-.345z" fill="url(#prefix__s)" fill-rule="evenodd" stroke="#000" stroke-width=".3" stroke-linecap="round"/><path d="M570.685 478.94v.478a.342.342 0 01.245-.104h208.548c.191 0 .345.153.345.344v223.227h.384V478.94zm209.138 223.945H570.685V479.418a.343.343 0 00-.1.24v296.999c0 .19.154.344.345.344h208.548c.191 0 .345-.153.345-.344z" fill="url(#prefix__t)" fill-rule="evenodd" stroke="#000" stroke-width=".3" stroke-linecap="round" filter="url(#prefix__u)"/><g fill="#fff" fill-rule="evenodd"><g font-size="74.667" font-family="Microsoft Himalaya" letter-spacing="7.46" paint-order="fill markers stroke"><path style="line-height:94.42%;-inkscape-font-specification:'Microsoft Himalaya';white-space:pre" d="M108.868 14.255c-4.607 2.306-11.584 6.953-8.747 12.972.214.456.514.977.898 1.563.406.577.824 1.15 1.254 1.717.439.59.831 1.135 1.176 1.638.377.515.644.938.8 1.27.235.497.339 1.032.313 1.607-.058 2.47-2.325 3.977-4.185 5.467 2.45-.252 5.256-.614 7.238 1.014.475.378.83.816 1.064 1.314.156.331.31.798.459 1.402.163.574.327 1.209.493 1.904a59.1 59.1 0 00.503 2.011c.201.657.41 1.214.624 1.67 3.093 6.283 10.483 4.667 16.36 3.182-7.646 1.389-10.895 1.287-12.324-3.543-.15-.603-.308-1.253-.474-1.948a35.196 35.196 0 00-.536-1.998 9.512 9.512 0 00-.562-1.62c-.322-.683-.797-1.32-1.425-1.909a8.918 8.918 0 00-2.25-1.513c-.849-.43-1.821-.749-2.917-.959a15.08 15.08 0 00-3.084-.243c.768-.707 1.417-1.439 1.933-2.198.589-.867 1.005-1.728 1.25-2.584a7.429 7.429 0 00.346-2.526 5.832 5.832 0 00-.537-2.255c-.205-.435-.506-.93-.903-1.486a37.79 37.79 0 00-1.22-1.732c-.44-.589-.848-1.14-1.225-1.655-2.735-4.088-1.146-6.198 5.678-10.562z"/><path style="line-height:94.42%;-inkscape-font-specification:'Microsoft Himalaya';white-space:pre" d="M101.132 14.255c4.607 2.306 11.584 6.953 8.747 12.972-.214.456-.514.977-.898 1.563-.406.577-.824 1.15-1.254 1.717-.439.59-.831 1.135-1.176 1.638-.377.515-.644.938-.8 1.27a3.356 3.356 0 00-.313 1.607c.058 2.47 2.325 3.977 4.185 5.467-2.45-.252-5.256-.614-7.238 1.014a3.69 3.69 0 00-1.064 1.314c-.156.331-.31.798-.459 1.402a47.218 47.218 0 00-.493 1.904 59.1 59.1 0 01-.503 2.011 12.74 12.74 0 01-.624 1.67c-3.093 6.283-10.483 4.667-16.36 3.182 7.646 1.389 10.895 1.287 12.324-3.543.15-.603.308-1.253.474-1.948.166-.696.344-1.362.536-1.998.17-.645.357-1.185.562-1.62.322-.683.797-1.32 1.425-1.909a8.918 8.918 0 012.25-1.513c.849-.43 1.821-.749 2.917-.959.96-.184 1.991-.26 3.084-.243-.768-.707-1.417-1.439-1.933-2.198-.589-.867-1.005-1.728-1.25-2.584a7.429 7.429 0 01-.346-2.526c.036-.82.215-1.571.537-2.255.205-.435.506-.93.903-1.486a37.79 37.79 0 011.22-1.732c.44-.589.848-1.14 1.225-1.655 2.735-4.088 1.146-6.198-5.678-10.562z" fill-opacity=".46"/></g><path style="line-height:94.42%;-inkscape-font-specification:Arial" d="M54.227 63.507l-3.315 7.757c-.288.681-.55 1.133-.785 1.355-.116.112-.371.202-.765.271v.258h2.968v-.258c-.454-.032-.751-.102-.89-.208-.134-.111-.201-.239-.201-.382 0-.181.078-.455.236-.82l.64-1.488h3.648l.57 1.355c.186.44.278.763.278.967a.481.481 0 01-.201.389c-.13.106-.383.169-.758.187v.258h3.718v-.258c-.384-.023-.685-.127-.903-.313-.213-.19-.452-.6-.716-1.23l-3.28-7.84zm22.603 0l-3.315 7.757c-.288.681-.55 1.133-.786 1.355-.116.112-.37.202-.764.271v.258h2.967v-.258c-.454-.032-.75-.102-.89-.208-.134-.111-.2-.239-.2-.382 0-.181.078-.455.236-.82l.639-1.488h3.65l.569 1.355c.185.44.278.763.278.967a.481.481 0 01-.202.389c-.13.106-.382.169-.757.187v.258h3.718v-.258c-.384-.023-.685-.127-.903-.313-.213-.19-.452-.6-.716-1.23l-3.28-7.84zm13.769 0c-.802 0-1.462.246-1.981.737-.52.487-.778 1.068-.778 1.745 0 .389.087.746.264 1.07.176.324.433.62.771.89.343.268.918.63 1.724 1.084.806.45 1.3.744 1.48.883.269.204.466.424.59.66.13.236.196.47.196.702 0 .417-.17.778-.508 1.084-.333.306-.79.459-1.369.459-.5 0-.961-.111-1.383-.334-.417-.222-.727-.5-.931-.834-.204-.338-.367-.845-.487-1.522h-.257v3.232h.257c.032-.218.081-.361.146-.43a.376.376 0 01.278-.105c.12 0 .405.074.855.222.454.144.753.227.896.25.241.042.499.063.772.063.871 0 1.582-.257 2.134-.772.556-.519.834-1.135.834-1.848 0-.376-.088-.735-.264-1.078a2.568 2.568 0 00-.744-.89c-.32-.254-.92-.618-1.8-1.09-1.08-.58-1.763-1.043-2.05-1.39a1.19 1.19 0 01-.3-.786c0-.375.158-.709.473-1 .315-.297.714-.446 1.196-.446.426 0 .838.11 1.237.327.398.218.704.512.917.883.218.37.369.869.452 1.494h.257v-3.26h-.257c-.046.218-.109.364-.187.438a.41.41 0 01-.293.104c-.106 0-.289-.058-.548-.173-.561-.246-1.092-.369-1.592-.369zm10.495 0c-1.233 0-2.291.41-3.176 1.23-1.02.946-1.53 2.167-1.53 3.663 0 1.465.44 2.658 1.321 3.58.885.922 1.976 1.383 3.274 1.383 1.283 0 2.377-.473 3.28-1.418.904-.945 1.356-2.134 1.356-3.566 0-1.39-.45-2.548-1.349-3.474-.894-.932-1.953-1.398-3.176-1.398zm47.798 0c-1.232 0-2.291.41-3.176 1.23-1.02.946-1.53 2.167-1.53 3.663 0 1.465.44 2.658 1.321 3.58.885.922 1.977 1.383 3.274 1.383 1.284 0 2.377-.473 3.28-1.418.904-.945 1.356-2.134 1.356-3.566 0-1.39-.45-2.548-1.349-3.474-.894-.932-1.953-1.398-3.176-1.398zm21.046 0c-.802 0-1.462.246-1.981.737-.519.487-.778 1.068-.778 1.745 0 .389.088.746.264 1.07.176.324.433.62.771.89.343.268.918.63 1.724 1.084.806.45 1.3.744 1.48.883.27.204.466.424.591.66.13.236.195.47.195.702 0 .417-.17.778-.508 1.084-.333.306-.79.459-1.369.459-.5 0-.961-.111-1.383-.334-.417-.222-.727-.5-.931-.834-.204-.338-.366-.845-.487-1.522h-.257v3.232h.257c.033-.218.081-.361.146-.43a.376.376 0 01.278-.105c.12 0 .406.074.855.222.454.144.753.227.897.25.24.042.498.063.771.063.871 0 1.582-.257 2.134-.772.556-.519.834-1.135.834-1.848 0-.376-.088-.735-.264-1.078a2.568 2.568 0 00-.744-.89c-.32-.254-.92-.618-1.8-1.09-1.08-.58-1.763-1.043-2.05-1.39a1.19 1.19 0 01-.3-.786c0-.375.158-.709.474-1 .315-.297.713-.446 1.195-.446.426 0 .838.11 1.237.327.398.218.704.512.917.883.218.37.369.869.452 1.494h.258v-3.26h-.258c-.046.218-.109.364-.188.438a.41.41 0 01-.291.104c-.107 0-.29-.058-.55-.173-.56-.246-1.09-.369-1.591-.369zm-133.379.216v.257c.274 0 .49.044.647.132.162.083.29.213.382.39.056.106.187.451.396 1.035l2.801 7.826h.25l2.134-6.026 2.148 6.026h.278l2.627-7.597c.2-.611.345-.998.438-1.16.139-.241.285-.406.438-.494.153-.088.352-.132.597-.132v-.257h-2.814v.257c.282 0 .512.033.688.097a.514.514 0 01.25.195c.07.093.104.192.104.299 0 .222-.102.62-.306 1.195l-1.793 5.192-1.807-5.122c-.208-.589-.313-1.001-.313-1.237 0-.19.06-.34.181-.452.12-.111.31-.167.57-.167h.25v-.257h-3.67v.257c.19 0 .33.014.417.042.116.037.232.097.348.18.088.06.162.135.222.223.12.176.23.38.327.611l.222.633.279.792-1.565 4.497-1.855-5.289c-.204-.584-.306-.957-.306-1.12 0-.157.065-.29.195-.402.13-.111.317-.167.563-.167h.166v-.257zm24.237 0v.257h.354c.357 0 .625.102.806.306.13.148.195.516.195 1.105v6.088c0 .533-.051.876-.153 1.029-.167.255-.45.382-.848.382h-.354v.258h4.211c1.83 0 3.193-.492 4.087-1.474.797-.88 1.196-1.976 1.196-3.288 0-.977-.225-1.839-.675-2.585-.444-.746-1.035-1.279-1.772-1.599-.732-.32-1.802-.479-3.21-.479zm46.678 0v.257h.355c.357 0 .626.102.806.306.13.148.195.516.195 1.105v6.081c0 .538-.049.88-.146 1.029-.172.26-.456.39-.855.39h-.355v.257h7.298l.806-2.558-.229-.049c-.24.584-.482 1.012-.723 1.286-.24.269-.507.456-.799.563-.292.107-.8.16-1.522.16h-.688c-.607 0-.968-.023-1.084-.07a.497.497 0 01-.258-.215c-.074-.144-.11-.408-.11-.793v-5.921c0-.56.036-.915.11-1.064.075-.148.211-.27.41-.368.205-.097.557-.144 1.057-.139v-.257zm9.509 0v.257h.354c.357 0 .614.09.772.27.162.182.243.562.243 1.14v3.685c0 1.135.074 1.909.222 2.321.223.602.6 1.082 1.133 1.439s1.314.535 2.342.535c.946 0 1.692-.185 2.238-.556.552-.375.92-.823 1.106-1.342.19-.523.285-1.257.285-2.203v-3.822c0-.524.048-.858.146-1.001.199-.31.484-.466.855-.466h.354v-.257h-3.336v.257h.354c.357 0 .626.102.807.306.13.148.194.516.194 1.105v3.816c0 1-.09 1.712-.271 2.133-.176.418-.507.76-.994 1.029-.486.269-1.038.403-1.654.403-.482 0-.89-.086-1.223-.257a1.99 1.99 0 01-.758-.653c-.176-.264-.299-.633-.368-1.105a9.369 9.369 0 01-.098-1.259v-4.107c0-.528.058-.876.174-1.043.167-.245.445-.368.834-.368h.362v-.257zm11.767 0l-.111 2.21h.264c.032-.426.134-.764.305-1.015.172-.25.378-.42.62-.507.184-.065.497-.097.937-.097h1.133v7.2c0 .529-.05.867-.153 1.015-.167.24-.449.361-.847.361h-.334v.258h3.996v-.258h-.326c-.367 0-.638-.097-.814-.292-.125-.143-.187-.504-.187-1.084v-7.2h1.327c.39 0 .702.064.938.194.241.125.434.322.577.591.088.167.158.445.209.834h.264l-.104-2.21zm9.529 0v.257h.333c.223 0 .436.056.64.167a.627.627 0 01.285.299c.06.153.09.468.09.945v6.088c0 .566-.055.923-.167 1.07-.176.228-.458.341-.848.341h-.333v.258h4.038v-.258h-.34a1.28 1.28 0 01-.633-.167c-.149-.083-.246-.183-.292-.298-.06-.153-.09-.468-.09-.946v-6.088c0-.565.057-.922.173-1.07.176-.227.457-.341.841-.341h.341v-.257zm16.521 0v.257c.274 0 .477.02.611.062.274.089.48.183.62.285.143.102.351.313.625.633v6.554c0 .529-.051.867-.153 1.015-.167.24-.452.361-.855.361h-.327v.258h3.28v-.258h-.333c-.366 0-.637-.097-.813-.292-.125-.143-.188-.504-.188-1.084v-5.803l6.214 7.59h.25v-7.945c0-.528.051-.866.153-1.015.167-.24.45-.361.848-.361h.334v-.257h-3.281v.257h.327c.37 0 .641.097.813.292.13.144.195.505.195 1.084v5.435l-5.762-7.068zm-53.838.292c.899 0 1.603.315 2.113.945.635.792.952 1.995.952 3.607 0 1.488-.29 2.576-.869 3.267-.574.69-1.304 1.035-2.19 1.035-.829 0-1.496-.315-2-.945-.659-.83-.988-2.013-.988-3.552 0-1.5.318-2.64.952-3.419.51-.625 1.187-.938 2.03-.938zm47.798 0c.899 0 1.603.315 2.113.945.635.792.952 1.995.952 3.607 0 1.488-.29 2.576-.869 3.267-.574.69-1.304 1.035-2.189 1.035-.83 0-1.497-.315-2.002-.945-.658-.83-.987-2.013-.987-3.552 0-1.5.318-2.64.953-3.419.51-.625 1.186-.938 2.03-.938zm-83.85.236c1.112 0 2.022.375 2.731 1.126.71.75 1.064 1.777 1.064 3.079 0 1.293-.355 2.317-1.064 3.072-.709.755-1.6 1.133-2.675 1.133-.399 0-.892-.065-1.48-.195v-8.013a5.903 5.903 0 011.424-.202zm-10.94 1.418l1.599 3.809h-3.24zm22.603 0l1.598 3.809h-3.239z" font-weight="400" font-size="20.01" font-family="Arial" letter-spacing="1.436" paint-order="markers stroke fill"/><g font-weight="700" font-family="arial"><path d="M75.284 100.607v3.41H63.052q.199-1.933 1.192-3.658.994-1.738 3.924-4.6 2.36-2.312 2.894-3.135.72-1.137.72-2.247 0-1.229-.633-1.882-.621-.666-1.726-.666-1.093 0-1.739.692-.646.693-.745 2.3l-3.477-.366q.31-3.031 1.95-4.351 1.639-1.32 4.097-1.32 2.695 0 4.235 1.529 1.54 1.529 1.54 3.802 0 1.294-.447 2.47-.435 1.163-1.391 2.443-.633.85-2.285 2.444-1.652 1.594-2.099 2.116-.434.523-.707 1.02z" style="line-height:94.42%;-inkscape-font-specification:'arial Bold'" aria-label="2" font-size="31.43" letter-spacing=".024"/><path d="M93.92 84.592q2.736 0 4.278 1.953 1.837 2.312 1.837 7.67 0 5.343-1.85 7.681-1.529 1.927-4.265 1.927-2.75 0-4.432-2.106-1.683-2.12-1.683-7.541 0-5.319 1.85-7.657 1.528-1.927 4.265-1.927zm0 2.993q-.656 0-1.17.424-.513.411-.796 1.49-.372 1.4-.372 4.715t.334 4.56q.334 1.234.835 1.645.513.411 1.169.411.655 0 1.169-.41.514-.425.796-1.504.373-1.387.373-4.702 0-3.314-.334-4.547-.334-1.247-.848-1.658-.501-.424-1.156-.424z" style="line-height:94.42%;-inkscape-font-specification:'arial Bold'" aria-label="0" font-size="31.698" letter-spacing=".024"/><path d="M123.768 100.328v3.41h-12.232q.199-1.933 1.192-3.658.994-1.738 3.924-4.6 2.36-2.312 2.894-3.135.72-1.137.72-2.247 0-1.229-.633-1.882-.621-.666-1.726-.666-1.093 0-1.739.692-.646.693-.745 2.3l-3.477-.366q.31-3.031 1.95-4.351 1.639-1.32 4.098-1.32 2.694 0 4.234 1.529t1.54 3.802q0 1.294-.447 2.47-.435 1.163-1.391 2.443-.633.85-2.285 2.443-1.651 1.595-2.099 2.117-.434.523-.707 1.02z" style="line-height:94.42%;-inkscape-font-specification:'arial Bold'" aria-label="2" font-size="31.43" letter-spacing=".024"/><path d="M141.676 103.742v-3.856h-6.966v-3.215l7.384-12.17h2.74v12.157h2.114v3.228h-2.113v3.856zm0-7.084v-6.549l-3.913 6.549z" style="line-height:94.42%;-inkscape-font-specification:'arial Bold'" aria-label="4" font-size="30.397" letter-spacing=".023"/></g></g><g font-weight="400" font-family="Arial" letter-spacing="0" fill="#fff" fill-rule="evenodd" stroke-linecap="square"><text style="line-height:94.42%;-inkscape-font-specification:'Arial, Normal';font-variant-ligatures:normal;font-variant-caps:normal;font-variant-numeric:normal;font-variant-east-asian:normal" x="154.345" y="11.588" transform="matrix(1.1052 0 0 1.10565 -159.342 267.758)" font-size="3.489" stroke-width=".147"><tspan style="-inkscape-font-specification:'Arial Bold'" x="154.345" y="11.588" font-weight="700">wadasolutionsd@email.com</tspan></text><text style="line-height:94.42%;-inkscape-font-specification:'Arial, Normal';font-variant-ligatures:normal;font-variant-caps:normal;font-variant-numeric:normal;font-variant-east-asian:normal" x="145.086" y="17.046" transform="matrix(1.17523 0 0 1.03975 -159.342 267.758)" font-size="3.061" stroke-width=".129"><tspan style="-inkscape-font-specification:'Arial Bold'" x="145.086" y="17.046" font-weight="700">TEL. +00 123456789</tspan></text></g><text style="line-height:113.22%;-inkscape-font-specification:'Great Vibes, Normal';text-align:center" x="163.682" y="284.331" font-size="12.064" font-family="Great Vibes" letter-spacing="2.011" text-anchor="middle" fill="#fff" fill-rule="evenodd" stroke-width=".38" stroke-linecap="round" stroke-linejoin="bevel" stroke-miterlimit="3.7"><tspan x="164.688" y="284.331">Your Name</tspan></text><g transform="matrix(.78467 0 0 .78467 12.896 224.795)"><rect width="23.345" height="4.711" x="19.979" y="227.472" ry="2.355" transform="matrix(1.27442 0 0 1.27442 -16.435 -292.767)" fill="none" stroke="#fff" stroke-width=".108" stroke-linecap="round" stroke-linejoin="bevel" stroke-miterlimit="3.7"/><text style="text-align:center" x="24" y="1.244" font-weight="700" font-size="5.333" font-family="arial" text-anchor="middle" fill="#fff"><tspan style="-inkscape-font-specification:'Sans, Bold';font-variant-ligatures:normal;font-variant-caps:normal;font-variant-numeric:normal;font-variant-east-asian:normal" font-size="4.046" font-family="Sans">September</tspan></text></g><g font-family="arial" text-anchor="middle"><g font-size="2.667" fill="#fffc00"><text style="text-align:center" y="6.222" transform="matrix(.78467 0 0 .78467 12.896 227.97)">Mar</text><text style="text-align:center" x="8" y="6.222" transform="matrix(.78467 0 0 .78467 12.896 227.97)">Mer</text><text style="text-align:center" x="16" y="6.222" transform="matrix(.78467 0 0 .78467 12.896 227.97)">Gio</text><text style="text-align:center" x="24" y="6.222" transform="matrix(.78467 0 0 .78467 12.896 227.97)">Ven</text><text style="text-align:center" x="32" y="6.222" transform="matrix(.78467 0 0 .78467 12.896 227.97)">Sat</text><text style="text-align:center" x="40" y="6.222" transform="matrix(.78467 0 0 .78467 12.896 227.97)">Dom</text><text style="text-align:center" x="48" y="6.222" transform="matrix(.78467 0 0 .78467 12.896 227.97)">Lun</text></g><g font-size="4"><text style="text-align:center" y="12.444" fill="#e66100" transform="matrix(.78467 0 0 .78467 12.896 227.97)">26</text><text style="text-align:center" x="8" y="12.444" fill="#e66100" transform="matrix(.78467 0 0 .78467 12.896 227.97)">27</text><text style="text-align:center" x="16" y="12.444" fill="#e66100" transform="matrix(.78467 0 0 .78467 12.896 227.97)">28</text><text style="text-align:center" x="24" y="12.444" fill="#e66100" transform="matrix(.78467 0 0 .78467 12.896 227.97)">29</text><text style="text-align:center" x="32" y="12.444" fill="#e66100" transform="matrix(.78467 0 0 .78467 12.896 227.97)">30</text><text style="text-align:center" x="40" y="12.444" fill="#e66100" transform="matrix(.78467 0 0 .78467 12.896 227.97)">31</text><text style="text-align:center" x="48" y="12.444" fill="red" transform="matrix(.78467 0 0 .78467 12.896 227.97)">1</text><text style="text-align:center" y="18.667" fill="#fff" transform="matrix(.78467 0 0 .78467 12.896 227.97)">2</text><text style="text-align:center" x="8" y="18.667" fill="#fff" transform="matrix(.78467 0 0 .78467 12.896 227.97)">3</text><text style="text-align:center" x="16" y="18.667" fill="#fff" transform="matrix(.78467 0 0 .78467 12.896 227.97)">4</text><text style="text-align:center" x="24" y="18.667" fill="#fff" transform="matrix(.78467 0 0 .78467 12.896 227.97)">5</text><text style="text-align:center" x="32" y="18.667" fill="#fff" transform="matrix(.78467 0 0 .78467 12.896 227.97)">6</text><text style="text-align:center" x="40" y="18.667" fill="#fff" transform="matrix(.78467 0 0 .78467 12.896 227.97)">7</text><text style="text-align:center" x="48" y="18.667" fill="red" transform="matrix(.78467 0 0 .78467 12.896 227.97)">8</text><text style="text-align:center" y="24.889" fill="#fff" transform="matrix(.78467 0 0 .78467 12.896 227.97)">9</text><text style="text-align:center" x="8" y="24.889" fill="#fff" transform="matrix(.78467 0 0 .78467 12.896 227.97)">10</text><text style="text-align:center" x="16" y="24.889" fill="#fff" transform="matrix(.78467 0 0 .78467 12.896 227.97)">11</text><text style="text-align:center" x="24" y="24.889" fill="#fff" transform="matrix(.78467 0 0 .78467 12.896 227.97)">12</text><text style="text-align:center" x="32" y="24.889" fill="#fff" transform="matrix(.78467 0 0 .78467 12.896 227.97)">13</text><text style="text-align:center" x="40" y="24.889" fill="#fff" transform="matrix(.78467 0 0 .78467 12.896 227.97)">14</text><text style="text-align:center" x="48" y="24.889" fill="red" transform="matrix(.78467 0 0 .78467 12.896 227.97)">15</text><text style="text-align:center" y="31.111" fill="#fff" transform="matrix(.78467 0 0 .78467 12.896 227.97)">16</text><text style="text-align:center" x="8" y="31.111" fill="#fff" transform="matrix(.78467 0 0 .78467 12.896 227.97)">17</text><text style="text-align:center" x="16" y="31.111" fill="#fff" transform="matrix(.78467 0 0 .78467 12.896 227.97)">18</text><text style="text-align:center" x="24" y="31.111" fill="#fff" transform="matrix(.78467 0 0 .78467 12.896 227.97)">19</text><text style="text-align:center" x="32" y="31.111" fill="#fff" transform="matrix(.78467 0 0 .78467 12.896 227.97)">20</text><text style="text-align:center" x="40" y="31.111" fill="#fff" transform="matrix(.78467 0 0 .78467 12.896 227.97)">21</text><text style="text-align:center" x="48" y="31.111" fill="red" transform="matrix(.78467 0 0 .78467 12.896 227.97)">22</text><text style="text-align:center" y="37.333" fill="#fff" transform="matrix(.78467 0 0 .78467 12.896 227.97)">23</text><text style="text-align:center" x="8" y="37.333" fill="#fff" transform="matrix(.78467 0 0 .78467 12.896 227.97)">24</text><text style="text-align:center" x="16" y="37.333" fill="#fff" transform="matrix(.78467 0 0 .78467 12.896 227.97)">25</text><text style="text-align:center" x="24" y="37.333" fill="#fff" transform="matrix(.78467 0 0 .78467 12.896 227.97)">26</text><text style="text-align:center" x="32" y="37.333" fill="#fff" transform="matrix(.78467 0 0 .78467 12.896 227.97)">27</text><text style="text-align:center" x="40" y="37.333" fill="#fff" transform="matrix(.78467 0 0 .78467 12.896 227.97)">28</text><text style="text-align:center" x="48" y="37.333" fill="red" transform="matrix(.78467 0 0 .78467 12.896 227.97)">29</text><text style="text-align:center" y="43.556" fill="#fff" transform="matrix(.78467 0 0 .78467 12.896 227.97)">30</text><text style="text-align:center" x="8" y="43.556" fill="#e66100" transform="matrix(.78467 0 0 .78467 12.896 227.97)">1</text><text style="text-align:center" x="16" y="43.556" fill="#e66100" transform="matrix(.78467 0 0 .78467 12.896 227.97)">2</text><text style="text-align:center" x="24" y="43.556" fill="#e66100" transform="matrix(.78467 0 0 .78467 12.896 227.97)">3</text><text style="text-align:center" x="32" y="43.556" fill="#e66100" transform="matrix(.78467 0 0 .78467 12.896 227.97)">4</text><text style="text-align:center" x="40" y="43.556" fill="#e66100" transform="matrix(.78467 0 0 .78467 12.896 227.97)">5</text><text style="text-align:center" x="48" y="43.556" fill="#e66100" transform="matrix(.78467 0 0 .78467 12.896 227.97)">6</text></g></g><g font-family="arial" text-anchor="middle"><g font-size="2.667" fill="#fffc00"><text style="text-align:center" y="6.222" transform="matrix(.78467 0 0 .78467 61.766 227.971)">Mar</text><text style="text-align:center" x="8" y="6.222" transform="matrix(.78467 0 0 .78467 61.766 227.971)">Mer</text><text style="text-align:center" x="16" y="6.222" transform="matrix(.78467 0 0 .78467 61.766 227.971)">Gio</text><text style="text-align:center" x="24" y="6.222" transform="matrix(.78467 0 0 .78467 61.766 227.971)">Ven</text><text style="text-align:center" x="32" y="6.222" transform="matrix(.78467 0 0 .78467 61.766 227.971)">Sat</text><text style="text-align:center" x="40" y="6.222" transform="matrix(.78467 0 0 .78467 61.766 227.971)">Dom</text><text style="text-align:center" x="48" y="6.222" transform="matrix(.78467 0 0 .78467 61.766 227.971)">Lun</text></g><g font-size="4"><text style="text-align:center" y="12.444" fill="#e66100" transform="matrix(.78467 0 0 .78467 61.766 227.971)">30</text><text style="text-align:center" x="8" y="12.444" fill="#fff" transform="matrix(.78467 0 0 .78467 61.766 227.971)">1</text><text style="text-align:center" x="16" y="12.444" fill="#fff" transform="matrix(.78467 0 0 .78467 61.766 227.971)">2</text><text style="text-align:center" x="24" y="12.444" fill="#fff" transform="matrix(.78467 0 0 .78467 61.766 227.971)">3</text><text style="text-align:center" x="32" y="12.444" fill="#fff" transform="matrix(.78467 0 0 .78467 61.766 227.971)">4</text><text style="text-align:center" x="40" y="12.444" fill="#fff" transform="matrix(.78467 0 0 .78467 61.766 227.971)">5</text><text style="text-align:center" x="48" y="12.444" fill="red" transform="matrix(.78467 0 0 .78467 61.766 227.971)">6</text><text style="text-align:center" y="18.667" fill="#fff" transform="matrix(.78467 0 0 .78467 61.766 227.971)">7</text><text style="text-align:center" x="8" y="18.667" fill="#fff" transform="matrix(.78467 0 0 .78467 61.766 227.971)">8</text><text style="text-align:center" x="16" y="18.667" fill="#fff" transform="matrix(.78467 0 0 .78467 61.766 227.971)">9</text><text style="text-align:center" x="24" y="18.667" fill="#fff" transform="matrix(.78467 0 0 .78467 61.766 227.971)">10</text><text style="text-align:center" x="32" y="18.667" fill="#fff" transform="matrix(.78467 0 0 .78467 61.766 227.971)">11</text><text style="text-align:center" x="40" y="18.667" fill="#fff" transform="matrix(.78467 0 0 .78467 61.766 227.971)">12</text><text style="text-align:center" x="48" y="18.667" fill="red" transform="matrix(.78467 0 0 .78467 61.766 227.971)">13</text><text style="text-align:center" y="24.889" fill="#fff" transform="matrix(.78467 0 0 .78467 61.766 227.971)">14</text><text style="text-align:center" x="8" y="24.889" fill="#fff" transform="matrix(.78467 0 0 .78467 61.766 227.971)">15</text><text style="text-align:center" x="16" y="24.889" fill="#fff" transform="matrix(.78467 0 0 .78467 61.766 227.971)">16</text><text style="text-align:center" x="24" y="24.889" fill="#fff" transform="matrix(.78467 0 0 .78467 61.766 227.971)">17</text><text style="text-align:center" x="32" y="24.889" fill="#fff" transform="matrix(.78467 0 0 .78467 61.766 227.971)">18</text><text style="text-align:center" x="40" y="24.889" fill="#fff" transform="matrix(.78467 0 0 .78467 61.766 227.971)">19</text><text style="text-align:center" x="48" y="24.889" fill="red" transform="matrix(.78467 0 0 .78467 61.766 227.971)">20</text><text style="text-align:center" y="31.111" fill="#fff" transform="matrix(.78467 0 0 .78467 61.766 227.971)">21</text><text style="text-align:center" x="8" y="31.111" fill="#fff" transform="matrix(.78467 0 0 .78467 61.766 227.971)">22</text><text style="text-align:center" x="16" y="31.111" fill="#fff" transform="matrix(.78467 0 0 .78467 61.766 227.971)">23</text><text style="text-align:center" x="24" y="31.111" fill="#fff" transform="matrix(.78467 0 0 .78467 61.766 227.971)">24</text><text style="text-align:center" x="32" y="31.111" fill="#fff" transform="matrix(.78467 0 0 .78467 61.766 227.971)">25</text><text style="text-align:center" x="40" y="31.111" fill="#fff" transform="matrix(.78467 0 0 .78467 61.766 227.971)">26</text><text style="text-align:center" x="48" y="31.111" fill="red" transform="matrix(.78467 0 0 .78467 61.766 227.971)">27</text><text style="text-align:center" y="37.333" fill="#fff" transform="matrix(.78467 0 0 .78467 61.766 227.971)">28</text><text style="text-align:center" x="8" y="37.333" fill="#fff" transform="matrix(.78467 0 0 .78467 61.766 227.971)">29</text><text style="text-align:center" x="16" y="37.333" fill="#fff" transform="matrix(.78467 0 0 .78467 61.766 227.971)">30</text><text style="text-align:center" x="24" y="37.333" fill="#fff" transform="matrix(.78467 0 0 .78467 61.766 227.971)">31</text><text style="text-align:center" x="32" y="37.333" fill="#e66100" transform="matrix(.78467 0 0 .78467 61.766 227.971)">1</text><text style="text-align:center" x="40" y="37.333" fill="#e66100" transform="matrix(.78467 0 0 .78467 61.766 227.971)">2</text><text style="text-align:center" x="48" y="37.333" fill="#e66100" transform="matrix(.78467 0 0 .78467 61.766 227.971)">3</text><text style="text-align:center" y="43.556" fill="#e66100" transform="matrix(.78467 0 0 .78467 61.766 227.971)">4</text><text style="text-align:center" x="8" y="43.556" fill="#e66100" transform="matrix(.78467 0 0 .78467 61.766 227.971)">5</text><text style="text-align:center" x="16" y="43.556" fill="#e66100" transform="matrix(.78467 0 0 .78467 61.766 227.971)">6</text><text style="text-align:center" x="24" y="43.556" fill="#e66100" transform="matrix(.78467 0 0 .78467 61.766 227.971)">7</text><text style="text-align:center" x="32" y="43.556" fill="#e66100" transform="matrix(.78467 0 0 .78467 61.766 227.971)">8</text><text style="text-align:center" x="40" y="43.556" fill="#e66100" transform="matrix(.78467 0 0 .78467 61.766 227.971)">9</text><text style="text-align:center" x="48" y="43.556" fill="#e66100" transform="matrix(.78467 0 0 .78467 61.766 227.971)">10</text></g></g><g transform="translate(0 -4.932)"><text style="text-align:center" x="80.598" y="230.704" font-weight="700" font-size="4.185" font-family="arial" text-anchor="middle" fill="#fff" stroke-width=".785"><tspan style="-inkscape-font-specification:'Sans, Bold';font-variant-ligatures:normal;font-variant-caps:normal;font-variant-numeric:normal;font-variant-east-asian:normal" font-size="3.175" font-family="Sans">October</tspan></text><rect width="23.345" height="4.711" x="69.001" y="227.165" ry="2.355" fill="none" stroke="#fff" stroke-width=".108" stroke-linecap="round" stroke-linejoin="bevel" stroke-miterlimit="3.7"/></g><g font-family="arial" text-anchor="middle"><g font-size="2.667" fill="#fffc00"><text style="text-align:center" y="6.222" transform="matrix(.78467 0 0 .78467 110.618 227.945)">Mar</text><text style="text-align:center" x="8" y="6.222" transform="matrix(.78467 0 0 .78467 110.618 227.945)">Mer</text><text style="text-align:center" x="16" y="6.222" transform="matrix(.78467 0 0 .78467 110.618 227.945)">Gio</text><text style="text-align:center" x="24" y="6.222" transform="matrix(.78467 0 0 .78467 110.618 227.945)">Ven</text><text style="text-align:center" x="32" y="6.222" transform="matrix(.78467 0 0 .78467 110.618 227.945)">Sat</text><text style="text-align:center" x="40" y="6.222" transform="matrix(.78467 0 0 .78467 110.618 227.945)">Dom</text><text style="text-align:center" x="48" y="6.222" transform="matrix(.78467 0 0 .78467 110.618 227.945)">Lun</text></g><g font-size="4"><text style="text-align:center" y="12.444" fill="#e66100" transform="matrix(.78467 0 0 .78467 110.618 227.945)">28</text><text style="text-align:center" x="8" y="12.444" fill="#e66100" transform="matrix(.78467 0 0 .78467 110.618 227.945)">29</text><text style="text-align:center" x="16" y="12.444" fill="#e66100" transform="matrix(.78467 0 0 .78467 110.618 227.945)">30</text><text style="text-align:center" x="24" y="12.444" fill="#e66100" transform="matrix(.78467 0 0 .78467 110.618 227.945)">31</text><text style="text-align:center" x="32" y="12.444" fill="#fff" transform="matrix(.78467 0 0 .78467 110.618 227.945)">1</text><text style="text-align:center" x="40" y="12.444" fill="#fff" transform="matrix(.78467 0 0 .78467 110.618 227.945)">2</text><text style="text-align:center" x="48" y="12.444" fill="red" transform="matrix(.78467 0 0 .78467 110.618 227.945)">3</text><text style="text-align:center" y="18.667" fill="#fff" transform="matrix(.78467 0 0 .78467 110.618 227.945)">4</text><text style="text-align:center" x="8" y="18.667" fill="#fff" transform="matrix(.78467 0 0 .78467 110.618 227.945)">5</text><text style="text-align:center" x="16" y="18.667" fill="#fff" transform="matrix(.78467 0 0 .78467 110.618 227.945)">6</text><text style="text-align:center" x="24" y="18.667" fill="#fff" transform="matrix(.78467 0 0 .78467 110.618 227.945)">7</text><text style="text-align:center" x="32" y="18.667" fill="#fff" transform="matrix(.78467 0 0 .78467 110.618 227.945)">8</text><text style="text-align:center" x="40" y="18.667" fill="#fff" transform="matrix(.78467 0 0 .78467 110.618 227.945)">9</text><text style="text-align:center" x="48" y="18.667" fill="red" transform="matrix(.78467 0 0 .78467 110.618 227.945)">10</text><text style="text-align:center" y="24.889" fill="#fff" transform="matrix(.78467 0 0 .78467 110.618 227.945)">11</text><text style="text-align:center" x="8" y="24.889" fill="#fff" transform="matrix(.78467 0 0 .78467 110.618 227.945)">12</text><text style="text-align:center" x="16" y="24.889" fill="#fff" transform="matrix(.78467 0 0 .78467 110.618 227.945)">13</text><text style="text-align:center" x="24" y="24.889" fill="#fff" transform="matrix(.78467 0 0 .78467 110.618 227.945)">14</text><text style="text-align:center" x="32" y="24.889" fill="#fff" transform="matrix(.78467 0 0 .78467 110.618 227.945)">15</text><text style="text-align:center" x="40" y="24.889" fill="#fff" transform="matrix(.78467 0 0 .78467 110.618 227.945)">16</text><text style="text-align:center" x="48" y="24.889" fill="red" transform="matrix(.78467 0 0 .78467 110.618 227.945)">17</text><text style="text-align:center" y="31.111" fill="#fff" transform="matrix(.78467 0 0 .78467 110.618 227.945)">18</text><text style="text-align:center" x="8" y="31.111" fill="#fff" transform="matrix(.78467 0 0 .78467 110.618 227.945)">19</text><text style="text-align:center" x="16" y="31.111" fill="#fff" transform="matrix(.78467 0 0 .78467 110.618 227.945)">20</text><text style="text-align:center" x="24" y="31.111" fill="#fff" transform="matrix(.78467 0 0 .78467 110.618 227.945)">21</text><text style="text-align:center" x="32" y="31.111" fill="#fff" transform="matrix(.78467 0 0 .78467 110.618 227.945)">22</text><text style="text-align:center" x="40" y="31.111" fill="#fff" transform="matrix(.78467 0 0 .78467 110.618 227.945)">23</text><text style="text-align:center" x="48" y="31.111" fill="red" transform="matrix(.78467 0 0 .78467 110.618 227.945)">24</text><text style="text-align:center" y="37.333" fill="#fff" transform="matrix(.78467 0 0 .78467 110.618 227.945)">25</text><text style="text-align:center" x="8" y="37.333" fill="#fff" transform="matrix(.78467 0 0 .78467 110.618 227.945)">26</text><text style="text-align:center" x="16" y="37.333" fill="#fff" transform="matrix(.78467 0 0 .78467 110.618 227.945)">27</text><text style="text-align:center" x="24" y="37.333" fill="#fff" transform="matrix(.78467 0 0 .78467 110.618 227.945)">28</text><text style="text-align:center" x="32" y="37.333" fill="#fff" transform="matrix(.78467 0 0 .78467 110.618 227.945)">29</text><text style="text-align:center" x="40" y="37.333" fill="#fff" transform="matrix(.78467 0 0 .78467 110.618 227.945)">30</text><text style="text-align:center" x="48" y="37.333" fill="#e66100" transform="matrix(.78467 0 0 .78467 110.618 227.945)">1</text><text style="text-align:center" y="43.556" fill="#e66100" transform="matrix(.78467 0 0 .78467 110.618 227.945)">2</text><text style="text-align:center" x="8" y="43.556" fill="#e66100" transform="matrix(.78467 0 0 .78467 110.618 227.945)">3</text><text style="text-align:center" x="16" y="43.556" fill="#e66100" transform="matrix(.78467 0 0 .78467 110.618 227.945)">4</text><text style="text-align:center" x="24" y="43.556" fill="#e66100" transform="matrix(.78467 0 0 .78467 110.618 227.945)">5</text><text style="text-align:center" x="32" y="43.556" fill="#e66100" transform="matrix(.78467 0 0 .78467 110.618 227.945)">6</text><text style="text-align:center" x="40" y="43.556" fill="#e66100" transform="matrix(.78467 0 0 .78467 110.618 227.945)">7</text><text style="text-align:center" x="48" y="43.556" fill="#e66100" transform="matrix(.78467 0 0 .78467 110.618 227.945)">8</text></g></g><g transform="translate(-.008 -4.932)"><text style="text-align:center" x="129.458" y="230.678" font-weight="700" font-size="4.185" font-family="arial" text-anchor="middle" fill="#fff" stroke-width=".785"><tspan style="-inkscape-font-specification:'Sans, Bold';font-variant-ligatures:normal;font-variant-caps:normal;font-variant-numeric:normal;font-variant-east-asian:normal" font-size="3.175" font-family="Sans">November</tspan></text><rect width="23.345" height="4.711" x="117.927" y="227.139" ry="2.355" fill="none" stroke="#fff" stroke-width=".108" stroke-linecap="round" stroke-linejoin="bevel" stroke-miterlimit="3.7"/></g><g font-family="arial" text-anchor="middle"><g font-size="2.667" fill="#fffc00"><text style="text-align:center" y="6.222" transform="matrix(.78467 0 0 .78467 159.47 227.945)">Mar</text><text style="text-align:center" x="8" y="6.222" transform="matrix(.78467 0 0 .78467 159.47 227.945)">Mer</text><text style="text-align:center" x="16" y="6.222" transform="matrix(.78467 0 0 .78467 159.47 227.945)">Gio</text><text style="text-align:center" x="24" y="6.222" transform="matrix(.78467 0 0 .78467 159.47 227.945)">Ven</text><text style="text-align:center" x="32" y="6.222" transform="matrix(.78467 0 0 .78467 159.47 227.945)">Sat</text><text style="text-align:center" x="40" y="6.222" transform="matrix(.78467 0 0 .78467 159.47 227.945)">Dom</text><text style="text-align:center" x="48" y="6.222" transform="matrix(.78467 0 0 .78467 159.47 227.945)">Lun</text></g><g font-size="4"><text style="text-align:center" y="12.444" fill="#e66100" transform="matrix(.78467 0 0 .78467 159.47 227.945)">25</text><text style="text-align:center" x="8" y="12.444" fill="#e66100" transform="matrix(.78467 0 0 .78467 159.47 227.945)">26</text><text style="text-align:center" x="16" y="12.444" fill="#e66100" transform="matrix(.78467 0 0 .78467 159.47 227.945)">27</text><text style="text-align:center" x="24" y="12.444" fill="#e66100" transform="matrix(.78467 0 0 .78467 159.47 227.945)">28</text><text style="text-align:center" x="32" y="12.444" fill="#e66100" transform="matrix(.78467 0 0 .78467 159.47 227.945)">29</text><text style="text-align:center" x="40" y="12.444" fill="#e66100" transform="matrix(.78467 0 0 .78467 159.47 227.945)">30</text><text style="text-align:center" x="48" y="12.444" fill="red" transform="matrix(.78467 0 0 .78467 159.47 227.945)">1</text><text style="text-align:center" y="18.667" fill="#fff" transform="matrix(.78467 0 0 .78467 159.47 227.945)">2</text><text style="text-align:center" x="8" y="18.667" fill="#fff" transform="matrix(.78467 0 0 .78467 159.47 227.945)">3</text><text style="text-align:center" x="16" y="18.667" fill="#fff" transform="matrix(.78467 0 0 .78467 159.47 227.945)">4</text><text style="text-align:center" x="24" y="18.667" fill="#fff" transform="matrix(.78467 0 0 .78467 159.47 227.945)">5</text><text style="text-align:center" x="32" y="18.667" fill="#fff" transform="matrix(.78467 0 0 .78467 159.47 227.945)">6</text><text style="text-align:center" x="40" y="18.667" fill="#fff" transform="matrix(.78467 0 0 .78467 159.47 227.945)">7</text><text style="text-align:center" x="48" y="18.667" fill="red" transform="matrix(.78467 0 0 .78467 159.47 227.945)">8</text><text style="text-align:center" y="24.889" fill="#fff" transform="matrix(.78467 0 0 .78467 159.47 227.945)">9</text><text style="text-align:center" x="8" y="24.889" fill="#fff" transform="matrix(.78467 0 0 .78467 159.47 227.945)">10</text><text style="text-align:center" x="16" y="24.889" fill="#fff" transform="matrix(.78467 0 0 .78467 159.47 227.945)">11</text><text style="text-align:center" x="24" y="24.889" fill="#fff" transform="matrix(.78467 0 0 .78467 159.47 227.945)">12</text><text style="text-align:center" x="32" y="24.889" fill="#fff" transform="matrix(.78467 0 0 .78467 159.47 227.945)">13</text><text style="text-align:center" x="40" y="24.889" fill="#fff" transform="matrix(.78467 0 0 .78467 159.47 227.945)">14</text><text style="text-align:center" x="48" y="24.889" fill="red" transform="matrix(.78467 0 0 .78467 159.47 227.945)">15</text><text style="text-align:center" y="31.111" fill="#fff" transform="matrix(.78467 0 0 .78467 159.47 227.945)">16</text><text style="text-align:center" x="8" y="31.111" fill="#fff" transform="matrix(.78467 0 0 .78467 159.47 227.945)">17</text><text style="text-align:center" x="16" y="31.111" fill="#fff" transform="matrix(.78467 0 0 .78467 159.47 227.945)">18</text><text style="text-align:center" x="24" y="31.111" fill="#fff" transform="matrix(.78467 0 0 .78467 159.47 227.945)">19</text><text style="text-align:center" x="32" y="31.111" fill="#fff" transform="matrix(.78467 0 0 .78467 159.47 227.945)">20</text><text style="text-align:center" x="40" y="31.111" fill="#fff" transform="matrix(.78467 0 0 .78467 159.47 227.945)">21</text><text style="text-align:center" x="48" y="31.111" fill="red" transform="matrix(.78467 0 0 .78467 159.47 227.945)">22</text><text style="text-align:center" y="37.333" fill="#fff" transform="matrix(.78467 0 0 .78467 159.47 227.945)">23</text><text style="text-align:center" x="8" y="37.333" fill="#fff" transform="matrix(.78467 0 0 .78467 159.47 227.945)">24</text><text style="text-align:center" x="16" y="37.333" fill="#fff" transform="matrix(.78467 0 0 .78467 159.47 227.945)">25</text><text style="text-align:center" x="24" y="37.333" fill="#fff" transform="matrix(.78467 0 0 .78467 159.47 227.945)">26</text><text style="text-align:center" x="32" y="37.333" fill="#fff" transform="matrix(.78467 0 0 .78467 159.47 227.945)">27</text><text style="text-align:center" x="40" y="37.333" fill="#fff" transform="matrix(.78467 0 0 .78467 159.47 227.945)">28</text><text style="text-align:center" x="48" y="37.333" fill="red" transform="matrix(.78467 0 0 .78467 159.47 227.945)">29</text><text style="text-align:center" y="43.556" fill="#fff" transform="matrix(.78467 0 0 .78467 159.47 227.945)">30</text><text style="text-align:center" x="8" y="43.556" fill="#fff" transform="matrix(.78467 0 0 .78467 159.47 227.945)">31</text><text style="text-align:center" x="16" y="43.556" fill="#e66100" transform="matrix(.78467 0 0 .78467 159.47 227.945)">1</text><text style="text-align:center" x="24" y="43.556" fill="#e66100" transform="matrix(.78467 0 0 .78467 159.47 227.945)">2</text><text style="text-align:center" x="32" y="43.556" fill="#e66100" transform="matrix(.78467 0 0 .78467 159.47 227.945)">3</text><text style="text-align:center" x="40" y="43.556" fill="#e66100" transform="matrix(.78467 0 0 .78467 159.47 227.945)">4</text><text style="text-align:center" x="48" y="43.556" fill="#e66100" transform="matrix(.78467 0 0 .78467 159.47 227.945)">5</text></g></g><g transform="translate(0 -4.932)"><text style="text-align:center" x="178.302" y="230.678" font-weight="700" font-size="4.185" font-family="arial" text-anchor="middle" fill="#fff" stroke-width=".785"><tspan style="-inkscape-font-specification:'Sans, Bold';font-variant-ligatures:normal;font-variant-caps:normal;font-variant-numeric:normal;font-variant-east-asian:normal" font-size="3.175" font-family="Sans">December</tspan></text><rect width="23.345" height="4.711" x="166.771" y="227.139" ry="2.355" fill="none" stroke="#fff" stroke-width=".108" stroke-linecap="round" stroke-linejoin="bevel" stroke-miterlimit="3.7"/></g><g font-family="arial" text-anchor="middle"><g font-size="2.667" fill="#fffc00"><text style="text-align:center" y="6.222" transform="matrix(.78467 0 0 .78467 159.467 176.712)">Mar</text><text style="text-align:center" x="8" y="6.222" transform="matrix(.78467 0 0 .78467 159.467 176.712)">Mer</text><text style="text-align:center" x="16" y="6.222" transform="matrix(.78467 0 0 .78467 159.467 176.712)">Gio</text><text style="text-align:center" x="24" y="6.222" transform="matrix(.78467 0 0 .78467 159.467 176.712)">Ven</text><text style="text-align:center" x="32" y="6.222" transform="matrix(.78467 0 0 .78467 159.467 176.712)">Sat</text><text style="text-align:center" x="40" y="6.222" transform="matrix(.78467 0 0 .78467 159.467 176.712)">Dom</text><text style="text-align:center" x="48" y="6.222" transform="matrix(.78467 0 0 .78467 159.467 176.712)">Lun</text></g><g font-size="4"><text style="text-align:center" y="12.444" fill="#e66100" transform="matrix(.78467 0 0 .78467 159.467 176.712)">29</text><text style="text-align:center" x="8" y="12.444" fill="#e66100" transform="matrix(.78467 0 0 .78467 159.467 176.712)">30</text><text style="text-align:center" x="16" y="12.444" fill="#e66100" transform="matrix(.78467 0 0 .78467 159.467 176.712)">31</text><text style="text-align:center" x="24" y="12.444" fill="#fff" transform="matrix(.78467 0 0 .78467 159.467 176.712)">1</text><text style="text-align:center" x="32" y="12.444" fill="#fff" transform="matrix(.78467 0 0 .78467 159.467 176.712)">2</text><text style="text-align:center" x="40" y="12.444" fill="#fff" transform="matrix(.78467 0 0 .78467 159.467 176.712)">3</text><text style="text-align:center" x="48" y="12.444" fill="red" transform="matrix(.78467 0 0 .78467 159.467 176.712)">4</text><text style="text-align:center" y="18.667" fill="#fff" transform="matrix(.78467 0 0 .78467 159.467 176.712)">5</text><text style="text-align:center" x="8" y="18.667" fill="#fff" transform="matrix(.78467 0 0 .78467 159.467 176.712)">6</text><text style="text-align:center" x="16" y="18.667" fill="#fff" transform="matrix(.78467 0 0 .78467 159.467 176.712)">7</text><text style="text-align:center" x="24" y="18.667" fill="#fff" transform="matrix(.78467 0 0 .78467 159.467 176.712)">8</text><text style="text-align:center" x="32" y="18.667" fill="#fff" transform="matrix(.78467 0 0 .78467 159.467 176.712)">9</text><text style="text-align:center" x="40" y="18.667" fill="#fff" transform="matrix(.78467 0 0 .78467 159.467 176.712)">10</text><text style="text-align:center" x="48" y="18.667" fill="red" transform="matrix(.78467 0 0 .78467 159.467 176.712)">11</text><text style="text-align:center" y="24.889" fill="#fff" transform="matrix(.78467 0 0 .78467 159.467 176.712)">12</text><text style="text-align:center" x="8" y="24.889" fill="#fff" transform="matrix(.78467 0 0 .78467 159.467 176.712)">13</text><text style="text-align:center" x="16" y="24.889" fill="#fff" transform="matrix(.78467 0 0 .78467 159.467 176.712)">14</text><text style="text-align:center" x="24" y="24.889" fill="#fff" transform="matrix(.78467 0 0 .78467 159.467 176.712)">15</text><text style="text-align:center" x="32" y="24.889" fill="#fff" transform="matrix(.78467 0 0 .78467 159.467 176.712)">16</text><text style="text-align:center" x="40" y="24.889" fill="#fff" transform="matrix(.78467 0 0 .78467 159.467 176.712)">17</text><text style="text-align:center" x="48" y="24.889" fill="red" transform="matrix(.78467 0 0 .78467 159.467 176.712)">18</text><text style="text-align:center" y="31.111" fill="#fff" transform="matrix(.78467 0 0 .78467 159.467 176.712)">19</text><text style="text-align:center" x="8" y="31.111" fill="#fff" transform="matrix(.78467 0 0 .78467 159.467 176.712)">20</text><text style="text-align:center" x="16" y="31.111" fill="#fff" transform="matrix(.78467 0 0 .78467 159.467 176.712)">21</text><text style="text-align:center" x="24" y="31.111" fill="#fff" transform="matrix(.78467 0 0 .78467 159.467 176.712)">22</text><text style="text-align:center" x="32" y="31.111" fill="#fff" transform="matrix(.78467 0 0 .78467 159.467 176.712)">23</text><text style="text-align:center" x="40" y="31.111" fill="#fff" transform="matrix(.78467 0 0 .78467 159.467 176.712)">24</text><text style="text-align:center" x="48" y="31.111" fill="red" transform="matrix(.78467 0 0 .78467 159.467 176.712)">25</text><text style="text-align:center" y="37.333" fill="#fff" transform="matrix(.78467 0 0 .78467 159.467 176.712)">26</text><text style="text-align:center" x="8" y="37.333" fill="#fff" transform="matrix(.78467 0 0 .78467 159.467 176.712)">27</text><text style="text-align:center" x="16" y="37.333" fill="#fff" transform="matrix(.78467 0 0 .78467 159.467 176.712)">28</text><text style="text-align:center" x="24" y="37.333" fill="#fff" transform="matrix(.78467 0 0 .78467 159.467 176.712)">29</text><text style="text-align:center" x="32" y="37.333" fill="#fff" transform="matrix(.78467 0 0 .78467 159.467 176.712)">30</text><text style="text-align:center" x="40" y="37.333" fill="#fff" transform="matrix(.78467 0 0 .78467 159.467 176.712)">31</text><text style="text-align:center" x="48" y="37.333" fill="#e66100" transform="matrix(.78467 0 0 .78467 159.467 176.712)">1</text><text style="text-align:center" y="43.556" fill="#e66100" transform="matrix(.78467 0 0 .78467 159.467 176.712)">2</text><text style="text-align:center" x="8" y="43.556" fill="#e66100" transform="matrix(.78467 0 0 .78467 159.467 176.712)">3</text><text style="text-align:center" x="16" y="43.556" fill="#e66100" transform="matrix(.78467 0 0 .78467 159.467 176.712)">4</text><text style="text-align:center" x="24" y="43.556" fill="#e66100" transform="matrix(.78467 0 0 .78467 159.467 176.712)">5</text><text style="text-align:center" x="32" y="43.556" fill="#e66100" transform="matrix(.78467 0 0 .78467 159.467 176.712)">6</text><text style="text-align:center" x="40" y="43.556" fill="#e66100" transform="matrix(.78467 0 0 .78467 159.467 176.712)">7</text><text style="text-align:center" x="48" y="43.556" fill="#e66100" transform="matrix(.78467 0 0 .78467 159.467 176.712)">8</text></g></g><g transform="translate(-.003 -12.856)"><text style="text-align:center" x="178.302" y="187.37" font-weight="700" font-size="4.185" font-family="arial" text-anchor="middle" fill="#fff" stroke-width=".785"><tspan style="-inkscape-font-specification:'Sans, Bold';font-variant-ligatures:normal;font-variant-caps:normal;font-variant-numeric:normal;font-variant-east-asian:normal" font-size="3.175" font-family="Sans">August</tspan></text><rect width="23.345" height="4.711" x="166.601" y="184.199" ry="2.355" fill="none" stroke="#fff" stroke-width=".108" stroke-linecap="round" stroke-linejoin="bevel" stroke-miterlimit="3.7"/></g><g font-family="arial" text-anchor="middle"><g font-size="2.667" fill="#fffc00"><text style="text-align:center" y="6.222" transform="matrix(.78467 0 0 .78467 110.61 176.737)">Mar</text><text style="text-align:center" x="8" y="6.222" transform="matrix(.78467 0 0 .78467 110.61 176.737)">Mer</text><text style="text-align:center" x="16" y="6.222" transform="matrix(.78467 0 0 .78467 110.61 176.737)">Gio</text><text style="text-align:center" x="24" y="6.222" transform="matrix(.78467 0 0 .78467 110.61 176.737)">Ven</text><text style="text-align:center" x="32" y="6.222" transform="matrix(.78467 0 0 .78467 110.61 176.737)">Sat</text><text style="text-align:center" x="40" y="6.222" transform="matrix(.78467 0 0 .78467 110.61 176.737)">Dom</text><text style="text-align:center" x="48" y="6.222" transform="matrix(.78467 0 0 .78467 110.61 176.737)">Lun</text></g><g font-size="4"><text style="text-align:center" y="12.444" fill="#fff" transform="matrix(.78467 0 0 .78467 110.61 176.737)">1</text><text style="text-align:center" x="8" y="12.444" fill="#fff" transform="matrix(.78467 0 0 .78467 110.61 176.737)">2</text><text style="text-align:center" x="16" y="12.444" fill="#fff" transform="matrix(.78467 0 0 .78467 110.61 176.737)">3</text><text style="text-align:center" x="24" y="12.444" fill="#fff" transform="matrix(.78467 0 0 .78467 110.61 176.737)">4</text><text style="text-align:center" x="32" y="12.444" fill="#fff" transform="matrix(.78467 0 0 .78467 110.61 176.737)">5</text><text style="text-align:center" x="40" y="12.444" fill="#fff" transform="matrix(.78467 0 0 .78467 110.61 176.737)">6</text><text style="text-align:center" x="48" y="12.444" fill="red" transform="matrix(.78467 0 0 .78467 110.61 176.737)">7</text><text style="text-align:center" y="18.667" fill="#fff" transform="matrix(.78467 0 0 .78467 110.61 176.737)">8</text><text style="text-align:center" x="8" y="18.667" fill="#fff" transform="matrix(.78467 0 0 .78467 110.61 176.737)">9</text><text style="text-align:center" x="16" y="18.667" fill="#fff" transform="matrix(.78467 0 0 .78467 110.61 176.737)">10</text><text style="text-align:center" x="24" y="18.667" fill="#fff" transform="matrix(.78467 0 0 .78467 110.61 176.737)">11</text><text style="text-align:center" x="32" y="18.667" fill="#fff" transform="matrix(.78467 0 0 .78467 110.61 176.737)">12</text><text style="text-align:center" x="40" y="18.667" fill="#fff" transform="matrix(.78467 0 0 .78467 110.61 176.737)">13</text><text style="text-align:center" x="48" y="18.667" fill="red" transform="matrix(.78467 0 0 .78467 110.61 176.737)">14</text><text style="text-align:center" y="24.889" fill="#fff" transform="matrix(.78467 0 0 .78467 110.61 176.737)">15</text><text style="text-align:center" x="8" y="24.889" fill="#fff" transform="matrix(.78467 0 0 .78467 110.61 176.737)">16</text><text style="text-align:center" x="16" y="24.889" fill="#fff" transform="matrix(.78467 0 0 .78467 110.61 176.737)">17</text><text style="text-align:center" x="24" y="24.889" fill="#fff" transform="matrix(.78467 0 0 .78467 110.61 176.737)">18</text><text style="text-align:center" x="32" y="24.889" fill="#fff" transform="matrix(.78467 0 0 .78467 110.61 176.737)">19</text><text style="text-align:center" x="40" y="24.889" fill="#fff" transform="matrix(.78467 0 0 .78467 110.61 176.737)">20</text><text style="text-align:center" x="48" y="24.889" fill="red" transform="matrix(.78467 0 0 .78467 110.61 176.737)">21</text><text style="text-align:center" y="31.111" fill="#fff" transform="matrix(.78467 0 0 .78467 110.61 176.737)">22</text><text style="text-align:center" x="8" y="31.111" fill="#fff" transform="matrix(.78467 0 0 .78467 110.61 176.737)">23</text><text style="text-align:center" x="16" y="31.111" fill="#fff" transform="matrix(.78467 0 0 .78467 110.61 176.737)">24</text><text style="text-align:center" x="24" y="31.111" fill="#fff" transform="matrix(.78467 0 0 .78467 110.61 176.737)">25</text><text style="text-align:center" x="32" y="31.111" fill="#fff" transform="matrix(.78467 0 0 .78467 110.61 176.737)">26</text><text style="text-align:center" x="40" y="31.111" fill="#fff" transform="matrix(.78467 0 0 .78467 110.61 176.737)">27</text><text style="text-align:center" x="48" y="31.111" fill="red" transform="matrix(.78467 0 0 .78467 110.61 176.737)">28</text><text style="text-align:center" y="37.333" fill="#fff" transform="matrix(.78467 0 0 .78467 110.61 176.737)">29</text><text style="text-align:center" x="8" y="37.333" fill="#fff" transform="matrix(.78467 0 0 .78467 110.61 176.737)">30</text><text style="text-align:center" x="16" y="37.333" fill="#fff" transform="matrix(.78467 0 0 .78467 110.61 176.737)">31</text><text style="text-align:center" x="24" y="37.333" fill="#e66100" transform="matrix(.78467 0 0 .78467 110.61 176.737)">1</text><text style="text-align:center" x="32" y="37.333" fill="#e66100" transform="matrix(.78467 0 0 .78467 110.61 176.737)">2</text><text style="text-align:center" x="40" y="37.333" fill="#e66100" transform="matrix(.78467 0 0 .78467 110.61 176.737)">3</text><text style="text-align:center" x="48" y="37.333" fill="#e66100" transform="matrix(.78467 0 0 .78467 110.61 176.737)">4</text><text style="text-align:center" y="43.556" fill="#e66100" transform="matrix(.78467 0 0 .78467 110.61 176.737)">5</text><text style="text-align:center" x="8" y="43.556" fill="#e66100" transform="matrix(.78467 0 0 .78467 110.61 176.737)">6</text><text style="text-align:center" x="16" y="43.556" fill="#e66100" transform="matrix(.78467 0 0 .78467 110.61 176.737)">7</text><text style="text-align:center" x="24" y="43.556" fill="#e66100" transform="matrix(.78467 0 0 .78467 110.61 176.737)">8</text><text style="text-align:center" x="32" y="43.556" fill="#e66100" transform="matrix(.78467 0 0 .78467 110.61 176.737)">9</text><text style="text-align:center" x="40" y="43.556" fill="#e66100" transform="matrix(.78467 0 0 .78467 110.61 176.737)">10</text><text style="text-align:center" x="48" y="43.556" fill="#e66100" transform="matrix(.78467 0 0 .78467 110.61 176.737)">11</text></g></g><g transform="translate(-.014 -12.832)"><text style="text-align:center" x="129.455" y="187.37" font-weight="700" font-size="4.185" font-family="arial" text-anchor="middle" fill="#fff" stroke-width=".785"><tspan style="-inkscape-font-specification:'Sans, Bold';font-variant-ligatures:normal;font-variant-caps:normal;font-variant-numeric:normal;font-variant-east-asian:normal" font-size="3.175" font-family="Sans">July</tspan></text><rect width="23.345" height="4.711" x="117.665" y="184.151" ry="2.355" fill="none" stroke="#fff" stroke-width=".108" stroke-linecap="round" stroke-linejoin="bevel" stroke-miterlimit="3.7"/></g><g><g font-family="arial" text-anchor="middle"><g font-size="2.667" fill="#fffc00"><text style="text-align:center" y="6.222" transform="matrix(.78467 0 0 .78467 61.757 176.737)">Mar</text><text style="text-align:center" x="8" y="6.222" transform="matrix(.78467 0 0 .78467 61.757 176.737)">Mer</text><text style="text-align:center" x="16" y="6.222" transform="matrix(.78467 0 0 .78467 61.757 176.737)">Gio</text><text style="text-align:center" x="24" y="6.222" transform="matrix(.78467 0 0 .78467 61.757 176.737)">Ven</text><text style="text-align:center" x="32" y="6.222" transform="matrix(.78467 0 0 .78467 61.757 176.737)">Sat</text><text style="text-align:center" x="40" y="6.222" transform="matrix(.78467 0 0 .78467 61.757 176.737)">Dom</text><text style="text-align:center" x="48" y="6.222" transform="matrix(.78467 0 0 .78467 61.757 176.737)">Lun</text></g><g font-size="4"><text style="text-align:center" y="12.444" fill="#e66100" transform="matrix(.78467 0 0 .78467 61.757 176.737)">27</text><text style="text-align:center" x="8" y="12.444" fill="#e66100" transform="matrix(.78467 0 0 .78467 61.757 176.737)">28</text><text style="text-align:center" x="16" y="12.444" fill="#e66100" transform="matrix(.78467 0 0 .78467 61.757 176.737)">29</text><text style="text-align:center" x="24" y="12.444" fill="#e66100" transform="matrix(.78467 0 0 .78467 61.757 176.737)">30</text><text style="text-align:center" x="32" y="12.444" fill="#e66100" transform="matrix(.78467 0 0 .78467 61.757 176.737)">31</text><text style="text-align:center" x="40" y="12.444" fill="#fff" transform="matrix(.78467 0 0 .78467 61.757 176.737)">1</text><text style="text-align:center" x="48" y="12.444" fill="red" transform="matrix(.78467 0 0 .78467 61.757 176.737)">2</text><text style="text-align:center" y="18.667" fill="#fff" transform="matrix(.78467 0 0 .78467 61.757 176.737)">3</text><text style="text-align:center" x="8" y="18.667" fill="#fff" transform="matrix(.78467 0 0 .78467 61.757 176.737)">4</text><text style="text-align:center" x="16" y="18.667" fill="#fff" transform="matrix(.78467 0 0 .78467 61.757 176.737)">5</text><text style="text-align:center" x="24" y="18.667" fill="#fff" transform="matrix(.78467 0 0 .78467 61.757 176.737)">6</text><text style="text-align:center" x="32" y="18.667" fill="#fff" transform="matrix(.78467 0 0 .78467 61.757 176.737)">7</text><text style="text-align:center" x="40" y="18.667" fill="#fff" transform="matrix(.78467 0 0 .78467 61.757 176.737)">8</text><text style="text-align:center" x="48" y="18.667" fill="red" transform="matrix(.78467 0 0 .78467 61.757 176.737)">9</text><text style="text-align:center" y="24.889" fill="#fff" transform="matrix(.78467 0 0 .78467 61.757 176.737)">10</text><text style="text-align:center" x="8" y="24.889" fill="#fff" transform="matrix(.78467 0 0 .78467 61.757 176.737)">11</text><text style="text-align:center" x="16" y="24.889" fill="#fff" transform="matrix(.78467 0 0 .78467 61.757 176.737)">12</text><text style="text-align:center" x="24" y="24.889" fill="#fff" transform="matrix(.78467 0 0 .78467 61.757 176.737)">13</text><text style="text-align:center" x="32" y="24.889" fill="#fff" transform="matrix(.78467 0 0 .78467 61.757 176.737)">14</text><text style="text-align:center" x="40" y="24.889" fill="#fff" transform="matrix(.78467 0 0 .78467 61.757 176.737)">15</text><text style="text-align:center" x="48" y="24.889" fill="red" transform="matrix(.78467 0 0 .78467 61.757 176.737)">16</text><text style="text-align:center" y="31.111" fill="#fff" transform="matrix(.78467 0 0 .78467 61.757 176.737)">17</text><text style="text-align:center" x="8" y="31.111" fill="#fff" transform="matrix(.78467 0 0 .78467 61.757 176.737)">18</text><text style="text-align:center" x="16" y="31.111" fill="#fff" transform="matrix(.78467 0 0 .78467 61.757 176.737)">19</text><text style="text-align:center" x="24" y="31.111" fill="#fff" transform="matrix(.78467 0 0 .78467 61.757 176.737)">20</text><text style="text-align:center" x="32" y="31.111" fill="#fff" transform="matrix(.78467 0 0 .78467 61.757 176.737)">21</text><text style="text-align:center" x="40" y="31.111" fill="#fff" transform="matrix(.78467 0 0 .78467 61.757 176.737)">22</text><text style="text-align:center" x="48" y="31.111" fill="red" transform="matrix(.78467 0 0 .78467 61.757 176.737)">23</text><text style="text-align:center" y="37.333" fill="#fff" transform="matrix(.78467 0 0 .78467 61.757 176.737)">24</text><text style="text-align:center" x="8" y="37.333" fill="#fff" transform="matrix(.78467 0 0 .78467 61.757 176.737)">25</text><text style="text-align:center" x="16" y="37.333" fill="#fff" transform="matrix(.78467 0 0 .78467 61.757 176.737)">26</text><text style="text-align:center" x="24" y="37.333" fill="#fff" transform="matrix(.78467 0 0 .78467 61.757 176.737)">27</text><text style="text-align:center" x="32" y="37.333" fill="#fff" transform="matrix(.78467 0 0 .78467 61.757 176.737)">28</text><text style="text-align:center" x="40" y="37.333" fill="#fff" transform="matrix(.78467 0 0 .78467 61.757 176.737)">29</text><text style="text-align:center" x="48" y="37.333" fill="red" transform="matrix(.78467 0 0 .78467 61.757 176.737)">30</text><text style="text-align:center" y="43.556" fill="#e66100" transform="matrix(.78467 0 0 .78467 61.757 176.737)">1</text><text style="text-align:center" x="8" y="43.556" fill="#e66100" transform="matrix(.78467 0 0 .78467 61.757 176.737)">2</text><text style="text-align:center" x="16" y="43.556" fill="#e66100" transform="matrix(.78467 0 0 .78467 61.757 176.737)">3</text><text style="text-align:center" x="24" y="43.556" fill="#e66100" transform="matrix(.78467 0 0 .78467 61.757 176.737)">4</text><text style="text-align:center" x="32" y="43.556" fill="#e66100" transform="matrix(.78467 0 0 .78467 61.757 176.737)">5</text><text style="text-align:center" x="40" y="43.556" fill="#e66100" transform="matrix(.78467 0 0 .78467 61.757 176.737)">6</text><text style="text-align:center" x="48" y="43.556" fill="#e66100" transform="matrix(.78467 0 0 .78467 61.757 176.737)">7</text></g></g><g transform="translate(-.01 -12.818)"><text style="text-align:center" x="80.598" y="187.357" font-weight="700" font-size="4.185" font-family="arial" text-anchor="middle" fill="#fff" stroke-width=".785"><tspan style="-inkscape-font-specification:'Sans, Bold';font-variant-ligatures:normal;font-variant-caps:normal;font-variant-numeric:normal;font-variant-east-asian:normal" font-size="3.175" font-family="Sans">June</tspan></text><rect width="23.345" height="4.711" x="68.76" y="184.162" ry="2.355" fill="none" stroke="#fff" stroke-width=".108" stroke-linecap="round" stroke-linejoin="bevel" stroke-miterlimit="3.7"/></g></g><g><g font-family="arial" text-anchor="middle"><g font-size="2.667" fill="#fffc00"><text style="text-align:center" y="6.222" transform="matrix(.78467 0 0 .78467 12.9 176.878)">Mar</text><text style="text-align:center" x="8" y="6.222" transform="matrix(.78467 0 0 .78467 12.9 176.878)">Mer</text><text style="text-align:center" x="16" y="6.222" transform="matrix(.78467 0 0 .78467 12.9 176.878)">Gio</text><text style="text-align:center" x="24" y="6.222" transform="matrix(.78467 0 0 .78467 12.9 176.878)">Ven</text><text style="text-align:center" x="32" y="6.222" transform="matrix(.78467 0 0 .78467 12.9 176.878)">Sat</text><text style="text-align:center" x="40" y="6.222" transform="matrix(.78467 0 0 .78467 12.9 176.878)">Dom</text><text style="text-align:center" x="48" y="6.222" transform="matrix(.78467 0 0 .78467 12.9 176.878)">Lun</text></g><g font-size="4"><text style="text-align:center" y="12.444" fill="#e66100" transform="matrix(.78467 0 0 .78467 12.9 176.878)">29</text><text style="text-align:center" x="8" y="12.444" fill="#e66100" transform="matrix(.78467 0 0 .78467 12.9 176.878)">30</text><text style="text-align:center" x="16" y="12.444" fill="#fff" transform="matrix(.78467 0 0 .78467 12.9 176.878)">1</text><text style="text-align:center" x="24" y="12.444" fill="#fff" transform="matrix(.78467 0 0 .78467 12.9 176.878)">2</text><text style="text-align:center" x="32" y="12.444" fill="#fff" transform="matrix(.78467 0 0 .78467 12.9 176.878)">3</text><text style="text-align:center" x="40" y="12.444" fill="#fff" transform="matrix(.78467 0 0 .78467 12.9 176.878)">4</text><text style="text-align:center" x="48" y="12.444" fill="red" transform="matrix(.78467 0 0 .78467 12.9 176.878)">5</text><text style="text-align:center" y="18.667" fill="#fff" transform="matrix(.78467 0 0 .78467 12.9 176.878)">6</text><text style="text-align:center" x="8" y="18.667" fill="#fff" transform="matrix(.78467 0 0 .78467 12.9 176.878)">7</text><text style="text-align:center" x="16" y="18.667" fill="#fff" transform="matrix(.78467 0 0 .78467 12.9 176.878)">8</text><text style="text-align:center" x="24" y="18.667" fill="#fff" transform="matrix(.78467 0 0 .78467 12.9 176.878)">9</text><text style="text-align:center" x="32" y="18.667" fill="#fff" transform="matrix(.78467 0 0 .78467 12.9 176.878)">10</text><text style="text-align:center" x="40" y="18.667" fill="#fff" transform="matrix(.78467 0 0 .78467 12.9 176.878)">11</text><text style="text-align:center" x="48" y="18.667" fill="red" transform="matrix(.78467 0 0 .78467 12.9 176.878)">12</text><text style="text-align:center" y="24.889" fill="#fff" transform="matrix(.78467 0 0 .78467 12.9 176.878)">13</text><text style="text-align:center" x="8" y="24.889" fill="#fff" transform="matrix(.78467 0 0 .78467 12.9 176.878)">14</text><text style="text-align:center" x="16" y="24.889" fill="#fff" transform="matrix(.78467 0 0 .78467 12.9 176.878)">15</text><text style="text-align:center" x="24" y="24.889" fill="#fff" transform="matrix(.78467 0 0 .78467 12.9 176.878)">16</text><text style="text-align:center" x="32" y="24.889" fill="#fff" transform="matrix(.78467 0 0 .78467 12.9 176.878)">17</text><text style="text-align:center" x="40" y="24.889" fill="#fff" transform="matrix(.78467 0 0 .78467 12.9 176.878)">18</text><text style="text-align:center" x="48" y="24.889" fill="red" transform="matrix(.78467 0 0 .78467 12.9 176.878)">19</text><text style="text-align:center" y="31.111" fill="#fff" transform="matrix(.78467 0 0 .78467 12.9 176.878)">20</text><text style="text-align:center" x="8" y="31.111" fill="#fff" transform="matrix(.78467 0 0 .78467 12.9 176.878)">21</text><text style="text-align:center" x="16" y="31.111" fill="#fff" transform="matrix(.78467 0 0 .78467 12.9 176.878)">22</text><text style="text-align:center" x="24" y="31.111" fill="#fff" transform="matrix(.78467 0 0 .78467 12.9 176.878)">23</text><text style="text-align:center" x="32" y="31.111" fill="#fff" transform="matrix(.78467 0 0 .78467 12.9 176.878)">24</text><text style="text-align:center" x="40" y="31.111" fill="#fff" transform="matrix(.78467 0 0 .78467 12.9 176.878)">25</text><text style="text-align:center" x="48" y="31.111" fill="red" transform="matrix(.78467 0 0 .78467 12.9 176.878)">26</text><text style="text-align:center" y="37.333" fill="#fff" transform="matrix(.78467 0 0 .78467 12.9 176.878)">27</text><text style="text-align:center" x="8" y="37.333" fill="#fff" transform="matrix(.78467 0 0 .78467 12.9 176.878)">28</text><text style="text-align:center" x="16" y="37.333" fill="#fff" transform="matrix(.78467 0 0 .78467 12.9 176.878)">29</text><text style="text-align:center" x="24" y="37.333" fill="#fff" transform="matrix(.78467 0 0 .78467 12.9 176.878)">30</text><text style="text-align:center" x="32" y="37.333" fill="#fff" transform="matrix(.78467 0 0 .78467 12.9 176.878)">31</text><text style="text-align:center" x="40" y="37.333" fill="#e66100" transform="matrix(.78467 0 0 .78467 12.9 176.878)">1</text><text style="text-align:center" x="48" y="37.333" fill="#e66100" transform="matrix(.78467 0 0 .78467 12.9 176.878)">2</text><text style="text-align:center" y="43.556" fill="#e66100" transform="matrix(.78467 0 0 .78467 12.9 176.878)">3</text><text style="text-align:center" x="8" y="43.556" fill="#e66100" transform="matrix(.78467 0 0 .78467 12.9 176.878)">4</text><text style="text-align:center" x="16" y="43.556" fill="#e66100" transform="matrix(.78467 0 0 .78467 12.9 176.878)">5</text><text style="text-align:center" x="24" y="43.556" fill="#e66100" transform="matrix(.78467 0 0 .78467 12.9 176.878)">6</text><text style="text-align:center" x="32" y="43.556" fill="#e66100" transform="matrix(.78467 0 0 .78467 12.9 176.878)">7</text><text style="text-align:center" x="40" y="43.556" fill="#e66100" transform="matrix(.78467 0 0 .78467 12.9 176.878)">8</text><text style="text-align:center" x="48" y="43.556" fill="#e66100" transform="matrix(.78467 0 0 .78467 12.9 176.878)">9</text></g></g><g transform="translate(-.003 -12.677)"><text style="text-align:center" x="31.735" y="187.356" font-weight="700" font-size="4.185" font-family="arial" text-anchor="middle" fill="#fff" stroke-width=".785"><tspan style="-inkscape-font-specification:'Sans, Bold';font-variant-ligatures:normal;font-variant-caps:normal;font-variant-numeric:normal;font-variant-east-asian:normal" font-size="3.175" font-family="Sans">May</tspan></text><rect width="23.345" height="4.711" x="20.179" y="184.186" ry="2.355" fill="none" stroke="#fff" stroke-width=".108" stroke-linecap="round" stroke-linejoin="bevel" stroke-miterlimit="3.7"/></g></g><g><g font-family="arial" text-anchor="middle"><g font-size="2.667" fill="#fffc00"><text style="text-align:center" y="6.222" transform="matrix(.78467 0 0 .78467 159.476 125.85)">Mar</text><text style="text-align:center" x="8" y="6.222" transform="matrix(.78467 0 0 .78467 159.476 125.85)">Mer</text><text style="text-align:center" x="16" y="6.222" transform="matrix(.78467 0 0 .78467 159.476 125.85)">Gio</text><text style="text-align:center" x="24" y="6.222" transform="matrix(.78467 0 0 .78467 159.476 125.85)">Ven</text><text style="text-align:center" x="32" y="6.222" transform="matrix(.78467 0 0 .78467 159.476 125.85)">Sat</text><text style="text-align:center" x="40" y="6.222" transform="matrix(.78467 0 0 .78467 159.476 125.85)">Dom</text><text style="text-align:center" x="48" y="6.222" transform="matrix(.78467 0 0 .78467 159.476 125.85)">Lun</text></g><g font-size="4"><text style="text-align:center" y="12.444" fill="#fff" transform="matrix(.78467 0 0 .78467 159.476 125.85)">1</text><text style="text-align:center" x="8" y="12.444" fill="#fff" transform="matrix(.78467 0 0 .78467 159.476 125.85)">2</text><text style="text-align:center" x="16" y="12.444" fill="#fff" transform="matrix(.78467 0 0 .78467 159.476 125.85)">3</text><text style="text-align:center" x="24" y="12.444" fill="#fff" transform="matrix(.78467 0 0 .78467 159.476 125.85)">4</text><text style="text-align:center" x="32" y="12.444" fill="#fff" transform="matrix(.78467 0 0 .78467 159.476 125.85)">5</text><text style="text-align:center" x="40" y="12.444" fill="#fff" transform="matrix(.78467 0 0 .78467 159.476 125.85)">6</text><text style="text-align:center" x="48" y="12.444" fill="red" transform="matrix(.78467 0 0 .78467 159.476 125.85)">7</text><text style="text-align:center" y="18.667" fill="#fff" transform="matrix(.78467 0 0 .78467 159.476 125.85)">8</text><text style="text-align:center" x="8" y="18.667" fill="#fff" transform="matrix(.78467 0 0 .78467 159.476 125.85)">9</text><text style="text-align:center" x="16" y="18.667" fill="#fff" transform="matrix(.78467 0 0 .78467 159.476 125.85)">10</text><text style="text-align:center" x="24" y="18.667" fill="#fff" transform="matrix(.78467 0 0 .78467 159.476 125.85)">11</text><text style="text-align:center" x="32" y="18.667" fill="#fff" transform="matrix(.78467 0 0 .78467 159.476 125.85)">12</text><text style="text-align:center" x="40" y="18.667" fill="#fff" transform="matrix(.78467 0 0 .78467 159.476 125.85)">13</text><text style="text-align:center" x="48" y="18.667" fill="red" transform="matrix(.78467 0 0 .78467 159.476 125.85)">14</text><text style="text-align:center" y="24.889" fill="#fff" transform="matrix(.78467 0 0 .78467 159.476 125.85)">15</text><text style="text-align:center" x="8" y="24.889" fill="#fff" transform="matrix(.78467 0 0 .78467 159.476 125.85)">16</text><text style="text-align:center" x="16" y="24.889" fill="#fff" transform="matrix(.78467 0 0 .78467 159.476 125.85)">17</text><text style="text-align:center" x="24" y="24.889" fill="#fff" transform="matrix(.78467 0 0 .78467 159.476 125.85)">18</text><text style="text-align:center" x="32" y="24.889" fill="#fff" transform="matrix(.78467 0 0 .78467 159.476 125.85)">19</text><text style="text-align:center" x="40" y="24.889" fill="#fff" transform="matrix(.78467 0 0 .78467 159.476 125.85)">20</text><text style="text-align:center" x="48" y="24.889" fill="red" transform="matrix(.78467 0 0 .78467 159.476 125.85)">21</text><text style="text-align:center" y="31.111" fill="#fff" transform="matrix(.78467 0 0 .78467 159.476 125.85)">22</text><text style="text-align:center" x="8" y="31.111" fill="#fff" transform="matrix(.78467 0 0 .78467 159.476 125.85)">23</text><text style="text-align:center" x="16" y="31.111" fill="#fff" transform="matrix(.78467 0 0 .78467 159.476 125.85)">24</text><text style="text-align:center" x="24" y="31.111" fill="#fff" transform="matrix(.78467 0 0 .78467 159.476 125.85)">25</text><text style="text-align:center" x="32" y="31.111" fill="#fff" transform="matrix(.78467 0 0 .78467 159.476 125.85)">26</text><text style="text-align:center" x="40" y="31.111" fill="#fff" transform="matrix(.78467 0 0 .78467 159.476 125.85)">27</text><text style="text-align:center" x="48" y="31.111" fill="red" transform="matrix(.78467 0 0 .78467 159.476 125.85)">28</text><text style="text-align:center" y="37.333" fill="#fff" transform="matrix(.78467 0 0 .78467 159.476 125.85)">29</text><text style="text-align:center" x="8" y="37.333" fill="#fff" transform="matrix(.78467 0 0 .78467 159.476 125.85)">30</text><text style="text-align:center" x="16" y="37.333" fill="#e66100" transform="matrix(.78467 0 0 .78467 159.476 125.85)">1</text><text style="text-align:center" x="24" y="37.333" fill="#e66100" transform="matrix(.78467 0 0 .78467 159.476 125.85)">2</text><text style="text-align:center" x="32" y="37.333" fill="#e66100" transform="matrix(.78467 0 0 .78467 159.476 125.85)">3</text><text style="text-align:center" x="40" y="37.333" fill="#e66100" transform="matrix(.78467 0 0 .78467 159.476 125.85)">4</text><text style="text-align:center" x="48" y="37.333" fill="#e66100" transform="matrix(.78467 0 0 .78467 159.476 125.85)">5</text><text style="text-align:center" y="43.556" fill="#e66100" transform="matrix(.78467 0 0 .78467 159.476 125.85)">6</text><text style="text-align:center" x="8" y="43.556" fill="#e66100" transform="matrix(.78467 0 0 .78467 159.476 125.85)">7</text><text style="text-align:center" x="16" y="43.556" fill="#e66100" transform="matrix(.78467 0 0 .78467 159.476 125.85)">8</text><text style="text-align:center" x="24" y="43.556" fill="#e66100" transform="matrix(.78467 0 0 .78467 159.476 125.85)">9</text><text style="text-align:center" x="32" y="43.556" fill="#e66100" transform="matrix(.78467 0 0 .78467 159.476 125.85)">10</text><text style="text-align:center" x="40" y="43.556" fill="#e66100" transform="matrix(.78467 0 0 .78467 159.476 125.85)">11</text><text style="text-align:center" x="48" y="43.556" fill="#e66100" transform="matrix(.78467 0 0 .78467 159.476 125.85)">12</text></g></g><g transform="translate(0 -20.412)"><text style="text-align:center" x="178.309" y="144.063" font-weight="700" font-size="4.185" font-family="arial" text-anchor="middle" fill="#fff" stroke-width=".785"><tspan style="-inkscape-font-specification:'Sans, Bold';font-variant-ligatures:normal;font-variant-caps:normal;font-variant-numeric:normal;font-variant-east-asian:normal" font-size="3.175" font-family="Sans">April</tspan></text><rect width="23.345" height="4.711" x="166.511" y="140.831" ry="2.355" fill="none" stroke="#fff" stroke-width=".108" stroke-linecap="round" stroke-linejoin="bevel" stroke-miterlimit="3.7"/></g></g><g><g font-family="arial" text-anchor="middle"><g font-size="2.667" fill="#fffc00"><text style="text-align:center" y="6.222" transform="matrix(.78467 0 0 .78467 110.626 125.848)">Mar</text><text style="text-align:center" x="8" y="6.222" transform="matrix(.78467 0 0 .78467 110.626 125.848)">Mer</text><text style="text-align:center" x="16" y="6.222" transform="matrix(.78467 0 0 .78467 110.626 125.848)">Gio</text><text style="text-align:center" x="24" y="6.222" transform="matrix(.78467 0 0 .78467 110.626 125.848)">Ven</text><text style="text-align:center" x="32" y="6.222" transform="matrix(.78467 0 0 .78467 110.626 125.848)">Sat</text><text style="text-align:center" x="40" y="6.222" transform="matrix(.78467 0 0 .78467 110.626 125.848)">Dom</text><text style="text-align:center" x="48" y="6.222" transform="matrix(.78467 0 0 .78467 110.626 125.848)">Lun</text></g><g font-size="4"><text style="text-align:center" y="12.444" fill="#e66100" transform="matrix(.78467 0 0 .78467 110.626 125.848)">26</text><text style="text-align:center" x="8" y="12.444" fill="#e66100" transform="matrix(.78467 0 0 .78467 110.626 125.848)">27</text><text style="text-align:center" x="16" y="12.444" fill="#e66100" transform="matrix(.78467 0 0 .78467 110.626 125.848)">28</text><text style="text-align:center" x="24" y="12.444" fill="#e66100" transform="matrix(.78467 0 0 .78467 110.626 125.848)">29</text><text style="text-align:center" x="32" y="12.444" fill="#fff" transform="matrix(.78467 0 0 .78467 110.626 125.848)">1</text><text style="text-align:center" x="40" y="12.444" fill="#fff" transform="matrix(.78467 0 0 .78467 110.626 125.848)">2</text><text style="text-align:center" x="48" y="12.444" fill="red" transform="matrix(.78467 0 0 .78467 110.626 125.848)">3</text><text style="text-align:center" y="18.667" fill="#fff" transform="matrix(.78467 0 0 .78467 110.626 125.848)">4</text><text style="text-align:center" x="8" y="18.667" fill="#fff" transform="matrix(.78467 0 0 .78467 110.626 125.848)">5</text><text style="text-align:center" x="16" y="18.667" fill="#fff" transform="matrix(.78467 0 0 .78467 110.626 125.848)">6</text><text style="text-align:center" x="24" y="18.667" fill="#fff" transform="matrix(.78467 0 0 .78467 110.626 125.848)">7</text><text style="text-align:center" x="32" y="18.667" fill="#fff" transform="matrix(.78467 0 0 .78467 110.626 125.848)">8</text><text style="text-align:center" x="40" y="18.667" fill="#fff" transform="matrix(.78467 0 0 .78467 110.626 125.848)">9</text><text style="text-align:center" x="48" y="18.667" fill="red" transform="matrix(.78467 0 0 .78467 110.626 125.848)">10</text><text style="text-align:center" y="24.889" fill="#fff" transform="matrix(.78467 0 0 .78467 110.626 125.848)">11</text><text style="text-align:center" x="8" y="24.889" fill="#fff" transform="matrix(.78467 0 0 .78467 110.626 125.848)">12</text><text style="text-align:center" x="16" y="24.889" fill="#fff" transform="matrix(.78467 0 0 .78467 110.626 125.848)">13</text><text style="text-align:center" x="24" y="24.889" fill="#fff" transform="matrix(.78467 0 0 .78467 110.626 125.848)">14</text><text style="text-align:center" x="32" y="24.889" fill="#fff" transform="matrix(.78467 0 0 .78467 110.626 125.848)">15</text><text style="text-align:center" x="40" y="24.889" fill="#fff" transform="matrix(.78467 0 0 .78467 110.626 125.848)">16</text><text style="text-align:center" x="48" y="24.889" fill="red" transform="matrix(.78467 0 0 .78467 110.626 125.848)">17</text><text style="text-align:center" y="31.111" fill="#fff" transform="matrix(.78467 0 0 .78467 110.626 125.848)">18</text><text style="text-align:center" x="8" y="31.111" fill="#fff" transform="matrix(.78467 0 0 .78467 110.626 125.848)">19</text><text style="text-align:center" x="16" y="31.111" fill="#fff" transform="matrix(.78467 0 0 .78467 110.626 125.848)">20</text><text style="text-align:center" x="24" y="31.111" fill="#fff" transform="matrix(.78467 0 0 .78467 110.626 125.848)">21</text><text style="text-align:center" x="32" y="31.111" fill="#fff" transform="matrix(.78467 0 0 .78467 110.626 125.848)">22</text><text style="text-align:center" x="40" y="31.111" fill="#fff" transform="matrix(.78467 0 0 .78467 110.626 125.848)">23</text><text style="text-align:center" x="48" y="31.111" fill="red" transform="matrix(.78467 0 0 .78467 110.626 125.848)">24</text><text style="text-align:center" y="37.333" fill="#fff" transform="matrix(.78467 0 0 .78467 110.626 125.848)">25</text><text style="text-align:center" x="8" y="37.333" fill="#fff" transform="matrix(.78467 0 0 .78467 110.626 125.848)">26</text><text style="text-align:center" x="16" y="37.333" fill="#fff" transform="matrix(.78467 0 0 .78467 110.626 125.848)">27</text><text style="text-align:center" x="24" y="37.333" fill="#fff" transform="matrix(.78467 0 0 .78467 110.626 125.848)">28</text><text style="text-align:center" x="32" y="37.333" fill="#fff" transform="matrix(.78467 0 0 .78467 110.626 125.848)">29</text><text style="text-align:center" x="40" y="37.333" fill="#fff" transform="matrix(.78467 0 0 .78467 110.626 125.848)">30</text><text style="text-align:center" x="48" y="37.333" fill="red" transform="matrix(.78467 0 0 .78467 110.626 125.848)">31</text><text style="text-align:center" y="43.556" fill="#e66100" transform="matrix(.78467 0 0 .78467 110.626 125.848)">1</text><text style="text-align:center" x="8" y="43.556" fill="#e66100" transform="matrix(.78467 0 0 .78467 110.626 125.848)">2</text><text style="text-align:center" x="16" y="43.556" fill="#e66100" transform="matrix(.78467 0 0 .78467 110.626 125.848)">3</text><text style="text-align:center" x="24" y="43.556" fill="#e66100" transform="matrix(.78467 0 0 .78467 110.626 125.848)">4</text><text style="text-align:center" x="32" y="43.556" fill="#e66100" transform="matrix(.78467 0 0 .78467 110.626 125.848)">5</text><text style="text-align:center" x="40" y="43.556" fill="#e66100" transform="matrix(.78467 0 0 .78467 110.626 125.848)">6</text><text style="text-align:center" x="48" y="43.556" fill="#e66100" transform="matrix(.78467 0 0 .78467 110.626 125.848)">7</text></g></g><g transform="translate(0 -20.412)"><text style="text-align:center" x="129.458" y="144.061" font-weight="700" font-size="4.185" font-family="arial" text-anchor="middle" fill="#fff" stroke-width=".785"><tspan style="-inkscape-font-specification:'Sans, Bold';font-variant-ligatures:normal;font-variant-caps:normal;font-variant-numeric:normal;font-variant-east-asian:normal" font-size="3.175" font-family="Sans">March</tspan></text><rect width="23.345" height="4.711" x="117.807" y="140.522" ry="2.355" fill="none" stroke="#fff" stroke-width=".108" stroke-linecap="round" stroke-linejoin="bevel" stroke-miterlimit="3.7"/></g></g><g><g font-family="arial" text-anchor="middle"><g font-size="2.667" fill="#fffc00"><text style="text-align:center" y="6.222" transform="matrix(.78467 0 0 .78467 61.758 125.849)">Mar</text><text style="text-align:center" x="8" y="6.222" transform="matrix(.78467 0 0 .78467 61.758 125.849)">Mer</text><text style="text-align:center" x="16" y="6.222" transform="matrix(.78467 0 0 .78467 61.758 125.849)">Gio</text><text style="text-align:center" x="24" y="6.222" transform="matrix(.78467 0 0 .78467 61.758 125.849)">Ven</text><text style="text-align:center" x="32" y="6.222" transform="matrix(.78467 0 0 .78467 61.758 125.849)">Sat</text><text style="text-align:center" x="40" y="6.222" transform="matrix(.78467 0 0 .78467 61.758 125.849)">Dom</text><text style="text-align:center" x="48" y="6.222" transform="matrix(.78467 0 0 .78467 61.758 125.849)">Lun</text></g><g font-size="4"><text style="text-align:center" y="12.444" fill="#e66100" transform="matrix(.78467 0 0 .78467 61.758 125.849)">29</text><text style="text-align:center" x="8" y="12.444" fill="#e66100" transform="matrix(.78467 0 0 .78467 61.758 125.849)">30</text><text style="text-align:center" x="16" y="12.444" fill="#e66100" transform="matrix(.78467 0 0 .78467 61.758 125.849)">31</text><text style="text-align:center" x="24" y="12.444" fill="#fff" transform="matrix(.78467 0 0 .78467 61.758 125.849)">1</text><text style="text-align:center" x="32" y="12.444" fill="#fff" transform="matrix(.78467 0 0 .78467 61.758 125.849)">2</text><text style="text-align:center" x="40" y="12.444" fill="#fff" transform="matrix(.78467 0 0 .78467 61.758 125.849)">3</text><text style="text-align:center" x="48" y="12.444" fill="red" transform="matrix(.78467 0 0 .78467 61.758 125.849)">4</text><text style="text-align:center" y="18.667" fill="#fff" transform="matrix(.78467 0 0 .78467 61.758 125.849)">5</text><text style="text-align:center" x="8" y="18.667" fill="#fff" transform="matrix(.78467 0 0 .78467 61.758 125.849)">6</text><text style="text-align:center" x="16" y="18.667" fill="#fff" transform="matrix(.78467 0 0 .78467 61.758 125.849)">7</text><text style="text-align:center" x="24" y="18.667" fill="#fff" transform="matrix(.78467 0 0 .78467 61.758 125.849)">8</text><text style="text-align:center" x="32" y="18.667" fill="#fff" transform="matrix(.78467 0 0 .78467 61.758 125.849)">9</text><text style="text-align:center" x="40" y="18.667" fill="#fff" transform="matrix(.78467 0 0 .78467 61.758 125.849)">10</text><text style="text-align:center" x="48" y="18.667" fill="red" transform="matrix(.78467 0 0 .78467 61.758 125.849)">11</text><text style="text-align:center" y="24.889" fill="#fff" transform="matrix(.78467 0 0 .78467 61.758 125.849)">12</text><text style="text-align:center" x="8" y="24.889" fill="#fff" transform="matrix(.78467 0 0 .78467 61.758 125.849)">13</text><text style="text-align:center" x="16" y="24.889" fill="#fff" transform="matrix(.78467 0 0 .78467 61.758 125.849)">14</text><text style="text-align:center" x="24" y="24.889" fill="#fff" transform="matrix(.78467 0 0 .78467 61.758 125.849)">15</text><text style="text-align:center" x="32" y="24.889" fill="#fff" transform="matrix(.78467 0 0 .78467 61.758 125.849)">16</text><text style="text-align:center" x="40" y="24.889" fill="#fff" transform="matrix(.78467 0 0 .78467 61.758 125.849)">17</text><text style="text-align:center" x="48" y="24.889" fill="red" transform="matrix(.78467 0 0 .78467 61.758 125.849)">18</text><text style="text-align:center" y="31.111" fill="#fff" transform="matrix(.78467 0 0 .78467 61.758 125.849)">19</text><text style="text-align:center" x="8" y="31.111" fill="#fff" transform="matrix(.78467 0 0 .78467 61.758 125.849)">20</text><text style="text-align:center" x="16" y="31.111" fill="#fff" transform="matrix(.78467 0 0 .78467 61.758 125.849)">21</text><text style="text-align:center" x="24" y="31.111" fill="#fff" transform="matrix(.78467 0 0 .78467 61.758 125.849)">22</text><text style="text-align:center" x="32" y="31.111" fill="#fff" transform="matrix(.78467 0 0 .78467 61.758 125.849)">23</text><text style="text-align:center" x="40" y="31.111" fill="#fff" transform="matrix(.78467 0 0 .78467 61.758 125.849)">24</text><text style="text-align:center" x="48" y="31.111" fill="red" transform="matrix(.78467 0 0 .78467 61.758 125.849)">25</text><text style="text-align:center" y="37.333" fill="#fff" transform="matrix(.78467 0 0 .78467 61.758 125.849)">26</text><text style="text-align:center" x="8" y="37.333" fill="#fff" transform="matrix(.78467 0 0 .78467 61.758 125.849)">27</text><text style="text-align:center" x="16" y="37.333" fill="#fff" transform="matrix(.78467 0 0 .78467 61.758 125.849)">28</text><text style="text-align:center" x="24" y="37.333" fill="#fff" transform="matrix(.78467 0 0 .78467 61.758 125.849)">29</text><text style="text-align:center" x="32" y="37.333" fill="#e66100" transform="matrix(.78467 0 0 .78467 61.758 125.849)">1</text><text style="text-align:center" x="40" y="37.333" fill="#e66100" transform="matrix(.78467 0 0 .78467 61.758 125.849)">2</text><text style="text-align:center" x="48" y="37.333" fill="#e66100" transform="matrix(.78467 0 0 .78467 61.758 125.849)">3</text><text style="text-align:center" y="43.556" fill="#e66100" transform="matrix(.78467 0 0 .78467 61.758 125.849)">4</text><text style="text-align:center" x="8" y="43.556" fill="#e66100" transform="matrix(.78467 0 0 .78467 61.758 125.849)">5</text><text style="text-align:center" x="16" y="43.556" fill="#e66100" transform="matrix(.78467 0 0 .78467 61.758 125.849)">6</text><text style="text-align:center" x="24" y="43.556" fill="#e66100" transform="matrix(.78467 0 0 .78467 61.758 125.849)">7</text><text style="text-align:center" x="32" y="43.556" fill="#e66100" transform="matrix(.78467 0 0 .78467 61.758 125.849)">8</text><text style="text-align:center" x="40" y="43.556" fill="#e66100" transform="matrix(.78467 0 0 .78467 61.758 125.849)">9</text><text style="text-align:center" x="48" y="43.556" fill="#e66100" transform="matrix(.78467 0 0 .78467 61.758 125.849)">10</text></g></g><g transform="translate(0 -20.412)"><text style="text-align:center" x="80.59" y="144.062" font-weight="700" font-size="4.185" font-family="arial" text-anchor="middle" fill="#fff" stroke-width=".785"><tspan style="-inkscape-font-specification:'Sans, Bold';font-variant-ligatures:normal;font-variant-caps:normal;font-variant-numeric:normal;font-variant-east-asian:normal" font-size="3.175" font-family="Sans">February</tspan></text><rect width="23.345" height="4.711" x="69.035" y="140.843" ry="2.355" fill="none" stroke="#fff" stroke-width=".108" stroke-linecap="round" stroke-linejoin="bevel" stroke-miterlimit="3.7"/></g></g><g><g font-family="arial" text-anchor="middle"><g font-size="2.667" fill="#fffc00"><text style="text-align:center" y="6.222" transform="matrix(.78467 0 0 .78467 12.902 125.849)">Mar</text><text style="text-align:center" x="8" y="6.222" transform="matrix(.78467 0 0 .78467 12.902 125.849)">Mer</text><text style="text-align:center" x="16" y="6.222" transform="matrix(.78467 0 0 .78467 12.902 125.849)">Gio</text><text style="text-align:center" x="24" y="6.222" transform="matrix(.78467 0 0 .78467 12.902 125.849)">Ven</text><text style="text-align:center" x="32" y="6.222" transform="matrix(.78467 0 0 .78467 12.902 125.849)">Sat</text><text style="text-align:center" x="40" y="6.222" transform="matrix(.78467 0 0 .78467 12.902 125.849)">Dom</text><text style="text-align:center" x="48" y="6.222" transform="matrix(.78467 0 0 .78467 12.902 125.849)">Lun</text></g><g font-size="4"><text style="text-align:center" y="12.444" fill="#fff" transform="matrix(.78467 0 0 .78467 12.902 125.849)">1</text><text style="text-align:center" x="8" y="12.444" fill="#fff" transform="matrix(.78467 0 0 .78467 12.902 125.849)">2</text><text style="text-align:center" x="16" y="12.444" fill="#fff" transform="matrix(.78467 0 0 .78467 12.902 125.849)">3</text><text style="text-align:center" x="24" y="12.444" fill="#fff" transform="matrix(.78467 0 0 .78467 12.902 125.849)">4</text><text style="text-align:center" x="32" y="12.444" fill="#fff" transform="matrix(.78467 0 0 .78467 12.902 125.849)">5</text><text style="text-align:center" x="40" y="12.444" fill="#fff" transform="matrix(.78467 0 0 .78467 12.902 125.849)">6</text><text style="text-align:center" x="48" y="12.444" fill="red" transform="matrix(.78467 0 0 .78467 12.902 125.849)">7</text><text style="text-align:center" y="18.667" fill="#fff" transform="matrix(.78467 0 0 .78467 12.902 125.849)">8</text><text style="text-align:center" x="8" y="18.667" fill="#fff" transform="matrix(.78467 0 0 .78467 12.902 125.849)">9</text><text style="text-align:center" x="16" y="18.667" fill="#fff" transform="matrix(.78467 0 0 .78467 12.902 125.849)">10</text><text style="text-align:center" x="24" y="18.667" fill="#fff" transform="matrix(.78467 0 0 .78467 12.902 125.849)">11</text><text style="text-align:center" x="32" y="18.667" fill="#fff" transform="matrix(.78467 0 0 .78467 12.902 125.849)">12</text><text style="text-align:center" x="40" y="18.667" fill="#fff" transform="matrix(.78467 0 0 .78467 12.902 125.849)">13</text><text style="text-align:center" x="48" y="18.667" fill="red" transform="matrix(.78467 0 0 .78467 12.902 125.849)">14</text><text style="text-align:center" y="24.889" fill="#fff" transform="matrix(.78467 0 0 .78467 12.902 125.849)">15</text><text style="text-align:center" x="8" y="24.889" fill="#fff" transform="matrix(.78467 0 0 .78467 12.902 125.849)">16</text><text style="text-align:center" x="16" y="24.889" fill="#fff" transform="matrix(.78467 0 0 .78467 12.902 125.849)">17</text><text style="text-align:center" x="24" y="24.889" fill="#fff" transform="matrix(.78467 0 0 .78467 12.902 125.849)">18</text><text style="text-align:center" x="32" y="24.889" fill="#fff" transform="matrix(.78467 0 0 .78467 12.902 125.849)">19</text><text style="text-align:center" x="40" y="24.889" fill="#fff" transform="matrix(.78467 0 0 .78467 12.902 125.849)">20</text><text style="text-align:center" x="48" y="24.889" fill="red" transform="matrix(.78467 0 0 .78467 12.902 125.849)">21</text><text style="text-align:center" y="31.111" fill="#fff" transform="matrix(.78467 0 0 .78467 12.902 125.849)">22</text><text style="text-align:center" x="8" y="31.111" fill="#fff" transform="matrix(.78467 0 0 .78467 12.902 125.849)">23</text><text style="text-align:center" x="16" y="31.111" fill="#fff" transform="matrix(.78467 0 0 .78467 12.902 125.849)">24</text><text style="text-align:center" x="24" y="31.111" fill="#fff" transform="matrix(.78467 0 0 .78467 12.902 125.849)">25</text><text style="text-align:center" x="32" y="31.111" fill="#fff" transform="matrix(.78467 0 0 .78467 12.902 125.849)">26</text><text style="text-align:center" x="40" y="31.111" fill="#fff" transform="matrix(.78467 0 0 .78467 12.902 125.849)">27</text><text style="text-align:center" x="48" y="31.111" fill="red" transform="matrix(.78467 0 0 .78467 12.902 125.849)">28</text><text style="text-align:center" y="37.333" fill="#fff" transform="matrix(.78467 0 0 .78467 12.902 125.849)">29</text><text style="text-align:center" x="8" y="37.333" fill="#fff" transform="matrix(.78467 0 0 .78467 12.902 125.849)">30</text><text style="text-align:center" x="16" y="37.333" fill="#fff" transform="matrix(.78467 0 0 .78467 12.902 125.849)">31</text><text style="text-align:center" x="24" y="37.333" fill="#e66100" transform="matrix(.78467 0 0 .78467 12.902 125.849)">1</text><text style="text-align:center" x="32" y="37.333" fill="#e66100" transform="matrix(.78467 0 0 .78467 12.902 125.849)">2</text><text style="text-align:center" x="40" y="37.333" fill="#e66100" transform="matrix(.78467 0 0 .78467 12.902 125.849)">3</text><text style="text-align:center" x="48" y="37.333" fill="#e66100" transform="matrix(.78467 0 0 .78467 12.902 125.849)">4</text><text style="text-align:center" y="43.556" fill="#e66100" transform="matrix(.78467 0 0 .78467 12.902 125.849)">5</text><text style="text-align:center" x="8" y="43.556" fill="#e66100" transform="matrix(.78467 0 0 .78467 12.902 125.849)">6</text><text style="text-align:center" x="16" y="43.556" fill="#e66100" transform="matrix(.78467 0 0 .78467 12.902 125.849)">7</text><text style="text-align:center" x="24" y="43.556" fill="#e66100" transform="matrix(.78467 0 0 .78467 12.902 125.849)">8</text><text style="text-align:center" x="32" y="43.556" fill="#e66100" transform="matrix(.78467 0 0 .78467 12.902 125.849)">9</text><text style="text-align:center" x="40" y="43.556" fill="#e66100" transform="matrix(.78467 0 0 .78467 12.902 125.849)">10</text><text style="text-align:center" x="48" y="43.556" fill="#e66100" transform="matrix(.78467 0 0 .78467 12.902 125.849)">11</text></g></g><g transform="translate(0 -20.412)"><text style="text-align:center" x="31.735" y="144.062" font-weight="700" font-size="4.185" font-family="arial" text-anchor="middle" fill="#fff" stroke-width=".785"><tspan style="-inkscape-font-specification:'Arial, Bold';font-variant-ligatures:normal;font-variant-caps:normal;font-variant-numeric:normal;font-variant-east-asian:normal" font-size="3.175" font-family="Arial">January</tspan></text><rect width="23.345" height="4.711" x="20.064" y="140.904" ry="2.355" fill="none" stroke="#fff" stroke-width=".108" stroke-linecap="round" stroke-linejoin="bevel" stroke-miterlimit="3.7"/></g></g></svg>