<?xml version="1.0" encoding="UTF-8" standalone="no"?>
<!-- Created with Inkscape (http://www.inkscape.org/) -->

<svg
   width="300"
   height="300"
   viewBox="0 0 300 300"
   version="1.1"
   id="svg1"
   xml:space="preserve"
   sodipodi:docname="marek.svg"
   inkscape:version="1.3.2 (091e20e, 2023-11-25, custom)"
   xmlns:inkscape="http://www.inkscape.org/namespaces/inkscape"
   xmlns:sodipodi="http://sodipodi.sourceforge.net/DTD/sodipodi-0.dtd"
   xmlns:xlink="http://www.w3.org/1999/xlink"
   xmlns="http://www.w3.org/2000/svg"
   xmlns:svg="http://www.w3.org/2000/svg"><sodipodi:namedview
     id="namedview1"
     pagecolor="#505050"
     bordercolor="#eeeeee"
     borderopacity="1"
     inkscape:showpageshadow="0"
     inkscape:pageopacity="0"
     inkscape:pagecheckerboard="0"
     inkscape:deskcolor="#505050"
     inkscape:document-units="px"
     inkscape:zoom="2"
     inkscape:cx="166.25"
     inkscape:cy="156.75"
     inkscape:window-width="1920"
     inkscape:window-height="1017"
     inkscape:window-x="1912"
     inkscape:window-y="-8"
     inkscape:window-maximized="1"
     inkscape:current-layer="layer1"
     showguides="true" /><defs
     id="defs1"><linearGradient
       id="linearGradient14"
       inkscape:collect="always"><stop
         style="stop-color:#000000;stop-opacity:1;"
         offset="0"
         id="stop14" /><stop
         style="stop-color:#000000;stop-opacity:0.27380952;"
         offset="0.49170125"
         id="stop16" /><stop
         style="stop-color:#000000;stop-opacity:0;"
         offset="1"
         id="stop15" /></linearGradient><linearGradient
       id="linearGradient8"
       inkscape:collect="always"><stop
         style="stop-color:#000000;stop-opacity:1;"
         offset="0"
         id="stop8" /><stop
         style="stop-color:#003399;stop-opacity:1;"
         offset="1"
         id="stop9" /></linearGradient><rect
       x="132.61649"
       y="368.45878"
       width="144.08602"
       height="111.82796"
       id="rect4" /><rect
       x="-227.95699"
       y="272.40143"
       width="111.11111"
       height="113.97849"
       id="rect2" /><linearGradient
       inkscape:collect="always"
       xlink:href="#linearGradient8"
       id="linearGradient9"
       x1="1073.4928"
       y1="53.38332"
       x2="1068.6615"
       y2="147.15733"
       gradientUnits="userSpaceOnUse" /><linearGradient
       inkscape:collect="always"
       xlink:href="#linearGradient14"
       id="linearGradient11"
       x1="-559.61597"
       y1="1036.1605"
       x2="-559.65765"
       y2="998.32178"
       gradientUnits="userSpaceOnUse"
       gradientTransform="matrix(-0.63956446,0.76873747,0.76873747,0.63956446,8.000038,-5.8884088e-5)" /><linearGradient
       inkscape:collect="always"
       xlink:href="#linearGradient14"
       id="linearGradient13"
       x1="1069.6514"
       y1="290.10648"
       x2="1070.8828"
       y2="253.00969"
       gradientUnits="userSpaceOnUse"
       gradientTransform="translate(-3.0000336)" /><linearGradient
       inkscape:collect="always"
       xlink:href="#linearGradient8"
       id="linearGradient15"
       x1="808.16193"
       y1="-607.73248"
       x2="808.14148"
       y2="-646.01184"
       gradientUnits="userSpaceOnUse"
       gradientTransform="rotate(50.240652,-7,-14.929609)" /><linearGradient
       inkscape:collect="always"
       xlink:href="#linearGradient8"
       id="linearGradient18"
       x1="931.76361"
       y1="176.36423"
       x2="1202.1578"
       y2="176.36423"
       gradientUnits="userSpaceOnUse" /></defs><g
     inkscape:label="Livello 1"
     inkscape:groupmode="layer"
     id="layer1"><text
       xml:space="preserve"
       id="text2"
       style="-inkscape-font-specification:'Arial, Normal';font-family:Arial;font-size:9.2173605px;line-height:113.22%;fill:#d4c300;letter-spacing:2px;fill-rule:evenodd;text-align:center;stroke-miterlimit:3.7;stroke-linejoin:bevel;stroke-linecap:round;stroke-width:0.37795276;white-space:pre;shape-inside:url(#rect2)" /><text
       xml:space="preserve"
       id="text4"
       style="-inkscape-font-specification:'Caladea, Normal';font-family:Caladea;font-size:72px;line-height:113.22%;fill:#ffffff;letter-spacing:2px;fill-rule:evenodd;text-align:center;stroke-miterlimit:3.7;stroke-linejoin:bevel;stroke-linecap:round;stroke-width:0.37795276;font-weight:normal;font-style:normal;font-stretch:normal;font-variant:normal;font-variant-ligatures:normal;font-variant-caps:normal;font-variant-numeric:normal;font-variant-east-asian:normal;fill-opacity:1;stroke:none;stroke-opacity:1;white-space:pre;shape-inside:url(#rect4)" /><g
       id="g18"
       transform="translate(-916.96066,-26.36433)"><path
         id="path5-0"
         style="fill:url(#linearGradient9);fill-rule:evenodd;stroke-width:0.334938;stroke-linecap:round;stroke-linejoin:bevel;stroke-miterlimit:3.7"
         d="M 1188.2868,132.45763 A 120.2509,75.985664 0 0 1 1068.0359,208.44329 120.2509,75.985664 0 0 1 947.78499,132.45763 120.2509,75.985664 0 0 1 1068.0359,56.471962 120.2509,75.985664 0 0 1 1188.2868,132.45763 Z" /><path
         id="path7"
         style="fill:#003399;fill-rule:evenodd;stroke-width:0.427;stroke-linecap:round;stroke-linejoin:bevel;stroke-miterlimit:3.7"
         d="m 1123.2975,262.3656 a 56.2724,31.541218 0 0 1 -56.2724,31.54122 56.2724,31.541218 0 0 1 -56.2724,-31.54122 56.2724,31.541218 0 0 1 56.2724,-31.54122 56.2724,31.541218 0 0 1 56.2724,31.54122 z" /><path
         style="fill:url(#linearGradient18);stroke:#ffffff;stroke-width:1;stroke-dasharray:none;stroke-opacity:1"
         d="m 1052.9749,41.741588 c -22.7294,3.09396 -44.3529,10.18448 -63.26565,23.46076 -75.9016,53.280842 -75.8409,167.985162 -0.8008,221.929852 13.34915,9.59646 28.93275,16.48405 44.84655,20.44406 15.1397,3.76744 31.7176,5.33401 47.249,3.47646 21.0933,-2.52273 41.34,-9.25168 59.2616,-20.76725 80.937,-52.00641 81.0585,-173.44731 1.6016,-226.724942 -13.0705,-8.7641 -27.9034,-15.18605 -43.2449,-18.67617 -14.5959,-3.32052 -30.7008,-5.17731 -45.6474,-3.14277 M 1176.303,162.32667 c 0,0.003 -0.01,0.007 -0.01,0.0105 -12.0878,13.05809 -74.2291,-12.88466 -112.1067,-12.82379 -35.9542,0.0578 -70.82415,12.81331 -106.51065,12.81331 0.2619,-12.68495 5.3403,-25.67117 11.0164,-36.83825 38.89395,-76.518422 150.06625,-78.637145 193.51265,-5.60583 7.3084,12.28507 13.7758,27.87226 14.0964,42.36851 3e-4,0.0165 7e-4,0.033 0,0.0494 0,0.003 1e-4,0.006 1e-4,0.008 10e-5,0.004 2e-4,0.008 3e-4,0.0115 0,0.002 10e-5,0.004 10e-5,0.006"
         id="path1-8"
         sodipodi:nodetypes="ccssssssccsscssssssc" /><path
         style="font-size:99.1127px;line-height:113.22%;font-family:'Great Vibes';-inkscape-font-specification:'Great Vibes, Normal';text-align:center;letter-spacing:4.23557px;baseline-shift:baseline;text-anchor:middle;fill:#ffffff;fill-rule:evenodd;stroke-width:0.800426;stroke-linecap:round;stroke-linejoin:bevel;stroke-miterlimit:3.7"
         d="m 1068.672,203.38582 q -0.8921,0 -0.3965,-1.38758 0.5947,-1.28847 1.0902,-2.37871 0.8921,-1.78402 0.8921,-5.55031 0,-3.27072 -1.1894,-7.037 -1.1893,-3.76628 -4.6583,-6.83878 -4.7574,-4.36095 -10.7042,-6.93788 -5.9467,-2.57693 -12.4882,-4.16274 -6.4423,-1.5858 -12.7855,-2.77515 -3.8654,5.35208 -8.3255,9.61393 -4.3609,4.26184 -9.3166,6.54144 -2.7751,1.28846 -5.3521,1.88314 -2.5769,0.69379 -4.8565,0.69379 -5.55028,0 -9.11834,-2.97338 -3.46895,-2.87427 -3.46895,-6.83878 0,-3.76628 3.36984,-7.33434 3.46894,-3.66717 11.39795,-6.04587 3.1716,-0.89202 7.037,-1.28847 3.8654,-0.49556 8.0281,-0.49556 2.577,0 5.0548,0.19822 2.5769,0.0991 4.7574,0.59468 2.8743,-4.36096 5.3521,-9.01926 2.4778,-4.75741 5.1538,-10.30772 -7.8299,0.19823 -13.5784,-2.27959 -5.7485,-2.57693 -8.9201,-6.83878 -3.0725,-4.26184 -3.0725,-9.11837 0,-3.9645 2.2796,-7.73079 2.2795,-3.86539 7.1361,-6.93789 4.9556,-3.1716 12.5873,-4.95563 0.4955,-0.19823 0.892,-0.19823 0.4956,0 0.892,0 1.4867,0 1.4867,0.59468 0,0.99113 -3.1716,1.38758 -5.1539,0.59467 -9.1184,3.66717 -3.8654,3.07249 -6.0458,7.33434 -2.0814,4.26184 -2.0814,8.6228 0,3.76629 1.784,7.037 1.784,3.27072 5.6494,5.35209 3.8654,1.98225 10.0104,1.98225 2.1805,0 4.6583,-0.29733 0.3965,-0.79291 1.2885,-3.17161 0.9911,-2.47782 2.1805,-5.55031 1.1893,-3.0725 2.2796,-5.94676 1.1893,-2.87427 1.8831,-4.75741 0.7929,-1.98226 0.7929,-1.98226 4.5592,-11.39796 9.3166,-17.840283 4.8565,-6.541439 9.3166,-9.217482 4.5592,-2.676042 8.1272,-2.676042 3.8654,0 6.3432,2.279592 2.577,2.279592 2.7752,5.15386 0.099,0.892014 0.099,1.288465 0,0.396451 0,0.991127 0,5.847653 -2.3787,11.695303 -2.2796,5.84765 -6.4423,11.10062 -4.0636,5.25297 -9.4157,9.51482 -5.253,4.26184 -11.2989,7.13611 -5.9467,2.87427 -12.0917,3.96451 -1.4867,2.97338 -2.6761,5.35209 -1.0902,2.27959 -2.4778,4.95563 -1.3876,2.67604 -3.6672,6.83878 -0.6937,1.28846 -1.0902,1.88314 -0.2973,0.49556 -0.9911,1.5858 4.9556,1.18935 10.8033,3.36983 5.8476,2.08137 11.497,5.05475 5.7486,2.87427 10.2086,6.34321 5.5504,4.26185 7.8299,9.61394 2.3788,5.35208 2.3788,9.4157 0,2.87427 -0.8921,4.36096 -1.2884,2.18048 -2.5769,2.77516 -1.2885,0.69379 -1.9822,0.69379 z M 1043.6956,138.467 q 6.7396,-1.48669 13.1819,-5.35209 6.4424,-3.96451 11.5962,-9.51482 5.1539,-5.64942 8.2264,-12.19086 3.0725,-6.64055 3.0725,-13.479327 0,-1.684916 -0.892,-2.775156 -0.8921,-1.09024 -2.577,-1.09024 -2.2796,0 -5.8476,2.576931 -3.5681,2.477817 -8.1273,8.424582 -4.5591,5.84765 -9.8121,16.15537 0,0 -1.3876,2.57693 -1.2885,2.57693 -3.3698,6.54144 -1.9823,3.86539 -4.0636,8.12724 z m -44.50165,43.7087 q 2.18045,0 4.65825,-0.59468 2.577,-0.59467 5.3521,-1.88314 8.3255,-4.06362 15.3625,-14.074 -2.2796,-0.49557 -4.7574,-0.69379 -2.4778,-0.29734 -5.0548,-0.29734 -2.676,0 -5.5503,0.29734 -2.7751,0.29734 -5.4512,1.09024 -6.64052,1.78403 -10.20858,4.55918 -3.46894,2.77516 -3.46894,5.64943 0,2.47781 2.47782,4.16273 2.47782,1.78403 6.64055,1.78403 z m 73.21795,-8.72192 q -1.0902,0 -2.676,-0.49556 -1.4867,-0.49557 -2.6761,-1.78403 -1.0902,-1.38758 -1.0902,-4.06362 0,-2.57693 1.1893,-4.95564 1.2885,-2.47781 2.3788,-4.75741 -0.2974,0 -0.6938,-0.19822 -0.2974,-0.19823 -0.2974,-0.59468 0,-0.39645 0.1983,-0.7929 0.3964,-0.7929 0.892,-1.68492 0.4955,-0.89201 0.892,-1.88314 1.4867,-3.07249 2.9734,-5.84765 1.4867,-2.87426 2.5769,-5.05474 1.0902,-2.18048 3.7663,-2.18048 h 6.145 q -1.685,1.28846 -3.0725,2.87426 -1.2885,1.4867 -3.2708,5.55032 0,0 -0.6937,1.38757 -0.6938,1.38758 -1.7841,3.56806 -0.9911,2.08137 -2.0813,4.26185 -0.9912,2.18048 -1.685,3.66717 -1.2884,2.77515 -1.6849,4.46007 -0.3964,1.5858 -0.3964,2.97338 0,3.27072 2.1805,3.27072 2.3787,0 5.7485,-3.8654 2.7752,-3.27072 5.4512,-7.8299 2.676,-4.55918 5.0547,-9.41571 2.4779,-4.85652 4.361,-8.72191 1.0902,-2.18048 3.8654,-2.18048 h 5.4512 q -1.4867,1.18935 -2.4778,2.27959 -0.9911,0.99113 -1.9823,2.77515 -0.892,1.68492 -2.4778,4.85653 -1.2885,2.67604 -2.7751,5.74853 -1.3876,2.97338 -2.4779,5.64943 -1.0902,2.67604 -1.3875,4.36096 -0.099,0.99112 -0.1983,1.48669 -0.099,0.49556 -0.099,1.09024 0,1.88314 0.5947,2.67604 0.6938,0.7929 1.5858,0.7929 2.3787,0 4.7574,-2.67604 2.4778,-2.67604 4.6583,-6.54144 2.2796,-3.8654 3.8654,-7.33434 0.5947,-1.09024 1.0902,-1.09024 0.5947,0 0.5947,0.69379 0,0.49556 -0.3964,1.18935 -1.0903,2.37871 -2.6761,5.4512 -1.5858,3.07249 -3.568,6.04587 -1.9823,2.97339 -4.361,4.95564 -2.3787,1.88314 -5.1539,1.88314 -2.4778,0 -4.0636,-1.78403 -1.5858,-1.88314 -1.5858,-5.25297 0,-2.67604 0.9911,-5.74854 -1.6849,2.97338 -3.8653,5.94676 -2.1805,2.97339 -4.6583,4.95564 -2.4779,1.88314 -4.9557,1.88314 z m 34.8613,1.18935 q -1.784,0 -1.784,-1.48669 0,-0.99112 0.4956,-1.68491 0.2973,-0.59468 2.0813,-1.28847 1.7841,-0.7929 3.6672,-1.48669 1.9823,-0.7929 2.6761,-1.18935 1.784,-0.89202 3.8654,-3.36983 2.1804,-2.57693 4.46,-5.74854 2.2796,-3.27072 4.4601,-6.34321 2.1805,-3.0725 4.1627,-5.15386 -1.784,-0.39645 -4.0636,-0.89202 -2.2796,-0.49556 -4.2618,-0.49556 -2.3787,0 -4.1628,0.59468 -1.6849,0.49556 -3.3698,2.18047 -1.6849,1.58581 -3.5681,4.75741 -1.8831,3.17161 -4.5591,8.42458 -0.4956,0.79291 -1.1894,0.79291 -0.4956,0 -0.4956,-0.59468 0,-0.39645 0.2974,-0.99113 0.4955,-0.89201 1.6849,-3.1716 1.1893,-2.37871 2.3787,-4.75741 1.1893,-2.47782 1.784,-3.56806 2.4778,-4.46007 4.7574,-6.54144 2.3787,-2.08137 4.5592,-2.67604 2.2796,-0.59468 4.2619,-0.59468 1.6849,0 3.1716,0.69379 1.5858,0.69379 3.0725,1.48669 1.4867,0.69379 2.9733,0.69379 1.8832,0 2.7752,-0.99113 0.892,-0.99112 1.5858,-0.99112 0.6938,0 1.1894,0.59467 0.4955,0.59468 0.4955,1.48669 0,1.28847 -0.892,1.68492 -0.7929,0.39645 -1.5858,0.89201 -2.676,1.48669 -5.1539,4.46007 -2.3787,2.87427 -4.7574,6.34322 -2.2796,3.46894 -4.5592,6.73966 -2.2795,3.17161 -4.5591,5.25297 1.9822,0.59468 4.8565,1.28847 2.8743,0.69379 5.253,0.69379 0.5946,0 0.9911,0 0.4956,-0.0991 0.9911,-0.19823 2.2796,-0.59467 4.2619,-2.67604 1.9822,-2.18048 3.6671,-4.95563 1.6849,-2.77516 2.9734,-5.55032 1.3876,-2.77515 2.2796,-4.55918 0.2973,-0.59468 0.892,-0.59468 0.5947,0 0.5947,0.59468 0,0.49556 -0.1982,0.89201 -2.2796,5.4512 -5.0548,10.50595 -2.7751,4.95564 -6.0459,8.02813 -3.1716,3.07249 -6.9378,2.97338 -4.2619,-0.19823 -7.5326,-0.89201 -3.2707,-0.69379 -5.5503,-0.69379 -1.8832,0 -3.6672,0.99112 -1.6849,1.09024 -3.6672,1.09024 z"
         id="text1-3"
         aria-label="Luz" /><path
         id="path8"
         style="fill:url(#linearGradient13);fill-rule:evenodd;stroke:#ffffff;stroke-width:1;stroke-linecap:round;stroke-linejoin:bevel;stroke-miterlimit:3.7;stroke-dasharray:none"
         d="m 1104.2083,270.93085 a 38.016495,19.008247 0 0 1 -38.0165,19.00824 38.016495,19.008247 0 0 1 -38.0165,-19.00824 38.016495,19.008247 0 0 1 38.0165,-19.00825 38.016495,19.008247 0 0 1 38.0165,19.00825 z" /><path
         id="path8-6"
         style="fill:url(#linearGradient15);fill-rule:evenodd;stroke:#ffffff;stroke-width:1;stroke-linecap:round;stroke-linejoin:bevel;stroke-miterlimit:3.7;stroke-dasharray:none"
         d="m 1009.7961,250.36251 a 38.016495,19.008247 50.240652 0 1 -38.92639,-17.06771 38.016495,19.008247 50.240652 0 1 -9.70164,-41.3817 38.016495,19.008247 50.240652 0 1 38.92633,17.0677 38.016495,19.008247 50.240652 0 1 9.7017,41.38171 z" /><path
         id="path8-6-0"
         style="fill:url(#linearGradient11);fill-rule:evenodd;stroke:#ffffff;stroke-width:1;stroke-linecap:round;stroke-linejoin:bevel;stroke-miterlimit:3.7;stroke-dasharray:none"
         d="m 1122.5874,250.36247 a 19.008247,38.016495 39.759348 0 0 38.9264,-17.06766 19.008247,38.016495 39.759348 0 0 9.7016,-41.38175 19.008247,38.016495 39.759348 0 0 -38.9263,17.06772 19.008247,38.016495 39.759348 0 0 -9.7017,41.38169 z" /></g></g></svg>
