<svg width="275" height="60" viewBox="0 0 72.76 15.875" xmlns="http://www.w3.org/2000/svg"><defs><linearGradient id="a" x1="147.46" x2="147.13" y1="10.684" y2="52.377" gradientTransform="translate(-54.784 -14.145) scale(.6065)" gradientUnits="userSpaceOnUse"><stop stop-color="#0ff" offset="0"/><stop stop-color="#0ff" offset=".5"/><stop stop-color="#0ff" stop-opacity=".247" offset=".699"/><stop stop-color="#0ff" stop-opacity="0" offset="1"/></linearGradient></defs><path d="M2.31 15.591q-.435 0-.742-.115-.485-.179-.703-.422-.23-.23-.23-.498 0-.345.345-.728.333-.37.933-.729.6-.345 1.38-.613.78-.255 1.661-.383.396-.064.87-.102l.97-.077q.499-.026.895-.026.472-.805.766-1.52.307-.716.537-1.648l.051-.205q-.243.23-.69.562-.434.32-1.022.652-.575.32-1.24.537-.651.217-1.341.217-.537 0-1.035-.166-.537-.192-.971-.64-.422-.46-.677-1.124-.243-.677-.243-1.495 0-.6.153-1.277.154-.69.499-1.406-.397-.409-.627-.907-.217-.498-.217-1.022 0-.46.192-.907.192-.46.6-.882.115-.128.218-.128.05 0 .05.051 0 .077-.089.18-.294.357-.434.753t-.14.792q0 .447.165.882.18.434.499.805l.128-.256.153-.255q.613-.997 1.495-1.712.894-.716 1.904-1.1Q7.382.285 8.34.285q.166 0 .32.012.166.013.332.039 1.24.191 1.853.83.613.64.613 1.431 0 .55-.307 1.1-.294.549-.907 1.009-.6.46-1.508.74-.894.282-2.082.307-.933.013-1.84-.23-.907-.255-1.533-.664-.32.677-.473 1.329-.14.639-.14 1.201 0 .945.395 1.623.396.677 1.1.907.204.064.408.09.217.025.422.025.575 0 1.15-.166.588-.18 1.086-.46.498-.281.843-.588.358-.32.473-.588.294-.664.575-.92.294-.268.524-.268.191 0 .32.179.14.166.101.46-.127 1.06-.587 2.057-.448.997-1.163 2.16.869.012 1.559.089.703.09 1.265.23.153.038.204.09.064.063.064.102 0 .089-.153.089-.077 0-.217-.038-.294-.077-.78-.14-.485-.052-1.048-.078-.55-.025-1.06-.025-.537.767-1.278 1.38-.728.626-1.546 1.073-.818.447-1.61.677-.78.243-1.405.243zM6.308 5.369h.28l.282-.026q1.29-.127 2.185-.587.907-.473 1.367-1.112.473-.639.473-1.252 0-.6-.46-1.06-.448-.473-1.38-.614-.128-.025-.218-.025H8.62q-.83 0-1.725.396-.881.396-1.686 1.111-.792.703-1.367 1.636-.141.243-.218.37-.076.128-.179.307.524.396 1.265.626.754.23 1.598.23zm-4.013 9.826q.499 0 1.176-.192.677-.179 1.405-.562.742-.37 1.419-.92t1.188-1.278q-.613.013-1.214.051-.588.051-1.175.154-.626.102-1.304.345-.664.255-1.239.587-.562.333-.92.665-.345.345-.345.626 0 .166.14.294.154.128.473.192.18.038.396.038zm12.197-4.37q-.141.013-.32-.064-.179-.077-.32-.281-.127-.205-.127-.575 0-.307.115-.741-.153.243-.396.6-.243.345-.524.614-.243.23-.46.332-.217.102-.396.102-.332 0-.537-.294-.204-.306-.204-.792 0-.511.255-1.163.256-.651.83-1.354.371-.447.895-.716.537-.28 1.048-.28.294 0 .562.102.269.089.473.306.09.09.09.205 0 .076-.064.127-.064.051-.167.026-.14-.447-.6-.447-.217 0-.498.14-.435.23-.908.754-.46.524-.805 1.086-.05.077-.166.294-.102.217-.204.486-.102.268-.14.524-.014.076-.014.115v.089q0 .422.32.422.383 0 .869-.563.332-.408.6-.856.269-.447.55-.958.191-.345.358-.575.166-.23.472-.23.14 0 .281.038.14.039.294.013-.102.102-.28.384-.167.28-.359.638-.191.358-.345.729-.153.37-.217.639l-.038.217q-.013.14-.013.204 0 .358.205.358.204 0 .434-.243.243-.243.473-.6.23-.358.421-.716.192-.37.307-.6.051-.128.153-.128.064 0 .064.09 0 .038-.038.14-.153.32-.37.728-.218.396-.473.78-.256.37-.537.626-.268.242-.55.268zm2.83.013q-.626 0-.895-.32-.255-.332-.255-.69 0-.294.14-.536.154-.243.358-.256.256-.498.55-1.086.306-.588.562-1.137.179-.37.447-.716.281-.345.613-.396h.128q.102 0 .179.013.09.013.179.051.14.064.14.192 0 .076-.09.076-.037 0-.101-.038-.154-.064-.269-.064-.076 0-.14.038-.243.128-.345.358-.09.23-.09.486 0 .204.039.421.05.205.115.371.14.358.294.703.166.345.166.74 0 .384-.256.819-.255.421-.652.677l.09.013q.064.012.09.012h.038q.294 0 .55-.166.267-.179.472-.434.204-.256.46-.716.268-.46.51-.97.04-.065.09-.065.064 0 .09.051.038.039.013.103-.167.357-.384.78-.204.408-.472.791-.269.37-.627.614-.345.23-.779.23-.102 0-.217-.013t-.23-.051q-.128.05-.269.076-.127.039-.242.039zm.383-.384q.217-.179.383-.524.18-.345.18-.907 0-.498-.103-1.06-.102-.562-.102-.997v-.153l.025-.14q-.166.344-.383.804-.217.447-.434.87l-.371.715.064.012q.077 0 .14.09.064.077.052.32-.013.319.14.6.166.268.409.37zm-.486.18q.077 0 .141-.014.064-.025.115-.038-.192-.14-.345-.37-.14-.243-.166-.614-.23.243-.23.524 0 .205.128.358.127.153.357.153zm1.95 3.64q-.154 0-.308-.05-.166-.039-.332-.013.077-.077.294-.447.217-.358.511-.895.281-.536.6-1.162.32-.626.601-1.227.281-.613.473-1.112.204-.51.256-.805-.115.167-.23.192-.103.013-.052-.077.026-.05.103-.242l.153-.345q.102-.256.166-.563.077-.306.077-.587 0-.18-.039-.307-.038-.128-.14-.14l.14-.026q.141-.026.294-.051.154-.026.205-.026.076-.013.14-.013.064-.012.115-.012.115 0 .154.09.05.076.05.331 0 .32-.114.818-.102.486-.243.856l.358-.588q.23-.357.524-.728.294-.37.613-.613.32-.256.626-.256.064 0 .166.026.358.09.499.358.153.255.153.613 0 .383-.153.843-.141.46-.384.907-.243.435-.536.793-.358.447-.857.715-.498.268-1.022.268-.473 0-.881-.242l-1.214 3.053q-.18.384-.345.524-.166.14-.422.14zm2.452-3.743q.358 0 .805-.332.448-.332.856-.843.422-.524.703-1.048.192-.358.281-.652.09-.307.09-.524 0-.498-.358-.498-.166 0-.434.179-.256.179-.601.651-.37.511-.818 1.29-.434.768-.894 1.624.153.153.37.153zm7.367.294q-.141.013-.32-.064-.179-.077-.32-.281-.127-.205-.127-.575 0-.307.115-.741-.153.243-.396.6-.243.345-.524.614-.243.23-.46.332-.217.102-.396.102-.332 0-.537-.294-.204-.306-.204-.792 0-.511.255-1.163.256-.651.83-1.354.371-.447.895-.716.537-.28 1.048-.28.294 0 .562.102.269.089.473.306.09.09.09.205 0 .076-.064.127-.064.052-.166.026-.141-.447-.601-.447-.217 0-.498.14-.435.23-.908.754-.46.524-.805 1.086-.05.077-.166.294-.102.217-.204.486-.102.268-.14.524-.013.076-.013.115v.089q0 .422.319.422.383 0 .869-.563.332-.408.6-.856.269-.447.55-.958.192-.345.358-.575.166-.23.472-.23.14 0 .281.038.141.039.294.013-.102.102-.28.384-.167.28-.358.638-.192.358-.345.729-.154.37-.218.639-.012.076-.038.217-.013.14-.013.204 0 .358.205.358.204 0 .434-.243.243-.243.473-.6.23-.358.421-.716.192-.37.307-.6.051-.128.153-.128.064 0 .064.09 0 .038-.038.14-.153.32-.37.728-.218.396-.473.78-.256.37-.537.626-.268.242-.55.268zm4.056-.026q-.242 0-.485-.191-.243-.205-.243-.652 0-.345.166-.792.154-.435.41-.843.267-.41.382-.665.039-.102.039-.179 0-.23-.294-.332-.281-.102-.741-.115l-.154.422q-.14.409-.396.958-.242.55-.55 1.06-.293.512-.612.818-.026.026-.064.026-.051 0-.064-.064-.026-.064.05-.153.5-.665.895-1.47.396-.818.665-1.66.28-.844.409-1.56.038-.204.14-.294.102-.102.217-.102.166 0 .307.166.14.154.14.448 0 .05-.012.115 0 .063-.013.127-.051.269-.307.511-.242.23-.396.345l.269.026h.306q.6 0 1.189-.077.025.077.025.115 0 .166-.102.422-.09.256-.192.46-.051.115-.204.422-.154.293-.332.677-.18.37-.307.74-.115.359-.115.614 0 .332.255.332.192 0 .422-.242.23-.256.447-.614.23-.37.41-.715.19-.358.293-.562.051-.128.14-.128.052 0 .052.09 0 .05-.039.153-.14.293-.332.664-.192.37-.434.728-.23.358-.511.626-.269.256-.588.333-.038.012-.14.012zm3.52.039q-.472 0-.856-.307-.37-.307-.37-.933 0-.575.281-1.226.281-.665.716-1.163.37-.434.83-.716.46-.28.869-.28.281 0 .486.153.217.166.217.472 0 .32-.243.703-.243.383-.69.716-.192.14-.486.268-.293.128-.587.217-.294.077-.486.077-.064.153-.128.409-.05.255-.05.524 0 .32.127.575.128.255.473.255.421 0 .766-.243.345-.242.614-.6.268-.37.447-.741.192-.37.307-.626.076-.18.204-.18.064 0 .064.065 0 .05-.038.127l-.384.818q-.204.422-.485.805-.281.37-.677.6-.384.23-.92.23zm-.23-2.25q.18 0 .601-.127.422-.14.767-.434.332-.294.51-.64.18-.357.18-.6 0-.28-.205-.28-.153 0-.421.204-.269.204-.665.69-.243.306-.46.664-.217.358-.306.524zm11.884 3.4q-.92 0-1.777-.23-.856-.218-1.533-.665-.677-.447-1.086-1.124-.396-.677-.396-1.597 0-.678.243-1.444.14-.435.396-.741.268-.307.55-.473.28-.166.446-.166.218 0 .18.204-.077.09-.269.218-.179.115-.396.306-.204.192-.396.499-.179.293-.256.753l-.05.333q-.014.166-.014.319 0 .83.358 1.47.358.638.933 1.06.588.422 1.278.626.702.217 1.38.204 1.035-.025 1.84-.293.805-.256 1.43-.69.627-.435 1.1-.959.396-.434.792-1.06.396-.626.766-1.342.384-.728.716-1.444.345-.715.639-1.354.294-.639.511-1.086.217-.46.358-.639-1.01-.307-1.942-.473-.92-.179-1.968-.23-.958-.05-1.712.217-.741.269-1.265.729-.511.447-.793.984-.268.536-.268 1.035 0 .434.217.78.23.331.69.485.307.09.6.09.46 0 .806-.193.345-.191.575-.46.243-.28.358-.523.127-.256.127-.371V4.73q.064-.076.128-.076.128 0 .128.178-.064.55-.396.959-.32.409-.78.626-.46.217-.97.217-.358 0-.69-.115-.703-.255-1.061-.818-.358-.575-.358-1.24 0-.561.243-1.11.243-.563.74-1.023.5-.473 1.24-.754.741-.28 1.738-.28h.268q.103 0 .345.025.6.05 1.214.204.614.14 1.176.32t1.035.345q.472.166.78.242.037-.05.216-.179.192-.127.384-.268.204-.14.32-.243.114-.102.012-.102h-.013q.038-.013.102-.013.128 0 .192.09.064.076.064.166 0 .166-.153.166-.026 0-.103-.026-.05-.05-.191.052-.128.102-.269.242-.127.128-.204.218.281.089.703.217l.92.243q.498.115.97.191.474.077.844.077.358 0 .562-.09.217-.089.217-.293 0-.077.026-.128.038-.064.128-.064.064 0 .09.115.025.102.025.166 0 .307-.332.498-.32.192-.805.192h-.154q-.076-.013-.166-.026-1.431-.179-2.236-.46-.792-.28-.997-.37-.575.92-.945 1.89-.37.972-.703 1.943-.32.971-.754 1.878-.421.908-1.124 1.713-.511.575-1.252.97-.729.397-1.585.588-.856.205-1.737.205zm8.733-1.201q-.486 0-.716-.32-.23-.332-.23-.805 0-.575.269-1.201.255-.588.651-1.073.397-.486.857-.78.46-.306.894-.306.485 0 .715.32.23.319.23.804 0 .588-.268 1.201-.153.345-.434.767-.281.409-.64.754.077.14.218.242.14.09.383.09.307 0 .575-.256.281-.255.511-.613.23-.37.41-.741.178-.37.293-.6.039-.077.128-.077.051 0 .077.05.025.04-.013.129-.077.191-.256.575-.179.37-.434.779-.256.396-.588.677-.332.281-.741.281-.281 0-.486-.09-.204-.101-.332-.242-.268.205-.536.32-.269.115-.537.115zm.192-.282q.345 0 .74-.332-.101-.153-.153-.32-.05-.165-.05-.306 0-.23.101-.396.115-.166.345-.166.167 0 .269.128.115.115.115.268 0 .038-.013.077 0 .025-.013.064.217-.294.41-.69.42-.908.42-1.495 0-.294-.114-.46-.115-.166-.345-.166-.269 0-.588.23-.307.23-.6.613-.282.383-.499.856-.204.434-.332.843-.115.396-.115.69 0 .256.102.41.102.152.32.152zm5.334.333q-.728 0-1.022-.345-.294-.358-.294-.87 0-.561.256-1.2.268-.64.626-1.112.37-.498.818-.767.447-.28.907-.28.485 0 .715.242.23.243.18.652-.026.255-.244.51-.217.244-.434.244-.102 0-.179-.077.102-.128.217-.307t.166-.345q.052-.153.052-.306 0-.32-.307-.32-.345 0-.728.358-.371.345-.652.754-.115.153-.281.485-.153.32-.281.716-.128.383-.128.754 0 .383.166.69.179.294.588.294.562 0 .958-.345.409-.358.716-.882.32-.524.575-1.022.076-.153.153-.153.064 0 .064.102 0 .05-.038.128-.307.664-.627 1.213-.319.55-.779.87-.447.319-1.163.319zm4.134 0q-.729 0-1.022-.345-.294-.358-.294-.87 0-.561.255-1.2.269-.64.626-1.112.37-.498.818-.767.447-.28.907-.28.486 0 .716.242.23.243.179.652-.026.255-.243.51-.217.244-.435.244-.102 0-.178-.077.102-.128.217-.307t.166-.345q.051-.153.051-.306 0-.32-.307-.32-.345 0-.728.358-.37.345-.652.754-.115.153-.28.485-.154.32-.282.716-.128.383-.128.754 0 .383.167.69.178.294.587.294.562 0 .959-.345.408-.358.715-.882.32-.524.575-1.022.077-.153.153-.153.064 0 .064.102 0 .05-.038.128-.307.664-.626 1.213-.32.55-.78.87-.447.319-1.162.319zm4.504-5.239q-.192 0-.32-.128-.115-.14-.115-.332 0-.243.192-.422t.422-.179q.204 0 .332.128.128.128.128.307 0 .243-.192.434-.192.192-.447.192zm-1.035 5.188q-.473 0-.665-.269-.191-.28-.191-.639 0-.191.038-.383.051-.204.115-.37l.856-2.185q.038-.103.038-.18 0-.127-.063-.216-.064-.103-.09-.141l.703-.026q.191-.012.268.052.09.05.09.127t-.09.281L70.03 9.33l-.077.166q-.064.153-.077.205-.038.191-.05.242-.014.051-.014.064t0 .102q0 .167.077.282.09.115.294.115.128 0 .294-.077.166-.077.243-.153.319-.333.626-.87.32-.549.587-1.085.052-.128.128-.128.064 0 .064.09 0 .05-.038.153-.128.268-.32.664-.191.396-.46.792-.255.384-.562.64-.307.255-.664.255z" fill="url(#a)" fill-rule="evenodd" stroke="#fff" stroke-linecap="round" stroke-width=".19" aria-label="Gaspare Tocci"/></svg>