<svg width="200" height="100" viewBox="0 0 52.917 26.458" xml:space="preserve" xmlns:xlink="http://www.w3.org/1999/xlink" xmlns="http://www.w3.org/2000/svg"><defs><linearGradient xlink:href="#a" id="b" x1="25.557" y1="-7.014" x2="25.748" y2="54.405" gradientUnits="userSpaceOnUse" gradientTransform="matrix(.19312 0 0 .22043 -1.664 22.744)"/><linearGradient id="a"><stop style="stop-color:#007676;stop-opacity:1" offset="0"/><stop style="stop-color:#0cc;stop-opacity:1" offset=".112"/><stop style="stop-color:#00a0a0;stop-opacity:1" offset=".306"/><stop style="stop-color:#0ff;stop-opacity:1" offset=".5"/><stop style="stop-color:#0ff;stop-opacity:.24705882" offset=".699"/><stop style="stop-color:#0ff;stop-opacity:0" offset="1"/></linearGradient><linearGradient xlink:href="#a" id="c" x1="-24.162" y1="-7.023" x2="-3.414" y2="-7.085" gradientUnits="userSpaceOnUse" gradientTransform="matrix(-.33276 -.00233 .00084 -1.5126 -1.587 -21.742)"/></defs><path style="fill:url(#b);fill-opacity:1;fill-rule:evenodd;stroke:#fff;stroke-width:.0647864;stroke-linecap:round;stroke-dasharray:none;stroke-opacity:1" d="M6.245 22.915c-.429.004-.999.628-1.322.68-.54.087-1.228-.195-1.798-.179-.363.01-.801.242-1.153.175-.484-.093-.931-.783-1.473-.632-.606.17-.151 1.42-.275 1.825-.135.446-.424.772-.497 1.263-.174 1.18.134 2.565 1.046 3.258.47.358 1.024.468 1.568.585-.133.252-.212.641-.368.857-.213.295-.839.24-1.108.107-.717-.355-.822-1.405-1.752-1.28.135.329.426.498.61.79.186.296.276.659.475.946.44.636 1.134.663 1.774.527 0 .334.123 1.086-.074 1.352a.265.265 0 0 1-.125.095 5.435 6.204 0 0 0 1.673.31 5.435 6.204 0 0 0 1.673-.31.279.279 0 0 1-.05-.027c-.242-.162-.146-.73-.146-.999 0-.868.036-1.602-.369-2.368.528-.145 1.05-.216 1.522-.551.95-.674 1.269-2.095 1.092-3.292-.073-.498-.42-.854-.51-1.316-.1-.5.285-1.271-.144-1.705a.359.359 0 0 0-.27-.11zm-4.12 2.958a.527.342 0 0 1 .526.342.527.342 0 0 1-.527.343.527.342 0 0 1-.527-.343.527.342 0 0 1 .527-.342zm2.527 0a.527.342 0 0 1 .527.342.527.342 0 0 1-.527.343.527.342 0 0 1-.527-.343.527.342 0 0 1 .527-.342z" transform="translate(24.235 24.423)"/><path style="opacity:.875318;fill:url(#c);fill-rule:evenodd;stroke:none;stroke-width:.222769;stroke-linecap:round;stroke-dasharray:none" d="m6.45 1.918-6.693-.047.015-26.62 6.693.047z" transform="translate(24.235 24.423)"/></svg>