<?xml version="1.0" encoding="UTF-8" standalone="no"?>
<!-- Created with Inkscape (http://www.inkscape.org/) -->

<svg
   width="2160"
   height="3840"
   viewBox="0 0 2160 3840"
   version="1.1"
   id="svg1"
   inkscape:version="1.3.2 (091e20e, 2023-11-25, custom)"
   sodipodi:docname="body-bg.svg"
   xmlns:inkscape="http://www.inkscape.org/namespaces/inkscape"
   xmlns:sodipodi="http://sodipodi.sourceforge.net/DTD/sodipodi-0.dtd"
   xmlns:xlink="http://www.w3.org/1999/xlink"
   xmlns="http://www.w3.org/2000/svg"
   xmlns:svg="http://www.w3.org/2000/svg">
  <sodipodi:namedview
     id="namedview1"
     pagecolor="#505050"
     bordercolor="#eeeeee"
     borderopacity="1"
     inkscape:showpageshadow="0"
     inkscape:pageopacity="0"
     inkscape:pagecheckerboard="0"
     inkscape:deskcolor="#505050"
     inkscape:document-units="px"
     inkscape:zoom="0.22083334"
     inkscape:cx="1276.9811"
     inkscape:cy="1356.2264"
     inkscape:window-width="1920"
     inkscape:window-height="1017"
     inkscape:window-x="1912"
     inkscape:window-y="-8"
     inkscape:window-maximized="1"
     inkscape:current-layer="layer1"
     showgrid="false" />
  <defs
     id="defs1">
    <linearGradient
       id="linearGradient13"
       inkscape:collect="always">
      <stop
         style="stop-color:#000000;stop-opacity:1;"
         offset="0"
         id="stop14" />
      <stop
         style="stop-color:#000000;stop-opacity:0;"
         offset="1"
         id="stop15" />
    </linearGradient>
    <linearGradient
       id="linearGradient1"
       inkscape:collect="always">
      <stop
         style="stop-color:#000000;stop-opacity:1;"
         offset="0"
         id="stop1" />
      <stop
         style="stop-color:#000000;stop-opacity:1;"
         offset="0.05916907"
         id="stop6" />
      <stop
         style="stop-color:#032f2f;stop-opacity:1;"
         offset="0.24130836"
         id="stop7" />
      <stop
         style="stop-color:#065f5f;stop-opacity:1;"
         offset="0.40738925"
         id="stop10" />
      <stop
         style="stop-color:#035e5e;stop-opacity:0.85098039;"
         offset="0.54069877"
         id="stop8" />
      <stop
         style="stop-color:#005d5d;stop-opacity:0.7019608;"
         offset="0.61123455"
         id="stop9" />
      <stop
         style="stop-color:#000404;stop-opacity:1"
         offset="0.90624964"
         id="stop3" />
    </linearGradient>
    <linearGradient
       inkscape:collect="always"
       xlink:href="#linearGradient1"
       id="linearGradient2"
       x1="19.211937"
       y1="44.827797"
       x2="2132.5273"
       y2="3797.5635"
       gradientUnits="userSpaceOnUse"
       gradientTransform="matrix(1,0,0,1.0016722,0,-6.414695)" />
    <radialGradient
       inkscape:collect="always"
       xlink:href="#linearGradient13"
       id="radialGradient15-2"
       cx="-2286.7925"
       cy="439.24527"
       fx="-2286.7925"
       fy="439.24527"
       r="430.18869"
       gradientUnits="userSpaceOnUse"
       gradientTransform="matrix(0.6142564,0.47900756,-0.83502662,1.0707982,3428.7037,1666.3122)" />
    <radialGradient
       inkscape:collect="always"
       xlink:href="#linearGradient13"
       id="radialGradient15-8"
       cx="-2286.7925"
       cy="439.24527"
       fx="-2286.7925"
       fy="439.24527"
       r="430.18869"
       gradientUnits="userSpaceOnUse"
       gradientTransform="matrix(0.88369459,0,0,1.3578948,2681.7433,1043.2785)" />
    <radialGradient
       inkscape:collect="always"
       xlink:href="#linearGradient13"
       id="radialGradient15-8-8"
       cx="-2286.7925"
       cy="439.24527"
       fx="-2286.7925"
       fy="439.24527"
       r="430.18869"
       gradientUnits="userSpaceOnUse"
       gradientTransform="matrix(0.42692725,-0.42269638,0.95538338,0.96494605,2241.3792,830.34313)" />
    <radialGradient
       inkscape:collect="always"
       xlink:href="#linearGradient13"
       id="radialGradient15-8-86"
       cx="-2286.7925"
       cy="439.24527"
       fx="-2286.7925"
       fy="439.24527"
       r="430.18869"
       gradientUnits="userSpaceOnUse"
       gradientTransform="matrix(0.03432114,0.6438216,-1.1293589,0.28168413,1302.0909,4078.9597)" />
  </defs>
  <g
     inkscape:label="Livello 1"
     inkscape:groupmode="layer"
     id="layer1">
    <path
       id="rect1"
       style="fill:url(#linearGradient2);fill-rule:evenodd;stroke-width:1.13481;stroke-linecap:round;stroke-miterlimit:3.7"
       d="M 0,2.2524688e-8 H 2158.1433 V 3835.9875 H 0 Z" />
    <path
       id="path13-3"
       style="fill:url(#radialGradient15-8);fill-rule:evenodd;stroke-width:1.24207;stroke-linecap:round;stroke-miterlimit:3.7"
       d="m 1041.0725,1639.7271 c 0,154.9265 -101.92112,502.0311 106.2634,300.9873 85.8041,-82.8609 -385.5954,283.1636 -486.41889,283.1636 -100.82348,0 -197.51751,-61.5443 -268.81048,-171.0938 -71.29297,-109.5496 -111.34495,-258.1306 -111.34496,-413.0571 -1e-5,-154.9265 40.05197,-303.5076 111.34494,-413.0571 71.29298,-109.5496 167.987,-171.0939 268.8105,-171.0939 100.8235,0 197.51752,61.5443 268.8105,171.0939 71.29299,109.5495 111.34499,258.1306 111.34499,413.0571 z"
       sodipodi:nodetypes="sssssssss" />
    <path
       id="path13-3-3"
       style="fill:url(#radialGradient15-8-8);fill-rule:evenodd;stroke-width:1.02412;stroke-linecap:round;stroke-miterlimit:3.7"
       d="m 1868.3919,2038.9707 c 109.0027,110.0938 303.9777,405.5047 263.1053,163.0585 -16.8457,-99.925 12.9399,385.6628 -35.7696,433.8896 -48.7094,48.2267 -138.7251,50.7437 -250.2443,6.9972 -111.5194,-43.7466 -235.4073,-130.1731 -344.4101,-240.2668 -109.0027,-110.0937 -194.1911,-234.8364 -236.8248,-346.7858 -42.6338,-111.9495 -39.2204,-201.9356 9.489,-250.1623 48.7095,-48.2268 138.7251,-50.7437 250.2444,-6.9971 111.5194,43.7464 235.4074,130.173 344.4101,240.2667 z"
       sodipodi:nodetypes="sssssssss" />
    <path
       id="path13-3-4"
       style="fill:url(#radialGradient15-8-86);fill-rule:evenodd;stroke-width:0.973258;stroke-linecap:round;stroke-miterlimit:3.7"
       d="m 742.30489,3007.3662 c -128.85211,32.1382 -421.49687,29.8869 -246.20359,139.8563 72.24774,45.3244 -250.48255,-222.1884 -254.39835,-295.6437 -3.91581,-73.4558 43.5151,-156.6697 131.85829,-231.3357 88.34337,-74.6664 210.36241,-134.6682 339.21452,-166.8064 128.85211,-32.1384 253.98233,-33.7802 347.86334,-4.5643 93.8811,29.2157 148.8228,86.8959 152.7386,160.3517 3.9158,73.4555 -43.515,156.6695 -131.8584,231.3357 -88.34317,74.6662 -210.3623,134.6682 -339.21441,166.8064 z"
       sodipodi:nodetypes="sssssssss" />
    <path
       id="path13-0"
       style="fill:url(#radialGradient15-2);fill-rule:evenodd;stroke-width:1.16613;stroke-linecap:round;stroke-miterlimit:3.7"
       d="m 1921.4916,1247.3277 a 335.09442,584.15094 37.94771 0 1 -623.4652,254.5816 335.09442,584.15094 37.94771 0 1 94.9728,-666.70895 335.09442,584.15094 37.94771 0 1 623.4652,-254.5815 335.09442,584.15094 37.94771 0 1 -94.9728,666.70885 z"
       inkscape:transform-center-x="-525.283"
       inkscape:transform-center-y="-362.26414" />
  </g>
</svg>
