<svg width="130" height="50" viewBox="0 0 34.396 13.229" xmlns:xlink="http://www.w3.org/1999/xlink" xmlns="http://www.w3.org/2000/svg"><defs><linearGradient xlink:href="#a" id="b" x1="1.967" y1="-17.47" x2="2.012" y2="-7.169" gradientUnits="userSpaceOnUse" gradientTransform="translate(25.522 14.858) scale(.70442)"/><linearGradient id="a"><stop style="stop-color:#fff;stop-opacity:1" offset="0"/><stop style="stop-color:#0ff;stop-opacity:1" offset=".446"/><stop style="stop-color:#0ff;stop-opacity:1" offset=".57"/><stop style="stop-color:#0ff;stop-opacity:.24705882" offset=".699"/><stop style="stop-color:#fff;stop-opacity:1" offset="1"/></linearGradient></defs><path d="m16.229 7.252.565.143q-.178.696-.641 1.063-.46.364-1.127.364-.69 0-1.124-.28-.431-.282-.658-.815-.225-.533-.225-1.144 0-.667.254-1.162.256-.498.725-.755.472-.259 1.037-.259.64 0 1.077.326.437.326.609.918l-.556.13q-.149-.465-.431-.678-.283-.212-.711-.212-.492 0-.824.235-.33.236-.463.635-.134.396-.134.819 0 .544.157.952.16.405.495.606.335.2.725.2.475 0 .804-.273.33-.274.446-.813zm2.854 1.497L17.428 4.48h.612l1.11 3.101q.134.373.224.7.099-.35.23-.7l1.153-3.101h.577l-1.672 4.27z" style="font-size:8.46667px;line-height:113.22%;font-family:Arial;-inkscape-font-specification:&quot;Arial, Normal&quot;;letter-spacing:.529167px;fill:url(#b);fill-rule:evenodd;stroke:#fff;stroke-width:.183396;stroke-linecap:round" aria-label="CV"/></svg>