<svg width="130" height="50" viewBox="0 0 34.396 13.229" xmlns:xlink="http://www.w3.org/1999/xlink" xmlns="http://www.w3.org/2000/svg"><defs><linearGradient xlink:href="#a" id="c" x1="1.967" y1="-17.47" x2="2.012" y2="-7.169" gradientUnits="userSpaceOnUse" gradientTransform="translate(25.205 14.858) scale(.70442)"/><linearGradient id="a"><stop style="stop-color:#fff;stop-opacity:1" offset="0"/><stop style="stop-color:#0ff;stop-opacity:1" offset=".446"/><stop style="stop-color:#0ff;stop-opacity:1" offset=".57"/><stop style="stop-color:#0ff;stop-opacity:.24705882" offset=".699"/><stop style="stop-color:#fff;stop-opacity:1" offset="1"/></linearGradient><linearGradient id="b"><stop style="stop-color:#f9f9f9;stop-opacity:1" offset="0"/><stop style="stop-color:#f9f9f9;stop-opacity:0" offset="1"/></linearGradient><radialGradient xlink:href="#b" id="d" cx="17.266" cy="11.322" fx="17.266" fy="11.322" r="9.174" gradientTransform="matrix(.59387 0 0 .15726 6.617 4.834)" gradientUnits="userSpaceOnUse"/></defs><path d="m15.911 7.252.565.143q-.177.696-.64 1.063-.46.364-1.127.364-.69 0-1.124-.28-.431-.282-.659-.815-.224-.533-.224-1.144 0-.667.254-1.162.256-.498.725-.755.471-.259 1.036-.259.641 0 1.078.326.437.326.609.918l-.557.13q-.148-.465-.43-.678-.283-.212-.711-.212-.492 0-.824.235-.33.236-.463.635-.134.396-.134.819 0 .544.157.952.16.405.495.606.335.2.725.2.475 0 .804-.273.329-.274.445-.813zm2.854 1.497L17.111 4.48h.612l1.11 3.101q.133.373.224.7.099-.35.23-.7L20.44 4.48h.576l-1.671 4.27z" style="font-size:8.46667px;line-height:113.22%;font-family:Arial;-inkscape-font-specification:&quot;Arial, Normal&quot;;letter-spacing:.529167px;fill:url(#c);fill-rule:evenodd;stroke:#fff;stroke-width:.1;stroke-linecap:round;stroke-dasharray:none" aria-label="CV"/><ellipse style="opacity:.551724;fill:url(#d);fill-rule:evenodd;stroke-width:.0770627;stroke-linecap:round;stroke-miterlimit:3.7;stroke-dasharray:none" cx="16.871" cy="6.615" rx="5.448" ry="1.443"/></svg>