<svg width="130" height="50" viewBox="0 0 34.396 13.229" xmlns:xlink="http://www.w3.org/1999/xlink" xmlns="http://www.w3.org/2000/svg"><defs><linearGradient xlink:href="#a" id="c" x1="1.967" y1="-17.47" x2="2.012" y2="-7.169" gradientUnits="userSpaceOnUse" gradientTransform="matrix(.80175 0 0 .71243 14.795 14.952)"/><linearGradient id="a"><stop style="stop-color:#fff;stop-opacity:1" offset="0"/><stop style="stop-color:#0ff;stop-opacity:1" offset=".446"/><stop style="stop-color:#0ff;stop-opacity:1" offset=".57"/><stop style="stop-color:#0ff;stop-opacity:.24705882" offset=".699"/><stop style="stop-color:#fff;stop-opacity:1" offset="1"/></linearGradient><linearGradient id="b"><stop style="stop-color:#f9f9f9;stop-opacity:1" offset="0"/><stop style="stop-color:#f9f9f9;stop-opacity:0" offset="1"/></linearGradient><radialGradient xlink:href="#b" id="d" cx="17.266" cy="11.322" fx="17.266" fy="11.322" r="9.174" gradientTransform="matrix(1.88479 0 0 .15726 -15.266 4.834)" gradientUnits="userSpaceOnUse"/></defs><path d="M3.024 7.08v-.507l2.058-.003v1.603q-.474.335-.978.506-.504.168-1.034.168-.716 0-1.303-.27-.583-.275-.881-.79Q.587 7.27.587 6.635q0-.63.295-1.175.299-.548.856-.813.556-.265 1.282-.265.527 0 .952.153.427.15.67.421.241.271.367.707l-.58.142q-.11-.33-.272-.519-.162-.188-.464-.3-.301-.115-.67-.115-.44 0-.762.12-.321.119-.52.313-.196.194-.305.427-.186.4-.186.869 0 .577.222.966.226.389.653.577.428.189.909.189.417 0 .815-.142.398-.144.603-.306V7.08ZM5.92 8.773l1.866-4.317h.692l1.989 4.317h-.732l-.567-1.307H7.137l-.534 1.307ZM7.323 7H8.97l-.507-1.195q-.232-.545-.345-.896-.093.416-.262.825Zm4.057 1.773V4.456h.643v3.808h2.393v.51zm4.199 0V4.456h.643v3.808h2.393v.51zm4.24 0V4.456h3.513v.51h-2.87v1.322h2.687v.506h-2.688v1.47h2.983v.51zm4.948 0V4.456h2.154q.65 0 .988.117.338.115.54.41.202.294.202.65 0 .46-.334.775-.335.316-1.034.4.255.11.387.216.282.23.534.574l.845 1.175h-.809l-.643-.898q-.281-.389-.464-.595-.182-.206-.328-.288-.142-.083-.291-.115-.11-.02-.358-.02h-.746v1.916zm.643-2.412h1.382q.44 0 .69-.08.248-.082.377-.258.13-.18.13-.39 0-.306-.252-.503-.249-.197-.79-.197H25.41zm5.92 2.412V6.944l-1.873-2.488h.782l.958 1.301q.265.366.494.73.219-.338.53-.762l.941-1.27h.75l-1.94 2.49v1.828z" style="font-size:8.46667px;line-height:113.22%;font-family:Arial;-inkscape-font-specification:&quot;Arial, Normal&quot;;letter-spacing:.529167px;fill:url(#c);fill-rule:evenodd;stroke:#fff;stroke-width:.1;stroke-linecap:round;stroke-dasharray:none" aria-label="GALLERY"/><ellipse style="opacity:.551724;fill:url(#d);fill-rule:evenodd;stroke-width:.137288;stroke-linecap:round;stroke-miterlimit:3.7;stroke-dasharray:none" cx="17.276" cy="6.615" rx="17.291" ry="1.443"/></svg>