<?xml version="1.0" encoding="UTF-8" standalone="no"?>
<svg
   width="50"
   height="50"
   viewBox="0 0 13.229 13.229"
   version="1.1"
   id="svg14"
   sodipodi:docname="hamburger-img.svg"
   inkscape:version="1.3.2 (091e20e, 2023-11-25, custom)"
   xml:space="preserve"
   xmlns:inkscape="http://www.inkscape.org/namespaces/inkscape"
   xmlns:sodipodi="http://sodipodi.sourceforge.net/DTD/sodipodi-0.dtd"
   xmlns:xlink="http://www.w3.org/1999/xlink"
   xmlns="http://www.w3.org/2000/svg"
   xmlns:svg="http://www.w3.org/2000/svg"><sodipodi:namedview
     id="namedview14"
     pagecolor="#505050"
     bordercolor="#eeeeee"
     borderopacity="1"
     inkscape:showpageshadow="0"
     inkscape:pageopacity="0"
     inkscape:pagecheckerboard="0"
     inkscape:deskcolor="#505050"
     inkscape:zoom="4.6329636"
     inkscape:cx="26.333036"
     inkscape:cy="32.700451"
     inkscape:window-width="1920"
     inkscape:window-height="1017"
     inkscape:window-x="1912"
     inkscape:window-y="-8"
     inkscape:window-maximized="1"
     inkscape:current-layer="svg14" /><defs
     id="defs11"><linearGradient
       id="c"
       x1="14.321"
       x2="79.478996"
       y1="-56.719002"
       y2="118.79"
       gradientTransform="matrix(0.10013064,-0.00672264,0.00672264,0.10013064,2.2483257,3.2450823)"
       gradientUnits="userSpaceOnUse"><stop
         stop-color="#0ff"
         offset="0"
         id="stop1" /><stop
         stop-color="#007272"
         offset=".177"
         id="stop2" /><stop
         stop-color="#0ff"
         offset=".492"
         id="stop3" /><stop
         stop-color="#0ff"
         stop-opacity=".247"
         offset=".7"
         id="stop4" /><stop
         stop-color="#0ff"
         stop-opacity="0"
         offset="1"
         id="stop5" /></linearGradient><linearGradient
       id="a"><stop
         stop-color="#0aa"
         offset=".099"
         id="stop6" /><stop
         stop-color="#00bebe"
         offset=".209"
         id="stop7" /><stop
         stop-color="#0ff"
         stop-opacity=".688"
         offset=".354"
         id="stop8" /><stop
         stop-color="#0ff"
         stop-opacity=".43"
         offset=".512"
         id="stop9" /><stop
         stop-color="#0ff"
         stop-opacity=".247"
         offset=".664"
         id="stop10" /><stop
         stop-color="#0ff"
         stop-opacity="0"
         offset="1"
         id="stop11" /></linearGradient><linearGradient
       id="b"
       x1="43.145"
       x2="43.671001"
       y1="-40.596001"
       y2="79.514999"
       gradientUnits="userSpaceOnUse"
       xlink:href="#a"
       gradientTransform="matrix(0.10077731,0,0,0.10077731,2.3903183,2.4097683)" /><linearGradient
       id="d"
       x1="79.436996"
       x2="-22.895"
       y1="-5.3909998"
       y2="120.96"
       gradientTransform="matrix(0.09165092,-0.00128937,0.00128937,0.09165092,2.696371,3.2350779)"
       gradientUnits="userSpaceOnUse"
       xlink:href="#a" /></defs><path
     d="M 9.8222418,10.727827 C 9.2186865,11.162177 8.2982873,11.007988 7.6589561,10.392843 6.9015138,9.6649284 6.9863683,8.4987334 6.4644426,8.0288088 6.0299916,7.6009083 5.4569718,7.75671 4.9340384,7.8783482 5.8646161,7.2457691 5.8333751,6.4730087 5.1940438,5.5834473 4.8581531,5.1224919 3.622724,3.2071184 5.5079652,2.2470129 c -1.1659935,1.1315277 -0.1731355,2.0790359 0.3922253,3.16602 0.3471778,0.6832702 0.2156634,1.4863646 -0.283789,2.1136025 0.2836882,-0.00978 0.7291239,0.02721 1.1490629,0.2808664 0.8538862,0.4564204 0.9475083,1.4963415 1.3116167,2.2960092 0.3834577,0.738496 1.0253084,0.668053 1.7452615,0.624416 z"
     fill="url(#c)"
     id="path12"
     style="fill:url(#c);fill-rule:evenodd;stroke:#ffffff;stroke-width:0.120933;stroke-linecap:round" /><path
     d="M 4.6741337,9.6124234 C 4.8889909,9.9662526 4.4155391,10.005959 4.4181593,10.240972 4.4211827,10.521435 4.1279207,10.704346 3.8093636,10.66605 3.2758485,10.602057 3.1374813,10.442325 3.3659434,10.427208 3.6904464,10.405642 3.8670082,10.147551 3.7552462,9.8179084 3.6755313,9.3146265 4.1244943,9.4268924 4.3573906,9.3495962 4.6488386,9.2246323 8.9621075,2.727116 9.4653893,3.1258919 9.9947726,3.5455286 4.6253575,9.4043183 4.6741337,9.6123226 Z"
     fill="url(#d)"
     id="path13"
     style="fill:url(#d);fill-rule:evenodd;stroke:#ffffff;stroke-width:0.120933;stroke-linecap:round" /></svg>
