<?xml version="1.0" encoding="UTF-8" standalone="no"?>
<svg
   width="50"
   height="50"
   viewBox="0 0 13.229 13.229"
   version="1.1"
   id="svg14"
   sodipodi:docname="hamburger-img-active.svg"
   inkscape:version="1.3.2 (091e20e, 2023-11-25, custom)"
   xml:space="preserve"
   xmlns:inkscape="http://www.inkscape.org/namespaces/inkscape"
   xmlns:sodipodi="http://sodipodi.sourceforge.net/DTD/sodipodi-0.dtd"
   xmlns:xlink="http://www.w3.org/1999/xlink"
   xmlns="http://www.w3.org/2000/svg"
   xmlns:svg="http://www.w3.org/2000/svg"><sodipodi:namedview
     id="namedview14"
     pagecolor="#505050"
     bordercolor="#eeeeee"
     borderopacity="1"
     inkscape:showpageshadow="0"
     inkscape:pageopacity="0"
     inkscape:pagecheckerboard="0"
     inkscape:deskcolor="#505050"
     inkscape:zoom="9.2659273"
     inkscape:cx="25.57758"
     inkscape:cy="21.962184"
     inkscape:window-width="1920"
     inkscape:window-height="1017"
     inkscape:window-x="1912"
     inkscape:window-y="-8"
     inkscape:window-maximized="1"
     inkscape:current-layer="svg14" /><defs
     id="defs11"><linearGradient
       id="c"
       x1="14.321"
       x2="79.478996"
       y1="-56.719002"
       y2="118.79"
       gradientTransform="matrix(0.04160911,0.09132372,0.09132372,-0.04160911,1.1643708,3.6257868)"
       gradientUnits="userSpaceOnUse"><stop
         stop-color="#0ff"
         offset="0"
         id="stop1" /><stop
         stop-color="#007272"
         offset=".177"
         id="stop2" /><stop
         stop-color="#0ff"
         offset=".492"
         id="stop3" /><stop
         stop-color="#0ff"
         stop-opacity=".247"
         offset=".7"
         id="stop4" /><stop
         stop-color="#0ff"
         stop-opacity="0"
         offset="1"
         id="stop5" /></linearGradient><linearGradient
       id="a"><stop
         stop-color="#0aa"
         offset=".099"
         id="stop6" /><stop
         stop-color="#00bebe"
         offset=".209"
         id="stop7" /><stop
         stop-color="#0ff"
         stop-opacity=".688"
         offset=".354"
         id="stop8" /><stop
         stop-color="#0ff"
         stop-opacity=".43"
         offset=".512"
         id="stop9" /><stop
         stop-color="#0ff"
         stop-opacity=".247"
         offset=".664"
         id="stop10" /><stop
         stop-color="#0ff"
         stop-opacity="0"
         offset="1"
         id="stop11" /></linearGradient><linearGradient
       id="b"
       x1="43.145"
       x2="43.671001"
       y1="-40.596001"
       y2="79.514999"
       gradientUnits="userSpaceOnUse"
       xlink:href="#a"
       gradientTransform="matrix(0.10077731,0,0,0.10077731,2.3903183,2.4097683)" /><linearGradient
       id="d"
       x1="79.436996"
       x2="-22.895"
       y1="-5.3909998"
       y2="120.96"
       gradientTransform="matrix(0.05722573,-0.07160146,-0.07160146,-0.05722573,7.1906453,15.338923)"
       gradientUnits="userSpaceOnUse"
       xlink:href="#a" /></defs><path
     d="M 11.345424,6.740561 C 11.441257,6.0031636 10.868683,5.2662323 10.023792,4.9954804 9.0235829,4.6742947 8.0373983,5.3025073 7.3760527,5.0661654 6.7932149,4.8868705 6.6583689,4.3085608 6.5172259,3.7905508 6.4021347,4.9098745 5.7071391,5.2491616 4.6207124,5.1086592 4.0555613,5.0318042 1.7833032,4.8535229 1.8330538,6.9685788 2.2755708,5.4052252 3.5807998,5.8293904 4.8058843,5.8110804 5.5720695,5.79235 6.2165138,5.2954113 6.5315341,4.5580903 c 0.1260423,0.2543383 0.3700227,0.6288444 0.7926065,0.8780698 0.807022,0.5349361 1.7667755,0.1237498 2.6434467,0.064674 0.8320137,-0.01301 1.0746607,0.5853686 1.3779727,1.239768 z"
     fill="url(#c)"
     id="path12"
     style="fill:url(#c);fill-rule:evenodd;stroke:#ffffff;stroke-width:0.120933;stroke-linecap:round" /><path
     d="M 3.3662933,9.8656777 C 3.2185814,9.4789738 2.896862,9.8285876 2.7128395,9.6823902 2.4931647,9.5080009 2.1688385,9.6274645 2.0037239,9.9025688 1.7270781,10.363221 1.7683881,10.570473 1.9204389,10.399289 2.136483,10.1562 2.4486222,10.17502 2.6404556,10.465459 c 0.3486395,0.371615 0.5353023,-0.05186 0.7391858,-0.18841 0.2774432,-0.153569 8.0548516,0.424285 8.0485216,-0.217801 -0.0068,-0.6754966 -7.9274072,-0.02742 -8.06179,-0.1935085 z"
     fill="url(#d)"
     id="path13"
     style="fill:url(#d);fill-rule:evenodd;stroke:#ffffff;stroke-width:0.120933;stroke-linecap:round" /></svg>
