<svg width="130" height="50" viewBox="0 0 34.396 13.229" xmlns:xlink="http://www.w3.org/1999/xlink" xmlns="http://www.w3.org/2000/svg"><defs><linearGradient id="b"><stop style="stop-color:#f9f9f9;stop-opacity:1" offset="0"/><stop style="stop-color:#f9f9f9;stop-opacity:0" offset="1"/></linearGradient><linearGradient xlink:href="#a" id="c" x1="1.967" y1="-17.47" x2="2.012" y2="-7.169" gradientUnits="userSpaceOnUse" gradientTransform="translate(20.438 14.922) scale(.70972)"/><linearGradient id="a"><stop style="stop-color:#fff;stop-opacity:1" offset="0"/><stop style="stop-color:#0ff;stop-opacity:1" offset=".446"/><stop style="stop-color:#0ff;stop-opacity:1" offset=".57"/><stop style="stop-color:#0ff;stop-opacity:.24705882" offset=".699"/><stop style="stop-color:#fff;stop-opacity:1" offset="1"/></linearGradient><radialGradient xlink:href="#b" id="d" cx="17.266" cy="11.322" fx="17.266" fy="11.322" r="9.174" gradientTransform="matrix(1 0 0 .15726 .039 4.837)" gradientUnits="userSpaceOnUse"/></defs><path d="M7.923 8.767V4.465h.57v1.767h2.235V4.465h.57v4.302h-.57V6.739H8.492v2.028Zm4.524-2.095c0-.714.192-1.273.576-1.676.383-.404.878-.607 1.484-.607.397 0 .755.095 1.074.285.319.19.561.454.728.795.168.338.252.723.252 1.153 0 .436-.088.826-.264 1.17a1.812 1.812 0 0 1-.748.784 2.149 2.149 0 0 1-1.045.264c-.405 0-.767-.098-1.085-.293a1.888 1.888 0 0 1-.725-.801 2.427 2.427 0 0 1-.247-1.074Zm.587.009c0 .518.14.927.417 1.226.28.297.63.446 1.05.446.429 0 .78-.15 1.057-.452.277-.301.416-.728.416-1.282 0-.35-.06-.655-.179-.915a1.342 1.342 0 0 0-.52-.608 1.394 1.394 0 0 0-.765-.217c-.403 0-.75.139-1.041.417-.29.276-.435.737-.435 1.385zm4.618 2.086V4.465h.857l1.018 3.046c.094.284.163.496.206.637.049-.157.125-.387.229-.69l1.03-2.993h.765v4.302h-.548v-3.6l-1.25 3.6h-.514l-1.244-3.662v3.662zm5.41 0V4.465h3.11v.508h-2.54V6.29h2.38v.505h-2.38v1.464h2.64v.508z" style="font-size:8.46667px;line-height:113.22%;font-family:Arial;-inkscape-font-specification:&quot;Arial, Normal&quot;;letter-spacing:.529167px;fill:url(#c);fill-rule:evenodd;stroke:#fff;stroke-width:.1;stroke-linecap:round;stroke-dasharray:none" aria-label="HOME" transform="translate(.045)"/><ellipse style="opacity:.551724;fill:url(#d);fill-rule:evenodd;stroke-width:.1;stroke-linecap:round;stroke-miterlimit:3.7;stroke-dasharray:none" cx="17.304" cy="6.618" rx="9.174" ry="1.443"/></svg>