<svg width="130" height="50" viewBox="0 0 34.396 13.229" xmlns:xlink="http://www.w3.org/1999/xlink" xmlns="http://www.w3.org/2000/svg"><defs><linearGradient xlink:href="#a" id="b" x1="1.967" y1="-17.47" x2="2.012" y2="-7.169" gradientUnits="userSpaceOnUse" gradientTransform="translate(20.438 14.922) scale(.70972)"/><linearGradient id="a"><stop style="stop-color:#fff;stop-opacity:1" offset="0"/><stop style="stop-color:#0ff;stop-opacity:1" offset=".446"/><stop style="stop-color:#0ff;stop-opacity:1" offset=".57"/><stop style="stop-color:#0ff;stop-opacity:.24705882" offset=".699"/><stop style="stop-color:#fff;stop-opacity:1" offset="1"/></linearGradient></defs><path d="M8.023 8.767V4.465h.57v1.767h2.235V4.465h.57v4.302h-.57V6.739H8.592v2.028Zm4.524-2.095q0-1.071.576-1.676.575-.607 1.484-.607.596 0 1.074.285.478.284.728.795.252.507.252 1.153 0 .654-.264 1.17-.264.517-.748.784-.484.264-1.045.264-.607 0-1.085-.293-.479-.294-.725-.801-.247-.508-.247-1.074zm.587.009q0 .777.417 1.226.42.446 1.05.446.643 0 1.057-.452.416-.452.416-1.282 0-.525-.179-.915-.176-.394-.52-.608-.34-.217-.765-.217-.604 0-1.041.417-.435.413-.435 1.385zm4.618 2.086V4.465h.857l1.018 3.046q.141.425.206.637.073-.235.229-.69l1.03-2.993h.765v4.302h-.548v-3.6l-1.25 3.6h-.514l-1.244-3.662v3.662zm5.41 0V4.465h3.11v.508h-2.54V6.29h2.38v.505h-2.38v1.464h2.64v.508z" style="font-size:8.46667px;line-height:113.22%;font-family:Arial;-inkscape-font-specification:&quot;Arial, Normal&quot;;letter-spacing:.529167px;fill:url(#b);fill-rule:evenodd;stroke:#fff;stroke-width:.184774;stroke-linecap:round" aria-label="HOME"/></svg>