<?xml version="1.0" encoding="UTF-8" standalone="no"?>
<svg
   width="50"
   height="50"
   viewBox="0 0 13.229 13.229"
   version="1.1"
   id="svg14"
   sodipodi:docname="logo-navbar.svg"
   inkscape:version="1.3.2 (091e20e, 2023-11-25, custom)"
   xmlns:inkscape="http://www.inkscape.org/namespaces/inkscape"
   xmlns:sodipodi="http://sodipodi.sourceforge.net/DTD/sodipodi-0.dtd"
   xmlns:xlink="http://www.w3.org/1999/xlink"
   xmlns="http://www.w3.org/2000/svg"
   xmlns:svg="http://www.w3.org/2000/svg">
  <sodipodi:namedview
     id="namedview14"
     pagecolor="#505050"
     bordercolor="#eeeeee"
     borderopacity="1"
     inkscape:showpageshadow="0"
     inkscape:pageopacity="0"
     inkscape:pagecheckerboard="0"
     inkscape:deskcolor="#505050"
     inkscape:zoom="6.552"
     inkscape:cx="16.865079"
     inkscape:cy="46.169109"
     inkscape:window-width="1920"
     inkscape:window-height="1017"
     inkscape:window-x="1912"
     inkscape:window-y="-8"
     inkscape:window-maximized="1"
     inkscape:current-layer="g14" />
  <defs
     id="defs11">
    <linearGradient
       id="c"
       x1="14.321"
       x2="79.478996"
       y1="-56.719002"
       y2="118.79"
       gradientTransform="matrix(0.99358318,-0.06670789,0.06670789,0.99358318,-1.4089743,8.2887106)"
       gradientUnits="userSpaceOnUse">
      <stop
         stop-color="#0ff"
         offset="0"
         id="stop1" />
      <stop
         stop-color="#007272"
         offset=".177"
         id="stop2" />
      <stop
         stop-color="#0ff"
         offset=".492"
         id="stop3" />
      <stop
         stop-color="#0ff"
         stop-opacity=".247"
         offset=".7"
         id="stop4" />
      <stop
         stop-color="#0ff"
         stop-opacity="0"
         offset="1"
         id="stop5" />
    </linearGradient>
    <linearGradient
       id="a">
      <stop
         stop-color="#0aa"
         offset=".099"
         id="stop6" />
      <stop
         stop-color="#00bebe"
         offset=".209"
         id="stop7" />
      <stop
         stop-color="#0ff"
         stop-opacity=".688"
         offset=".354"
         id="stop8" />
      <stop
         stop-color="#0ff"
         stop-opacity=".43"
         offset=".512"
         id="stop9" />
      <stop
         stop-color="#0ff"
         stop-opacity=".247"
         offset=".664"
         id="stop10" />
      <stop
         stop-color="#0ff"
         stop-opacity="0"
         offset="1"
         id="stop11" />
    </linearGradient>
    <linearGradient
       id="b"
       x1="43.145"
       x2="43.671001"
       y1="-40.596001"
       y2="79.514999"
       gradientUnits="userSpaceOnUse"
       xlink:href="#a"
       gradientTransform="translate(146.84949,98.151973)" />
    <linearGradient
       id="d"
       x1="79.436996"
       x2="-22.895"
       y1="-5.3909998"
       y2="120.96"
       gradientTransform="matrix(0.90944001,-0.01279426,0.01279426,0.90944001,3.0369205,8.1894386)"
       gradientUnits="userSpaceOnUse"
       xlink:href="#a" />
    <linearGradient
       inkscape:collect="always"
       xlink:href="#c"
       id="linearGradient22"
       x1="24.698917"
       y1="26.064819"
       x2="50.674183"
       y2="78.765755"
       gradientUnits="userSpaceOnUse"
       gradientTransform="matrix(1.1998327,0,0,1.1998327,7.4028926,-11.017831)" />
    <linearGradient
       inkscape:collect="always"
       xlink:href="#c"
       id="linearGradient24"
       x1="89.900383"
       y1="105.36546"
       x2="48.271378"
       y2="61.731358"
       gradientUnits="userSpaceOnUse"
       gradientTransform="matrix(1.1998327,0,0,1.1998327,7.4028926,-11.017831)" />
  </defs>
  <g
     fill-rule="evenodd"
     id="g14"
     transform="matrix(0.10077731,0,0,0.10077731,-0.05201983,-0.05151595)">
    <path
       d="m 48.788073,12.328648 c -6.744689,0 -12.728978,1.494534 -17.946569,4.485104 -5.15396,2.99057 -9.228109,7.156841 -12.218678,12.501689 -2.926942,5.344848 -4.386666,11.646469 -4.386666,18.900192 0,7.190094 1.269326,13.364781 3.814491,18.518742 2.608796,5.090333 6.457735,9.002739 11.548067,11.738792 5.090332,2.736053 11.328487,4.103655 18.709467,4.103655 2.863312,0 5.598515,-0.444265 8.20731,-1.335072 2.608796,-0.954437 5.090134,-2.102983 7.444412,-3.439196 1.527099,-0.890808 2.640835,-1.433348 3.340757,-1.624235 0.763549,-0.254516 1.369555,-0.381449 1.814959,-0.381449 0.954437,0 1.62391,0.640815 2.005685,1.913399 0.445403,1.272582 0.699268,2.449785 0.762898,3.531481 h 1.907246 V 62.341557 c 0,-2.354278 0.09828,-4.102677 0.289163,-5.248002 0.215023,-0.967603 0.548442,-1.644577 0.990537,-2.067208 -1.373321,0.332498 -2.64669,0.836717 -3.802187,1.550406 -2.163391,1.272584 -4.003914,3.471399 -5.531013,6.589227 -1.5271,3.0542 -2.866044,7.283936 -4.011369,12.692414 h -2.196409 c 0.127259,-0.890809 0.190725,-1.969735 0.190725,-3.242318 0.06363,-1.272583 0.09843,-2.611528 0.09843,-4.011369 0,-1.590729 -0.06347,-3.881668 -0.190724,-6.872238 C 59.565795,58.780448 59.403677,55.70388 59.15487,52.50386 57.304434,52.45074 55.491093,52.41772 53.746905,52.41772 51.901659,52.35409 50.315002,52.290625 48.97879,52.226995 v 1.907246 c 2.672425,0.06363 4.709498,0.346152 6.10934,0.855185 1.399841,0.509033 2.317025,1.495837 2.76243,2.959307 0.509032,1.399841 0.769051,3.563848 0.769051,6.490789 v 9.35781 c 0,1.208954 -0.161743,2.189605 -0.479888,2.953154 -0.318146,0.699921 -0.924152,1.369393 -1.814961,2.005685 -0.69992,0.509033 -1.623257,0.953297 -2.768581,1.335072 -1.145326,0.381775 -2.478118,0.578326 -4.005217,0.578326 -5.91751,0 -10.470732,-2.64308 -13.652189,-7.924299 -3.117829,-5.281219 -4.67583,-13.648571 -4.67583,-25.101817 0,-4.199524 0.380798,-8.238863 1.144348,-12.12024 0.763551,-3.945008 1.940753,-7.476616 3.531482,-10.594444 1.590729,-3.117828 3.627802,-5.570509 6.109338,-7.352125 2.481538,-1.845246 5.470605,-2.768583 8.970209,-2.768583 2.290649,0 4.552931,0.415606 6.779951,1.242785 2.29065,0.82718 4.200791,1.975725 5.72789,3.439196 2.481538,2.036132 4.166471,4.482662 5.057279,7.345973 0.954437,2.799682 1.652566,6.106083 2.097971,9.923831 h 2.196409 c 0,-5.853881 0.03481,-10.527883 0.09843,-14.027486 0.06363,-3.563232 0.155753,-6.58711 0.283011,-9.068647 h -2.196409 c -0.381775,3.817749 -1.17818,5.72789 -2.387134,5.72789 -0.509034,0 -1.143696,-0.288674 -1.907245,-0.861337 -2.163383,-1.717983 -4.609913,-3.177707 -7.345966,-4.386661 -2.736053,-1.208954 -6.267661,-1.81496 -10.594443,-1.81496 z"
       style="font-size:79.5476px;line-height:113.22%;font-family:'Playfair Display';-inkscape-font-specification:'Playfair Display, @wght=700';font-variation-settings:'wght' 700;letter-spacing:4.21491px;fill:url(#linearGradient22);stroke:#ffffff;stroke-width:0.630007;stroke-linecap:round;stroke-miterlimit:3.7"
       id="path24" />
    <path
       d="m 78.085832,52.651518 v 1.48273 c -1.208954,0.06363 -2.132293,0.282685 -2.768583,0.66446 -0.08886,0.05924 -0.164897,0.150014 -0.246097,0.227639 1.197893,-0.290025 2.469328,-0.449126 3.832949,-0.449126 h 2.104123 v 54.498019 c 0,2.54515 -0.253865,4.44914 -0.762898,5.72172 -0.509033,1.27259 -1.495837,2.13246 -2.959308,2.57787 -1.46347,0.38177 -3.627477,0.60698 -6.490787,0.67061 v 1.90724 c 1.908873,-0.0636 4.418868,-0.12709 7.536696,-0.19073 3.117829,-0.0636 6.430381,-0.0923 9.929984,-0.0923 3.563232,0 6.967907,0.0287 10.212994,0.0923 3.308715,0.0636 5.945645,0.1271 7.918145,0.19073 v -1.90724 c -2.79968,-0.0636 -4.92888,-0.28884 -6.39235,-0.67061 -1.463468,-0.44541 -2.485082,-1.30528 -3.057744,-2.57787 -0.509034,-1.27258 -0.762898,-3.17657 -0.762898,-5.72172 V 54.577221 h 2.196409 c 2.926943,0 5.471743,0.66332 7.635133,1.999532 2.16339,1.272584 4.01007,3.471399 5.53717,6.589227 1.59072,3.117828 2.89486,7.347566 3.91293,12.692414 h 2.19641 c -0.0636,-0.890809 -0.1271,-1.969735 -0.19073,-3.242318 -0.0636,-1.272583 -0.0984,-2.611528 -0.0984,-4.011369 0,-1.590729 0.0348,-3.881668 0.0984,-6.872238 0.12726,-2.99057 0.31766,-6.10657 0.57217,-9.351657 -2.79968,0.06363 -5.95049,0.127096 -9.45009,0.190724 -3.4996,0.06363 -6.9964,0.09229 -10.496004,0.09229 H 88.64336 79.193264 c -0.369251,0 -0.738182,-0.01164 -1.107432,-0.01231 z"
       style="font-size:79.5476px;line-height:113.22%;font-family:'Playfair Display';-inkscape-font-specification:'Playfair Display, @wght=700';font-variation-settings:'wght' 700;letter-spacing:4.21491px;fill:url(#linearGradient24);stroke:#ffffff;stroke-width:0.630007;stroke-linecap:round;stroke-miterlimit:3.7"
       id="path25" />
    <path
       id="rect25"
       style="font-variation-settings:'wght' 700;fill:#3999d0;stroke:#ffffff;stroke-width:0.630007;stroke-linecap:round;stroke-miterlimit:3.7"
       d="m 59.270994,52.572848 h 18.952695 v 0.339958 H 59.270994 Z" />
  </g>
</svg>
