<?xml version="1.0" encoding="UTF-8" standalone="no"?>
<svg
   width="50"
   height="50"
   viewBox="0 0 13.229 13.229"
   version="1.1"
   id="svg14"
   sodipodi:docname="logo.svg"
   inkscape:version="1.3.2 (091e20e, 2023-11-25, custom)"
   xmlns:inkscape="http://www.inkscape.org/namespaces/inkscape"
   xmlns:sodipodi="http://sodipodi.sourceforge.net/DTD/sodipodi-0.dtd"
   xmlns:xlink="http://www.w3.org/1999/xlink"
   xmlns="http://www.w3.org/2000/svg"
   xmlns:svg="http://www.w3.org/2000/svg">
  <sodipodi:namedview
     id="namedview14"
     pagecolor="#505050"
     bordercolor="#eeeeee"
     borderopacity="1"
     inkscape:showpageshadow="0"
     inkscape:pageopacity="0"
     inkscape:pagecheckerboard="0"
     inkscape:deskcolor="#505050"
     inkscape:zoom="37.063709"
     inkscape:cx="21.732849"
     inkscape:cy="43.722014"
     inkscape:window-width="1920"
     inkscape:window-height="1017"
     inkscape:window-x="1912"
     inkscape:window-y="-8"
     inkscape:window-maximized="1"
     inkscape:current-layer="svg14" />
  <defs
     id="defs11">
    <linearGradient
       id="c"
       x1="14.321"
       x2="79.478996"
       y1="-56.719002"
       y2="118.79"
       gradientTransform="matrix(0.10013064,-0.00672264,0.00672264,0.10013064,2.2483257,3.2450823)"
       gradientUnits="userSpaceOnUse">
      <stop
         stop-color="#0ff"
         offset="0"
         id="stop1" />
      <stop
         stop-color="#007272"
         offset=".177"
         id="stop2" />
      <stop
         stop-color="#0ff"
         offset=".492"
         id="stop3" />
      <stop
         stop-color="#0ff"
         stop-opacity=".247"
         offset=".7"
         id="stop4" />
      <stop
         stop-color="#0ff"
         stop-opacity="0"
         offset="1"
         id="stop5" />
    </linearGradient>
    <linearGradient
       id="a">
      <stop
         stop-color="#0aa"
         offset=".099"
         id="stop6" />
      <stop
         stop-color="#00bebe"
         offset=".209"
         id="stop7" />
      <stop
         stop-color="#0ff"
         stop-opacity=".688"
         offset=".354"
         id="stop8" />
      <stop
         stop-color="#0ff"
         stop-opacity=".43"
         offset=".512"
         id="stop9" />
      <stop
         stop-color="#0ff"
         stop-opacity=".247"
         offset=".664"
         id="stop10" />
      <stop
         stop-color="#0ff"
         stop-opacity="0"
         offset="1"
         id="stop11" />
    </linearGradient>
    <linearGradient
       id="b"
       x1="43.145"
       x2="43.671001"
       y1="-40.596001"
       y2="79.514999"
       gradientUnits="userSpaceOnUse"
       xlink:href="#a"
       gradientTransform="matrix(0.10077731,0,0,0.10077731,16.927681,13.878132)" />
    <linearGradient
       id="d"
       x1="79.436996"
       x2="-22.895"
       y1="-5.3909998"
       y2="120.96"
       gradientTransform="matrix(0.09165092,-0.00128937,0.00128937,0.09165092,2.696371,3.2350779)"
       gradientUnits="userSpaceOnUse"
       xlink:href="#a" />
  </defs>
  <g
     id="g1"
     transform="rotate(2.5069434,6.404591,-4.3078103)">
    <path
       d="M 10.707963,10.559514 C 10.123305,11.018985 9.1972109,10.903835 8.5324519,10.316261 7.7449209,9.6210098 7.7804099,8.45227 7.2390899,8.0048247 6.7869409,7.5956687 6.2210189,7.7755501 5.7036939,7.9191817 c 0.90301,-0.671345 0.839136,-1.4420944 0.162778,-2.3038394 -0.355073,-0.446347 -1.670352,-2.3077932 0.172626,-3.346721 -1.117128,1.1797976 -0.08511,2.0844957 0.525687,3.1466134 0.375746,0.667986 0.278292,1.4759213 -0.194203,2.1237082 0.283021,-0.021761 0.729622,-0.00363 1.159907,0.23205 0.872414,0.4199228 1.009905,1.4549579 1.407486,2.2385221 0.414328,0.721629 1.052627,0.624121 1.7700931,0.550094 z"
       fill="url(#c)"
       id="path12"
       style="fill:#020245;fill-opacity:1;fill-rule:evenodd;stroke:#dcdcdc;stroke-width:0.052916;stroke-linecap:round;stroke-dasharray:none;stroke-opacity:1" />
    <path
       d="m 5.0169365,9.8272616 c 0.184894,0.4082274 -0.22253,0.4540394 -0.220274,0.7251844 0.0026,0.323582 -0.249762,0.534615 -0.523893,0.490431 -0.45911,-0.07383 -0.57818,-0.258121 -0.38158,-0.275563 0.279248,-0.02489 0.431186,-0.322652 0.33501,-0.702975 -0.0686,-0.5806593 0.317753,-0.4511334 0.518169,-0.5403128 0.250801,-0.1441765 3.962534,-7.6406525 4.395627,-7.1805669 0.455554,0.4841537 -4.165032,7.2437021 -4.123059,7.4836853 z"
       fill="url(#d)"
       id="path13"
       style="opacity:1;fill:#020245;fill-opacity:1;fill-rule:evenodd;stroke:#dcdcdc;stroke-width:0.0527262;stroke-linecap:round;stroke-dasharray:none;stroke-opacity:1" />
  </g>
</svg>
