<?xml version="1.0" encoding="UTF-8"?>
<svg width="50" height="50" version="1.1" viewBox="0 0 13.229 13.229" xmlns="http://www.w3.org/2000/svg" xmlns:xlink="http://www.w3.org/1999/xlink">
 <g transform="rotate(2.5069 6.4046 -4.3078)" fill="#001f3f" fill-rule="evenodd" stroke="#dcdcdc" stroke-linecap="round" stroke-width=".052916">
  <path d="m10.708 10.56c-0.58466 0.45947-1.5108 0.34432-2.1755-0.24325-0.78753-0.69525-0.75204-1.864-1.2934-2.3114-0.45215-0.40916-1.0181-0.22927-1.5354-0.085643 0.90301-0.67134 0.83914-1.4421 0.16278-2.3038-0.35507-0.44635-1.6704-2.3078 0.17263-3.3467-1.1171 1.1798-0.08511 2.0845 0.52569 3.1466 0.37575 0.66799 0.27829 1.4759-0.1942 2.1237 0.28302-0.021761 0.72962-0.00363 1.1599 0.23205 0.87241 0.41992 1.0099 1.455 1.4075 2.2385 0.41433 0.72163 1.0526 0.62412 1.7701 0.55009z"/>
  <path d="m5.0169 9.8273c0.18489 0.40823-0.22253 0.45404-0.22027 0.72518 0.0026 0.32358-0.24976 0.53462-0.52389 0.49043-0.45911-0.07383-0.57818-0.25812-0.38158-0.27556 0.27925-0.02489 0.43119-0.32265 0.33501-0.70298-0.0686-0.58066 0.31775-0.45113 0.51817-0.54031 0.2508-0.14418 3.9625-7.6407 4.3956-7.1806 0.45555 0.48415-4.165 7.2437-4.1231 7.4837z"/>
 </g>
</svg>
