<svg width="50" height="50" viewBox="0 0 13.229 13.229" xmlns="http://www.w3.org/2000/svg"><g fill="#001f3f" fill-rule="evenodd" stroke="#000" stroke-linecap="round" stroke-width=".053" paint-order="stroke markers fill"><path d="M10.054 10.734c-.604.433-1.524.278-2.163-.338-.756-.73-.67-1.895-1.19-2.366-.435-.429-1.008-.274-1.531-.153.931-.63.901-1.404.263-2.294-.335-.462-1.568-2.379.32-3.336-1.168 1.13-.177 2.079.387 3.167.346.683.213 1.486-.287 2.113a2.09 2.09 0 011.148.282c.854.458.946 1.498 1.309 2.298.382.74 1.024.67 1.744.627z" fill="#ffb347"/><path d="M4.4 9.753c.167.416-.242.444-.252.715-.011.323-.273.523-.545.467-.455-.094-.566-.283-.369-.292.28-.013.445-.303.366-.688-.043-.583.337-.436.541-.517.257-.133 4.293-7.46 4.705-6.981C9.28 2.96 4.37 9.51 4.4 9.753z" fill="#f9f9f9" stroke-linejoin="round"/></g></svg>