<?xml version="1.0" encoding="UTF-8" standalone="no"?>
<svg
   width="50"
   height="50"
   viewBox="0 0 13.229 13.229"
   version="1.1"
   id="svg14"
   sodipodi:docname="logo.svg"
   inkscape:version="1.3.2 (091e20e, 2023-11-25, custom)"
   xmlns:inkscape="http://www.inkscape.org/namespaces/inkscape"
   xmlns:sodipodi="http://sodipodi.sourceforge.net/DTD/sodipodi-0.dtd"
   xmlns:xlink="http://www.w3.org/1999/xlink"
   xmlns="http://www.w3.org/2000/svg"
   xmlns:svg="http://www.w3.org/2000/svg">
  <sodipodi:namedview
     id="namedview14"
     pagecolor="#505050"
     bordercolor="#eeeeee"
     borderopacity="1"
     inkscape:showpageshadow="0"
     inkscape:pageopacity="0"
     inkscape:pagecheckerboard="0"
     inkscape:deskcolor="#505050"
     inkscape:zoom="6.552"
     inkscape:cx="39.072039"
     inkscape:cy="46.016484"
     inkscape:window-width="1920"
     inkscape:window-height="1017"
     inkscape:window-x="1912"
     inkscape:window-y="-8"
     inkscape:window-maximized="1"
     inkscape:current-layer="svg14" />
  <defs
     id="defs11">
    <linearGradient
       id="c"
       x1="14.321"
       x2="79.478996"
       y1="-56.719002"
       y2="118.79"
       gradientTransform="matrix(0.99358318,-0.06670789,0.06670789,0.99358318,-1.4089743,8.2887106)"
       gradientUnits="userSpaceOnUse">
      <stop
         stop-color="#0ff"
         offset="0"
         id="stop1" />
      <stop
         stop-color="#007272"
         offset=".177"
         id="stop2" />
      <stop
         stop-color="#0ff"
         offset=".492"
         id="stop3" />
      <stop
         stop-color="#0ff"
         stop-opacity=".247"
         offset=".7"
         id="stop4" />
      <stop
         stop-color="#0ff"
         stop-opacity="0"
         offset="1"
         id="stop5" />
    </linearGradient>
    <linearGradient
       id="a">
      <stop
         stop-color="#0aa"
         offset=".099"
         id="stop6" />
      <stop
         stop-color="#00bebe"
         offset=".209"
         id="stop7" />
      <stop
         stop-color="#0ff"
         stop-opacity=".688"
         offset=".354"
         id="stop8" />
      <stop
         stop-color="#0ff"
         stop-opacity=".43"
         offset=".512"
         id="stop9" />
      <stop
         stop-color="#0ff"
         stop-opacity=".247"
         offset=".664"
         id="stop10" />
      <stop
         stop-color="#0ff"
         stop-opacity="0"
         offset="1"
         id="stop11" />
    </linearGradient>
    <linearGradient
       id="b"
       x1="43.145"
       x2="43.671001"
       y1="-40.596001"
       y2="79.514999"
       gradientUnits="userSpaceOnUse"
       xlink:href="#a" />
    <linearGradient
       id="d"
       x1="79.436996"
       x2="-22.895"
       y1="-5.3909998"
       y2="120.96"
       gradientTransform="matrix(0.90944001,-0.01279426,0.01279426,0.90944001,3.0369205,8.1894386)"
       gradientUnits="userSpaceOnUse"
       xlink:href="#a" />
  </defs>
  <g
     fill-rule="evenodd"
     id="g14"
     transform="matrix(0.10077731,0,0,0.10077731,-0.05201983,-0.05151595)">
    <path
       d="M 105.04,41.723 A 63.124,63.124 0 0 1 41.916,104.847 63.124,63.124 0 0 1 -21.208,41.723 63.124,63.124 0 0 1 41.916,-21.401 63.124,63.124 0 0 1 105.04,41.723 Z"
       fill="url(#b)"
       opacity="0.587"
       transform="translate(24.235,24.423)"
       id="path11"
       style="fill:url(#b)" />
    <g
       stroke="#ffffff"
       stroke-linecap="round"
       stroke-width="1.2"
       id="g13">
      <path
         d="M 73.746,82.539 C 67.757,86.849 58.624,85.319 52.28,79.215 44.764,71.992 45.606,60.42 40.427,55.757 c -4.311,-4.246 -9.997,-2.7 -15.186,-1.493 9.234,-6.277 8.924,-13.945 2.58,-22.772 -3.333,-4.574 -15.592,-23.58 3.115,-33.107 -11.57,11.228 -1.718,20.63 3.892,31.416 3.445,6.78 2.14,14.749 -2.816,20.973 2.815,-0.097 7.235,0.27 11.402,2.787 8.473,4.529 9.402,14.848 13.015,22.783 3.805,7.328 10.174,6.629 17.318,6.196 z"
         fill="url(#c)"
         transform="translate(24.235,24.423)"
         id="path12"
         style="fill:url(#c)" />
      <path
         d="m 22.662,71.471 c 2.132,3.511 -2.566,3.905 -2.54,6.237 0.03,2.783 -2.88,4.598 -6.041,4.218 -5.294,-0.635 -6.667,-2.22 -4.4,-2.37 3.22,-0.214 4.972,-2.775 3.863,-6.046 -0.791,-4.994 3.664,-3.88 5.975,-4.647 2.892,-1.24 45.692,-65.714 50.686,-61.757 5.253,4.164 -48.027,62.3 -47.543,64.364 z"
         fill="url(#d)"
         transform="translate(24.235,24.423)"
         id="path13"
         style="fill:url(#d)" />
    </g>
  </g>
</svg>
