<?xml version="1.0" encoding="UTF-8" standalone="no"?>
<svg
   width="50"
   height="50"
   version="1.1"
   viewBox="0 0 13.229 13.229"
   id="svg2"
   sodipodi:docname="logo.svg"
   inkscape:version="1.3.2 (091e20e, 2023-11-25, custom)"
   xmlns:inkscape="http://www.inkscape.org/namespaces/inkscape"
   xmlns:sodipodi="http://sodipodi.sourceforge.net/DTD/sodipodi-0.dtd"
   xmlns="http://www.w3.org/2000/svg"
   xmlns:svg="http://www.w3.org/2000/svg">
  <defs
     id="defs2" />
  <sodipodi:namedview
     id="namedview2"
     pagecolor="#505050"
     bordercolor="#eeeeee"
     borderopacity="1"
     inkscape:showpageshadow="0"
     inkscape:pageopacity="0"
     inkscape:pagecheckerboard="0"
     inkscape:deskcolor="#505050"
     showgrid="false"
     inkscape:zoom="16.38"
     inkscape:cx="28.449328"
     inkscape:cy="23.717949"
     inkscape:window-width="1920"
     inkscape:window-height="1017"
     inkscape:window-x="1912"
     inkscape:window-y="-8"
     inkscape:window-maximized="1"
     inkscape:current-layer="svg2" />
  <path
     d="M 10.053568,10.734 C 9.4493708,11.167458 8.5291538,11.011909 7.8907901,10.395827 7.1344238,9.6667965 7.2210006,8.5007174 6.6997279,8.0300666 6.2659071,7.6015213 5.6926304,7.7564847 5.1695433,7.8773476 6.1010533,7.2461475 6.0709572,6.4733315 5.432935,5.5828724 5.0977281,5.1214189 3.8650762,3.2042183 5.7517835,2.2469261 4.5841485,3.3767354 5.5755795,4.3257085 6.139339,5.4135082 6.4855117,6.0972941 6.3528073,6.9001681 5.8524349,7.5266815 c 0.2837009,-0.00936 0.7290805,0.028287 1.1486401,0.2825616 0.8532079,0.4576771 0.9452922,1.4977802 1.3082417,2.2979209 0.3823696,0.739062 1.0242938,0.669564 1.7443453,0.626988 z"
     id="path1"
     style="fill:#001f3f;fill-rule:evenodd;stroke:#ffb74d;stroke-width:0.052916;stroke-linecap:round;stroke-opacity:1" />
  <path
     d="M 4.399963,9.7530746 C 4.5668202,10.169001 4.1577864,10.196947 4.1481847,10.467926 4.1366289,10.79131 3.8752796,10.99111 3.6033448,10.934972 3.1479035,10.841131 3.0370083,10.651809 3.2341829,10.642985 3.5142543,10.630334 3.6790729,10.339504 3.5996204,9.9553314 3.556484,9.3722266 3.9367986,9.5185314 4.1409275,9.4382031 4.3977939,9.305131 8.4338372,1.9781341 8.8463981,2.4567374 9.2803355,2.9603497 4.3685469,9.5113291 4.3999092,9.7529321 Z"
     id="path2"
     style="fill:#001f3f;fill-rule:evenodd;stroke:#ffb74d;stroke-width:0.052916;stroke-linecap:round;fill-opacity:1;stroke-opacity:1" />
</svg>
