<?xml version="1.0" encoding="UTF-8" standalone="no"?>
<svg
   width="50"
   height="50"
   viewBox="0 0 13.229 13.229"
   version="1.1"
   id="svg2"
   sodipodi:docname="logo.svg"
   inkscape:version="1.4.3 (0d15f75, 2025-12-25)"
   xmlns:inkscape="http://www.inkscape.org/namespaces/inkscape"
   xmlns:sodipodi="http://sodipodi.sourceforge.net/DTD/sodipodi-0.dtd"
   xmlns="http://www.w3.org/2000/svg"
   xmlns:svg="http://www.w3.org/2000/svg">
  <defs
     id="defs2" />
  <sodipodi:namedview
     id="namedview2"
     pagecolor="#505050"
     bordercolor="#eeeeee"
     borderopacity="1"
     inkscape:showpageshadow="0"
     inkscape:pageopacity="0"
     inkscape:pagecheckerboard="0"
     inkscape:deskcolor="#505050"
     inkscape:zoom="5.529575"
     inkscape:cx="28.573624"
     inkscape:cy="15.191041"
     inkscape:window-width="1920"
     inkscape:window-height="1017"
     inkscape:window-x="1912"
     inkscape:window-y="-8"
     inkscape:window-maximized="1"
     inkscape:current-layer="svg2" />
  <path
     d="M 10.054,10.734 C 9.45,11.167 8.53,11.012 7.891,10.396 7.135,9.666 7.221,8.501 6.701,8.03 6.266,7.601 5.693,7.756 5.17,7.877 6.101,7.247 6.071,6.473 5.433,5.583 5.098,5.121 3.865,3.204 5.753,2.247 4.585,3.377 5.576,4.326 6.14,5.414 6.486,6.097 6.353,6.9 5.853,7.527 c 0.284,-0.01 0.729,0.028 1.148,0.282 0.854,0.458 0.946,1.498 1.309,2.298 0.382,0.74 1.024,0.67 1.744,0.627 z"
     id="path1"
     style="fill:#ff00ff;fill-opacity:1;fill-rule:evenodd;stroke:#000000;stroke-width:0.052916;stroke-linecap:round;stroke-dasharray:none;stroke-opacity:1;paint-order:stroke markers fill" />
  <path
     d="M 4.4,9.753 C 4.567,10.169 4.158,10.197 4.148,10.468 4.137,10.791 3.875,10.991 3.603,10.935 3.148,10.841 3.037,10.652 3.234,10.643 3.514,10.63 3.679,10.34 3.6,9.955 3.557,9.372 3.937,9.519 4.141,9.438 4.398,9.305 8.434,1.978 8.846,2.457 9.28,2.96 4.37,9.51 4.4,9.753 Z"
     id="path2"
     style="fill:#00f2ff;fill-opacity:1;fill-rule:evenodd;stroke:#000000;stroke-width:0.052916;stroke-linecap:round;stroke-linejoin:round;stroke-dasharray:none;stroke-opacity:1;paint-order:stroke markers fill" />
</svg>
