<svg width="500" height="500" viewBox="0 0 132.29 132.29" xmlns:xlink="http://www.w3.org/1999/xlink" xmlns="http://www.w3.org/2000/svg"><defs><linearGradient id="c" x1="14.321" x2="79.479" y1="-56.719" y2="118.79" gradientTransform="rotate(-3.841 122.891 25.154) scale(.99582)" gradientUnits="userSpaceOnUse"><stop stop-color="#0ff" offset="0"/><stop stop-color="#007272" offset=".177"/><stop stop-color="#0ff" offset=".492"/><stop stop-color="#0ff" stop-opacity=".247" offset=".7"/><stop stop-color="#0ff" stop-opacity="0" offset="1"/></linearGradient><linearGradient id="a"><stop stop-color="#0aa" offset=".099"/><stop stop-color="#00bebe" offset=".209"/><stop stop-color="#0ff" stop-opacity=".688" offset=".354"/><stop stop-color="#0ff" stop-opacity=".43" offset=".512"/><stop stop-color="#0ff" stop-opacity=".247" offset=".664"/><stop stop-color="#0ff" stop-opacity="0" offset="1"/></linearGradient><linearGradient id="b" x1="43.145" x2="43.671" y1="-40.596" y2="79.515" gradientUnits="userSpaceOnUse" xlink:href="#a"/><linearGradient id="d" x1="79.437" x2="-22.895" y1="-5.391" y2="120.96" gradientTransform="rotate(-.806 583.668 -211.786) scale(.90953)" gradientUnits="userSpaceOnUse" xlink:href="#a"/></defs><g fill-rule="evenodd"><path d="M105.04 41.723a63.124 63.124 0 0 1-63.124 63.124 63.124 63.124 0 0 1-63.124-63.124 63.124 63.124 0 0 1 63.124-63.124 63.124 63.124 0 0 1 63.124 63.124z" fill="url(#b)" opacity=".587" transform="translate(24.235 24.423)"/><g stroke="#fff" stroke-linecap="round" stroke-width="1.2"><path d="M73.746 82.539c-5.989 4.31-15.122 2.78-21.466-3.324-7.516-7.223-6.674-18.795-11.853-23.458-4.311-4.246-9.997-2.7-15.186-1.493 9.234-6.277 8.924-13.945 2.58-22.772-3.333-4.574-15.592-23.58 3.115-33.107-11.57 11.228-1.718 20.63 3.892 31.416 3.445 6.78 2.14 14.749-2.816 20.973 2.815-.097 7.235.27 11.402 2.787 8.473 4.529 9.402 14.848 13.015 22.783 3.805 7.328 10.174 6.629 17.318 6.196z" fill="url(#c)" transform="translate(24.235 24.423)"/><path d="M22.662 71.471c2.132 3.511-2.566 3.905-2.54 6.237.03 2.783-2.88 4.598-6.041 4.218-5.294-.635-6.667-2.22-4.4-2.37 3.22-.214 4.972-2.775 3.863-6.046-.791-4.994 3.664-3.88 5.975-4.647 2.892-1.24 45.692-65.714 50.686-61.757 5.253 4.164-48.027 62.3-47.543 64.364z" fill="url(#d)" transform="translate(24.235 24.423)"/></g></g></svg>