<?xml version="1.0" encoding="UTF-8"?>
<!-- Created with Inkscape (http://www.inkscape.org/) -->
<svg width="1200" height="600" version="1.1" viewBox="0 0 1200 600" xml:space="preserve" xmlns="http://www.w3.org/2000/svg" xmlns:xlink="http://www.w3.org/1999/xlink"><defs><linearGradient id="linearGradient2" x2="1200" y1="300" y2="300" gradientUnits="userSpaceOnUse"><stop offset="0"/><stop stop-color="#004481" offset=".50182"/><stop offset="1"/></linearGradient></defs><g fill-rule="evenodd" stroke-linecap="round"><path d="m0 0h1200v600h-1200z" fill="url(#linearGradient2)" stroke-miterlimit="3.7" stroke-width=".37957"/><g transform="matrix(43.47 0 0 43.47 343.88 -54.216)" stroke="#000" stroke-width=".052916"><path d="m10.054 10.734c-0.6042 0.43346-1.5244 0.27791-2.1628-0.33817-0.75637-0.72903-0.66979-1.8951-1.1911-2.3658-0.43382-0.42855-1.0071-0.27358-1.5302-0.15272 0.93151-0.6312 0.90141-1.404 0.26339-2.2945-0.33521-0.46145-1.5679-2.3787 0.31885-3.3359-1.1676 1.1298-0.1762 2.0788 0.38756 3.1666 0.34617 0.68379 0.21347 1.4867-0.2869 2.1132 0.2837-0.00936 0.72908 0.028287 1.1486 0.28256 0.85321 0.45768 0.94529 1.4978 1.3082 2.2979 0.38237 0.73906 1.0243 0.66956 1.7443 0.62699z"/><path d="m4.4 9.7531c0.16686 0.41593-0.24218 0.44387-0.25178 0.71485-0.011556 0.32338-0.27291 0.52318-0.54484 0.46705-0.45544-0.093841-0.56634-0.28316-0.36916-0.29199 0.28007-0.012651 0.44489-0.30348 0.36544-0.68765-0.043136-0.5831 0.33718-0.4368 0.54131-0.51713 0.25687-0.13307 4.2929-7.4601 4.7055-6.9815 0.43394 0.50361-4.4779 7.0546-4.4465 7.2962z"/></g><g transform="matrix(43.47 0 0 43.47 333.3 -58.701)" fill="#001f3f" stroke="#fff" stroke-width=".052916"><path d="m10.054 10.734c-0.6042 0.43346-1.5244 0.27791-2.1628-0.33817-0.75637-0.72903-0.66979-1.8951-1.1911-2.3658-0.43382-0.42855-1.0071-0.27358-1.5302-0.15272 0.93151-0.6312 0.90141-1.404 0.26339-2.2945-0.33521-0.46145-1.5679-2.3787 0.31885-3.3359-1.1676 1.1298-0.1762 2.0788 0.38756 3.1666 0.34617 0.68379 0.21347 1.4867-0.2869 2.1132 0.2837-0.00936 0.72908 0.028287 1.1486 0.28256 0.85321 0.45768 0.94529 1.4978 1.3082 2.2979 0.38237 0.73906 1.0243 0.66956 1.7443 0.62699z"/><path d="m4.4 9.7531c0.16686 0.41593-0.24218 0.44387-0.25178 0.71485-0.011556 0.32338-0.27291 0.52318-0.54484 0.46705-0.45544-0.093841-0.56634-0.28316-0.36916-0.29199 0.28007-0.012651 0.44489-0.30348 0.36544-0.68765-0.043136-0.5831 0.33718-0.4368 0.54131-0.51713 0.25687-0.13307 4.2929-7.4601 4.7055-6.9815 0.43394 0.50361-4.4779 7.0546-4.4465 7.2962z"/></g><path d="m29.586 173.87 40.705-8.1914 11.857 27.707-6.8011 1.3725-8.5627-20.009-9.2514 1.8481 8.2791 19.346-6.8011 1.3725-8.2791-19.346-11.148 1.9964 9.3045 21.742-6.812 1.347zm26.898 56.7-3.3162-5.9916 22.902-19.425 3.786 6.8406-10.224 8.0354q-4.1442 3.276-5.5676 4.254 0.51978-0.0342 4.0556-0.0581 3.5735-0.0131 4.3194 0.0177l14.412 0.38924 4.162 7.5198zm39.931 40.274-11.18-16.537q-0.40599 0.24101-0.61271 0.38077-2.4346 1.646-2.9959 4.0334-0.54572 2.4104 0.80525 4.4087 2.2206 3.2845 6.8622 2.8238l3.0032 6.5706q-4.7247 0.68427-8.4728-0.99854-3.7096-1.6754-6.132-5.2584-3.3231-4.9152-2.3031-10.089 1.0429-5.1896 6.1648-8.6525 5.0071-3.3852 10.791-3.2458 7.8449 0.21822 12.597 7.2466 3.028 4.4788 2.0346 8.9992-0.97045 4.5048-5.9546 7.8744-2.3887 1.615-4.6057 2.4444zm0.26126-8.2758q0.45194-0.27207 0.68162-0.42736 2.7103-1.8323 3.2424-3.9658 0.53214-2.1335-0.8499-4.1777-1.382-2.0442-4.0234-2.6346-2.6259-0.56739-6.0229 0.89263zm24.205 11.824 4.6112 5.8264-5.2183 2.6096q7.6029-0.71351 10.614 3.091 1.0668 1.3479 1.6144 3.4248l-7.0016 1.6519q-0.36666-1.0888-1.1237-2.0453-1.2732-1.6088-3.8155-2.3193-2.5251-0.68873-5.3085-6e-3 -2.7617 0.6653-7.8976 3.245l-8.4439 4.2077-4.9381-6.2395zm17.13 20.881 5.3517 5.851-9.475 11.372q-3.6682 4.3697-5.2896 5.9654 4.3825-1.9044 9.9192-3.2865l14.389-3.6171 5.6885 6.2192-36.129 8.398q-4.4821 1.0562-6.5481 1.18-2.0473 0.14423-3.9574-0.58848-1.8914-0.71228-3.6129-2.5944-1.7028-1.8617-3.1814-4.7927l4.8458-3.493q0.66616 1.3445 1.5831 2.347 2.47 2.7004 8.1522 0.69693zm47.803 47.774 5.744 4.8864-2.4438 1.8886q3.1307 0.0425 5.2925 0.7531 2.1618 0.71067 3.9991 2.2736 3.5266 3.0001 3.5936 7.243 0.0881 4.2609-4.0078 9.0757-5.1558 6.0608-12.408 7.0982-6.2036 0.8742-10.533-2.8085-4.4558-3.7905-3.6646-9.3418l-12.327 9.5699-6.0608-5.1558zm-7.287 15.968q-2.2276 2.6186-2.2001 5.1536 0.0666 2.5318 1.7982 4.0049 1.4994 1.2755 3.8093 1.3841 2.3279 0.0875 5.3738-1.653 3.0849-1.7437 4.9173-3.8977 2.1378-2.513 2.0658-4.8674-0.054-2.3755-1.9123-3.9564-1.7316-1.4731-4.2276-1.4487-2.4568 0.0212-5.2861 1.7639-2.8114 1.7216-4.3383 3.5166zm40.542 10.993 5.962 4.4344-4.3651 3.8712q7.1591-2.657 11.052 0.23863 1.3793 1.0259 2.4458 2.8903l-6.3355 3.4078q-0.63596-0.95676-1.6148-1.6848-1.6462-1.2244-4.2858-1.2527-2.6173-0.0118-5.1292 1.368-2.4954 1.3574-6.7886 5.1785l-7.0672 6.2498-6.3847-4.7488zm11.616 29.691q4.4607-6.8554 10.965-8.412 6.5422-1.5648 12.84 2.5331 5.4611 3.5535 6.5628 8.5705 1.1169 4.9938-2.1947 10.083-3.9012 5.9956-10.578 7.8694-6.6771 1.8739-13.114-2.3147-3.4858-2.2682-5.2742-5.4165t-1.4497-6.5665q0.33873-3.4182 2.244-6.3462zm22.109 7.6052q1.5424-2.3703 1.0704-4.6952-0.43357-2.3329-2.618-3.7543-2.1612-1.4063-4.7114-1.1472-2.5351 0.23588-5.1279 2.1873-2.5778 1.9282-3.9689 4.0661-1.7238 2.6492-1.2961 5.1437 0.42767 2.4945 2.6121 3.9159 2.7422 1.7843 6.1285 0.64689 4.8115-1.5993 7.9113-6.3632zm8.0094 25.963 27.147-31.417 6.981 3.8759-9.0911 10.491q2.7224-0.3912 4.7072-0.082 2.0224 0.29837 3.9858 1.3885 4.0722 2.261 4.9997 6.3593 0.9409 4.0741-1.9526 9.2856-1.9514 3.5148-4.9587 6.1896-2.9696 2.664-6.0661 3.672-3.0589 0.99718-5.7572 0.83092-2.6606-0.17705-4.9876-1.469-5.5266-3.0684-5.4286-9.3564l-3.252 3.744zm15.208-5.2875q-1.44 2.5936-0.88733 5.0252 0.57692 2.445 2.5646 3.5486 1.7452 0.96899 4.0206 0.5833 2.2996-0.37222 4.8762-2.5568 2.6008-2.1712 4.1619-4.983 1.5208-2.7391 0.95193-5.0844-0.53111-2.3562-2.543-3.4732-2.6179-1.4535-5.8544-0.0792-4.4374 1.8808-7.2905 7.0196zm24.535 26.609 25.454-32.811 7.1283 3.4731-25.429 32.823zm54.707 11.259-18.358-7.8404q-0.21063 0.42256-0.30863 0.65203-1.1543 2.7027-0.33229 5.0134 0.8475 2.3216 3.0657 3.269 3.6461 1.5572 7.2975-1.3452l6.0845 3.895q-3.6001 3.1353-7.6622 3.752-4.0256 0.60209-8.0031-1.0967-5.4564-2.3304-7.4029-7.2316-1.9356-4.9268 0.49273-10.613 2.3739-5.5584 7.3103-8.5752 6.7116-4.0675 14.514-0.73536 4.9719 2.1234 6.5864 6.4609 1.6254 4.3119-0.73761 9.8448-1.1325 2.6517-2.5463 4.5502zm-4.2646-7.0972q0.2324-0.47355 0.34129-0.72852 1.285-3.0086 0.5761-5.0901-0.70886-2.0815-2.9781-3.0506-2.2692-0.96916-4.8091-0.034-2.5144 0.94602-4.5784 4.0139zm26.794-2.5828 7.0808 2.4289-1.8685 3.1401q5.5289-2.6173 10.092-1.052 3.147 1.0795 4.4018 2.9755 1.2548 1.896 0.93525 4.3657 2.162-1.6032 5.349-2.0928t6.0979 0.50895q3.3306 1.1425 4.5808 3.5645 1.2503 2.422 0.24273 5.3592-0.49477 1.4424-2.4435 4.7309l-9.4049 15.797-7.5266-2.5818 9.4049-15.797q1.7531-2.9746 1.897-3.3942 0.39582-1.1539-0.0874-2.0524-0.44796-0.91575-1.8379-1.3925-2.8061-0.96255-6.0255 1.2452-2.3284 1.5755-5.3092 6.591l-6.9847 11.732-7.5266-2.5818 9.2895-15.631q1.6017-2.7041 1.8986-3.5695 0.37783-1.1014-0.13981-2.0704-0.49141-0.95995-1.8027-1.4097-1.2326-0.42281-2.7957-0.13826-1.5631 0.28451-3.0005 1.2277-1.4111 0.95217-2.8119 2.7286-0.63856 0.83615-2.4891 3.9238l-7.0649 11.88-7.5266-2.5818zm75.617 53.295-7.7633-1.7452 17.219-37.788 7.7633 1.7452-6.1497 13.451q3.086-1.4659 5.5589-1.8478 2.479-0.4089 5.0757 0.17538 3.4894 0.78443 5.0682 3.2422t0.84904 5.7038q-0.38917 1.7312-1.9614 5.1856l-7.2928 16.008-7.7633-1.7452 7.4469-16.314q1.1944-2.6584 1.3707-3.4429 0.32229-1.4336-0.37577-2.4999t-2.2399-1.4129q-1.9476-0.43782-4.0369 0.51333-2.7276 1.2623-4.5287 3.5855-0.99855 1.2816-3.2995 6.3341zm50.563-11.398-7.5539-1.9092q1.9486-3.6706 5.5625-5.3273 3.6413-1.6522 9.0316-0.77091 5.6092 0.91703 7.9194 3.6264 2.3146 2.682 1.7823 5.9381-0.21472 1.3134-0.70253 2.7506-0.46046 1.4418-2.8848 7.5068-1.9991 5.0109-2.3391 7.0904-0.30418 1.8606-0.0188 4.239l-7.634-1.248q-0.2057-1.663-0.0378-3.3774-2.0369 1.6335-4.4506 2.3064-2.4092 0.64557-4.6802 0.27429-3.6118-0.59047-5.5802-3.3283-1.9639-2.7652-1.3556-6.4864 0.67993-4.159 3.659-6.2284 3.0064-2.065 9.7404-1.4978 5.6852 0.45188 7.6805 0.10385 0.76091-1.5612 0.92195-2.5462 0.20577-1.2586-0.66794-2.2724-0.87372-1.0137-2.8711-1.3403-2.1069-0.34444-3.4813 0.32984-1.3426 0.65139-2.0398 2.1668zm6.2799 8.4994q-0.74271 0.0752-1.9461 0.047-6.0265-0.25486-8.056 0.81803-1.447 0.77478-1.7199 2.4438-0.22367 1.3681 0.60479 2.4868 0.83294 1.0913 2.4473 1.3552 1.7785 0.29077 3.4768-0.30247 1.7301-0.61612 2.7154-1.8316 1.0172-1.2384 2.0888-4.013zm20.433 8.5496 7.7931-0.40244q0.76352 2.5342 2.172 3.7147 1.4114 1.153 4.0307 1.43 2.702 0.28579 4.457-0.7553 1.2179-0.70757 1.3433-1.8931 0.0845-0.79957-0.42735-1.4949-0.54241-0.67073-3.1235-1.8359-6.9177-3.1293-8.4814-4.6887-2.4469-2.4334-2.0795-5.9074t3.2245-5.7088q3.9822-3.1195 11.096-2.3672 5.6521 0.59781 8.3284 2.9719 2.6763 2.374 3.075 5.9848l-7.4405 0.49549q-0.40986-1.6604-1.6211-2.597-1.6508-1.2619-4.1322-1.5244-2.4814-0.26246-3.6718 0.44804-1.1628 0.7134-1.2765 1.7887-0.11669 1.1028 0.91038 1.9364 0.64263 0.51404 4.2757 2.0135 5.6121 2.2942 7.3976 4.128 2.5151 2.58 2.1739 5.8059-0.44033 4.1633-4.2656 6.8533-3.8252 2.69-10.194 2.0164-6.3414-0.67072-9.5704-3.3541-3.1985-2.7081-3.9931-7.0577zm77.259-26.968 7.9548 0.191-1.6697 7.1705-7.9548-0.191zm-2.5971 11.142 7.9548 0.191-6.8599 29.288-7.9548-0.191zm20.84 6.0998 1.1387-5.9216 3.8811-0.0533 0.90559-4.7261 9.0453-5.6142-1.9946 10.231 4.8514-0.0666-1.1387 5.9216-4.8792 0.067-2.4088 12.372q-0.64701 3.3639-0.64054 3.8352 0.0125 0.91484 0.60196 1.4336 0.58902 0.49102 2.1138 0.47009 0.52672-7e-3 2.631-0.23022l-1.1664 5.922q-2.0458 0.444-4.2081 0.47368-4.2138 0.0578-6.1487-1.5238-1.9353-1.6094-1.9749-4.4925-0.0186-1.3584 0.93973-6.2794l2.3048-11.871zm25.946 14.804 7.6159-1.7007q1.1768 2.3707 2.7629 3.2989 1.5844 0.90054 4.2132 0.73543 2.7117-0.17033 4.2678-1.4904 1.0824-0.90138 1.0076-2.0912-0.0504-0.80246-0.67146-1.4024-0.64699-0.57052-3.3866-1.2874-7.3438-1.9278-9.1463-3.2036-2.8196-1.9897-3.0386-5.4762-0.219-3.4865 2.2239-6.1679 3.4041-3.7418 10.543-4.1902 5.6725-0.35629 8.7082 1.5365 3.0358 1.8928 4.033 5.386l-7.2527 1.7334q-0.68189-1.5684-2.0328-2.2891-1.8387-0.96792-4.329-0.8115-2.4904 0.15642-3.545 1.056-1.027 0.8979-0.95923 1.977 0.0695 1.1068 1.2215 1.7567 0.71957 0.39928 4.5523 1.2697 5.9168 1.3229 7.984 2.8321 2.9113 2.1228 3.1146 5.3603 0.26244 4.1782-3.0588 7.4704-3.3212 3.2922-9.7131 3.6936-6.3642 0.39974-9.9967-1.7056-3.6065-2.1347-5.1176-6.2901zm87.069-12.13 7.8352 0.0111q-1.0751 5.3942-4.3466 8.6406-3.2715 3.2464-8.1447 4.0253-5.5576 0.88834-9.3451-1.9036-3.7874-2.7919-4.7152-8.596-0.75705-4.7363 0.54021-9.2675 1.2973-4.5312 4.8819-7.575 3.5803-3.0711 8.3166-3.8282 5.147-0.82271 8.6421 1.3702 3.4951 2.1929 4.5786 6.512l-7.3472 1.9886q-0.66325-2.3928-2.079-3.3458-1.3884-0.95731-3.3596-0.64224-2.2723 0.36322-3.9722 2.3757-1.6999 2.0125-2.225 5.578-0.50209 3.5337-0.0295 6.4905 0.41134 2.5735 1.8939 3.7684 1.4825 1.195 3.3716 0.893t3.4224-1.9509q1.5334-1.6489 2.0814-4.5442zm22.635-23.002 7.2633-1.5665 0.0387 5.8343q2.715-7.1373 7.4579-8.1602 1.6803-0.3624 3.7858 0.0627l-1.6076 7.0119q-1.1388-0.15147-2.3313 0.10573-2.0055 0.43254-3.7651 2.4003-1.7324 1.9619-2.3483 4.7609-0.62178 2.7718-0.57348 8.519l0.0493 9.4341-7.7782 1.6776zm56.596 3.4945-19.25 5.2829q0.098 0.46186 0.16404 0.70249 0.77775 2.8341 2.8589 4.1317 2.1078 1.2903 4.4339 0.65195 3.8233-1.0492 4.8763-5.5932l7.1868-0.73602q-0.86796 4.6945-3.6644 7.7044-2.7771 2.9759-6.948 4.1205-5.7216 1.5702-10.295-1.056-4.5806-2.653-6.2168-8.6152-1.5995-5.8286 0.38823-11.262 2.724-7.3601 10.905-9.6053 5.2136-1.4308 9.1761 0.96055 3.9552 2.3646 5.5474 8.1664 0.76308 2.7806 0.83735 5.1465zm-7.7543-2.9033q-0.11268-0.51533-0.18605-0.7827-0.8658-3.1549-2.7157-4.3435-1.8499-1.1886-4.2295-0.53556-2.3796 0.65302-3.7862 2.9653-1.38 2.305-1.0872 5.9909zm27.299-12.821-7.5552 1.904q-0.0267-4.1557 2.3683-7.3289 2.4212-3.1822 7.5841-4.9644 5.3726-1.8545 8.6918-0.56588 3.3102 1.2625 4.3867 4.3812 0.43423 1.258 0.68687 2.7546 0.27886 1.4876 1.023 7.9767 0.61813 5.3594 1.3057 7.3512 0.61516 1.7821 1.995 3.7402l-7.3119 2.524q-0.97023-1.3663-1.636-2.9549-1.0178 2.4045-2.8231 4.1422-1.8143 1.7115-3.9895 2.4624-3.4594 1.1941-6.4912-0.2817-3.0409-1.5021-4.2712-5.0663-1.3751-3.9836 0.26523-7.2188 1.6665-3.2443 7.863-5.9406 5.2188-2.3001 6.81-3.5532-0.0711-1.7353-0.39673-2.6788-0.41614-1.2056-1.6663-1.6833-1.2501-0.47771-3.1633 0.18268-2.018 0.69659-2.9078 1.9423-0.8727 1.2105-0.76732 2.8753zm9.561 4.5015q-0.61806 0.41865-1.6907 0.96491-5.4256 2.6354-6.703 4.5429-0.90607 1.3687-0.35424 2.9673 0.45233 1.3104 1.7124 1.902 1.251 0.56538 2.7973 0.0317 1.7035-0.58803 2.9169-1.9161 1.2305-1.3634 1.5211-2.9008 0.3077-1.5727-0.0656-4.5236zm18.97-17.637-1.1116-5.9268 3.5914-1.4725-0.89024-4.729 6.3571-8.5396 1.8954 10.25 4.4892-1.8407 1.1116 5.9268-4.5148 1.8512 2.2948 12.394q0.63138 3.3669 0.81018 3.803 0.34709 0.84654 1.0856 1.1131 0.72803 0.24087 2.1389-0.33763 0.4874-0.19984 2.3634-1.1788l1.086 5.9373q-1.7405 1.1631-3.7414 1.9835-3.8992 1.5987-6.2792 0.83664-2.3906-0.78775-3.4845-3.4556-0.51539-1.257-1.4279-6.1866l-2.2081-11.89zm24.5-29.305 7.2171-3.351 1.6778 7.1686-7.2171 3.351zm2.6047 11.14 7.2171-3.351 6.8172 29.298-7.2171 3.351zm43.319 11.196-6.0335 3.2394-19.131-23.148 6.8884-3.6984 7.9042 10.326q3.2228 4.1857 4.1825 5.6215-0.0276-0.52019-6e-3 -4.056 0.0325-3.5734 0.0728-4.3188l0.57325-14.406 7.5724-4.0656zm41.219-39.039-16.833 10.73q0.22997 0.41234 0.36409 0.62276 1.5796 2.4782 3.951 3.1038 2.3948 0.61063 4.4288-0.68586 3.3433-2.131 3.0081-6.7834l6.6493-2.8246q0.55639 4.7415-1.2271 8.4428-1.775 3.663-5.4222 5.9878-5.0032 3.1891-10.148 2.0297-5.1596-1.1827-8.4828-6.3964-3.2487-5.0967-2.9531-10.874 0.4301-7.8362 7.5842-12.396 4.559-2.9059 9.0508-1.7908 4.4769 1.0918 7.7107 6.1651 1.5498 2.4315 2.3191 4.67zm-8.2657-0.48509q-0.25976-0.45911-0.40878-0.6929-1.7585-2.7588-3.8768-3.3484-2.1183-0.58958-4.1991 0.73672-2.0808 1.3263-2.7423 3.9508-0.63813 2.6096 0.72958 6.0449zm40.383-18.038 5.1247-5.8848q2.3532 1.2114 4.1809 1.0185 1.8098-0.21417 3.8288-1.9056 2.0828-1.7449 2.5533-3.7305 0.3372-1.3676-0.4284-2.2814-0.5164-0.61632-1.3722-0.73122-0.8593-0.0759-3.4905 0.97112-7.0568 2.8015-9.2648 2.8428-3.4502 0.0694-5.6936-2.6084-2.2434-2.6778-1.8659-6.2854 0.5228-5.0315 6.0061-9.6251 4.3567-3.65 7.9235-3.9255 3.567-0.27556 6.441 1.9462l-4.8129 5.6959q-1.4789-0.85874-2.9942-0.63824-2.0545 0.31066-3.9673 1.9131-1.9127 1.6024-2.2287 2.9522-0.2947 1.332 0.3998 2.1608 0.7121 0.8501 2.0251 0.69048 0.8162-0.10508 4.4188-1.6764 5.5491-2.4426 8.1085-2.4528 3.6031-0.0165 5.6863 2.47 2.6885 3.2091 1.9657 7.8294-0.7227 4.6202-5.6321 8.7331-4.8881 4.0951-9.0615 4.5533-4.17 0.41914-7.8504-2.0313zm29.945-31.109q-5.7903-5.7763-5.9749-12.461-0.1845-6.7241 5.1218-12.043 4.6016-4.6126 9.7379-4.6581 5.1167-0.065 9.4153 4.2232 5.0641 5.0518 5.5234 11.972t-4.9646 12.357q-2.9371 2.9442-6.3863 4.0463-3.449 1.102-6.7242 0.067-3.2752-1.0351-5.7484-3.5023zm11.993-20.07q-2.002-1.9972-4.3742-2.014-2.3723-0.0559-4.2128 1.7891-1.8211 1.8254-2.0924 4.3744-0.2911 2.5294 1.0848 5.4684 1.3563 2.9194 3.162 4.7209 2.2377 2.2322 4.7669 2.3272 2.529 0.0949 4.3696-1.7501 2.3106-2.3161 1.8946-5.8641-0.5747-5.0377-4.5985-9.0517zm26.88-2.8778-25.358-32.885 5.1535-6.0263 25.376 32.864zm-3.456-42.181 4.6692-6.4432 11.99 13.174q2.1463 2.3772 2.7749 2.8327 1.0328 0.74837 2.3267 0.52192 1.294-0.22644 2.1563-1.4163 0.6181-0.8531 0.9058-1.9115 0.2652-1.0747 0.2486-2.422-0.039-1.3636-0.3877-2.6778-0.3489-1.3142-1.3015-2.929-0.7236-1.1749-2.7005-3.3608l-9.6354-10.612 4.6692-6.4432 20.23 22.261-4.3601 6.0166-2.7447-3.0162q0.9309 6.7006-2.4368 11.348-2.1312 2.941-5.0351 3.4046t-5.7326-1.5862q-1.2348-0.89477-4.3634-4.3261zm26.663-28.538-4.4392-4.0812 1.9946-3.3298-3.5447-3.2545-0.022-10.646 7.6556 7.0744 2.4932-4.1623 4.4392 4.0812-2.5075 4.186 9.259 8.552q2.5218 2.3185 2.9261 2.5607 0.7849 0.47017 1.536 0.24139 0.7273-0.24303 1.5109-1.5512 0.2707-0.4519 1.187-2.3592l4.425 4.105q-0.6976 1.9738-1.8088 3.8289-2.1656 3.6152-4.5282 4.43-2.3863 0.80055-4.8599-0.68116-1.1654-0.69812-4.8481-4.0999l-8.8879-8.2004zm1.344-37.529 3.6198-7.0861 5.7383 4.6125-3.6199 7.0861zm8.9153 7.1694 3.6198-7.0861 23.421 18.876-3.6198 7.0861zm24.158-10.07q-7.5864-3.0563-10.367-9.1383-2.7959-6.1181 0.012-13.087 2.4347-6.0434 7.1454-8.0911 4.685-2.0581 10.317 0.21083 6.6349 2.673 9.7602 8.864 3.1252 6.191 0.2553 13.314-1.554 3.8575-4.2988 6.219-2.7447 2.3615-6.1642 2.6877-3.4193 0.3262-6.6596-0.9792zm3.2029-23.16q-2.6231-1.0568-4.8134-0.14576-2.2057 0.87493-3.1796 3.2923-0.9634 2.3916-0.2178 4.8442 0.72 2.4421 3.1344 4.6104 2.3886 2.1579 4.7546 3.1111 2.9317 1.1811 5.297 0.28081 2.3654-0.90028 3.3392-3.3176 1.2226-3.0346-0.546-6.1383-2.4964-4.4132-7.7683-6.5371zm-3.04-26.997 1.9877-7.2745 3.4861 1.7573q-1.6081-3.371-1.9545-5.995-0.3658-2.658 0.3503-5.2789 0.9574-3.5035 3.5113-4.9613 2.5612-1.4845 5.8775-0.5783 1.4977 0.40926 5.4288 2.4319l15.16 7.7352-2.0974 7.6757-15.206-7.7766q-3.4059-1.7354-4.1013-1.9254-1.4709-0.40194-2.5412 0.25408-1.0896 0.62197-1.5135 2.1732-0.4604 1.6849 0.3944 4.1316 0.8547 2.4467 2.8599 4.2592 1.4243 1.3089 6.2402 3.7745l10.996 5.62-2.0974 7.6757z" stroke="#fff" stroke-miterlimit="3.7" stroke-width=".40318" aria-label="Every problem has its creative solution"/><path d="m29.437 180.14 40.705-8.1914 11.857 27.707-6.8011 1.3725-8.5627-20.009-9.2514 1.8481 8.2791 19.346-6.8011 1.3725-8.2791-19.346-11.148 1.9964 9.3045 21.742-6.812 1.347zm26.898 56.7-3.3161-5.9916 22.902-19.425 3.786 6.8406-10.224 8.0354q-4.1442 3.276-5.5676 4.254 0.51978-0.0342 4.0556-0.0581 3.5735-0.0131 4.3194 0.0177l14.412 0.38924 4.162 7.5198zm39.931 40.274-11.18-16.537q-0.40599 0.24101-0.61271 0.38077-2.4346 1.646-2.9959 4.0334-0.54572 2.4104 0.80526 4.4087 2.2206 3.2845 6.8622 2.8238l3.0032 6.5706q-4.7247 0.68427-8.4728-0.99854-3.7096-1.6754-6.132-5.2584-3.3231-4.9152-2.3031-10.089 1.0429-5.1896 6.1649-8.6525 5.0071-3.3852 10.791-3.2458 7.8449 0.21822 12.597 7.2466 3.028 4.4788 2.0346 8.9992-0.97045 4.5048-5.9546 7.8744-2.3887 1.615-4.6057 2.4444zm0.26126-8.2758q0.45194-0.27207 0.68162-0.42736 2.7103-1.8323 3.2424-3.9658 0.53214-2.1335-0.8499-4.1777-1.382-2.0442-4.0234-2.6346-2.6259-0.56739-6.0229 0.89263zm24.205 11.824 4.6112 5.8264-5.2183 2.6096q7.6029-0.71351 10.614 3.091 1.0668 1.3479 1.6144 3.4248l-7.0016 1.6519q-0.36666-1.0888-1.1237-2.0453-1.2732-1.6088-3.8155-2.3193-2.5251-0.68873-5.3085-6e-3 -2.7617 0.6653-7.8976 3.245l-8.4439 4.2077-4.9381-6.2395zm17.13 20.881 5.3517 5.851-9.475 11.372q-3.6682 4.3697-5.2896 5.9654 4.3825-1.9044 9.9192-3.2865l14.389-3.6171 5.6885 6.2192-36.129 8.398q-4.4821 1.0562-6.5481 1.18-2.0473 0.14423-3.9574-0.58848-1.8914-0.71228-3.6129-2.5944-1.7028-1.8617-3.1814-4.7927l4.8458-3.493q0.66616 1.3445 1.5831 2.347 2.47 2.7004 8.1522 0.69693zm47.803 47.774 5.744 4.8864-2.4438 1.8886q3.1307 0.0425 5.2925 0.7531 2.1618 0.71067 3.9991 2.2736 3.5266 3.0001 3.5936 7.243 0.0881 4.2609-4.0078 9.0757-5.1558 6.0608-12.408 7.0982-6.2036 0.8742-10.533-2.8085-4.4558-3.7905-3.6646-9.3418l-12.327 9.5699-6.0608-5.1558zm-7.287 15.968q-2.2276 2.6186-2.2001 5.1536 0.0666 2.5318 1.7982 4.0049 1.4994 1.2755 3.8093 1.3841 2.3279 0.0875 5.3738-1.653 3.0849-1.7437 4.9173-3.8977 2.1378-2.513 2.0658-4.8674-0.054-2.3755-1.9123-3.9564-1.7316-1.4731-4.2276-1.4487-2.4568 0.0212-5.2861 1.7639-2.8114 1.7216-4.3383 3.5166zm40.542 10.993 5.962 4.4344-4.3651 3.8712q7.1591-2.657 11.052 0.23863 1.3793 1.0259 2.4458 2.8903l-6.3355 3.4078q-0.63596-0.95676-1.6148-1.6848-1.6462-1.2244-4.2858-1.2527-2.6173-0.0118-5.1292 1.368-2.4954 1.3574-6.7886 5.1785l-7.0672 6.2498-6.3847-4.7488zm11.616 29.691q4.4607-6.8554 10.965-8.412 6.5422-1.5648 12.84 2.5331 5.4611 3.5535 6.5628 8.5705 1.1169 4.9938-2.1947 10.083-3.9012 5.9956-10.578 7.8694-6.6771 1.8739-13.114-2.3147-3.4858-2.2682-5.2742-5.4165t-1.4497-6.5665q0.33873-3.4182 2.244-6.3462zm22.109 7.6052q1.5424-2.3703 1.0704-4.6952-0.43357-2.3329-2.618-3.7543-2.1612-1.4063-4.7114-1.1472-2.5351 0.23588-5.1279 2.1873-2.5778 1.9282-3.9689 4.0661-1.7238 2.6492-1.2961 5.1437 0.42767 2.4945 2.6121 3.9159 2.7422 1.7843 6.1285 0.64689 4.8115-1.5993 7.9113-6.3632zm8.0094 25.963 27.147-31.417 6.981 3.8759-9.0911 10.491q2.7224-0.3912 4.7072-0.082 2.0224 0.29837 3.9858 1.3885 4.0722 2.261 4.9997 6.3593 0.9409 4.0741-1.9526 9.2856-1.9514 3.5148-4.9587 6.1896-2.9696 2.664-6.0661 3.672-3.0589 0.99718-5.7572 0.83092-2.6606-0.17705-4.9876-1.469-5.5266-3.0684-5.4286-9.3564l-3.252 3.744zm15.208-5.2875q-1.44 2.5936-0.88733 5.0252 0.57692 2.445 2.5646 3.5486 1.7452 0.96899 4.0206 0.5833 2.2996-0.37222 4.8762-2.5568 2.6008-2.1712 4.1619-4.983 1.5208-2.7391 0.95193-5.0844-0.53111-2.3562-2.543-3.4732-2.6179-1.4535-5.8544-0.0792-4.4374 1.8808-7.2905 7.0196zm24.535 26.609 25.454-32.811 7.1283 3.4731-25.429 32.823zm54.707 11.259-18.358-7.8404q-0.21063 0.42256-0.30863 0.65203-1.1543 2.7027-0.33229 5.0134 0.8475 2.3216 3.0657 3.269 3.6461 1.5572 7.2975-1.3452l6.0845 3.895q-3.6001 3.1353-7.6622 3.752-4.0256 0.60209-8.0031-1.0967-5.4564-2.3304-7.4029-7.2316-1.9356-4.9268 0.49273-10.613 2.3739-5.5584 7.3103-8.5752 6.7116-4.0675 14.514-0.73536 4.9719 2.1234 6.5864 6.4609 1.6254 4.3119-0.73761 9.8448-1.1325 2.6517-2.5463 4.5502zm-4.2646-7.0972q0.2324-0.47355 0.34129-0.72852 1.285-3.0086 0.5761-5.0901-0.70886-2.0815-2.9781-3.0506-2.2692-0.96916-4.8091-0.034-2.5144 0.94602-4.5784 4.0139zm26.794-2.5828 7.0808 2.4289-1.8685 3.1401q5.5289-2.6173 10.092-1.052 3.147 1.0795 4.4018 2.9755 1.2548 1.896 0.93525 4.3657 2.162-1.6032 5.349-2.0928t6.0979 0.50895q3.3306 1.1425 4.5808 3.5645 1.2503 2.422 0.24273 5.3592-0.49477 1.4424-2.4435 4.7309l-9.4049 15.797-7.5266-2.5818 9.4049-15.797q1.7531-2.9746 1.897-3.3942 0.39582-1.1539-0.0874-2.0524-0.44796-0.91575-1.8379-1.3925-2.8061-0.96255-6.0255 1.2452-2.3284 1.5755-5.3092 6.591l-6.9847 11.732-7.5266-2.5818 9.2895-15.631q1.6017-2.7041 1.8986-3.5695 0.37783-1.1014-0.13981-2.0704-0.49141-0.95995-1.8027-1.4097-1.2326-0.42281-2.7957-0.13826-1.5631 0.28451-3.0005 1.2277-1.4111 0.95217-2.8119 2.7286-0.63856 0.83615-2.4891 3.9238l-7.0649 11.88-7.5266-2.5818zm75.617 53.295-7.7633-1.7452 17.219-37.788 7.7633 1.7452-6.1497 13.451q3.086-1.4659 5.5589-1.8478 2.479-0.4089 5.0757 0.17538 3.4894 0.78443 5.0682 3.2422t0.84904 5.7038q-0.38917 1.7312-1.9614 5.1856l-7.2928 16.008-7.7633-1.7452 7.4469-16.314q1.1944-2.6584 1.3707-3.4429 0.32229-1.4336-0.37577-2.4999t-2.2399-1.4129q-1.9476-0.43782-4.0369 0.51333-2.7276 1.2623-4.5287 3.5855-0.99855 1.2816-3.2995 6.3341zm50.563-11.398-7.5539-1.9092q1.9486-3.6706 5.5625-5.3273 3.6413-1.6522 9.0316-0.77091 5.6092 0.91703 7.9194 3.6264 2.3146 2.682 1.7823 5.9381-0.21472 1.3134-0.70253 2.7506-0.46046 1.4418-2.8848 7.5068-1.9991 5.0109-2.3391 7.0904-0.30418 1.8606-0.0188 4.239l-7.634-1.248q-0.2057-1.663-0.0378-3.3774-2.0369 1.6335-4.4506 2.3064-2.4092 0.64557-4.6802 0.27429-3.6118-0.59047-5.5802-3.3283-1.9639-2.7652-1.3556-6.4864 0.67993-4.159 3.659-6.2284 3.0064-2.065 9.7404-1.4978 5.6852 0.45188 7.6805 0.10385 0.76091-1.5612 0.92195-2.5462 0.20577-1.2586-0.66794-2.2724-0.87372-1.0137-2.8711-1.3403-2.1069-0.34444-3.4813 0.32984-1.3426 0.65139-2.0398 2.1668zm6.2799 8.4994q-0.74271 0.0752-1.9461 0.047-6.0265-0.25486-8.056 0.81803-1.447 0.77478-1.7199 2.4438-0.22367 1.3681 0.60479 2.4868 0.83294 1.0913 2.4473 1.3552 1.7785 0.29077 3.4768-0.30247 1.7301-0.61612 2.7154-1.8316 1.0172-1.2384 2.0888-4.013zm20.433 8.5496 7.7931-0.40244q0.76352 2.5342 2.172 3.7147 1.4114 1.153 4.0307 1.43 2.702 0.28579 4.457-0.7553 1.2179-0.70757 1.3433-1.8931 0.0845-0.79957-0.42735-1.4949-0.54241-0.67073-3.1235-1.8359-6.9177-3.1293-8.4814-4.6887-2.4469-2.4334-2.0795-5.9074t3.2245-5.7088q3.9822-3.1195 11.096-2.3672 5.6521 0.59781 8.3284 2.9719 2.6763 2.374 3.075 5.9848l-7.4405 0.49549q-0.40986-1.6604-1.6211-2.597-1.6508-1.2619-4.1322-1.5244-2.4814-0.26246-3.6718 0.44804-1.1628 0.7134-1.2765 1.7887-0.11669 1.1028 0.91038 1.9364 0.64263 0.51404 4.2757 2.0135 5.6121 2.2942 7.3976 4.128 2.5151 2.58 2.1739 5.8059-0.44033 4.1633-4.2656 6.8533-3.8252 2.69-10.194 2.0164-6.3414-0.67072-9.5704-3.3541-3.1985-2.7081-3.9931-7.0577zm77.259-26.968 7.9548 0.191-1.6697 7.1705-7.9548-0.191zm-2.5971 11.142 7.9548 0.191-6.8599 29.288-7.9548-0.191zm20.84 6.0998 1.1387-5.9216 3.8811-0.0533 0.90559-4.7261 9.0453-5.6142-1.9946 10.231 4.8514-0.0666-1.1387 5.9216-4.8792 0.067-2.4088 12.372q-0.64701 3.3639-0.64054 3.8352 0.0125 0.91484 0.60196 1.4336 0.58902 0.49102 2.1138 0.47009 0.52672-7e-3 2.631-0.23022l-1.1664 5.922q-2.0458 0.444-4.2081 0.47368-4.2138 0.0578-6.1487-1.5238-1.9353-1.6094-1.9749-4.4925-0.0186-1.3584 0.93973-6.2794l2.3048-11.871zm25.946 14.804 7.6159-1.7007q1.1768 2.3707 2.7629 3.2989 1.5844 0.90054 4.2132 0.73543 2.7117-0.17033 4.2678-1.4904 1.0824-0.90138 1.0076-2.0912-0.0504-0.80246-0.67146-1.4024-0.64699-0.57052-3.3866-1.2874-7.3438-1.9278-9.1463-3.2036-2.8196-1.9897-3.0386-5.4762-0.219-3.4865 2.2239-6.1679 3.4041-3.7418 10.543-4.1902 5.6725-0.35629 8.7082 1.5365 3.0358 1.8928 4.033 5.386l-7.2527 1.7334q-0.68189-1.5684-2.0328-2.2891-1.8387-0.96792-4.329-0.8115-2.4904 0.15642-3.545 1.056-1.027 0.8979-0.95923 1.977 0.0695 1.1068 1.2215 1.7567 0.71957 0.39928 4.5523 1.2697 5.9168 1.3229 7.984 2.8321 2.9113 2.1228 3.1146 5.3603 0.26244 4.1782-3.0588 7.4704-3.3212 3.2922-9.7131 3.6936-6.3642 0.39974-9.9967-1.7056-3.6065-2.1347-5.1176-6.2901zm87.069-12.13 7.8352 0.0111q-1.0751 5.3942-4.3466 8.6406-3.2715 3.2464-8.1447 4.0253-5.5576 0.88834-9.3451-1.9036-3.7874-2.7919-4.7152-8.596-0.75705-4.7363 0.54021-9.2675 1.2973-4.5312 4.8819-7.575 3.5803-3.0711 8.3166-3.8282 5.147-0.82271 8.6421 1.3702 3.4951 2.1929 4.5786 6.512l-7.3472 1.9886q-0.66325-2.3928-2.079-3.3458-1.3884-0.95731-3.3596-0.64224-2.2723 0.36322-3.9722 2.3757-1.6999 2.0125-2.225 5.578-0.50209 3.5337-0.0295 6.4905 0.41134 2.5735 1.8939 3.7684 1.4825 1.195 3.3716 0.893t3.4224-1.9509q1.5334-1.6489 2.0814-4.5442zm22.635-23.002 7.2633-1.5665 0.0387 5.8343q2.715-7.1373 7.4579-8.1602 1.6803-0.3624 3.7858 0.0627l-1.6076 7.0119q-1.1388-0.15147-2.3313 0.10573-2.0055 0.43254-3.7651 2.4003-1.7324 1.9619-2.3483 4.7609-0.62178 2.7718-0.57348 8.519l0.0493 9.4341-7.7782 1.6776zm56.596 3.4945-19.25 5.2829q0.098 0.46186 0.16404 0.70249 0.77775 2.8341 2.8589 4.1317 2.1078 1.2903 4.4339 0.65195 3.8233-1.0492 4.8763-5.5932l7.1868-0.73602q-0.86796 4.6945-3.6644 7.7044-2.7771 2.9759-6.948 4.1205-5.7216 1.5702-10.295-1.056-4.5806-2.653-6.2168-8.6152-1.5995-5.8286 0.38823-11.262 2.724-7.3601 10.905-9.6053 5.2136-1.4308 9.1761 0.96055 3.9552 2.3646 5.5474 8.1664 0.76308 2.7806 0.83735 5.1465zm-7.7543-2.9033q-0.11268-0.51533-0.18605-0.7827-0.8658-3.1549-2.7157-4.3435-1.8499-1.1886-4.2295-0.53556-2.3796 0.65302-3.7862 2.9653-1.38 2.305-1.0872 5.9909zm27.299-12.821-7.5552 1.904q-0.0267-4.1557 2.3683-7.3289 2.4212-3.1822 7.5841-4.9644 5.3726-1.8545 8.6918-0.56588 3.3102 1.2625 4.3867 4.3812 0.43423 1.258 0.68687 2.7546 0.27886 1.4876 1.023 7.9767 0.61813 5.3594 1.3057 7.3512 0.61516 1.7821 1.995 3.7402l-7.3119 2.524q-0.97023-1.3663-1.636-2.9549-1.0178 2.4045-2.8231 4.1422-1.8143 1.7115-3.9895 2.4624-3.4594 1.1941-6.4912-0.2817-3.0409-1.5021-4.2712-5.0663-1.3751-3.9836 0.26523-7.2188 1.6665-3.2443 7.863-5.9406 5.2188-2.3001 6.81-3.5532-0.0711-1.7353-0.39673-2.6788-0.41614-1.2056-1.6663-1.6833-1.2501-0.47771-3.1633 0.18268-2.018 0.69659-2.9078 1.9423-0.8727 1.2105-0.76732 2.8753zm9.561 4.5015q-0.61806 0.41865-1.6907 0.96491-5.4256 2.6354-6.703 4.5429-0.90607 1.3687-0.35424 2.9673 0.45233 1.3104 1.7124 1.902 1.251 0.56538 2.7973 0.0317 1.7035-0.58803 2.9169-1.9161 1.2305-1.3634 1.5211-2.9008 0.3077-1.5727-0.0656-4.5236zm18.97-17.637-1.1116-5.9268 3.5914-1.4725-0.89024-4.729 6.3571-8.5396 1.8954 10.25 4.4892-1.8407 1.1116 5.9268-4.5148 1.8512 2.2948 12.394q0.63138 3.3669 0.81018 3.803 0.34709 0.84654 1.0856 1.1131 0.72803 0.24087 2.1389-0.33763 0.4874-0.19984 2.3634-1.1788l1.086 5.9373q-1.7405 1.1631-3.7414 1.9835-3.8992 1.5987-6.2792 0.83664-2.3906-0.78775-3.4845-3.4556-0.51539-1.257-1.4279-6.1866l-2.2081-11.89zm24.5-29.305 7.2171-3.351 1.6778 7.1686-7.2171 3.351zm2.6047 11.14 7.2171-3.351 6.8172 29.298-7.2171 3.351zm43.319 11.196-6.0335 3.2394-19.131-23.148 6.8884-3.6984 7.9042 10.326q3.2228 4.1857 4.1825 5.6215-0.0276-0.52019-6e-3 -4.056 0.0325-3.5734 0.0728-4.3188l0.57325-14.406 7.5724-4.0656zm41.219-39.039-16.833 10.73q0.22997 0.41234 0.36409 0.62276 1.5796 2.4782 3.951 3.1038 2.3948 0.61063 4.4288-0.68586 3.3433-2.131 3.0081-6.7834l6.6493-2.8246q0.55639 4.7415-1.2271 8.4428-1.775 3.663-5.4222 5.9878-5.0032 3.1891-10.148 2.0297-5.1596-1.1827-8.4828-6.3964-3.2487-5.0967-2.9531-10.874 0.4301-7.8362 7.5842-12.396 4.559-2.9059 9.0508-1.7908 4.4769 1.0918 7.7107 6.1651 1.5498 2.4315 2.3191 4.67zm-8.2657-0.48509q-0.25976-0.45911-0.40878-0.6929-1.7585-2.7588-3.8768-3.3484-2.1183-0.58958-4.1991 0.73672-2.0808 1.3263-2.7423 3.9508-0.63813 2.6096 0.72958 6.0449zm40.383-18.038 5.1247-5.8848q2.3532 1.2114 4.1809 1.0185 1.8098-0.21417 3.8288-1.9056 2.0828-1.7449 2.5533-3.7305 0.3372-1.3676-0.4284-2.2814-0.5164-0.61632-1.3722-0.73122-0.8593-0.0759-3.4905 0.97112-7.0568 2.8015-9.2648 2.8428-3.4502 0.0694-5.6936-2.6084-2.2434-2.6778-1.8659-6.2854 0.5228-5.0315 6.0061-9.6251 4.3567-3.65 7.9235-3.9255 3.567-0.27556 6.441 1.9462l-4.8129 5.6959q-1.4789-0.85874-2.9942-0.63824-2.0545 0.31066-3.9673 1.9131-1.9127 1.6024-2.2287 2.9522-0.2947 1.332 0.3998 2.1608 0.7121 0.8501 2.0251 0.69048 0.8162-0.10508 4.4188-1.6764 5.5491-2.4426 8.1085-2.4528 3.6031-0.0165 5.6863 2.47 2.6885 3.2091 1.9657 7.8294-0.7227 4.6202-5.6321 8.7331-4.8881 4.0951-9.0615 4.5533-4.17 0.41914-7.8504-2.0313zm29.945-31.109q-5.7903-5.7763-5.9749-12.461-0.1845-6.7241 5.1218-12.043 4.6016-4.6126 9.7379-4.6581 5.1167-0.065 9.4153 4.2232 5.0641 5.0518 5.5234 11.972t-4.9646 12.357q-2.9371 2.9442-6.3863 4.0463-3.449 1.102-6.7242 0.067-3.2752-1.0351-5.7484-3.5023zm11.993-20.07q-2.002-1.9972-4.3742-2.014-2.3723-0.0559-4.2128 1.7891-1.8211 1.8254-2.0924 4.3744-0.2911 2.5294 1.0848 5.4684 1.3563 2.9194 3.162 4.7209 2.2377 2.2322 4.7669 2.3272 2.529 0.0949 4.3696-1.7501 2.3106-2.3161 1.8946-5.8641-0.5747-5.0377-4.5985-9.0517zm26.88-2.8778-25.358-32.885 5.1535-6.0263 25.376 32.864zm-3.456-42.181 4.6692-6.4432 11.99 13.174q2.1463 2.3772 2.7749 2.8327 1.0328 0.74837 2.3267 0.52192 1.294-0.22644 2.1563-1.4163 0.6181-0.8531 0.9058-1.9115 0.2652-1.0747 0.2486-2.422-0.039-1.3636-0.3877-2.6778-0.3489-1.3142-1.3015-2.929-0.7236-1.1749-2.7005-3.3608l-9.6354-10.612 4.6692-6.4432 20.23 22.261-4.3601 6.0166-2.7447-3.0162q0.9309 6.7006-2.4368 11.348-2.1312 2.941-5.0351 3.4046t-5.7326-1.5862q-1.2348-0.89477-4.3634-4.3261zm26.663-28.538-4.4392-4.0812 1.9946-3.3298-3.5447-3.2545-0.022-10.646 7.6556 7.0744 2.4932-4.1623 4.4392 4.0812-2.5075 4.186 9.259 8.552q2.5218 2.3185 2.9261 2.5607 0.7849 0.47017 1.536 0.24139 0.7273-0.24303 1.5109-1.5512 0.2707-0.4519 1.187-2.3592l4.425 4.105q-0.6976 1.9738-1.8088 3.8289-2.1656 3.6152-4.5282 4.43-2.3863 0.80055-4.8599-0.68116-1.1654-0.69812-4.8481-4.0999l-8.8879-8.2004zm1.344-37.529 3.6198-7.0861 5.7383 4.6125-3.6199 7.0861zm8.9153 7.1694 3.6198-7.0861 23.421 18.876-3.6198 7.0861zm24.158-10.07q-7.5864-3.0563-10.367-9.1383-2.7959-6.1181 0.012-13.087 2.4347-6.0434 7.1454-8.0911 4.685-2.0581 10.317 0.21083 6.6349 2.673 9.7602 8.864 3.1252 6.191 0.2553 13.314-1.554 3.8575-4.2988 6.219-2.7447 2.3615-6.1642 2.6877-3.4193 0.3262-6.6596-0.9792zm3.2029-23.16q-2.6231-1.0568-4.8134-0.14576-2.2057 0.87493-3.1796 3.2923-0.9634 2.3916-0.2178 4.8442 0.72 2.4421 3.1344 4.6104 2.3886 2.1579 4.7546 3.1111 2.9317 1.1811 5.297 0.28081 2.3654-0.90028 3.3392-3.3176 1.2226-3.0346-0.546-6.1383-2.4964-4.4132-7.7683-6.5371zm-3.04-26.997 1.9877-7.2745 3.4861 1.7573q-1.6081-3.371-1.9545-5.995-0.3658-2.658 0.3503-5.2789 0.9574-3.5035 3.5113-4.9613 2.5612-1.4845 5.8775-0.5783 1.4977 0.40926 5.4288 2.4319l15.16 7.7352-2.0974 7.6757-15.206-7.7766q-3.4059-1.7354-4.1013-1.9254-1.4709-0.40194-2.5412 0.25408-1.0896 0.62197-1.5135 2.1732-0.4604 1.6849 0.3944 4.1316 0.8547 2.4467 2.8599 4.2592 1.4243 1.3089 6.2402 3.7745l10.996 5.62-2.0974 7.6757z" fill="#ffb74d" stroke-miterlimit="3.7" stroke-width=".40318" aria-label="Every problem has its creative solution"/></g></svg>
