<svg width="130" height="50" viewBox="0 0 34.396 13.229" xmlns:xlink="http://www.w3.org/1999/xlink" xmlns="http://www.w3.org/2000/svg"><defs><linearGradient id="a"><stop style="stop-color:#fff;stop-opacity:1" offset="0"/><stop style="stop-color:#0ff;stop-opacity:1" offset=".446"/><stop style="stop-color:#0ff;stop-opacity:1" offset=".57"/><stop style="stop-color:#0ff;stop-opacity:.24705882" offset=".699"/><stop style="stop-color:#fff;stop-opacity:1" offset="1"/></linearGradient><linearGradient xlink:href="#a" id="c" x1="1.967" y1="-17.47" x2="2.012" y2="-7.169" gradientUnits="userSpaceOnUse" gradientTransform="translate(20.675 14.898) scale(.70782)"/><linearGradient id="b"><stop style="stop-color:#f9f9f9;stop-opacity:1" offset="0"/><stop style="stop-color:#f9f9f9;stop-opacity:0" offset="1"/></linearGradient><radialGradient xlink:href="#b" id="d" cx="17.266" cy="11.322" fx="17.266" fy="11.322" r="9.174" gradientTransform="matrix(1.00725 0 0 .15726 -.192 4.834)" gradientUnits="userSpaceOnUse"/></defs><path d="m8.082 7.381.536-.047q.038.322.176.53.14.205.433.334.292.125.658.125.325 0 .574-.096.248-.097.368-.263.123-.17.123-.37 0-.201-.117-.35-.117-.152-.386-.255-.173-.067-.764-.208-.591-.143-.828-.269-.307-.16-.46-.398-.149-.24-.149-.535 0-.325.185-.606.184-.284.538-.43.354-.146.787-.146.477 0 .84.155.366.152.562.45.196.299.21.676l-.544.041q-.044-.407-.298-.614-.252-.208-.746-.208-.515 0-.752.19-.234.187-.234.454 0 .23.166.38.164.15.855.307.693.155.95.272.375.173.554.44.178.263.178.608 0 .342-.196.647-.196.301-.564.47-.366.168-.826.168-.582 0-.977-.17-.392-.17-.617-.51-.223-.342-.235-.772Zm4.662 1.378V4.47h.568v4.29zm3.034 0V4.976h-1.413V4.47h3.4v.506h-1.419v3.783zm2.956 0V4.47h3.102v.507h-2.534V6.29h2.373v.503h-2.373v1.46h2.633v.506zM22.9 7.381l.535-.047q.038.322.176.53.14.205.433.334.293.125.658.125.325 0 .574-.096.249-.097.369-.263.122-.17.122-.37 0-.201-.117-.35-.117-.152-.386-.255-.172-.067-.764-.208-.59-.143-.828-.269-.307-.16-.46-.398-.148-.24-.148-.535 0-.325.184-.606.184-.284.538-.43.355-.146.788-.146.477 0 .84.155.365.152.561.45.196.299.21.676l-.543.041q-.044-.407-.299-.614-.251-.208-.746-.208-.515 0-.752.19-.234.187-.234.454 0 .23.167.38.164.15.854.307.694.155.951.272.375.173.553.44.179.263.179.608 0 .342-.196.647-.196.301-.565.47-.366.168-.825.168-.583 0-.978-.17-.392-.17-.617-.51-.222-.342-.234-.772Z" style="font-size:8.46667px;line-height:113.22%;font-family:Arial;-inkscape-font-specification:&quot;Arial, Normal&quot;;letter-spacing:.529167px;fill:url(#c);fill-rule:evenodd;stroke:#fff;stroke-width:.1;stroke-linecap:round;stroke-dasharray:none" aria-label="SITES"/><ellipse style="opacity:.551724;fill:url(#d);fill-rule:evenodd;stroke-width:.100362;stroke-linecap:round;stroke-miterlimit:3.7;stroke-dasharray:none" cx="17.198" cy="6.615" rx="9.24" ry="1.443"/></svg>