<svg xmlns="http://www.w3.org/2000/svg" width="1122.5" height="200" viewBox="0 0 297 52.917"><defs><linearGradient id="a" x1="149.32" x2="149.82" y1="3.039" y2="45.516" gradientTransform="translate(-35.085 -6.251) scale(1.2363)" gradientUnits="userSpaceOnUse"><stop stop-color="#0ff" offset="0"/><stop stop-color="#0ff" offset=".5"/><stop stop-color="#0ff" stop-opacity=".247" offset=".699"/><stop stop-color="#0ff" stop-opacity="0" offset="1"/></linearGradient></defs><path d="M23.087 36.79q-.87 0-1.45-.638-.55-.637-.434-2.405.116-1.826 1.13-4.695t2.638-6.753q.521-1.246 1.043-2.782.55-1.536.927-3.072.377-1.565.377-2.811 0-.87-.232-1.507-.202-.667-.753-.985-.638-.406-1.362-.58-.725-.174-1.536-.174-1.826 0-3.855.84-2 .841-3.883 2.32-1.855 1.448-3.333 3.303-1.45 1.855-2.203 3.854-.434 1.189-.637 2.232t-.203 1.884q0 1.594.58 2.666.608 1.043 1.565 1.565.985.493 2.115.493 1.072 0 2.029-.377 1.246-.464 2.231-1.565.986-1.101 1.565-2.434.58-1.362.58-2.493 0-.985-.522-1.652-.492-.666-1.652-.666h-.347q-.145 0-.348.058-.116.029-.203.029h-.145q-.26 0-.26-.116 0-.174.55-.377.898-.29 1.68-.29 1.363 0 2.03.812.666.782.666 2t-.666 2.637q-.667 1.39-1.971 2.666-1.275 1.275-3.217 2.087-1.043.434-2.145.434-1.507 0-2.84-.782-1.333-.783-2.173-2.232t-.84-3.42q0-.956.231-2t.725-2.202q.956-2.231 2.608-4.057 1.652-1.855 3.68-3.188 2.058-1.362 4.203-2.087 2.144-.724 4.086-.724 1.71 0 3.101.608 1.536.667 2.145 1.913.637 1.217.637 2.753 0 1.681-.58 3.594-.55 1.884-1.362 3.71-.898 2.057-1.767 4.289-.87 2.231-1.507 4.231-.638 2-.899 3.333-.058.319-.087.55-.029.261-.029.435 0 1.015.667 1.015.406 0 .956-.348 1.072-.638 2.174-1.913 1.101-1.275 2.173-2.898 1.102-1.652 2.116-3.362 1.014-1.739 1.942-3.275.927-1.536 1.68-2.608.464-.638.87-.927.406-.32.696-.32.608 0 .608.928 0 .55-.26 1.333-.377 1.102-1.015 2.522-.638 1.39-1.188 2.84-.55 1.42-.725 2.666-.029.319-.058.58v.492q0 1.507.609 2.145.609.667 1.594.667 1.13 0 2.55-.725 1.45-.724 2.898-1.913 1.45-1.217 2.609-2.666 1.188-1.45 1.796-2.898.667-1.594 1.015-3.101.348-1.507.348-2.753 0-2-.87-3.246-.87-1.275-2.724-1.275-.145 0-.319.029-.174 0-.377.029-.695.173-1.014.173-.377 0-.377-.173 0-.232.58-.522t1.217-.174q1.391-.116 2.608.638 1.247.724 2 2.202.754 1.45.754 3.536 0 1.072-.232 2.318-.232 1.247-.783 2.609-.724 1.826-2.028 3.39t-2.928 2.754q-1.594 1.188-3.274 1.826-1.652.666-3.101.666-1.652 0-2.783-1.043-1.1-1.015-1.1-3.304 0-.956.173-1.942.174-.985.406-1.739-.493.812-1.304 2.029-.812 1.188-1.855 2.492-1.015 1.305-2.116 2.435-1.101 1.159-2.202 1.855-1.102.724-2.087.724zm29.633-3.507q-1.072 0-1.942-.695-.84-.696-.84-2.116 0-1.304.637-2.782.638-1.507 1.623-2.637.84-.986 1.884-1.623 1.043-.638 1.97-.638.638 0 1.102.348.493.377.493 1.072 0 .725-.55 1.594T55.53 27.43q-.435.319-1.101.609-.667.29-1.333.492-.667.174-1.102.174-.144.348-.29.928-.115.58-.115 1.188 0 .724.29 1.304t1.072.58q.956 0 1.739-.55.782-.552 1.39-1.363.61-.84 1.015-1.68.435-.841.696-1.421.174-.406.463-.406.145 0 .145.145 0 .116-.087.29-.405.87-.87 1.855-.463.956-1.1 1.826-.638.84-1.536 1.362-.87.521-2.087.521zm-.522-5.1q.406 0 1.362-.29.957-.319 1.74-.986.753-.666 1.159-1.449.405-.811.405-1.362 0-.637-.463-.637-.348 0-.957.463-.608.464-1.507 1.565-.55.696-1.043 1.507t-.696 1.189zm8.912 5.071q-1.217 0-1.652-.637-.435-.667-.435-1.565 0-.928.261-1.913t.464-1.652q.464-1.623 1.16-3.449.724-1.855 1.564-3.622.87-1.797 1.71-3.217.667-1.13 1.42-1.681.783-.58 1.362-.58.464 0 .725.348.29.319.29.985 0 .464-.174 1.102-.145.637-.522 1.449-1.014 2.26-2.434 4.52-1.391 2.261-3.536 4.232-.116.377-.319.899-.174.492-.319 1.014-.174.782-.174 1.333 0 .898.348 1.362.377.435.899.435.463 0 .985-.319.522-.348.985-.985.696-1.015 1.247-2.058.58-1.072.869-1.652.174-.319.377-.319.145 0 .145.174 0 .145-.087.319-.261.58-.696 1.507-.406.898-1.043 1.826-.609.898-1.478 1.536-.84.608-1.942.608zm.435-6.607q1.043-1.073 2.028-2.464.986-1.42 1.826-2.927.87-1.536 1.45-2.898.202-.435.318-.956.145-.522.145-.87 0-.406-.203-.406-.116 0-.348.232-.231.203-.608.725-.55.724-1.217 1.97-.638 1.247-1.305 2.667-.666 1.42-1.217 2.753-.55 1.304-.87 2.174zm8.506 6.636q-1.652 0-2.319-.782-.666-.812-.666-1.97 0-1.276.58-2.725.608-1.45 1.42-2.521.84-1.13 1.854-1.74 1.015-.637 2.058-.637 1.101 0 1.623.55.521.551.406 1.479-.058.58-.551 1.159-.493.55-.985.55-.232 0-.406-.173.232-.29.492-.696.261-.406.377-.782.116-.348.116-.696 0-.725-.695-.725-.783 0-1.652.812-.84.782-1.478 1.71-.261.348-.638 1.101-.348.725-.637 1.623-.29.87-.29 1.71 0 .87.376 1.565.406.667 1.334.667 1.275 0 2.173-.783.928-.811 1.623-2 .725-1.188 1.304-2.318.174-.348.348-.348.145 0 .145.232 0 .116-.087.29-.696 1.507-1.42 2.753-.725 1.246-1.768 1.97-1.014.725-2.637.725zm8.36-.116q-1.1 0-1.622-.724-.522-.754-.522-1.826 0-1.304.609-2.724.58-1.333 1.478-2.435.898-1.1 1.942-1.767 1.043-.696 2.028-.696 1.102 0 1.623.725.522.724.522 1.825 0 1.333-.609 2.725-.348.782-.985 1.738-.638.928-1.45 1.71.175.32.493.551.32.203.87.203.695 0 1.304-.58.638-.58 1.16-1.39.521-.841.927-1.682.405-.84.666-1.362.087-.174.29-.174.116 0 .174.116.058.087-.029.29-.174.435-.58 1.304-.405.84-.985 1.768-.58.898-1.333 1.536-.754.638-1.681.638-.638 0-1.101-.203-.464-.232-.754-.55-.608.463-1.217.724-.609.26-1.217.26zm.436-.637q.782 0 1.68-.754-.231-.347-.347-.724t-.116-.696q0-.521.232-.898.26-.377.782-.377.377 0 .609.29.26.26.26.608 0 .087-.028.174 0 .058-.03.145.493-.666.928-1.565.956-2.057.956-3.39 0-.667-.26-1.044-.261-.377-.783-.377-.609 0-1.333.522-.696.522-1.362 1.391-.638.87-1.13 1.942-.464.985-.754 1.913-.26.898-.26 1.565 0 .58.231.927.232.348.725.348zm6.97.782q1.072-2.057 2.028-4.115.957-2.087 1.942-3.941.58-1.044.956-1.45.406-.434 1.073-.434.231 0 .492.087.261.058.522.058.174 0 .26-.03-.405.233-1.043 1.16-.637.898-1.304 2.086-.666 1.189-1.188 2.232.55-.666 1.13-1.333.609-.667 1.333-1.275.638-.55 1.334-1.188.724-.667 1.42-1.13t1.217-.464q.203 0 .26.029.551.231.551.753 0 .174-.145.522-.376.985-.985 2.028-.58 1.015-1.101 2.058.434-.522 1.072-1.275.667-.754 1.333-1.333.638-.58 1.623-1.217.985-.638 1.942-1.102t1.536-.463q.203 0 .29.029l-.32.58q-.318.55-.81 1.477-.464.899-.957 1.942-.493 1.014-.899 1.97-.376.928-.492 1.566-.087.376-.087.695 0 .464.174.609.174.145.377.145.58 0 1.188-.609t1.159-1.449q.58-.87 1.014-1.68.435-.841.638-1.276.174-.319.348-.319t.173.232q0 .145-.086.319-.348.666-.84 1.594-.465.927-1.073 1.826-.609.869-1.362 1.478-.725.58-1.565.58-.609 0-1.246-.407-.61-.405-.61-1.507 0-.608.262-1.478.203-.58.608-1.333.435-.753 1.044-1.739.29-.492.29-.782 0-.348-.348-.348-.29 0-.812.29-.492.29-1.246 1.014-.464.435-1.101 1.217-.609.754-1.246 1.652-.638.899-1.102 1.768-.463.87-.608 1.536-.435 0-.696-.347-.26-.377-.26-.87v-.174q0-.087.028-.203.145-.898.464-1.68t.724-1.623q.32-.61.638-1.305.319-.724.319-1.101 0-.232-.174-.232-.203 0-.667.319-.463.29-1.275 1.043-.724.696-1.768 2-1.014 1.304-2.231 3.71-.174.318-.406.405-.232.058-.725.058h-.521q-.232.03-.464.145zm21.344-.029q-1.072 0-1.941-.695-.84-.696-.84-2.116 0-1.304.637-2.782.637-1.507 1.623-2.637.84-.986 1.884-1.623 1.043-.638 1.97-.638.638 0 1.102.348.492.377.492 1.072 0 .725-.55 1.594-.55.87-1.565 1.623-.435.319-1.102.609-.666.29-1.333.492-.666.174-1.101.174-.145.348-.29.928-.116.58-.116 1.188 0 .724.29 1.304t1.072.58q.957 0 1.74-.55.782-.552 1.39-1.363.609-.84 1.015-1.68.434-.841.695-1.421.174-.406.464-.406.145 0 .145.145 0 .116-.087.29-.406.87-.87 1.855-.463.956-1.1 1.826-.638.84-1.537 1.362-.87.521-2.086.521zm-.521-5.1q.406 0 1.362-.29.956-.319 1.739-.986.753-.666 1.159-1.449.406-.811.406-1.362 0-.637-.464-.637-.348 0-.956.463-.609.464-1.507 1.565-.551.696-1.044 1.507t-.695 1.189zm18.229 4.984q-.812 0-1.45-.55-.637-.58-.637-1.797 0-.956.348-2.348.377-1.42.898-2.927.551-1.536 1.073-2.782h-1.536q-.203 0-.203-.29 0-.145.058-.26.087-.116.232-.116h1.738q.493-1.102 1.044-2.145.55-1.043 1.072-1.97.667-1.16 1.42-1.74.754-.58 1.304-.58.435 0 .725.349.29.318.29.985 0 .406-.174 1.13-.174.696-.55 1.478l-.58 1.16q-.348.753-.696 1.333h1.391q.203 0 .203.29 0 .115-.058.26-.058.116-.174.116h-1.71q-.724 1.246-1.652 2.434-.927 1.189-2.202 2.377-.087.26-.232.753-.116.493-.232 1.015-.087.492-.174.84l-.058.348q-.087.377-.087.696 0 .608.29.898.29.26.667.26.231 0 .463-.057.232-.087.522-.29 1.014-.724 1.768-1.97.782-1.247 1.362-2.406.174-.348.348-.348.116 0 .116.174 0 .087-.087.319-.638 1.333-1.073 2.144-.434.812-.84 1.363-.406.521-.956 1.043-.406.406-.928.608t-1.043.203zm2.29-11.07h1.477q.406-.754.754-1.479.377-.724.666-1.449.203-.463.348-1.043.145-.58.145-.898 0-.435-.203-.435-.145 0-.435.26-.26.233-.666.812-.522.725-1.043 1.884-.493 1.13-1.044 2.347zm-1.884 4.55q.84-.87 1.565-1.855.753-.986 1.39-2.03h-1.361q-.464 1.073-.87 2.088-.406 1.014-.724 1.796zm7.201 6.52q-1.101 0-1.623-.724-.521-.754-.521-1.826 0-1.304.608-2.724.58-1.333 1.478-2.435.899-1.101 1.942-1.768 1.043-.695 2.029-.695 1.101 0 1.623.724.521.725.521 1.826 0 1.333-.608 2.724-.348.783-.986 1.74-.637.927-1.449 1.71.174.318.493.55.319.203.87.203.695 0 1.304-.58.637-.58 1.159-1.391.521-.84.927-1.681.406-.84.667-1.362.087-.174.29-.174.115 0 .173.116.058.087-.029.29-.173.434-.58 1.304-.405.84-.985 1.768-.58.898-1.333 1.536-.753.637-1.68.637-.638 0-1.102-.202-.464-.232-.753-.551-.609.464-1.218.724-.608.261-1.217.261zm.435-.637q.783 0 1.68-.754-.23-.348-.347-.724-.116-.377-.116-.696 0-.522.232-.898.26-.377.783-.377.376 0 .608.29.261.26.261.608 0 .087-.029.174 0 .058-.029.145.493-.667.927-1.565.957-2.058.957-3.39 0-.667-.261-1.044-.26-.377-.783-.377-.608 0-1.333.522-.695.522-1.362 1.391-.637.87-1.13 1.942-.464.985-.754 1.912-.26.899-.26 1.565 0 .58.231.928.232.348.725.348zm16.316.782q1.072-2.058 2.029-4.115.956-2.087 1.941-3.942.58-1.043.957-1.449.406-.434 1.072-.434.232 0 .493.087.26.057.521.057.174 0 .261-.028-.405.231-1.043 1.159-.638.898-1.304 2.086t-1.188 2.232q.55-.667 1.13-1.333.608-.667 1.333-1.275.638-.551 1.333-1.189.725-.666 1.42-1.13t1.217-.464q.203 0 .261.03.55.231.55.753 0 .174-.144.522-.377.985-.985 2.028-.58 1.015-1.102 2.058.435-.522 1.073-1.275.666-.754 1.333-1.333.637-.58 1.623-1.218.985-.637 1.941-1.1t1.536-.465q.203 0 .29.03l-.319.58q-.318.55-.811 1.477-.464.898-.956 1.942-.493 1.014-.899 1.97-.377.928-.493 1.565-.086.377-.086.696 0 .464.173.609.174.145.377.145.58 0 1.188-.61.609-.608 1.16-1.448.58-.87 1.014-1.681.435-.84.637-1.275.174-.32.348-.32t.174.233q0 .145-.087.319-.348.666-.84 1.594-.464.927-1.073 1.825-.608.87-1.362 1.478-.724.58-1.565.58-.608 0-1.246-.406-.608-.405-.608-1.507 0-.608.26-1.478.203-.58.609-1.333.435-.753 1.043-1.739.29-.492.29-.782 0-.348-.348-.348-.29 0-.811.29-.493.29-1.246 1.014-.464.435-1.102 1.217-.608.754-1.246 1.652t-1.101 1.768-.609 1.536q-.434 0-.695-.348-.261-.376-.261-.87v-.173q0-.087.029-.203.145-.898.464-1.68t.724-1.624q.319-.608.638-1.304.319-.724.319-1.101 0-.232-.174-.232-.203 0-.667.319-.464.29-1.275 1.043-.725.696-1.768 2-1.014 1.304-2.232 3.71-.173.318-.405.405-.232.058-.725.058h-.521q-.232.029-.464.145zm15.375 9.1q-1.507 0-2.145-.608-.637-.58-.637-1.392 0-.434.116-.753t.348-.811q.405-.84 1.13-1.45.724-.608 1.565-.985 1.507-.695 3.42-1.13 1.941-.435 3.71-.957.55-.956 1.014-2.173.463-1.246.84-2.406.377-1.188.609-1.941-.348.637-.899 1.565-.521.898-1.188 1.768-.666.869-1.449 1.449-.754.58-1.594.58-.319 0-.782-.146-.435-.145-.783-.521-.319-.406-.319-1.188 0-.754.348-1.45.377-.724.696-1.39-.087 0-.203-.059-.087-.058-.087-.174 0-.115.058-.231.116-.232.26-.493.146-.26.261-.55.435-.9.87-1.71.435-.841.753-1.479.32-.637 1.102-.637h1.796q-.202.174-.521.406-.29.202-.55.637-.783 1.333-1.363 2.58-.58 1.217-1.246 2.608-.319.666-.464 1.217-.145.55-.145.956 0 .957.638.957.695 0 1.68-1.13.812-.957 1.624-2.261.84-1.333 1.594-2.724.782-1.42 1.362-2.609.319-.637 1.13-.637h1.594q-.84.58-1.304 1.507-.435.927-.986 2.376-.608 1.594-1.159 3.304-.521 1.681-1.188 3.391.956-.319 2.145-.985 1.217-.667 2.057-1.913.667-.986 1.13-1.884.493-.927.696-1.333.116-.29.319-.29t.203.261q0 .145-.087.319-.754 1.507-1.362 2.55-.58 1.014-1.304 1.768-.696.724-1.71 1.275-1.015.58-2.58 1.16-.695 1.246-1.594 2.579-.869 1.362-2 2.521-1.1 1.188-2.463 1.913-1.333.753-2.956.753zm-.696-.58q.957 0 1.971-.579 1.014-.58 1.97-1.478.957-.87 1.74-1.797.811-.898 1.304-1.594.145-.203.319-.521.174-.32.348-.61-1.42.378-3.13.812-1.681.464-2.928 1.015-1.39.58-2.173 1.652-.812 1.072-.812 1.912 0 .522.348.84.319.349 1.043.349zm29.793-7.535q-.637 0-1.246-.086-1.826-.232-2.695-1.073-.84-.84-.84-1.826 0-1.072.956-1.941.985-.87 2.753-.87.55 0 1.16.116.637.087 1.333.319.347.116.347.319 0 .116-.174.116t-.29-.058q-.463-.174-.898-.232-.406-.087-.782-.087-1.247 0-1.913.724-.638.696-.638 1.536 0 .812.667 1.478.666.667 2.115.667 1.826 0 3.362-.84 1.565-.84 2.956-2.203 1.478-1.45 2.696-3.478 1.217-2.057 2.405-4.376 1.217-2.347 2.637-4.724 1.42-2.376 3.275-4.463.377-.406.754-.84.405-.464.782-.783-.985-.145-2.029-.203-1.043-.087-2.057-.087-1.507 0-2.87.145-1.332.116-2.666.348-1.362.26-3.043.812t-3.275 1.449q-1.565.869-2.695 2.115-1.101 1.246-1.362 2.87-.029.144-.058.318v.29q0 1.333.899 2.203.927.869 2.144.869.899 0 1.74-.464.84-.492 1.506-1.275.667-.811.985-1.768.03-.29.232-.29.174 0 .174.32-.029 1.274-.753 2.202-.696.927-1.768 1.42-1.073.464-2.174.464-1.13 0-2.144-.464-1.015-.493-1.652-1.42-.638-.957-.638-2.348 0-1.623.783-2.869.811-1.246 2.144-2.173 1.333-.957 2.898-1.594 1.565-.667 3.13-1.044 1.565-.406 2.84-.608 1.305-.203 2.696-.32 1.42-.115 2.869-.115 1.246 0 2.492.116t2.435.348q.492-.377 1.014-.667.522-.29 1.16-.522.405-.174.608-.174.174 0 .174.116 0 .203-.464.493-.232.116-.58.406-.348.29-.753.666 1.884.464 3.39 1.391 1.652.986 2.348 2.087.725 1.101.725 2.26 0 1.334-.812 2.667-.811 1.304-2.116 2.434-1.304 1.13-2.869 1.971-1.565.811-3.1 1.188-1.479.377-2.986.55-1.507.175-2.695.175h-.435q-.203 0-.405-.03-.986 1.392-2.03 2.725-1.042 1.304-2.347 2.55-1.594 1.507-3.477 2.29-1.884.782-3.855.782zm12.114-8.984q1.102.03 2.464-.174 1.362-.202 2.724-.608 2.26-.696 4.057-2 1.826-1.304 2.87-2.898Q219 18.039 219 16.503q0-.927-.464-1.768-.435-.84-1.449-1.507-.666-.435-1.507-.753-.84-.32-1.768-.522-1.478 2.087-2.782 4.347-1.275 2.26-2.55 4.55-1.246 2.29-2.667 4.463zm12.245 7.854q-1.1 0-1.622-.724-.522-.754-.522-1.826 0-1.304.609-2.724.58-1.333 1.478-2.435.898-1.101 1.941-1.768 1.044-.695 2.029-.695 1.101 0 1.623.724.522.725.522 1.826 0 1.333-.61 2.724-.347.783-.984 1.74-.638.927-1.45 1.71.174.318.493.55.319.203.87.203.695 0 1.304-.58.637-.58 1.159-1.391.522-.84.927-1.681.406-.84.667-1.362.087-.174.29-.174.116 0 .174.116.058.087-.03.29-.173.434-.579 1.304-.406.84-.985 1.768-.58.898-1.333 1.536-.754.637-1.681.637-.638 0-1.102-.202-.463-.232-.753-.551-.609.464-1.217.724-.609.261-1.218.261zm.435-.637q.783 0 1.681-.754-.232-.348-.348-.724-.116-.377-.116-.696 0-.522.232-.898.261-.377.783-.377.377 0 .608.29.261.26.261.608 0 .087-.029.174 0 .058-.029.145.493-.667.928-1.565.956-2.058.956-3.39 0-.667-.26-1.044-.262-.377-.783-.377-.609 0-1.333.522-.696.521-1.363 1.39-.637.87-1.13 1.943-.464.985-.753 1.912-.261.899-.261 1.565 0 .58.232.928.232.348.724.348zm13.143.666q-.55 0-1.101-.435-.55-.463-.55-1.478 0-.782.376-1.796.348-.986.927-1.913.609-.928.87-1.507.087-.232.087-.406 0-.522-.667-.753-.637-.232-1.68-.261l-.348.956q-.32.928-.899 2.174-.55 1.246-1.246 2.405-.667 1.16-1.391 1.855-.058.058-.145.058-.116 0-.145-.145-.058-.145.116-.348 1.13-1.507 2.029-3.333.898-1.854 1.507-3.767.637-1.913.927-3.536.087-.464.319-.666.232-.232.492-.232.377 0 .696.376.319.348.319 1.015 0 .116-.03.26 0 .145-.028.29-.116.609-.696 1.16-.55.521-.898.782.29.03.608.058h.696q1.362 0 2.695-.174.058.174.058.261 0 .377-.232.956-.202.58-.434 1.044-.116.26-.464.956-.348.667-.753 1.536-.406.84-.696 1.68-.26.812-.26 1.392 0 .754.579.754.434 0 .956-.551.522-.58 1.015-1.391.521-.84.927-1.623.435-.812.667-1.275.115-.29.318-.29.116 0 .116.203 0 .116-.087.348-.318.666-.753 1.507-.435.84-.986 1.651-.521.812-1.159 1.42-.608.58-1.333.754-.087.029-.319.029zm7.347-.029q-.812 0-1.45-.55-.637-.58-.637-1.797 0-.957.348-2.348.377-1.42.898-2.927.551-1.536 1.073-2.782h-1.536q-.203 0-.203-.29 0-.145.058-.26.087-.117.232-.117h1.739q.492-1.1 1.043-2.144.55-1.044 1.072-1.97.667-1.16 1.42-1.74t1.305-.58q.434 0 .724.348.29.32.29.986 0 .405-.174 1.13-.174.696-.55 1.478l-.58 1.16q-.348.753-.696 1.332h1.391q.203 0 .203.29 0 .116-.058.26-.058.117-.174.117h-1.71q-.724 1.246-1.652 2.434t-2.202 2.377q-.087.26-.232.753-.116.493-.232 1.015-.087.492-.174.84l-.058.348q-.087.377-.087.695 0 .609.29.899.29.26.667.26.232 0 .463-.057.232-.087.522-.29 1.014-.725 1.768-1.97.782-1.247 1.362-2.406.174-.348.348-.348.116 0 .116.174 0 .087-.087.319-.638 1.333-1.073 2.144-.434.812-.84 1.362-.406.522-.956 1.044-.406.405-.928.608-.522.203-1.043.203zm2.29-11.07h1.477q.406-.754.754-1.479.377-.724.666-1.449.203-.464.348-1.043t.145-.899q0-.434-.203-.434-.145 0-.434.26-.261.232-.667.812-.522.724-1.043 1.884-.493 1.13-1.044 2.347zm-1.884 4.55q.84-.87 1.565-1.856.753-.985 1.39-2.028h-1.361q-.464 1.072-.87 2.086-.406 1.015-.724 1.797zm2.362 16.692q-.638 0-1.102-.319-.492-.318-.492-1.246 0-1.449.87-3.941.868-2.493 2.115-5.478-.348-.58-.348-1.217 0-1.014.58-1.39.492-.407 1.043-.32 1.043-2.347 2.115-4.608 1.073-2.29 2.058-4.318 1.015-2.029 1.826-3.565.493-.956 1.014-1.478.55-.521 1.42-.521.261 0 .609.116.377.087.666.058-.666.637-1.68 2.144-.986 1.478-2.145 3.536-1.16 2.058-2.376 4.463-1.189 2.377-2.29 4.84.26.348.522.927.29.58.405 1.247 0 .086.03.202l.057.174q.667.03 1.276-.463.637-.493 1.188-1.305.58-.811 1.043-1.71.493-.898.84-1.68.059-.116.146-.145.115-.058.173-.058.116 0 .174.116.058.087-.029.29-.405.898-.898 1.883-.493.957-1.101 1.797-.609.812-1.305 1.333-.695.493-1.478.493.03.203.03.406v.463q0 1.507-.377 3.13-.348 1.623-1.015 3.014-.666 1.391-1.565 2.26-.898.87-2 .87zm4.115-10.578h.145q-.03-.753-.261-1.304-.174-.406-.435-.696-.174.406-.319.754-.115.319-.29.724.261.522 1.16.522zm-3.68 9.796q.29 0 .695-.348.406-.319.782-.84.725-.957 1.276-2.348.55-1.391.869-2.898.319-1.507.29-2.811h-.145q-.058.029-.116.029-.377 0-.783-.145-.405-.145-.666-.348-.754 1.942-1.391 3.826-.667 1.912-1.014 3.361-.116.551-.174.957-.058.405-.058.695 0 .87.434.87zm11.896-9.39q-1.101 0-1.623-.725-.521-.753-.521-1.825 0-1.305.608-2.725.58-1.333 1.478-2.434.899-1.101 1.942-1.768 1.043-.695 2.029-.695 1.101 0 1.623.724.521.725.521 1.826 0 1.333-.608 2.724-.348.783-.986 1.739-.637.927-1.449 1.71.174.319.493.55.319.203.87.203.695 0 1.304-.58.637-.579 1.159-1.39.521-.84.927-1.681.406-.84.667-1.362.087-.174.29-.174.115 0 .173.116.058.087-.029.29-.173.434-.58 1.304-.405.84-.985 1.768-.58.898-1.333 1.536-.753.637-1.68.637-.638 0-1.102-.203-.464-.232-.753-.55-.609.463-1.218.724-.608.261-1.217.261zm.435-.638q.783 0 1.68-.753-.23-.348-.347-.725-.116-.377-.116-.695 0-.522.232-.899.26-.376.783-.376.376 0 .608.29.261.26.261.608 0 .087-.029.174 0 .058-.029.145.493-.667.927-1.565.957-2.058.957-3.391 0-.667-.261-1.043-.26-.377-.783-.377-.608 0-1.333.522-.695.521-1.362 1.39-.637.87-1.13 1.942-.464.986-.754 1.913-.26.899-.26 1.565 0 .58.231.928.232.347.725.347zm11.143.725q-1.217 0-1.652-.638-.435-.666-.435-1.565 0-.927.261-1.913t.464-1.651q.464-1.623 1.16-3.45.724-1.854 1.564-3.622.87-1.797 1.71-3.217.667-1.13 1.42-1.68.783-.58 1.362-.58.464 0 .725.347.29.32.29.986 0 .464-.174 1.101-.145.638-.522 1.45-1.014 2.26-2.434 4.52-1.391 2.26-3.536 4.232-.116.376-.319.898-.174.493-.319 1.014-.174.783-.174 1.333 0 .899.348 1.363.377.434.899.434.463 0 .985-.319.522-.347.985-.985.696-1.014 1.247-2.058.58-1.072.869-1.651.174-.32.377-.32.145 0 .145.175 0 .145-.087.318-.261.58-.696 1.507-.406.899-1.043 1.826-.609.899-1.478 1.536-.84.609-1.942.609zm.435-6.608q1.043-1.072 2.028-2.463.986-1.42 1.826-2.927.87-1.536 1.45-2.898.202-.435.318-.957.145-.522.145-.87 0-.405-.203-.405-.116 0-.348.232-.231.203-.608.724-.55.725-1.217 1.971-.638 1.246-1.305 2.666t-1.217 2.754q-.55 1.304-.87 2.173zm9.346-5.245q-.435 0-.724-.29-.261-.32-.261-.754 0-.55.434-.956.435-.406.957-.406.464 0 .753.29.29.29.29.695 0 .551-.435.986t-1.014.435zm-2.347 11.766q-1.073 0-1.507-.61-.435-.637-.435-1.448 0-.435.087-.87.116-.463.26-.84l1.942-4.956q.087-.232.087-.406 0-.29-.145-.492-.145-.232-.203-.32l1.594-.057q.435-.029.61.116.202.116.202.29t-.203.637l-2.405 5.652-.174.376q-.145.348-.174.464-.087.435-.116.55-.029.117-.029.146v.231q0 .377.174.638.203.26.666.26.29 0 .667-.173.377-.174.55-.348.725-.753 1.42-1.97.725-1.247 1.334-2.464.116-.29.29-.29.145 0 .145.203 0 .116-.087.348-.29.609-.725 1.507t-1.043 1.797q-.58.87-1.275 1.449t-1.507.58zm7.404 0q-1.101 0-1.623-.725-.521-.754-.521-1.826 0-1.304.608-2.724.58-1.333 1.478-2.434.899-1.102 1.942-1.768 1.043-.696 2.029-.696 1.101 0 1.623.725.521.724.521 1.825 0 1.334-.608 2.725-.348.782-.986 1.739-.637.927-1.449 1.71.174.318.493.55.319.203.87.203.695 0 1.304-.58.637-.58 1.159-1.39.521-.841.927-1.682.406-.84.667-1.362.087-.174.29-.174.116 0 .173.116.058.087-.029.29-.173.435-.58 1.304-.405.84-.985 1.768-.58.899-1.333 1.536-.753.638-1.68.638-.638 0-1.102-.203-.464-.232-.753-.55-.609.463-1.218.724-.608.26-1.217.26zm.435-.638q.783 0 1.681-.754-.232-.347-.348-.724-.116-.377-.116-.696 0-.521.232-.898.26-.377.783-.377.376 0 .608.29.261.26.261.609 0 .087-.029.173 0 .058-.029.145.493-.666.927-1.565.957-2.057.957-3.39 0-.667-.261-1.044-.26-.376-.782-.376-.61 0-1.334.521-.695.522-1.362 1.391-.637.87-1.13 1.942-.464.985-.754 1.913-.26.898-.26 1.565 0 .58.232.927.231.348.724.348z" fill="url(#a)" fill-rule="evenodd" opacity=".875" stroke="#fff" stroke-linecap="round" stroke-width=".388" aria-label="Welcome to my Portfolio"/></svg>