<?xml version="1.0" encoding="UTF-8" standalone="no"?>
<svg
   width="1100"
   height="140"
   viewBox="0 0 291.04677 37.0419"
   version="1.1"
   id="svg4"
   sodipodi:docname="title.svg"
   inkscape:version="1.3.2 (091e20e, 2023-11-25, custom)"
   xmlns:inkscape="http://www.inkscape.org/namespaces/inkscape"
   xmlns:sodipodi="http://sodipodi.sourceforge.net/DTD/sodipodi-0.dtd"
   xmlns="http://www.w3.org/2000/svg"
   xmlns:svg="http://www.w3.org/2000/svg">
  <sodipodi:namedview
     id="namedview4"
     pagecolor="#505050"
     bordercolor="#eeeeee"
     borderopacity="1"
     inkscape:showpageshadow="0"
     inkscape:pageopacity="0"
     inkscape:pagecheckerboard="0"
     inkscape:deskcolor="#505050"
     inkscape:zoom="0.90155902"
     inkscape:cx="561.80459"
     inkscape:cy="100.38167"
     inkscape:window-width="1920"
     inkscape:window-height="1017"
     inkscape:window-x="1912"
     inkscape:window-y="-8"
     inkscape:window-maximized="1"
     inkscape:current-layer="svg4" />
  <defs
     id="defs4">
    <linearGradient
       id="a"
       x1="149.32001"
       x2="149.82001"
       y1="3.039"
       y2="45.515999"
       gradientTransform="matrix(1.2363,0,0,1.2363,-38.064114,-14.18755)"
       gradientUnits="userSpaceOnUse">
      <stop
         stop-color="#0ff"
         offset="0"
         id="stop1" />
      <stop
         stop-color="#0ff"
         offset=".5"
         id="stop2" />
      <stop
         stop-color="#0ff"
         stop-opacity=".247"
         offset=".699"
         id="stop3" />
      <stop
         stop-color="#0ff"
         stop-opacity="0"
         offset="1"
         id="stop4" />
    </linearGradient>
  </defs>
  <path
     d="m 20.107886,28.85345 q -0.87,0 -1.45,-0.638 -0.55,-0.637 -0.434,-2.405 0.116,-1.826 1.13,-4.695 1.014,-2.869 2.638,-6.753 0.521,-1.246 1.043,-2.782 0.55,-1.536 0.927,-3.072 0.377,-1.565 0.377,-2.811 0,-0.87 -0.232,-1.507 -0.202,-0.667 -0.753,-0.985 -0.638,-0.406 -1.362,-0.58 -0.725,-0.174 -1.536,-0.174 -1.826,0 -3.855,0.84 -2,0.841 -3.883,2.32 -1.855,1.448 -3.3330001,3.303 -1.45,1.855 -2.203,3.854 -0.434,1.189 -0.637,2.232 -0.203,1.043 -0.203,1.884 0,1.594 0.58,2.666 0.608,1.043 1.565,1.565 0.985,0.493 2.1150001,0.493 1.072,0 2.029,-0.377 1.246,-0.464 2.231,-1.565 0.986,-1.101 1.565,-2.434 0.58,-1.362 0.58,-2.493 0,-0.985 -0.522,-1.652 -0.492,-0.666 -1.652,-0.666 h -0.347 q -0.145,0 -0.348,0.058 -0.116,0.029 -0.203,0.029 h -0.145 q -0.26,0 -0.26,-0.116 0,-0.174 0.55,-0.377 0.898,-0.29 1.68,-0.29 1.363,0 2.03,0.812 0.666,0.782 0.666,2 0,1.218 -0.666,2.637 -0.667,1.39 -1.971,2.666 -1.275,1.275 -3.217,2.087 -1.043,0.434 -2.145,0.434 -1.5070001,0 -2.8400001,-0.782 -1.333,-0.783 -2.173,-2.232 -0.84,-1.449 -0.84,-3.42 0,-0.956 0.231,-2 0.231,-1.044 0.725,-2.202 0.956,-2.231 2.608,-4.057 1.652,-1.855 3.6800001,-3.188 2.058,-1.362 4.203,-2.087 2.144,-0.724 4.086,-0.724 1.71,0 3.101,0.608 1.536,0.667 2.145,1.913 0.637,1.217 0.637,2.753 0,1.681 -0.58,3.594 -0.55,1.884 -1.362,3.71 -0.898,2.057 -1.767,4.289 -0.87,2.231 -1.507,4.231 -0.638,2 -0.899,3.333 -0.058,0.319 -0.087,0.55 -0.029,0.261 -0.029,0.435 0,1.015 0.667,1.015 0.406,0 0.956,-0.348 1.072,-0.638 2.174,-1.913 1.101,-1.275 2.173,-2.898 1.102,-1.652 2.116,-3.362 1.014,-1.739 1.942,-3.275 0.927,-1.536 1.68,-2.608 0.464,-0.638 0.87,-0.927 0.406,-0.32 0.696,-0.32 0.608,0 0.608,0.928 0,0.55 -0.26,1.333 -0.377,1.102 -1.015,2.522 -0.638,1.39 -1.188,2.84 -0.55,1.42 -0.725,2.666 -0.029,0.319 -0.058,0.58 v 0.492 q 0,1.507 0.609,2.145 0.609,0.667 1.594,0.667 1.13,0 2.55,-0.725 1.45,-0.724 2.898,-1.913 1.45,-1.217 2.609,-2.666 1.188,-1.45 1.796,-2.898 0.667,-1.594 1.015,-3.101 0.348,-1.507 0.348,-2.753 0,-2 -0.87,-3.246 -0.87,-1.275 -2.724,-1.275 -0.145,0 -0.319,0.029 -0.174,0 -0.377,0.029 -0.695,0.173 -1.014,0.173 -0.377,0 -0.377,-0.173 0,-0.232 0.58,-0.522 0.58,-0.29 1.217,-0.174 1.391,-0.116 2.608,0.638 1.247,0.724 2,2.202 0.754,1.45 0.754,3.536 0,1.072 -0.232,2.318 -0.232,1.247 -0.783,2.609 -0.724,1.826 -2.028,3.39 -1.304,1.564 -2.928,2.754 -1.594,1.188 -3.274,1.826 -1.652,0.666 -3.101,0.666 -1.652,0 -2.783,-1.043 -1.1,-1.015 -1.1,-3.304 0,-0.956 0.173,-1.942 0.174,-0.985 0.406,-1.739 -0.493,0.812 -1.304,2.029 -0.812,1.188 -1.855,2.492 -1.015,1.305 -2.116,2.435 -1.101,1.159 -2.202,1.855 -1.102,0.724 -2.087,0.724 z m 29.633,-3.507 q -1.072,0 -1.942,-0.695 -0.84,-0.696 -0.84,-2.116 0,-1.304 0.637,-2.782 0.638,-1.507 1.623,-2.637 0.84,-0.986 1.884,-1.623 1.043,-0.638 1.97,-0.638 0.638,0 1.102,0.348 0.493,0.377 0.493,1.072 0,0.725 -0.55,1.594 -0.55,0.869 -1.567,1.624 -0.435,0.319 -1.101,0.609 -0.667,0.29 -1.333,0.492 -0.667,0.174 -1.102,0.174 -0.144,0.348 -0.29,0.928 -0.115,0.58 -0.115,1.188 0,0.724 0.29,1.304 0.29,0.58 1.072,0.58 0.956,0 1.739,-0.55 0.782,-0.552 1.39,-1.363 0.61,-0.84 1.015,-1.68 0.435,-0.841 0.696,-1.421 0.174,-0.406 0.463,-0.406 0.145,0 0.145,0.145 0,0.116 -0.087,0.29 -0.405,0.87 -0.87,1.855 -0.463,0.956 -1.1,1.826 -0.638,0.84 -1.536,1.362 -0.87,0.521 -2.087,0.521 z m -0.522,-5.1 q 0.406,0 1.362,-0.29 0.957,-0.319 1.74,-0.986 0.753,-0.666 1.159,-1.449 0.405,-0.811 0.405,-1.362 0,-0.637 -0.463,-0.637 -0.348,0 -0.957,0.463 -0.608,0.464 -1.507,1.565 -0.55,0.696 -1.043,1.507 -0.493,0.811 -0.696,1.189 z m 8.912,5.071 q -1.217,0 -1.652,-0.637 -0.435,-0.667 -0.435,-1.565 0,-0.928 0.261,-1.913 0.261,-0.985 0.464,-1.652 0.464,-1.623 1.16,-3.449 0.724,-1.855 1.564,-3.622 0.87,-1.797 1.71,-3.217 0.667,-1.13 1.42,-1.681 0.783,-0.58 1.362,-0.58 0.464,0 0.725,0.348 0.29,0.319 0.29,0.985 0,0.464 -0.174,1.102 -0.145,0.637 -0.522,1.449 -1.014,2.26 -2.434,4.52 -1.391,2.261 -3.536,4.232 -0.116,0.377 -0.319,0.899 -0.174,0.492 -0.319,1.014 -0.174,0.782 -0.174,1.333 0,0.898 0.348,1.362 0.377,0.435 0.899,0.435 0.463,0 0.985,-0.319 0.522,-0.348 0.985,-0.985 0.696,-1.015 1.247,-2.058 0.58,-1.072 0.869,-1.652 0.174,-0.319 0.377,-0.319 0.145,0 0.145,0.174 0,0.145 -0.087,0.319 -0.261,0.58 -0.696,1.507 -0.406,0.898 -1.043,1.826 -0.609,0.898 -1.478,1.536 -0.84,0.608 -1.942,0.608 z m 0.435,-6.607 q 1.043,-1.073 2.028,-2.464 0.986,-1.42 1.826,-2.927 0.87,-1.536 1.45,-2.898 0.202,-0.435 0.318,-0.956 0.145,-0.522 0.145,-0.87 0,-0.406 -0.203,-0.406 -0.116,0 -0.348,0.232 -0.231,0.203 -0.608,0.725 -0.55,0.724 -1.217,1.97 -0.638,1.247 -1.305,2.667 -0.666,1.42 -1.217,2.753 -0.55,1.304 -0.87,2.174 z m 8.506,6.636 q -1.652,0 -2.319,-0.782 -0.666,-0.812 -0.666,-1.97 0,-1.276 0.58,-2.725 0.608,-1.45 1.42,-2.521 0.84,-1.13 1.854,-1.74 1.015,-0.637 2.058,-0.637 1.101,0 1.623,0.55 0.521,0.551 0.406,1.479 -0.058,0.58 -0.551,1.159 -0.493,0.55 -0.985,0.55 -0.232,0 -0.406,-0.173 0.232,-0.29 0.492,-0.696 0.261,-0.406 0.377,-0.782 0.116,-0.348 0.116,-0.696 0,-0.725 -0.695,-0.725 -0.783,0 -1.652,0.812 -0.84,0.782 -1.478,1.71 -0.261,0.348 -0.638,1.101 -0.348,0.725 -0.637,1.623 -0.29,0.87 -0.29,1.71 0,0.87 0.376,1.565 0.406,0.667 1.334,0.667 1.275,0 2.173,-0.783 0.928,-0.811 1.623,-2 0.725,-1.188 1.304,-2.318 0.174,-0.348 0.348,-0.348 0.145,0 0.145,0.232 0,0.116 -0.087,0.29 -0.696,1.507 -1.42,2.753 -0.725,1.246 -1.768,1.97 -1.014,0.725 -2.637,0.725 z m 8.36,-0.116 q -1.1,0 -1.622,-0.724 -0.522,-0.754 -0.522,-1.826 0,-1.304 0.609,-2.724 0.58,-1.333 1.478,-2.435 0.898,-1.1 1.942,-1.767 1.043,-0.696 2.028,-0.696 1.102,0 1.623,0.725 0.522,0.724 0.522,1.825 0,1.333 -0.609,2.725 -0.348,0.782 -0.985,1.738 -0.638,0.928 -1.45,1.71 0.175,0.32 0.493,0.551 0.32,0.203 0.87,0.203 0.695,0 1.304,-0.58 0.638,-0.58 1.16,-1.39 0.521,-0.841 0.927,-1.682 0.405,-0.84 0.666,-1.362 0.087,-0.174 0.29,-0.174 0.116,0 0.174,0.116 0.058,0.087 -0.029,0.29 -0.174,0.435 -0.58,1.304 -0.405,0.84 -0.985,1.768 -0.58,0.898 -1.333,1.536 -0.754,0.638 -1.681,0.638 -0.638,0 -1.101,-0.203 -0.464,-0.232 -0.754,-0.55 -0.608,0.463 -1.217,0.724 -0.609,0.26 -1.217,0.26 z m 0.436,-0.637 q 0.782,0 1.68,-0.754 -0.231,-0.347 -0.347,-0.724 -0.116,-0.377 -0.116,-0.696 0,-0.521 0.232,-0.898 0.26,-0.377 0.782,-0.377 0.377,0 0.609,0.29 0.26,0.26 0.26,0.608 0,0.087 -0.028,0.174 0,0.058 -0.03,0.145 0.493,-0.666 0.928,-1.565 0.956,-2.057 0.956,-3.39 0,-0.667 -0.26,-1.044 -0.261,-0.377 -0.783,-0.377 -0.609,0 -1.333,0.522 -0.696,0.522 -1.362,1.391 -0.638,0.87 -1.13,1.942 -0.464,0.985 -0.754,1.913 -0.26,0.898 -0.26,1.565 0,0.58 0.231,0.927 0.232,0.348 0.725,0.348 z m 6.97,0.782 q 1.072,-2.057 2.028,-4.115 0.957,-2.087 1.942,-3.941 0.58,-1.044 0.956,-1.45 0.406,-0.434 1.073,-0.434 0.231,0 0.492,0.087 0.261,0.058 0.522,0.058 0.174,0 0.26,-0.03 -0.405,0.233 -1.043,1.16 -0.637,0.898 -1.304,2.086 -0.666,1.189 -1.188,2.232 0.55,-0.666 1.13,-1.333 0.609,-0.667 1.333,-1.275 0.638,-0.55 1.334,-1.188 0.724,-0.667 1.42,-1.13 0.696,-0.463 1.217,-0.464 0.203,0 0.26,0.029 0.551,0.231 0.551,0.753 0,0.174 -0.145,0.522 -0.376,0.985 -0.985,2.028 -0.58,1.015 -1.101,2.058 0.434,-0.522 1.072,-1.275 0.667,-0.754 1.333,-1.333 0.638,-0.58 1.623,-1.217 0.985,-0.638 1.942,-1.102 0.957,-0.464 1.536,-0.463 0.203,0 0.29,0.029 l -0.32,0.58 q -0.318,0.55 -0.81,1.477 -0.464,0.899 -0.957,1.942 -0.493,1.014 -0.899,1.97 -0.376,0.928 -0.492,1.566 -0.087,0.376 -0.087,0.695 0,0.464 0.174,0.609 0.174,0.145 0.377,0.145 0.58,0 1.188,-0.609 0.608,-0.609 1.159,-1.449 0.58,-0.87 1.014,-1.68 0.435004,-0.841 0.638004,-1.276 0.174,-0.319 0.348,-0.319 0.174,0 0.173,0.232 0,0.145 -0.086,0.319 -0.348,0.666 -0.840004,1.594 -0.465,0.927 -1.073,1.826 -0.609,0.869 -1.362,1.478 -0.725,0.58 -1.565,0.58 -0.609,0 -1.246,-0.407 -0.61,-0.405 -0.61,-1.507 0,-0.608 0.262,-1.478 0.203,-0.58 0.608,-1.333 0.435,-0.753 1.044,-1.739 0.29,-0.492 0.29,-0.782 0,-0.348 -0.348,-0.348 -0.29,0 -0.812,0.29 -0.492,0.29 -1.246,1.014 -0.464,0.435 -1.101,1.217 -0.609,0.754 -1.246,1.652 -0.638,0.899 -1.102,1.768 -0.463,0.87 -0.608,1.536 -0.435,0 -0.696,-0.347 -0.26,-0.377 -0.26,-0.87 v -0.174 q 0,-0.087 0.028,-0.203 0.145,-0.898 0.464,-1.68 0.319,-0.782 0.724,-1.623 0.32,-0.61 0.638,-1.305 0.319,-0.724 0.319,-1.101 0,-0.232 -0.174,-0.232 -0.203,0 -0.667,0.319 -0.463,0.29 -1.275,1.043 -0.724,0.696 -1.768,2 -1.014,1.304 -2.231,3.71 -0.174,0.318 -0.406,0.405 -0.232,0.058 -0.725,0.058 h -0.521 q -0.232,0.03 -0.464,0.145 z m 21.344004,-0.029 q -1.072,0 -1.941,-0.695 -0.84,-0.696 -0.84,-2.116 0,-1.304 0.637,-2.782 0.637,-1.507 1.623,-2.637 0.84,-0.986 1.884,-1.623 1.043,-0.638 1.97,-0.638 0.638,0 1.102,0.348 0.492,0.377 0.492,1.072 0,0.725 -0.55,1.594 -0.55,0.87 -1.565,1.623 -0.435,0.319 -1.102,0.609 -0.666,0.29 -1.333,0.492 -0.666,0.174 -1.101,0.174 -0.145,0.348 -0.29,0.928 -0.116,0.58 -0.116,1.188 0,0.724 0.29,1.304 0.29,0.58 1.072,0.58 0.957,0 1.74,-0.55 0.782,-0.552 1.39,-1.363 0.609,-0.84 1.015,-1.68 0.434,-0.841 0.695,-1.421 0.174,-0.406 0.464,-0.406 0.145,0 0.145,0.145 0,0.116 -0.087,0.29 -0.406,0.87 -0.87,1.855 -0.463,0.956 -1.1,1.826 -0.638,0.84 -1.537,1.362 -0.87,0.521 -2.086,0.521 z m -0.521,-5.1 q 0.406,0 1.362,-0.29 0.956,-0.319 1.739,-0.986 0.753,-0.666 1.159,-1.449 0.406,-0.811 0.406,-1.362 0,-0.637 -0.464,-0.637 -0.348,0 -0.956,0.463 -0.609,0.464 -1.507,1.565 -0.551,0.696 -1.044,1.507 -0.493,0.811 -0.695,1.189 z m 18.229,4.984 q -0.812,0 -1.45,-0.55 -0.637,-0.58 -0.637,-1.797 0,-0.956 0.348,-2.348 0.377,-1.42 0.898,-2.927 0.551,-1.536 1.073,-2.782 h -1.536 q -0.203,0 -0.203,-0.29 0,-0.145 0.058,-0.26 0.087,-0.116 0.232,-0.116 h 1.738 q 0.493,-1.102 1.044,-2.145 0.55,-1.043 1.072,-1.97 0.667,-1.16 1.42,-1.74 0.754,-0.58 1.304,-0.58 0.435,0 0.725,0.349 0.29,0.318 0.29,0.985 0,0.406 -0.174,1.13 -0.174,0.696 -0.55,1.478 l -0.58,1.16 q -0.348,0.753 -0.696,1.333 h 1.391 q 0.203,0 0.203,0.29 0,0.115 -0.058,0.26 -0.058,0.116 -0.174,0.116 h -1.71 q -0.724,1.246 -1.652,2.434 -0.927,1.189 -2.202,2.377 -0.087,0.26 -0.232,0.753 -0.116,0.493 -0.232,1.015 -0.087,0.492 -0.174,0.84 l -0.058,0.348 q -0.087,0.377 -0.087,0.696 0,0.608 0.29,0.898 0.29,0.26 0.667,0.26 0.231,0 0.463,-0.057 0.232,-0.087 0.522,-0.29 1.014,-0.724 1.768,-1.97 0.782,-1.247 1.362,-2.406 0.174,-0.348 0.348,-0.348 0.116,0 0.116,0.174 0,0.087 -0.087,0.319 -0.638,1.333 -1.073,2.144 -0.434,0.812 -0.84,1.363 -0.406,0.521 -0.956,1.043 -0.406,0.406 -0.928,0.608 -0.522,0.202 -1.043,0.203 z m 2.29,-11.07 h 1.477 q 0.406,-0.754 0.754,-1.479 0.377,-0.724 0.666,-1.449 0.203,-0.463 0.348,-1.043 0.145,-0.58 0.145,-0.898 0,-0.435 -0.203,-0.435 -0.145,0 -0.435,0.26 -0.26,0.233 -0.666,0.812 -0.522,0.725 -1.043,1.884 -0.493,1.13 -1.044,2.347 z m -1.884,4.55 q 0.84,-0.87 1.565,-1.855 0.753,-0.986 1.39,-2.03 h -1.361 q -0.464,1.073 -0.87,2.088 -0.406,1.014 -0.724,1.796 z m 7.201,6.52 q -1.101,0 -1.623,-0.724 -0.521,-0.754 -0.521,-1.826 0,-1.304 0.608,-2.724 0.58,-1.333 1.478,-2.435 0.899,-1.101 1.942,-1.768 1.043,-0.695 2.029,-0.695 1.101,0 1.623,0.724 0.521,0.725 0.521,1.826 0,1.333 -0.608,2.724 -0.348,0.783 -0.986,1.74 -0.637,0.927 -1.449,1.71 0.174,0.318 0.493,0.55 0.319,0.203 0.87,0.203 0.695,0 1.304,-0.58 0.637,-0.58 1.159,-1.391 0.521,-0.84 0.927,-1.681 0.406,-0.84 0.667,-1.362 0.087,-0.174 0.29,-0.174 0.115,0 0.173,0.116 0.058,0.087 -0.029,0.29 -0.173,0.434 -0.58,1.304 -0.405,0.84 -0.985,1.768 -0.58,0.898 -1.333,1.536 -0.753,0.637 -1.68,0.637 -0.638,0 -1.102,-0.202 -0.464,-0.232 -0.753,-0.551 -0.609,0.464 -1.218,0.724 -0.608,0.261 -1.217,0.261 z m 0.435,-0.637 q 0.783,0 1.68,-0.754 -0.23,-0.348 -0.347,-0.724 -0.116,-0.377 -0.116,-0.696 0,-0.522 0.232,-0.898 0.26,-0.377 0.783,-0.377 0.376,0 0.608,0.29 0.261,0.26 0.261,0.608 0,0.087 -0.029,0.174 0,0.058 -0.029,0.145 0.493,-0.667 0.927,-1.565 0.957,-2.058 0.957,-3.39 0,-0.667 -0.261,-1.044 -0.26,-0.377 -0.783,-0.377 -0.608,0 -1.333,0.522 -0.695,0.522 -1.362,1.391 -0.637,0.87 -1.13,1.942 -0.464,0.985 -0.754,1.912 -0.26,0.899 -0.26,1.565 0,0.58 0.231,0.928 0.232,0.348 0.725,0.348 z m 16.316,0.782 q 1.072,-2.058 2.029,-4.115 0.956,-2.087 1.941,-3.942 0.58,-1.043 0.957,-1.449 0.406,-0.434 1.072,-0.434 0.232,0 0.493,0.087 0.26,0.057 0.521,0.057 0.174,0 0.261,-0.028 -0.405,0.231 -1.043,1.159 -0.638,0.898 -1.304,2.086 -0.666,1.188 -1.188,2.232 0.55,-0.667 1.13,-1.333 0.608,-0.667 1.333,-1.275 0.638,-0.551 1.333,-1.189 0.725,-0.666 1.42,-1.13 0.695,-0.464 1.217,-0.464 0.203,0 0.261,0.03 0.55,0.231 0.55,0.753 0,0.174 -0.144,0.522 -0.377,0.985 -0.985,2.028 -0.58,1.015 -1.102,2.058 0.435,-0.522 1.073,-1.275 0.666,-0.754 1.333,-1.333 0.637,-0.58 1.623,-1.218 0.985,-0.637 1.941,-1.1 0.956,-0.463 1.536,-0.465 0.203,0 0.29,0.03 l -0.319,0.58 q -0.318,0.55 -0.811,1.477 -0.464,0.898 -0.956,1.942 -0.493,1.014 -0.899,1.97 -0.377,0.928 -0.493,1.565 -0.086,0.377 -0.086,0.696 0,0.464 0.173,0.609 0.174,0.145 0.377,0.145 0.58,0 1.188,-0.61 0.609,-0.608 1.16,-1.448 0.58,-0.87 1.014,-1.681 0.435,-0.84 0.637,-1.275 0.174,-0.32 0.348,-0.32 0.174,0 0.174,0.233 0,0.145 -0.087,0.319 -0.348,0.666 -0.84,1.594 -0.464,0.927 -1.073,1.825 -0.608,0.87 -1.362,1.478 -0.724,0.58 -1.565,0.58 -0.608,0 -1.246,-0.406 -0.608,-0.405 -0.608,-1.507 0,-0.608 0.26,-1.478 0.203,-0.58 0.609,-1.333 0.435,-0.753 1.043,-1.739 0.29,-0.492 0.29,-0.782 0,-0.348 -0.348,-0.348 -0.29,0 -0.811,0.29 -0.493,0.29 -1.246,1.014 -0.464,0.435 -1.102,1.217 -0.608,0.754 -1.246,1.652 -0.638,0.898 -1.101,1.768 -0.463,0.87 -0.609,1.536 -0.434,0 -0.695,-0.348 -0.261,-0.376 -0.261,-0.87 v -0.173 q 0,-0.087 0.029,-0.203 0.145,-0.898 0.464,-1.68 0.319,-0.782 0.724,-1.624 0.319,-0.608 0.638,-1.304 0.319,-0.724 0.319,-1.101 0,-0.232 -0.174,-0.232 -0.203,0 -0.667,0.319 -0.464,0.29 -1.275,1.043 -0.725,0.696 -1.768,2 -1.014,1.304 -2.232,3.71 -0.173,0.318 -0.405,0.405 -0.232,0.058 -0.725,0.058 h -0.521 q -0.232,0.029 -0.464,0.145 z m 15.375,9.1 q -1.507,0 -2.145,-0.608 -0.637,-0.58 -0.637,-1.392 0,-0.434 0.116,-0.753 0.116,-0.319 0.348,-0.811 0.405,-0.84 1.13,-1.45 0.724,-0.608 1.565,-0.985 1.507,-0.695 3.42,-1.13 1.941,-0.435 3.71,-0.957 0.55,-0.956 1.014,-2.173 0.463,-1.246 0.84,-2.406 0.377,-1.188 0.609,-1.941 -0.348,0.637 -0.899,1.565 -0.521,0.898 -1.188,1.768 -0.666,0.869 -1.449,1.449 -0.754,0.58 -1.594,0.58 -0.319,0 -0.782,-0.146 -0.435,-0.145 -0.783,-0.521 -0.319,-0.406 -0.319,-1.188 0,-0.754 0.348,-1.45 0.377,-0.724 0.696,-1.39 -0.087,0 -0.203,-0.059 -0.087,-0.058 -0.087,-0.174 0,-0.115 0.058,-0.231 0.116,-0.232 0.26,-0.493 0.146,-0.26 0.261,-0.55 0.435,-0.9 0.87,-1.71 0.435,-0.841 0.753,-1.479 0.32,-0.637 1.102,-0.637 h 1.796 q -0.202,0.174 -0.521,0.406 -0.29,0.202 -0.55,0.637 -0.783,1.333 -1.363,2.58 -0.58,1.217 -1.246,2.608 -0.319,0.666 -0.464,1.217 -0.145,0.55 -0.145,0.956 0,0.957 0.638,0.957 0.695,0 1.68,-1.13 0.812,-0.957 1.624,-2.261 0.84,-1.333 1.594,-2.724 0.782,-1.42 1.362,-2.609 0.319,-0.637 1.13,-0.637 h 1.594 q -0.84,0.58 -1.304,1.507 -0.435,0.927 -0.986,2.376 -0.608,1.594 -1.159,3.304 -0.521,1.681 -1.188,3.391 0.956,-0.319 2.145,-0.985 1.217,-0.667 2.057,-1.913 0.667,-0.986 1.13,-1.884 0.493,-0.927 0.696,-1.333 0.116,-0.29 0.319,-0.29 0.203,0 0.203,0.261 0,0.145 -0.087,0.319 -0.754,1.507 -1.362,2.55 -0.58,1.014 -1.304,1.768 -0.696,0.724 -1.71,1.275 -1.015,0.58 -2.58,1.16 -0.695,1.246 -1.594,2.579 -0.869,1.362 -2,2.521 -1.1,1.188 -2.463,1.913 -1.333,0.753 -2.956,0.753 z m -0.696,-0.58 q 0.957,0 1.971,-0.579 1.014,-0.58 1.97,-1.478 0.957,-0.87 1.74,-1.797 0.811,-0.898 1.304,-1.594 0.145,-0.203 0.319,-0.521 0.174,-0.32 0.348,-0.61 -1.42,0.378 -3.13,0.812 -1.681,0.464 -2.928,1.015 -1.39,0.58 -2.173,1.652 -0.812,1.072 -0.812,1.912 0,0.522 0.348,0.84 0.319,0.349 1.043,0.349 z m 29.793,-7.535 q -0.637,0 -1.246,-0.086 -1.826,-0.232 -2.695,-1.073 -0.84,-0.84 -0.84,-1.826 0,-1.072 0.956,-1.941 0.985,-0.87 2.753,-0.87 0.55,0 1.16,0.116 0.637,0.087 1.333,0.319 0.347,0.116 0.347,0.319 0,0.116 -0.174,0.116 -0.174,0 -0.29,-0.058 -0.463,-0.174 -0.898,-0.232 -0.406,-0.087 -0.782,-0.087 -1.247,0 -1.913,0.724 -0.638,0.696 -0.638,1.536 0,0.812 0.667,1.478 0.666,0.667 2.115,0.667 1.826,0 3.362,-0.84 1.565,-0.84 2.956,-2.203 1.478,-1.45 2.696,-3.478 1.217,-2.057 2.405,-4.376 1.217,-2.347 2.637,-4.724 1.42,-2.376 3.275,-4.463 0.377,-0.406 0.754,-0.84 0.405,-0.464 0.782,-0.783 -0.985,-0.145 -2.029,-0.203 -1.043,-0.087 -2.057,-0.087 -1.507,0 -2.87,0.145 -1.332,0.116 -2.666,0.348 -1.362,0.26 -3.043,0.812 -1.681,0.552 -3.275,1.449 -1.565,0.869 -2.695,2.115 -1.101,1.246 -1.362,2.87 -0.029,0.144 -0.058,0.318 v 0.29 q 0,1.333 0.899,2.203 0.927,0.869 2.144,0.869 0.899,0 1.74,-0.464 0.84,-0.492 1.506,-1.275 0.667,-0.811 0.985,-1.768 0.03,-0.29 0.232,-0.29 0.174,0 0.174,0.32 -0.029,1.274 -0.753,2.202 -0.696,0.927 -1.768,1.42 -1.073,0.464 -2.174,0.464 -1.13,0 -2.144,-0.464 -1.015,-0.493 -1.652,-1.42 -0.638,-0.957 -0.638,-2.348 0,-1.623 0.783,-2.869 0.811,-1.246 2.144,-2.173 1.333,-0.957 2.898,-1.594 1.565,-0.667 3.13,-1.044 1.565,-0.406 2.84,-0.608 1.305,-0.203 2.696,-0.32 1.42,-0.115 2.869,-0.115 1.246,0 2.492,0.116 1.246,0.116 2.435,0.348 0.492,-0.377 1.014,-0.667 0.522,-0.29 1.16,-0.522 0.405,-0.174 0.608,-0.174 0.174,0 0.174,0.116 0,0.203 -0.464,0.493 -0.232,0.116 -0.58,0.406 -0.348,0.29 -0.753,0.666 1.884,0.464 3.39,1.391 1.652,0.986 2.348,2.087 0.725,1.101 0.725,2.26 0,1.334 -0.812,2.667 -0.811,1.304 -2.116,2.434 -1.304,1.13 -2.869,1.971 -1.565,0.811 -3.1,1.188 -1.479,0.377 -2.986,0.55 -1.507,0.175 -2.695,0.175 h -0.435 q -0.203,0 -0.405,-0.03 -0.986,1.392 -2.03,2.725 -1.042,1.304 -2.347,2.55 -1.594,1.507 -3.477,2.29 -1.884,0.782 -3.855,0.782 z m 12.114,-8.984 q 1.102,0.03 2.464,-0.174 1.362,-0.202 2.724,-0.608 2.26,-0.696 4.057,-2 1.826,-1.304 2.87,-2.898 1.072,-1.594 1.072,-3.13 0,-0.927 -0.464,-1.768 -0.435,-0.84 -1.449,-1.507 -0.666,-0.435 -1.507,-0.753 -0.84,-0.32 -1.768,-0.522 -1.478,2.087 -2.782,4.347 -1.275,2.26 -2.55,4.55 -1.246,2.29 -2.667,4.463 z m 12.245,7.854 q -1.1,0 -1.622,-0.724 -0.522,-0.754 -0.522,-1.826 0,-1.304 0.609,-2.724 0.58,-1.333 1.478,-2.435 0.898,-1.101 1.941,-1.768 1.044,-0.695 2.029,-0.695 1.101,0 1.623,0.724 0.522,0.725 0.522,1.826 0,1.333 -0.61,2.724 -0.347,0.783 -0.984,1.74 -0.638,0.927 -1.45,1.71 0.174,0.318 0.493,0.55 0.319,0.203 0.87,0.203 0.695,0 1.304,-0.58 0.637,-0.58 1.159,-1.391 0.522,-0.84 0.927,-1.681 0.406,-0.84 0.667,-1.362 0.087,-0.174 0.29,-0.174 0.116,0 0.174,0.116 0.058,0.087 -0.03,0.29 -0.173,0.434 -0.579,1.304 -0.406,0.84 -0.985,1.768 -0.58,0.898 -1.333,1.536 -0.754,0.637 -1.681,0.637 -0.638,0 -1.102,-0.202 -0.463,-0.232 -0.753,-0.551 -0.609,0.464 -1.217,0.724 -0.609,0.261 -1.218,0.261 z m 0.435,-0.637 q 0.783,0 1.681,-0.754 -0.232,-0.348 -0.348,-0.724 -0.116,-0.377 -0.116,-0.696 0,-0.522 0.232,-0.898 0.261,-0.377 0.783,-0.377 0.377,0 0.608,0.29 0.261,0.26 0.261,0.608 0,0.087 -0.029,0.174 0,0.058 -0.029,0.145 0.493,-0.667 0.928,-1.565 0.956,-2.058 0.956,-3.39 0,-0.667 -0.26,-1.044 -0.262,-0.377 -0.783,-0.377 -0.609,0 -1.333,0.522 -0.696,0.521 -1.363,1.39 -0.637,0.87 -1.13,1.943 -0.464,0.985 -0.753,1.912 -0.261,0.899 -0.261,1.565 0,0.58 0.232,0.928 0.232,0.348 0.724,0.348 z m 13.143,0.666 q -0.55,0 -1.101,-0.435 -0.55,-0.463 -0.55,-1.478 0,-0.782 0.376,-1.796 0.348,-0.986 0.927,-1.913 0.609,-0.928 0.87,-1.507 0.087,-0.232 0.087,-0.406 0,-0.522 -0.667,-0.753 -0.637,-0.232 -1.68,-0.261 l -0.348,0.956 q -0.32,0.928 -0.899,2.174 -0.55,1.246 -1.246,2.405 -0.667,1.16 -1.391,1.855 -0.058,0.058 -0.145,0.058 -0.116,0 -0.145,-0.145 -0.058,-0.145 0.116,-0.348 1.13,-1.507 2.029,-3.333 0.898,-1.854 1.507,-3.767 0.637,-1.913 0.927,-3.536 0.087,-0.464 0.319,-0.666 0.232,-0.232 0.492,-0.232 0.377,0 0.696,0.376 0.319,0.348 0.319,1.015 0,0.116 -0.03,0.26 0,0.145 -0.028,0.29 -0.116,0.609 -0.696,1.16 -0.55,0.521 -0.898,0.782 0.29,0.03 0.608,0.058 h 0.696 q 1.362,0 2.695,-0.174 0.058,0.174 0.058,0.261 0,0.377 -0.232,0.956 -0.202,0.58 -0.434,1.044 -0.116,0.26 -0.464,0.956 -0.348,0.667 -0.753,1.536 -0.406,0.84 -0.696,1.68 -0.26,0.812 -0.26,1.392 0,0.754 0.579,0.754 0.434,0 0.956,-0.551 0.522,-0.58 1.015,-1.391 0.521,-0.84 0.927,-1.623 0.435,-0.812 0.667,-1.275 0.115,-0.29 0.318,-0.29 0.116,0 0.116,0.203 0,0.116 -0.087,0.348 -0.318,0.666 -0.753,1.507 -0.435,0.84 -0.986,1.651 -0.521,0.812 -1.159,1.42 -0.608,0.58 -1.333,0.754 -0.087,0.029 -0.319,0.029 z m 7.347,-0.029 q -0.812,0 -1.45,-0.55 -0.637,-0.58 -0.637,-1.797 0,-0.957 0.348,-2.348 0.377,-1.42 0.898,-2.927 0.551,-1.536 1.073,-2.782 h -1.536 q -0.203,0 -0.203,-0.29 0,-0.145 0.058,-0.26 0.087,-0.117 0.232,-0.117 h 1.739 q 0.492,-1.1 1.043,-2.144 0.55,-1.044 1.072,-1.97 0.667,-1.16 1.42,-1.74 0.753,-0.58 1.305,-0.58 0.434,0 0.724,0.348 0.29,0.32 0.29,0.986 0,0.405 -0.174,1.13 -0.174,0.696 -0.55,1.478 l -0.58,1.16 q -0.348,0.753 -0.696,1.332 h 1.391 q 0.203,0 0.203,0.29 0,0.116 -0.058,0.26 -0.058,0.117 -0.174,0.117 h -1.71 q -0.724,1.246 -1.652,2.434 -0.928,1.188 -2.202,2.377 -0.087,0.26 -0.232,0.753 -0.116,0.493 -0.232,1.015 -0.087,0.492 -0.174,0.84 l -0.058,0.348 q -0.087,0.377 -0.087,0.695 0,0.609 0.29,0.899 0.29,0.26 0.667,0.26 0.232,0 0.463,-0.057 0.232,-0.087 0.522,-0.29 1.014,-0.725 1.768,-1.97 0.782,-1.247 1.362,-2.406 0.174,-0.348 0.348,-0.348 0.116,0 0.116,0.174 0,0.087 -0.087,0.319 -0.638,1.333 -1.073,2.144 -0.434,0.812 -0.84,1.362 -0.406,0.522 -0.956,1.044 -0.406,0.405 -0.928,0.608 -0.522,0.203 -1.043,0.203 z m 2.29,-11.07 h 1.477 q 0.406,-0.754 0.754,-1.479 0.377,-0.724 0.666,-1.449 0.203,-0.464 0.348,-1.043 0.145,-0.579 0.145,-0.899 0,-0.434 -0.203,-0.434 -0.145,0 -0.434,0.26 -0.261,0.232 -0.667,0.812 -0.522,0.724 -1.043,1.884 -0.493,1.13 -1.044,2.347 z m -1.884,4.55 q 0.84,-0.87 1.565,-1.856 0.753,-0.985 1.39,-2.028 h -1.361 q -0.464,1.072 -0.87,2.086 -0.406,1.015 -0.724,1.797 z m 2.362,16.692 q -0.638,0 -1.102,-0.319 -0.492,-0.318 -0.492,-1.246 0,-1.449 0.87,-3.941 0.868,-2.493 2.115,-5.478 -0.348,-0.58 -0.348,-1.217 0,-1.014 0.58,-1.39 0.492,-0.407 1.043,-0.32 1.043,-2.347 2.115,-4.608 1.073,-2.29 2.058,-4.318 1.015,-2.029 1.826,-3.565 0.493,-0.956 1.014,-1.478 0.55,-0.521 1.42,-0.521 0.261,0 0.609,0.116 0.377,0.087 0.666,0.058 -0.666,0.637 -1.68,2.144 -0.986,1.478 -2.145,3.536 -1.16,2.058 -2.376,4.463 -1.189,2.377 -2.29,4.84 0.26,0.348 0.522,0.927 0.29,0.58 0.405,1.247 0,0.086 0.03,0.202 l 0.057,0.174 q 0.667,0.03 1.276,-0.463 0.637,-0.493 1.188,-1.305 0.58,-0.811 1.043,-1.71 0.493,-0.898 0.84,-1.68 0.059,-0.116 0.146,-0.145 0.115,-0.058 0.173,-0.058 0.116,0 0.174,0.116 0.058,0.087 -0.029,0.29 -0.405,0.898 -0.898,1.883 -0.493,0.957 -1.101,1.797 -0.609,0.812 -1.305,1.333 -0.695,0.493 -1.478,0.493 0.03,0.203 0.03,0.406 v 0.463 q 0,1.507 -0.377,3.13 -0.348,1.623 -1.015,3.014 -0.666,1.391 -1.565,2.26 -0.898,0.87 -2,0.87 z m 4.115,-10.578 h 0.145 q -0.03,-0.753 -0.261,-1.304 -0.174,-0.406 -0.435,-0.696 -0.174,0.406 -0.319,0.754 -0.115,0.319 -0.29,0.724 0.261,0.522 1.16,0.522 z m -3.68,9.796 q 0.29,0 0.695,-0.348 0.406,-0.319 0.782,-0.84 0.725,-0.957 1.276,-2.348 0.55,-1.391 0.869,-2.898 0.319,-1.507 0.29,-2.811 h -0.145 q -0.058,0.029 -0.116,0.029 -0.377,0 -0.783,-0.145 -0.405,-0.145 -0.666,-0.348 -0.754,1.942 -1.391,3.826 -0.667,1.912 -1.014,3.361 -0.116,0.551 -0.174,0.957 -0.058,0.405 -0.058,0.695 0,0.87 0.434,0.87 z m 11.896,-9.39 q -1.101,0 -1.623,-0.725 -0.521,-0.753 -0.521,-1.825 0,-1.305 0.608,-2.725 0.58,-1.333 1.478,-2.434 0.899,-1.101 1.942,-1.768 1.043,-0.695 2.029,-0.695 1.101,0 1.623,0.724 0.521,0.725 0.521,1.826 0,1.333 -0.608,2.724 -0.348,0.783 -0.986,1.739 -0.637,0.927 -1.449,1.71 0.174,0.319 0.493,0.55 0.319,0.203 0.87,0.203 0.695,0 1.304,-0.58 0.637,-0.579 1.159,-1.39 0.521,-0.84 0.927,-1.681 0.406,-0.84 0.667,-1.362 0.087,-0.174 0.29,-0.174 0.115,0 0.173,0.116 0.058,0.087 -0.029,0.29 -0.173,0.434 -0.58,1.304 -0.405,0.84 -0.985,1.768 -0.58,0.898 -1.333,1.536 -0.753,0.637 -1.68,0.637 -0.638,0 -1.102,-0.203 -0.464,-0.232 -0.753,-0.55 -0.609,0.463 -1.218,0.724 -0.608,0.261 -1.217,0.261 z m 0.435,-0.638 q 0.783,0 1.68,-0.753 -0.23,-0.348 -0.347,-0.725 -0.116,-0.377 -0.116,-0.695 0,-0.522 0.232,-0.899 0.26,-0.376 0.783,-0.376 0.376,0 0.608,0.29 0.261,0.26 0.261,0.608 0,0.087 -0.029,0.174 0,0.058 -0.029,0.145 0.493,-0.667 0.927,-1.565 0.957,-2.058 0.957,-3.391 0,-0.667 -0.261,-1.043 -0.26,-0.377 -0.783,-0.377 -0.608,0 -1.333,0.522 -0.695,0.521 -1.362,1.39 -0.637,0.87 -1.13,1.942 -0.464,0.986 -0.754,1.913 -0.26,0.899 -0.26,1.565 0,0.58 0.231,0.928 0.232,0.347 0.725,0.347 z m 11.143,0.725 q -1.217,0 -1.652,-0.638 -0.435,-0.666 -0.435,-1.565 0,-0.927 0.261,-1.913 0.261,-0.986 0.464,-1.651 0.464,-1.623 1.16,-3.45 0.724,-1.854 1.564,-3.622 0.87,-1.797 1.71,-3.217 0.667,-1.13 1.42,-1.68 0.783,-0.58 1.362,-0.58 0.464,0 0.725,0.347 0.29,0.32 0.29,0.986 0,0.464 -0.174,1.101 -0.145,0.638 -0.522,1.45 -1.014,2.26 -2.434,4.52 -1.391,2.26 -3.536,4.232 -0.116,0.376 -0.319,0.898 -0.174,0.493 -0.319,1.014 -0.174,0.783 -0.174,1.333 0,0.899 0.348,1.363 0.377,0.434 0.899,0.434 0.463,0 0.985,-0.319 0.522,-0.347 0.985,-0.985 0.696,-1.014 1.247,-2.058 0.58,-1.072 0.869,-1.651 0.174,-0.32 0.377,-0.32 0.145,0 0.145,0.175 0,0.145 -0.087,0.318 -0.261,0.58 -0.696,1.507 -0.406,0.899 -1.043,1.826 -0.609,0.899 -1.478,1.536 -0.84,0.609 -1.942,0.609 z m 0.435,-6.608 q 1.043,-1.072 2.028,-2.463 0.986,-1.42 1.826,-2.927 0.87,-1.536 1.45,-2.898 0.202,-0.435 0.318,-0.957 0.145,-0.522 0.145,-0.87 0,-0.405 -0.203,-0.405 -0.116,0 -0.348,0.232 -0.231,0.203 -0.608,0.724 -0.55,0.725 -1.217,1.971 -0.638,1.246 -1.305,2.666 -0.667,1.42 -1.217,2.754 -0.55,1.304 -0.87,2.173 z m 9.346,-5.245 q -0.435,0 -0.724,-0.29 -0.261,-0.32 -0.261,-0.754 0,-0.55 0.434,-0.956 0.435,-0.406 0.957,-0.406 0.464,0 0.753,0.29 0.29,0.29 0.29,0.695 0,0.551 -0.435,0.986 -0.435,0.435 -1.014,0.435 z m -2.347,11.766 q -1.073,0 -1.507,-0.61 -0.435,-0.637 -0.435,-1.448 0,-0.435 0.087,-0.87 0.116,-0.463 0.26,-0.84 l 1.942,-4.956 q 0.087,-0.232 0.087,-0.406 0,-0.29 -0.145,-0.492 -0.145,-0.232 -0.203,-0.32 l 1.594,-0.057 q 0.435,-0.029 0.61,0.116 0.202,0.116 0.202,0.29 0,0.174 -0.203,0.637 l -2.405,5.652 -0.174,0.376 q -0.145,0.348 -0.174,0.464 -0.087,0.435 -0.116,0.55 -0.029,0.117 -0.029,0.146 v 0.231 q 0,0.377 0.174,0.638 0.203,0.26 0.666,0.26 0.29,0 0.667,-0.173 0.377,-0.174 0.55,-0.348 0.725,-0.753 1.42,-1.97 0.725,-1.247 1.334,-2.464 0.116,-0.29 0.29,-0.29 0.145,0 0.145,0.203 0,0.116 -0.087,0.348 -0.29,0.609 -0.725,1.507 -0.435,0.898 -1.043,1.797 -0.58,0.87 -1.275,1.449 -0.695,0.579 -1.507,0.58 z m 7.404,0 q -1.101,0 -1.623,-0.725 -0.521,-0.754 -0.521,-1.826 0,-1.304 0.608,-2.724 0.58,-1.333 1.478,-2.434 0.899,-1.102 1.942,-1.768 1.043,-0.696 2.029,-0.696 1.101,0 1.623,0.725 0.521,0.724 0.521,1.825 0,1.334 -0.608,2.725 -0.348,0.782 -0.986,1.739 -0.637,0.927 -1.449,1.71 0.174,0.318 0.493,0.55 0.319,0.203 0.87,0.203 0.695,0 1.304,-0.58 0.637,-0.58 1.159,-1.39 0.521,-0.841 0.927,-1.682 0.406,-0.84 0.667,-1.362 0.087,-0.174 0.29,-0.174 0.116,0 0.173,0.116 0.058,0.087 -0.029,0.29 -0.173,0.435 -0.58,1.304 -0.405,0.84 -0.985,1.768 -0.58,0.899 -1.333,1.536 -0.753,0.638 -1.68,0.638 -0.638,0 -1.102,-0.203 -0.464,-0.232 -0.753,-0.55 -0.609,0.463 -1.218,0.724 -0.608,0.26 -1.217,0.26 z m 0.435,-0.638 q 0.783,0 1.681,-0.754 -0.232,-0.347 -0.348,-0.724 -0.116,-0.377 -0.116,-0.696 0,-0.521 0.232,-0.898 0.26,-0.377 0.783,-0.377 0.376,0 0.608,0.29 0.261,0.26 0.261,0.609 0,0.087 -0.029,0.173 0,0.058 -0.029,0.145 0.493,-0.666 0.927,-1.565 0.957,-2.057 0.957,-3.39 0,-0.667 -0.261,-1.044 -0.26,-0.376 -0.782,-0.376 -0.61,0 -1.334,0.521 -0.695,0.522 -1.362,1.391 -0.637,0.87 -1.13,1.942 -0.464,0.985 -0.754,1.913 -0.26,0.898 -0.26,1.565 0,0.58 0.232,0.927 0.231,0.348 0.724,0.348 z"
     fill="url(#a)"
     fill-rule="evenodd"
     opacity="0.875"
     stroke="#ffffff"
     stroke-linecap="round"
     stroke-width="0.388"
     aria-label="Welcome to my Portfolio"
     id="path4"
     style="fill:url(#a)" />
</svg>
