<?xml version="1.0" encoding="UTF-8" standalone="no"?><svg width="400" height="100" viewBox="0 0 105.83333 26.458332" version="1.1" id="svg1" xml:space="preserve" inkscape:version="1.3.2 (091e20e, 2023-11-25, custom)" sodipodi:docname="banner-small.svg" inkscape:export-filename="GitHub-Logo.png" inkscape:export-xdpi="600" inkscape:export-ydpi="600" xmlns:inkscape="http://www.inkscape.org/namespaces/inkscape" xmlns:sodipodi="http://sodipodi.sourceforge.net/DTD/sodipodi-0.dtd" xmlns="http://www.w3.org/2000/svg" xmlns:svg="http://www.w3.org/2000/svg"><sodipodi:namedview id="namedview1" pagecolor="#505050" bordercolor="#eeeeee" borderopacity="1" inkscape:showpageshadow="0" inkscape:pageopacity="0" inkscape:pagecheckerboard="0" inkscape:deskcolor="#505050" inkscape:document-units="mm" inkscape:zoom="2.1089995" inkscape:cx="245.85117" inkscape:cy="132.05313" inkscape:window-width="1920" inkscape:window-height="1017" inkscape:window-x="1912" inkscape:window-y="-8" inkscape:window-maximized="1" inkscape:current-layer="g1" /><defs id="defs1" /><g inkscape:label="Livello 1" inkscape:groupmode="layer" id="layer1"><g inkscape:label="Image" id="g1" transform="matrix(0.26458333,0,0,0.26458333,82.629839,126.275)"><g id="g8" transform="matrix(-1.0769871,-0.52259263,-0.52259263,1.0769871,145.31643,185.79931)" style="fill:#ffa500;fill-opacity:1" /><g id="g25" transform="matrix(0.49456933,0,0,0.49456933,-234.02176,-424.56718)"><ellipse style="fill:none;fill-opacity:1;fill-rule:nonzero;stroke:#ce8500;stroke-width:1.91398;stroke-linecap:round;stroke-dasharray:none;stroke-opacity:1" id="path8" cx="246.11313" cy="-45.883694" rx="53.054913" ry="52.516285" /><g id="g7" transform="matrix(-0.78896861,0.04654046,0.04654046,0.78896861,297.69506,-4.4574042)" style="fill:#ffa500;fill-opacity:1"><path id="path4" style="opacity:1;fill:#ffa500;fill-opacity:1;fill-rule:evenodd;stroke-width:5.08346;stroke-linecap:round" d="m 70.81664,-13.702814 a 1.5257286,1.5257286 0 0 1 -1.525728,1.52573 1.5257286,1.5257286 0 0 1 -1.525729,-1.52573 1.5257286,1.5257286 0 0 1 1.525729,-1.52573 1.5257286,1.5257286 0 0 1 1.525728,1.52573 z" /><path id="path5" style="opacity:1;fill:#ffa500;fill-opacity:1;fill-rule:evenodd;stroke-width:5.08346;stroke-linecap:round" d="m 74.719671,-13.596364 a 0.92253357,0.92253357 0 0 1 -0.922534,0.92253 0.92253357,0.92253357 0 0 1 -0.922533,-0.92253 0.92253357,0.92253357 0 0 1 0.922533,-0.92254 0.92253357,0.92253357 0 0 1 0.922534,0.92254 z" /><path id="path6" style="opacity:1;fill:#ffa500;fill-opacity:1;fill-rule:evenodd;stroke-width:5.08346;stroke-linecap:round" d="m 65.483868,-16.207874 a 1.2043011,1.2043011 0 0 1 -1.204301,1.2043 1.2043011,1.2043011 0 0 1 -1.204301,-1.2043 1.2043011,1.2043011 0 0 1 1.204301,-1.2043 1.2043011,1.2043011 0 0 1 1.204301,1.2043 z" /></g><path d="m 236.47199,-11.348569 -3.44798,-0.05434 c -2.03813,-0.259401 -3.90953,-0.852314 -5.61416,-1.778745 -1.70464,-0.889379 -3.18693,-1.982562 -4.44687,-3.279569 -1.22289,-1.297 -2.18638,-2.760766 -2.89047,-4.391285 -0.66703,-1.59346 -1.00054,-3.223978 -1.00054,-4.891555 0,-0.815256 0.0741,-1.778745 0.22234,-2.890461 0.18528,-1.111722 0.3891,-2.223437 0.61144,-3.335153 0.22234,-1.148774 0.40764,-2.204905 0.55586,-3.168394 0.18529,-1.000548 0.27793,-1.797278 0.27793,-2.39019 0,-0.889373 -0.20381,-1.76022 -0.61145,-2.61254 -0.37057,-0.852315 -0.92642,-1.630519 -1.66757,-2.334606 -0.70409,-0.74114 -1.59346,-1.352585 -2.66812,-1.834336 -2.15112,-0.971544 -4.53651,-1.280508 -6.8318,-1.778309 2.29011,-0.659312 4.70345,-0.793383 6.88738,-1.779181 1.03761,-0.518803 1.90845,-1.130248 2.61254,-1.834336 0.74115,-0.741146 1.297,-1.537876 1.66757,-2.39019 0.40764,-0.889372 0.61145,-1.778751 0.61145,-2.668124 0,-0.592913 -0.0926,-1.371117 -0.27793,-2.334606 -0.14822,-0.963489 -0.33352,-2.001088 -0.55586,-3.11281 -0.22234,-1.111716 -0.42616,-2.223431 -0.61144,-3.335153 -0.14823,-1.111716 -0.22234,-2.093731 -0.22234,-2.946045 0,-1.704635 0.33351,-3.353686 1.00054,-4.947146 0.70409,-1.59346 1.66758,-3.038694 2.89047,-4.335694 1.25994,-1.297007 2.74223,-2.39019 4.44687,-3.279563 1.70463,-0.889379 3.57603,-1.482298 5.61416,-1.778758 l 3.32315,-0.0053 c -3.3162,1.506648 -7.10357,1.997662 -9.71552,4.729999 -1.33406,1.556408 -2.00109,3.279569 -2.00109,5.169489 0,0.667036 0.0741,1.51935 0.22234,2.556949 0.18529,1.037606 0.38911,2.130796 0.61145,3.279569 0.22235,1.111716 0.40763,2.223432 0.55586,3.335154 0.18529,1.074657 0.27793,2.001088 0.27793,2.779292 0,1.259942 -0.24088,2.519891 -0.72262,3.77984 -0.44469,1.222884 -1.13024,2.39019 -2.05668,3.501905 -0.88937,1.111716 -2.01962,2.149322 -3.39074,3.112811 -1.37111,0.92643 -2.96457,1.723161 -4.78038,2.39019 1.77875,0.667029 3.35368,1.482292 4.7248,2.445781 1.37112,0.963489 2.50137,2.01962 3.39074,3.168394 0.92643,1.148774 1.63052,2.353132 2.11226,3.613081 0.48174,1.259949 0.72262,2.501358 0.72262,3.724249 0,0.778204 -0.0926,1.704635 -0.27793,2.779292 -0.14823,1.074664 -0.33351,2.186379 -0.55586,3.335153 -0.22234,1.148774 -0.42616,2.223438 -0.61145,3.223979 -0.14822,1.037605 -0.22234,1.88992 -0.22234,2.556956 0,1.889919 0.66703,3.61308 2.00109,5.169482 2.60968,2.684524 6.43302,3.517976 9.84035,4.835067 z" id="text1" style="font-size:684.152px;line-height:113.22%;font-family:'Microsoft Himalaya';-inkscape-font-specification:'Microsoft Himalaya, Normal';letter-spacing:3.58px;fill:#ffa500;fill-opacity:1;fill-rule:evenodd;stroke:#ffffff;stroke-width:0.0973181;stroke-linecap:round;stroke-dasharray:none" aria-label="{" sodipodi:nodetypes="cccccscccsccccsscscscsccscccscccsccccscsscscscc" /><g id="g3" transform="matrix(0.57398779,-0.32623874,0.32623874,0.57398779,173.41959,-57.497432)"><g id="g4" transform="rotate(30.397075,111.79446,87.921985)"><g id="g6" transform="rotate(28.388681,111.07912,86.839377)"><path id="path1" style="fill:#ffa500;fill-opacity:1;fill-rule:evenodd;stroke-width:5.08327;stroke-linecap:round" d="m 116.54595,54.760384 -0.0454,13.242739 -8.80201,-0.246426 0.14928,-13.221433 c 0.35689,-24.856026 8.49863,-24.104931 8.69813,0.22512 z" sodipodi:nodetypes="sccss" /><path id="rect1-5" style="fill:#ffa500;fill-opacity:1;fill-rule:evenodd;stroke-width:7.59181;stroke-linecap:round" d="m 107.4951,98.696055 0.099,-20.328252 8.81298,0.174068 -0.10151,20.173644 z" sodipodi:nodetypes="ccccc" /><path id="rect1-8" style="fill:#ffa500;fill-opacity:1;fill-rule:evenodd;stroke-width:4.59977;stroke-linecap:round" d="m 107.3232,111.45487 0.0705,-7.67828 8.87205,0.12067 -0.0489,7.66205 z" sodipodi:nodetypes="ccccc" /><path id="rect1-4" style="fill:#ffa500;fill-opacity:1;fill-rule:evenodd;stroke-width:2.32506;stroke-linecap:round" d="m 107.42386,102.20208 0.0194,-2.02633 8.8618,0.11477 -0.005,2.02523 z" sodipodi:nodetypes="ccccc" /><g id="g5" transform="translate(-0.26626652,-2.1302677)"><path id="path2" style="fill:#ffa500;fill-opacity:1;fill-rule:evenodd;stroke-width:5.08327;stroke-linecap:round" d="m 107.84298,139.62633 c -1.68832,0.31679 0.61325,-3.98943 -0.37303,-9.7602 -0.24239,-1.41826 -1.3161,-3.10265 -1.77886,-4.70129 -0.62363,-2.15444 -0.77252,-3.76715 -0.35027,-5.67292 0.20172,-0.91043 2.88098,-6.40685 6.5274,-4.92924 0.63536,0.25746 -2.26957,2.74772 -1.21974,8.00027 0.68259,3.41518 1.25217,8.95809 -0.2711,12.59053 -0.81767,1.94982 -0.99951,4.18485 -2.5344,4.47285 z" sodipodi:nodetypes="ssssssss" /><path id="path3" style="fill:#ffa500;fill-opacity:1;fill-rule:evenodd;stroke-width:5.08327;stroke-linecap:round" d="m 109.84648,139.33442 c -0.37732,-0.27292 1.14382,-2.76246 1.94487,-6.06952 0.22007,-0.90854 0.27904,-1.86797 0.32902,-2.87768 0.033,-0.66691 0.11036,-1.37325 0.0554,-2.03886 -0.10539,-1.27687 -0.24044,-3.07324 -0.5429,-4.90108 -0.25373,-1.53335 -0.4413,-3.02614 -0.27939,-4.3063 0.23956,-1.89423 0.91097,-3.32502 1.60206,-4.34765 0.21068,-0.31176 6.1118,0.29339 5.48525,8.34458 -1.0192,4.1982 -3.10139,12.32698 -6.03378,14.67346 -0.78579,0.62878 -1.66267,2.17248 -2.56055,1.52305 z" sodipodi:nodetypes="ssssssscss" /></g><rect style="fill:#ffa500;fill-opacity:1;fill-rule:evenodd;stroke-width:5.40489;stroke-linecap:round" id="rect7" width="8.8140516" height="7.3282442" x="108.18245" y="68.028915" transform="matrix(0.99991189,0.01327454,-0.00753697,0.9999716,0,0)" /></g></g></g></g><path d="m -202.92153,-379.70983 q -1.32639,0 -2.26266,-0.3511 -1.48245,-0.54617 -2.14564,-1.28739 -0.70221,-0.7022 -0.70221,-1.52145 0,-1.05332 1.05331,-2.22366 1.01431,-1.13133 2.84784,-2.22366 1.83355,-1.05331 4.21326,-1.87256 2.3797,-0.78023 5.0715,-1.17035 1.20936,-0.19506 2.65279,-0.31209 1.48244,-0.11703 2.96488,-0.23406 1.52145,-0.078 2.73081,-0.078 1.44343,-2.45773 2.34069,-4.64238 0.93629,-2.18465 1.6385,-5.03249 l 0.15604,-0.62419 q -0.74122,0.70221 -2.10662,1.71651 -1.32639,0.97529 -3.12094,1.98959 -1.75551,0.97529 -3.78412,1.63849 -1.98959,0.66319 -4.09621,0.66319 -1.63849,0 -3.15994,-0.50714 -1.63849,-0.58518 -2.96489,-1.95058 -1.28737,-1.40442 -2.0676,-3.43302 -0.74122,-2.06762 -0.74122,-4.56435 0,-1.83355 0.46813,-3.90116 0.46815,-2.10663 1.52146,-4.29128 -1.20936,-1.24837 -1.91157,-2.76983 -0.6632,-1.52144 -0.6632,-3.12092 0,-1.40442 0.58518,-2.76982 0.58517,-1.40442 1.83355,-2.6918 0.35109,-0.39012 0.66319,-0.39012 0.15605,0 0.15605,0.15605 0,0.23407 -0.27309,0.54617 -0.89727,1.09232 -1.32639,2.30168 -0.42912,1.20935 -0.42912,2.41872 0,1.3654 0.50715,2.6918 0.54616,1.32639 1.52145,2.45773 0.19505,-0.39012 0.39011,-0.78024 0.23407,-0.39011 0.46814,-0.78023 1.87255,-3.0429 4.56435,-5.22755 2.73081,-2.18465 5.81273,-3.355 3.08191,-1.20936 6.00779,-1.20936 0.50714,0 0.97528,0.039 0.50715,0.039 1.01431,0.11704 3.78412,0.58517 5.65667,2.53575 1.87256,1.95057 1.87256,4.36929 0,1.6775 -0.93628,3.355 -0.89727,1.6775 -2.76982,3.08192 -1.83355,1.40441 -4.60337,2.26266 -2.73081,0.85826 -6.35889,0.93629 -2.84784,0.039 -5.61766,-0.70222 -2.76982,-0.78023 -4.68139,-2.0286 -0.97529,2.06762 -1.44343,4.05721 -0.42913,1.95057 -0.42913,3.66709 0,2.88685 1.20936,4.95446 1.20936,2.06762 3.355,2.76983 0.62418,0.19506 1.24837,0.27308 0.6632,0.078 1.28738,0.078 1.75552,0 3.51104,-0.50716 1.79453,-0.54616 3.31599,-1.40441 1.52145,-0.85826 2.57476,-1.79453 1.09232,-0.97529 1.44343,-1.79454 0.89726,-2.0286 1.75552,-2.80883 0.89727,-0.81925 1.59947,-0.81925 0.58518,0 0.97529,0.54617 0.42914,0.50715 0.3121,1.40441 -0.39012,3.23797 -1.79454,6.28087 -1.3654,3.0429 -3.55005,6.59296 2.65279,0.039 4.75942,0.27308 2.14563,0.27307 3.86214,0.70221 0.46813,0.11703 0.62419,0.27307 0.19506,0.19506 0.19506,0.3121 0,0.27307 -0.46815,0.27307 -0.23406,0 -0.6632,-0.11702 -0.89726,-0.23407 -2.3797,-0.42914 -1.48244,-0.15604 -3.19895,-0.23406 -1.6775,-0.078 -3.23796,-0.078 -1.63849,2.34069 -3.90116,4.21324 -2.22366,1.91157 -4.7204,3.27698 -2.49674,1.3654 -4.91546,2.06761 -2.37971,0.74122 -4.29128,0.74122 z m 12.21063,-31.20926 q 0.42913,0 0.85826,0 0.42912,-0.039 0.85825,-0.078 3.94017,-0.39012 6.67098,-1.79453 2.76982,-1.44343 4.17424,-3.39401 1.44343,-1.95058 1.44343,-3.82314 0,-1.83354 -1.40442,-3.23796 -1.36541,-1.44343 -4.21325,-1.87255 -0.39012,-0.078 -0.6632,-0.078 -0.23406,0 -0.66319,0 -2.53576,0 -5.26657,1.20936 -2.6918,1.20936 -5.14952,3.39401 -2.41872,2.14563 -4.17425,4.99348 -0.42912,0.74122 -0.66319,1.13134 -0.23407,0.39011 -0.54617,0.93627 1.59949,1.20937 3.86215,1.91157 2.30169,0.70221 4.87645,0.70221 z m -12.24964,29.9999 q 1.52146,0 3.58907,-0.58517 2.06762,-0.54616 4.29128,-1.71652 2.26267,-1.13133 4.33028,-2.80883 2.06761,-1.6775 3.62808,-3.90116 -1.87256,0.039 -3.7061,0.15605 -1.79453,0.15605 -3.58907,0.46814 -1.91157,0.31209 -3.97918,1.05331 -2.0286,0.78023 -3.78412,1.79453 -1.71651,1.0143 -2.80884,2.02861 -1.05331,1.05331 -1.05331,1.91156 0,0.50716 0.42913,0.89727 0.46814,0.39011 1.44342,0.58517 0.54617,0.11704 1.20936,0.11704 z m 35.00246,-13.34196 q -0.42913,0.039 -0.97529,-0.19506 -0.54616,-0.23407 -0.97528,-0.85826 -0.39013,-0.62418 -0.39013,-1.75552 0,-0.93627 0.35112,-2.26267 -0.46815,0.74122 -1.20937,1.83355 -0.74122,1.05331 -1.59948,1.87255 -0.74121,0.70221 -1.40441,1.0143 -0.6632,0.3121 -1.20936,0.3121 -1.0143,0 -1.63848,-0.89728 -0.6242,-0.93626 -0.6242,-2.41871 0,-1.56046 0.78024,-3.55005 0.78023,-1.98959 2.53575,-4.13523 1.13134,-1.3654 2.73081,-2.18464 1.6385,-0.85826 3.19895,-0.85826 0.89727,0 1.71651,0.31209 0.81925,0.27308 1.44343,0.93628 0.27308,0.27308 0.27308,0.62418 0,0.23408 -0.19506,0.39012 -0.19505,0.15605 -0.50715,0.078 -0.42912,-1.3654 -1.83354,-1.3654 -0.6632,0 -1.52146,0.42912 -1.32639,0.70222 -2.76982,2.30169 -1.40441,1.59947 -2.45772,3.31598 -0.15605,0.23407 -0.50715,0.89727 -0.3121,0.66319 -0.62419,1.48244 -0.3121,0.81925 -0.42913,1.59947 -0.039,0.23407 -0.039,0.35111 0,0.078 0,0.27308 0,1.28738 0.97529,1.28738 1.17034,0 2.65278,-1.71651 1.01431,-1.24837 1.83355,-2.61378 0.81924,-1.3654 1.6775,-2.92586 0.58517,-1.05331 1.09232,-1.75553 0.50715,-0.7022 1.44343,-0.7022 0.42912,0 0.85826,0.11703 0.42912,0.11704 0.89726,0.039 -0.31209,0.31209 -0.85825,1.17034 -0.50715,0.85826 -1.09233,1.95058 -0.58518,1.09233 -1.05331,2.22366 -0.46813,1.13134 -0.6632,1.95058 -0.039,0.23407 -0.11703,0.6632 -0.039,0.42913 -0.039,0.62418 0,1.09233 0.62419,1.09233 0.62418,0 1.3264,-0.74122 0.74121,-0.74122 1.44342,-1.83354 0.70221,-1.09233 1.28738,-2.18465 0.58517,-1.13134 0.93628,-1.83355 0.15604,-0.39011 0.46814,-0.39011 0.19506,0 0.19506,0.27308 0,0.11703 -0.11704,0.42912 -0.46814,0.9753 -1.13133,2.22367 -0.6632,1.20936 -1.44343,2.3797 -0.78023,1.13134 -1.63848,1.91157 -0.81926,0.74122 -1.6775,0.81924 z m 6.40695,0.039 q -1.91157,0 -2.73081,-0.97529 -0.78023,-1.0143 -0.78023,-2.10663 0,-0.89726 0.42913,-1.63848 0.46813,-0.74122 1.09232,-0.78023 0.78023,-1.52145 1.6775,-3.31599 0.93627,-1.79452 1.71651,-3.47203 0.54616,-1.13133 1.3654,-2.18464 0.85826,-1.05331 1.87255,-1.20936 h 0.39013 q 0.31208,0 0.54615,0.039 0.27309,0.039 0.54617,0.15605 0.42913,0.19506 0.42913,0.58517 0,0.23407 -0.27308,0.23407 -0.11704,0 -0.3121,-0.11703 -0.46814,-0.19506 -0.81924,-0.19506 -0.23407,0 -0.42913,0.11703 -0.74122,0.39012 -1.0533,1.09232 -0.27309,0.70222 -0.27309,1.48245 0,0.62418 0.11704,1.28737 0.15605,0.62419 0.3511,1.13135 0.42913,1.09232 0.89726,2.14563 0.50715,1.05331 0.50715,2.26268 0,1.17034 -0.78022,2.49673 -0.78023,1.28738 -1.98959,2.06762 l 0.27307,0.039 q 0.19506,0.039 0.27308,0.039 0.078,0 0.11704,0 0.89726,0 1.6775,-0.50714 0.81924,-0.54617 1.44343,-1.3264 0.62418,-0.78023 1.40441,-2.18464 0.81925,-1.40442 1.56046,-2.96489 0.11703,-0.19505 0.27309,-0.19505 0.19506,0 0.27308,0.15604 0.11703,0.11703 0.039,0.31209 -0.50715,1.09233 -1.17035,2.3797 -0.62419,1.24838 -1.44343,2.41873 -0.81923,1.13133 -1.91157,1.87255 -1.0533,0.70222 -2.3797,0.70222 -0.3121,0 -0.66319,-0.039 -0.35111,-0.039 -0.70221,-0.15605 -0.39012,0.15605 -0.81925,0.23407 -0.39011,0.11703 -0.74122,0.11703 z m 1.17035,-1.17034 q 0.6632,-0.54617 1.17035,-1.59948 0.54616,-1.05331 0.54616,-2.76982 0,-1.52146 -0.3121,-3.23796 -0.31209,-1.71651 -0.31209,-3.04291 0,-0.27308 0,-0.46814 0.039,-0.23406 0.078,-0.42912 -0.50715,1.05331 -1.17034,2.45772 -0.66321,1.36541 -1.3264,2.65279 -0.6632,1.28738 -1.13134,2.18465 0,0 0.19506,0.039 0.23407,0 0.42913,0.27308 0.19505,0.23406 0.15604,0.97528 -0.039,0.9753 0.42913,1.83355 0.50715,0.81924 1.24838,1.13134 z m -1.48244,0.54616 q 0.23407,0 0.42912,-0.039 0.19506,-0.078 0.35111,-0.11704 -0.58517,-0.42912 -1.05331,-1.13133 -0.42912,-0.74122 -0.50715,-1.87256 -0.70221,0.74122 -0.70221,1.59948 0,0.62419 0.39011,1.09232 0.39013,0.46814 1.09233,0.46814 z m 3.71518,11.1183 q -0.46814,0 -0.93629,-0.15605 -0.50714,-0.11704 -1.01429,-0.039 0.23407,-0.23406 0.89726,-1.36541 0.6632,-1.09231 1.56047,-2.73081 0.85825,-1.63847 1.83354,-3.55004 0.97529,-1.91157 1.83355,-3.74512 0.85825,-1.87256 1.44342,-3.394 0.62419,-1.56046 0.78023,-2.45773 -0.3511,0.50715 -0.70221,0.58517 -0.31208,0.039 -0.15604,-0.23407 0.078,-0.15604 0.31209,-0.74121 0.27309,-0.62419 0.46814,-1.05332 0.3121,-0.78023 0.50715,-1.71651 0.23407,-0.93628 0.23407,-1.79453 0,-0.54617 -0.11704,-0.93628 -0.11703,-0.39012 -0.42912,-0.42913 0,0 0.42912,-0.078 0.42914,-0.078 0.89728,-0.15604 0.46813,-0.078 0.62418,-0.078 0.23407,-0.039 0.42912,-0.039 0.19506,-0.039 0.35111,-0.039 0.3511,0 0.46814,0.27307 0.15605,0.23408 0.15605,1.01431 0,0.97528 -0.35111,2.49674 -0.31209,1.48245 -0.74122,2.61377 0.42913,-0.7022 1.09233,-1.79453 0.7022,-1.09232 1.59947,-2.22366 0.89727,-1.13133 1.87256,-1.87255 0.97528,-0.78024 1.91156,-0.78024 0.19506,0 0.50715,0.078 1.09233,0.27308 1.52146,1.09233 0.46813,0.78023 0.46813,1.87255 0,1.17035 -0.46813,2.57477 -0.42913,1.40441 -1.17035,2.76982 -0.74122,1.32639 -1.63849,2.41872 -1.09232,1.36539 -2.61377,2.18465 -1.52146,0.81924 -3.12093,0.81924 -1.44343,0 -2.6918,-0.74122 l -3.7061,9.32377 q -0.54616,1.17034 -1.05331,1.59947 -0.50715,0.42913 -1.28738,0.42913 z m 7.49022,-11.4304 q 1.09232,0 2.45773,-1.0143 1.36541,-1.0143 2.61378,-2.57476 1.28738,-1.59947 2.14564,-3.19896 0.58517,-1.09232 0.85824,-1.98959 0.27308,-0.93626 0.27308,-1.59946 0,-1.52146 -1.09231,-1.52146 -0.50716,0 -1.3264,0.54616 -0.78023,0.54616 -1.83355,1.98959 -1.13133,1.56047 -2.49674,3.94017 -1.32639,2.3407 -2.73081,4.95448 0.46814,0.46813 1.13134,0.46813 z m 20.25607,0.89727 q -0.42913,0.039 -0.97529,-0.19506 -0.54616,-0.23407 -0.97529,-0.85825 -0.39011,-0.62419 -0.39011,-1.75553 0,-0.93627 0.35109,-2.26267 -0.46813,0.74122 -1.20936,1.83355 -0.74121,1.05331 -1.59947,1.87256 -0.74122,0.7022 -1.40441,1.01429 -0.6632,0.3121 -1.20936,0.3121 -1.0143,0 -1.63849,-0.89727 -0.62418,-0.93627 -0.62418,-2.41871 0,-1.56047 0.78023,-3.55006 0.78023,-1.98959 2.53575,-4.13523 1.13133,-1.3654 2.73081,-2.18464 1.63848,-0.85826 3.19895,-0.85826 0.89727,0 1.7165,0.31209 0.81925,0.27308 1.44344,0.93628 0.27308,0.27308 0.27308,0.62418 0,0.23408 -0.19506,0.39012 -0.19506,0.15605 -0.50715,0.078 -0.42913,-1.3654 -1.83354,-1.3654 -0.6632,0 -1.52146,0.42913 -1.32639,0.70221 -2.76982,2.30168 -1.40442,1.59947 -2.45772,3.31598 -0.15605,0.23407 -0.50716,0.89727 -0.31209,0.6632 -0.62418,1.48244 -0.3121,0.81925 -0.42914,1.59947 -0.039,0.23407 -0.039,0.35111 0,0.078 0,0.27308 0,1.28739 0.9753,1.28739 1.17034,0 2.65278,-1.71652 1.0143,-1.24837 1.83355,-2.61377 0.81924,-1.36541 1.67749,-2.92587 0.58518,-1.05331 1.09233,-1.75552 0.50715,-0.70221 1.44343,-0.70221 0.42913,0 0.85825,0.11704 0.42913,0.11703 0.89727,0.039 -0.3121,0.31209 -0.85826,1.17034 -0.50714,0.85826 -1.09232,1.95058 -0.58517,1.09233 -1.05331,2.22367 -0.46814,1.13133 -0.6632,1.95058 -0.039,0.23407 -0.11703,0.66319 -0.039,0.42912 -0.039,0.62418 0,1.09233 0.62418,1.09233 0.6242,0 1.3264,-0.74122 0.74122,-0.74122 1.44343,-1.83354 0.7022,-1.09233 1.28738,-2.18465 0.58517,-1.13134 0.93627,-1.83355 0.15606,-0.39011 0.46814,-0.39011 0.19506,0 0.19506,0.27308 0,0.11703 -0.11703,0.42913 -0.46814,0.97528 -1.13134,2.22365 -0.66319,1.20937 -1.44342,2.37971 -0.78024,1.13133 -1.63849,1.91157 -0.81924,0.74122 -1.6775,0.81924 z m 10.15206,-0.078 q -0.74122,0 -1.48244,-0.58518 -0.74122,-0.62418 -0.74122,-1.98959 0,-1.05331 0.50715,-2.41872 0.46813,-1.32639 1.24837,-2.57476 0.81925,-1.24837 1.17034,-2.02861 0.11704,-0.31208 0.11704,-0.54616 0,-0.7022 -0.89727,-1.01429 -0.85824,-0.3121 -2.26266,-0.35111 l -0.46815,1.28738 q -0.42912,1.24837 -1.20936,2.92587 -0.74122,1.6775 -1.67749,3.23796 -0.89727,1.56047 -1.87255,2.49674 -0.078,0.078 -0.19506,0.078 -0.15605,0 -0.19506,-0.19505 -0.078,-0.19506 0.15605,-0.46814 1.52145,-2.0286 2.73081,-4.48633 1.20935,-2.49674 2.0286,-5.07151 0.85825,-2.57477 1.24837,-4.7594 0.11703,-0.62419 0.42912,-0.89728 0.3121,-0.31209 0.6632,-0.31209 0.50715,0 0.93628,0.50715 0.42912,0.46814 0.42912,1.36541 0,0.15604 -0.039,0.3511 0,0.19506 -0.039,0.39012 -0.15604,0.81924 -0.93628,1.56046 -0.74122,0.70221 -1.20935,1.05332 0.39011,0.039 0.81923,0.078 0.42913,0 0.93628,0 1.83354,0 3.62808,-0.23407 0.078,0.23407 0.078,0.3511 0,0.50715 -0.3121,1.28738 -0.27307,0.78023 -0.58517,1.40442 -0.15605,0.35111 -0.62419,1.28738 -0.46813,0.89727 -1.0143,2.06761 -0.54616,1.13134 -0.93627,2.26268 -0.35111,1.09232 -0.35111,1.87255 0,1.01431 0.78023,1.01431 0.58517,0 1.28738,-0.74122 0.70221,-0.78024 1.36541,-1.87256 0.7022,-1.13134 1.24837,-2.18464 0.58518,-1.09234 0.89727,-1.71652 0.15605,-0.39011 0.42912,-0.39011 0.15605,0 0.15605,0.27308 0,0.15604 -0.11704,0.46814 -0.42912,0.89726 -1.01429,2.0286 -0.58518,1.13133 -1.3264,2.22365 -0.7022,1.09233 -1.56047,1.91158 -0.81924,0.78022 -1.79452,1.0143 -0.11704,0.039 -0.42913,0.039 z m 8.51358,0.11703 q -1.44342,0 -2.61377,-0.93628 -1.13134,-0.93627 -1.13134,-2.84784 0,-1.75552 0.85826,-3.74512 0.85825,-2.02859 2.18465,-3.55005 1.13134,-1.32639 2.53575,-2.18464 1.40442,-0.85826 2.65279,-0.85826 0.85825,0 1.48244,0.46814 0.66319,0.50715 0.66319,1.44342 0,0.9753 -0.74121,2.14564 -0.74122,1.17035 -2.10663,2.18466 -0.58517,0.42912 -1.48244,0.81923 -0.89727,0.39012 -1.79453,0.6632 -0.89727,0.23408 -1.48244,0.23408 -0.19506,0.46813 -0.39012,1.24836 -0.15604,0.78023 -0.15604,1.59948 0,0.97528 0.39011,1.75552 0.39012,0.78023 1.44343,0.78023 1.28738,0 2.34069,-0.74122 1.05332,-0.74122 1.87256,-1.83354 0.81924,-1.13134 1.36541,-2.26268 0.58517,-1.13133 0.93627,-1.91157 0.23408,-0.54615 0.62419,-0.54615 0.19506,0 0.19506,0.19506 0,0.15603 -0.11704,0.39011 -0.54616,1.17034 -1.17035,2.49674 -0.62418,1.28738 -1.48244,2.45773 -0.85825,1.13134 -2.06761,1.83354 -1.17035,0.70221 -2.80884,0.70221 z m -0.7022,-6.86604 q 0.54616,0 1.83355,-0.39011 1.28738,-0.42913 2.34069,-1.32639 1.0143,-0.89727 1.56046,-1.95058 0.54616,-1.09233 0.54616,-1.83355 0,-0.85825 -0.62418,-0.85825 -0.46814,0 -1.28738,0.62418 -0.81925,0.62419 -2.02861,2.10663 -0.74122,0.93628 -1.40441,2.0286 -0.6632,1.09232 -0.93628,1.59947 z m 31.812577,10.37708 q -2.80884,0 -5.42261,-0.7022 -2.61378,-0.6632 -4.68139,-2.0286 -2.06762,-1.36541 -3.31599,-3.43303 -1.20935,-2.06761 -1.20935,-4.87645 0,-2.06761 0.74122,-4.4083 0.42912,-1.32639 1.20936,-2.26267 0.81924,-0.93628 1.67749,-1.44343 0.85826,-0.50715 1.36541,-0.50715 0.66319,0 0.54616,0.62419 -0.23407,0.27308 -0.81924,0.66319 -0.54616,0.35111 -1.20936,0.93628 -0.62418,0.58518 -1.20936,1.52145 -0.54617,0.89727 -0.78023,2.30168 -0.078,0.50715 -0.15605,1.0143 -0.039,0.50716 -0.039,0.97529 0,2.53575 1.09232,4.48634 1.09233,1.95057 2.84785,3.23795 1.79453,1.28739 3.90116,1.91157 2.14564,0.6632 4.21325,0.62419 3.15993,-0.078 5.61766,-0.89726 2.457737,-0.78024 4.3693,-2.10663 1.91157,-1.3264 3.354999,-2.92587 1.209361,-1.3264 2.418714,-3.23796 1.209361,-1.91157 2.340695,-4.09622 1.170351,-2.22365 2.184648,-4.4083 1.053313,-2.18466 1.95058,-4.13524 0.897266,-1.95058 1.560466,-3.31598 0.663199,-1.40442 1.092323,-1.95058 -3.081913,-0.93627 -5.92976,-1.44343 -2.808837,-0.54616 -6.007781,-0.70221 -2.925867,-0.15604 -5.227552,0.6632 -2.262672,0.81924 -3.862152,2.22366 -1.56046,1.36541 -2.41871,3.0039 -0.81925,1.63848 -0.81925,3.15994 0,1.32639 0.6632,2.3797 0.70221,1.0143 2.10663,1.48244 0.93627,0.27308 1.83354,0.27308 1.40442,0 2.457733,-0.58517 1.053306,-0.58518 1.755515,-1.40442 0.741219,-0.85825 1.092324,-1.59948 0.390114,-0.78023 0.390114,-1.13133 v -0.039 q 0.195057,-0.23407 0.390122,-0.23407 0.390115,0 0.390115,0.54616 -0.195057,1.6775 -1.209361,2.92587 -0.975287,1.24837 -2.379705,1.91156 -1.404417,0.6632 -2.964877,0.6632 -1.09233,0 -2.10663,-0.3511 -2.14563,-0.78023 -3.23796,-2.49675 -1.09232,-1.75552 -1.09232,-3.78412 0,-1.7165 0.74122,-3.39401 0.74122,-1.7165 2.26266,-3.12092 1.52146,-1.44343 3.78413,-2.30168 2.262672,-0.85826 5.305576,-0.85826 0.507152,0 0.819239,0 0.312095,0 1.053314,0.078 1.833551,0.15604 3.706104,0.62419 1.872552,0.42912 3.589066,0.97528 1.716505,0.54616 3.159933,1.05331 1.443429,0.50716 2.379705,0.74122 0.117038,-0.15604 0.663199,-0.54616 0.585172,-0.39012 1.170344,-0.81924 0.624189,-0.42913 0.975294,-0.74122 0.351105,-0.31209 0.03901,-0.31209 h -0.03901 q 0.117038,-0.039 0.312095,-0.039 0.390114,0 0.585172,0.27309 0.195057,0.23406 0.195057,0.50715 0,0.50715 -0.468142,0.50715 -0.07802,0 -0.312087,-0.078 -0.156048,-0.15604 -0.585172,0.15605 -0.390122,0.31209 -0.819247,0.74122 -0.390114,0.39011 -0.624189,0.6632 0.858256,0.27308 2.145637,0.66319 1.326391,0.35111 2.808837,0.74122 1.521456,0.35111 2.964877,0.58518 1.443428,0.23406 2.574762,0.23406 1.092329,0 1.716516,-0.27307 0.663192,-0.27309 0.663192,-0.89727 0,-0.23407 0.07803,-0.39012 0.117036,-0.19505 0.390119,-0.19505 0.195057,0 0.273078,0.3511 0.07803,0.31209 0.07803,0.50715 0,0.93627 -1.014306,1.52145 -0.97529,0.58517 -2.457723,0.58517 -0.234067,0 -0.468142,0 -0.234067,-0.039 -0.507144,-0.078 -4.369303,-0.54616 -6.827028,-1.40441 -2.418722,-0.85826 -3.042904,-1.13134 -1.755523,2.80883 -2.886857,5.77371 -1.131333,2.96488 -2.145637,5.92977 -0.975286,2.96487 -2.301685,5.73469 -1.287381,2.76982 -3.433019,5.22755 -1.560458,1.75553 -3.823133,2.96489 -2.223657,1.20935 -4.837441,1.79452 -2.61377,0.62419 -5.30557,0.62419 z m 24.430336,-3.66708 q -1.482438,0 -2.184647,-0.97529 -0.70221,-1.01431 -0.70221,-2.45773 0,-1.75552 0.819247,-3.66709 0.780229,-1.79454 1.98959,-3.27697 1.209354,-1.48244 2.613772,-2.37971 1.404419,-0.93628 2.73081,-0.93628 1.482438,0 2.184647,0.97529 0.702209,0.9753 0.702209,2.45773 0,1.79454 -0.819238,3.66709 -0.468143,1.05331 -1.326399,2.34069 -0.858249,1.24837 -1.950581,2.30169 0.234075,0.42912 0.663208,0.74122 0.429124,0.27308 1.170343,0.27308 0.936277,0 1.755515,-0.78023 0.858257,-0.78024 1.560466,-1.87256 0.70221,-1.13134 1.248371,-2.26267 0.546162,-1.13134 0.897267,-1.83354 0.117037,-0.23407 0.390114,-0.23407 0.156048,0 0.234075,0.15604 0.07802,0.11704 -0.03901,0.39011 -0.234068,0.58518 -0.780229,1.75553 -0.546162,1.13134 -1.326391,2.37971 -0.780229,1.20935 -1.794533,2.06761 -1.014304,0.85825 -2.262675,0.85825 -0.858249,0 -1.482439,-0.27308 -0.624181,-0.31209 -1.014304,-0.74122 -0.819238,0.62419 -1.638477,0.97529 -0.819247,0.35111 -1.638494,0.35111 z m 0.585172,-0.85826 q 1.053314,0 2.262675,-1.0143 -0.312095,-0.46814 -0.468134,-0.97529 -0.156048,-0.50715 -0.156048,-0.93627 0,-0.70221 0.312087,-1.20937 0.351105,-0.50715 1.053314,-0.50715 0.507144,0 0.819239,0.39012 0.351113,0.3511 0.351113,0.81924 0,0.11703 -0.03901,0.23407 0,0.078 -0.03901,0.19506 0.663199,-0.89727 1.248371,-2.10662 1.287381,-2.76983 1.287381,-4.56436 0,-0.89727 -0.351105,-1.40442 -0.351104,-0.50715 -1.053306,-0.50715 -0.819246,0 -1.794541,0.70222 -0.936276,0.7022 -1.833542,1.87255 -0.858249,1.17034 -1.521448,2.61377 -0.624182,1.3264 -1.014304,2.57477 -0.351105,1.20936 -0.351105,2.10662 0,0.78023 0.312095,1.24837 0.312094,0.46814 0.975286,0.46814 z m 14.053212,1.0143 q -2.223659,0 -3.12093,-1.05331 -0.897267,-1.09233 -0.897267,-2.65279 0,-1.71651 0.780237,-3.66709 0.819244,-1.95057 1.911571,-3.394 1.131332,-1.52146 2.496736,-2.3407 1.365404,-0.85825 2.769824,-0.85825 1.482441,0 2.184648,0.74122 0.702208,0.74122 0.546162,1.98959 -0.07802,0.78023 -0.741219,1.56046 -0.663202,0.74122 -1.326394,0.74122 -0.312093,0 -0.546166,-0.23407 0.312099,-0.39011 0.663203,-0.93628 0.351098,-0.54615 0.507145,-1.05331 0.156046,-0.46814 0.156046,-0.93628 0,-0.97529 -0.936274,-0.97529 -1.053312,0 -2.223659,1.09233 -1.131337,1.05331 -1.989591,2.30168 -0.351104,0.46814 -0.858259,1.48244 -0.468135,0.97529 -0.858249,2.18465 -0.390119,1.17035 -0.390119,2.30168 0,1.17035 0.50715,2.10662 0.54616,0.89727 1.794534,0.89727 1.716508,0 2.925871,-1.05331 1.248368,-1.09233 2.184649,-2.6918 0.975285,-1.59947 1.755518,-3.12093 0.234068,-0.46813 0.46814,-0.46813 0.195057,0 0.195057,0.31208 0,0.15605 -0.117036,0.39013 -0.936275,2.0286 -1.911566,3.7061 -0.97529,1.67749 -2.379704,2.65278 -1.365405,0.97529 -3.550058,0.97529 z m 10.386157,0 q -2.223664,0 -3.120929,-1.05331 -0.897269,-1.09233 -0.897269,-2.65279 0,-1.71651 0.780233,-3.66709 0.819244,-1.95057 1.911571,-3.394 1.131332,-1.52146 2.496741,-2.3407 1.365405,-0.85825 2.769819,-0.85825 1.482436,0 2.184649,0.74122 0.702207,0.74122 0.546161,1.98959 -0.07803,0.78023 -0.741219,1.56046 -0.663197,0.74122 -1.326394,0.74122 -0.312093,0 -0.546165,-0.23407 0.312094,-0.39011 0.663202,-0.93628 0.351104,-0.54615 0.507145,-1.05331 0.156047,-0.46814 0.156047,-0.93628 0,-0.97529 -0.936275,-0.97529 -1.053311,0 -2.223658,1.09233 -1.131338,1.05331 -1.989592,2.30168 -0.351103,0.46814 -0.858259,1.48244 -0.468135,0.97529 -0.858254,2.18465 -0.390114,1.17035 -0.390114,2.30168 0,1.17035 0.50715,2.10662 0.546161,0.89727 1.794534,0.89727 1.716509,0 2.925867,-1.05331 1.248372,-1.09233 2.184648,-2.6918 0.97529,-1.59947 1.755523,-3.12093 0.234068,-0.46813 0.468135,-0.46813 0.195062,0 0.195062,0.31208 0,0.15605 -0.117036,0.39013 -0.936275,2.0286 -1.911566,3.7061 -0.97529,1.67749 -2.379704,2.65278 -1.365405,0.97529 -3.550053,0.97529 z m 11.517484,-15.99474 q -0.585171,0 -0.975285,-0.39012 -0.351109,-0.42913 -0.351109,-1.0143 0,-0.74122 0.585177,-1.28738 0.58517,-0.54617 1.287378,-0.54617 0.624186,0 1.014306,0.39012 0.390114,0.39011 0.390114,0.93628 0,0.74122 -0.585172,1.3264 -0.585175,0.58517 -1.365409,0.58517 z m -3.159938,15.8387 q -1.443426,0 -2.028602,-0.81925 -0.585171,-0.85825 -0.585171,-1.95058 0,-0.58517 0.117036,-1.17034 0.156042,-0.62419 0.351099,-1.13134 l 2.613777,-6.67097 q 0.117032,-0.31211 0.117032,-0.54617 0,-0.39012 -0.195057,-0.6632 -0.195057,-0.31209 -0.273079,-0.42913 l 2.145639,-0.078 q 0.585171,-0.039 0.819238,0.15605 0.273088,0.15605 0.273088,0.39011 0,0.23407 -0.273088,0.85825 l -3.237954,7.60727 q 0,0 -0.234073,0.50715 -0.195062,0.46814 -0.234072,0.62418 -0.117032,0.58517 -0.156046,0.74122 -0.03902,0.15605 -0.03902,0.19506 0,0.039 0,0.31209 0,0.50715 0.234072,0.85826 0.273084,0.3511 0.897265,0.3511 0.390119,0 0.897269,-0.23406 0.507146,-0.23408 0.741219,-0.46815 0.97529,-1.0143 1.911565,-2.65279 0.975291,-1.67749 1.794534,-3.31598 0.156047,-0.39011 0.390114,-0.39011 0.195057,0 0.195057,0.27308 0,0.15604 -0.117031,0.46814 -0.390115,0.81924 -0.97529,2.0286 -0.585172,1.20936 -1.404416,2.41871 -0.780233,1.17035 -1.716507,1.95058 -0.936281,0.78024 -2.028607,0.78024 z" id="text25" style="font-size:114.212px;line-height:113.22%;font-family:'Great Vibes';-inkscape-font-specification:'Great Vibes, Normal';letter-spacing:0.597645px;fill:#ffa500;stroke-width:0.0299566;stroke-linecap:round" aria-label="Gaspare Tocci" /></g></g></svg>