<?xml version="1.0" encoding="UTF-8" standalone="no"?><svg width="400" height="100" viewBox="0 0 105.83333 26.458332" version="1.1" id="svg1" xml:space="preserve" inkscape:version="1.3.2 (091e20e, 2023-11-25, custom)" sodipodi:docname="banner.svg" inkscape:export-filename="GitHub-Logo.png" inkscape:export-xdpi="600" inkscape:export-ydpi="600" xmlns:inkscape="http://www.inkscape.org/namespaces/inkscape" xmlns:sodipodi="http://sodipodi.sourceforge.net/DTD/sodipodi-0.dtd" xmlns="http://www.w3.org/2000/svg" xmlns:svg="http://www.w3.org/2000/svg"><sodipodi:namedview id="namedview1" pagecolor="#505050" bordercolor="#eeeeee" borderopacity="1" inkscape:showpageshadow="0" inkscape:pageopacity="0" inkscape:pagecheckerboard="0" inkscape:deskcolor="#505050" inkscape:document-units="mm" inkscape:zoom="1.0544998" inkscape:cx="517.30689" inkscape:cy="182.55101" inkscape:window-width="1920" inkscape:window-height="1017" inkscape:window-x="1912" inkscape:window-y="-8" inkscape:window-maximized="1" inkscape:current-layer="g1" /><defs id="defs1" /><g inkscape:label="Livello 1" inkscape:groupmode="layer" id="layer1"><g inkscape:label="Image" id="g1" transform="matrix(0.26458333,0,0,0.26458333,82.629839,126.275)"><g id="g8" transform="matrix(-1.0769871,-0.52259263,-0.52259263,1.0769871,145.31643,185.79931)" style="fill:#ffa500;fill-opacity:1" /><g id="g25" transform="translate(-17.069707,-525.69571)"><ellipse style="fill:none;fill-opacity:1;fill-rule:nonzero;stroke:#ce8500;stroke-width:1.91398;stroke-linecap:round;stroke-dasharray:none;stroke-opacity:1" id="path8" cx="246.11313" cy="-45.883694" rx="53.054913" ry="52.516285" /><g id="g7" transform="matrix(-0.78896861,0.04654046,0.04654046,0.78896861,297.69506,-4.4574042)" style="fill:#ffa500;fill-opacity:1"><path id="path4" style="opacity:1;fill:#ffa500;fill-opacity:1;fill-rule:evenodd;stroke-width:5.08346;stroke-linecap:round" d="m 70.81664,-13.702814 a 1.5257286,1.5257286 0 0 1 -1.525728,1.52573 1.5257286,1.5257286 0 0 1 -1.525729,-1.52573 1.5257286,1.5257286 0 0 1 1.525729,-1.52573 1.5257286,1.5257286 0 0 1 1.525728,1.52573 z" /><path id="path5" style="opacity:1;fill:#ffa500;fill-opacity:1;fill-rule:evenodd;stroke-width:5.08346;stroke-linecap:round" d="m 74.719671,-13.596364 a 0.92253357,0.92253357 0 0 1 -0.922534,0.92253 0.92253357,0.92253357 0 0 1 -0.922533,-0.92253 0.92253357,0.92253357 0 0 1 0.922533,-0.92254 0.92253357,0.92253357 0 0 1 0.922534,0.92254 z" /><path id="path6" style="opacity:1;fill:#ffa500;fill-opacity:1;fill-rule:evenodd;stroke-width:5.08346;stroke-linecap:round" d="m 65.483868,-16.207874 a 1.2043011,1.2043011 0 0 1 -1.204301,1.2043 1.2043011,1.2043011 0 0 1 -1.204301,-1.2043 1.2043011,1.2043011 0 0 1 1.204301,-1.2043 1.2043011,1.2043011 0 0 1 1.204301,1.2043 z" /></g><path d="m 236.47199,-11.348569 -3.44798,-0.05434 c -2.03813,-0.259401 -3.90953,-0.852314 -5.61416,-1.778745 -1.70464,-0.889379 -3.18693,-1.982562 -4.44687,-3.279569 -1.22289,-1.297 -2.18638,-2.760766 -2.89047,-4.391285 -0.66703,-1.59346 -1.00054,-3.223978 -1.00054,-4.891555 0,-0.815256 0.0741,-1.778745 0.22234,-2.890461 0.18528,-1.111722 0.3891,-2.223437 0.61144,-3.335153 0.22234,-1.148774 0.40764,-2.204905 0.55586,-3.168394 0.18529,-1.000548 0.27793,-1.797278 0.27793,-2.39019 0,-0.889373 -0.20381,-1.76022 -0.61145,-2.61254 -0.37057,-0.852315 -0.92642,-1.630519 -1.66757,-2.334606 -0.70409,-0.74114 -1.59346,-1.352585 -2.66812,-1.834336 -2.15112,-0.971544 -4.53651,-1.280508 -6.8318,-1.778309 2.29011,-0.659312 4.70345,-0.793383 6.88738,-1.779181 1.03761,-0.518803 1.90845,-1.130248 2.61254,-1.834336 0.74115,-0.741146 1.297,-1.537876 1.66757,-2.39019 0.40764,-0.889372 0.61145,-1.778751 0.61145,-2.668124 0,-0.592913 -0.0926,-1.371117 -0.27793,-2.334606 -0.14822,-0.963489 -0.33352,-2.001088 -0.55586,-3.11281 -0.22234,-1.111716 -0.42616,-2.223431 -0.61144,-3.335153 -0.14823,-1.111716 -0.22234,-2.093731 -0.22234,-2.946045 0,-1.704635 0.33351,-3.353686 1.00054,-4.947146 0.70409,-1.59346 1.66758,-3.038694 2.89047,-4.335694 1.25994,-1.297007 2.74223,-2.39019 4.44687,-3.279563 1.70463,-0.889379 3.57603,-1.482298 5.61416,-1.778758 l 3.32315,-0.0053 c -3.3162,1.506648 -7.10357,1.997662 -9.71552,4.729999 -1.33406,1.556408 -2.00109,3.279569 -2.00109,5.169489 0,0.667036 0.0741,1.51935 0.22234,2.556949 0.18529,1.037606 0.38911,2.130796 0.61145,3.279569 0.22235,1.111716 0.40763,2.223432 0.55586,3.335154 0.18529,1.074657 0.27793,2.001088 0.27793,2.779292 0,1.259942 -0.24088,2.519891 -0.72262,3.77984 -0.44469,1.222884 -1.13024,2.39019 -2.05668,3.501905 -0.88937,1.111716 -2.01962,2.149322 -3.39074,3.112811 -1.37111,0.92643 -2.96457,1.723161 -4.78038,2.39019 1.77875,0.667029 3.35368,1.482292 4.7248,2.445781 1.37112,0.963489 2.50137,2.01962 3.39074,3.168394 0.92643,1.148774 1.63052,2.353132 2.11226,3.613081 0.48174,1.259949 0.72262,2.501358 0.72262,3.724249 0,0.778204 -0.0926,1.704635 -0.27793,2.779292 -0.14823,1.074664 -0.33351,2.186379 -0.55586,3.335153 -0.22234,1.148774 -0.42616,2.223438 -0.61145,3.223979 -0.14822,1.037605 -0.22234,1.88992 -0.22234,2.556956 0,1.889919 0.66703,3.61308 2.00109,5.169482 2.60968,2.684524 6.43302,3.517976 9.84035,4.835067 z" id="text1" style="font-size:684.152px;line-height:113.22%;font-family:'Microsoft Himalaya';-inkscape-font-specification:'Microsoft Himalaya, Normal';letter-spacing:3.58px;fill:#ffa500;fill-opacity:1;fill-rule:evenodd;stroke:#ffffff;stroke-width:0.0973181;stroke-linecap:round;stroke-dasharray:none" aria-label="{" sodipodi:nodetypes="cccccscccsccccsscscscsccscccscccsccccscsscscscc" /><g id="g3" transform="matrix(0.57398779,-0.32623874,0.32623874,0.57398779,173.41959,-57.497432)"><g id="g4" transform="rotate(30.397075,111.79446,87.921985)"><g id="g6" transform="rotate(28.388681,111.07912,86.839377)"><path id="path1" style="fill:#ffa500;fill-opacity:1;fill-rule:evenodd;stroke-width:5.08327;stroke-linecap:round" d="m 116.54595,54.760384 -0.0454,13.242739 -8.80201,-0.246426 0.14928,-13.221433 c 0.35689,-24.856026 8.49863,-24.104931 8.69813,0.22512 z" sodipodi:nodetypes="sccss" /><path id="rect1-5" style="fill:#ffa500;fill-opacity:1;fill-rule:evenodd;stroke-width:7.59181;stroke-linecap:round" d="m 107.4951,98.696055 0.099,-20.328252 8.81298,0.174068 -0.10151,20.173644 z" sodipodi:nodetypes="ccccc" /><path id="rect1-8" style="fill:#ffa500;fill-opacity:1;fill-rule:evenodd;stroke-width:4.59977;stroke-linecap:round" d="m 107.3232,111.45487 0.0705,-7.67828 8.87205,0.12067 -0.0489,7.66205 z" sodipodi:nodetypes="ccccc" /><path id="rect1-4" style="fill:#ffa500;fill-opacity:1;fill-rule:evenodd;stroke-width:2.32506;stroke-linecap:round" d="m 107.42386,102.20208 0.0194,-2.02633 8.8618,0.11477 -0.005,2.02523 z" sodipodi:nodetypes="ccccc" /><g id="g5" transform="translate(-0.26626652,-2.1302677)"><path id="path2" style="fill:#ffa500;fill-opacity:1;fill-rule:evenodd;stroke-width:5.08327;stroke-linecap:round" d="m 107.84298,139.62633 c -1.68832,0.31679 0.61325,-3.98943 -0.37303,-9.7602 -0.24239,-1.41826 -1.3161,-3.10265 -1.77886,-4.70129 -0.62363,-2.15444 -0.77252,-3.76715 -0.35027,-5.67292 0.20172,-0.91043 2.88098,-6.40685 6.5274,-4.92924 0.63536,0.25746 -2.26957,2.74772 -1.21974,8.00027 0.68259,3.41518 1.25217,8.95809 -0.2711,12.59053 -0.81767,1.94982 -0.99951,4.18485 -2.5344,4.47285 z" sodipodi:nodetypes="ssssssss" /><path id="path3" style="fill:#ffa500;fill-opacity:1;fill-rule:evenodd;stroke-width:5.08327;stroke-linecap:round" d="m 109.84648,139.33442 c -0.37732,-0.27292 1.14382,-2.76246 1.94487,-6.06952 0.22007,-0.90854 0.27904,-1.86797 0.32902,-2.87768 0.033,-0.66691 0.11036,-1.37325 0.0554,-2.03886 -0.10539,-1.27687 -0.24044,-3.07324 -0.5429,-4.90108 -0.25373,-1.53335 -0.4413,-3.02614 -0.27939,-4.3063 0.23956,-1.89423 0.91097,-3.32502 1.60206,-4.34765 0.21068,-0.31176 6.1118,0.29339 5.48525,8.34458 -1.0192,4.1982 -3.10139,12.32698 -6.03378,14.67346 -0.78579,0.62878 -1.66267,2.17248 -2.56055,1.52305 z" sodipodi:nodetypes="ssssssscss" /></g><rect style="fill:#ffa500;fill-opacity:1;fill-rule:evenodd;stroke-width:5.40489;stroke-linecap:round" id="rect7" width="8.8140516" height="7.3282442" x="108.18245" y="68.028915" transform="matrix(0.99991189,0.01327454,-0.00753697,0.9999716,0,0)" /></g></g></g></g><path d="m -296.69851,-379.70984 q -2.69899,0 -4.60417,-0.71444 -3.01653,-1.11136 -4.36603,-2.61962 -1.42888,-1.42888 -1.42888,-3.09591 0,-2.14332 2.14333,-4.52479 2.06394,-2.30209 5.7949,-4.52479 3.73098,-2.14333 8.5733,-3.81036 4.84232,-1.58765 10.3197,-2.38147 2.46085,-0.39691 5.39799,-0.63505 3.01654,-0.23815 6.03306,-0.4763 3.09591,-0.15876 5.55676,-0.15876 2.93715,-5.00109 4.76294,-9.4465 1.90518,-4.44541 3.33407,-10.24032 l 0.31753,-1.27012 q -1.50827,1.42888 -4.28665,3.49282 -2.699,1.98456 -6.35059,4.0485 -3.5722,1.98456 -7.70009,3.33406 -4.0485,1.3495 -8.33514,1.3495 -3.33406,0 -6.42997,-1.03197 -3.33405,-1.19074 -6.03306,-3.96911 -2.61961,-2.85777 -4.20725,-6.98565 -1.50827,-4.20727 -1.50827,-9.28773 0,-3.73097 0.95258,-7.93823 0.9526,-4.28665 3.09592,-8.73206 -2.46085,-2.54024 -3.88974,-5.63615 -1.3495,-3.09591 -1.3495,-6.35059 0,-2.85776 1.19074,-5.63614 1.19073,-2.85776 3.73097,-5.47738 0.71444,-0.79383 1.3495,-0.79383 0.31752,0 0.31752,0.31753 0,0.4763 -0.55567,1.11136 -1.8258,2.22271 -2.699,4.68356 -0.8732,2.46085 -0.8732,4.9217 0,2.77838 1.03197,5.47738 1.11135,2.699 3.0959,5.00109 0.39692,-0.79382 0.79383,-1.58765 0.4763,-0.79382 0.95259,-1.58764 3.81035,-6.19183 9.28773,-10.63724 5.55676,-4.44541 11.82797,-6.82688 6.2712,-2.46085 12.22488,-2.46085 1.03196,0 1.98456,0.0794 1.03196,0.0794 2.06394,0.23815 7.70008,1.19073 11.51043,5.15985 3.81035,3.96911 3.81035,8.89082 0,3.41344 -1.90517,6.82688 -1.8258,3.41344 -5.63615,6.27121 -3.73097,2.85776 -9.36711,4.60417 -5.55676,1.74641 -12.93932,1.90518 -5.79491,0.0794 -11.43106,-1.42889 -5.63614,-1.58765 -9.52588,-4.12788 -1.98455,4.20727 -2.93714,8.25577 -0.87321,3.96911 -0.87321,7.46194 0,5.87428 2.46085,10.08155 2.46085,4.20727 6.82688,5.63614 1.27012,0.39692 2.54024,0.55568 1.3495,0.15877 2.61961,0.15877 3.57221,0 7.14441,-1.03198 3.65159,-1.11134 6.7475,-2.85776 3.09591,-1.74641 5.23923,-3.65158 2.22271,-1.98456 2.93715,-3.65159 1.82579,-4.12789 3.57221,-5.71553 1.82579,-1.66703 3.25467,-1.66703 1.19074,0 1.98456,1.11135 0.87321,1.03198 0.63506,2.85777 -0.79382,6.58873 -3.65159,12.78055 -2.77838,6.19182 -7.22379,13.41562 5.398,0.0794 9.68465,0.55567 4.36603,0.55568 7.85884,1.42888 0.95259,0.23815 1.27013,0.55568 0.39691,0.39691 0.39691,0.63506 0,0.55567 -0.9526,0.55567 -0.47629,0 -1.34949,-0.23814 -1.8258,-0.47629 -4.84232,-0.87321 -3.01653,-0.31753 -6.50936,-0.47629 -3.41343,-0.15877 -6.58873,-0.15877 -3.33406,4.76294 -7.93823,8.5733 -4.5248,3.88973 -9.60527,6.66811 -5.08046,2.77838 -10.00217,4.20726 -4.84232,1.50827 -8.73206,1.50827 z m 24.84668,-63.50586 q 0.8732,0 1.7464,0 0.87321,-0.0794 1.74642,-0.15877 8.01761,-0.79382 13.57438,-3.65159 5.63614,-2.93714 8.4939,-6.90626 2.93715,-3.96911 2.93715,-7.77947 0,-3.73097 -2.85777,-6.58873 -2.77838,-2.93715 -8.57328,-3.81035 -0.79383,-0.15877 -1.34951,-0.15877 -0.47629,0 -1.34949,0 -5.15986,0 -10.71662,2.46086 -5.47738,2.46085 -10.47846,6.90626 -4.92171,4.36602 -8.49392,10.16094 -0.8732,1.50826 -1.34949,2.30209 -0.4763,0.79382 -1.11136,1.90517 3.25468,2.46085 7.85885,3.88973 4.68356,1.42889 9.9228,1.42889 z m -24.92606,61.04501 q 3.09592,0 7.30317,-1.19074 4.20727,-1.11135 8.73206,-3.49282 4.60418,-2.30209 8.81144,-5.71553 4.20726,-3.41344 7.38256,-7.93823 -3.81035,0.0794 -7.54132,0.31753 -3.65159,0.31753 -7.30318,0.95259 -3.88973,0.63505 -8.097,2.14332 -4.12788,1.58764 -7.70008,3.65158 -3.49282,2.06394 -5.71553,4.12789 -2.14332,2.14332 -2.14332,3.88973 0,1.03197 0.87321,1.82579 0.95258,0.79383 2.93714,1.19074 1.11136,0.23815 2.46085,0.23815 z m 71.2244,-27.14876 q -0.8732,0.0794 -1.98455,-0.39691 -1.11136,-0.4763 -1.98456,-1.74641 -0.79383,-1.27012 -0.79383,-3.57221 0,-1.90517 0.71445,-4.60417 -0.9526,1.50826 -2.46085,3.73097 -1.50827,2.14332 -3.25469,3.81035 -1.50825,1.42888 -2.85776,2.06394 -1.3495,0.63506 -2.46085,0.63506 -2.06394,0 -3.33405,-1.8258 -1.27013,-1.90517 -1.27013,-4.9217 0,-3.17529 1.58765,-7.22379 1.58765,-4.0485 5.15985,-8.41453 2.30209,-2.77838 5.55676,-4.44541 3.33407,-1.74641 6.50936,-1.74641 1.82579,0 3.49282,0.63506 1.66703,0.55567 2.93715,1.90518 0.55567,0.55567 0.55567,1.27011 0,0.4763 -0.39691,0.79383 -0.39691,0.31753 -1.03197,0.15876 -0.8732,-2.77838 -3.73097,-2.77838 -1.3495,0 -3.09591,0.8732 -2.699,1.42889 -5.63615,4.68356 -2.85776,3.25467 -5.00108,6.7475 -0.31753,0.47629 -1.03197,1.82579 -0.63506,1.3495 -1.27012,3.01653 -0.63506,1.66703 -0.8732,3.25468 -0.0794,0.47629 -0.0794,0.71444 0,0.15876 0,0.55568 0,2.61961 1.98455,2.61961 2.38147,0 5.398,-3.49282 2.06394,-2.54024 3.73097,-5.31862 1.66703,-2.77838 3.41344,-5.95367 1.19073,-2.14332 2.22271,-3.57221 1.03196,-1.42888 2.93714,-1.42888 0.8732,0 1.74641,0.23815 0.87321,0.23815 1.82579,0.0794 -0.63505,0.63506 -1.7464,2.38147 -1.03198,1.74641 -2.22271,3.96911 -1.19074,2.22271 -2.14332,4.5248 -0.95259,2.30209 -1.34951,3.96912 -0.0794,0.47629 -0.23814,1.34949 -0.0794,0.87321 -0.0794,1.27012 0,2.22271 1.27012,2.22271 1.27011,0 2.699,-1.50827 1.50826,-1.50826 2.93714,-3.73096 1.42888,-2.22271 2.61962,-4.44541 1.19073,-2.30209 1.90517,-3.73098 0.31753,-0.79382 0.95259,-0.79382 0.39691,0 0.39691,0.55568 0,0.23814 -0.23815,0.8732 -0.95258,1.98456 -2.30209,4.52479 -1.34949,2.46086 -2.93714,4.84233 -1.58765,2.30208 -3.33405,3.88973 -1.66704,1.50827 -3.41345,1.66703 z m 13.03713,0.0794 q -3.88974,0 -5.55677,-1.98456 -1.58764,-2.06394 -1.58764,-4.28664 0,-1.8258 0.8732,-3.33406 0.95259,-1.50826 2.22271,-1.58765 1.58764,-3.0959 3.41343,-6.7475 1.90518,-3.65158 3.49283,-7.06502 1.11135,-2.30209 2.77838,-4.44541 1.74641,-2.14332 3.81035,-2.46085 h 0.79383 q 0.63505,0 1.11134,0.0794 0.55569,0.0794 1.11136,0.31753 0.8732,0.39691 0.8732,1.19073 0,0.47629 -0.55567,0.47629 -0.23815,0 -0.63506,-0.23814 -0.95259,-0.39691 -1.66703,-0.39691 -0.47629,0 -0.8732,0.23814 -1.50827,0.79383 -2.14332,2.22271 -0.55568,1.42889 -0.55568,3.01653 0,1.27012 0.23815,2.61961 0.31753,1.27012 0.71444,2.30209 0.8732,2.22271 1.82579,4.36603 1.03197,2.14332 1.03197,4.60418 0,2.38147 -1.58765,5.08046 -1.58764,2.61962 -4.04849,4.20727 l 0.55567,0.0794 q 0.39691,0.0794 0.55567,0.0794 0.15877,0 0.23815,0 1.8258,0 3.41345,-1.03196 1.66702,-1.11136 2.93714,-2.69901 1.27012,-1.58764 2.85776,-4.4454 1.66703,-2.85777 3.17529,-6.03306 0.23815,-0.39691 0.55569,-0.39691 0.39691,0 0.55567,0.31752 0.23815,0.23815 0.0794,0.63506 -1.03197,2.22271 -2.38147,4.84232 -1.27012,2.54024 -2.93714,4.92171 -1.66703,2.30208 -3.88974,3.81035 -2.14332,1.42889 -4.84232,1.42889 -0.63506,0 -1.3495,-0.0794 -0.71444,-0.0794 -1.42888,-0.31753 -0.79382,0.31753 -1.66703,0.4763 -0.79382,0.23814 -1.50826,0.23814 z m 2.38147,-2.38147 q 1.34949,-1.11135 2.38147,-3.25467 1.11135,-2.14333 1.11135,-5.63615 0,-3.09591 -0.63506,-6.58873 -0.63506,-3.49282 -0.63506,-6.19182 0,-0.55568 0,-0.95259 0.0794,-0.4763 0.15877,-0.87321 -1.03198,2.14333 -2.38147,5.00109 -1.34951,2.77838 -2.69901,5.398 -1.34949,2.61961 -2.30208,4.44541 0,0 0.39691,0.0794 0.47629,0 0.8732,0.55568 0.39691,0.47629 0.31753,1.98455 -0.0794,1.98456 0.87321,3.73098 1.03197,1.66702 2.54024,2.30208 z m -3.01654,1.11135 q 0.4763,0 0.87321,-0.0794 0.39691,-0.15876 0.71444,-0.23815 -1.19073,-0.8732 -2.14332,-2.30208 -0.8732,-1.50827 -1.03197,-3.81035 -1.42888,1.50826 -1.42888,3.25467 0,1.27012 0.79382,2.22271 0.79383,0.95258 2.2227,0.95258 z m 7.5598,22.62397 q -0.95259,0 -1.90518,-0.31753 -1.03197,-0.23815 -2.06394,-0.0794 0.4763,-0.4763 1.82579,-2.77839 1.34951,-2.2227 3.1753,-5.55676 1.74641,-3.33405 3.73097,-7.22379 1.98456,-3.88974 3.73097,-7.6207 1.74641,-3.81036 2.93715,-6.90626 1.27011,-3.1753 1.58764,-5.00109 -0.71444,1.03197 -1.42888,1.19073 -0.63506,0.0794 -0.31753,-0.47629 0.15877,-0.31753 0.63506,-1.50826 0.55567,-1.27012 0.95258,-2.14332 0.63507,-1.58765 1.03198,-3.49283 0.47629,-1.90518 0.47629,-3.65158 0,-1.11136 -0.23815,-1.90518 -0.23814,-0.79383 -0.8732,-0.87321 0,0 0.8732,-0.15876 0.87321,-0.15877 1.8258,-0.31754 0.95258,-0.15876 1.27011,-0.15876 0.4763,-0.0794 0.87321,-0.0794 0.39691,-0.0794 0.71444,-0.0794 0.71444,0 0.95259,0.55567 0.31753,0.4763 0.31753,2.06394 0,1.98456 -0.71444,5.08047 -0.63506,3.01654 -1.50827,5.31862 0.87321,-1.42888 2.22271,-3.65159 1.42888,-2.2227 3.25468,-4.52479 1.82579,-2.30209 3.81034,-3.81035 1.98456,-1.58765 3.88974,-1.58765 0.39691,0 1.03197,0.15877 2.2227,0.55567 3.09591,2.2227 0.95259,1.58765 0.95259,3.81035 0,2.38147 -0.95259,5.23924 -0.87321,2.85776 -2.38147,5.63614 -1.50827,2.699 -3.33406,4.92171 -2.22271,2.77837 -5.31861,4.44541 -3.09591,1.66703 -6.35059,1.66703 -2.93715,0 -5.47738,-1.50827 l -7.54132,18.97238 q -1.11135,2.38147 -2.14333,3.25467 -1.03196,0.87321 -2.61961,0.87321 z m 15.2414,-23.25902 q 2.22271,0 5.00109,-2.06395 2.77839,-2.06394 5.31862,-5.23923 2.61962,-3.25467 4.36603,-6.50935 1.19073,-2.22271 1.7464,-4.0485 0.55568,-1.90517 0.55568,-3.25467 0,-3.09591 -2.2227,-3.09591 -1.03197,0 -2.699,1.11135 -1.58764,1.11135 -3.73097,4.0485 -2.30209,3.17529 -5.08047,8.01761 -2.699,4.76294 -5.55676,10.08156 0.95259,0.95259 2.30208,0.95259 z m 41.21787,1.82579 q -0.87321,0.0794 -1.98456,-0.39691 -1.11135,-0.4763 -1.98456,-1.74641 -0.79382,-1.27012 -0.79382,-3.57221 0,-1.90517 0.71443,-4.60417 -0.95258,1.50826 -2.46085,3.73097 -1.50826,2.14332 -3.25467,3.81035 -1.50827,1.42888 -2.85776,2.06394 -1.34951,0.63506 -2.46085,0.63506 -2.06395,0 -3.33407,-1.8258 -1.27011,-1.90517 -1.27011,-4.9217 0,-3.17529 1.58764,-7.22379 1.58765,-4.0485 5.15986,-8.41453 2.30208,-2.77838 5.55676,-4.44541 3.33405,-1.74641 6.50935,-1.74641 1.82579,0 3.49282,0.63506 1.66703,0.55567 2.93715,1.90518 0.55567,0.55567 0.55567,1.27011 0,0.4763 -0.39691,0.79383 -0.39691,0.31753 -1.03197,0.15876 -0.8732,-2.77838 -3.73097,-2.77838 -1.34949,0 -3.09591,0.8732 -2.699,1.42889 -5.63614,4.68356 -2.85777,3.25467 -5.00109,6.7475 -0.31753,0.47629 -1.03197,1.82579 -0.63506,1.3495 -1.27011,3.01653 -0.63507,1.66703 -0.87322,3.25468 -0.0794,0.47629 -0.0794,0.71444 0,0.15876 0,0.55568 0,2.61961 1.98456,2.61961 2.38147,0 5.398,-3.49282 2.06394,-2.54024 3.73097,-5.31862 1.66703,-2.77838 3.41344,-5.95367 1.19074,-2.14332 2.2227,-3.57221 1.03198,-1.42888 2.93715,-1.42888 0.87321,0 1.74641,0.23815 0.87321,0.23815 1.8258,0.0794 -0.63506,0.63506 -1.74642,2.38147 -1.03196,1.74641 -2.2227,3.96911 -1.19073,2.22271 -2.14332,4.5248 -0.95259,2.30209 -1.3495,3.96912 -0.0794,0.47629 -0.23815,1.34949 -0.0794,0.87321 -0.0794,1.27012 0,2.22271 1.27011,2.22271 1.27013,0 2.699,-1.50827 1.50827,-1.50826 2.93715,-3.73096 1.42888,-2.22271 2.61962,-4.44541 1.19073,-2.30209 1.90517,-3.73098 0.31754,-0.79382 0.95259,-0.79382 0.39691,0 0.39691,0.55568 0,0.23814 -0.23814,0.8732 -0.95259,1.98456 -2.30209,4.52479 -1.3495,2.46086 -2.93714,4.84233 -1.58765,2.30208 -3.33407,3.88973 -1.66702,1.50827 -3.41343,1.66703 z m 20.65782,-0.15876 q -1.50826,0 -3.01653,-1.19074 -1.50826,-1.27011 -1.50826,-4.0485 0,-2.14332 1.03197,-4.9217 0.95258,-2.699 2.54023,-5.23924 1.66703,-2.54023 2.38147,-4.12788 0.23815,-0.63506 0.23815,-1.11135 0,-1.42888 -1.8258,-2.06394 -1.7464,-0.63506 -4.60417,-0.71444 l -0.95259,2.61962 q -0.8732,2.54023 -2.46085,5.95367 -1.50827,3.41344 -3.41344,6.58873 -1.82579,3.1753 -3.81035,5.08047 -0.15876,0.15876 -0.39691,0.15876 -0.31753,0 -0.39691,-0.39691 -0.15877,-0.39691 0.31753,-0.95258 3.09591,-4.12788 5.55676,-9.12897 2.46085,-5.08047 4.12788,-10.3197 1.74641,-5.23924 2.54024,-9.68464 0.23814,-1.27013 0.8732,-1.8258 0.63506,-0.63506 1.3495,-0.63506 1.03197,0 1.90518,1.03197 0.8732,0.95259 0.8732,2.77838 0,0.31753 -0.0794,0.71445 0,0.39691 -0.0794,0.79382 -0.31753,1.66703 -1.90518,3.17529 -1.50827,1.42888 -2.46085,2.14332 0.79382,0.0794 1.66703,0.15877 0.8732,0 1.90517,0 3.73097,0 7.38256,-0.4763 0.15877,0.4763 0.15877,0.71444 0,1.03198 -0.63507,2.61962 -0.55567,1.58765 -1.19073,2.85777 -0.31753,0.71444 -1.27012,2.61962 -0.95258,1.82578 -2.06394,4.20725 -1.11135,2.30209 -1.90517,4.60418 -0.71445,2.2227 -0.71445,3.81035 0,2.06394 1.58765,2.06394 1.19074,0 2.61962,-1.50826 1.42888,-1.58765 2.77838,-3.81035 1.42888,-2.30209 2.54023,-4.44541 1.19074,-2.22271 1.8258,-3.49283 0.31753,-0.79382 0.8732,-0.79382 0.31754,0 0.31754,0.55568 0,0.31752 -0.23815,0.95259 -0.87321,1.82579 -2.06394,4.12787 -1.19074,2.30209 -2.699,4.5248 -1.42888,2.2227 -3.1753,3.88973 -1.66702,1.58765 -3.65158,2.06395 -0.23815,0.0794 -0.87321,0.0794 z m 17.32379,0.23814 q -2.93715,0 -5.31862,-1.90517 -2.30209,-1.90518 -2.30209,-5.79491 0,-3.57221 1.74642,-7.62071 1.74641,-4.12787 4.44541,-7.22379 2.30209,-2.699 5.15985,-4.44541 2.85776,-1.74641 5.398,-1.74641 1.74641,0 3.016526,0.95259 1.349497,1.03197 1.349497,2.93714 0,1.98456 -1.508259,4.36603 -1.508264,2.38147 -4.286644,4.44541 -1.19074,0.87321 -3.01653,1.66703 -1.82579,0.79382 -3.65159,1.3495 -1.8258,0.4763 -3.01653,0.4763 -0.39691,0.95258 -0.79383,2.54023 -0.31752,1.58764 -0.31752,3.25468 0,1.98455 0.79382,3.5722 0.79383,1.58764 2.93715,1.58764 2.61962,0 4.76294,-1.50826 2.14332,-1.50826 3.81035,-3.73097 1.66703,-2.30208 2.778384,-4.60417 1.190735,-2.30209 1.90517,-3.88974 0.4763,-1.11135 1.270123,-1.11135 0.396912,0 0.396912,0.39691 0,0.31753 -0.23815,0.79382 -1.111354,2.38147 -2.38147,5.08048 -1.270116,2.61961 -3.016529,5.00108 -1.74641,2.30209 -4.20726,3.73097 -2.38147,1.42888 -5.71553,1.42888 z m -1.42888,-13.97129 q 1.11135,0 3.73097,-0.79382 2.61962,-0.87321 4.76294,-2.699 2.06394,-1.82579 3.17529,-3.96911 1.111353,-2.22271 1.111353,-3.73098 0,-1.74641 -1.270113,-1.74641 -0.95259,0 -2.61962,1.27012 -1.66703,1.27012 -4.12788,4.28665 -1.50827,1.90518 -2.85776,4.12788 -1.34951,2.2227 -1.90518,3.25467 z m 64.733519,21.1157 q -5.715532,0 -11.034146,-1.42888 -5.31862,-1.3495 -9.525879,-4.12788 -4.207266,-2.77839 -6.747498,-6.98565 -2.460851,-4.20726 -2.460851,-9.92279 0,-4.20726 1.508266,-8.9702 0.873204,-2.699 2.46085,-4.60417 1.667028,-1.90518 3.413437,-2.93715 1.746415,-1.03197 2.778381,-1.03197 1.349504,0 1.111354,1.27012 -0.476293,0.55567 -1.667027,1.34949 -1.111354,0.71445 -2.460851,1.90518 -1.270116,1.19074 -2.460851,3.09591 -1.111354,1.8258 -1.587647,4.68356 -0.158769,1.03197 -0.31753,2.06394 -0.07938,1.03197 -0.07938,1.98456 0,5.15985 2.222701,9.12897 2.222708,3.96911 5.794913,6.58873 3.651585,2.61962 7.938233,3.88973 4.366028,1.34951 8.573287,1.27012 6.429967,-0.15876 11.431057,-1.82579 5.001089,-1.58765 8.890817,-4.28665 3.889736,-2.699 6.826886,-5.95367 2.460851,-2.699 4.921702,-6.58873 2.460851,-3.88974 4.76294,-8.33515 2.38147,-4.52479 4.4454089,-8.9702 2.143327,-4.44541 3.969116,-8.41453 1.825797,-3.96912 3.175294,-6.7475 1.34950298,-2.85776 2.22270798,-3.96911 -6.27120598,-1.90518 -12.06611888,-2.93715 -5.715525,-1.11135 -12.224873,-1.42888 -5.953675,-0.31753 -10.637233,1.34949 -4.604178,1.66703 -7.858852,4.5248 -3.175293,2.77838 -4.921702,6.11244 -1.667034,3.33405 -1.667034,6.42997 0,2.699 1.349504,4.84232 1.428877,2.06394 4.286647,3.01653 1.90517,0.55567 3.730967,0.55567 2.857762,0 5.001089,-1.19073 2.14332,-1.19074 3.572204,-2.85777 1.508259,-1.7464 2.222701,-3.25467 0.793824,-1.58765 0.793824,-2.30209 v -0.0794 q 0.396911,-0.47629 0.793823,-0.47629 0.793823,0 0.793823,1.11135 -0.396911,3.41344 -2.460851,5.95368 -1.984558,2.54023 -4.84232,3.88972 -2.857762,1.34951 -6.033055,1.34951 -2.222708,0 -4.286647,-0.71444 -4.366029,-1.58765 -6.588737,-5.08047 -2.222701,-3.57221 -2.222701,-7.70009 0,-3.49282 1.508259,-6.90626 1.508266,-3.49282 4.604178,-6.35059 3.095912,-2.93714 7.700083,-4.68355 4.604178,-1.74642 10.796002,-1.74642 1.031966,0 1.667027,0 0.635055,0 2.143321,0.15877 3.730973,0.31752 7.541321,1.27012 3.810355,0.8732 7.3031789,1.98455 3.492816,1.11136 6.429967,2.14332 2.93714298,1.03198 4.842315,1.50827 0.23815,-0.31753 1.3495,-1.11135 1.19074,-0.79383 2.38147,-1.66703 1.27012,-0.87321 1.98456,-1.50827 0.71444,-0.63505 0.0794,-0.63505 h -0.0794 q 0.23815,-0.0794 0.63506,-0.0794 0.79382,0 1.19074,0.55568 0.39691,0.47629 0.39691,1.03197 0,1.03197 -0.9526,1.03197 -0.15876,0 -0.63505,-0.15876 -0.31753,-0.31753 -1.19073,0.31752 -0.79383,0.63506 -1.66703,1.50827 -0.79383,0.79382 -1.27012,1.3495 1.74641,0.55568 4.36602,1.3495 2.6990001,0.71444 5.7155401,1.50826 3.09591,0.71445 6.03305,1.19074 2.93714,0.47629 5.23923,0.47629 2.22271,0 3.49283,-0.55567 1.34949,-0.55568 1.34949,-1.8258 0,-0.47629 0.15877,-0.79382 0.23815,-0.39691 0.79383,-0.39691 0.39691,0 0.55567,0.71444 0.15877,0.63505 0.15877,1.03197 0,1.90517 -2.06395,3.09591 -1.98456,1.19073 -5.00108,1.19073 -0.47629,0 -0.95259,0 -0.4763,-0.0794 -1.03197,-0.15876 -8.89082,-1.11135 -13.8919101,-2.85776 -4.9217,-1.74642 -6.19182,-2.30209 -3.572204,5.71552 -5.874286,11.74858 -2.302089,6.03306 -4.366028,12.06612 -1.984558,6.03305 -4.6835589,11.6692 -2.61962,5.63614 -6.985648,10.63723 -3.175293,3.57221 -7.779464,6.03306 -4.524797,2.46085 -9.84341,3.65158 -5.31862,1.27012 -10.795995,1.27012 z m 49.7118309,-7.46193 q -3.016524,0 -4.445409,-1.98456 -1.428878,-2.06395 -1.428878,-5.00109 0,-3.57221 1.667028,-7.46194 1.58764698,-3.65159 4.048499,-6.66811 2.46085,-3.01653 5.31861,-4.84233 2.85777,-1.90517 5.5567601,-1.90517 3.01653,0 4.44541,1.98456 1.42889,1.98456 1.42889,5.00108 0,3.65159 -1.66703,7.46194 -0.95259,2.14332 -2.699,4.76294 -1.74641,2.54023 -3.96912,4.68356 0.4763,0.8732 1.34951,1.50826 0.8732,0.55568 2.38147,0.55568 1.90517,0 3.57219,-1.58765 1.74642,-1.58765 3.1753,-3.81035 1.42888,-2.30209 2.54024,-4.60417 1.11135,-2.30209 1.82579,-3.73098 0.23815,-0.47629 0.79382,-0.47629 0.31753,0 0.4763,0.31753 0.15876,0.23815 -0.0794,0.79382 -0.47629,1.19074 -1.58765,3.57221 -1.11135,2.30209 -2.69899,4.84232 -1.58765,2.46085 -3.65159,4.20727 -2.06394,1.7464 -4.60418,1.7464 -1.7464,0 -3.01653,-0.55567 -1.2701101,-0.63506 -2.0639401,-1.50827 -1.66702,1.27012 -3.33405,1.98456 -1.66703,0.71445 -3.33406,0.71445 z m 1.19073,-1.74642 q 2.14333,0 4.60418,-2.06394 -0.63506,-0.95258 -0.95258,-1.98456 -0.31753,-1.03196 -0.31753,-1.90517 0,-1.42888 0.63505,-2.46086 0.71444,-1.03196 2.14333,-1.03196 1.0319601,0 1.6670201,0.79382 0.71445,0.71444 0.71445,1.66703 0,0.23814 -0.0794,0.47629 0,0.15876 -0.0794,0.39691 1.3495,-1.82579 2.54024,-4.28664 2.61961,-5.63615 2.61961,-9.28773 0,-1.8258 -0.71444,-2.85777 -0.71444,-1.03197 -2.14332,-1.03197 -1.66703,0 -3.65159,1.42889 -1.9051801,1.42887 -3.7309701,3.81034 -1.74641,2.38147 -3.09591,5.31862 -1.27011,2.699 -2.06394,5.23924 -0.71444002,2.46085 -0.71444002,4.28664 0,1.58764 0.63505002,2.54023 0.63507,0.95259 1.98456,0.95259 z m 28.5960401,2.06394 q -4.52479,0 -6.35059,-2.14332 -1.82579,-2.22271 -1.82579,-5.398 0,-3.49282 1.58765,-7.46194 1.66703,-3.96911 3.88974,-6.90626 2.30208,-3.09591 5.08046,-4.76294 2.77838,-1.74641 5.63615,-1.74641 3.01653,0 4.44541,1.50826 1.42888,1.50827 1.11135,4.0485 -0.15876,1.58765 -1.50826,3.1753 -1.34951,1.50826 -2.699,1.50826 -0.63506,0 -1.11136,-0.47629 0.63507,-0.79382 1.34951,-1.90518 0.71443,-1.11135 1.03196,-2.14333 0.31753,-0.95258 0.31753,-1.90517 0,-1.98455 -1.90517,-1.98455 -2.14332,0 -4.52479,2.2227 -2.30209,2.14332 -4.0485,4.68356 -0.71444,0.95258 -1.74642,3.01653 -0.95258,1.98456 -1.7464,4.44541 -0.79383,2.38147 -0.79383,4.68355 0,2.38147 1.03197,4.28664 1.11135,1.8258 3.65159,1.8258 3.49282,0 5.95368,-2.14333 2.54023,-2.2227 4.44541,-5.47737 1.98455,-3.25468 3.5722,-6.35059 0.47629,-0.95259 0.95259,-0.95259 0.39691,0 0.39691,0.63506 0,0.31753 -0.23815,0.79383 -1.90517,4.12787 -3.88973,7.54132 -1.98456,3.41343 -4.84232,5.39799 -2.77838,1.98456 -7.2238,1.98456 z m 21.13417,0 q -4.5248,0 -6.35059,-2.14332 -1.8258,-2.22271 -1.8258,-5.398 0,-3.49282 1.58765,-7.46194 1.66703,-3.96911 3.88974,-6.90626 2.30208,-3.09591 5.08047,-4.76294 2.77838,-1.74641 5.63614,-1.74641 3.01652,0 4.44541,1.50826 1.42888,1.50827 1.11135,4.0485 -0.15877,1.58765 -1.50826,3.1753 -1.3495,1.50826 -2.699,1.50826 -0.63506,0 -1.11136,-0.47629 0.63506,-0.79382 1.34951,-1.90518 0.71444,-1.11135 1.03196,-2.14333 0.31753,-0.95258 0.31753,-1.90517 0,-1.98455 -1.90517,-1.98455 -2.14332,0 -4.52479,2.2227 -2.30209,2.14332 -4.0485,4.68356 -0.71444,0.95258 -1.74642,3.01653 -0.95258,1.98456 -1.74641,4.44541 -0.79382,2.38147 -0.79382,4.68355 0,2.38147 1.03197,4.28664 1.11135,1.8258 3.65159,1.8258 3.49282,0 5.95367,-2.14333 2.54024,-2.2227 4.44541,-5.47737 1.98456,-3.25468 3.57221,-6.35059 0.47629,-0.95259 0.95258,-0.95259 0.39692,0 0.39692,0.63506 0,0.31753 -0.23815,0.79383 -1.90517,4.12787 -3.88973,7.54132 -1.98456,3.41343 -4.84232,5.39799 -2.77838,1.98456 -7.22379,1.98456 z M 76.2229,-441.7868 q -1.19073,0 -1.98455,-0.79382 -0.71445,-0.87321 -0.71445,-2.06395 0,-1.50826 1.19074,-2.61961 1.19073,-1.11136 2.61961,-1.11136 1.27012,0 2.06395,0.79383 0.79382,0.79382 0.79382,1.90518 0,1.50826 -1.19073,2.699 -1.19074,1.19073 -2.77839,1.19073 z m -6.42997,32.22923 q -2.93714,0 -4.12788,-1.66704 -1.19073,-1.74641 -1.19073,-3.96911 0,-1.19073 0.23815,-2.38147 0.31752,-1.27012 0.71443,-2.30209 l 5.31862,-13.57437 q 0.23814,-0.63507 0.23814,-1.11136 0,-0.79382 -0.39691,-1.3495 -0.39691,-0.63506 -0.55567,-0.87321 l 4.36603,-0.15876 q 1.19073,-0.0794 1.66702,0.31753 0.55569,0.31753 0.55569,0.79383 0,0.47629 -0.55569,1.7464 l -6.58872,15.47956 q 0,0 -0.4763,1.03197 -0.39692,0.95259 -0.4763,1.27012 -0.23814,1.19073 -0.31753,1.50826 -0.0794,0.31753 -0.0794,0.39691 0,0.0794 0,0.63506 0,1.03197 0.4763,1.74641 0.55568,0.71444 1.82579,0.71444 0.79383,0 1.8258,-0.47629 1.03196,-0.4763 1.50826,-0.95259 1.98456,-2.06394 3.88973,-5.398 1.98456,-3.41344 3.65159,-6.7475 0.31753,-0.79382 0.79382,-0.79382 0.39691,0 0.39691,0.55568 0,0.31752 -0.23814,0.95259 -0.79382,1.66702 -1.98456,4.12787 -1.19073,2.46086 -2.85776,4.92171 -1.58765,2.38147 -3.49282,3.96912 -1.90518,1.58765 -4.12789,1.58765 z" id="text25" style="font-size:114.212px;line-height:113.22%;font-family:'Great Vibes';-inkscape-font-specification:'Great Vibes, Normal';letter-spacing:0.597645px;fill:#ffa500;stroke-width:0.0609569;stroke-linecap:round" aria-label="Gaspare Tocci" /></g></g></svg>