<?xml version="1.0" encoding="UTF-8" standalone="no"?><svg width="300" height="300" viewBox="0 0 79.374998 79.375" version="1.1" id="svg1" xml:space="preserve" inkscape:version="1.3.1 (91b66b0783, 2023-11-16)" sodipodi:docname="blender.svg" xmlns:inkscape="http://www.inkscape.org/namespaces/inkscape" xmlns:sodipodi="http://sodipodi.sourceforge.net/DTD/sodipodi-0.dtd" xmlns="http://www.w3.org/2000/svg" xmlns:svg="http://www.w3.org/2000/svg"><sodipodi:namedview id="namedview1" pagecolor="#505050" bordercolor="#eeeeee" borderopacity="1" inkscape:showpageshadow="0" inkscape:pageopacity="0" inkscape:pagecheckerboard="0" inkscape:deskcolor="#505050" inkscape:document-units="mm" inkscape:zoom="0.24364019" inkscape:cx="-1079.4607" inkscape:cy="-328.35305" inkscape:window-width="1920" inkscape:window-height="1017" inkscape:window-x="1912" inkscape:window-y="-8" inkscape:window-maximized="1" inkscape:current-layer="layer1" /><defs id="defs1" /><g inkscape:label="Livello 1" inkscape:groupmode="layer" id="layer1"><g id="g707"><path d="m 37.766675,8.80009 c -0.287087,0.064413 -0.567378,0.1603061 -0.839909,0.2737154 v 0 c -0.193957,0.080713 -0.384733,0.1675683 -0.562926,0.2728944 v 0 c -0.116101,0.068597 -0.217749,0.1530991 -0.324709,0.2321075 v 0 C 35.713664,9.8192111 35.428092,10.098168 35.223289,10.43381 v 0 c -0.07175,0.117537 -0.134809,0.240474 -0.187231,0.369577 v 0 c -0.02723,0.06702 -0.05147,0.13544 -0.07302,0.205592 v 0 c -0.0611,0.198985 -0.103464,0.408012 -0.113812,0.63187 -0.06425,1.389945 1.158982,2.323388 2.201548,3.126299 l -0.06362,-0.06362 v 0 l 0.06362,0.06362 c 0.167118,0.1287 0.342162,0.262254 0.493169,0.385073 0.237956,0.193539 0.500502,0.386225 0.748942,0.57884 v 0 c 0.404436,0.313547 0.80239,0.628199 1.222543,0.943925 v 0 c 1.903843,1.430669 3.891755,2.911629 5.268691,4.711891 h -21.999135 -6.68336 v -0.0135 c -0.625547,0.09508 -1.225424,0.238138 -1.770376,0.471145 v 0 c -0.06504,0.02779 -0.131439,0.05344 -0.194983,0.08362 v 0 c -0.124406,0.05904 -0.243601,0.126418 -0.361825,0.194991 v 0 c -0.0577,0.03347 -0.118833,0.06205 -0.174997,0.0979 -0.116038,0.07412 -0.220559,0.155617 -0.325932,0.236591 v 0 c -0.328774,0.252655 -0.611552,0.53293 -0.834605,0.836239 v 0 c -0.123466,0.167884 -0.22453,0.342936 -0.314913,0.520505 v 0 c -0.09981,0.196089 -0.177767,0.396266 -0.236591,0.598827 v 0 c -0.439018,1.511659 0.264835,3.12465 2.264769,3.676998 3.842024,1.0611 10.76548,0.9369 14.849929,0.07097 l -0.09097,-0.09097 h 0.557219 v 0.557219 l -0.270857,-0.270858 c -0.133444,0.144242 -0.266154,0.28895 -0.406291,0.429135 v 0 c -0.0925,0.09254 -0.187137,0.18364 -0.28228,0.274528 v 0 c -0.224088,0.214079 -0.450638,0.426452 -0.687348,0.632281 l -0.02407,0.04855 -0.01547,-0.01547 c -0.09922,0.08588 -0.203272,0.168318 -0.304312,0.252915 v 0 c -0.352668,0.295273 -0.713775,0.584224 -1.083028,0.866425 v 0 c -0.105224,0.08041 -0.208798,0.162334 -0.314913,0.241895 v 0 c -0.10655,0.07989 -0.214205,0.156667 -0.321441,0.235778 v 0 c -0.160867,0.118667 -0.322775,0.233229 -0.484613,0.350403 v 0 c -0.108002,0.07823 -0.215301,0.156099 -0.323477,0.233734 v 0 c -0.108105,0.0776 -0.215412,0.156201 -0.323478,0.233331 v 0 c -0.162129,0.115714 -0.323556,0.235486 -0.485022,0.350403 v 0 c -0.109881,0.07823 -0.21336,0.156596 -0.322665,0.234555 v 0 c -0.233891,0.166834 -0.458097,0.333715 -0.68775,0.500115 l -0.06812,0.136238 -0.0502,-0.0502 c -0.251794,0.183214 -0.513645,0.366625 -0.757104,0.550691 v 0 c -0.009,0.0071 -0.0191,0.01358 -0.02818,0.02037 -0.0596,0.04515 -0.11828,0.09148 -0.177846,0.136656 v 0 c -0.158253,0.120009 -0.314707,0.242393 -0.472779,0.362639 v 0 c -0.10535,0.08014 -0.209642,0.161663 -0.314921,0.241895 v 0 c -0.105271,0.08023 -0.209705,0.161577 -0.314913,0.241904 v 0 c -0.15793,0.120569 -0.314984,0.24229 -0.47278,0.363049 v 0 c -0.105026,0.08037 -0.209531,0.161443 -0.314502,0.241896 v 0 c -0.205134,0.157211 -0.410206,0.314494 -0.615143,0.471958 l -0.101577,0.203959 -0.07096,-0.07097 c -0.105019,0.08075 -0.210337,0.161095 -0.315316,0.241896 v 0 c -0.213873,0.1646 -0.428338,0.328395 -0.642068,0.493177 v 0 c -0.153226,0.11813 -0.307375,0.235052 -0.460545,0.35326 v 0 c -0.104789,0.08087 -0.210139,0.160993 -0.314913,0.241896 v 0 c -0.104836,0.08095 -0.210092,0.161332 -0.314912,0.242298 v 0 c -0.157119,0.121348 -0.315309,0.241254 -0.472395,0.362636 v 0 c -0.104821,0.081 -0.210494,0.160882 -0.315315,0.241895 v 0 c -0.202198,0.156265 -0.406006,0.310406 -0.608212,0.466662 l -0.10565,0.21171 -0.07381,-0.07381 c -0.104829,0.08101 -0.210479,0.160914 -0.315324,0.241904 v 0 c -0.210692,0.162749 -0.423136,0.323181 -0.633906,0.485832 v 0 c -0.156099,0.120466 -0.313358,0.239401 -0.469512,0.359788 v 0 c -0.104916,0.08089 -0.210376,0.161048 -0.315323,0.241896 v 0 c -0.104884,0.08079 -0.210408,0.16074 -0.315324,0.241485 v 0 c -0.157417,0.121153 -0.315678,0.241209 -0.47319,0.362236 v 0 c -0.105042,0.08071 -0.210226,0.161245 -0.315323,0.241896 v 0 c -0.104939,0.08053 -0.209918,0.161024 -0.314913,0.241493 v 0 c -0.157725,0.120877 -0.315331,0.241927 -0.473182,0.362638 v 0 c -0.105168,0.08041 -0.2101,0.161151 -0.315323,0.241486 v 0 c -0.206895,0.157945 -0.412472,0.317644 -0.619635,0.475226 l -0.09912,0.198252 -0.06939,-0.06939 c -0.24563,0.186655 -0.488599,0.376862 -0.734662,0.562934 v 0 c -0.07081,0.05352 -0.140485,0.108475 -0.211308,0.16194 v 0 c -0.03315,0.02502 -0.0656,0.05091 -0.098719,0.07586 -0.1177667,0.08885 -0.2647955,0.183719 -0.3879299,0.273305 v 0 c -0.1036053,0.07539 -0.2194143,0.154094 -0.326335,0.230071 v 0 c -0.1070707,0.0761 -0.2168015,0.153715 -0.3267455,0.230474 v 0 c -0.1648368,0.115085 -0.3198777,0.228699 -0.4899088,0.345511 v 0 c -0.1133462,0.07783 -0.2116469,0.151346 -0.3267455,0.230063 v 0 c -0.1438318,0.09837 -0.2813092,0.201211 -0.4270907,0.301051 L 7.4687634,45.335785 7.3002952,45.167317 C 7.1910143,45.242697 7.08347,45.321458 6.9739602,45.39779 v 0 c -0.1203006,0.08385 -0.2388488,0.167434 -0.3589678,0.252505 v 0 c -0.2628062,0.186111 -0.5265203,0.360594 -0.7848429,0.553138 v 0 c -0.3737369,0.27857 -0.7396275,0.564165 -1.091183,0.858262 v 0 c -0.1022081,0.0855 -0.1933808,0.176567 -0.2928893,0.263517 v 0 C 4.3228481,47.432891 4.201474,47.541145 4.0830284,47.651144 v 0 c -0.5245547,0.487123 -1.0050939,0.994193 -1.3983521,1.532964 v 0 c -0.1197638,0.16408 -0.2318391,0.330638 -0.3357128,0.500108 v 0 c -0.02226,0.03639 -0.048231,0.07144 -0.069781,0.108097 -0.049888,0.08492 -0.08174,0.168066 -0.1264577,0.252505 v 0 c -0.032838,0.06197 -0.062913,0.123529 -0.093004,0.185195 v 0 c -0.061413,0.125937 -0.1296389,0.25245 -0.1798904,0.376918 v 0 c -0.028496,0.07049 -0.044757,0.138906 -0.069781,0.208853 v 0 C 1.702442,51.117348 1.6271278,51.412456 1.5816125,51.701382 v 0 c -0.502839,3.19177 2.6217316,5.489116 6.1657123,4.082871 0.033706,-0.01334 0.065597,-0.03221 0.09913,-0.0461 v 0 c 0.064255,-0.02652 0.1263709,-0.05983 0.1900892,-0.08811 v 0 c 0.1276022,-0.05668 0.2551177,-0.113456 0.3805887,-0.17663 v 0 c 0.062439,-0.03142 0.1269392,-0.05636 0.1888656,-0.08933 v 0 c 0.1187849,-0.06315 0.2334178,-0.138078 0.350403,-0.206414 v 0 C 9.073457,55.109309 9.1914605,55.04387 9.3068039,54.970853 v 0 c 0.1685556,-0.106695 0.33374,-0.221264 0.4988928,-0.336537 v 0 c 0.058729,-0.04097 0.117893,-0.08084 0.1762198,-0.122779 v 0 C 10.369641,54.232754 10.74798,53.936478 11.120012,53.627983 v 0 c 0.23716,-0.196656 0.466717,-0.399162 0.69877,-0.600871 v 0 c 0.352455,-0.306364 0.703576,-0.599774 1.047128,-0.901907 v 0 c 0.07049,-0.06197 0.139916,-0.121043 0.210084,-0.182345 v 0 c 0.265971,-0.232345 0.534595,-0.472662 0.79748,-0.689795 0.134478,-0.111065 0.273534,-0.218672 0.408738,-0.329184 v 0 c 0.183616,-0.150092 0.370027,-0.29825 0.554772,-0.447489 v 0 c 0.359346,-0.2903 0.717099,-0.581776 1.079358,-0.870095 v 0 c 0.07775,-0.06189 0.153841,-0.124981 0.231697,-0.186829 v 0 c 0.385499,-0.306253 0.770176,-0.614433 1.156456,-0.920678 v 0 c 0.20909,-0.165769 0.417729,-0.331877 0.626566,-0.498071 v 0 c 0.361849,-0.287964 0.720477,-0.578785 1.080171,-0.869275 v 0 c 0.05194,-0.04199 0.10269,-0.08523 0.154599,-0.12727 v 0 c 0.398247,-0.322594 0.792018,-0.649781 1.185008,-0.97779 v 0 c 0.21362,-0.178288 0.432592,-0.351137 0.644105,-0.531517 v 0 c 0.350672,-0.299054 0.697538,-0.601976 1.041019,-0.908032 v 0 c 0.08937,-0.07964 0.179179,-0.158862 0.268,-0.239038 v 0 c 0.175217,-0.158183 0.346022,-0.320494 0.518871,-0.480942 v 0 c 0.172786,-0.160377 0.348698,-0.317676 0.518879,-0.480532 0,2.142621 0.07578,4.128299 0.539269,6.10902 v 0 c 0.05873,0.250965 0.124492,0.502318 0.196617,0.753426 v 0 c 0.07728,0.269105 0.157417,0.538502 0.251684,0.8085 v 0 c 0.104876,0.300357 0.219106,0.601487 0.347143,0.903951 v 0 c 0.0082,0.01934 0.01373,0.03852 0.02202,0.05794 0.06473,0.151142 0.135346,0.296758 0.202735,0.445444 v 0 c 0.07736,0.170678 0.152121,0.343686 0.232921,0.511128 v 0 c 0.09317,0.193088 0.192362,0.380249 0.290032,0.569051 v 0 c 0.108641,0.210021 0.224908,0.412456 0.33898,0.61718 v 0 c 0.264275,0.47428 0.53709,0.940634 0.829301,1.386519 v 0 c 0.554701,0.846414 1.169504,1.627926 1.816065,2.372464 v 0 c 0.723556,0.833215 1.493298,1.610196 2.316575,2.316583 v 0 c 0.446746,0.383312 0.903889,0.751973 1.376329,1.098121 v 0 c 0.944722,0.692194 1.937297,1.31089 2.969245,1.855218 v 0 c 0.181106,0.09553 0.36687,0.181091 0.550289,0.272082 v 0 c 6.116179,3.03425 13.480831,3.559657 20.034181,1.654938 v 0 c 0.283054,-0.08227 0.558853,-0.184066 0.838686,-0.27535 v 0 c 0.279794,-0.09127 0.562445,-0.174672 0.838686,-0.274938 v 0 c 0.202214,-0.07341 0.399076,-0.15838 0.599238,-0.236592 v 0 c 0.265411,-0.103715 0.529014,-0.211315 0.790542,-0.323477 v 0 c 0.195062,-0.08366 0.392619,-0.161309 0.585368,-0.249647 v 0 c 0.189055,-0.08666 0.370919,-0.18664 0.557629,-0.277797 v 0 c 0.186766,-0.09119 0.373729,-0.18169 0.558032,-0.277386 v 0 c 0.183593,-0.09533 0.370485,-0.184121 0.551512,-0.283914 v 0 c 0.118651,-0.06544 0.231255,-0.140714 0.348769,-0.208039 v 0 c 0.05881,-0.03371 0.116078,-0.06986 0.174594,-0.104016 v 0 c 0.116985,-0.06828 0.232976,-0.13822 0.348769,-0.20845 v 0 c 0.115778,-0.07025 0.234634,-0.135496 0.34918,-0.207629 v 0 c 0.05723,-0.036 0.117293,-0.06749 0.174183,-0.104024 v 0 c 0.108657,-0.0697 0.214757,-0.142711 0.322254,-0.214157 v 0 c 0.170568,-0.11337 0.333376,-0.237554 0.500929,-0.355297 v 0 c 0.109059,-0.07665 0.218593,-0.152389 0.326335,-0.230884 v 0 c 0.08273,-0.06031 0.168523,-0.116085 0.25046,-0.177443 v 0 c 0.288856,-0.21632 0.567449,-0.445263 0.846027,-0.675112 v 0 c 0.135409,-0.11172 0.270566,-0.223662 0.403433,-0.338571 v 0 c 0.231374,-0.200106 0.461934,-0.400489 0.685311,-0.610249 v 0 c 0.282178,-0.264985 0.556082,-0.539553 0.824809,-0.819922 v 0 c 0.325735,-0.339842 0.635959,-0.695755 0.940665,-1.05814 l 0.148481,-0.296971 v 0 l -0.148481,0.296971 c 0.279888,-0.332871 0.554393,-0.670416 0.815431,-1.022255 v 0 c 0.0791,-0.106605 0.152768,-0.218396 0.230071,-0.326738 v 0 c 0.116054,-0.162658 0.233173,-0.324156 0.345099,-0.49073 v 0 c 0.07452,-0.110891 0.157014,-0.214125 0.22966,-0.326745 v 0 c 0.109486,-0.169732 0.207305,-0.349693 0.312466,-0.523363 v 0 c 0.0701,-0.115746 0.135425,-0.235762 0.203556,-0.353261 v 0 c 0.0341,-0.05881 0.06797,-0.117782 0.101568,-0.177033 v 0 c 0.06718,-0.118366 0.138417,-0.233149 0.203556,-0.35326 v 0 c 0.0326,-0.06015 0.06947,-0.116472 0.101569,-0.177041 v 0 c 0.06426,-0.121271 0.132354,-0.239204 0.194581,-0.362228 v 0 c 0.09369,-0.18525 0.184358,-0.3729 0.273304,-0.562113 v 0 c 0.02968,-0.06307 0.06189,-0.124137 0.09097,-0.187642 v 0 c 0.05849,-0.127642 0.111333,-0.259743 0.167655,-0.389161 v 0 c 0.0281,-0.06465 0.05644,-0.12911 0.08403,-0.19417 v 0 c 0.05526,-0.130476 0.112565,-0.259349 0.165618,-0.391601 v 0 c 0.0266,-0.06639 0.0506,-0.135046 0.07665,-0.201922 v 0 c 0.07823,-0.200603 0.15583,-0.401538 0.228839,-0.606168 v 0 c 0.02447,-0.06852 0.04791,-0.137825 0.07183,-0.206816 v 0 c 0.07175,-0.207558 0.139238,-0.418194 0.205585,-0.629833 v 0 c 0.0221,-0.07049 0.04744,-0.138709 0.06891,-0.209666 v 0 c 0.06504,-0.214662 0.122574,-0.434692 0.181927,-0.653491 v 0 c 0.03086,-0.113851 0.06528,-0.225232 0.09464,-0.340204 v 0 c 0.09048,-0.354674 0.174294,-0.714044 0.249647,-1.079358 0.01105,-0.05352 0.01634,-0.10494 0.02692,-0.15827 v 0 c 0.06378,-0.320707 0.113986,-0.636669 0.16235,-0.951677 v 0 c 0.02873,-0.187318 0.06023,-0.37556 0.08363,-0.560897 h -0.08757 v -0.835418 l 0.131351,0.394055 c 0.124658,-1.191718 0.147392,-2.34504 0.06402,-3.457536 h -0.19537 v -0.835418 l 0.168476,0.505002 c -0.05755,-0.61898 -0.1519,-1.223538 -0.268411,-1.819326 v 0 c -0.0371,-0.189631 -0.06939,-0.381283 -0.112178,-0.568641 v 0 c -0.152861,-0.669278 -0.348413,-1.321317 -0.570274,-1.962502 v 0 C 71.468179,37.295389 71.362955,37.000613 71.246728,36.71032 v 0 C 67.906366,28.36727 59.006926,22.367603 51.42874,16.892743 l 0.03876,0.03876 0.278609,0.278199 v 0 L 51.4675,16.931503 51.42874,16.892743 C 51.092174,16.649584 50.75227,16.40502 50.421585,16.163788 l 0.210487,0.210486 v 0 L 50.421585,16.163788 C 50.055316,15.896592 49.703389,15.63156 49.345898,15.366299 l 0.172549,0.172549 v 0 l -0.172549,-0.172549 c -0.366167,-0.271695 -0.73801,-0.544084 -1.093228,-0.814208 v 0 c -0.04128,-0.03134 -0.08578,-0.06331 -0.12686,-0.09464 -0.460947,-0.351697 -0.952758,-0.77301 -1.458313,-1.212336 l 0.06607,0.06607 0.278609,0.278609 v 0 l -0.278609,-0.278609 -0.06607,-0.06607 C 45.209247,11.977912 43.586674,10.507032 41.88667,9.5779153 l 0.112991,0.112991 0.278199,0.2786095 v 0 L 41.999661,9.6909063 41.88667,9.5779153 C 41.693739,9.4724708 41.501274,9.3665921 41.306607,9.2768718 v 0 C 41.146443,9.2030654 40.986018,9.1350687 40.824852,9.073316 v 0 C 40.292135,8.8691997 39.754777,8.7277044 39.21479,8.6857887 c -0.338689,-0.026286 -0.701059,0.00158 -1.065489,0.055098 v 0 c -0.127863,0.018866 -0.254873,0.03047 -0.382626,0.059124 z M 47.70239,31.294853 A 11.387158,11.387158 0 0 1 59.089479,42.681941 11.387158,11.387158 0 0 1 47.70239,54.069038 11.387158,11.387158 0 0 1 36.315293,42.681941 11.387158,11.387158 0 0 1 47.70239,31.294853 Z m -15.170968,9.585303 0.278609,2.506262 h -0.278609 z" style="fill:#ff9802;stroke-width:0.789374" id="path663" /><path d="m 47.005015,34.124648 0.30308,0.100755 h -0.835418 v -0.04081 c -0.417507,0.05762 -0.822346,0.130152 -1.205405,0.227616 v 0 c -0.07396,0.01879 -0.144329,0.04136 -0.217015,0.06157 v 0 c -0.217543,0.06055 -0.429435,0.127547 -0.635533,0.200296 v 0 c -0.0686,0.02423 -0.139095,0.04626 -0.206413,0.07175 v 0 c -0.201977,0.07657 -0.393526,0.163432 -0.584137,0.251273 v 0 c -0.190981,0.08801 -0.374352,0.182748 -0.553958,0.281467 v 0 c -0.180049,0.09896 -0.360421,0.19728 -0.52907,0.306348 v 0 c -0.113157,0.07317 -0.217891,0.153407 -0.325933,0.230884 v 0 C 37.409205,39.262345 37.652972,46.859571 42.475872,50 l -0.180301,-0.179898 v 0 L 42.475872,50 c 0.211292,0.13758 0.433248,0.264149 0.662056,0.383849 l -0.0071,-0.0071 v 0 l 0.0071,0.0071 c 0.171302,0.08962 0.348406,0.1724 0.52948,0.251282 v 0 c 0.158554,0.06907 0.314511,0.141108 0.480532,0.201511 v 0 c 0.130128,0.04736 0.269137,0.08385 0.403843,0.125645 l -0.02858,-0.02858 v 0 l 0.02858,0.02858 c 0.131692,0.04089 0.261662,0.08374 0.397719,0.119108 v 0 c 0.118027,0.03071 0.239709,0.05636 0.361012,0.08281 v 0 c 0.11262,0.02455 0.228437,0.04452 0.343875,0.06528 v 0 c 0.115596,0.02076 0.225871,0.04878 0.344285,0.06568 v 0 c 0.06362,0.0091 0.130918,0.01287 0.195394,0.02084 v -0.103616 l 0.643292,0.160724 c 0.421257,0.02589 0.853037,0.03663 1.306161,0.0135 0.09231,-0.0047 0.185929,-0.021 0.27861,-0.02771 v -0.146445 l 0.419749,0.104837 c 0.237215,-0.02502 0.472748,-0.05005 0.709782,-0.08892 v 0 c 0.310808,-0.05092 0.620708,-0.111065 0.927198,-0.186829 v 0 c 0.07412,-0.01831 0.146989,-0.03813 0.220685,-0.05794 v 0 c 0.214434,-0.0577 0.422844,-0.131715 0.632683,-0.202333 v 0 c 0.0701,-0.0236 0.141843,-0.04263 0.211308,-0.06773 v 0 c 0.201938,-0.07286 0.396242,-0.157504 0.591888,-0.243119 v 0 c 0.06426,-0.0281 0.126655,-0.05904 0.190097,-0.08852 v 0 c 0.126876,-0.05904 0.256736,-0.112335 0.380178,-0.17704 v 0 c 0.05573,-0.02921 0.116733,-0.04957 0.171737,-0.07995 0.0055,-0.0032 0.01058,-0.0071 0.01634,-0.01018 v 0 c 0.121295,-0.06733 0.230892,-0.140382 0.346732,-0.210486 v 0 c 0.115738,-0.07002 0.235976,-0.137778 0.346322,-0.210487 v 0 c 0.05636,-0.03718 0.10981,-0.07554 0.164798,-0.113401 v 0 c 0.111341,-0.07657 0.215783,-0.15651 0.321441,-0.235779 v 0 c 0.116353,-0.0873 0.233931,-0.173954 0.343472,-0.264337 v 0 c 0.524349,-0.432632 0.966699,-0.900905 1.340428,-1.39345 v 0 c 0.0806,-0.106242 0.162737,-0.211702 0.236591,-0.320218 v 0 c 0.03828,-0.0562 0.0712,-0.114111 0.107694,-0.170923 v 0 c 0.07294,-0.113559 0.149152,-0.226116 0.21497,-0.341838 v 0 c 0.103566,-0.182069 0.194739,-0.367588 0.281057,-0.554362 v 0 c 0.09038,-0.195559 0.169992,-0.393684 0.241896,-0.593522 v 0 c 0.02439,-0.06773 0.0532,-0.134564 0.07546,-0.202735 v 0 c 0.07065,-0.216091 0.131896,-0.433879 0.181935,-0.653491 v 0 c 0.01784,-0.07823 0.02715,-0.157606 0.04239,-0.23618 v 0 c 0.761927,-3.924041 -1.658395,-8.248744 -5.697827,-9.874941 v 0 c -0.278546,-0.11213 -0.562831,-0.214023 -0.856226,-0.299409 v 0 c -0.573764,-0.166992 -1.175417,-0.278484 -1.800151,-0.33164 l 0.47278,0.117885 H 48.14351 v -0.156233 c -0.274504,-0.0047 -0.553043,0.0024 -0.835426,0.02123 -0.104528,0.0071 -0.200501,0.02479 -0.30308,0.03426 z" style="fill:#1976d2;fill-rule:evenodd;stroke:none;stroke-width:6.1286;stroke-linecap:round;stroke-linejoin:round;paint-order:stroke markers fill" id="path684" /><path style="fill:#ff9802;fill-opacity:1;fill-rule:evenodd;stroke:none;stroke-width:10.009;stroke-linecap:round;stroke-linejoin:round;stroke-dasharray:none;stroke-opacity:1;paint-order:stroke markers fill" id="path705" d="m 30.722144,42.051335 c 0.100174,0.06432 0.141568,0.161282 0.162007,0.275272 0.0061,0.03402 0.01876,0.07029 0.0086,0.103317 -0.0068,0.02209 -0.07454,0.03343 -0.05384,0.04372 1.165371,0.579141 2.349159,1.120455 3.523737,1.680684 -0.02024,-0.139333 -0.04461,-0.259623 -0.007,-0.397891 0.01185,-0.04354 0.08227,-0.106958 0.04262,-0.128503 -3.497901,-1.900434 -2.905787,-2.915375 -3.584541,-1.642655 -0.02005,0.03587 -0.03942,0.07213 -0.06016,0.107608 -0.01828,0.03127 -0.03655,0.06261 -0.0569,0.09258 -0.01664,0.02453 -0.04167,0.09764 -0.05393,0.07067 -0.02117,-0.0466 -0.02913,-0.175474 0.01667,-0.152641 6.825215,3.401904 4.410247,2.309117 3.249245,1.785237 -0.07106,-0.111258 -0.0971,-0.23821 -0.111311,-0.36748 -0.0038,-0.03482 -0.0019,-0.07018 -0.0066,-0.104892 -0.01127,-0.08303 -0.03612,-0.157842 -0.05908,-0.238281 -0.09757,-0.307713 -0.04075,-0.620022 0.06716,-0.915477 0.03265,-0.06796 0.06815,-0.134302 0.105624,-0.199678 0,0 -3.402703,-1.897592 -3.402703,-1.897592 v 0 c -0.02468,0.09566 -0.0549,0.190233 -0.06244,0.289425 -0.01881,0.160761 -0.0407,0.320863 -0.05692,0.481939 -0.0083,0.08276 -0.028,0.301776 -0.03987,0.385559 -0.0084,0.05964 -0.02077,0.118663 -0.03114,0.177993 0.0011,0.04379 -0.0013,0.0878 0.0032,0.131379 0.01193,0.116109 0.02816,0.105002 0.05725,0.219083 0.03541,0.138871 0.05392,0.283358 0.05518,0.426489 -0.160113,1.464385 -0.08962,0.354764 3.431185,2.094405 0.03373,0.01667 0.184658,-0.280464 0.218919,-0.325744 0.01564,-0.02066 0.0351,-0.03813 0.05265,-0.0572 1.318932,-0.286337 -0.105053,0.03432 -3.379835,-1.83392 -0.03829,-0.02185 0.06769,-0.06866 0.111723,-0.07075 0.02976,-0.0013 0.05318,0.03465 0.06401,0.06241 0.0263,0.06739 -0.0011,0.128913 -0.01926,0.190762 1.169,0.603549 2.340091,1.203058 3.506996,1.81065 0.02408,0.01254 -0.06195,-0.0028 -0.07753,-0.02498 -0.02318,-0.03308 -0.01805,-0.07888 -0.02334,-0.118938 -0.01535,-0.116237 -0.0066,-0.229402 0.01953,-0.343368 z" /><path style="fill:#ff9802;fill-opacity:1;fill-rule:evenodd;stroke:none;stroke-width:10.009;stroke-linecap:round;stroke-linejoin:round;stroke-dasharray:none;stroke-opacity:1;paint-order:stroke markers fill" id="path706" d="m 34.295564,45.931589 c 0.05849,-0.211947 0.0371,-0.103502 0.05565,-0.433665 0.05111,-0.909751 -0.01246,0.176543 -0.0058,-1.025985 0.0029,-0.529733 0.04387,-0.779159 0.101348,-1.301631 0.10018,-0.638138 0.201597,-1.27684 0.332214,-1.909636 0.113951,-0.552077 0.02796,-0.07754 0.115141,-0.583295 0.04839,-0.357529 0.02249,-0.112665 0.04211,-0.467614 0.0096,-0.173363 0.01408,-0.205846 0.0295,-0.369506 0,0 -3.346519,-1.686407 -3.346519,-1.686407 v 0 c 0.02561,0.14949 0.04416,0.237831 0.05549,0.392396 0.0057,0.07799 0.0055,0.156308 0.0083,0.234463 0.0073,0.08487 0.01455,0.169749 0.02183,0.254622 0.01513,0.197183 0.03656,0.458295 0.04501,0.651959 0.02995,0.685769 0.0016,1.372466 -0.02476,2.057803 -0.05309,0.465949 -0.0647,0.77779 -0.208833,1.22614 -0.05177,0.161036 -0.130796,0.31215 -0.203882,0.464698 -0.105757,0.220734 -0.175485,0.363863 -0.385424,0.482296 z" /></g></g></svg>