<?xml version="1.0" encoding="UTF-8" standalone="no"?>
<svg
   width="300"
   height="300"
   viewBox="0 0 79.374998 79.374996"
   version="1.1"
   id="svg1"
   xml:space="preserve"
   inkscape:version="1.3.2 (091e20e, 2023-11-25, custom)"
   sodipodi:docname="banner.svg"
   inkscape:export-filename="GitHub-Logo.png"
   inkscape:export-xdpi="600"
   inkscape:export-ydpi="600"
   xmlns:inkscape="http://www.inkscape.org/namespaces/inkscape"
   xmlns:sodipodi="http://sodipodi.sourceforge.net/DTD/sodipodi-0.dtd"
   xmlns:xlink="http://www.w3.org/1999/xlink"
   xmlns="http://www.w3.org/2000/svg"
   xmlns:svg="http://www.w3.org/2000/svg"><sodipodi:namedview
     id="namedview1"
     pagecolor="#505050"
     bordercolor="#eeeeee"
     borderopacity="1"
     inkscape:showpageshadow="0"
     inkscape:pageopacity="0"
     inkscape:pagecheckerboard="0"
     inkscape:deskcolor="#505050"
     inkscape:document-units="mm"
     inkscape:zoom="1.0544998"
     inkscape:cx="205.78477"
     inkscape:cy="147.46328"
     inkscape:window-width="1920"
     inkscape:window-height="1017"
     inkscape:window-x="1912"
     inkscape:window-y="-8"
     inkscape:window-maximized="1"
     inkscape:current-layer="g1" /><defs
     id="defs1"><linearGradient
       id="linearGradient175"><stop
         stop-color="#181449"
         offset="0"
         id="stop1" /><stop
         stop-color="#181449"
         offset=".5"
         id="stop2" /><stop
         stop-color="#181449"
         stop-opacity="0"
         offset="1"
         id="stop3" /></linearGradient><linearGradient
       id="linearGradient176"
       x1="93.565002"
       x2="93.460999"
       y1="248.17999"
       y2="286.32001"
       gradientUnits="userSpaceOnUse"
       xlink:href="#linearGradient175" /></defs><g
     inkscape:label="Livello 1"
     inkscape:groupmode="layer"
     id="layer1"><g
       inkscape:label="Image"
       id="g1"
       transform="matrix(0.26458333,0,0,0.26458333,82.629839,126.275)"><g
         id="g8"
         transform="matrix(-1.0769871,-0.52259263,-0.52259263,1.0769871,145.31643,185.79931)"
         style="fill:#ffa500;fill-opacity:1" /><g
         id="g25"
         transform="matrix(2.7477725,0,0,2.7477725,-838.56464,-201.18189)"><ellipse
           style="fill:none;fill-opacity:1;fill-rule:nonzero;stroke:#ce8500;stroke-width:1.91398;stroke-linecap:round;stroke-dasharray:none;stroke-opacity:1"
           id="path8"
           cx="246.11313"
           cy="-45.883694"
           rx="53.054913"
           ry="52.516285" /><g
           id="g7"
           transform="matrix(-0.78896861,0.04654046,0.04654046,0.78896861,297.69506,-4.4574042)"
           style="fill:#ffa500;fill-opacity:1"><path
             id="path4"
             style="opacity:1;fill:#ffa500;fill-opacity:1;fill-rule:evenodd;stroke-width:5.08346;stroke-linecap:round"
             d="m 70.81664,-13.702814 a 1.5257286,1.5257286 0 0 1 -1.525728,1.52573 1.5257286,1.5257286 0 0 1 -1.525729,-1.52573 1.5257286,1.5257286 0 0 1 1.525729,-1.52573 1.5257286,1.5257286 0 0 1 1.525728,1.52573 z" /><path
             id="path5"
             style="opacity:1;fill:#ffa500;fill-opacity:1;fill-rule:evenodd;stroke-width:5.08346;stroke-linecap:round"
             d="m 74.719671,-13.596364 a 0.92253357,0.92253357 0 0 1 -0.922534,0.92253 0.92253357,0.92253357 0 0 1 -0.922533,-0.92253 0.92253357,0.92253357 0 0 1 0.922533,-0.92254 0.92253357,0.92253357 0 0 1 0.922534,0.92254 z" /><path
             id="path6"
             style="opacity:1;fill:#ffa500;fill-opacity:1;fill-rule:evenodd;stroke-width:5.08346;stroke-linecap:round"
             d="m 65.483868,-16.207874 a 1.2043011,1.2043011 0 0 1 -1.204301,1.2043 1.2043011,1.2043011 0 0 1 -1.204301,-1.2043 1.2043011,1.2043011 0 0 1 1.204301,-1.2043 1.2043011,1.2043011 0 0 1 1.204301,1.2043 z" /></g><path
           d="m 236.47199,-11.348569 -3.44798,-0.05434 c -2.03813,-0.259401 -3.90953,-0.852314 -5.61416,-1.778745 -1.70464,-0.889379 -3.18693,-1.982562 -4.44687,-3.279569 -1.22289,-1.297 -2.18638,-2.760766 -2.89047,-4.391285 -0.66703,-1.59346 -1.00054,-3.223978 -1.00054,-4.891555 0,-0.815256 0.0741,-1.778745 0.22234,-2.890461 0.18528,-1.111722 0.3891,-2.223437 0.61144,-3.335153 0.22234,-1.148774 0.40764,-2.204905 0.55586,-3.168394 0.18529,-1.000548 0.27793,-1.797278 0.27793,-2.39019 0,-0.889373 -0.20381,-1.76022 -0.61145,-2.61254 -0.37057,-0.852315 -0.92642,-1.630519 -1.66757,-2.334606 -0.70409,-0.74114 -1.59346,-1.352585 -2.66812,-1.834336 -2.15112,-0.971544 -4.53651,-1.280508 -6.8318,-1.778309 2.29011,-0.659312 4.70345,-0.793383 6.88738,-1.779181 1.03761,-0.518803 1.90845,-1.130248 2.61254,-1.834336 0.74115,-0.741146 1.297,-1.537876 1.66757,-2.39019 0.40764,-0.889372 0.61145,-1.778751 0.61145,-2.668124 0,-0.592913 -0.0926,-1.371117 -0.27793,-2.334606 -0.14822,-0.963489 -0.33352,-2.001088 -0.55586,-3.11281 -0.22234,-1.111716 -0.42616,-2.223431 -0.61144,-3.335153 -0.14823,-1.111716 -0.22234,-2.093731 -0.22234,-2.946045 0,-1.704635 0.33351,-3.353686 1.00054,-4.947146 0.70409,-1.59346 1.66758,-3.038694 2.89047,-4.335694 1.25994,-1.297007 2.74223,-2.39019 4.44687,-3.279563 1.70463,-0.889379 3.57603,-1.482298 5.61416,-1.778758 l 3.32315,-0.0053 c -3.3162,1.506648 -7.10357,1.997662 -9.71552,4.729999 -1.33406,1.556408 -2.00109,3.279569 -2.00109,5.169489 0,0.667036 0.0741,1.51935 0.22234,2.556949 0.18529,1.037606 0.38911,2.130796 0.61145,3.279569 0.22235,1.111716 0.40763,2.223432 0.55586,3.335154 0.18529,1.074657 0.27793,2.001088 0.27793,2.779292 0,1.259942 -0.24088,2.519891 -0.72262,3.77984 -0.44469,1.222884 -1.13024,2.39019 -2.05668,3.501905 -0.88937,1.111716 -2.01962,2.149322 -3.39074,3.112811 -1.37111,0.92643 -2.96457,1.723161 -4.78038,2.39019 1.77875,0.667029 3.35368,1.482292 4.7248,2.445781 1.37112,0.963489 2.50137,2.01962 3.39074,3.168394 0.92643,1.148774 1.63052,2.353132 2.11226,3.613081 0.48174,1.259949 0.72262,2.501358 0.72262,3.724249 0,0.778204 -0.0926,1.704635 -0.27793,2.779292 -0.14823,1.074664 -0.33351,2.186379 -0.55586,3.335153 -0.22234,1.148774 -0.42616,2.223438 -0.61145,3.223979 -0.14822,1.037605 -0.22234,1.88992 -0.22234,2.556956 0,1.889919 0.66703,3.61308 2.00109,5.169482 2.60968,2.684524 6.43302,3.517976 9.84035,4.835067 z"
           id="text1"
           style="font-size:684.152px;line-height:113.22%;font-family:'Microsoft Himalaya';-inkscape-font-specification:'Microsoft Himalaya, Normal';letter-spacing:3.58px;fill:#ffa500;fill-opacity:1;fill-rule:evenodd;stroke:#ffffff;stroke-width:0.0973181;stroke-linecap:round;stroke-dasharray:none"
           aria-label="{"
           sodipodi:nodetypes="cccccscccsccccsscscscsccscccscccsccccscsscscscc" /><g
           id="g3"
           transform="matrix(0.57398779,-0.32623874,0.32623874,0.57398779,173.41959,-57.497432)"><g
             id="g4"
             transform="rotate(30.397075,111.79446,87.921985)"><g
               id="g6"
               transform="rotate(28.388681,111.07912,86.839377)"><path
                 id="path1"
                 style="fill:#ffa500;fill-opacity:1;fill-rule:evenodd;stroke-width:5.08327;stroke-linecap:round"
                 d="m 116.54595,54.760384 -0.0454,13.242739 -8.80201,-0.246426 0.14928,-13.221433 c 0.35689,-24.856026 8.49863,-24.104931 8.69813,0.22512 z"
                 sodipodi:nodetypes="sccss" /><path
                 id="rect1-5"
                 style="fill:#ffa500;fill-opacity:1;fill-rule:evenodd;stroke-width:7.59181;stroke-linecap:round"
                 d="m 107.4951,98.696055 0.099,-20.328252 8.81298,0.174068 -0.10151,20.173644 z"
                 sodipodi:nodetypes="ccccc" /><path
                 id="rect1-8"
                 style="fill:#ffa500;fill-opacity:1;fill-rule:evenodd;stroke-width:4.59977;stroke-linecap:round"
                 d="m 107.3232,111.45487 0.0705,-7.67828 8.87205,0.12067 -0.0489,7.66205 z"
                 sodipodi:nodetypes="ccccc" /><path
                 id="rect1-4"
                 style="fill:#ffa500;fill-opacity:1;fill-rule:evenodd;stroke-width:2.32506;stroke-linecap:round"
                 d="m 107.42386,102.20208 0.0194,-2.02633 8.8618,0.11477 -0.005,2.02523 z"
                 sodipodi:nodetypes="ccccc" /><g
                 id="g5"
                 transform="translate(-0.26626652,-2.1302677)"><path
                   id="path2"
                   style="fill:#ffa500;fill-opacity:1;fill-rule:evenodd;stroke-width:5.08327;stroke-linecap:round"
                   d="m 107.84298,139.62633 c -1.68832,0.31679 0.61325,-3.98943 -0.37303,-9.7602 -0.24239,-1.41826 -1.3161,-3.10265 -1.77886,-4.70129 -0.62363,-2.15444 -0.77252,-3.76715 -0.35027,-5.67292 0.20172,-0.91043 2.88098,-6.40685 6.5274,-4.92924 0.63536,0.25746 -2.26957,2.74772 -1.21974,8.00027 0.68259,3.41518 1.25217,8.95809 -0.2711,12.59053 -0.81767,1.94982 -0.99951,4.18485 -2.5344,4.47285 z"
                   sodipodi:nodetypes="ssssssss" /><path
                   id="path3"
                   style="fill:#ffa500;fill-opacity:1;fill-rule:evenodd;stroke-width:5.08327;stroke-linecap:round"
                   d="m 109.84648,139.33442 c -0.37732,-0.27292 1.14382,-2.76246 1.94487,-6.06952 0.22007,-0.90854 0.27904,-1.86797 0.32902,-2.87768 0.033,-0.66691 0.11036,-1.37325 0.0554,-2.03886 -0.10539,-1.27687 -0.24044,-3.07324 -0.5429,-4.90108 -0.25373,-1.53335 -0.4413,-3.02614 -0.27939,-4.3063 0.23956,-1.89423 0.91097,-3.32502 1.60206,-4.34765 0.21068,-0.31176 6.1118,0.29339 5.48525,8.34458 -1.0192,4.1982 -3.10139,12.32698 -6.03378,14.67346 -0.78579,0.62878 -1.66267,2.17248 -2.56055,1.52305 z"
                   sodipodi:nodetypes="ssssssscss" /></g><rect
                 style="fill:#ffa500;fill-opacity:1;fill-rule:evenodd;stroke-width:5.40489;stroke-linecap:round"
                 id="rect7"
                 width="8.8140516"
                 height="7.3282442"
                 x="108.18245"
                 y="68.028915"
                 transform="matrix(0.99991189,0.01327454,-0.00753697,0.9999716,0,0)" /></g></g></g></g></g></g></svg>
