<?xml version="1.0" encoding="UTF-8"?>
<svg width="300" height="300" version="1.1" viewBox="0 0 79.375 79.375" xml:space="preserve" xmlns="http://www.w3.org/2000/svg" xmlns:xlink="http://www.w3.org/1999/xlink"><g transform="translate(-56.758 2.1063)" stroke-linecap="round"><path d="m134.78 37.581a38.339 37.948 0 1 1-76.678 0 38.339 37.948 0 1 1 76.678 0z" fill="none" stroke="#ffa500" stroke-width="1.3831"/><g fill-rule="evenodd"><g transform="matrix(-.57014 .03363 .033632 .57011 133.73 67.516)" fill="#ffa500" stroke-width="5.0835"><path d="m70.817-13.703a1.5257 1.5257 0 1 1-3.0514 0 1.5257 1.5257 0 1 1 3.0514 0z"/><path d="m74.72-13.596a0.92255 0.92255 0 1 1-1.8451 0 0.92255 0.92255 0 1 1 1.8451 0z"/><path d="m65.484-16.208a1.2043 1.2043 0 1 1-2.4086 0 1.2043 1.2043 0 1 1 2.4086 0z"/></g><path d="m89.478 62.536-2.4916-0.03927c-1.4728-0.18744-2.8251-0.61588-4.057-1.2853-1.2318-0.64267-2.303-1.4326-3.2135-2.3698-0.88371-0.93721-1.58-1.995-2.0888-3.1732-0.48202-1.1515-0.723-2.3297-0.723-3.5347 0-0.58911 0.05355-1.2853 0.16067-2.0887 0.13389-0.80332 0.28118-1.6066 0.44185-2.41 0.16067-0.83012 0.29458-1.5933 0.40168-2.2895 0.1339-0.72296 0.20084-1.2987 0.20084-1.7272 0-0.64266-0.14728-1.2719-0.44186-1.8878-0.26779-0.61589-0.66946-1.1782-1.2051-1.687-0.5088-0.53555-1.1515-0.97739-1.9281-1.3255-1.5545-0.70204-3.2782-0.92529-4.9369-1.285 1.6549-0.47642 3.3988-0.5733 4.9771-1.2857 0.74981-0.37489 1.3791-0.81668 1.8879-1.3255 0.53558-0.53556 0.93726-1.1113 1.2051-1.7272 0.29458-0.64266 0.44186-1.2854 0.44186-1.928 0-0.42844-0.06692-0.99076-0.20084-1.687-0.10711-0.69622-0.24101-1.446-0.40168-2.2493-0.16067-0.80332-0.30796-1.6066-0.44185-2.41-0.10712-0.80332-0.16067-1.5129-0.16067-2.1288 0-1.2317 0.24101-2.4234 0.723-3.5748 0.5088-1.1515 1.2051-2.1958 2.0888-3.133 0.91045-0.93721 1.9816-1.7272 3.2135-2.3698 1.2318-0.64267 2.5841-1.0711 4.057-1.2854l2.4015-0.0038c-2.3964 1.0887-5.1333 1.4435-7.0208 3.4179-0.96407 1.1247-1.4461 2.3698-1.4461 3.7355 0 0.482 0.05355 1.0979 0.16067 1.8476 0.1339 0.74977 0.28118 1.5397 0.44186 2.3698 0.16068 0.80332 0.29457 1.6066 0.40168 2.41 0.1339 0.77658 0.20084 1.446 0.20084 2.0083 0 0.9104-0.17407 1.8209-0.52219 2.7313-0.32135 0.88367-0.81672 1.7272-1.4862 2.5305-0.64269 0.80332-1.4594 1.5531-2.4502 2.2493-0.99081 0.66944-2.1423 1.2452-3.4545 1.7272 1.2854 0.482 2.4235 1.0711 3.4143 1.7673s1.8076 1.4594 2.4502 2.2895c0.66947 0.83012 1.1783 1.7004 1.5264 2.6108 0.34817 0.91048 0.52219 1.8075 0.52219 2.6911 0 0.56233-0.06692 1.2317-0.20084 2.0083-0.10712 0.77658-0.24101 1.5799-0.40168 2.41-0.16067 0.83012-0.30796 1.6066-0.44186 2.3297-0.10711 0.74977-0.16067 1.3656-0.16067 1.8477 0 1.3656 0.48202 2.6108 1.4461 3.7355 1.8859 1.9398 4.6487 2.5421 7.111 3.4938z" fill="#ffa500" stroke="#fff" stroke-width=".070324"/><g transform="matrix(.41479 -.23574 .23575 .41477 43.916 29.189)"><g transform="rotate(30.397,111.79,87.922)"><g transform="rotate(28.389,111.08,86.839)" fill="#ffa500" fill-rule="evenodd" stroke-linecap="round"><path d="m116.55 54.76-0.0454 13.243-8.802-0.24643 0.14928-13.221c0.35689-24.856 8.4986-24.105 8.6981 0.22512z" stroke-width="5.0833"/><path d="m107.5 98.696 0.099-20.328 8.813 0.17407-0.10151 20.174z" stroke-width="7.5918"/><path d="m107.32 111.45 0.0705-7.6783 8.872 0.12067-0.0489 7.662z" stroke-width="4.5998"/><path d="m107.42 102.2 0.0194-2.0263 8.8618 0.11477-5e-3 2.0252z" stroke-width="2.3251"/><g transform="translate(-.26627 -2.1303)" stroke-width="5.0833"><path d="m107.84 139.63c-1.6883 0.31679 0.61325-3.9894-0.37303-9.7602-0.24239-1.4183-1.3161-3.1026-1.7789-4.7013-0.62363-2.1544-0.77252-3.7672-0.35027-5.6729 0.20172-0.91043 2.881-6.4068 6.5274-4.9292 0.63536 0.25746-2.2696 2.7477-1.2197 8.0003 0.68259 3.4152 1.2522 8.9581-0.2711 12.591-0.81767 1.9498-0.99951 4.1848-2.5344 4.4728z"/><path d="m109.85 139.33c-0.37732-0.27292 1.1438-2.7625 1.9449-6.0695 0.22007-0.90854 0.27904-1.868 0.32902-2.8777 0.033-0.66691 0.11036-1.3732 0.0554-2.0389-0.10539-1.2769-0.24044-3.0732-0.5429-4.9011-0.25373-1.5334-0.4413-3.0261-0.27939-4.3063 0.23956-1.8942 0.91097-3.325 1.6021-4.3476 0.21068-0.31176 6.1118 0.29339 5.4852 8.3446-1.0192 4.1982-3.1014 12.327-6.0338 14.673-0.78579 0.62878-1.6627 2.1725-2.5606 1.523z"/></g><path transform="matrix(.99991 .013275 -.007537 .99997 0 0)" d="m108.18 68.029h8.8141v7.3282h-8.8141z" stroke-width="5.4049"/></g></g></g></g></g></svg>
