<?xml version="1.0" encoding="UTF-8"?>
<svg width="300" height="300" version="1.1" viewBox="0 0 79.375 79.375" xml:space="preserve" xmlns="http://www.w3.org/2000/svg"><g transform="matrix(10.75 0 0 11.963 -2151.3 -1831)"><g transform="matrix(.067222 0 0 .060403 187.28 159.14)"><ellipse cx="246.11" cy="-45.884" rx="53.055" ry="52.516" fill="none" stroke="#ce8500" stroke-linecap="round" stroke-width="1.914"/><g transform="matrix(-.78897 .04654 .04654 .78897 297.7 -4.4574)" fill="#ffa500" fill-rule="evenodd" stroke-linecap="round" stroke-width="5.0835"><path d="m70.817-13.703a1.5257 1.5257 0 0 1-1.5257 1.5257 1.5257 1.5257 0 0 1-1.5257-1.5257 1.5257 1.5257 0 0 1 1.5257-1.5257 1.5257 1.5257 0 0 1 1.5257 1.5257z"/><path d="m74.72-13.596a0.92253 0.92253 0 0 1-0.92253 0.92253 0.92253 0.92253 0 0 1-0.92253-0.92253 0.92253 0.92253 0 0 1 0.92253-0.92254 0.92253 0.92253 0 0 1 0.92253 0.92254z"/><path d="m65.484-16.208a1.2043 1.2043 0 0 1-1.2043 1.2043 1.2043 1.2043 0 0 1-1.2043-1.2043 1.2043 1.2043 0 0 1 1.2043-1.2043 1.2043 1.2043 0 0 1 1.2043 1.2043z"/></g><path d="m236.47-11.349-3.448-0.05434c-2.0381-0.2594-3.9095-0.85231-5.6142-1.7787-1.7046-0.88938-3.1869-1.9826-4.4469-3.2796-1.2229-1.297-2.1864-2.7608-2.8905-4.3913-0.66703-1.5935-1.0005-3.224-1.0005-4.8916 0-0.81526 0.0741-1.7787 0.22234-2.8905 0.18528-1.1117 0.3891-2.2234 0.61144-3.3352 0.22234-1.1488 0.40764-2.2049 0.55586-3.1684 0.18529-1.0005 0.27793-1.7973 0.27793-2.3902 0-0.88937-0.20381-1.7602-0.61145-2.6125-0.37057-0.85232-0.92642-1.6305-1.6676-2.3346-0.70409-0.74114-1.5935-1.3526-2.6681-1.8343-2.1511-0.97154-4.5365-1.2805-6.8318-1.7783 2.2901-0.65931 4.7034-0.79338 6.8874-1.7792 1.0376-0.5188 1.9084-1.1302 2.6125-1.8343 0.74115-0.74115 1.297-1.5379 1.6676-2.3902 0.40764-0.88937 0.61145-1.7788 0.61145-2.6681 0-0.59291-0.0926-1.3711-0.27793-2.3346-0.14822-0.96349-0.33352-2.0011-0.55586-3.1128-0.22234-1.1117-0.42616-2.2234-0.61144-3.3352-0.14823-1.1117-0.22234-2.0937-0.22234-2.946 0-1.7046 0.33351-3.3537 1.0005-4.9471 0.70409-1.5935 1.6676-3.0387 2.8905-4.3357 1.2599-1.297 2.7422-2.3902 4.4469-3.2796 1.7046-0.88938 3.576-1.4823 5.6142-1.7788l3.3232-0.0053c-3.3162 1.5066-7.1036 1.9977-9.7155 4.73-1.3341 1.5564-2.0011 3.2796-2.0011 5.1695 0 0.66704 0.0741 1.5194 0.22234 2.5569 0.18529 1.0376 0.38911 2.1308 0.61145 3.2796 0.22235 1.1117 0.40763 2.2234 0.55586 3.3352 0.18529 1.0747 0.27793 2.0011 0.27793 2.7793 0 1.2599-0.24088 2.5199-0.72262 3.7798-0.44469 1.2229-1.1302 2.3902-2.0567 3.5019-0.88937 1.1117-2.0196 2.1493-3.3907 3.1128-1.3711 0.92643-2.9646 1.7232-4.7804 2.3902 1.7788 0.66703 3.3537 1.4823 4.7248 2.4458s2.5014 2.0196 3.3907 3.1684c0.92643 1.1488 1.6305 2.3531 2.1123 3.6131s0.72262 2.5014 0.72262 3.7242c0 0.7782-0.0926 1.7046-0.27793 2.7793-0.14823 1.0747-0.33351 2.1864-0.55586 3.3352-0.22234 1.1488-0.42616 2.2234-0.61145 3.224-0.14822 1.0376-0.22234 1.8899-0.22234 2.557 0 1.8899 0.66703 3.6131 2.0011 5.1695 2.6097 2.6845 6.433 3.518 9.8404 4.8351z" fill="#ffa500" fill-rule="evenodd" stroke="#fff" stroke-linecap="round" stroke-width=".097318" aria-label="{"/><g transform="matrix(.57399 -.32624 .32624 .57399 173.42 -57.497)"><g transform="rotate(30.397 111.79 87.922)"><g transform="rotate(28.389 111.08 86.839)" fill="#ffa500" fill-rule="evenodd" stroke-linecap="round"><path d="m116.55 54.76-0.0454 13.243-8.802-0.24643 0.14928-13.221c0.35689-24.856 8.4986-24.105 8.6981 0.22512z" stroke-width="5.0833"/><path d="m107.5 98.696 0.099-20.328 8.813 0.17407-0.10151 20.174z" stroke-width="7.5918"/><path d="m107.32 111.45 0.0705-7.6783 8.872 0.12067-0.0489 7.662z" stroke-width="4.5998"/><path d="m107.42 102.2 0.0194-2.0263 8.8618 0.11477-5e-3 2.0252z" stroke-width="2.3251"/><g transform="translate(-.26627 -2.1303)" stroke-width="5.0833"><path d="m107.84 139.63c-1.6883 0.31679 0.61325-3.9894-0.37303-9.7602-0.24239-1.4183-1.3161-3.1026-1.7789-4.7013-0.62363-2.1544-0.77252-3.7672-0.35027-5.6729 0.20172-0.91043 2.881-6.4068 6.5274-4.9292 0.63536 0.25746-2.2696 2.7477-1.2197 8.0003 0.68259 3.4152 1.2522 8.9581-0.2711 12.591-0.81767 1.9498-0.99951 4.1848-2.5344 4.4728z"/><path d="m109.85 139.33c-0.37732-0.27292 1.1438-2.7625 1.9449-6.0695 0.22007-0.90854 0.27904-1.868 0.32902-2.8777 0.033-0.66691 0.11036-1.3732 0.0554-2.0389-0.10539-1.2769-0.24044-3.0732-0.5429-4.9011-0.25373-1.5334-0.4413-3.0261-0.27939-4.3063 0.23956-1.8942 0.91097-3.325 1.6021-4.3476 0.21068-0.31176 6.1118 0.29339 5.4852 8.3446-1.0192 4.1982-3.1014 12.327-6.0338 14.673-0.78579 0.62878-1.6627 2.1725-2.5606 1.523z"/></g><rect transform="matrix(.99991 .013275 -.007537 .99997 0 0)" x="108.18" y="68.029" width="8.8141" height="7.3282" stroke-width="5.4049"/></g></g></g></g></g></svg>
