<?xml version="1.0" encoding="UTF-8" standalone="no"?>
<svg
   width="300"
   height="300"
   version="1.1"
   viewBox="0 0 79.375 79.375"
   xml:space="preserve"
   id="svg131"
   sodipodi:docname="logo.svg"
   inkscape:version="1.3.2 (091e20e, 2023-11-25, custom)"
   xmlns:inkscape="http://www.inkscape.org/namespaces/inkscape"
   xmlns:sodipodi="http://sodipodi.sourceforge.net/DTD/sodipodi-0.dtd"
   xmlns:xlink="http://www.w3.org/1999/xlink"
   xmlns="http://www.w3.org/2000/svg"
   xmlns:svg="http://www.w3.org/2000/svg"><sodipodi:namedview
     id="namedview131"
     pagecolor="#505050"
     bordercolor="#eeeeee"
     borderopacity="1"
     inkscape:showpageshadow="0"
     inkscape:pageopacity="0"
     inkscape:pagecheckerboard="0"
     inkscape:deskcolor="#505050"
     inkscape:zoom="1.365"
     inkscape:cx="26.373626"
     inkscape:cy="141.75824"
     inkscape:window-width="1920"
     inkscape:window-height="1017"
     inkscape:window-x="1912"
     inkscape:window-y="-8"
     inkscape:window-maximized="1"
     inkscape:current-layer="svg131" /><defs
     id="defs3"><inkscape:path-effect
       effect="simplify"
       id="path-effect137"
       is_visible="true"
       lpeversion="1.3"
       threshold="10.8696"
       steps="1"
       smooth_angles="360"
       helper_size="0"
       simplify_individual_paths="false"
       simplify_just_coalesce="false" /><inkscape:path-effect
       effect="simplify"
       id="path-effect136"
       is_visible="true"
       lpeversion="1.3"
       threshold="100"
       steps="1.6873747"
       smooth_angles="360"
       helper_size="0"
       simplify_individual_paths="false"
       simplify_just_coalesce="false" /><inkscape:path-effect
       effect="simplify"
       id="path-effect135"
       is_visible="true"
       lpeversion="1.3"
       threshold="0.01"
       steps="2.9639279"
       smooth_angles="360"
       helper_size="0"
       simplify_individual_paths="false"
       simplify_just_coalesce="false" /><linearGradient
       id="linearGradient175"><stop
         stop-color="#181449"
         offset="0"
         id="stop1" /><stop
         stop-color="#181449"
         offset=".5"
         id="stop2" /><stop
         stop-color="#181449"
         stop-opacity="0"
         offset="1"
         id="stop3" /></linearGradient><linearGradient
       id="linearGradient176"
       x1="93.565"
       x2="93.461"
       y1="248.18"
       y2="286.32"
       gradientUnits="userSpaceOnUse"
       xlink:href="#linearGradient175" /></defs><g
     id="g143"
     transform="translate(4.3551262,-1.4862218)"><g
       id="g131"
       transform="translate(-136.1635,-13.767101)"
       style="stroke:#ffffff;stroke-width:0.079375;stroke-dasharray:none;stroke-opacity:1"><g
         id="g135"
         style="stroke:#ffffff;stroke-width:0.079375;stroke-dasharray:none;stroke-opacity:1"><g
           id="g140"
           transform="matrix(1.1276616,0.35772747,-0.32745556,1.0322357,65.726567,-29.636267)"
           style="stroke:#ffffff;stroke-width:0.0701267;stroke-dasharray:none;stroke-opacity:1"><g
             id="g141"
             transform="translate(3.9883384,0.12006304)"
             style="stroke:#ffffff;stroke-width:0.0701267;stroke-dasharray:none;stroke-opacity:1"><path
               id="rect131"
               style="fill:#ffa500;fill-rule:evenodd;stroke:#ffffff;stroke-width:0.0701267;stroke-linecap:round;stroke-miterlimit:3.7;stroke-dasharray:none;stroke-opacity:1"
               d="m 119.13363,15.668826 c 0.33277,-0.931273 0.80665,-2.370712 1.79556,-2.361786 0.96859,0.0087 1.39952,1.429402 1.71663,2.344654 1.5453,4.459976 0.49685,14.151578 0.49685,14.151578 h -4.52302 c 0,0 -1.07244,-9.694775 0.51398,-14.134446 z"
               sodipodi:nodetypes="sssccs" /><path
               id="rect131-9"
               style="fill:#ffa500;fill-rule:evenodd;stroke:#ffffff;stroke-width:0.0701267;stroke-linecap:round;stroke-miterlimit:3.7;stroke-dasharray:none;stroke-opacity:1"
               d="m 118.61337,34.880325 h 4.52872 v 9.267426 h -4.52872 z" /><path
               id="rect131-55"
               style="fill:#ffa500;fill-rule:evenodd;stroke:#ffffff;stroke-width:0.0701267;stroke-linecap:round;stroke-miterlimit:3.7;stroke-dasharray:none;stroke-opacity:1"
               d="m 118.60707,44.855438 h 4.54132 v 1.429743 h -4.54132 z" /><path
               id="rect131-5"
               style="fill:#ffa500;fill-rule:evenodd;stroke:#ffffff;stroke-width:0.0701267;stroke-linecap:round;stroke-miterlimit:3.7;stroke-dasharray:none;stroke-opacity:1"
               d="m 118.60951,30.516249 h 4.53644 v 3.653953 h -4.53644 z" /><path
               id="rect131-5-0"
               style="fill:#ffa500;fill-rule:evenodd;stroke:#ffffff;stroke-width:0.0701267;stroke-linecap:round;stroke-miterlimit:3.7;stroke-dasharray:none;stroke-opacity:1"
               d="m 118.60951,46.98901 h 4.53643 v 3.653953 h -4.53643 z" /><path
               id="path136"
               style="fill:#ffa500;fill-rule:evenodd;stroke:#ffffff;stroke-width:0.0701267;stroke-linecap:round;stroke-miterlimit:3.7;stroke-dasharray:none;stroke-opacity:1"
               d="m 123.82055,55.296017 c 0,3.23831 -6.81081,12.475284 -8.38332,11.678496 -0.57028,-0.28896 2.5683,-7.616391 2.5683,-10.854701 0,-3.23831 0.47573,-5.136601 2.61676,-5.1366 2.14103,-1e-6 3.19826,1.074495 3.19826,4.312805 z"
               sodipodi:nodetypes="sssss" /></g></g></g></g><path
       style="font-size:98.7111px;line-height:113.22%;font-family:'Microsoft Himalaya';-inkscape-font-specification:'Microsoft Himalaya, Normal';text-align:center;letter-spacing:5.23031px;text-anchor:middle;fill:#ffa500;fill-rule:evenodd;stroke:#ffffff;stroke-width:0.079375;stroke-linecap:round;stroke-miterlimit:3.7;stroke-dasharray:none"
       d="m 27.037206,70.637965 c -2.773822,0.601353 -5.277621,0.108514 -7.789196,-1.194585 -1.478096,-0.771181 -2.763398,-1.71909 -3.855906,-2.843728 -1.06037,-1.124639 -1.89582,-2.393873 -2.50633,-3.807704 -0.57839,-1.381698 -0.86758,-2.795529 -0.86758,-4.241492 0,-0.706915 0.0643,-1.542361 0.19279,-2.506337 0.16067,-0.963975 0.3374,-1.927951 0.53019,-2.891926 0.19279,-0.996109 0.35346,-1.911886 0.48199,-2.747331 0.16066,-0.867578 0.24099,-1.558427 0.24099,-2.072547 0,-0.771181 -0.17673,-1.526295 -0.53018,-2.265343 -0.32133,-0.739048 -0.80332,-1.413831 -1.44597,-2.024349 -0.61051,-0.64265 -1.38169,-1.172836 -2.3135402,-1.590559 -1.82491,-0.798918 -3.82371,-1.1139 -5.75205,-1.599232 1.92358,-0.555148 3.97629,-0.61847 5.80025,-1.48549 0.8997102,-0.449855 1.6548302,-0.980042 2.2653402,-1.59056 0.64265,-0.64265 1.12464,-1.333499 1.44597,-2.072547 0.35345,-0.77118 0.53018,-1.542361 0.53018,-2.313541 0,-0.51412 -0.0803,-1.188903 -0.24099,-2.024349 -0.12853,-0.835445 -0.2892,-1.735156 -0.48199,-2.699131 -0.19279,-0.963976 -0.36952,-1.927951 -0.53019,-2.891927 -0.12853,-0.963976 -0.19279,-1.815487 -0.19279,-2.554535 0,-1.478096 0.28919,-2.907993 0.86758,-4.289691 0.61051,-1.381699 1.44596,-2.634868 2.50633,-3.759506 1.092508,-1.124638 2.37781,-2.072547 3.855906,-2.843728 2.423277,-1.416808 5.083316,-1.54675 7.793758,-1.602033 -2.87336,1.365145 -6.18923,1.772194 -8.468541,4.156569 -1.156771,1.349566 -1.735156,2.843728 -1.735156,4.482487 0,0.578385 0.06426,1.317433 0.192795,2.217143 0.160663,0.899711 0.337392,1.84762 0.530187,2.843728 0.192795,0.963976 0.353458,1.927951 0.481988,2.891927 0.160663,0.931843 0.240994,1.735156 0.240994,2.409939 0,1.092505 -0.208861,2.185011 -0.626584,3.277517 -0.385591,1.060373 -0.980042,2.072547 -1.783355,3.036523 -0.771182,0.963975 -1.751222,1.863686 -2.940122,2.699131 -1.18891,0.803313 -2.57061,1.494162 -4.1451002,2.072547 1.5423602,0.578385 2.9079902,1.285301 4.0969002,2.120747 1.1889,0.835445 2.16894,1.751222 2.940123,2.74733 0.803313,0.996108 1.413831,2.040415 1.831554,3.132921 0.417723,1.092505 0.626584,2.168945 0.626584,3.229318 0,0.674783 -0.08033,1.478096 -0.240994,2.409939 -0.12853,0.931843 -0.289193,1.895818 -0.481988,2.891926 -0.192795,0.996108 -0.369524,1.927951 -0.530187,2.795529 -0.12853,0.899711 -0.192795,1.638759 -0.192795,2.217144 0,1.638759 0.578385,3.132921 1.735156,4.482487 2.159925,2.433384 5.461764,3.015402 8.463979,3.797319 z"
       id="text131"
       aria-label="{"
       sodipodi:nodetypes="ccccscccsccccsscscscsccsccscccsccccscsscscscc" /><circle
       style="fill:#ffa500;fill-opacity:1;fill-rule:evenodd;stroke:#ffffff;stroke-width:0.079375;stroke-linecap:round;stroke-miterlimit:3.7;stroke-dasharray:none;stroke-opacity:1"
       id="path141"
       cx="30.141176"
       cy="69.877136"
       r="0.77533579" /><circle
       style="fill:#ffa500;fill-opacity:1;fill-rule:evenodd;stroke:#ffffff;stroke-width:0.079375;stroke-linecap:round;stroke-miterlimit:3.7;stroke-dasharray:none;stroke-opacity:1"
       id="path142"
       cx="34.453983"
       cy="70.410179"
       r="1.2114621" /><circle
       style="fill:#ffa500;fill-opacity:1;fill-rule:evenodd;stroke:#ffffff;stroke-width:0.079375;stroke-linecap:round;stroke-miterlimit:3.7;stroke-dasharray:none;stroke-opacity:1"
       id="path143"
       cx="39.735958"
       cy="69.295631"
       r="1.5506716" /></g></svg>
