<?xml version="1.0" encoding="UTF-8"?>
<!-- Created with Inkscape (http://www.inkscape.org/) -->
<svg width="1200" height="600" version="1.1" viewBox="0 0 1200 600" xml:space="preserve" xmlns="http://www.w3.org/2000/svg" xmlns:xlink="http://www.w3.org/1999/xlink"><defs><linearGradient id="linearGradient2" x2="1200" y1="300" y2="300" gradientUnits="userSpaceOnUse"><stop offset="0"/><stop stop-color="#004481" offset=".50182"/><stop offset="1"/></linearGradient></defs><g fill-rule="evenodd" stroke-linecap="round"><path d="m0 0h1200v600h-1200z" fill="url(#linearGradient2)" stroke-miterlimit="3.7" stroke-width=".37957"/><g transform="matrix(43.47 0 0 43.47 343.88 1.1228)" stroke="#000" stroke-width=".052916"><path d="m10.054 10.734c-0.6042 0.43346-1.5244 0.27791-2.1628-0.33817-0.75637-0.72903-0.66979-1.8951-1.1911-2.3658-0.43382-0.42855-1.0071-0.27358-1.5302-0.15272 0.93151-0.6312 0.90141-1.404 0.26339-2.2945-0.33521-0.46145-1.5679-2.3787 0.31885-3.3359-1.1676 1.1298-0.1762 2.0788 0.38756 3.1666 0.34617 0.68379 0.21347 1.4867-0.2869 2.1132 0.2837-0.00936 0.72908 0.028287 1.1486 0.28256 0.85321 0.45768 0.94529 1.4978 1.3082 2.2979 0.38237 0.73906 1.0243 0.66956 1.7443 0.62699z"/><path d="m4.4 9.7531c0.16686 0.41593-0.24218 0.44387-0.25178 0.71485-0.011556 0.32338-0.27291 0.52318-0.54484 0.46705-0.45544-0.093841-0.56634-0.28316-0.36916-0.29199 0.28007-0.012651 0.44489-0.30348 0.36544-0.68765-0.043136-0.5831 0.33718-0.4368 0.54131-0.51713 0.25687-0.13307 4.2929-7.4601 4.7055-6.9815 0.43394 0.50361-4.4779 7.0546-4.4465 7.2962z"/></g><g transform="matrix(43.47 0 0 43.47 333.3 12.446)" fill="#001f3f" stroke="#fff" stroke-width=".052916"><path d="m10.054 10.734c-0.6042 0.43346-1.5244 0.27791-2.1628-0.33817-0.75637-0.72903-0.66979-1.8951-1.1911-2.3658-0.43382-0.42855-1.0071-0.27358-1.5302-0.15272 0.93151-0.6312 0.90141-1.404 0.26339-2.2945-0.33521-0.46145-1.5679-2.3787 0.31885-3.3359-1.1676 1.1298-0.1762 2.0788 0.38756 3.1666 0.34617 0.68379 0.21347 1.4867-0.2869 2.1132 0.2837-0.00936 0.72908 0.028287 1.1486 0.28256 0.85321 0.45768 0.94529 1.4978 1.3082 2.2979 0.38237 0.73906 1.0243 0.66956 1.7443 0.62699z"/><path d="m4.4 9.7531c0.16686 0.41593-0.24218 0.44387-0.25178 0.71485-0.011556 0.32338-0.27291 0.52318-0.54484 0.46705-0.45544-0.093841-0.56634-0.28316-0.36916-0.29199 0.28007-0.012651 0.44489-0.30348 0.36544-0.68765-0.043136-0.5831 0.33718-0.4368 0.54131-0.51713 0.25687-0.13307 4.2929-7.4601 4.7055-6.9815 0.43394 0.50361-4.4779 7.0546-4.4465 7.2962z"/></g></g></svg>
