<svg width="575" height="575" viewBox="0 0 152.135 152.135" xmlns:xlink="http://www.w3.org/1999/xlink" xmlns="http://www.w3.org/2000/svg"><defs><path id="prefix__h" d="M-315 193h120v75h-120z"/><path id="prefix__g" d="M176.709 227.887h289.687v132.29H176.709z"/><path id="prefix__f" d="M195.056 367.902h271.34v117.806h-271.34z"/><path id="prefix__e" d="M175.743 66.628h333.14v107.184h-333.14z"/><path id="prefix__d" d="M1159.391 518.926h479.324v512.098h-479.324z"/><path id="prefix__c" d="M695.088 230.786h445.184v99.688H695.088z"/><path id="prefix__b" d="M630.905 107.882h540.776v367.345H630.905z"/><linearGradient id="prefix__a"><stop offset=".03" stop-color="#303030" stop-opacity=".769"/><stop offset=".336"/><stop offset=".5"/><stop offset=".65"/><stop offset=".973" stop-color="#313131" stop-opacity=".771"/></linearGradient><linearGradient xlink:href="#prefix__a" id="prefix__i" x1="1.481" y1="76.068" x2="150.655" y2="76.068" gradientUnits="userSpaceOnUse"/></defs><g fill-rule="evenodd"><path d="M54.455 5.862c38.302-12.32 79.028 9.126 90.964 47.9 11.936 38.773-9.437 80.192-47.739 92.512-38.301 12.32-79.027-9.126-90.963-47.9C-5.22 59.601 16.154 18.181 54.455 5.862z" fill="url(#prefix__i)" stroke="#fcfcfc" stroke-width="3.859" stroke-linecap="round" stroke-linejoin="round" paint-order="stroke markers fill"/><g font-size="38.786" font-family="Microsoft Himalaya" fill="#fff" paint-order="stroke markers fill"><path d="M102.391 103.945l8.758-.788c-1.278.246-5.833 1.201-9.534 1.718-2.043.286-3.937.37-4.613.287-1.888-.204-3.64-.63-5.254-1.277-1.58-.659-2.977-1.522-4.189-2.588-1.164-1.048-2.032-2.22-2.602-3.517-.279-.634-.54-1.404-.782-2.31a74.097 74.097 0 01-.572-2.769 59.19 59.19 0 00-.567-2.622c-.17-.83-.356-1.477-.559-1.938-.304-.691-.791-1.31-1.461-1.856-.636-.557-1.419-1.003-2.349-1.338-.908-.375-1.943-.596-3.107-.663-1.142-.107-3.354-.184-4.622.043l-1.315.284c1.19-.497 3.985-2.409 4.772-3.109.787-.7 1.388-1.424 1.801-2.173.436-.788.68-1.567.733-2.335.075-.809-.04-1.558-.344-2.25-.203-.46-.555-1.04-1.057-1.735a57.558 57.558 0 00-1.58-2.262 85.717 85.717 0 01-1.71-2.418c-.518-.822-.922-1.564-1.214-2.227a8.962 8.962 0 01-.762-4.132c.11-1.44.511-2.84 1.204-4.198.728-1.369 1.924-2.392 3.205-3.571.535-.493 2.853-1.885 5.452-3.183 3.617-1.806 7.818-3.602 8.861-4.075l-9.44 5.056c-2.446 1.374-4.04 2.862-4.782 4.465-.707 1.591-.738 3.122-.092 4.591.228.519.589 1.16 1.081 1.924.527.754 1.09 1.546 1.69 2.375.587.801 1.14 1.612 1.657 2.434.54.783.943 1.477 1.209 2.082.43.98.638 2.028.62 3.145.006 1.078-.233 2.182-.713 3.311-.447 1.119-1.143 2.249-2.088 3.39-.957 1.113-2.166 2.188-3.625 3.226 1.881.01 3.624.193 5.227.55 1.604.357 3.016.855 4.235 1.493 1.254.629 2.32 1.363 3.2 2.205.878.842 1.526 1.738 1.944 2.69.266.604.497 1.35.692 2.24.23.877.438 1.795.624 2.751.186.957.364 1.851.534 2.682.217.849.44 1.533.668 2.052.646 1.469 1.855 2.618 3.628 3.446 1.819.847 4.198 1.145 7.138.894z" style="line-height:94.42%;-inkscape-font-specification:'Microsoft Himalaya';white-space:pre" aria-label="{"/><path d="M50.644 103.945l-8.758-.788c1.278.246 5.834 1.201 9.535 1.718 2.043.286 3.936.37 4.612.287 1.889-.204 3.64-.63 5.255-1.277 1.58-.659 2.976-1.521 4.188-2.588 1.165-1.048 2.032-2.22 2.603-3.517.278-.634.539-1.404.781-2.31a74.1 74.1 0 00.572-2.768c.186-.957.375-1.831.567-2.623.17-.83.356-1.477.56-1.938.303-.691.79-1.31 1.46-1.856.637-.557 1.42-1.003 2.349-1.338.908-.375 1.944-.596 3.107-.663 1.142-.107 3.354-.184 4.623.043l1.314.284c-1.189-.497-3.985-2.409-4.772-3.109-.787-.7-1.387-1.424-1.801-2.173-.435-.788-.68-1.567-.733-2.335-.074-.809.04-1.558.344-2.25.203-.46.555-1.04 1.057-1.735.467-.707.994-1.46 1.581-2.262.587-.8 1.157-1.606 1.709-2.418.518-.822.923-1.564 1.214-2.227a8.962 8.962 0 00.762-4.132c-.11-1.44-.511-2.84-1.204-4.198-.728-1.369-1.924-2.392-3.204-3.571-.536-.493-2.854-1.885-5.453-3.183-3.617-1.806-7.818-3.602-8.86-4.075l9.44 5.056c2.445 1.374 4.039 2.862 4.781 4.465.708 1.591.739 3.122.092 4.591-.228.519-.588 1.16-1.08 1.924-.528.754-1.091 1.546-1.69 2.375-.588.801-1.14 1.612-1.658 2.434-.54.783-.942 1.477-1.208 2.082a7.441 7.441 0 00-.621 3.145c-.005 1.078.233 2.182.714 3.311.446 1.119 1.142 2.249 2.087 3.39.957 1.113 2.166 2.188 3.626 3.226-1.882.01-3.624.193-5.228.55-1.604.357-3.016.855-4.235 1.493-1.254.629-2.32 1.363-3.199 2.205-.878.842-1.527 1.738-1.945 2.69-.266.604-.497 1.35-.692 2.24-.23.877-.438 1.795-.624 2.751-.186.957-.364 1.851-.534 2.682-.217.849-.44 1.533-.668 2.052-.646 1.469-1.855 2.618-3.627 3.446-1.82.847-4.2 1.145-7.14.894z" style="line-height:94.42%;-inkscape-font-specification:'Microsoft Himalaya';white-space:pre" aria-label="{" fill-opacity=".462"/></g><path style="line-height:94.42%;-inkscape-font-specification:'Microsoft Himalaya'" d="M47.727 109.866l-2.077 2.156-.172-.165q.723-.985.713-1.881-.01-.897-.71-1.572-.24-.231-.519-.34-.279-.11-.562-.118-.277-.016-.524.077-.248.092-.427.277-.165.172-.249.396-.077.218-.037.891.233.953.462 1.65.208.664.487 1.873.085.558-.074 1.067-.153.502-.51.872-.338.35-.786.528-.449.177-.941.166-.48-.012-.975-.225-.503-.207-.936-.623-.275-.265-.468-.531-.035-.046-.16-.274l-.272-.46-.272-.46q-.125-.214-.153-.24-.116-.112-.251-.11-.128.01-.374.196l-.172-.166 2.064-2.142.172.165q-.512.779-.65 1.32-.062.258-.043.555.032.296.125.597.107.302.281.589.18.28.421.511.288.278.594.414.313.142.604.157.303.015.564-.091.268-.1.467-.306.225-.233.319-.592.101-.353.018-.87-.124-.464-.297-1.094-.346-1.194-.554-2.188-.078-.593.048-1.08.139-.489.516-.88.318-.33.74-.493.428-.17.886-.164.466.011.928.205.462.193.854.57.494.477.819 1.253.077.18.134.301.056.12.117.166.124.12.266.124.141.004.394-.176zm5.078 3.72q.698.449 1.145 1.145.447.697.603 1.512.156.814-.008 1.684-.15.868-.666 1.67-.532.825-1.275 1.345-.735.524-1.56.73-.811.204-1.66.077-.835-.13-1.572-.605-.746-.48-1.214-1.179-.469-.699-.625-1.514-.142-.817.032-1.703.181-.881.729-1.731.506-.786 1.222-1.3.725-.508 1.531-.703.82-.198 1.676-.066.857.132 1.642.638zm-.357.325q-.553-.356-1.14-.394-.576-.041-1.156.208-.568.247-1.123.774-.55.52-1.05 1.297-.496.77-.765 1.504-.255.731-.266 1.382.002.648.27 1.183.272.528.834.89.505.324 1.053.406.557.086 1.136-.108.584-.202 1.163-.714.592-.515 1.155-1.388.532-.826.798-1.573.28-.75.264-1.396-.003-.648-.302-1.17-.286-.524-.871-.9zm9.137 10.97l.182.111-1.547 1.926-6.256-2.434.086-.222.311.12q.498.194.857-.044.2-.147.466-.831l2.03-5.217q.29-.746.197-1.008-.128-.356-.58-.532l-.312-.121.087-.223 3.661 1.425-.086.222q-.33-.128-.565-.179-.224-.056-.39-.05-.163-.001-.274.047-.111.049-.203.126-.158.143-.445.881l-1.973 5.074q-.163.418-.173.629-.01.21.148.354.14.116.913.417l.586.228q.933.363 1.358.375.211.01.425-.04t.446-.174q.233-.125.488-.333.254-.207.563-.527zm9.051-4.248l.04-.235 3.018.517-.04.235-.32-.055q-.489-.084-.843.291-.164.165-.288.89l-.593 3.458q-.215 1.26-.606 1.956-.193.335-.49.603-.298.269-.714.44-.414.16-.944.205-.523.055-1.171-.055-.705-.121-1.21-.333-.506-.213-.841-.512-.336-.3-.524-.67-.188-.371-.268-.81-.108-.609.154-2.141l.572-3.336q.068-.395.053-.65-.004-.261-.092-.421-.089-.16-.26-.238-.159-.086-.394-.126l-.329-.056.04-.235 3.694.633-.04.235-.329-.056q-.226-.039-.403-.021-.177.018-.314.14-.135.112-.245.354-.098.235-.169.649l-.637 3.721q-.097.564-.114 1.113-.016.548.146 1.012.164.453.553.781.4.32 1.124.444.413.071.815.043.403-.037.742-.154.349-.114.624-.309.277-.204.438-.466.339-.513.576-1.895l.592-3.458q.136-.79-.008-1.027-.196-.324-.675-.406zm11.007.01l.064 2.04-.143.004q-.13-.816-.522-1.137-.383-.332-1.117-.309l-1.22.04.21 6.623q.013.438.079.694.074.245.193.366.118.12.29.153.173.023.402.016l.295-.01.008.24-3.67.115-.007-.238.305-.01q.229-.007.4-.05.17-.044.28-.172.11-.137.16-.386.058-.25.045-.68l-.21-6.623-1.038.033q-.391.013-.694.089-.294.066-.507.245-.215.169-.339.469-.114.29-.129.748l-.238.008-.064-2.04zm6.549 7.324l.044.234-3.646.682-.044-.234.3-.056q.225-.042.388-.102.171-.07.26-.213.089-.153.098-.416.016-.275-.066-.715l-1.029-5.502q-.054-.29-.108-.475-.046-.195-.106-.31-.051-.116-.13-.17-.079-.062-.204-.107-.309-.097-.609-.041l-.3.055-.043-.234 3.646-.682.043.235-.3.055q-.224.042-.396.113-.161.07-.25.221-.089.143-.105.418-.01.264.071.695l1.03 5.502q.055.3.1.485.044.186.104.3.06.116.14.178.087.052.212.097.29.1.6.043zm3.754-10.107q.779-.286 1.604-.223.826.062 1.57.43.744.366 1.34 1.02.602.643.93 1.538.339.922.306 1.828-.024.903-.357 1.685-.327.77-.939 1.371-.607.589-1.43.89-.833.307-1.673.26-.84-.047-1.584-.414-.738-.38-1.34-1.052-.594-.676-.943-1.625-.322-.877-.3-1.759.03-.884.36-1.645.336-.774.958-1.378.621-.604 1.498-.926zm.045.482q-.618.226-1.003.672-.379.434-.53 1.048-.144.602-.058 1.362.083.752.402 1.62.316.86.74 1.516.43.645.942 1.046.519.389 1.107.498.585.1 1.212-.13.564-.207.96-.596.404-.393.598-.972.19-.588.13-1.358-.053-.783-.411-1.759-.339-.922-.775-1.584-.43-.675-.955-1.051-.518-.389-1.115-.465-.59-.087-1.244.153zm4.365-1.873l1.978-1.26 7.965 2.64-2.683-4.215q-.236-.37-.43-.552-.187-.186-.358-.224-.163-.043-.323.025-.166.06-.35.178l-.258.164-.128-.201 2.55-1.624.128.201-.266.17q-.193.122-.317.247-.124.124-.15.298-.024.174.06.414.086.24.316.602l3.922 6.161-.193.123-8.566-2.82 2.867 4.504q.241.378.428.564.189.174.352.217.163.043.323-.025t.346-.186l.257-.164.128.201-2.542 1.618-.128-.2.257-.165q.194-.123.318-.247t.154-.29q.033-.18-.052-.42-.085-.24-.315-.601l-3.236-5.084q-.284-.09-.468-.131-.176-.046-.32-.057-.142-.011-.285.012-.143.024-.348.075-.192.054-.505.254zm12.49-9.705l2.066 2.167-.173.165q-.953-.765-1.849-.793-.896-.029-1.6.642-.242.23-.363.504t-.142.557q-.027.276.055.527.082.252.26.438.164.172.384.265.214.087.888.076.963-.193 1.669-.392.672-.18 1.891-.407.562-.06 1.063.12.495.174.85.547.336.352.494.807.157.456.125.948-.032.478-.266.964-.227.494-.662.909-.276.263-.55.445-.048.033-.28.148l-.472.252-.471.252q-.219.116-.247.142-.117.112-.12.247.004.128.18.382l-.173.164-2.053-2.153.173-.165q.756.545 1.291.706.255.073.552.067.297-.02.603-.1.305-.094.6-.256.286-.168.528-.398.29-.277.439-.577.155-.306.183-.595.027-.303-.068-.569-.088-.271-.285-.479-.224-.234-.578-.344-.348-.116-.87-.054-.467.103-1.104.25-1.208.295-2.21.46-.595.052-1.077-.094-.482-.16-.857-.553-.316-.332-.46-.76-.152-.435-.127-.893.032-.465.244-.919.213-.453.607-.828.497-.474 1.286-.765.184-.07.307-.12.122-.052.17-.111.125-.119.135-.26.01-.142-.159-.402z" aria-label="SOLUTIONS" font-size="19.756" font-family="Microsoft Himalaya" letter-spacing="1.974" fill="#fff" stroke="#fff" stroke-width=".494" stroke-linecap="square" paint-order="fill markers stroke"/><path style="line-height:94.42%;-inkscape-font-specification:'Microsoft Himalaya'" d="M64.387 25.635l.08.23q-.25.086-.4.19-.14.1-.222.314-.084.205-.11.575-.03.362-.03.96l.001 7.57-.25.086-3.76-4.7-.04 6.013-.231.08-4.897-6.106q-.272-.34-.432-.532-.163-.202-.234-.26-.212-.195-.463-.233-.244-.05-.613.078l-.08-.23 3.1-1.072.08.231-.148.051q-.323.112-.447.32-.124.208-.051.42.076.222.62.9l3.278 4.136v-4.482l-.879-1.111q-.181-.196-.343-.336-.162-.14-.333-.216-.17-.075-.365-.07-.197-.004-.446.082l-.08-.23 3.257-1.126.08.231-.222.077q-.35.12-.456.323-.106.201-.017.46.108.313.656 1.002l3.18 4.003V28.09q-.005-.432-.02-.716-.016-.284-.07-.441-.102-.295-.399-.317-.3-.03-.715.113l-.08-.23zm9.376 4.807l-3.418.357-.457 1.45q-.16.538-.134.79.012.107.05.191.048.084.163.15.123.056.323.094.21.027.542.012l.025.243-2.777.29-.025-.243q.325-.083.519-.202.193-.118.322-.298.127-.19.215-.474.098-.285.232-.701l2.35-7.577.224-.023 3.832 7.01q.232.437.416.703.194.254.375.393.191.137.391.175.21.037.493.017l.025.243-3.485.363-.026-.243q.523-.074.692-.239.178-.175.156-.389-.04-.28-.358-.885zm-.235-.466L71.66 26.57 70.5 30.292zm6.318 3.036l.025-.243.34.036q.223.023.402.003.18-.021.31-.145.13-.123.216-.38.096-.254.142-.701l.597-5.699q.086-.815-.076-1.048-.222-.318-.718-.37l-.34-.035.026-.243 3.592.376q1.961.206 2.962.772.991.565 1.504 1.669.52 1.124.377 2.483-.102.98-.508 1.762-.396.783-1.09 1.31-.683.527-1.64.76-.956.234-2.18.106zm2.591-.377q.787.27 1.36.33.747.078 1.416-.127.67-.215 1.19-.67.529-.465.867-1.166.348-.7.443-1.603.095-.912-.09-1.668-.185-.765-.608-1.32-.422-.564-1.044-.904-.622-.34-1.399-.421-.572-.06-1.35.055zm15.544.895l-3.262-1.078-1.013 1.135q-.366.424-.446.665-.033.102-.033.194.01.096.087.204.09.101.256.218.18.11.489.234l-.077.231-2.65-.876.076-.232q.33.058.556.03.225-.029.416-.14.194-.121.391-.344.207-.22.5-.544l5.254-5.943.213.071.615 7.966q.032.493.092.811.071.312.18.512.118.204.285.32.176.12.442.219l-.077.231-3.327-1.1.076-.232q.507.147.73.067.233-.087.3-.291.08-.272.039-.954zm-.022-.521l-.303-3.873-2.589 2.917z" aria-label="WADA" font-size="19.756" font-family="Microsoft Himalaya" letter-spacing="1.974" fill="#fff" stroke="#fff" stroke-width=".506" stroke-linecap="square" paint-order="fill markers stroke"/><text style="line-height:94.42%;-inkscape-font-specification:'Microsoft Himalaya'" x="41.965" y="114.715" font-weight="400" font-size="19.756" font-family="Microsoft Himalaya" letter-spacing="1.974" fill="#fff" stroke="#fff" stroke-width=".5" stroke-linecap="square" paint-order="fill markers stroke"/></g></svg>