<?xml version="1.0" encoding="UTF-8" standalone="no"?>
<!-- Created with Inkscape (http://www.inkscape.org/) -->

<!-- Created by Riello76   https://riello76.github.io/-->

<svg
   width="575"
   height="575"
   viewBox="0 0 152.13535 152.13533"
   version="1.1"
   id="svg1"
   sodipodi:docname="logo-wada-solution.svg"
   inkscape:version="1.3.2 (091e20e, 2023-11-25, custom)"
   xmlns:inkscape="http://www.inkscape.org/namespaces/inkscape"
   xmlns:sodipodi="http://sodipodi.sourceforge.net/DTD/sodipodi-0.dtd"
   xmlns:xlink="http://www.w3.org/1999/xlink"
   xmlns="http://www.w3.org/2000/svg"
   xmlns:svg="http://www.w3.org/2000/svg">
  <sodipodi:namedview
     id="namedview1"
     pagecolor="#505050"
     bordercolor="#eeeeee"
     borderopacity="1"
     inkscape:showpageshadow="false"
     inkscape:pageopacity="0"
     inkscape:pagecheckerboard="false"
     inkscape:deskcolor="#505050"
     inkscape:document-units="mm"
     inkscape:zoom="0.70710678"
     inkscape:cx="258.80108"
     inkscape:cy="355.67471"
     inkscape:window-width="1920"
     inkscape:window-height="1017"
     inkscape:window-x="1912"
     inkscape:window-y="-8"
     inkscape:window-maximized="1"
     showguides="true"
     showborder="false"
     inkscape:current-layer="layer1" />
  <defs
     id="defs1">
    <rect
       x="-315"
       y="193"
       width="120"
       height="75"
       id="rect13" />
    <rect
       x="-224.96371"
       y="418.43253"
       width="330.24673"
       height="126.87954"
       id="rect7" />
    <rect
       x="622.29504"
       y="122.16835"
       width="516.67029"
       height="125.98611"
       id="rect5" />
    <rect
       x="649.69519"
       y="296.05225"
       width="260.05807"
       height="106.18287"
       id="rect41" />
    <rect
       x="789.31433"
       y="512.09839"
       width="133.82838"
       height="81.935745"
       id="rect25" />
    <rect
       x="727.86255"
       y="415.14111"
       width="215.76413"
       height="174.79626"
       id="rect21" />
    <rect
       x="148.84993"
       y="238.97925"
       width="350.9581"
       height="151.58113"
       id="rect5231" />
    <rect
       x="176.70883"
       y="227.8868"
       width="289.68661"
       height="132.29021"
       id="rect5230" />
    <rect
       x="116.07564"
       y="342.76453"
       width="206.20496"
       height="92.860512"
       id="rect5229" />
    <rect
       x="180.25864"
       y="344.13013"
       width="286.77509"
       height="83.301338"
       id="rect5228" />
    <linearGradient
       id="swatch2371">
      <stop
         style="stop-color:#000000;stop-opacity:1;"
         offset="0"
         id="stop2371" />
    </linearGradient>
    <clipPath
       clipPathUnits="userSpaceOnUse"
       id="clipPath55">
      <path
         id="path55"
         style="stroke-width:0.1;stroke-linecap:square;paint-order:markers fill stroke;stop-color:#000000"
         d="m 1736.6147,-745.57287 h 1589.4765 v 72.46715 H 1736.6147 Z" />
    </clipPath>
    <rect
       x="195.05563"
       y="367.90198"
       width="271.33978"
       height="117.80588"
       id="rect3" />
    <rect
       x="175.74319"
       y="66.627914"
       width="333.13959"
       height="107.18404"
       id="rect23" />
    <rect
       x="-360.51727"
       y="54.623829"
       width="255.36639"
       height="241.71043"
       id="rect19" />
    <rect
       x="-482.0553"
       y="238.97925"
       width="468.39935"
       height="172.06506"
       id="rect18" />
    <rect
       x="1159.3907"
       y="518.92639"
       width="479.3241"
       height="512.09839"
       id="rect17" />
    <rect
       x="695.08826"
       y="230.78568"
       width="445.1842"
       height="99.688484"
       id="rect16" />
    <rect
       x="630.90521"
       y="107.88206"
       width="540.77594"
       height="367.34525"
       id="rect15" />
    <rect
       x="-117.44123"
       y="535.31354"
       width="908.12115"
       height="187.08662"
       id="rect14" />
    <rect
       x="-308.03342"
       y="577.44196"
       width="322.51776"
       height="246.23361"
       id="rect4" />
    <rect
       x="184.35542"
       y="503.90482"
       width="387.82919"
       height="150.21553"
       id="rect2" />
    <rect
       x="-299.06546"
       y="514.82959"
       width="340.03333"
       height="173.43066"
       id="rect1" />
    <rect
       x="-299.06546"
       y="514.82959"
       width="340.03333"
       height="173.43066"
       id="rect1-3" />
    <rect
       x="-299.06546"
       y="514.82959"
       width="340.03333"
       height="173.43066"
       id="rect1-8" />
    <rect
       x="148.84993"
       y="238.97925"
       width="350.9581"
       height="151.58113"
       id="rect5231-4" />
    <rect
       x="148.84993"
       y="238.97925"
       width="350.9581"
       height="151.58113"
       id="rect5231-9" />
    <filter
       inkscape:label="Neon"
       inkscape:menu="Bevels"
       inkscape:menu-tooltip="Neon light effect"
       x="-0.59849679"
       y="-0.39621294"
       width="2.1969872"
       height="1.7924321"
       style="color-interpolation-filters:sRGB"
       id="filter691">
      <feGaussianBlur
         stdDeviation="0.51097394"
         result="result1"
         id="feGaussianBlur686" />
      <feComposite
         in="result1"
         in2="result1"
         result="result4"
         operator="in"
         id="feComposite686" />
      <feGaussianBlur
         stdDeviation="7"
         result="result6"
         in="result4"
         id="feGaussianBlur687" />
      <feComposite
         operator="over"
         in="result6"
         in2="result4"
         result="result8"
         id="feComposite687" />
      <feComposite
         operator="in"
         result="fbSourceGraphic"
         in="result6"
         in2="result8"
         id="feComposite688" />
      <feSpecularLighting
         specularExponent="45"
         specularConstant="2"
         surfaceScale="2.5"
         lighting-color="#ffffff"
         result="result1"
         in="fbSourceGraphic"
         id="feSpecularLighting688">
        <fePointLight
           z="20000"
           y="-10000"
           x="-5000"
           id="fePointLight688" />
      </feSpecularLighting>
      <feComposite
         operator="in"
         result="result2"
         in="result1"
         in2="fbSourceGraphic"
         id="feComposite689" />
      <feComposite
         k3="1.5"
         k2="1.2"
         operator="arithmetic"
         result="result4"
         in="fbSourceGraphic"
         in2="result2"
         id="feComposite690"
         k1="0"
         k4="0" />
      <feComposite
         operator="over"
         in="result9"
         in2="result4"
         result="result9"
         id="feComposite691" />
      <feBlend
         mode="screen"
         in2="result9"
         id="feBlend691" />
    </filter>
    <filter
       inkscape:label="Neon"
       inkscape:menu="Bevels"
       inkscape:menu-tooltip="Neon light effect"
       x="-0.11424616"
       y="-0.47560307"
       width="1.2284923"
       height="1.9512061"
       style="color-interpolation-filters:sRGB"
       id="filter697">
      <feGaussianBlur
         stdDeviation="1.2713029"
         result="result1"
         id="feGaussianBlur691" />
      <feComposite
         in="result1"
         in2="result1"
         result="result4"
         operator="in"
         id="feComposite692" />
      <feGaussianBlur
         stdDeviation="7"
         result="result6"
         in="result4"
         id="feGaussianBlur692" />
      <feComposite
         operator="over"
         in="result6"
         in2="result4"
         result="result8"
         id="feComposite693" />
      <feComposite
         operator="in"
         result="fbSourceGraphic"
         in="result6"
         in2="result8"
         id="feComposite694" />
      <feSpecularLighting
         specularExponent="45"
         specularConstant="2"
         surfaceScale="2.5"
         lighting-color="#ffffff"
         result="result1"
         in="fbSourceGraphic"
         id="feSpecularLighting694">
        <fePointLight
           z="20000"
           y="-10000"
           x="-5000"
           id="fePointLight694" />
      </feSpecularLighting>
      <feComposite
         operator="in"
         result="result2"
         in="result1"
         in2="fbSourceGraphic"
         id="feComposite695" />
      <feComposite
         k3="1.5"
         k2="1.2"
         operator="arithmetic"
         result="result4"
         in="fbSourceGraphic"
         in2="result2"
         id="feComposite696"
         k1="0"
         k4="0" />
      <feComposite
         operator="over"
         in="result9"
         in2="result4"
         result="result9"
         id="feComposite697" />
      <feBlend
         mode="screen"
         in2="result9"
         id="feBlend697" />
    </filter>
    <filter
       inkscape:label="Neon"
       inkscape:menu="Bevels"
       inkscape:menu-tooltip="Neon light effect"
       x="-0.59494925"
       y="-0.40051413"
       width="2.1899049"
       height="1.8010346"
       style="color-interpolation-filters:sRGB"
       id="filter703">
      <feGaussianBlur
         stdDeviation="0.51097394"
         result="result1"
         id="feGaussianBlur697" />
      <feComposite
         in="result1"
         in2="result1"
         result="result4"
         operator="in"
         id="feComposite698" />
      <feGaussianBlur
         stdDeviation="7"
         result="result6"
         in="result4"
         id="feGaussianBlur698" />
      <feComposite
         operator="over"
         in="result6"
         in2="result4"
         result="result8"
         id="feComposite699" />
      <feComposite
         operator="in"
         result="fbSourceGraphic"
         in="result6"
         in2="result8"
         id="feComposite700" />
      <feSpecularLighting
         specularExponent="45"
         specularConstant="2"
         surfaceScale="2.5"
         lighting-color="#ffffff"
         result="result1"
         in="fbSourceGraphic"
         id="feSpecularLighting700">
        <fePointLight
           z="20000"
           y="-10000"
           x="-5000"
           id="fePointLight700" />
      </feSpecularLighting>
      <feComposite
         operator="in"
         result="result2"
         in="result1"
         in2="fbSourceGraphic"
         id="feComposite701" />
      <feComposite
         k3="1.5"
         k2="1.2"
         operator="arithmetic"
         result="result4"
         in="fbSourceGraphic"
         in2="result2"
         id="feComposite702"
         k1="0"
         k4="0" />
      <feComposite
         operator="over"
         in="result9"
         in2="result4"
         result="result9"
         id="feComposite703" />
      <feBlend
         mode="screen"
         in2="result9"
         id="feBlend703" />
    </filter>
    <linearGradient
       id="linearGradient1873"
       inkscape:collect="always">
      <stop
         style="stop-color:#303030;stop-opacity:0.76862745;"
         offset="0.03028514"
         id="stop1988" />
      <stop
         style="stop-color:#000000;stop-opacity:1;"
         offset="0.3355363"
         id="stop1985" />
      <stop
         style="stop-color:#000000;stop-opacity:1;"
         offset="0.5"
         id="stop1989" />
      <stop
         style="stop-color:#000000;stop-opacity:1;"
         offset="0.65021008"
         id="stop1986" />
      <stop
         style="stop-color:#313131;stop-opacity:0.77083331;"
         offset="0.97335023"
         id="stop1987" />
    </linearGradient>
    <linearGradient
       inkscape:collect="always"
       xlink:href="#linearGradient1873"
       id="linearGradient32"
       x1="1.4805607"
       y1="76.067711"
       x2="150.65486"
       y2="76.067711"
       gradientUnits="userSpaceOnUse" />
  </defs>
  <g
     inkscape:label="Livello 1"
     inkscape:groupmode="layer"
     id="layer1">
    <text
       xml:space="preserve"
       transform="scale(0.26458333)"
       id="text15"
       style="font-size:96px;line-height:94.42%;font-family:'Microsoft Himalaya';-inkscape-font-specification:'Microsoft Himalaya';white-space:pre;shape-inside:url(#rect15);display:inline;opacity:1;fill:#ffffff;fill-opacity:1;fill-rule:evenodd;stroke:#ffffff;stroke-width:12.4724;stroke-linecap:round;stroke-linejoin:round;stroke-dasharray:none;paint-order:stroke markers fill" />
    <text
       xml:space="preserve"
       transform="scale(0.26458333)"
       id="text16"
       style="font-size:96px;line-height:94.42%;font-family:'Microsoft Himalaya';-inkscape-font-specification:'Microsoft Himalaya';white-space:pre;shape-inside:url(#rect16);display:inline;opacity:1;fill:#ffffff;fill-opacity:1;fill-rule:evenodd;stroke:#ffffff;stroke-width:12.4724;stroke-linecap:round;stroke-linejoin:round;stroke-dasharray:none;paint-order:stroke markers fill" />
    <text
       xml:space="preserve"
       transform="scale(0.26458333)"
       id="text17"
       style="font-size:96px;line-height:94.42%;font-family:'Microsoft Himalaya';-inkscape-font-specification:'Microsoft Himalaya';white-space:pre;shape-inside:url(#rect17);display:inline;opacity:1;fill:#ffffff;fill-opacity:1;fill-rule:evenodd;stroke:#ffffff;stroke-width:12.4724;stroke-linecap:round;stroke-linejoin:round;stroke-dasharray:none;paint-order:stroke markers fill" />
    <text
       xml:space="preserve"
       transform="scale(0.26458333)"
       id="text23"
       style="font-style:normal;font-variant:normal;font-weight:normal;font-stretch:normal;font-size:96px;line-height:94.42%;font-family:Caladea;-inkscape-font-specification:Caladea;white-space:pre;shape-inside:url(#rect23);display:inline;opacity:1;fill:#ffffff;fill-opacity:1;fill-rule:evenodd;stroke:#ffffff;stroke-width:2.26772;stroke-linecap:round;stroke-linejoin:round;stroke-dasharray:none;paint-order:stroke markers fill" />
    <text
       xml:space="preserve"
       transform="scale(0.26458333)"
       id="text1"
       style="font-size:96px;line-height:94.42%;font-family:'Microsoft Himalaya';-inkscape-font-specification:'Microsoft Himalaya';white-space:pre;shape-inside:url(#rect3);display:inline;opacity:0;fill:#ffffff;fill-rule:evenodd;stroke:#333333;stroke-width:3.77953;stroke-linecap:round;stroke-linejoin:round;stroke-dasharray:none;paint-order:stroke markers fill" />
    <text
       xml:space="preserve"
       transform="scale(0.26458333)"
       id="text5230"
       style="font-size:96px;line-height:94.42%;font-family:'Microsoft Himalaya';-inkscape-font-specification:'Microsoft Himalaya';letter-spacing:7.79px;direction:ltr;white-space:pre;shape-inside:url(#rect5230);display:inline;opacity:1;fill:#ffffff;fill-opacity:1;fill-rule:evenodd;stroke:#333333;stroke-width:5.29915;stroke-linecap:round;stroke-linejoin:round;stroke-dasharray:none;paint-order:stroke markers fill" />
    <text
       xml:space="preserve"
       transform="scale(0.26458333)"
       id="text13"
       style="font-style:normal;font-variant:normal;font-weight:normal;font-stretch:normal;font-size:74.6667px;line-height:94.42%;font-family:'Microsoft Himalaya';-inkscape-font-specification:'Microsoft Himalaya';letter-spacing:7.46px;white-space:pre;shape-inside:url(#rect13);opacity:1;fill:none;fill-rule:evenodd;stroke:#ffffff;stroke-width:1.88976;stroke-linecap:square;stroke-linejoin:miter;stroke-dasharray:none;stroke-opacity:1;paint-order:fill markers stroke" />
    <g
       id="g32">
      <rect
         style="opacity:0;fill:#000000;fill-rule:evenodd;stroke:#ffffff;stroke-width:0.499999;stroke-linecap:square;paint-order:fill markers stroke"
         id="rect6"
         width="152.13542"
         height="152.13542"
         x="0"
         y="0"
         ry="1.087689" />
      <path
         id="rect24"
         style="opacity:0;fill:#00ffff;fill-rule:evenodd;stroke:#000000;stroke-width:1.2084;stroke-linecap:round;stroke-linejoin:round;paint-order:stroke markers fill"
         d="M -15.086785,-4.072917 H 141.21563 V 154.27483 H -15.086785 Z" />
      <path
         id="path14"
         style="fill:url(#linearGradient32);fill-opacity:1;fill-rule:evenodd;stroke:#fcfcfc;stroke-width:3.85858;stroke-linecap:round;stroke-linejoin:round;stroke-dasharray:none;stroke-opacity:1;paint-order:stroke markers fill"
         d="M 54.455263,5.8618056 C 92.75686,-6.4577437 133.48266,14.987539 145.41889,53.761184 157.35512,92.534831 135.98177,133.95406 97.680173,146.27361 59.378565,158.59317 18.652756,137.14787 6.7165287,98.374215 -5.2197094,59.600573 16.153653,18.181357 54.455263,5.8618056 Z"
         sodipodi:nodetypes="sssss"
         inkscape:transform-center-x="1.4562853"
         inkscape:transform-center-y="-0.88953071" />
      <path
         id="rect39"
         style="opacity:0;fill:#ffffff;fill-rule:evenodd;stroke:#000000;stroke-width:0.952735;stroke-linecap:round;stroke-linejoin:round;stroke-dasharray:none;paint-order:stroke markers fill"
         d="M -36.162474,-5.8187711 H 166.77065 V 154.08473 H -36.162474 Z" />
      <path
         style="opacity:0;fill:#ffffff;fill-rule:evenodd;stroke:#000000;stroke-width:0.952735;stroke-linecap:round;stroke-linejoin:round;stroke-dasharray:none;paint-order:stroke markers fill"
         d="m 31.590537,131.09479 c -0.646081,-0.0748 -1.212853,-0.28909 -1.776708,-0.67198 -0.380616,-0.25846 -0.516691,-0.38602 -1.070272,-1.0033 -0.912533,-1.01754 -0.930088,-1.03365 -1.126507,-1.03365 -0.129482,0 -0.207746,0.0428 -0.366608,0.20063 l -0.131931,0.13104 -0.109443,-0.0713 c -0.0602,-0.0392 -0.105236,-0.0822 -0.100093,-0.0954 0.03377,-0.087 1.900726,-3.08059 1.92121,-3.08059 0.03657,0 0.206722,0.10471 0.206917,0.12733 9.1e-5,0.0105 -0.04196,0.13723 -0.09343,0.28181 -0.295727,0.83052 -0.393311,1.48759 -0.293368,1.97537 0.125116,0.61065 0.511577,1.27072 1.000742,1.70925 0.956393,0.85741 2.083643,1.01258 2.862383,0.39401 0.248549,-0.19742 0.442212,-0.49209 0.527491,-0.80262 0.05502,-0.20035 0.06665,-0.67031 0.02251,-0.91045 -0.06141,-0.33422 -0.145402,-0.54062 -0.524902,-1.2898 -1.061525,-2.0956 -1.391884,-2.78734 -1.526983,-3.19741 -0.151684,-0.4604 -0.214554,-1.00091 -0.160332,-1.37844 0.122627,-0.85383 0.70529,-1.63545 1.501383,-2.01403 0.406885,-0.19351 0.740133,-0.26771 1.200916,-0.26742 0.600109,2.5e-4 1.107363,0.13806 1.636861,0.44432 0.56584,0.32728 0.972253,0.72516 1.491016,1.45971 0.109461,0.15499 0.232574,0.31779 0.273587,0.36176 0.144604,0.15504 0.41886,0.22192 0.574665,0.14012 0.0371,-0.0195 0.128726,-0.0882 0.20363,-0.15268 l 0.136187,-0.1173 0.108557,0.0695 0.108557,0.0695 -0.968343,1.57043 c -0.532587,0.86374 -0.97118,1.57033 -0.974645,1.5702 -0.0035,-1.2e-4 -0.0559,-0.0312 -0.11652,-0.0691 l -0.11022,-0.0688 0.09469,-0.2326 c 0.313885,-0.77107 0.417433,-1.52907 0.296567,-2.17097 -0.137748,-0.73155 -0.551757,-1.33871 -1.212549,-1.77822 -0.404798,-0.26925 -0.74274,-0.36473 -1.221737,-0.34516 -0.410902,0.0168 -0.678543,0.10261 -0.963257,0.30885 -0.330318,0.2393 -0.563516,0.67919 -0.563516,1.06301 0,0.33143 0.131212,0.86521 0.303311,1.23389 0.176134,0.37733 0.563771,1.13152 0.807777,1.57161 0.109072,0.19672 0.330563,0.62594 0.492207,0.9538 0.728888,1.47845 0.796211,1.67657 0.79554,2.34115 -2.49e-4,0.28111 -0.0099,0.40176 -0.04486,0.56361 -0.118987,0.55066 -0.35297,0.98566 -0.740434,1.37651 -0.417151,0.4208 -0.946749,0.70043 -1.518185,0.80158 -0.234344,0.0415 -0.639493,0.0568 -0.851881,0.0323 z"
         id="path3" />
      <path
         style="opacity:0;fill:#ffffff;fill-rule:evenodd;stroke:#000000;stroke-width:0.952735;stroke-linecap:round;stroke-linejoin:round;stroke-dasharray:none;paint-order:stroke markers fill"
         d="m 31.590537,131.09479 c -0.646081,-0.0748 -1.212853,-0.28909 -1.776708,-0.67198 -0.380616,-0.25846 -0.516691,-0.38602 -1.070272,-1.0033 -0.912533,-1.01754 -0.930088,-1.03365 -1.126507,-1.03365 -0.129482,0 -0.207746,0.0428 -0.366608,0.20063 l -0.131931,0.13104 -0.109443,-0.0713 c -0.0602,-0.0392 -0.105236,-0.0822 -0.100093,-0.0954 0.03377,-0.087 1.900726,-3.08059 1.92121,-3.08059 0.03657,0 0.206722,0.10471 0.206917,0.12733 9.1e-5,0.0105 -0.04196,0.13723 -0.09343,0.28181 -0.295727,0.83052 -0.393311,1.48759 -0.293368,1.97537 0.125116,0.61065 0.511577,1.27072 1.000742,1.70925 0.956393,0.85741 2.083643,1.01258 2.862383,0.39401 0.248549,-0.19742 0.442212,-0.49209 0.527491,-0.80262 0.05502,-0.20035 0.06665,-0.67031 0.02251,-0.91045 -0.06141,-0.33422 -0.145402,-0.54062 -0.524902,-1.2898 -1.061525,-2.0956 -1.391884,-2.78734 -1.526983,-3.19741 -0.151684,-0.4604 -0.214554,-1.00091 -0.160332,-1.37844 0.122627,-0.85383 0.70529,-1.63545 1.501383,-2.01403 0.406885,-0.19351 0.740133,-0.26771 1.200916,-0.26742 0.600109,2.5e-4 1.107363,0.13806 1.636861,0.44432 0.56584,0.32728 0.972253,0.72516 1.491016,1.45971 0.109461,0.15499 0.232574,0.31779 0.273587,0.36176 0.144604,0.15504 0.41886,0.22192 0.574665,0.14012 0.0371,-0.0195 0.128726,-0.0882 0.20363,-0.15268 l 0.136187,-0.1173 0.108557,0.0695 0.108557,0.0695 -0.968343,1.57043 c -0.532587,0.86374 -0.97118,1.57033 -0.974645,1.5702 -0.0035,-1.2e-4 -0.0559,-0.0312 -0.11652,-0.0691 l -0.11022,-0.0688 0.09469,-0.2326 c 0.313885,-0.77107 0.417433,-1.52907 0.296567,-2.17097 -0.137748,-0.73155 -0.551757,-1.33871 -1.212549,-1.77822 -0.404798,-0.26925 -0.74274,-0.36473 -1.221737,-0.34516 -0.410902,0.0168 -0.678543,0.10261 -0.963257,0.30885 -0.330318,0.2393 -0.563516,0.67919 -0.563516,1.06301 0,0.33143 0.131212,0.86521 0.303311,1.23389 0.176134,0.37733 0.563771,1.13152 0.807777,1.57161 0.109072,0.19672 0.330563,0.62594 0.492207,0.9538 0.728888,1.47845 0.796211,1.67657 0.79554,2.34115 -2.49e-4,0.28111 -0.0099,0.40176 -0.04486,0.56361 -0.118987,0.55066 -0.35297,0.98566 -0.740434,1.37651 -0.417151,0.4208 -0.946749,0.70043 -1.518185,0.80158 -0.234344,0.0415 -0.639493,0.0568 -0.851881,0.0323 z"
         id="path4" />
      <path
         style="opacity:0;fill:#ffffff;fill-rule:evenodd;stroke:#000000;stroke-width:0.952735;stroke-linecap:round;stroke-linejoin:round;stroke-dasharray:none;paint-order:stroke markers fill"
         d="m 31.590537,131.09479 c -0.646081,-0.0748 -1.212853,-0.28909 -1.776708,-0.67198 -0.380616,-0.25846 -0.516691,-0.38602 -1.070272,-1.0033 -0.912533,-1.01754 -0.930088,-1.03365 -1.126507,-1.03365 -0.129482,0 -0.207746,0.0428 -0.366608,0.20063 l -0.131931,0.13104 -0.109443,-0.0713 c -0.0602,-0.0392 -0.105236,-0.0822 -0.100093,-0.0954 0.03377,-0.087 1.900726,-3.08059 1.92121,-3.08059 0.03657,0 0.206722,0.10471 0.206917,0.12733 9.1e-5,0.0105 -0.04196,0.13723 -0.09343,0.28181 -0.295727,0.83052 -0.393311,1.48759 -0.293368,1.97537 0.125116,0.61065 0.511577,1.27072 1.000742,1.70925 0.956393,0.85741 2.083643,1.01258 2.862383,0.39401 0.248549,-0.19742 0.442212,-0.49209 0.527491,-0.80262 0.05502,-0.20035 0.06665,-0.67031 0.02251,-0.91045 -0.06141,-0.33422 -0.145402,-0.54062 -0.524902,-1.2898 -1.061525,-2.0956 -1.391884,-2.78734 -1.526983,-3.19741 -0.151684,-0.4604 -0.214554,-1.00091 -0.160332,-1.37844 0.122627,-0.85383 0.70529,-1.63545 1.501383,-2.01403 0.406885,-0.19351 0.740133,-0.26771 1.200916,-0.26742 0.600109,2.5e-4 1.107363,0.13806 1.636861,0.44432 0.56584,0.32728 0.972253,0.72516 1.491016,1.45971 0.109461,0.15499 0.232574,0.31779 0.273587,0.36176 0.144604,0.15504 0.41886,0.22192 0.574665,0.14012 0.0371,-0.0195 0.128726,-0.0882 0.20363,-0.15268 l 0.136187,-0.1173 0.108557,0.0695 0.108557,0.0695 -0.968343,1.57043 c -0.532587,0.86374 -0.97118,1.57033 -0.974645,1.5702 -0.0035,-1.2e-4 -0.0559,-0.0312 -0.11652,-0.0691 l -0.11022,-0.0688 0.09469,-0.2326 c 0.313885,-0.77107 0.417433,-1.52907 0.296567,-2.17097 -0.137748,-0.73155 -0.551757,-1.33871 -1.212549,-1.77822 -0.404798,-0.26925 -0.74274,-0.36473 -1.221737,-0.34516 -0.410902,0.0168 -0.678543,0.10261 -0.963257,0.30885 -0.330318,0.2393 -0.563516,0.67919 -0.563516,1.06301 0,0.33143 0.131212,0.86521 0.303311,1.23389 0.176134,0.37733 0.563771,1.13152 0.807777,1.57161 0.109072,0.19672 0.330563,0.62594 0.492207,0.9538 0.728888,1.47845 0.796211,1.67657 0.79554,2.34115 -2.49e-4,0.28111 -0.0099,0.40176 -0.04486,0.56361 -0.118987,0.55066 -0.35297,0.98566 -0.740434,1.37651 -0.417151,0.4208 -0.946749,0.70043 -1.518185,0.80158 -0.234344,0.0415 -0.639493,0.0568 -0.851881,0.0323 z"
         id="path5" />
      <path
         style="opacity:0;fill:#ffffff;fill-rule:evenodd;stroke:#000000;stroke-width:0.952735;stroke-linecap:round;stroke-linejoin:round;stroke-dasharray:none;paint-order:stroke markers fill"
         d="m 31.590537,131.09479 c -0.646081,-0.0748 -1.212853,-0.28909 -1.776708,-0.67198 -0.380616,-0.25846 -0.516691,-0.38602 -1.070272,-1.0033 -0.912533,-1.01754 -0.930088,-1.03365 -1.126507,-1.03365 -0.129482,0 -0.207746,0.0428 -0.366608,0.20063 l -0.131931,0.13104 -0.109443,-0.0713 c -0.0602,-0.0392 -0.105236,-0.0822 -0.100093,-0.0954 0.03377,-0.087 1.900726,-3.08059 1.92121,-3.08059 0.03657,0 0.206722,0.10471 0.206917,0.12733 9.1e-5,0.0105 -0.04196,0.13723 -0.09343,0.28181 -0.295727,0.83052 -0.393311,1.48759 -0.293368,1.97537 0.125116,0.61065 0.511577,1.27072 1.000742,1.70925 0.956393,0.85741 2.083643,1.01258 2.862383,0.39401 0.248549,-0.19742 0.442212,-0.49209 0.527491,-0.80262 0.05502,-0.20035 0.06665,-0.67031 0.02251,-0.91045 -0.06141,-0.33422 -0.145402,-0.54062 -0.524902,-1.2898 -1.061525,-2.0956 -1.391884,-2.78734 -1.526983,-3.19741 -0.151684,-0.4604 -0.214554,-1.00091 -0.160332,-1.37844 0.122627,-0.85383 0.70529,-1.63545 1.501383,-2.01403 0.406885,-0.19351 0.740133,-0.26771 1.200916,-0.26742 0.600109,2.5e-4 1.107363,0.13806 1.636861,0.44432 0.56584,0.32728 0.972253,0.72516 1.491016,1.45971 0.109461,0.15499 0.232574,0.31779 0.273587,0.36176 0.144604,0.15504 0.41886,0.22192 0.574665,0.14012 0.0371,-0.0195 0.128726,-0.0882 0.20363,-0.15268 l 0.136187,-0.1173 0.108557,0.0695 0.108557,0.0695 -0.968343,1.57043 c -0.532587,0.86374 -0.97118,1.57033 -0.974645,1.5702 -0.0035,-1.2e-4 -0.0559,-0.0312 -0.11652,-0.0691 l -0.11022,-0.0688 0.09469,-0.2326 c 0.313885,-0.77107 0.417433,-1.52907 0.296567,-2.17097 -0.137748,-0.73155 -0.551757,-1.33871 -1.212549,-1.77822 -0.404798,-0.26925 -0.74274,-0.36473 -1.221737,-0.34516 -0.410902,0.0168 -0.678543,0.10261 -0.963257,0.30885 -0.330318,0.2393 -0.563516,0.67919 -0.563516,1.06301 0,0.33143 0.131212,0.86521 0.303311,1.23389 0.176134,0.37733 0.563771,1.13152 0.807777,1.57161 0.109072,0.19672 0.330563,0.62594 0.492207,0.9538 0.728888,1.47845 0.796211,1.67657 0.79554,2.34115 -2.49e-4,0.28111 -0.0099,0.40176 -0.04486,0.56361 -0.118987,0.55066 -0.35297,0.98566 -0.740434,1.37651 -0.417151,0.4208 -0.946749,0.70043 -1.518185,0.80158 -0.234344,0.0415 -0.639493,0.0568 -0.851881,0.0323 z"
         id="path6" />
      <path
         style="opacity:0;fill:#ffffff;fill-rule:evenodd;stroke:#000000;stroke-width:0.952735;stroke-linecap:round;stroke-linejoin:round;stroke-dasharray:none;paint-order:stroke markers fill"
         d="m 31.590537,131.09479 c -0.646081,-0.0748 -1.212853,-0.28909 -1.776708,-0.67198 -0.380616,-0.25846 -0.516691,-0.38602 -1.070272,-1.0033 -0.912533,-1.01754 -0.930088,-1.03365 -1.126507,-1.03365 -0.129482,0 -0.207746,0.0428 -0.366608,0.20063 l -0.131931,0.13104 -0.109443,-0.0713 c -0.0602,-0.0392 -0.105236,-0.0822 -0.100093,-0.0954 0.03377,-0.087 1.900726,-3.08059 1.92121,-3.08059 0.03657,0 0.206722,0.10471 0.206917,0.12733 9.1e-5,0.0105 -0.04196,0.13723 -0.09343,0.28181 -0.295727,0.83052 -0.393311,1.48759 -0.293368,1.97537 0.125116,0.61065 0.511577,1.27072 1.000742,1.70925 0.956393,0.85741 2.083643,1.01258 2.862383,0.39401 0.248549,-0.19742 0.442212,-0.49209 0.527491,-0.80262 0.05502,-0.20035 0.06665,-0.67031 0.02251,-0.91045 -0.06141,-0.33422 -0.145402,-0.54062 -0.524902,-1.2898 -1.061525,-2.0956 -1.391884,-2.78734 -1.526983,-3.19741 -0.151684,-0.4604 -0.214554,-1.00091 -0.160332,-1.37844 0.122627,-0.85383 0.70529,-1.63545 1.501383,-2.01403 0.406885,-0.19351 0.740133,-0.26771 1.200916,-0.26742 0.600109,2.5e-4 1.107363,0.13806 1.636861,0.44432 0.56584,0.32728 0.972253,0.72516 1.491016,1.45971 0.109461,0.15499 0.232574,0.31779 0.273587,0.36176 0.144604,0.15504 0.41886,0.22192 0.574665,0.14012 0.0371,-0.0195 0.128726,-0.0882 0.20363,-0.15268 l 0.136187,-0.1173 0.108557,0.0695 0.108557,0.0695 -0.968343,1.57043 c -0.532587,0.86374 -0.97118,1.57033 -0.974645,1.5702 -0.0035,-1.2e-4 -0.0559,-0.0312 -0.11652,-0.0691 l -0.11022,-0.0688 0.09469,-0.2326 c 0.313885,-0.77107 0.417433,-1.52907 0.296567,-2.17097 -0.137748,-0.73155 -0.551757,-1.33871 -1.212549,-1.77822 -0.404798,-0.26925 -0.74274,-0.36473 -1.221737,-0.34516 -0.410902,0.0168 -0.678543,0.10261 -0.963257,0.30885 -0.330318,0.2393 -0.563516,0.67919 -0.563516,1.06301 0,0.33143 0.131212,0.86521 0.303311,1.23389 0.176134,0.37733 0.563771,1.13152 0.807777,1.57161 0.109072,0.19672 0.330563,0.62594 0.492207,0.9538 0.728888,1.47845 0.796211,1.67657 0.79554,2.34115 -2.49e-4,0.28111 -0.0099,0.40176 -0.04486,0.56361 -0.118987,0.55066 -0.35297,0.98566 -0.740434,1.37651 -0.417151,0.4208 -0.946749,0.70043 -1.518185,0.80158 -0.234344,0.0415 -0.639493,0.0568 -0.851881,0.0323 z"
         id="path7" />
      <path
         style="opacity:0;fill:#ffffff;fill-rule:evenodd;stroke:#000000;stroke-width:0.952735;stroke-linecap:round;stroke-linejoin:round;stroke-dasharray:none;paint-order:stroke markers fill"
         d="m 31.590537,131.09479 c -0.646081,-0.0748 -1.212853,-0.28909 -1.776708,-0.67198 -0.380616,-0.25846 -0.516691,-0.38602 -1.070272,-1.0033 -0.912533,-1.01754 -0.930088,-1.03365 -1.126507,-1.03365 -0.129482,0 -0.207746,0.0428 -0.366608,0.20063 l -0.131931,0.13104 -0.109443,-0.0713 c -0.0602,-0.0392 -0.105236,-0.0822 -0.100093,-0.0954 0.03377,-0.087 1.900726,-3.08059 1.92121,-3.08059 0.03657,0 0.206722,0.10471 0.206917,0.12733 9.1e-5,0.0105 -0.04196,0.13723 -0.09343,0.28181 -0.295727,0.83052 -0.393311,1.48759 -0.293368,1.97537 0.125116,0.61065 0.511577,1.27072 1.000742,1.70925 0.956393,0.85741 2.083643,1.01258 2.862383,0.39401 0.248549,-0.19742 0.442212,-0.49209 0.527491,-0.80262 0.05502,-0.20035 0.06665,-0.67031 0.02251,-0.91045 -0.06141,-0.33422 -0.145402,-0.54062 -0.524902,-1.2898 -1.061525,-2.0956 -1.391884,-2.78734 -1.526983,-3.19741 -0.151684,-0.4604 -0.214554,-1.00091 -0.160332,-1.37844 0.122627,-0.85383 0.70529,-1.63545 1.501383,-2.01403 0.406885,-0.19351 0.740133,-0.26771 1.200916,-0.26742 0.600109,2.5e-4 1.107363,0.13806 1.636861,0.44432 0.56584,0.32728 0.972253,0.72516 1.491016,1.45971 0.109461,0.15499 0.232574,0.31779 0.273587,0.36176 0.144604,0.15504 0.41886,0.22192 0.574665,0.14012 0.0371,-0.0195 0.128726,-0.0882 0.20363,-0.15268 l 0.136187,-0.1173 0.108557,0.0695 0.108557,0.0695 -0.968343,1.57043 c -0.532587,0.86374 -0.97118,1.57033 -0.974645,1.5702 -0.0035,-1.2e-4 -0.0559,-0.0312 -0.11652,-0.0691 l -0.11022,-0.0688 0.09469,-0.2326 c 0.313885,-0.77107 0.417433,-1.52907 0.296567,-2.17097 -0.137748,-0.73155 -0.551757,-1.33871 -1.212549,-1.77822 -0.404798,-0.26925 -0.74274,-0.36473 -1.221737,-0.34516 -0.410902,0.0168 -0.678543,0.10261 -0.963257,0.30885 -0.330318,0.2393 -0.563516,0.67919 -0.563516,1.06301 0,0.33143 0.131212,0.86521 0.303311,1.23389 0.176134,0.37733 0.563771,1.13152 0.807777,1.57161 0.109072,0.19672 0.330563,0.62594 0.492207,0.9538 0.728888,1.47845 0.796211,1.67657 0.79554,2.34115 -2.49e-4,0.28111 -0.0099,0.40176 -0.04486,0.56361 -0.118987,0.55066 -0.35297,0.98566 -0.740434,1.37651 -0.417151,0.4208 -0.946749,0.70043 -1.518185,0.80158 -0.234344,0.0415 -0.639493,0.0568 -0.851881,0.0323 z"
         id="path8" />
      <path
         style="opacity:0;fill:#ffffff;fill-rule:evenodd;stroke:#000000;stroke-width:0.952735;stroke-linecap:round;stroke-linejoin:round;stroke-dasharray:none;paint-order:stroke markers fill"
         d="m 31.590537,131.09479 c -0.646081,-0.0748 -1.212853,-0.28909 -1.776708,-0.67198 -0.380616,-0.25846 -0.516691,-0.38602 -1.070272,-1.0033 -0.912533,-1.01754 -0.930088,-1.03365 -1.126507,-1.03365 -0.129482,0 -0.207746,0.0428 -0.366608,0.20063 l -0.131931,0.13104 -0.109443,-0.0713 c -0.0602,-0.0392 -0.105236,-0.0822 -0.100093,-0.0954 0.03377,-0.087 1.900726,-3.08059 1.92121,-3.08059 0.03657,0 0.206722,0.10471 0.206917,0.12733 9.1e-5,0.0105 -0.04196,0.13723 -0.09343,0.28181 -0.295727,0.83052 -0.393311,1.48759 -0.293368,1.97537 0.125116,0.61065 0.511577,1.27072 1.000742,1.70925 0.956393,0.85741 2.083643,1.01258 2.862383,0.39401 0.248549,-0.19742 0.442212,-0.49209 0.527491,-0.80262 0.05502,-0.20035 0.06665,-0.67031 0.02251,-0.91045 -0.06141,-0.33422 -0.145402,-0.54062 -0.524902,-1.2898 -1.061525,-2.0956 -1.391884,-2.78734 -1.526983,-3.19741 -0.151684,-0.4604 -0.214554,-1.00091 -0.160332,-1.37844 0.122627,-0.85383 0.70529,-1.63545 1.501383,-2.01403 0.406885,-0.19351 0.740133,-0.26771 1.200916,-0.26742 0.600109,2.5e-4 1.107363,0.13806 1.636861,0.44432 0.56584,0.32728 0.972253,0.72516 1.491016,1.45971 0.109461,0.15499 0.232574,0.31779 0.273587,0.36176 0.144604,0.15504 0.41886,0.22192 0.574665,0.14012 0.0371,-0.0195 0.128726,-0.0882 0.20363,-0.15268 l 0.136187,-0.1173 0.108557,0.0695 0.108557,0.0695 -0.968343,1.57043 c -0.532587,0.86374 -0.97118,1.57033 -0.974645,1.5702 -0.0035,-1.2e-4 -0.0559,-0.0312 -0.11652,-0.0691 l -0.11022,-0.0688 0.09469,-0.2326 c 0.313885,-0.77107 0.417433,-1.52907 0.296567,-2.17097 -0.137748,-0.73155 -0.551757,-1.33871 -1.212549,-1.77822 -0.404798,-0.26925 -0.74274,-0.36473 -1.221737,-0.34516 -0.410902,0.0168 -0.678543,0.10261 -0.963257,0.30885 -0.330318,0.2393 -0.563516,0.67919 -0.563516,1.06301 0,0.33143 0.131212,0.86521 0.303311,1.23389 0.176134,0.37733 0.563771,1.13152 0.807777,1.57161 0.109072,0.19672 0.330563,0.62594 0.492207,0.9538 0.728888,1.47845 0.796211,1.67657 0.79554,2.34115 -2.49e-4,0.28111 -0.0099,0.40176 -0.04486,0.56361 -0.118987,0.55066 -0.35297,0.98566 -0.740434,1.37651 -0.417151,0.4208 -0.946749,0.70043 -1.518185,0.80158 -0.234344,0.0415 -0.639493,0.0568 -0.851881,0.0323 z"
         id="path9" />
      <path
         style="opacity:0;fill:#ffffff;fill-rule:evenodd;stroke:#000000;stroke-width:0.952735;stroke-linecap:round;stroke-linejoin:round;stroke-dasharray:none;paint-order:stroke markers fill"
         d="m 31.590537,131.09479 c -0.646081,-0.0748 -1.212853,-0.28909 -1.776708,-0.67198 -0.380616,-0.25846 -0.516691,-0.38602 -1.070272,-1.0033 -0.912533,-1.01754 -0.930088,-1.03365 -1.126507,-1.03365 -0.129482,0 -0.207746,0.0428 -0.366608,0.20063 l -0.131931,0.13104 -0.109443,-0.0713 c -0.0602,-0.0392 -0.105236,-0.0822 -0.100093,-0.0954 0.03377,-0.087 1.900726,-3.08059 1.92121,-3.08059 0.03657,0 0.206722,0.10471 0.206917,0.12733 9.1e-5,0.0105 -0.04196,0.13723 -0.09343,0.28181 -0.295727,0.83052 -0.393311,1.48759 -0.293368,1.97537 0.125116,0.61065 0.511577,1.27072 1.000742,1.70925 0.956393,0.85741 2.083643,1.01258 2.862383,0.39401 0.248549,-0.19742 0.442212,-0.49209 0.527491,-0.80262 0.05502,-0.20035 0.06665,-0.67031 0.02251,-0.91045 -0.06141,-0.33422 -0.145402,-0.54062 -0.524902,-1.2898 -1.061525,-2.0956 -1.391884,-2.78734 -1.526983,-3.19741 -0.151684,-0.4604 -0.214554,-1.00091 -0.160332,-1.37844 0.122627,-0.85383 0.70529,-1.63545 1.501383,-2.01403 0.406885,-0.19351 0.740133,-0.26771 1.200916,-0.26742 0.600109,2.5e-4 1.107363,0.13806 1.636861,0.44432 0.56584,0.32728 0.972253,0.72516 1.491016,1.45971 0.109461,0.15499 0.232574,0.31779 0.273587,0.36176 0.144604,0.15504 0.41886,0.22192 0.574665,0.14012 0.0371,-0.0195 0.128726,-0.0882 0.20363,-0.15268 l 0.136187,-0.1173 0.108557,0.0695 0.108557,0.0695 -0.968343,1.57043 c -0.532587,0.86374 -0.97118,1.57033 -0.974645,1.5702 -0.0035,-1.2e-4 -0.0559,-0.0312 -0.11652,-0.0691 l -0.11022,-0.0688 0.09469,-0.2326 c 0.313885,-0.77107 0.417433,-1.52907 0.296567,-2.17097 -0.137748,-0.73155 -0.551757,-1.33871 -1.212549,-1.77822 -0.404798,-0.26925 -0.74274,-0.36473 -1.221737,-0.34516 -0.410902,0.0168 -0.678543,0.10261 -0.963257,0.30885 -0.330318,0.2393 -0.563516,0.67919 -0.563516,1.06301 0,0.33143 0.131212,0.86521 0.303311,1.23389 0.176134,0.37733 0.563771,1.13152 0.807777,1.57161 0.109072,0.19672 0.330563,0.62594 0.492207,0.9538 0.728888,1.47845 0.796211,1.67657 0.79554,2.34115 -2.49e-4,0.28111 -0.0099,0.40176 -0.04486,0.56361 -0.118987,0.55066 -0.35297,0.98566 -0.740434,1.37651 -0.417151,0.4208 -0.946749,0.70043 -1.518185,0.80158 -0.234344,0.0415 -0.639493,0.0568 -0.851881,0.0323 z"
         id="path10" />
      <path
         id="path11"
         style="display:inline;opacity:0;fill-rule:evenodd;stroke:#000000;stroke-width:0.952735;stroke-linecap:round;stroke-linejoin:round;stroke-dasharray:none;paint-order:stroke markers fill"
         d="M 73.917602,77.357481 A 43.902753,58.442023 0 0 1 30.014848,135.7995 43.902753,58.442023 0 0 1 -13.887904,77.357481 43.902753,58.442023 0 0 1 30.014848,18.915459 43.902753,58.442023 0 0 1 73.917602,77.357481 Z" />
      <path
         id="path12"
         style="opacity:0;fill-rule:evenodd;stroke:#000000;stroke-width:0.952735;stroke-linecap:round;stroke-linejoin:round;stroke-dasharray:none;paint-order:stroke markers fill"
         d="M 220.01786,83.762296 A 44.586063,45.262219 0 0 1 175.4318,129.02452 44.586063,45.262219 0 0 1 130.84574,83.762296 44.586063,45.262219 0 0 1 175.4318,38.500083 44.586063,45.262219 0 0 1 220.01786,83.762296 Z" />
      <g
         id="g41"
         transform="translate(0.44995525)">
        <path
           d="m 101.94141,103.94547 8.75752,-0.78803 c -1.27773,0.24554 -5.83326,1.20071 -9.5341,1.71775 -2.043149,0.28545 -3.936348,0.3698 -4.612579,0.28716 -1.888509,-0.20388 -3.640039,-0.62983 -5.254611,-1.27777 -1.580148,-0.65862 -2.97619,-1.52108 -4.188179,-2.58738 -1.164861,-1.04809 -2.032401,-2.220361 -2.602631,-3.516856 -0.278777,-0.633872 -0.539238,-1.404208 -0.781608,-2.310951 -0.208011,-0.917311 -0.39862,-1.83996 -0.572127,-2.767898 -0.186036,-0.956784 -0.375099,-1.830851 -0.566805,-2.622353 -0.169992,-0.83087 -0.356236,-1.476828 -0.558984,-1.937816 -0.304105,-0.69144 -0.791227,-1.31026 -1.46166,-1.856279 -0.635862,-0.556656 -1.418635,-1.002698 -2.348255,-1.338137 -0.907856,-0.374796 -1.943578,-0.595743 -3.107152,-0.662871 -1.141823,-0.106572 -3.35376,-0.183943 -4.622601,0.043 l -1.314718,0.284169 c 1.189269,-0.496803 3.985485,-2.408835 4.772519,-3.108914 0.786983,-0.700156 1.387307,-1.424636 1.800965,-2.17346 0.435425,-0.78821 0.679639,-1.566658 0.732602,-2.335314 0.07478,-0.80811 -0.0399,-1.557894 -0.344042,-2.249353 -0.202723,-0.460988 -0.555055,-1.039472 -1.056664,-1.735596 -0.467234,-0.706712 -0.994339,-1.460384 -1.581063,-2.261159 -0.586665,-0.800786 -1.15641,-1.606755 -1.708786,-2.418099 -0.517922,-0.821943 -0.922745,-1.56421 -1.214197,-2.226871 -0.582892,-1.325292 -0.836805,-2.702796 -0.761717,-4.132481 0.109538,-1.440273 0.510845,-2.839509 1.203968,-4.197708 0.727545,-1.368777 1.923861,-2.392238 3.204129,-3.571294 0.535235,-0.492964 2.853507,-1.885154 5.452425,-3.182695 3.617356,-1.806008 7.81785,-3.601984 8.861224,-4.075375 l -9.440041,5.056004 c -2.445775,1.374191 -4.03975,2.862422 -4.781939,4.464684 -0.707733,1.591664 -0.738465,3.122181 -0.09221,4.591549 0.228026,0.518623 0.588559,1.160021 1.081142,1.924348 0.526942,0.75372 1.090281,1.545348 1.689752,2.374883 0.586936,0.800709 1.139206,1.612082 1.657129,2.434034 0.539617,0.782546 0.942616,1.476299 1.208728,2.081335 0.430841,0.979582 0.637706,2.028097 0.620881,3.145449 0.0049,1.077957 -0.233194,2.181591 -0.714113,3.310932 -0.446465,1.118735 -1.142172,2.248729 -2.087101,3.390031 -0.957607,1.112466 -2.166206,2.187705 -3.625811,3.22569 1.881354,0.0098 3.623932,0.193158 5.227807,0.550061 1.603897,0.356864 3.01551,0.854781 4.234969,1.493482 1.253893,0.628151 2.320154,1.363094 3.198743,2.204878 0.878592,0.841784 1.526987,1.738054 1.945152,2.688819 0.266113,0.605027 0.496691,1.351845 0.692041,2.240349 0.22973,0.877954 0.437741,1.795265 0.62381,2.752011 0.186036,0.956794 0.364203,1.850568 0.534129,2.681466 0.217041,0.849127 0.439479,1.533031 0.667571,2.051635 0.646267,1.469391 1.855474,2.618291 3.627637,3.446791 1.819282,0.84667 4.198932,1.14471 7.138861,0.89417 z"
           id="text4"
           style="font-size:38.7858px;line-height:94.42%;font-family:'Microsoft Himalaya';-inkscape-font-specification:'Microsoft Himalaya';white-space:pre;fill:#ffffff;fill-opacity:1;fill-rule:evenodd;stroke:none;stroke-width:0.390622;stroke-linecap:round;stroke-linejoin:round;stroke-dasharray:none;stroke-opacity:1;paint-order:stroke markers fill"
           aria-label="{"
           sodipodi:nodetypes="ccscccscccsccccccscscccsccsscccscccsccccscsscccsccc"
           inkscape:transform-center-x="-1.6303002"
           inkscape:transform-center-y="-2.2891499" />
        <path
           d="m 50.193998,103.94548 -8.757517,-0.78803 c 1.277732,0.24554 5.833254,1.20071 9.534095,1.71775 2.043155,0.28545 3.936354,0.3698 4.612585,0.28716 1.888509,-0.20388 3.640039,-0.62983 5.254611,-1.27777 1.580148,-0.65862 2.97619,-1.52108 4.188179,-2.58738 1.164862,-1.04809 2.032401,-2.220362 2.602631,-3.516856 0.278778,-0.633872 0.539238,-1.404209 0.781608,-2.310951 0.208011,-0.917312 0.39862,-1.839961 0.572128,-2.767899 0.186036,-0.956783 0.375098,-1.83085 0.566804,-2.622353 0.169992,-0.830869 0.356237,-1.476827 0.558984,-1.937816 0.304105,-0.691439 0.791227,-1.31026 1.46166,-1.856279 0.635863,-0.556655 1.418635,-1.002697 2.348255,-1.338136 0.907857,-0.374796 1.943578,-0.595744 3.107152,-0.662872 1.141823,-0.106572 3.353762,-0.183942 4.622606,0.04301 l 1.314714,0.284169 c -1.189272,-0.496804 -3.985485,-2.408836 -4.77252,-3.108914 -0.786983,-0.700156 -1.387307,-1.424636 -1.800965,-2.17346 -0.435424,-0.788211 -0.679639,-1.566658 -0.732601,-2.335315 -0.07478,-0.808109 0.0399,-1.557893 0.344041,-2.249352 0.202724,-0.460988 0.555055,-1.039473 1.056665,-1.735596 0.467233,-0.706712 0.994338,-1.460384 1.581062,-2.26116 0.586666,-0.800785 1.156411,-1.606754 1.70879,-2.418099 0.51792,-0.821942 0.922737,-1.56421 1.214197,-2.22687 0.582892,-1.325293 0.836802,-2.702796 0.761713,-4.132481 -0.109538,-1.440273 -0.510847,-2.839509 -1.203966,-4.197708 -0.727549,-1.368778 -1.923863,-2.392239 -3.204131,-3.571295 -0.535234,-0.492964 -2.853507,-1.885154 -5.452425,-3.182695 -3.617355,-1.806007 -7.81785,-3.601983 -8.861224,-4.075374 l 9.440041,5.056003 c 2.445775,1.374192 4.039751,2.862423 4.78194,4.464685 0.707732,1.591664 0.738465,3.12218 0.09221,4.591549 -0.228027,0.518623 -0.58856,1.160021 -1.081142,1.924348 -0.526943,0.75372 -1.090282,1.545347 -1.689752,2.374883 -0.586937,0.800708 -1.139207,1.612082 -1.657129,2.434033 -0.539618,0.782547 -0.942617,1.4763 -1.208728,2.081336 -0.430842,0.979582 -0.637707,2.028097 -0.620882,3.145449 -0.0049,1.077956 0.233194,2.181591 0.714113,3.310932 0.446465,1.118734 1.142172,2.248728 2.087101,3.390031 0.957608,1.112465 2.166206,2.187705 3.625811,3.22569 -1.881353,0.0098 -3.623932,0.193157 -5.227807,0.55006 -1.603897,0.356865 -3.01551,0.854782 -4.234969,1.493482 -1.253892,0.628151 -2.320154,1.363095 -3.198742,2.204879 -0.878593,0.841784 -1.526988,1.738054 -1.945153,2.688819 -0.266112,0.605026 -0.49669,1.351844 -0.69204,2.240348 -0.229731,0.877954 -0.437742,1.795266 -0.623811,2.752012 -0.186035,0.956793 -0.364203,1.850567 -0.534129,2.681466 -0.217041,0.849127 -0.439479,1.533031 -0.667571,2.051634 -0.646266,1.469383 -1.855474,2.618293 -3.627637,3.446783 -1.819282,0.84667 -4.198931,1.14471 -7.138868,0.89417 z"
           id="text4-83"
           style="font-size:38.7858px;line-height:94.42%;font-family:'Microsoft Himalaya';-inkscape-font-specification:'Microsoft Himalaya';white-space:pre;fill:#ffffff;fill-opacity:0.461832;fill-rule:evenodd;stroke:none;stroke-width:0.390622;stroke-linecap:round;stroke-linejoin:round;stroke-dasharray:none;stroke-opacity:1;paint-order:stroke markers fill"
           aria-label="{"
           sodipodi:nodetypes="ccscccscccsccccccscscccsccsscccscccsccccscsscccsccc"
           inkscape:transform-center-x="1.6302999"
           inkscape:transform-center-y="-2.2891499" />
      </g>
      <path
         style="font-size:19.7556px;line-height:94.42%;font-family:'Microsoft Himalaya';-inkscape-font-specification:'Microsoft Himalaya';letter-spacing:1.97379px;fill:#ffffff;fill-rule:evenodd;stroke:#ffffff;stroke-width:0.494249;stroke-linecap:square;paint-order:fill markers stroke"
         d="m 47.726816,109.86626 -2.077312,2.15621 -0.171674,-0.16542 q 0.723447,-0.9846 0.713475,-1.88131 -0.01,-0.89672 -0.710402,-1.57146 -0.240345,-0.23154 -0.518875,-0.34101 -0.278529,-0.10946 -0.561915,-0.11767 -0.276771,-0.0152 -0.524566,0.0772 -0.247795,0.0925 -0.426418,0.27769 -0.16539,0.17169 -0.24888,0.39579 -0.07687,0.21724 -0.03733,0.89088 0.233567,0.95319 0.462359,1.65027 0.207939,0.66373 0.486728,1.87241 0.08458,0.55816 -0.07449,1.0669 -0.152492,0.50186 -0.509737,0.87267 -0.337398,0.35023 -0.785923,0.52719 -0.448526,0.17694 -0.941018,0.16593 -0.479014,-0.0114 -0.975274,-0.2246 -0.502879,-0.20647 -0.935497,-0.62325 -0.274681,-0.26461 -0.468461,-0.53074 -0.03462,-0.0462 -0.160204,-0.27352 -0.125366,-0.21344 -0.271583,-0.46022 -0.146218,-0.24678 -0.271584,-0.46029 -0.125362,-0.21343 -0.15283,-0.23992 -0.116738,-0.11244 -0.251568,-0.10989 -0.127955,0.009 -0.373992,0.19574 l -0.171675,-0.16535 2.064085,-2.1425 0.171674,0.16535 q -0.5115,0.77836 -0.649754,1.32044 -0.06265,0.25737 -0.04359,0.55375 0.03251,0.29615 0.125792,0.59787 0.106772,0.30148 0.280709,0.58822 0.180549,0.2798 0.420893,0.51135 0.288414,0.27788 0.594413,0.4138 0.312865,0.14251 0.603118,0.15738 0.303738,0.0147 0.564761,-0.0916 0.267894,-0.0995 0.466364,-0.30538 0.22493,-0.23349 0.319391,-0.59262 0.101327,-0.35261 0.01752,-0.87031 -0.123272,-0.463 -0.296877,-1.09363 -0.34595,-1.19396 -0.553304,-2.18811 -0.07849,-0.59203 0.04732,-1.07993 0.139261,-0.48815 0.516355,-0.87953 0.317548,-0.32958 0.739361,-0.49256 0.428428,-0.16983 0.887088,-0.16492 0.465528,0.0117 0.927707,0.2052 0.462178,0.1937 0.853596,0.57086 0.494422,0.47629 0.8191,1.25254 0.07755,0.18057 0.13374,0.30096 0.05622,0.1203 0.117744,0.16636 0.123606,0.11911 0.265299,0.12317 0.141691,0.004 0.394594,-0.17592 z m 5.078401,3.71925 q 0.697418,0.44918 1.14482,1.14565 0.447404,0.69651 0.603085,1.51137 0.155679,0.81486 -0.0079,1.68495 -0.150307,0.86728 -0.666651,1.66888 -0.531835,0.82567 -1.274803,1.34523 -0.734955,0.5247 -1.559572,0.73085 -0.811438,0.20318 -1.659821,0.0764 -0.835204,-0.12964 -1.572701,-0.6047 -0.745518,-0.48021 -1.214117,-1.17901 -0.468599,-0.6988 -0.624279,-1.51367 -0.142501,-0.81766 0.03132,-1.70379 0.181829,-0.88098 0.729155,-1.73077 0.506016,-0.78558 1.222625,-1.2994 0.724628,-0.50871 1.530902,-0.70388 0.819455,-0.19812 1.675854,-0.066 0.8564,0.13197 1.641996,0.63803 z m -0.35722,0.32561 q -0.553124,-0.35621 -1.140907,-0.39458 -0.574605,-0.041 -1.155196,0.20867 -0.567412,0.24701 -1.12247,0.77412 -0.549895,0.51916 -1.050749,1.29678 -0.495691,0.76953 -0.764474,1.50377 -0.255603,0.73144 -0.266495,1.38221 0.0023,0.64803 0.269936,1.18332 0.272812,0.52734 0.833952,0.88878 0.505027,0.32529 1.053814,0.4066 0.556801,0.0865 1.135627,-0.10783 0.583986,-0.20231 1.163094,-0.714 0.592287,-0.5145 1.155102,-1.38827 0.531835,-0.8257 0.797764,-1.57314 0.279109,-0.75028 0.263642,-1.39536 -0.0023,-0.64804 -0.301457,-1.16962 -0.285994,-0.52447 -0.871183,-0.90145 z m 9.137067,10.96948 0.181681,0.11154 -1.546947,1.92541 -6.256258,-2.43343 0.08643,-0.22214 0.311035,0.12095 q 0.497658,0.19357 0.856606,-0.045 0.200461,-0.14711 0.466619,-0.83139 l 2.029029,-5.21652 q 0.290353,-0.74646 0.19755,-1.00766 -0.127355,-0.35644 -0.580578,-0.53279 l -0.311036,-0.12095 0.08643,-0.22215 3.661333,1.42413 -0.08643,0.22216 q -0.328809,-0.12795 -0.564803,-0.17878 -0.223652,-0.0561 -0.390036,-0.0491 -0.162927,-0.002 -0.274018,0.0465 -0.11109,0.0485 -0.202433,0.12591 -0.157998,0.14318 -0.444897,0.88076 l -1.973724,5.07435 q -0.162459,0.41767 -0.17284,0.62851 -0.01041,0.21076 0.148586,0.35449 0.139222,0.11553 0.912368,0.41625 l 0.586522,0.2281 q 0.933107,0.36297 1.358198,0.37485 0.210819,0.0105 0.424603,-0.0397 0.213783,-0.0495 0.446334,-0.17421 0.232549,-0.12441 0.487322,-0.33226 0.254772,-0.20788 0.563367,-0.52775 z m 9.051428,-4.24785 0.04027,-0.23492 3.016876,0.51687 -0.04027,0.23491 -0.319545,-0.0545 q -0.488715,-0.0838 -0.843125,0.29094 -0.163781,0.16537 -0.287768,0.8891 l -0.592558,3.45858 q -0.215769,1.25941 -0.606128,1.95675 -0.192766,0.33459 -0.49026,0.60289 -0.297495,0.2683 -0.713685,0.43885 -0.41458,0.16114 -0.944635,0.20575 -0.522267,0.0554 -1.170752,-0.0552 -0.704878,-0.12073 -1.210256,-0.33311 -0.505375,-0.21231 -0.841055,-0.5117 -0.335678,-0.29939 -0.523679,-0.67019 -0.188,-0.37081 -0.267525,-0.81008 -0.108539,-0.6087 0.153923,-2.14064 l 0.571624,-3.33647 q 0.06761,-0.39473 0.05309,-0.64874 -0.0036,-0.26179 -0.09214,-0.42207 -0.08864,-0.16032 -0.259143,-0.23789 -0.159511,-0.0855 -0.394469,-0.12562 l -0.328943,-0.0561 0.04027,-0.23498 3.693557,0.63286 -0.04027,0.23491 -0.328941,-0.0561 q -0.225562,-0.0387 -0.402782,-0.0209 -0.177224,0.0182 -0.314158,0.13967 -0.135323,0.11229 -0.244586,0.35473 -0.09823,0.23473 -0.169106,0.64822 l -0.637641,3.72177 q -0.09661,0.56389 -0.11321,1.11248 -0.01661,0.54858 0.145904,1.01177 0.164112,0.45383 0.55296,0.7816 0.399859,0.32007 1.123533,0.44406 0.413527,0.0708 0.814963,0.0426 0.403044,-0.0373 0.742175,-0.15339 0.348529,-0.1144 0.623744,-0.30912 0.276824,-0.20408 0.437911,-0.46672 0.339359,-0.51262 0.576061,-1.8942 l 0.592557,-3.45857 q 0.135258,-0.78948 -0.008,-1.02684 -0.196053,-0.32384 -0.675368,-0.40595 z m 11.006088,0.0102 0.06449,2.03952 -0.14296,0.005 q -0.130738,-0.8163 -0.522504,-1.13779 -0.382534,-0.3314 -1.116385,-0.30821 l -1.219912,0.0387 0.209334,6.62374 q 0.01384,0.43838 0.07919,0.6939 0.07451,0.24568 0.192827,0.366 0.118282,0.12024 0.291037,0.15296 0.172454,0.0234 0.401186,0.0161 l 0.295447,-0.009 0.0076,0.23826 -3.669262,0.11596 -0.0076,-0.23826 0.304976,-0.01 q 0.228735,-0.007 0.39908,-0.0505 0.170345,-0.0434 0.280796,-0.17107 0.110151,-0.13701 0.159501,-0.38664 0.05885,-0.24991 0.04532,-0.67876 l -0.209333,-6.62375 -1.038829,0.0331 q -0.390753,0.0125 -0.693622,0.0888 -0.293641,0.0664 -0.50742,0.24497 -0.214082,0.16894 -0.338174,0.46861 -0.114859,0.28984 -0.128995,0.74824 l -0.238264,0.008 -0.06449,-2.03959 z m 6.549293,7.32426 0.04378,0.23427 -3.646047,0.68175 -0.04378,-0.23431 0.299932,-0.0558 q 0.224951,-0.0422 0.388402,-0.10174 0.171076,-0.0707 0.260767,-0.21367 0.08797,-0.15227 0.09686,-0.41587 0.01655,-0.27466 -0.06583,-0.71518 l -1.028748,-5.50192 q -0.05433,-0.29052 -0.108127,-0.47447 -0.04617,-0.19509 -0.10645,-0.30991 -0.05087,-0.1166 -0.128779,-0.16993 -0.07966,-0.0625 -0.204373,-0.10729 -0.309227,-0.0976 -0.60916,-0.0416 l -0.299932,0.0558 -0.04378,-0.23433 3.646046,-0.68176 0.04378,0.23435 -0.299932,0.0558 q -0.224949,0.0418 -0.396024,0.11283 -0.161701,0.0689 -0.24964,0.22126 -0.08966,0.14291 -0.106228,0.41759 -0.009,0.26358 0.07172,0.69479 l 1.028747,5.50184 q 0.0561,0.29991 0.100506,0.48562 0.0444,0.1857 0.104699,0.30054 0.06026,0.11487 0.139904,0.17755 0.08728,0.0513 0.211994,0.0964 0.29048,0.1009 0.599785,0.0428 z m 3.754343,-10.10695 q 0.778748,-0.2859 1.60419,-0.22327 0.825446,0.0624 1.569551,0.42933 0.7441,0.36677 1.340013,1.02153 0.601575,0.64255 0.930203,1.53764 0.338486,0.92198 0.305438,1.828 -0.02411,0.9027 -0.356502,1.685 -0.32675,0.77001 -0.939148,1.37071 -0.606732,0.58839 -1.430234,0.89072 -0.832454,0.30567 -1.672514,0.25856 -0.840063,-0.0467 -1.584162,-0.41387 -0.738439,-0.37899 -1.340921,-1.05166 -0.593533,-0.67592 -0.941877,-1.62475 -0.322057,-0.87721 -0.30034,-1.75874 0.03066,-0.88485 0.3607,-1.6459 0.335696,-0.77334 0.957045,-1.3773 0.621349,-0.60396 1.498558,-0.926 z m 0.04464,0.48131 q -0.617627,0.22674 -1.002397,0.67274 -0.379108,0.43373 -0.529553,1.04767 -0.14478,0.60165 -0.0585,1.36231 0.08295,0.75168 0.401744,1.61988 0.315483,0.85932 0.739504,1.51626 0.42969,0.64473 0.942533,1.04557 0.518512,0.38865 1.107034,0.49763 0.585233,0.10002 1.211809,-0.13005 0.563921,-0.20705 0.959462,-0.59602 0.404484,-0.39232 0.598218,-0.97132 0.190445,-0.58796 0.131035,-1.35841 -0.05374,-0.78275 -0.411945,-1.75843 -0.338487,-0.92195 -0.774748,-1.58456 -0.430595,-0.67484 -0.954769,-1.05122 -0.518508,-0.38864 -1.115074,-0.46417 -0.590901,-0.0879 -1.244331,0.15212 z m 4.364659,-1.87215 1.978758,-1.25966 7.964587,2.63874 -2.68319,-4.21493 q -0.23555,-0.37 -0.43012,-0.5513 -0.18652,-0.18646 -0.35765,-0.22446 -0.16309,-0.0433 -0.32325,0.0252 -0.16526,0.0598 -0.35026,0.17778 l -0.25741,0.16385 -0.12801,-0.20109 2.54987,-1.62323 0.12801,0.20111 -0.26545,0.16896 q -0.19304,0.1229 -0.31735,0.24724 -0.1243,0.12435 -0.14914,0.29845 -0.0251,0.17402 0.0598,0.41389 0.085,0.23986 0.3153,0.60181 l 3.92237,6.16156 -0.19305,0.12289 -8.566486,-2.82082 2.867556,4.50451 q 0.24066,0.37805 0.42718,0.56452 0.18944,0.17328 0.35253,0.21641 0.16309,0.0427 0.32324,-0.0252 0.16016,-0.0679 0.34517,-0.18581 l 0.25739,-0.16388 0.12802,0.2011 -2.54182,1.61812 -0.12802,-0.20109 0.2574,-0.16388 q 0.19305,-0.12288 0.31735,-0.24723 0.1243,-0.12436 0.15427,-0.29032 0.0332,-0.1792 -0.0517,-0.41906 -0.085,-0.23986 -0.31531,-0.60182 l -3.236227,-5.08368 q -0.28377,-0.0908 -0.468072,-0.13156 -0.176257,-0.0457 -0.318864,-0.0567 -0.142613,-0.0111 -0.285949,0.0126 -0.143333,0.0237 -0.348095,0.0746 -0.191602,0.0539 -0.505307,0.25392 z m 12.490505,-9.70563 2.06577,2.16732 -0.17255,0.1644 q -0.95284,-0.76473 -1.84918,-0.79294 -0.89634,-0.0286 -1.60036,0.64282 -0.24157,0.23024 -0.3628,0.50388 -0.12122,0.27356 -0.14148,0.55639 -0.0272,0.27585 0.0545,0.52732 0.0817,0.25154 0.25927,0.43791 0.16446,0.1725 0.3848,0.26547 0.21377,0.0862 0.88846,0.0752 0.96233,-0.19274 1.66853,-0.39168 0.672,-0.17941 1.89143,-0.40648 0.56125,-0.0605 1.06276,0.11988 0.49492,0.17377 0.85018,0.5465 0.33551,0.35197 0.49319,0.80763 0.15769,0.45566 0.12567,0.94727 -0.0321,0.47808 -0.26595,0.9648 -0.22766,0.49362 -0.66249,0.90813 -0.27609,0.26312 -0.55024,0.44539 -0.0476,0.0329 -0.28009,0.14842 -0.21861,0.11616 -0.4714,0.2517 -0.25279,0.13561 -0.4714,0.25177 -0.2186,0.11615 -0.24621,0.14243 -0.11735,0.11187 -0.12058,0.24664 0.004,0.12827 0.17967,0.38202 l -0.17254,0.1645 -2.05262,-2.15353 0.17258,-0.16449 q 0.75579,0.54421 1.2915,0.70544 0.25451,0.0735 0.55141,0.0671 0.29723,-0.0201 0.60267,-0.10023 0.30574,-0.094 0.59963,-0.25538 0.28731,-0.16846 0.52888,-0.39871 0.28989,-0.27629 0.43872,-0.5762 0.15573,-0.30656 0.18289,-0.59587 0.0278,-0.30286 -0.0672,-0.56819 -0.088,-0.27189 -0.28525,-0.47895 -0.22369,-0.23469 -0.57852,-0.34431 -0.34792,-0.11625 -0.86872,-0.0543 -0.46785,0.10339 -1.10534,0.24996 -1.20758,0.29477 -2.2097,0.45961 -0.5948,0.0529 -1.07687,-0.0935 -0.48177,-0.1599 -0.85674,-0.55336 -0.31581,-0.33133 -0.46066,-0.75966 -0.15142,-0.4353 -0.12693,-0.89335 0.0318,-0.46461 0.24457,-0.9181 0.21321,-0.45347 0.60663,-0.82851 0.49697,-0.4737 1.2863,-0.76499 0.18377,-0.0697 0.3064,-0.12076 0.12264,-0.0507 0.17126,-0.11057 0.12424,-0.11845 0.13438,-0.25978 0.0102,-0.14141 -0.15897,-0.40173 z"
         id="text40"
         inkscape:transform-center-x="0.24185597"
         inkscape:transform-center-y="41.046665"
         aria-label="SOLUTIONS" />
      <path
         style="font-size:19.7556px;line-height:94.42%;font-family:'Microsoft Himalaya';-inkscape-font-specification:'Microsoft Himalaya';letter-spacing:1.97379px;fill:#ffffff;fill-rule:evenodd;stroke:#ffffff;stroke-width:0.505964;stroke-linecap:square;paint-order:fill markers stroke"
         d="m 64.386806,25.634653 0.07967,0.230663 q -0.249115,0.08604 -0.399259,0.189536 -0.140917,0.100302 -0.221953,0.314186 -0.08422,0.204652 -0.111085,0.57538 -0.03004,0.361503 -0.02975,0.960375 l 0.0016,7.56928 -0.249115,0.08604 -3.761387,-4.700947 -0.03993,6.013885 -0.230663,0.07967 -4.89715,-6.105595 q -0.272225,-0.33971 -0.431745,-0.532465 -0.162708,-0.201982 -0.234334,-0.259861 -0.212026,-0.195274 -0.462477,-0.232698 -0.244411,-0.04984 -0.613472,0.07764 l -0.07967,-0.230663 3.100107,-1.070747 0.07967,0.230663 -0.147625,0.05099 q -0.322927,0.111536 -0.447243,0.319708 -0.124315,0.208173 -0.05102,0.420382 0.07648,0.221437 0.620965,0.900862 l 3.276785,4.135094 9.29e-4,-4.482318 -0.879456,-1.111069 q -0.181161,-0.195609 -0.343201,-0.335858 -0.162039,-0.140249 -0.332638,-0.21558 -0.170599,-0.07533 -0.365023,-0.07014 -0.197611,-0.004 -0.446726,0.08201 l -0.07967,-0.230663 3.256958,-1.124921 0.07967,0.230663 -0.221436,0.07648 q -0.350607,0.121096 -0.45647,0.322895 -0.105863,0.201799 -0.01664,0.460142 0.108349,0.3137 0.656017,1.002352 l 3.179666,4.003403 -3.73e-4,-5.173789 q -0.0047,-0.432128 -0.02009,-0.715964 -0.01542,-0.283837 -0.06959,-0.440687 -0.101975,-0.295248 -0.398559,-0.316738 -0.29977,-0.03071 -0.714963,0.112688 l -0.07967,-0.230663 z m 9.375977,4.807811 -3.417478,0.356222 -0.457227,1.451094 q -0.159956,0.536828 -0.133644,0.789255 0.01113,0.106797 0.04936,0.191139 0.04794,0.08333 0.162835,0.149869 0.123589,0.05582 0.323835,0.09383 0.208944,0.02729 0.541066,0.0123 l 0.0253,0.242717 -2.776702,0.289432 -0.0253,-0.242719 q 0.325037,-0.08295 0.518801,-0.201291 0.193763,-0.118339 0.322191,-0.298568 0.127415,-0.189938 0.215584,-0.473926 0.09787,-0.285001 0.231143,-0.701275 l 2.350836,-7.576272 0.223302,-0.02327 3.832021,7.010311 q 0.23203,0.437083 0.416718,0.702445 0.193384,0.25464 0.374625,0.392776 0.190949,0.137125 0.391196,0.175137 0.209955,0.037 0.492521,0.01736 l 0.0253,0.242719 -3.48544,0.363306 -0.0253,-0.242717 q 0.522248,-0.07406 0.691534,-0.238926 0.177983,-0.175579 0.15572,-0.389172 -0.03906,-0.28054 -0.357264,-0.885298 z m -0.235066,-0.46621 -1.866549,-3.407262 -1.16258,3.723005 z m 6.318276,3.035636 0.02542,-0.242707 0.339789,0.03558 q 0.22329,0.02338 0.402105,0.0028 0.178815,-0.02053 0.309547,-0.14425 0.130732,-0.123715 0.21643,-0.379739 0.0954,-0.255007 0.142173,-0.701587 l 0.596758,-5.69873 q 0.0854,-0.815494 -0.07669,-1.048391 -0.221916,-0.317681 -0.717037,-0.369529 l -0.339789,-0.03558 0.02542,-0.242707 3.592056,0.376154 q 1.961069,0.205359 2.961779,0.771444 0.991002,0.565068 1.503552,1.668916 0.520224,1.124281 0.377895,2.483438 -0.102679,0.980534 -0.508449,1.762479 -0.396061,0.782962 -1.089112,1.309084 -0.683344,0.52714 -1.640194,0.760641 -0.956851,0.233501 -2.180092,0.105405 z m 2.591245,-0.376421 q 0.78647,0.268837 1.359258,0.328818 0.747536,0.07828 1.416746,-0.126452 0.670228,-0.214442 1.189089,-0.670473 0.529587,-0.464724 0.867957,-1.165394 0.348079,-0.699654 0.442625,-1.602522 0.09557,-0.912577 -0.09031,-1.668146 -0.184859,-0.765276 -0.607699,-1.31992 -0.421823,-0.564353 -1.043812,-0.904298 -0.621987,-0.339946 -1.398648,-0.421277 -0.572788,-0.05998 -1.350364,0.05489 z m 15.544191,0.89495 -3.262247,-1.078796 -1.01286,1.135273 q -0.366323,0.423766 -0.446007,0.664727 -0.03372,0.101944 -0.0335,0.194549 0.0095,0.09567 0.08692,0.203523 0.08976,0.101651 0.256726,0.218553 0.179298,0.110699 0.488272,0.233436 l -0.07662,0.231693 -2.650576,-0.876521 0.07662,-0.231693 q 0.330426,0.05786 0.555697,0.02955 0.225271,-0.02831 0.416388,-0.139898 0.194181,-0.120847 0.391208,-0.343567 0.206293,-0.219655 0.498769,-0.544467 l 5.255053,-5.942282 0.213159,0.07049 0.614714,7.965612 q 0.03205,0.493814 0.09145,0.811615 0.07174,0.311598 0.180254,0.511983 0.117783,0.20345 0.28475,0.320351 0.176231,0.119967 0.441931,0.218113 l -0.0766,0.231693 -3.327119,-1.100249 0.07662,-0.231694 q 0.506588,0.146962 0.728646,0.06618 0.234392,-0.08698 0.301817,-0.290878 0.07961,-0.27183 0.03786,-0.953917 z m -0.02285,-0.521618 -0.302466,-3.873236 -2.589071,2.917031 z"
         id="text41"
         aria-label="WADA" />
    </g>
    <text
       xml:space="preserve"
       style="font-style:normal;font-variant:normal;font-weight:normal;font-stretch:normal;font-size:19.7556px;line-height:94.42%;font-family:'Microsoft Himalaya';-inkscape-font-specification:'Microsoft Himalaya';letter-spacing:1.97379px;opacity:1;fill:#ffffff;fill-opacity:1;fill-rule:evenodd;stroke:#ffffff;stroke-width:0.499999;stroke-linecap:square;stroke-linejoin:miter;stroke-dasharray:none;stroke-opacity:1;paint-order:fill markers stroke"
       x="41.965427"
       y="114.71476"
       id="text42"><tspan
         sodipodi:role="line"
         id="tspan41"
         style="stroke-width:0.5"
         x="41.965427"
         y="114.71476" /></text>
  </g>
</svg>
