<?xml version="1.0" encoding="UTF-8" standalone="no"?><svg width="1200" height="200" viewBox="0 0 98.503 16.417167" version="1.1" id="svg1" xml:space="preserve" inkscape:version="1.3.1 (91b66b0783, 2023-11-16)" sodipodi:docname="logo-wada2.svg" xmlns:inkscape="http://www.inkscape.org/namespaces/inkscape" xmlns:sodipodi="http://sodipodi.sourceforge.net/DTD/sodipodi-0.dtd" xmlns="http://www.w3.org/2000/svg" xmlns:svg="http://www.w3.org/2000/svg"><sodipodi:namedview id="namedview1" pagecolor="#505050" bordercolor="#eeeeee" borderopacity="1" inkscape:showpageshadow="false" inkscape:pageopacity="0" inkscape:pagecheckerboard="false" inkscape:deskcolor="#505050" inkscape:document-units="px" inkscape:zoom="0.71770833" inkscape:cx="548.96952" inkscape:cy="248.70827" inkscape:window-width="1920" inkscape:window-height="1017" inkscape:window-x="1912" inkscape:window-y="-8" inkscape:window-maximized="1" inkscape:current-layer="layer1" showguides="true" labelstyle="default" inkscape:clip-to-page="false" /><defs id="defs1"><inkscape:path-effect effect="fillet_chamfer" id="path-effect128" is_visible="true" lpeversion="1" nodesatellites_param="F,0,0,1,0,0,0,1 @ F,0,0,1,0,0,0,1 @ F,0,0,1,0,0,0,1 @ F,0,0,1,0,0,0,1 @ F,0,0,1,0,0,0,1 | F,0,0,1,0,0,0,1 @ F,0,0,1,0,0,0,1 @ F,0,0,1,0,0,0,1 @ F,0,0,1,0,0,0,1 @ F,0,0,1,0,0,0,1 @ F,0,0,1,0,0,0,1 @ F,0,0,1,0,0,0,1 @ F,0,0,1,0,0,0,1 @ F,0,0,1,0,0,0,1 @ F,0,0,1,0,0,0,1 @ F,0,0,1,0,0,0,1 @ F,0,0,1,0,0,0,1 @ F,0,0,1,0,0,0,1 @ F,0,0,1,0,0,0,1 @ F,0,0,1,0,0,0,1 @ F,0,0,1,0,0,0,1 @ F,0,0,1,0,0,0,1 @ F,0,0,1,0,0,0,1 @ F,0,0,1,0,0,0,1 @ F,0,0,1,0,0,0,1 @ F,0,0,1,0,0,0,1 @ F,0,0,1,0,0,0,1 @ F,0,0,1,0,0,0,1 @ F,0,0,1,0,0,0,1 @ F,0,0,1,0,0,0,1 @ F,0,0,1,0,0,0,1 @ F,0,0,1,0,0,0,1 @ F,0,0,1,0,0,0,1 @ F,0,0,1,0,0,0,1 @ F,0,0,1,0,0,0,1 @ F,0,0,1,0,0,0,1 @ F,0,0,1,0,0,0,1 @ F,0,0,1,0,0,0,1 @ F,0,0,1,0,1.529242,0,1 @ F,0,0,1,0,0,0,1" radius="0" unit="px" method="auto" mode="F" chamfer_steps="1" flexible="false" use_knot_distance="true" apply_no_radius="true" apply_with_radius="true" only_selected="false" hide_knots="false" /><linearGradient inkscape:collect="always" id="linearGradient118859"><stop style="stop-color:#fc0000;stop-opacity:1;" offset="0" id="stop118855" /><stop style="stop-color:#000000;stop-opacity:1;" offset="1" id="stop118857" /></linearGradient><linearGradient inkscape:collect="always" id="linearGradient119593"><stop style="stop-color:#000000;stop-opacity:1;" offset="0" id="stop119589" /><stop style="stop-color:#f70000;stop-opacity:1;" offset="1" id="stop119591" /></linearGradient><filter inkscape:collect="always" style="color-interpolation-filters:sRGB" id="filter130" x="-0.010187705" y="-0.14139156" width="1.0203754" height="1.2827831"><feGaussianBlur inkscape:collect="always" stdDeviation="1.1788409" id="feGaussianBlur130" /></filter></defs><g inkscape:label="Livello 1" inkscape:groupmode="layer" id="layer1"><g id="g136" transform="matrix(0.23147277,0,0,0.23147277,-7.7295755,2.0841997)"><g id="g130" transform="matrix(0.81209538,0,0,0.81209538,44.089691,-5.8737734)"><path id="text30-9-8" style="font-size:74.6667px;line-height:94.42%;font-family:'Microsoft Himalaya';-inkscape-font-specification:'Microsoft Himalaya';letter-spacing:7.46px;white-space:pre;fill:#ffffff;fill-opacity:0.46;fill-rule:evenodd;stroke:none;stroke-width:0.290085;stroke-linecap:square;stroke-dasharray:none;stroke-opacity:1;paint-order:fill markers stroke" d="M 31.961089,5.5803828 C 39.800218,9.5037817 51.673885,17.41204 46.846746,27.65665 c -0.365426,0.775538 -0.874702,1.661704 -1.528068,2.658829 -0.692086,0.982021 -1.403575,1.956314 -2.134391,2.923244 -0.74742,1.002139 -1.414857,1.931654 -2.001729,2.787756 -0.642253,0.876267 -1.096182,1.596155 -1.361958,2.160195 -0.398643,0.846049 -0.57566,1.757417 -0.531428,2.734433 0.09792,4.203822 3.955913,6.768461 7.121715,9.304811 -4.170282,-0.429766 -8.945758,-1.044826 -12.318655,1.724642 -0.808316,0.644594 -1.412044,1.39019 -1.810701,2.236239 -0.265763,0.564041 -0.525841,1.359522 -0.780576,2.386886 -0.276888,0.976983 -0.556345,2.057141 -0.838758,3.240617 -0.265812,1.148233 -0.551086,2.289322 -0.85564,3.422452 -0.343347,1.118015 -0.697564,2.064637 -1.062991,2.840187 C 23.479647,76.770156 10.903604,74.020047 0.90354512,71.49364 13.914903,73.857243 19.443253,73.68358 21.875932,65.464351 c 0.254724,-1.027364 0.52314,-2.13268 0.805554,-3.316168 0.282414,-1.183476 0.586798,-2.316528 0.913531,-3.399278 0.288,-1.09784 0.606201,-2.01677 0.955025,-2.757075 0.54814,-1.163325 1.356771,-2.24646 2.425311,-3.248611 1.068542,-1.002152 2.344906,-1.860547 3.828645,-2.575619 1.444983,-0.730174 3.100116,-1.273908 4.965847,-1.631388 1.634302,-0.313141 3.388215,-0.444075 5.247658,-0.413274 -1.306709,-1.203729 -2.412236,-2.449039 -3.289921,-3.741622 -1.001972,-1.475662 -1.710454,-2.941015 -2.125592,-4.396469 -0.453881,-1.47059 -0.650409,-2.903929 -0.589429,-4.298948 0.06096,-1.395019 0.365415,-2.674142 0.913555,-3.837456 0.348824,-0.740317 0.860924,-1.583621 1.53637,-2.530397 0.63668,-0.961892 1.329057,-1.944265 2.076489,-2.946428 0.747432,-1.002151 1.442293,-1.941211 2.084546,-2.817466 4.654714,-6.956103 1.949315,-10.547178 -9.662432,-17.9737692 z" sodipodi:nodetypes="cscccscccscccsccscsscscscsscscc" /><path id="text30-4" style="font-size:74.6667px;line-height:94.42%;font-family:'Microsoft Himalaya';-inkscape-font-specification:'Microsoft Himalaya';letter-spacing:7.46px;white-space:pre;fill:#ffffff;fill-rule:evenodd;stroke:none;stroke-width:0.434406;stroke-linecap:square;stroke-dasharray:none;stroke-opacity:1;paint-order:fill markers stroke" d="M 45.125127,5.5802522 C 37.286032,9.5036379 25.412744,17.411975 30.239731,27.656424 c 0.365423,0.775535 0.874704,1.662149 1.528072,2.659269 0.69208,0.982018 1.40394,1.95641 2.134753,2.923336 0.747417,1.002136 1.41456,1.931841 2.001428,2.787944 0.642253,0.876141 1.095902,1.595517 1.361674,2.159558 0.398643,0.846045 0.575467,1.757704 0.531234,2.734716 -0.09792,4.203683 -3.955743,6.768639 -7.121529,9.304859 4.170265,-0.429765 8.94626,-1.044497 12.319145,1.724959 0.808312,0.644593 1.412087,1.389993 1.810742,2.236039 0.265763,0.564038 0.525064,1.359181 0.779797,2.386418 0.276889,0.97698 0.556815,2.057796 0.839225,3.241146 0.265812,1.14823 0.550828,2.289404 0.855245,3.42253 4.266199,10.301811 15.529728,11.6201 25.45519,10.461201 -3.508425,-0.105229 -4.442998,0.201853 -7.882619,-0.649911 -1.394421,-0.463737 -2.740447,-1.099067 -3.996138,-1.862418 -0.658623,-0.400385 -1.257806,-0.897013 -1.83193,-1.411284 -0.843058,-0.755168 -1.688809,-1.530914 -2.354378,-2.446362 -0.572253,-0.7871 -0.988979,-1.681936 -1.37666,-2.57452 -0.365372,-0.841217 -0.612219,-1.622918 -0.887285,-2.604492 -0.328306,-1.17157 -0.586909,-2.317081 -0.913639,-3.399792 -0.288,-1.097837 -0.606159,-2.016636 -0.95498,-2.756938 -0.548139,-1.163302 -1.357157,-2.246839 -2.425692,-3.248897 -1.068538,-1.002147 -2.344459,-1.859971 -3.82819,-2.575037 -1.44498,-0.730171 -3.100503,-1.274462 -4.966105,-1.631942 -1.634298,-0.31314 -3.388308,-0.443695 -5.247742,-0.412894 1.306704,-1.203725 2.412043,-2.449313 3.289722,-3.741891 1.001969,-1.475621 1.71083,-2.941182 2.125968,-4.396631 0.45388,-1.470549 0.650608,-2.903433 0.589628,-4.298445 -0.06096,-1.394926 -0.365502,-2.674184 -0.913639,-3.837492 -0.348823,-0.740173 -0.860897,-1.583306 -1.53634,-2.530078 -0.636678,-0.961919 -1.32893,-1.944465 -2.07636,-2.94659 -0.747429,-1.002147 -1.44289,-1.941146 -2.085144,-2.8174 -4.654608,-6.95588 -1.949161,-10.547887 9.661943,-17.9740963 z M 151.18635,69.951517 195.95416,71.37727 Z" sodipodi:nodetypes="cscccscccscccccssssscsccccsccccccccccc" /></g><path id="text2-6" style="font-style:normal;font-variant:normal;font-weight:normal;font-stretch:normal;font-size:20.0102px;line-height:94.42%;font-family:Arial;-inkscape-font-specification:Arial;letter-spacing:1.43643px;mix-blend-mode:normal;fill:#cccccc;fill-opacity:1;fill-rule:evenodd;stroke:none;stroke-width:0.262665;stroke-linecap:round;stroke-linejoin:miter;stroke-dasharray:none;stroke-opacity:1;paint-order:markers stroke fill;filter:url(#filter130)" d="m 113.3829,36.586223 -6.72638,15.737122 c -0.58284,1.381901 -1.11359,2.29853 -1.59303,2.749764 -0.23501,0.225616 -0.7522,0.408644 -1.55126,0.549654 v 0.52206 h 6.02084 v -0.52206 c -0.92126,-0.06581 -1.52281,-0.206652 -1.80483,-0.422869 -0.27262,-0.225615 -0.4087,-0.48421 -0.4087,-0.775632 0,-0.366626 0.15993,-0.921224 0.47955,-1.663878 l 1.29694,-3.017506 h 7.40358 l 1.156,2.749764 c 0.37603,0.893065 0.56384,1.546331 0.56384,1.959961 0,0.310222 -0.1361,0.573587 -0.40871,0.789802 -0.26322,0.216216 -0.77564,0.342756 -1.5371,0.380358 v 0.52206 h 7.5438 v -0.52206 c -0.78025,-0.047 -1.3906,-0.258649 -1.83244,-0.634676 -0.43243,-0.385428 -0.91698,-1.216953 -1.45282,-2.495445 l -6.65556,-15.906419 z m 45.85707,0 -6.72637,15.737122 c -0.58284,1.381901 -1.1136,2.29853 -1.59304,2.749764 -0.23501,0.225616 -0.7522,0.408644 -1.55126,0.549654 v 0.52206 h 6.02084 v -0.52206 c -0.92125,-0.06581 -1.52282,-0.206652 -1.80483,-0.422869 -0.27262,-0.225615 -0.40871,-0.48421 -0.40871,-0.775632 0,-0.366626 0.15994,-0.921224 0.47956,-1.663878 l 1.29694,-3.017506 h 7.40357 l 1.15597,2.749764 c 0.37603,0.893065 0.56384,1.546331 0.56384,1.959961 0,0.310222 -0.13609,0.573587 -0.4087,0.789802 -0.26323,0.216216 -0.77564,0.342756 -1.53709,0.380358 v 0.52206 h 7.54449 v -0.52206 c -0.78025,-0.047 -1.39134,-0.258649 -1.83315,-0.634676 -0.43243,-0.385428 -0.917,-1.216953 -1.45283,-2.495445 l -6.65551,-15.906419 z m 27.93467,0 c -1.62632,0 -2.96624,0.498855 -4.01911,1.495329 -1.05288,0.987071 -1.57886,2.166321 -1.57886,3.538819 0,0.789659 0.17825,1.513722 0.53549,2.17177 0.35722,0.658048 0.87917,1.259595 1.56542,1.804835 0.69565,0.54524 1.86133,1.278842 3.49706,2.200109 1.63572,0.911867 2.63672,1.508645 3.00334,1.790667 0.54524,0.41363 0.94467,0.860021 1.19849,1.339455 0.26323,0.479436 0.39528,0.954445 0.39528,1.424477 0,0.846063 -0.34296,1.578919 -1.02921,2.199365 -0.67685,0.620444 -1.60302,0.930758 -2.77809,0.930758 -1.01528,0 -1.95099,-0.225208 -2.80645,-0.67644 -0.84606,-0.451233 -1.47548,-1.015371 -1.88911,-1.69222 -0.41364,-0.68625 -0.74302,-1.715857 -0.98745,-3.088358 h -0.52131 v 6.557072 h 0.52131 c 0.0658,-0.441832 0.16447,-0.733066 0.29609,-0.874076 0.141,-0.141017 0.32955,-0.211807 0.56457,-0.211807 0.24442,0 0.82212,0.150386 1.73398,0.451208 0.92128,0.291422 1.52759,0.460887 1.81901,0.507889 0.48884,0.0846 1.0108,0.126786 1.56543,0.126786 1.76733,0 3.20994,-0.521957 4.32862,-1.565433 1.12809,-1.052877 1.69223,-2.302922 1.69223,-3.750628 0,-0.761455 -0.17827,-1.490288 -0.53549,-2.185938 -0.34783,-0.695652 -0.8507,-1.297199 -1.50875,-1.804836 -0.64865,-0.517038 -1.86605,-1.254665 -3.65219,-2.213534 -2.19036,-1.175085 -3.57723,-2.115564 -4.16007,-2.820616 -0.40423,-0.479434 -0.60634,-1.010185 -0.60634,-1.593027 0,-0.761456 0.31987,-1.438571 0.9591,-2.030814 0.63924,-0.601643 1.44768,-0.902417 2.42535,-0.902417 0.86485,0 1.70116,0.221185 2.50962,0.663016 0.80846,0.441832 1.42908,1.038611 1.86151,1.790665 0.44183,0.752056 0.74737,1.762585 0.91659,3.031676 h 0.52205 v -6.613752 h -0.52205 c -0.094,0.441832 -0.22055,0.738583 -0.38035,0.888993 -0.15041,0.141016 -0.3485,0.211062 -0.59292,0.211062 -0.21623,0 -0.58703,-0.117751 -1.11348,-0.352764 -1.13748,-0.498236 -2.21405,-0.747291 -3.22931,-0.747291 z m 21.29258,0 c -2.50058,0 -4.64818,0.832271 -6.4437,2.496191 -2.06815,1.91774 -3.10253,4.394728 -3.10253,7.43115 0,2.970618 0.89278,5.391117 2.67891,7.261853 1.79553,1.870737 4.00991,2.806444 6.64209,2.806444 2.60398,0 4.82239,-0.95881 6.65551,-2.876549 1.83314,-1.91774 2.74978,-4.329447 2.74978,-7.234259 0,-2.820205 -0.91186,-5.169909 -2.73561,-7.050046 -1.81433,-1.889538 -3.96267,-2.834784 -6.44445,-2.834784 z m 96.97412,0 c -2.50058,0 -4.64893,0.832271 -6.44446,2.496191 -2.06814,1.91774 -3.10179,4.394728 -3.10179,7.43115 0,2.970618 0.89278,5.391117 2.67892,7.261853 1.79553,1.870737 4.0099,2.806444 6.64209,2.806444 2.60399,0 4.82239,-0.95881 6.65552,-2.876549 1.83314,-1.91774 2.74976,-4.329447 2.74976,-7.234259 0,-2.820205 -0.91185,-5.169909 -2.73558,-7.050046 -1.81434,-1.889538 -3.96269,-2.834784 -6.44446,-2.834784 z m 42.69852,0 c -1.62632,0 -2.96624,0.498855 -4.0191,1.495329 -1.05289,0.987071 -1.57886,2.166321 -1.57886,3.538819 0,0.789659 0.17824,1.513722 0.53548,2.17177 0.35722,0.658048 0.87918,1.259595 1.56543,1.804835 0.69566,0.54524 1.86134,1.278842 3.49705,2.200109 1.63573,0.911867 2.63671,1.508645 3.00335,1.790667 0.54522,0.41363 0.94468,0.860021 1.19849,1.339455 0.26321,0.479436 0.39527,0.954445 0.39527,1.424477 0,0.846063 -0.3437,1.578919 -1.02995,2.199365 -0.67684,0.620444 -1.60227,0.930758 -2.77736,0.930758 -1.01527,0 -1.95097,-0.225208 -2.80643,-0.67644 -0.84607,-0.451233 -1.47548,-1.015371 -1.88913,-1.69222 -0.41362,-0.68625 -0.74302,-1.715857 -0.98742,-3.088358 h -0.52132 v 6.557072 h 0.52132 c 0.0658,-0.441832 0.16446,-0.733066 0.29607,-0.874076 0.141,-0.141017 0.3288,-0.211807 0.56383,-0.211807 0.24441,0 0.82287,0.150386 1.73473,0.451208 0.92127,0.291422 1.52758,0.460887 1.81901,0.507889 0.48883,0.0846 1.01079,0.126786 1.56543,0.126786 1.76733,0 3.20993,-0.521957 4.32862,-1.565433 1.12809,-1.052877 1.69223,-2.302922 1.69223,-3.750628 0,-0.761455 -0.17827,-1.490288 -0.53549,-2.185938 -0.34783,-0.695652 -0.8507,-1.297199 -1.50876,-1.804836 -0.64864,-0.517038 -1.86605,-1.254665 -3.65218,-2.213534 -2.19036,-1.175085 -3.57723,-2.115564 -4.16007,-2.820616 -0.40422,-0.479434 -0.60633,-1.010185 -0.60633,-1.593027 0,-0.761456 0.31984,-1.438571 0.95909,-2.030814 0.63925,-0.601643 1.44768,-0.902417 2.42536,-0.902417 0.86485,0 1.70115,0.221185 2.50961,0.663016 0.80845,0.441832 1.42908,1.038611 1.86151,1.790665 0.44183,0.752056 0.74738,1.762585 0.91658,3.031676 h 0.52206 v -6.613752 h -0.52206 c -0.094,0.441832 -0.22128,0.738583 -0.38109,0.888993 -0.15042,0.141016 -0.34776,0.211062 -0.59217,0.211062 -0.21622,0 -0.58704,-0.117751 -1.11348,-0.352764 -1.13748,-0.498236 -2.21405,-0.747291 -3.22932,-0.747291 z M 77.537517,37.024008 v 0.521314 c 0.55464,0 0.992238,0.08913 1.311861,0.267741 0.329025,0.169213 0.587618,0.432576 0.775633,0.789803 0.112815,0.216216 0.380194,0.916431 0.803225,2.100918 l 5.682995,15.878077 h 0.507891 l 4.328621,-12.225895 4.357709,12.225895 h 0.563825 l 5.330233,-15.412698 c 0.40423,-1.240891 0.70023,-2.025466 0.88824,-2.35449 0.28202,-0.488835 0.57803,-0.822996 0.88825,-1.00161 0.31022,-0.178611 0.71443,-0.267741 1.21267,-0.267741 v -0.521314 h -5.710587 v 0.521314 c 0.573442,0 1.038911,0.06603 1.396138,0.197637 0.206809,0.07521 0.375529,0.206514 0.507139,0.394527 0.14102,0.188015 0.21181,0.390121 0.21181,0.606335 0,0.451233 -0.20688,1.259657 -0.620503,2.425342 L 96.334656,51.702839 92.668302,41.310118 c -0.42303,-1.193885 -0.634674,-2.03018 -0.634674,-2.509616 0,-0.385428 0.122514,-0.690971 0.366933,-0.916587 0.244418,-0.225616 0.629551,-0.338593 1.155989,-0.338593 h 0.50789 v -0.521314 h -7.445318 v 0.521314 c 0.385427,0 0.667123,0.02862 0.845735,0.08501 0.235019,0.07521 0.47051,0.196975 0.705527,0.366187 0.178613,0.122211 0.329,0.272597 0.451209,0.451209 0.244418,0.357227 0.464856,0.770977 0.662271,1.241012 l 0.451208,1.283521 0.564572,1.607198 -3.17338,9.12337 -3.764797,-10.730568 c -0.41363,-1.184487 -0.620506,-1.941937 -0.620506,-2.27096 0,-0.319624 0.132054,-0.59178 0.395274,-0.817398 0.263221,-0.225615 0.643584,-0.338593 1.14182,-0.338593 h 0.338593 v -0.521313 z m 49.171393,0 v 0.521314 h 0.71895 c 0.72385,0 1.26891,0.206875 1.63553,0.620505 0.26322,0.300822 0.39528,1.047988 0.39528,2.241874 v 12.352683 c 0,1.081078 -0.10347,1.776523 -0.31025,2.086748 -0.33843,0.517037 -0.9121,0.775631 -1.72056,0.775631 h -0.71895 v 0.52206 h 8.54537 c 3.71328,0 6.47673,-0.996966 8.29107,-2.989912 1.61692,-1.786129 2.42534,-4.009293 2.42534,-6.669688 0,-1.983543 -0.45594,-3.731699 -1.3678,-5.245208 -0.90247,-1.513511 -2.1008,-2.594837 -3.59551,-3.243485 -1.4853,-0.648647 -3.65675,-0.972522 -6.51456,-0.972522 z m 94.70315,0 v 0.521314 h 0.71971 c 0.72386,0 1.26892,0.206875 1.63554,0.620505 0.26322,0.300822 0.39453,1.047988 0.39453,2.241874 v 12.338512 c 0,1.090479 -0.0987,1.785927 -0.29608,2.086748 -0.34784,0.526439 -0.92553,0.789802 -1.73399,0.789802 h -0.71971 v 0.52206 h 14.80637 l 1.63554,-5.189275 -0.46537,-0.09844 c -0.48884,1.184488 -0.97742,2.053422 -1.46625,2.608062 -0.48884,0.545241 -1.02912,0.926349 -1.62138,1.142566 -0.59222,0.216215 -1.62184,0.324423 -3.08834,0.324423 h -1.39614 c -1.23149,0 -1.96435,-0.04695 -2.19937,-0.140959 -0.235,-0.09401 -0.40924,-0.239623 -0.52205,-0.437038 -0.15041,-0.29142 -0.22524,-0.827688 -0.22524,-1.607945 v -12.01409 c 0,-1.137483 0.0749,-1.856777 0.22524,-2.157599 0.15041,-0.300822 0.42807,-0.549877 0.8323,-0.747291 0.41364,-0.197414 1.12816,-0.291314 2.14345,-0.281912 v -0.521314 z m 19.29087,0 v 0.521314 h 0.71896 c 0.72385,0 1.2458,0.183027 1.56543,0.549653 0.32902,0.366628 0.49371,1.13764 0.49371,2.312726 v 7.47366 c 0,2.303168 0.15039,3.873064 0.45122,4.709726 0.45123,1.222089 1.21748,2.195208 2.29854,2.91906 1.08108,0.723853 2.66454,1.085885 4.7515,1.085885 1.91774,0 3.43115,-0.37634 4.54043,-1.128396 1.11869,-0.761455 1.86658,-1.668547 2.24261,-2.721423 0.38543,-1.062277 0.57799,-2.551838 0.57799,-4.469578 v -7.755572 c 0,-1.062278 0.0987,-1.739392 0.2961,-2.030814 0.40422,-0.629846 0.98266,-0.944927 1.73472,-0.944927 h 0.71895 v -0.521314 h -6.76888 v 0.521314 h 0.7197 c 0.72387,0 1.26891,0.206875 1.63554,0.620505 0.26323,0.300822 0.39453,1.047988 0.39453,2.241874 v 7.741402 c 0,2.030549 -0.18303,3.473906 -0.54965,4.329368 -0.35723,0.846062 -1.02957,1.541508 -2.01666,2.086749 -0.98706,0.545238 -2.1058,0.818141 -3.35608,0.818141 -0.97768,0 -1.80444,-0.174234 -2.48128,-0.52206 -0.66744,-0.347825 -1.17988,-0.789447 -1.5371,-1.325286 -0.35722,-0.535839 -0.60628,-1.283004 -0.74729,-2.241874 -0.13162,-0.95887 -0.19763,-1.810218 -0.19763,-2.552872 v -8.333568 c 0,-1.071678 0.11776,-1.776664 0.35277,-2.115088 0.33841,-0.498236 0.90181,-0.747291 1.69147,-0.747291 h 0.73387 v -0.521314 z m 23.87305,0 -0.22523,4.483748 h 0.53548 c 0.0658,-0.864863 0.27269,-1.55077 0.62051,-2.058408 0.34781,-0.507636 0.76635,-0.851336 1.25518,-1.029949 0.37603,-0.131606 1.01022,-0.196891 1.90328,-0.196891 h 2.29856 v 14.608726 c 0,1.071678 -0.10348,1.757587 -0.31025,2.058408 -0.33843,0.488835 -0.91136,0.733121 -1.71982,0.733121 h -0.67718 v 0.52206 h 8.10833 v -0.52206 h -0.66303 c -0.74264,0 -1.29247,-0.197336 -1.6497,-0.592164 C 273.79829,54.739177 273.671,54.00632 273.671,52.831234 V 38.222508 h 2.69384 c 0.78966,0 1.42385,0.131303 1.90328,0.394527 0.48882,0.25382 0.87875,0.653261 1.17015,1.198502 0.17862,0.338424 0.32021,0.902562 0.42362,1.692219 h 0.53548 l -0.21105,-4.483748 z m 19.33262,0 v 0.521314 h 0.67719 c 0.45124,0 0.88332,0.112974 1.29694,0.338593 0.29143,0.169212 0.48475,0.371318 0.57874,0.606334 0.12225,0.310224 0.18273,0.949181 0.18273,1.917452 v 12.352683 c 0,1.146882 -0.11228,1.870946 -0.33785,2.171769 -0.35723,0.460634 -0.93091,0.69061 -1.72056,0.69061 h -0.67719 v 0.52206 h 8.19336 v -0.52206 h -0.69135 c -0.45124,0 -0.8793,-0.112975 -1.28352,-0.338594 -0.30083,-0.169212 -0.49816,-0.371317 -0.59217,-0.606334 -0.12224,-0.310223 -0.18273,-0.949181 -0.18273,-1.917451 V 40.407701 c 0,-1.146884 0.11705,-1.870202 0.35201,-2.171022 0.35725,-0.460635 0.92614,-0.691357 1.70641,-0.691357 h 0.69135 v -0.521314 z m 33.51922,0 v 0.521314 c 0.55465,0 0.96765,0.04218 1.24027,0.126785 0.55464,0.178614 0.97317,0.37118 1.25519,0.577995 0.29141,0.206815 0.7147,0.634874 1.26935,1.283522 v 13.29761 c 0,1.071678 -0.10347,1.757587 -0.31025,2.058408 -0.33843,0.488835 -0.91687,0.733121 -1.73474,0.733121 h -0.66227 v 0.52206 h 6.65552 v -0.52206 h -0.67718 c -0.74266,0 -1.29248,-0.197336 -1.64971,-0.592164 -0.25382,-0.291422 -0.38036,-1.024279 -0.38036,-2.199365 V 41.056546 l 12.60625,15.398529 h 0.50714 V 40.337596 c 0,-1.071678 0.10348,-1.758331 0.31026,-2.059154 0.33842,-0.488835 0.9121,-0.73312 1.72055,-0.73312 h 0.67718 v -0.521314 h -6.65626 v 0.521314 h 0.66303 c 0.75205,0 1.30188,0.197335 1.64971,0.592164 0.26321,0.291423 0.39527,1.025024 0.39527,2.20011 v 11.02665 L 322.61635,37.024008 Z m -109.22835,0.592165 c 1.82374,0 3.2528,0.638957 4.28688,1.917451 1.28789,1.607517 1.93162,4.047095 1.93162,7.318533 0,3.017621 -0.58725,5.226475 -1.76234,6.627177 -1.16568,1.400703 -2.64645,2.100919 -4.44198,2.100919 -1.68271,0 -3.0362,-0.638959 -4.06088,-1.917451 -1.3349,-1.682723 -2.00247,-4.08489 -2.00247,-7.205919 0,-3.045822 0.64373,-5.358114 1.93162,-6.93743 1.03408,-1.269091 2.40665,-1.90328 4.11755,-1.90328 z m 96.97412,0 c 1.82373,0 3.25278,0.638957 4.28686,1.917451 1.28789,1.607517 1.93163,4.047095 1.93163,7.318533 0,3.017621 -0.58725,5.226475 -1.76233,6.627177 -1.16569,1.400703 -2.64646,2.100919 -4.44198,2.100919 -1.68273,0 -3.03695,-0.638959 -4.06164,-1.917451 -1.33489,-1.682723 -2.00173,-4.08489 -2.00173,-7.205919 0,-3.045822 0.64373,-5.358114 1.93162,-6.93743 1.03408,-1.269091 2.40664,-1.90328 4.11757,-1.90328 z m -170.11695,0.478802 c 2.25617,0 4.10299,0.761474 5.54129,2.284386 1.43831,1.522911 2.15761,3.605226 2.15761,6.246818 0,2.622792 -0.7193,4.700338 -2.15761,6.232651 -1.4383,1.532311 -3.24771,2.298555 -5.42867,2.298555 -0.80846,0 -1.80945,-0.131304 -3.00333,-0.39453 V 38.50442 c 1.08107,-0.272619 2.04465,-0.409445 2.89071,-0.409445 z m -22.19506,2.877296 3.24276,7.727232 h -6.57127 z m 45.85707,0 3.24274,7.727232 h -6.57125 z" transform="matrix(0.81209538,0,0,0.81209538,34.801502,4.9716436)" /><path id="text2" style="font-style:normal;font-variant:normal;font-weight:normal;font-stretch:normal;font-size:20.0102px;line-height:94.42%;font-family:Arial;-inkscape-font-specification:Arial;letter-spacing:1.43643px;fill:#ffffff;fill-opacity:1;fill-rule:evenodd;stroke:none;stroke-width:0.213309;stroke-linecap:round;stroke-linejoin:miter;stroke-dasharray:none;stroke-opacity:1;paint-order:markers stroke fill" d="m 127.4277,34.607928 -5.46247,12.780044 c -0.47332,1.122235 -0.90434,1.866626 -1.29369,2.233071 -0.19085,0.183221 -0.61086,0.331858 -1.25977,0.446371 v 0.423963 h 4.8895 v -0.423963 c -0.74816,-0.05344 -1.23667,-0.167821 -1.46571,-0.34341 -0.22138,-0.183221 -0.33189,-0.393225 -0.33189,-0.629887 0,-0.297735 0.12987,-0.748122 0.38944,-1.351228 l 1.05324,-2.450502 h 6.01241 l 0.93878,2.23307 c 0.30538,0.725254 0.4579,1.255769 0.4579,1.591676 0,0.251929 -0.11053,0.465807 -0.33192,0.641394 -0.21376,0.175588 -0.62989,0.278351 -1.24827,0.308887 v 0.423963 h 6.12629 v -0.423963 c -0.63364,-0.03817 -1.1293,-0.210048 -1.48812,-0.515417 -0.35117,-0.313005 -0.74467,-0.988282 -1.17983,-2.02654 l -5.40495,-12.917529 z m 37.24031,0 -5.46245,12.780044 c -0.47332,1.122235 -0.90435,1.866626 -1.2937,2.233071 -0.19085,0.183221 -0.61086,0.331858 -1.25977,0.446371 v 0.423963 h 4.88949 v -0.423963 c -0.74814,-0.05344 -1.23667,-0.167821 -1.46569,-0.34341 -0.2214,-0.183221 -0.33191,-0.393225 -0.33191,-0.629887 0,-0.297735 0.12988,-0.748122 0.38944,-1.351228 l 1.05324,-2.450502 h 6.01241 l 0.93876,2.23307 c 0.30537,0.725254 0.45789,1.255769 0.45789,1.591676 0,0.251929 -0.11052,0.465807 -0.33191,0.641394 -0.21376,0.175588 -0.62989,0.278351 -1.24826,0.308887 v 0.423963 h 6.12685 v -0.423963 c -0.63364,-0.03817 -1.1299,-0.210048 -1.4887,-0.515417 -0.35117,-0.313005 -0.74469,-0.988282 -1.17983,-2.02654 l -5.40491,-12.917529 z m 22.68562,0 c -1.32073,0 -2.40887,0.405118 -3.2639,1.21435 -0.85504,0.801595 -1.28219,1.759259 -1.28219,2.873858 0,0.641279 0.14476,1.229287 0.43487,1.763685 0.2901,0.534397 0.71397,1.022911 1.27127,1.465698 0.56494,0.442787 1.51158,1.038541 2.83995,1.786698 1.32836,0.740523 2.14127,1.225164 2.439,1.454193 0.44278,0.335907 0.76716,0.698419 0.97328,1.087765 0.21377,0.389348 0.32101,0.7751 0.32101,1.156811 0,0.687084 -0.27852,1.282233 -0.83582,1.786094 -0.54966,0.50386 -1.3018,0.755864 -2.25607,0.755864 -0.82451,0 -1.58439,-0.18289 -2.27911,-0.549333 -0.68708,-0.366445 -1.19823,-0.824579 -1.53413,-1.374244 -0.33592,-0.557301 -0.60341,-1.39344 -0.80191,-2.508042 h -0.42335 v 5.324968 h 0.42335 c 0.0534,-0.35881 0.13357,-0.595319 0.24046,-0.709833 0.1145,-0.114519 0.26762,-0.172007 0.45848,-0.172007 0.19849,0 0.66764,0.122127 1.40816,0.366424 0.74816,0.236662 1.24055,0.374284 1.47721,0.412454 0.39698,0.0687 0.82086,0.102962 1.27128,0.102962 1.43524,0 2.60677,-0.423879 3.51525,-1.271281 0.91611,-0.855036 1.37425,-1.870192 1.37425,-3.045867 0,-0.618375 -0.14477,-1.210256 -0.43487,-1.775191 -0.28247,-0.564935 -0.69085,-1.053449 -1.22525,-1.465699 -0.52676,-0.419884 -1.51541,-1.018907 -2.96592,-1.7976 -1.77879,-0.954281 -2.90506,-1.71804 -3.37838,-2.29061 -0.32827,-0.389346 -0.4924,-0.820366 -0.4924,-1.293689 0,-0.618375 0.25976,-1.168257 0.77888,-1.649215 0.51912,-0.488592 1.17565,-0.732849 1.96961,-0.732849 0.70234,0 1.38151,0.179624 2.03805,0.538432 0.65655,0.35881 1.16055,0.843452 1.51173,1.454191 0.3588,0.610741 0.60693,1.431387 0.74436,2.46201 h 0.42395 v -5.370997 h -0.42395 c -0.0763,0.35881 -0.17911,0.5998 -0.30889,0.721947 -0.12214,0.114518 -0.28301,0.171402 -0.4815,0.171402 -0.1756,0 -0.47673,-0.09562 -0.90425,-0.286478 -0.92375,-0.404615 -1.79802,-0.606871 -2.62251,-0.606871 z m 17.2916,0 c -2.03071,0 -3.77476,0.675883 -5.2329,2.027145 -1.67953,1.557388 -2.51955,3.568938 -2.51955,6.034803 0,2.412425 0.72503,4.378101 2.17553,5.897317 1.45815,1.519217 3.25643,2.2791 5.39402,2.2791 2.11468,0 3.91624,-0.778645 5.4049,-2.336032 1.48869,-1.557388 2.23309,-3.515924 2.23309,-5.874908 0,-2.290276 -0.74052,-4.19846 -2.22158,-5.72531 -1.47341,-1.534485 -3.21806,-2.302115 -5.23351,-2.302115 z m 78.75224,0 c -2.03071,0 -3.77538,0.675883 -5.23352,2.027145 -1.67952,1.557388 -2.51895,3.568938 -2.51895,6.034803 0,2.412425 0.72503,4.378101 2.17554,5.897317 1.45814,1.519217 3.25642,2.2791 5.39401,2.2791 2.11469,0 3.91624,-0.778645 5.40492,-2.336032 1.48868,-1.557388 2.23307,-3.515924 2.23307,-5.874908 0,-2.290276 -0.74051,-4.19846 -2.22156,-5.72531 -1.47341,-1.534485 -3.21808,-2.302115 -5.23351,-2.302115 z m 34.67527,0 c -1.32073,0 -2.40887,0.405118 -3.26389,1.21435 -0.85505,0.801595 -1.28219,1.759259 -1.28219,2.873858 0,0.641279 0.14475,1.229287 0.43486,1.763685 0.2901,0.534397 0.71398,1.022911 1.27128,1.465698 0.56494,0.442787 1.51159,1.038541 2.83994,1.786698 1.32837,0.740523 2.14126,1.225164 2.43901,1.454193 0.44277,0.335907 0.76717,0.698419 0.97328,1.087765 0.21376,0.389348 0.321,0.7751 0.321,1.156811 0,0.687084 -0.27912,1.282233 -0.83642,1.786094 -0.54966,0.50386 -1.30119,0.755864 -2.25548,0.755864 -0.82449,0 -1.58437,-0.18289 -2.27909,-0.549333 -0.68709,-0.366445 -1.19823,-0.824579 -1.53415,-1.374244 -0.3359,-0.557301 -0.6034,-1.39344 -0.80188,-2.508042 h -0.42336 v 5.324968 h 0.42336 c 0.0534,-0.35881 0.13356,-0.595319 0.24044,-0.709833 0.1145,-0.114519 0.26701,-0.172007 0.45788,-0.172007 0.19849,0 0.66825,0.122127 1.40877,0.366424 0.74816,0.236662 1.24054,0.374284 1.47721,0.412454 0.39697,0.0687 0.82085,0.102962 1.27128,0.102962 1.43524,0 2.60676,-0.423879 3.51525,-1.271281 0.91611,-0.855036 1.37425,-1.870192 1.37425,-3.045867 0,-0.618375 -0.14477,-1.210256 -0.43487,-1.775191 -0.28247,-0.564935 -0.69085,-1.053449 -1.22526,-1.465699 -0.52675,-0.419884 -1.51541,-1.018907 -2.96591,-1.7976 -1.77879,-0.954281 -2.90506,-1.71804 -3.37838,-2.29061 -0.32826,-0.389346 -0.4924,-0.820366 -0.4924,-1.293689 0,-0.618375 0.25974,-1.168257 0.77888,-1.649215 0.51913,-0.488592 1.17565,-0.732849 1.96962,-0.732849 0.70234,0 1.3815,0.179624 2.03804,0.538432 0.65654,0.35881 1.16055,0.843452 1.51173,1.454191 0.3588,0.610741 0.60694,1.431387 0.74435,2.46201 h 0.42396 v -5.370997 h -0.42396 c -0.0763,0.35881 -0.1797,0.5998 -0.30948,0.721947 -0.12216,0.114518 -0.28242,0.171402 -0.4809,0.171402 -0.17559,0 -0.47674,-0.09562 -0.90425,-0.286478 -0.92375,-0.404615 -1.79802,-0.606871 -2.62252,-0.606871 z M 98.31782,34.963451 v 0.423357 c 0.45043,0 0.8058,0.07238 1.06536,0.217431 0.2672,0.137417 0.4772,0.351293 0.62989,0.641395 0.0916,0.175588 0.30875,0.74423 0.65229,1.706146 l 4.61514,12.894513 h 0.41245 l 3.51526,-9.928593 3.53887,9.928593 h 0.45788 l 4.32865,-12.516581 c 0.32828,-1.007722 0.56866,-1.644871 0.72135,-1.91207 0.22902,-0.396981 0.46941,-0.668351 0.72134,-0.813403 0.25193,-0.145049 0.58019,-0.217431 0.9848,-0.217431 v -0.423357 h -4.63754 v 0.423357 c 0.46569,0 0.84369,0.05362 1.1338,0.1605 0.16795,0.06108 0.30497,0.167709 0.41185,0.320393 0.11452,0.152686 0.17201,0.316816 0.17201,0.492402 0,0.366444 -0.16801,1.022962 -0.50392,1.969609 l -2.95441,8.55435 -2.97742,-8.439881 c -0.34355,-0.969548 -0.51542,-1.6487 -0.51542,-2.038047 0,-0.313005 0.0995,-0.561135 0.29798,-0.744356 0.19849,-0.183222 0.51126,-0.27497 0.93878,-0.27497 h 0.41245 v -0.423357 h -6.04631 v 0.423357 c 0.31301,0 0.54177,0.02324 0.68682,0.06904 0.19086,0.06108 0.3821,0.159962 0.57296,0.297379 0.14505,0.09925 0.26718,0.221374 0.36642,0.366424 0.19849,0.290103 0.37751,0.626107 0.53783,1.007821 l 0.36642,1.042341 0.45849,1.305198 -2.57709,7.409047 -3.05737,-8.714245 c -0.33591,-0.961916 -0.50391,-1.577038 -0.50391,-1.844236 0,-0.259565 0.10724,-0.480582 0.321,-0.663805 0.21376,-0.183221 0.52265,-0.27497 0.92726,-0.27497 h 0.27497 v -0.423356 z m 39.93187,0 v 0.423357 h 0.58385 c 0.58784,0 1.03048,0.168002 1.32821,0.503909 0.21376,0.244296 0.321,0.851066 0.321,1.820615 v 10.031557 c 0,0.877939 -0.084,1.442706 -0.25195,1.694639 -0.27484,0.419883 -0.74071,0.629886 -1.39726,0.629886 h -0.58385 v 0.423963 h 6.93965 c 3.01554,0 5.25973,-0.809632 6.73314,-2.428094 1.3131,-1.450507 1.96961,-3.255928 1.96961,-5.416423 0,-1.610826 -0.37027,-3.030495 -1.11078,-4.259609 -0.7329,-1.229115 -1.70605,-2.107255 -2.9199,-2.634019 -1.20621,-0.526764 -2.96963,-0.789781 -5.29045,-0.789781 z m 76.90799,0 v 0.423357 h 0.58447 c 0.58784,0 1.03049,0.168002 1.32822,0.503909 0.21376,0.244296 0.32039,0.851066 0.32039,1.820615 v 10.020049 c 0,0.885573 -0.0802,1.450343 -0.24044,1.694639 -0.28248,0.427518 -0.75162,0.641394 -1.40817,0.641394 h -0.58447 v 0.423963 h 12.02418 l 1.32822,-4.214187 -0.37793,-0.07994 c -0.39698,0.961917 -0.79376,1.667574 -1.19073,2.117995 -0.39699,0.442787 -0.83575,0.752284 -1.31672,0.927872 -0.48094,0.175588 -1.31709,0.263463 -2.50802,0.263463 h -1.1338 c -1.00009,0 -1.59524,-0.03813 -1.7861,-0.114472 -0.19084,-0.07635 -0.33234,-0.194597 -0.42396,-0.354917 -0.12214,-0.236661 -0.18291,-0.672162 -0.18291,-1.305805 v -9.756587 c 0,-0.923744 0.0608,-1.50788 0.18291,-1.752176 0.12215,-0.244296 0.34764,-0.446552 0.67591,-0.606871 0.33592,-0.160319 0.91617,-0.236575 1.74069,-0.22894 v -0.423357 z m 15.66602,0 v 0.423357 h 0.58387 c 0.58783,0 1.01171,0.148635 1.27128,0.44637 0.26719,0.297737 0.40094,0.923873 0.40094,1.878154 v 6.069325 c 0,1.870392 0.12213,3.145298 0.36643,3.824747 0.36644,0.992453 0.98871,1.782718 1.86663,2.370555 0.87794,0.587838 2.16386,0.881842 3.85868,0.881842 1.55738,0 2.78642,-0.305624 3.68726,-0.916365 0.90848,-0.618374 1.51584,-1.355019 1.82121,-2.210055 0.31301,-0.86267 0.46938,-2.072336 0.46938,-3.629724 v -6.298264 c 0,-0.862671 0.0802,-1.412552 0.24047,-1.649214 0.32826,-0.511495 0.79801,-0.767371 1.40875,-0.767371 h 0.58386 v -0.423357 h -5.49698 v 0.423357 h 0.58447 c 0.58785,0 1.03047,0.168002 1.32821,0.503909 0.21377,0.244296 0.3204,0.851066 0.3204,1.820615 v 6.286757 c 0,1.649 -0.14864,2.821143 -0.44637,3.51586 -0.2901,0.687083 -0.83611,1.251852 -1.63772,1.694639 -0.80159,0.442786 -1.71011,0.664409 -2.72546,0.664409 -0.79397,0 -1.46537,-0.141495 -2.01503,-0.423963 -0.54203,-0.282467 -0.95818,-0.641106 -1.24827,-1.076258 -0.2901,-0.435153 -0.49236,-1.041922 -0.60688,-1.820616 -0.10688,-0.778694 -0.16049,-1.47007 -0.16049,-2.073175 v -6.767653 c 0,-0.870304 0.0956,-1.44282 0.28648,-1.717653 0.27482,-0.404615 0.73236,-0.606871 1.37364,-0.606871 h 0.59597 v -0.423357 z m 19.3872,0 -0.18291,3.641231 h 0.43486 c 0.0534,-0.702351 0.22145,-1.259373 0.50391,-1.671624 0.28246,-0.412248 0.62235,-0.691366 1.01933,-0.836416 0.30537,-0.106877 0.82039,-0.159895 1.54564,-0.159895 h 1.86665 v 11.863679 c 0,0.870305 -0.084,1.427329 -0.25195,1.671624 -0.27484,0.396981 -0.74011,0.595364 -1.39666,0.595364 h -0.54993 v 0.423963 h 6.58474 v -0.423963 h -0.53845 c -0.60309,0 -1.04961,-0.160256 -1.33971,-0.480894 -0.20613,-0.236662 -0.3095,-0.831812 -0.3095,-1.786094 V 35.936747 h 2.18766 c 0.64128,0 1.1563,0.106631 1.54564,0.320394 0.39697,0.206126 0.71363,0.53051 0.95028,0.973298 0.14505,0.274832 0.26004,0.732966 0.34402,1.374243 h 0.43486 l -0.1714,-3.641231 z m 15.69993,0 v 0.423357 h 0.54994 c 0.36645,0 0.71734,0.09175 1.05324,0.27497 0.23667,0.137416 0.39366,0.301545 0.46999,0.492401 0.0993,0.251931 0.1484,0.770825 0.1484,1.557153 v 10.031557 c 0,0.931378 -0.0912,1.519387 -0.27437,1.763684 -0.2901,0.374079 -0.75599,0.560841 -1.39726,0.560841 h -0.54994 v 0.423963 h 6.65379 v -0.423963 h -0.56144 c -0.36645,0 -0.71408,-0.09175 -1.04234,-0.274971 -0.24431,-0.137416 -0.40456,-0.301544 -0.4809,-0.492401 -0.0993,-0.25193 -0.1484,-0.770825 -0.1484,-1.557153 V 37.711332 c 0,-0.931379 0.0951,-1.518782 0.28587,-1.763076 0.29012,-0.37408 0.75211,-0.561448 1.38577,-0.561448 h 0.56144 v -0.423357 z m 27.2208,0 v 0.423357 c 0.45043,0 0.78583,0.03425 1.00722,0.102961 0.45042,0.145052 0.79031,0.301434 1.01933,0.469387 0.23666,0.167954 0.58041,0.515579 1.03084,1.042343 v 10.798927 c 0,0.870305 -0.084,1.427329 -0.25195,1.671624 -0.27484,0.396981 -0.74459,0.595364 -1.40878,0.595364 h -0.53783 v 0.423963 h 5.40492 v -0.423963 h -0.54993 c -0.60311,0 -1.04962,-0.160256 -1.33972,-0.480894 -0.20613,-0.236662 -0.30889,-0.831812 -0.30889,-1.786094 v -9.562169 l 10.23747,12.505074 h 0.41185 v -13.08893 c 0,-0.870305 0.084,-1.427933 0.25196,-1.67223 0.27483,-0.396981 0.74071,-0.595363 1.39725,-0.595363 h 0.54994 v -0.423357 h -5.40552 v 0.423357 h 0.53844 c 0.61074,0 1.05725,0.160255 1.33972,0.480893 0.21376,0.236664 0.321,0.832418 0.321,1.7867 v 8.954691 l -9.49374,-11.645641 z m -88.70384,0.480894 c 1.48106,0 2.64159,0.518895 3.48136,1.557154 1.04589,1.305457 1.56866,3.286627 1.56866,5.943346 0,2.450597 -0.4769,4.244397 -1.43119,5.3819 -0.94664,1.137505 -2.14917,1.706147 -3.60731,1.706147 -1.36652,0 -2.46568,-0.518896 -3.29782,-1.557153 -1.08407,-1.366532 -1.6262,-3.31732 -1.6262,-5.851894 0,-2.473498 0.52277,-4.351299 1.56866,-5.633855 0.83977,-1.030623 1.95443,-1.545645 3.34384,-1.545645 z m 78.75224,0 c 1.48104,0 2.64157,0.518895 3.48134,1.557154 1.04589,1.305457 1.56867,3.286627 1.56867,5.943346 0,2.450597 -0.47691,4.244397 -1.43118,5.3819 -0.94665,1.137505 -2.14918,1.706147 -3.60731,1.706147 -1.36654,0 -2.4663,-0.518896 -3.29844,-1.557153 -1.08406,-1.366532 -1.6256,-3.31732 -1.6256,-5.851894 0,-2.473498 0.52277,-4.351299 1.56866,-5.633855 0.83977,-1.030623 1.95442,-1.545645 3.34386,-1.545645 z m -138.15119,0.388833 c 1.83223,0 3.33202,0.61839 4.50006,1.85514 1.16804,1.236749 1.75218,2.927787 1.75218,5.073012 0,2.129957 -0.58414,3.817123 -1.75218,5.061507 -1.16804,1.244383 -2.63745,1.866646 -4.4086,1.866646 -0.65655,0 -1.46945,-0.106632 -2.43899,-0.320396 v -13.2034 c 0.87793,-0.221393 1.66045,-0.332509 2.34753,-0.332509 z m -18.02451,2.336639 2.63343,6.27525 h -5.33649 z m 37.24032,0 2.63341,6.27525 h -5.33648 z" /><path style="fill:none;fill-opacity:1;fill-rule:evenodd;stroke:none;stroke-width:0.93879;stroke-linecap:round;stroke-linejoin:miter;stroke-dasharray:none;stroke-opacity:1;paint-order:markers stroke fill" d="M 105.82983,52.193301 312.13132,51.831369 Z" id="path2" /><path id="rect136" style="opacity:1;fill:#ffffff;fill-rule:evenodd;stroke-width:0.244019;stroke-linecap:round;paint-order:markers stroke fill" d="m 99.27859,53.898875 0.40866,0.02715 h 224.15683 v 0.302039 H 99.67322 l -0.39336,0.02293 z" sodipodi:nodetypes="ccccccc" /></g></g></svg>