<?xml version="1.0" encoding="UTF-8"?><svg width="600" height="400" version="1.1" viewBox="0 0 600 400" xml:space="preserve" xmlns="http://www.w3.org/2000/svg"><defs><linearGradient id="linearGradient85" x1=".44679" x2="1079.6" y1="304.52" y2="304.52" gradientTransform="matrix(.55604 0 0 .65725 .19835 .35341)" gradientUnits="userSpaceOnUse"><stop offset="0"/><stop stop-color="#2e7d32" offset=".2832"/><stop offset="1"/></linearGradient><linearGradient id="linearGradient17" x1="-15.109" x2="524.52" y1="391.24" y2="1241" gradientTransform="matrix(.45117 -.14358 .11811 .51854 93.274 -182.39)" gradientUnits="userSpaceOnUse"><stop stop-opacity="0" offset="0"/><stop offset="1"/></linearGradient><linearGradient id="linearGradient19" x1="-171.98" x2="687.29" y1="1032.8" y2="588.58" gradientTransform="matrix(.45117 -.14358 .11811 .51854 93.274 -182.39)" gradientUnits="userSpaceOnUse"><stop stop-color="#008000" offset="0"/><stop stop-color="#008000" stop-opacity="0" offset="1"/></linearGradient></defs><g fill-rule="evenodd"><text fill="#ffffff" font-family="'League Gothic Condensed'" font-size="144px" letter-spacing="7.63px" text-align="center" style="font-variant-caps:normal;font-variant-east-asian:normal;font-variant-ligatures:normal;font-variant-numeric:normal;line-height:113.22%;shape-inside:url(#rect4);white-space:pre" xml:space="preserve"/><text fill="#ffffff" font-family="'League Gothic Condensed'" font-size="72px" letter-spacing="7.63px" text-align="center" style="font-variant-caps:normal;font-variant-east-asian:normal;font-variant-ligatures:normal;font-variant-numeric:normal;line-height:113.22%;shape-inside:url(#rect7);white-space:pre" xml:space="preserve"/><path d="m0.44678 1.0311h600.02v398.93h-600.02z" fill="url(#linearGradient85)" stroke-linecap="round" stroke-linejoin="bevel" stroke-miterlimit="3.7" stroke-width="12.963" style="paint-order:fill markers stroke"/><path d="m203.84 287.66c-38.374-55.374-26.618-138.42 21.413-182.35 53.985-49.373 133.39-35.438 174.5 25.54 45.709 67.805 31.066 168.4-27.788 221.04-64.858 58.019-159.44 40.996-207.95-32.356-53.057-80.226-35.52-198.38 34.164-259.74 75.723-66.676 185.5-46.56 241.4 39.169 35.08 53.792 44.698 125.97 26.449 190.54" fill="url(#linearGradient19)" stroke="url(#linearGradient17)" stroke-width="4.1108"/><path d="m120.31 282.48v-124.46h32.959v124.46zm69.883 0v-124.46h29.783l19.26 53.847 1.9855 7.4502h0.59563v-61.3h30.577v124.46h-27.798l-21.046-53.34-2.184-9.6518h-0.59563v62.989zm119.13 0v-124.46h68.304v18.796h-35.342v32.681h23.826v18.796h-23.826v54.187zm144.94 1.3547q-14.891 0-23.627-3.6406-8.7365-3.6406-12.707-9.3977-3.7724-5.7575-3.7724-12.192v-76.703q0-6.1806 3.7724-11.938 3.971-5.7576 12.707-9.4824 8.7365-3.81 23.627-3.81 15.884 0 24.422 3.81 8.7365 3.7253 11.913 9.4824 3.3754 5.7575 3.3754 11.938v76.703q0 6.4347-3.7724 12.192-3.7725 5.7575-12.509 9.3977-8.5374 3.6406-23.429 3.6406zm0.3971-17.78q4.5666 0 5.3609-2.286 0.99276-2.286 0.99276-5.1646v-76.703q0-2.9633-0.99276-5.1646-0.79419-2.286-5.3609-2.286-4.3681 0-5.5594 2.2014-1.1913 2.2014-1.1913 5.2492v76.703q0 3.3866 1.1913 5.4187t5.5594 2.032z" stroke-width="1.3827" aria-label="INFO"/><path d="m112.72 274.9v-119.07h32.973v119.07zm69.913 0v-119.07h29.795l19.268 51.517 1.9864 7.1279h0.59588v-58.648h30.59v119.07h-27.809l-21.055-51.032-2.185-9.2342h-0.59588v60.263zm119.18 0v-119.07h68.333v17.983h-35.357v31.267h23.836v17.983h-23.836v51.842zm145 1.296q-14.898 0-23.637-3.4831-8.7402-3.4831-12.713-8.9911-3.7741-5.5084-3.7741-11.664v-73.384q0-5.9132 3.7741-11.422 3.9727-5.5084 12.713-9.0721 8.7402-3.6452 23.637-3.6452 15.891 0 24.432 3.6452 8.7402 3.5641 11.918 9.0721 3.3768 5.5084 3.3768 11.422v73.384q0 6.1563-3.7741 11.664-3.774 5.5084-12.514 8.9911-8.5411 3.4831-23.439 3.4831zm0.39726-17.011q4.5686 0 5.3632-2.1871 0.99317-2.187 0.99317-4.9411v-73.384q0-2.8351-0.99317-4.9411-0.79453-2.1871-5.3632-2.1871-4.3699 0-5.5618 2.1061t-1.1918 5.0222v73.384q0 3.2401 1.1918 5.1842 1.1918 1.9441 5.5618 1.9441z" fill="#ff0" stroke="#000" stroke-linecap="round" stroke-miterlimit="3.7" stroke-width="1.3528" aria-label="INFO"/><g transform="matrix(.55604 0 0 .57904 160.66 -402.76)" stroke-linecap="round" stroke-miterlimit="3.7" stroke-width="21"><path d="m-10.023 905.43a41.035 41.035 0 0 1-41.035 41.035 41.035 41.035 0 0 1-41.035-41.035 41.035 41.035 0 0 1 41.035-41.035 41.035 41.035 0 0 1 41.035 41.035z"/><path d="m-16.93 897.03a41.035 41.035 0 0 1-41.035 41.035 41.035 41.035 0 0 1-41.035-41.035 41.035 41.035 0 0 1 41.035-41.035 41.035 41.035 0 0 1 41.035 41.035z" fill="#ff0"/></g></g></svg>