<?xml version="1.0" encoding="UTF-8"?><svg width="800" height="400" version="1.1" viewBox="0 0 211.67 105.83" xmlns="http://www.w3.org/2000/svg" xmlns:xlink="http://www.w3.org/1999/xlink"><defs><linearGradient id="linearGradient27"><stop stop-color="#f1b300" offset="0"/><stop stop-color="#f1b300" stop-opacity=".49804" offset=".10996"/><stop stop-color="#f1b300" stop-opacity="0" offset="1"/></linearGradient><linearGradient id="linearGradient28" x1="109.48" x2="108.41" y1="65.507" y2="7.3738" gradientUnits="userSpaceOnUse" xlink:href="#linearGradient27"/></defs><g transform="matrix(1.0845 0 0 1.2834 -9.0832 -7.2808)" fill-rule="evenodd" stroke-linecap="round" stroke-miterlimit="3.7" stroke-width="1.7992"><g transform="translate(-1.7169)" fill="#f1b300" aria-label="GLASTONBURY FESTIVAL LINE-UP 2024 26TH - 30TH JUNE 2024"><path d="m15.056 6.0614q0.8636 0 1.4097 0.2413t0.9779 0.5842q0.1524 0.1143 0.254 0.1143 0.2413 0 0.3175-0.762h0.2921q-0.0254 0.4953-0.0381 1.2065-0.0127 0.6985-0.0127 1.8669h-0.2921q-0.0889-0.762-0.2794-1.3208-0.1778-0.5715-0.6731-0.9779-0.3048-0.2921-0.762-0.4572-0.4445-0.1651-0.9017-0.1651-0.6985 0-1.1938 0.3683-0.4953 0.3556-0.8128 0.9779t-0.4699 1.4097q-0.1524 0.7747-0.1524 1.6129 0 2.286 0.6223 3.3401 0.635 1.0541 1.8161 1.0541 0.3048 0 0.5334-0.0762t0.3683-0.1778q0.1778-0.127 0.2413-0.2667 0.0635-0.1524 0.0635-0.3937v-1.2446q0-0.5842-0.1016-0.8636-0.0889-0.2921-0.3683-0.3937t-0.8128-0.1143v-0.254q0.2667 0.0127 0.635 0.0254 0.381 0 0.7874 0.0127 0.4064 0 0.7493 0 0.5334 0 0.9779-0.0127t0.7239-0.0254v0.254q-0.2413 0.0127-0.3683 0.0889-0.1143 0.0762-0.1651 0.3048-0.0381 0.2286-0.0381 0.6985v2.5146h-0.254q-0.0127-0.2159-0.1016-0.4699-0.0762-0.254-0.2667-0.254-0.0889 0-0.2413 0.0508-0.1397 0.0381-0.4445 0.2159-0.4699 0.2667-0.9906 0.4572-0.5207 0.1778-1.0922 0.1778-1.4732 0-2.4892-0.5461t-1.5367-1.5621q-0.508-1.0287-0.508-2.4638 0-1.4478 0.5842-2.5146 0.5969-1.0668 1.6256-1.6637 1.0414-0.5969 2.3876-0.5969zm10.642 0.1778v0.254q-0.4318 0.0127-0.6604 0.1016-0.2159 0.0762-0.2921 0.3048-0.0762 0.2159-0.0762 0.6858v6.4516q0 0.3937 0.0508 0.5842 0.0635 0.1905 0.2286 0.254 0.1778 0.0635 0.5207 0.0635h0.6223q0.4318 0 0.8128-0.2032t0.6858-0.5715q0.3048-0.381 0.508-0.9017t0.3048-1.1557h0.2921q-0.0381 0.4318-0.0381 1.1176 0 0.2921 0.0127 0.8509t0.0762 1.1557q-0.6477-0.0254-1.4605-0.0254-0.8128-0.0127-1.4478-0.0127-0.3175 0-0.8128 0t-1.0668 0.0127q-0.5715 0-1.1557 0.0127-0.5842 0-1.1049 0.0127v-0.254q0.4064-0.0254 0.6096-0.1016t0.2667-0.3048q0.0762-0.2286 0.0762-0.6858v-6.2992q0-0.4699-0.0762-0.6858-0.0635-0.2286-0.2794-0.3048-0.2032-0.0889-0.5969-0.1016v-0.254q0.3175 0.0127 0.8509 0.0254 0.5461 0.0127 1.1557 0.0127 0.5588 0 1.0922-0.0127 0.5461-0.0127 0.9017-0.0254zm10.02-0.0254 3.0861 7.9502q0.1778 0.4572 0.3937 0.635 0.2286 0.1651 0.4064 0.1778v0.254q-0.381-0.0254-0.9017-0.0254-0.508-0.0127-1.0287-0.0127-0.5842 0-1.1049 0.0127-0.5207 0-0.8255 0.0254v-0.254q0.6477-0.0254 0.8128-0.2159 0.1778-0.2032-0.0762-0.8509l-2.159-5.9055 0.2286-0.3302-1.9304 5.0292q-0.2794 0.6985-0.3429 1.143-0.0508 0.4445 0.0635 0.6858 0.127 0.2413 0.3937 0.3429 0.2794 0.0889 0.6604 0.1016v0.254q-0.4191-0.0254-0.8001-0.0254-0.381-0.0127-0.7747-0.0127-0.2794 0-0.5334 0.0127-0.2413 0-0.4318 0.0254v-0.254q0.2667-0.0508 0.5461-0.3429t0.5461-0.9906l2.8956-7.4295q0.2032 0.0127 0.4318 0.0127 0.2413 0 0.4445-0.0127zm0.889 5.3594v0.254h-3.7846l0.127-0.254zm8.5339-5.4991q0.7493 0 1.1557 0.1651 0.4064 0.1524 0.6985 0.3302 0.1524 0.0889 0.2413 0.1397 0.1016 0.0381 0.1905 0.0381 0.127 0 0.1778-0.1397 0.0635-0.1397 0.1016-0.4191h0.2921q-0.0127 0.2413-0.0381 0.5842-0.0127 0.3302-0.0254 0.8763 0 0.5461 0 1.4351h-0.2921q-0.0508-0.6604-0.3048-1.2827t-0.7239-1.016q-0.4572-0.4064-1.1303-0.4064-0.6096 0-1.0033 0.3429t-0.3937 0.9525q0 0.508 0.254 0.8763 0.254 0.3556 0.7366 0.6985 0.4953 0.3429 1.1938 0.8255 0.6096 0.3937 1.0922 0.7874t0.7747 0.889 0.2921 1.1811q0 0.8382-0.4445 1.3843-0.4318 0.5461-1.143 0.8255-0.7112 0.2667-1.5621 0.2667-0.7874 0-1.2573-0.1524t-0.7874-0.3175q-0.2794-0.1778-0.4318-0.1778-0.127 0-0.1905 0.1397-0.0508 0.1397-0.0889 0.4191h-0.2921q0.0254-0.3048 0.0254-0.7112 0.0127-0.4064 0.0127-1.0541 0.0127-0.6604 0.0127-1.6637h0.2921q0.0508 0.8382 0.2794 1.5748 0.2413 0.7239 0.7239 1.1684 0.4953 0.4445 1.3081 0.4445 0.4445 0 0.7874-0.1524 0.3556-0.1651 0.5715-0.4826t0.2159-0.7874q0-0.5334-0.254-0.9271-0.2413-0.3937-0.6731-0.7366-0.4191-0.3429-0.9779-0.6985-0.5969-0.3937-1.1176-0.7874t-0.8382-0.9017q-0.3048-0.508-0.3048-1.2065 0-0.8001 0.3937-1.3081 0.4064-0.5207 1.0541-0.762 0.6604-0.254 1.397-0.254zm13.982 0.1651q-0.0508 0.6477-0.0762 1.2446-0.0127 0.5969-0.0127 0.9144 0 0.2794 0.0127 0.5334t0.0254 0.4318h-0.2921q-0.2032-1.0668-0.5207-1.6891-0.3048-0.6223-0.7366-0.8763-0.4318-0.2667-1.016-0.2667h-0.2921v7.2517q0 0.508 0.1016 0.762 0.1143 0.254 0.4064 0.3429 0.2921 0.0762 0.8509 0.0889v0.254q-0.3937-0.0127-1.0541-0.0254-0.6477-0.0127-1.3589-0.0127-0.6985 0-1.3208 0.0127t-1.0033 0.0254v-0.254q0.5715-0.0127 0.8636-0.0889 0.2921-0.0889 0.3937-0.3429t0.1016-0.762v-7.2517h-0.2794q-0.5842 0-1.016 0.2667-0.4318 0.254-0.7366 0.8763-0.3048 0.6096-0.5334 1.6891h-0.2921q0.0254-0.1778 0.0254-0.4318 0.0127-0.254 0.0127-0.5334 0-0.3175-0.0254-0.9144-0.0127-0.5969-0.0635-1.2446 0.5842 0.0127 1.27 0.0254 0.6985 0.0127 1.397 0.0127t1.2573 0q0.5715 0 1.2573 0 0.6985 0 1.397-0.0127t1.2573-0.0254zm7.3909-0.1778q1.3462 0 2.3495 0.5461 1.016 0.5461 1.5748 1.5748 0.5588 1.016 0.5588 2.4765 0 1.4224-0.5715 2.4892t-1.6002 1.6637q-1.016 0.5969-2.3241 0.5969-1.3462 0-2.3622-0.5461-1.0033-0.5461-1.5621-1.5748t-0.5588-2.4765q0-1.4224 0.5715-2.4892 0.5842-1.0668 1.5875-1.6637 1.016-0.5969 2.3368-0.5969zm-0.0508 0.2286q-0.7112 0-1.2446 0.5715-0.5207 0.5715-0.8128 1.5748-0.2794 1.0033-0.2794 2.3241 0 1.3462 0.3175 2.3495 0.3302 0.9906 0.8763 1.5367 0.5588 0.5334 1.2319 0.5334 0.7112 0 1.2319-0.5715 0.5334-0.5715 0.8128-1.5748 0.2921-1.016 0.2921-2.3241 0-1.3589-0.3302-2.3495-0.3175-0.9906-0.8763-1.524-0.5461-0.5461-1.2192-0.5461zm15.798-0.0508v0.254q-0.4064 0.0508-0.6096 0.2159-0.2032 0.1524-0.2794 0.4953-0.0635 0.3429-0.0635 0.9652v7.0866q-0.1524-0.0127-0.3175-0.0127-0.1524 0-0.3302 0.0127l-5.5118-6.985v4.8768q0 0.6985 0.0762 1.0795 0.0762 0.3683 0.3302 0.5334 0.2667 0.1524 0.8255 0.2159v0.254q-0.2413-0.0254-0.635-0.0254-0.3937-0.0127-0.7366-0.0127-0.2921 0-0.5969 0.0127-0.3048 0-0.508 0.0254v-0.254q0.4064-0.0635 0.6096-0.2159t0.2667-0.4953q0.0762-0.3556 0.0762-0.9652v-5.715q0-0.4699-0.0762-0.6858-0.0635-0.2286-0.2794-0.3048-0.2032-0.0889-0.5969-0.1016v-0.254q0.2032 0.0127 0.508 0.0254t0.5969 0.0127q0.3048 0 0.5842-0.0127t0.508-0.0254l4.9149 6.0579v-3.9751q0-0.6985-0.0762-1.0668-0.0762-0.381-0.3429-0.5461-0.254-0.1651-0.8128-0.2159v-0.254q0.2413 0.0127 0.635 0.0254t0.7366 0.0127q0.3048 0 0.5969-0.0127 0.3048-0.0127 0.508-0.0254zm2.8189 0q0.3302 0.0127 0.8636 0.0254t1.0668 0.0127q0.6096 0 1.1811-0.0127t0.8128-0.0127q1.5748 0 2.3495 0.5588 0.7874 0.5588 0.7874 1.4351 0 0.4445-0.2667 0.9017t-0.8255 0.8128-1.4478 0.5207v0.0254q1.1938 0.0889 1.8923 0.4318t1.0033 0.8255 0.3048 1.0033q0 0.8001-0.4191 1.3462t-1.2065 0.8382q-0.7874 0.2794-1.8796 0.2794-0.3048 0-0.8763-0.0127-0.5715-0.0254-1.3843-0.0254-0.5588 0-1.0922 0.0127-0.5334 0-0.8636 0.0254v-0.254q0.4064-0.0254 0.6096-0.1016t0.2667-0.3048q0.0762-0.2286 0.0762-0.6858v-6.2992q0-0.4699-0.0762-0.6858-0.0635-0.2286-0.2794-0.3048-0.2032-0.0889-0.5969-0.1016zm3.7592 0.254q-0.4953 0-0.6477 0.2159-0.1397 0.2159-0.1397 0.8763v6.2992q0 0.4445 0.0635 0.6731 0.0762 0.2286 0.254 0.3048 0.1905 0.0762 0.5588 0.0762 0.9144 0 1.3335-0.5715 0.4318-0.5842 0.4318-1.651 0-0.9779-0.4953-1.5113-0.4826-0.5334-1.6129-0.5334h-1.0795t0-0.1016q0-0.1143 0-0.1143h1.0922q0.5969 0 0.9144-0.2794 0.3175-0.2921 0.4445-0.762 0.127-0.4826 0.127-1.0287 0-0.9398-0.2921-1.4097-0.2921-0.4826-0.9525-0.4826zm14.853-0.254v0.254q-0.4064 0.0508-0.6223 0.2159-0.2032 0.1524-0.2667 0.4953t-0.0635 0.9652v3.3655q0 0.8255-0.1143 1.5113t-0.4064 1.1811q-0.3302 0.5461-0.9652 0.8636t-1.6129 0.3175q-0.5842 0-1.1938-0.1397-0.6096-0.127-1.0922-0.4953-0.4064-0.3429-0.6223-0.7747t-0.2921-1.016q-0.0762-0.5969-0.0762-1.4097v-3.9878q0-0.4699-0.0762-0.6858-0.0635-0.2286-0.2667-0.3048-0.2032-0.0889-0.6096-0.1016v-0.254q0.3175 0.0127 0.8509 0.0254 0.5461 0.0127 1.1303 0.0127t1.1176-0.0127q0.5461-0.0127 0.9017-0.0254v0.254q-0.4318 0.0127-0.6604 0.1016-0.2159 0.0762-0.2921 0.3048-0.0762 0.2159-0.0762 0.6858v4.7879q0 0.635 0.0762 1.1303 0.0889 0.4826 0.2794 0.8128 0.2032 0.3175 0.5461 0.4826t0.8509 0.1651q0.889 0 1.3843-0.4191 0.508-0.4191 0.7112-1.1557 0.2159-0.7493 0.2159-1.7145v-3.3528q0-0.6985-0.0889-1.0668-0.0889-0.381-0.3556-0.5461-0.254-0.1651-0.7874-0.2159v-0.254q0.2413 0.0127 0.635 0.0254t0.7366 0.0127q0.3048 0 0.5969-0.0127 0.3048-0.0127 0.508-0.0254zm2.6792 0q0.3175 0.0127 0.8509 0.0254 0.5461 0.0127 1.0795 0.0127 0.6096 0 1.1811-0.0127t0.8128-0.0127q1.1811 0 1.9558 0.2667 0.7874 0.254 1.1684 0.7493 0.3937 0.4953 0.3937 1.1938 0 0.4318-0.1778 0.8763-0.1778 0.4318-0.6096 0.8128-0.4191 0.3683-1.1557 0.5969-0.7366 0.2159-1.8542 0.2159h-1.2192v-0.254h1.0922q0.7493 0 1.1303-0.2794 0.3937-0.2921 0.5334-0.762 0.1524-0.4826 0.1524-1.0668 0-1.0033-0.3556-1.5494-0.3556-0.5588-1.2192-0.5588-0.4953 0-0.6477 0.2159-0.1397 0.2159-0.1397 0.8763v6.2992q0 0.4572 0.0635 0.6858 0.0762 0.2286 0.2794 0.3048t0.6096 0.1016v0.254q-0.3429-0.0254-0.8636-0.0254-0.5207-0.0127-1.0541-0.0127-0.6096 0-1.1557 0.0127-0.5334 0-0.8509 0.0254v-0.254q0.4064-0.0254 0.6096-0.1016t0.2667-0.3048q0.0762-0.2286 0.0762-0.6858v-6.2992q0-0.4699-0.0762-0.6858-0.0635-0.2286-0.2794-0.3048-0.2032-0.0889-0.5969-0.1016zm2.4003 4.5085q0.5461 0.0127 0.9398 0.0508 0.4064 0.0381 0.7112 0.0762 0.3048 0.0254 0.5461 0.0381 1.1557 0.1016 1.7018 0.4953 0.5588 0.3937 0.7239 1.1811l0.2921 1.3081q0.1143 0.508 0.2413 0.7112t0.3683 0.2032q0.1651-0.0127 0.2667-0.0762 0.1143-0.0762 0.2413-0.2159l0.1778 0.1524q-0.3429 0.3937-0.7366 0.5588-0.3937 0.1778-0.9525 0.1778-0.6858 0-1.1303-0.2921t-0.5842-1.0795l-0.2286-1.27q-0.0889-0.5334-0.2159-0.9271-0.127-0.4064-0.3556-0.635-0.2159-0.2413-0.6096-0.2413h-1.3716zm15.341-4.5212v0.254q-0.2794 0.1143-0.5715 0.4572-0.2921 0.3302-0.6477 1.016l-2.4003 4.7498h-0.5969l-2.9718-5.4991q-0.2286-0.4318-0.4191-0.5715-0.1778-0.1397-0.3175-0.1397v-0.2667q0.3429 0.0381 0.6985 0.0508 0.3683 0.0127 0.8001 0.0127 0.5588 0 1.2065-0.0127 0.6477-0.0254 1.1811-0.0508v0.2667q-0.3175 0-0.5715 0.0508t-0.3556 0.1905q-0.1016 0.127 0.0508 0.4191l2.0066 3.8608-0.3937 0.508 1.3081-2.6289q0.4699-0.9144 0.4953-1.4351 0.0381-0.5207-0.254-0.7366-0.2794-0.2286-0.8001-0.2413v-0.254q0.4318 0.0127 0.8128 0.0254t0.7747 0.0127q0.2794 0 0.5207-0.0127 0.254-0.0127 0.4445-0.0254zm-2.7178 4.4704v3.1877q0 0.4572 0.0635 0.6858 0.0762 0.2286 0.2794 0.3048t0.6096 0.1016v0.254q-0.3429-0.0254-0.889-0.0254-0.5334-0.0127-1.0668-0.0127-0.5969 0-1.1303 0.0127-0.5334 0-0.8382 0.0254v-0.254q0.4064-0.0254 0.6096-0.1016t0.2667-0.3048q0.0762-0.2286 0.0762-0.6858v-2.6035l1.1049 0.7874zm16.854-4.4577q-0.0508 0.5715-0.0762 1.1049-0.0127 0.5334-0.0127 0.8255 0 0.2794 0.0127 0.5334t0.0254 0.4318h-0.2921q-0.1651-0.9906-0.4572-1.5494-0.2921-0.5715-0.7239-0.8128-0.4191-0.2413-1.0033-0.2413h-0.4191q-0.3683 0-0.5588 0.0635t-0.254 0.254-0.0635 0.5842v6.3754q0 0.4953 0.1016 0.7366t0.3937 0.3175 0.8636 0.0889v0.2794q-0.3937-0.0127-1.016-0.0254t-1.3081-0.0127q-0.5461 0-1.0668 0.0127t-0.9398 0.0254v-0.254q0.4064-0.0254 0.6096-0.1016t0.2667-0.3048q0.0762-0.2286 0.0762-0.6858v-6.2992q0-0.4699-0.0762-0.6858-0.0635-0.2286-0.2794-0.3048-0.2032-0.0889-0.5969-0.1016v-0.254q0.5207 0.0127 1.1049 0.0254 0.5842 0 1.1557 0.0127 0.5715 0 1.0668 0t0.8128 0q0.5842 0 1.3208 0 0.7493-0.0127 1.3335-0.0381zm-1.8923 4.3942t0 0.127 0 0.127h-2.3114t0-0.127 0-0.127zm0.3175-1.6764q-0.0508 0.7239-0.0508 1.1049 0.0127 0.381 0.0127 0.6985t0.0127 0.6985 0.0635 1.1049h-0.2921q-0.0762-0.4445-0.2413-0.8255t-0.4826-0.6096q-0.3175-0.2413-0.8255-0.2413v-0.254q0.381 0 0.635-0.1524 0.2667-0.1651 0.4445-0.4191 0.1778-0.2667 0.2794-0.5588t0.1524-0.5461zm11.112-2.7178q-0.0508 0.5588-0.0762 1.0795-0.0127 0.5207-0.0127 0.8001 0 0.254 0.0127 0.4826t0.0254 0.381h-0.2921q-0.127-0.9271-0.3937-1.4605-0.2667-0.5461-0.6985-0.762-0.4191-0.2286-0.9906-0.2286h-0.5207q-0.3683 0-0.5588 0.0635t-0.254 0.254-0.0635 0.5842v6.604q0 0.3937 0.0635 0.5842t0.254 0.254 0.5588 0.0635h0.6223q0.5715 0 1.0033-0.2413 0.4445-0.254 0.7493-0.8509 0.3175-0.5969 0.4826-1.6129h0.2921q-0.0381 0.4064-0.0381 1.0668 0 0.2921 0.0127 0.8255t0.0762 1.1049q-0.6477-0.0254-1.4605-0.0254-0.8128-0.0127-1.4478-0.0127-0.3175 0-0.8128 0t-1.0668 0.0127q-0.5715 0-1.1557 0.0127-0.5842 0-1.1049 0.0127v-0.254q0.4064-0.0254 0.6096-0.1016t0.2667-0.3048q0.0762-0.2286 0.0762-0.6858v-6.2992q0-0.4699-0.0762-0.6858-0.0635-0.2286-0.2794-0.3048-0.2032-0.0889-0.5969-0.1016v-0.254q0.5207 0.0127 1.1049 0.0254 0.5842 0 1.1557 0.0127 0.5715 0 1.0668 0t0.8128 0q0.5842 0 1.3208 0 0.7493-0.0127 1.3335-0.0381zm-1.9812 4.3434t0 0.127 0 0.127h-2.2225t0-0.127 0-0.127zm0.3683-1.6764q-0.0508 0.7239-0.0508 1.1049 0.0127 0.381 0.0127 0.6985t0.0127 0.6985 0.0635 1.1049h-0.2921q-0.0635-0.4445-0.2413-0.8255-0.1651-0.381-0.4826-0.6096-0.3175-0.2413-0.8255-0.2413v-0.254q0.381 0 0.6477-0.1524 0.2667-0.1651 0.4318-0.4191 0.1778-0.2667 0.2794-0.5588t0.1524-0.5461zm8.064-2.8321q0.7493 0 1.1557 0.1651 0.4064 0.1524 0.6985 0.3302 0.1524 0.0889 0.2413 0.1397 0.1016 0.0381 0.1905 0.0381 0.127 0 0.1778-0.1397 0.0635-0.1397 0.1016-0.4191h0.2921q-0.0127 0.2413-0.0381 0.5842-0.0127 0.3302-0.0254 0.8763 0 0.5461 0 1.4351h-0.2921q-0.0508-0.6604-0.3048-1.2827t-0.7239-1.016q-0.4572-0.4064-1.1303-0.4064-0.6096 0-1.0033 0.3429t-0.3937 0.9525q0 0.508 0.254 0.8763 0.254 0.3556 0.7366 0.6985 0.4953 0.3429 1.1938 0.8255 0.6096 0.3937 1.0922 0.7874t0.7747 0.889 0.2921 1.1811q0 0.8382-0.4445 1.3843-0.4318 0.5461-1.143 0.8255-0.7112 0.2667-1.5621 0.2667-0.7874 0-1.2573-0.1524t-0.7874-0.3175q-0.2794-0.1778-0.4318-0.1778-0.127 0-0.1905 0.1397-0.0508 0.1397-0.0889 0.4191h-0.2921q0.0254-0.3048 0.0254-0.7112 0.0127-0.4064 0.0127-1.0541 0.0127-0.6604 0.0127-1.6637h0.2921q0.0508 0.8382 0.2794 1.5748 0.2413 0.7239 0.7239 1.1684 0.4953 0.4445 1.3081 0.4445 0.4445 0 0.7874-0.1524 0.3556-0.1651 0.5715-0.4826t0.2159-0.7874q0-0.5334-0.254-0.9271-0.2413-0.3937-0.6731-0.7366-0.4191-0.3429-0.9779-0.6985-0.5969-0.3937-1.1176-0.7874t-0.8382-0.9017q-0.3048-0.508-0.3048-1.2065 0-0.8001 0.3937-1.3081 0.4064-0.5207 1.0541-0.762 0.6604-0.254 1.397-0.254zm13.982 0.1651q-0.0508 0.6477-0.0762 1.2446-0.0127 0.5969-0.0127 0.9144 0 0.2794 0.0127 0.5334t0.0254 0.4318h-0.2921q-0.2032-1.0668-0.5207-1.6891-0.3048-0.6223-0.7366-0.8763-0.4318-0.2667-1.016-0.2667h-0.2921v7.2517q0 0.508 0.1016 0.762 0.1143 0.254 0.4064 0.3429 0.2921 0.0762 0.8509 0.0889v0.254q-0.3937-0.0127-1.0541-0.0254-0.6477-0.0127-1.3589-0.0127-0.6985 0-1.3208 0.0127t-1.0033 0.0254v-0.254q0.5715-0.0127 0.8636-0.0889 0.2921-0.0889 0.3937-0.3429t0.1016-0.762v-7.2517h-0.2794q-0.5842 0-1.016 0.2667-0.4318 0.254-0.7366 0.8763-0.3048 0.6096-0.5334 1.6891h-0.2921q0.0254-0.1778 0.0254-0.4318 0.0127-0.254 0.0127-0.5334 0-0.3175-0.0254-0.9144-0.0127-0.5969-0.0635-1.2446 0.5842 0.0127 1.27 0.0254 0.6985 0.0127 1.397 0.0127t1.2573 0q0.5715 0 1.2573 0 0.6985 0 1.397-0.0127t1.2573-0.0254zm6.7051 0v0.254q-0.4064 0.0127-0.6223 0.1016-0.2032 0.0762-0.2667 0.3048-0.0635 0.2159-0.0635 0.6858v6.2992q0 0.4572 0.0635 0.6858 0.0762 0.2286 0.2794 0.3048t0.6096 0.1016v0.254q-0.3429-0.0254-0.8636-0.0254-0.5207-0.0127-1.0541-0.0127-0.6223 0-1.1557 0.0127-0.5207 0-0.8509 0.0254v-0.254q0.4064-0.0254 0.6096-0.1016t0.2667-0.3048q0.0762-0.2286 0.0762-0.6858v-6.2992q0-0.4699-0.0762-0.6858-0.0635-0.2286-0.2794-0.3048-0.2032-0.0889-0.5969-0.1016v-0.254q0.3302 0.0127 0.8509 0.0254 0.5334 0.0127 1.1557 0.0127 0.5334 0 1.0541-0.0127t0.8636-0.0254zm11.048 0v0.254q-0.2794 0.1016-0.5969 0.4445-0.3048 0.3429-0.5715 1.0668l-2.6797 7.2517q-0.1016-0.0127-0.2159-0.0127t-0.2286 0q-0.1016 0-0.2159 0t-0.2159 0.0127l-3.2385-7.9502q-0.1778-0.4572-0.3937-0.6223-0.2159-0.1778-0.4064-0.1905v-0.254q0.381 0.0127 0.889 0.0254 0.5207 0.0127 1.0414 0.0127 0.5842 0 1.0922-0.0127 0.5207-0.0127 0.8382-0.0254v0.254q-0.4064 0.0127-0.635 0.1016-0.2286 0.0762-0.254 0.3048-0.0254 0.2159 0.1524 0.6604l2.3114 5.8801-0.2667 0.3175 1.7526-4.7244q0.3429-0.9525 0.3556-1.4986t-0.2667-0.7874-0.8001-0.254v-0.254q0.4318 0.0127 0.8128 0.0254t0.7747 0.0127q0.2794 0 0.5207-0.0127 0.254-0.0127 0.4445-0.0254zm5.6306-0.0254 3.0861 7.9502q0.1778 0.4572 0.3937 0.635 0.2286 0.1651 0.4064 0.1778v0.254q-0.381-0.0254-0.9017-0.0254-0.508-0.0127-1.0287-0.0127-0.5842 0-1.1049 0.0127-0.5207 0-0.8255 0.0254v-0.254q0.6477-0.0254 0.8128-0.2159 0.1778-0.2032-0.0762-0.8509l-2.159-5.9055 0.2286-0.3302-1.9304 5.0292q-0.2794 0.6985-0.3429 1.143-0.0508 0.4445 0.0635 0.6858 0.127 0.2413 0.3937 0.3429 0.2794 0.0889 0.6604 0.1016v0.254q-0.4191-0.0254-0.8001-0.0254-0.381-0.0127-0.7747-0.0127-0.2794 0-0.5334 0.0127-0.2413 0-0.4318 0.0254v-0.254q0.2667-0.0508 0.5461-0.3429t0.5461-0.9906l2.8956-7.4295q0.2032 0.0127 0.4318 0.0127 0.2413 0 0.4445-0.0127zm0.889 5.3594v0.254h-3.7846l0.127-0.254zm9.1054-5.334v0.254q-0.4318 0.0127-0.6604 0.1016-0.2159 0.0762-0.2921 0.3048-0.0762 0.2159-0.0762 0.6858v6.4516q0 0.3937 0.0508 0.5842 0.0635 0.1905 0.2286 0.254 0.1778 0.0635 0.5207 0.0635h0.6223q0.4318 0 0.8128-0.2032t0.6858-0.5715q0.3048-0.381 0.508-0.9017t0.3048-1.1557h0.2921q-0.0381 0.4318-0.0381 1.1176 0 0.2921 0.0127 0.8509t0.0762 1.1557q-0.6477-0.0254-1.4605-0.0254-0.8128-0.0127-1.4478-0.0127-0.3175 0-0.8128 0t-1.0668 0.0127q-0.5715 0-1.1557 0.0127-0.5842 0-1.1049 0.0127v-0.254q0.4064-0.0254 0.6096-0.1016t0.2667-0.3048q0.0762-0.2286 0.0762-0.6858v-6.2992q0-0.4699-0.0762-0.6858-0.0635-0.2286-0.2794-0.3048-0.2032-0.0889-0.5969-0.1016v-0.254q0.3175 0.0127 0.8509 0.0254 0.5461 0.0127 1.1557 0.0127 0.5588 0 1.0922-0.0127 0.5461-0.0127 0.9017-0.0254z" style="font-variation-settings:'wght' 700"/><path d="m59.054 20.687v0.254q-0.4318 0.0127-0.6604 0.1016-0.2159 0.0762-0.2921 0.3048-0.0762 0.2159-0.0762 0.6858v6.4516q0 0.3937 0.0508 0.5842 0.0635 0.1905 0.2286 0.254 0.1778 0.0635 0.5207 0.0635h0.6223q0.4318 0 0.8128-0.2032t0.6858-0.5715q0.3048-0.381 0.508-0.9017t0.3048-1.1557h0.2921q-0.0381 0.4318-0.0381 1.1176 0 0.2921 0.0127 0.8509t0.0762 1.1557q-0.6477-0.0254-1.4605-0.0254-0.8128-0.0127-1.4478-0.0127-0.3175 0-0.8128 0t-1.0668 0.0127q-0.5715 0-1.1557 0.0127-0.5842 0-1.1049 0.0127v-0.254q0.4064-0.0254 0.6096-0.1016t0.2667-0.3048q0.0762-0.2286 0.0762-0.6858v-6.2992q0-0.4699-0.0762-0.6858-0.0635-0.2286-0.2794-0.3048-0.2032-0.0889-0.5969-0.1016v-0.254q0.3175 0.0127 0.8509 0.0254 0.5461 0.0127 1.1557 0.0127 0.5588 0 1.0922-0.0127 0.5461-0.0127 0.9017-0.0254zm9.7023 0v0.254q-0.4064 0.0127-0.6223 0.1016-0.2032 0.0762-0.2667 0.3048-0.0635 0.2159-0.0635 0.6858v6.2992q0 0.4572 0.0635 0.6858 0.0762 0.2286 0.2794 0.3048t0.6096 0.1016v0.254q-0.3429-0.0254-0.8636-0.0254-0.5207-0.0127-1.0541-0.0127-0.6223 0-1.1557 0.0127-0.5207 0-0.8509 0.0254v-0.254q0.4064-0.0254 0.6096-0.1016t0.2667-0.3048q0.0762-0.2286 0.0762-0.6858v-6.2992q0-0.4699-0.0762-0.6858-0.0635-0.2286-0.2794-0.3048-0.2032-0.0889-0.5969-0.1016v-0.254q0.3302 0.0127 0.8509 0.0254 0.5334 0.0127 1.1557 0.0127 0.5334 0 1.0541-0.0127t0.8636-0.0254zm11.239 0v0.254q-0.4064 0.0508-0.6096 0.2159-0.2032 0.1524-0.2794 0.4953-0.0635 0.3429-0.0635 0.9652v7.0866q-0.1524-0.0127-0.3175-0.0127-0.1524 0-0.3302 0.0127l-5.5118-6.985v4.8768q0 0.6985 0.0762 1.0795 0.0762 0.3683 0.3302 0.5334 0.2667 0.1524 0.8255 0.2159v0.254q-0.2413-0.0254-0.635-0.0254-0.3937-0.0127-0.7366-0.0127-0.2921 0-0.5969 0.0127-0.3048 0-0.508 0.0254v-0.254q0.4064-0.0635 0.6096-0.2159t0.2667-0.4953q0.0762-0.3556 0.0762-0.9652v-5.715q0-0.4699-0.0762-0.6858-0.0635-0.2286-0.2794-0.3048-0.2032-0.0889-0.5969-0.1016v-0.254q0.2032 0.0127 0.508 0.0254t0.5969 0.0127q0.3048 0 0.5842-0.0127t0.508-0.0254l4.9149 6.0579v-3.9751q0-0.6985-0.0762-1.0668-0.0762-0.381-0.3429-0.5461-0.254-0.1651-0.8128-0.2159v-0.254q0.2413 0.0127 0.635 0.0254t0.7366 0.0127q0.3048 0 0.5969-0.0127 0.3048-0.0127 0.508-0.0254zm9.6134 0q-0.0508 0.5588-0.0762 1.0795-0.0127 0.5207-0.0127 0.8001 0 0.254 0.0127 0.4826t0.0254 0.381h-0.2921q-0.127-0.9271-0.3937-1.4605-0.2667-0.5461-0.6985-0.762-0.4191-0.2286-0.9906-0.2286h-0.5207q-0.3683 0-0.5588 0.0635t-0.254 0.254-0.0635 0.5842v6.604q0 0.3937 0.0635 0.5842t0.254 0.254 0.5588 0.0635h0.6223q0.5715 0 1.0033-0.2413 0.4445-0.254 0.7493-0.8509 0.3175-0.5969 0.4826-1.6129h0.2921q-0.0381 0.4064-0.0381 1.0668 0 0.2921 0.0127 0.8255t0.0762 1.1049q-0.6477-0.0254-1.4605-0.0254-0.8128-0.0127-1.4478-0.0127-0.3175 0-0.8128 0t-1.0668 0.0127q-0.5715 0-1.1557 0.0127-0.5842 0-1.1049 0.0127v-0.254q0.4064-0.0254 0.6096-0.1016t0.2667-0.3048q0.0762-0.2286 0.0762-0.6858v-6.2992q0-0.4699-0.0762-0.6858-0.0635-0.2286-0.2794-0.3048-0.2032-0.0889-0.5969-0.1016v-0.254q0.5207 0.0127 1.1049 0.0254 0.5842 0 1.1557 0.0127 0.5715 0 1.0668 0t0.8128 0q0.5842 0 1.3208 0 0.7493-0.0127 1.3335-0.0381zm-1.9812 4.3434t0 0.127 0 0.127h-2.2225t0-0.127 0-0.127zm0.3683-1.6764q-0.0508 0.7239-0.0508 1.1049 0.0127 0.381 0.0127 0.6985t0.0127 0.6985 0.0635 1.1049h-0.2921q-0.0635-0.4445-0.2413-0.8255-0.1651-0.381-0.4826-0.6096-0.3175-0.2413-0.8255-0.2413v-0.254q0.381 0 0.6477-0.1524 0.2667-0.1651 0.4318-0.4191 0.1778-0.2667 0.2794-0.5588t0.1524-0.5461zm9.8039 2.3622v1.0541h-4.5847v-1.0541zm11.242-5.0292v0.254q-0.4064 0.0508-0.6223 0.2159-0.2032 0.1524-0.2667 0.4953t-0.0635 0.9652v3.3655q0 0.8255-0.1143 1.5113t-0.4064 1.1811q-0.3302 0.5461-0.9652 0.8636t-1.6129 0.3175q-0.5842 0-1.1938-0.1397-0.6096-0.127-1.0922-0.4953-0.4064-0.3429-0.6223-0.7747t-0.2921-1.016q-0.0762-0.5969-0.0762-1.4097v-3.9878q0-0.4699-0.0762-0.6858-0.0635-0.2286-0.2667-0.3048-0.2032-0.0889-0.6096-0.1016v-0.254q0.3175 0.0127 0.8509 0.0254 0.5461 0.0127 1.1303 0.0127t1.1176-0.0127q0.5461-0.0127 0.9017-0.0254v0.254q-0.4318 0.0127-0.6604 0.1016-0.2159 0.0762-0.2921 0.3048-0.0762 0.2159-0.0762 0.6858v4.7879q0 0.635 0.0762 1.1303 0.0889 0.4826 0.2794 0.8128 0.2032 0.3175 0.5461 0.4826t0.8509 0.1651q0.889 0 1.3843-0.4191 0.508-0.4191 0.7112-1.1557 0.2159-0.7493 0.2159-1.7145v-3.3528q0-0.6985-0.0889-1.0668-0.0889-0.381-0.3556-0.5461-0.254-0.1651-0.7874-0.2159v-0.254q0.2413 0.0127 0.635 0.0254t0.7366 0.0127q0.3048 0 0.5969-0.0127 0.3048-0.0127 0.508-0.0254zm2.6792 0q0.3175 0.0127 0.8509 0.0254 0.5461 0.0127 1.0795 0.0127 0.6096 0 1.1811-0.0127t0.8128-0.0127q1.7653 0 2.6416 0.6985t0.8763 1.8034q0 0.4572-0.1778 0.9652-0.1778 0.4953-0.6096 0.9271-0.4191 0.4191-1.1557 0.6858t-1.8542 0.2667h-1.2954v-0.254h1.1684q0.7493 0 1.1303-0.3429 0.3937-0.3429 0.5334-0.9017 0.1524-0.5588 0.1524-1.2065 0-1.2065-0.3556-1.8034t-1.2192-0.5969q-0.4953 0-0.6477 0.2159-0.1397 0.2159-0.1397 0.8763v6.223q0 0.4953 0.1016 0.7366t0.3937 0.3175 0.8636 0.0889v0.2794q-0.3937-0.0127-1.016-0.0254t-1.3081-0.0127q-0.5461 0-1.0668 0.0127t-0.9398 0.0254v-0.254q0.4064-0.0254 0.6096-0.1016t0.2667-0.3048q0.0762-0.2286 0.0762-0.6858v-6.2992q0-0.4699-0.0762-0.6858-0.0635-0.2286-0.2794-0.3048-0.2032-0.0889-0.5969-0.1016zm17.751 2.2479q0.9779 0 1.5494 0.4191t0.5715 1.1938q0 0.4953-0.254 0.9017-0.2413 0.4064-0.6477 0.7747-0.4064 0.3556-0.8763 0.6731-0.4572 0.3175-0.889 0.635-0.4318 0.3048-0.7366 0.635h2.7432q0.5207 0 0.6604-0.127t0.1905-0.4445h0.2667q0 0.8509 0.0127 1.3208t0.0381 0.8255q-0.1143-0.0254-0.4191-0.0381t-0.6985-0.0254q-0.3937 0-0.7747 0h-3.6957v-0.2413q0.3556-0.381 0.8763-0.8382t1.016-1.016q0.508-0.5588 0.8509-1.2065 0.3429-0.6604 0.3429-1.4097 0-0.6858-0.3048-0.9906t-0.8763-0.3048q-0.5461 0-0.9652 0.254-0.4064 0.2413-0.7366 0.7239l-0.2159-0.127q0.254-0.4318 0.635-0.7874 0.3937-0.3683 0.9652-0.5842t1.3716-0.2159zm9.334 0q1.016 0 1.7907 0.4191 0.7747 0.4064 1.2192 1.1684 0.4445 0.7493 0.4445 1.7653t-0.4572 1.8288q-0.4445 0.8001-1.2573 1.27-0.8001 0.4699-1.8796 0.4699-0.9906 0-1.778-0.4191-0.7747-0.4191-1.2319-1.1684-0.4445-0.762-0.4445-1.778 0-1.0033 0.4445-1.8034 0.4445-0.8128 1.2573-1.2827t1.8923-0.4699zm-0.1143 0.2286q-0.6858 0-1.1303 0.8763-0.4318 0.8636-0.4318 2.413 0 1.143 0.2286 1.8415t0.5969 1.016q0.381 0.3175 0.8255 0.3175 0.6858 0 1.1176-0.8763 0.4445-0.8763 0.4445-2.4257 0-1.143-0.2286-1.8415t-0.6096-1.0033q-0.3683-0.3175-0.8128-0.3175zm9.6515-0.2286q0.9779 0 1.5494 0.4191t0.5715 1.1938q0 0.4953-0.254 0.9017-0.2413 0.4064-0.6477 0.7747-0.4064 0.3556-0.8763 0.6731-0.4572 0.3175-0.889 0.635-0.4318 0.3048-0.7366 0.635h2.7432q0.5207 0 0.6604-0.127t0.1905-0.4445h0.2667q0 0.8509 0.0127 1.3208t0.0381 0.8255q-0.1143-0.0254-0.4191-0.0381t-0.6985-0.0254q-0.3937 0-0.7747 0h-3.6957v-0.2413q0.3556-0.381 0.8763-0.8382t1.016-1.016q0.508-0.5588 0.8509-1.2065 0.3429-0.6604 0.3429-1.4097 0-0.6858-0.3048-0.9906t-0.8763-0.3048q-0.5461 0-0.9652 0.254-0.4064 0.2413-0.7366 0.7239l-0.2159-0.127q0.254-0.4318 0.635-0.7874 0.3937-0.3683 0.9652-0.5842t1.3716-0.2159zm10.007 0 0.0508 0.3302-3.9624 5.08 0.1778-0.4318h4.0386q0.5207 0 0.6604-0.127t0.1905-0.4445h0.2667q0 0.762 0.0127 1.1938 0.0127 0.4191 0.0381 0.7493-0.0889-0.0254-0.3302-0.0254-0.2413-0.0127-0.5715-0.0254t-0.6731-0.0127q-0.3302 0-0.6223 0h-4.0132v-0.2667zm0.2032 0v8.5344h-1.4732v-6.7437l1.27-1.7907z" style="font-variation-settings:'wght' 700"/><path d="m20.751 37.383q0.9779 0 1.5494 0.4191t0.5715 1.1938q0 0.4953-0.254 0.9017-0.2413 0.4064-0.6477 0.7747-0.4064 0.3556-0.8763 0.6731-0.4572 0.3175-0.889 0.635-0.4318 0.3048-0.7366 0.635h2.7432q0.5207 0 0.6604-0.127t0.1905-0.4445h0.2667q0 0.8509 0.0127 1.3208t0.0381 0.8255q-0.1143-0.0254-0.4191-0.0381t-0.6985-0.0254q-0.3937 0-0.7747 0h-3.6957v-0.2413q0.3556-0.381 0.8763-0.8382t1.016-1.016q0.508-0.5588 0.8509-1.2065 0.3429-0.6604 0.3429-1.4097 0-0.6858-0.3048-0.9906t-0.8763-0.3048q-0.5461 0-0.9652 0.254-0.4064 0.2413-0.7366 0.7239l-0.2159-0.127q0.254-0.4318 0.635-0.7874 0.3937-0.3683 0.9652-0.5842t1.3716-0.2159zm10.833-2.4384 0.0508 0.254q-0.4572 0.1524-0.9144 0.3683t-0.8763 0.5969q-0.4064 0.381-0.7239 0.9779-0.3175 0.5842-0.508 1.4732-0.1778 0.889-0.1778 2.1463t0.1778 1.9812q0.1905 0.7112 0.4699 1.016 0.2794 0.2921 0.5461 0.2921 0.2921 0 0.5461-0.2667t0.4064-0.8509q0.1651-0.5842 0.1651-1.5367 0-0.9144-0.1524-1.4605-0.1397-0.5461-0.381-0.7874t-0.5461-0.2413q-0.2159 0-0.4826 0.127t-0.4953 0.4064-0.3302 0.7874l-0.1143-0.0508q0.0762-0.6096 0.3683-0.9652 0.3048-0.3683 0.7239-0.5207t0.8382-0.1524q0.6858 0 1.2446 0.3302t0.9017 0.9398 0.3429 1.4732q0 0.9779-0.4318 1.651t-1.1557 1.0287q-0.7239 0.3429-1.5748 0.3429-1.397 0-2.1971-0.9398-0.7874-0.9525-0.7874-2.6797 0-1.143 0.3302-2.032t0.8763-1.5367q0.5461-0.6604 1.2065-1.1049 0.6731-0.4445 1.3589-0.6985 0.6985-0.2667 1.2954-0.3683zm11.633 0.1905q-0.0508 0.6477-0.0762 1.2446-0.0127 0.5969-0.0127 0.9144 0 0.2794 0.0127 0.5334t0.0254 0.4318h-0.2921q-0.2032-1.0668-0.5207-1.6891-0.3048-0.6223-0.7366-0.8763-0.4318-0.2667-1.016-0.2667h-0.2921v7.2517q0 0.508 0.1016 0.762 0.1143 0.254 0.4064 0.3429 0.2921 0.0762 0.8509 0.0889v0.254q-0.3937-0.0127-1.0541-0.0254-0.6477-0.0127-1.3589-0.0127-0.6985 0-1.3208 0.0127t-1.0033 0.0254v-0.254q0.5715-0.0127 0.8636-0.0889 0.2921-0.0889 0.3937-0.3429t0.1016-0.762v-7.2517h-0.2794q-0.5842 0-1.016 0.2667-0.4318 0.254-0.7366 0.8763-0.3048 0.6096-0.5334 1.6891h-0.2921q0.0254-0.1778 0.0254-0.4318 0.0127-0.254 0.0127-0.5334 0-0.3175-0.0254-0.9144-0.0127-0.5969-0.0635-1.2446 0.5842 0.0127 1.27 0.0254 0.6985 0.0127 1.397 0.0127t1.2573 0q0.5715 0 1.2573 0 0.6985 0 1.397-0.0127t1.2573-0.0254zm8.1656 8.9916v-0.254q0.4064-0.0254 0.6096-0.1016t0.2667-0.3048q0.0762-0.2286 0.0762-0.6858v-6.2992q0-0.4699-0.0762-0.6858-0.0635-0.2286-0.2794-0.3048-0.2032-0.0889-0.5969-0.1016v-0.254q0.3429 0.0127 0.889 0.0254 0.5588 0.0127 1.1049 0.0127 0.5842 0 1.0922-0.0127 0.5207-0.0127 0.8382-0.0254v0.254q-0.4064 0.0127-0.6223 0.1016-0.2032 0.0762-0.2667 0.3048-0.0635 0.2159-0.0635 0.6858v6.2992q0 0.4572 0.0635 0.6858 0.0762 0.2286 0.2794 0.3048t0.6096 0.1016v0.254q-0.3175-0.0254-0.8382-0.0254-0.508-0.0127-1.0922-0.0127-0.5461 0-1.1049 0.0127-0.5461 0-0.889 0.0254zm-5.3848 0v-0.254q0.4064-0.0254 0.6096-0.1016t0.2667-0.3048q0.0762-0.2286 0.0762-0.6858v-6.2992q0-0.4699-0.0762-0.6858-0.0635-0.2286-0.2794-0.3048-0.2032-0.0889-0.5969-0.1016v-0.254q0.3302 0.0127 0.8509 0.0254 0.5334 0.0127 1.1557 0.0127 0.5334 0 1.0541-0.0127t0.8636-0.0254v0.254q-0.4064 0.0127-0.6223 0.1016-0.2032 0.0762-0.2667 0.3048-0.0635 0.2159-0.0635 0.6858v6.2992q0 0.4572 0.0635 0.6858 0.0762 0.2286 0.2794 0.3048t0.6096 0.1016v0.254q-0.3429-0.0254-0.8636-0.0254-0.5207-0.0127-1.0541-0.0127-0.6223 0-1.1557 0.0127-0.5207 0-0.8509 0.0254zm2.1463-4.3942v-0.254h5.0165v0.254zm19.925 0.4318v1.0541h-4.5847v-1.0541zm10.784-2.7813q0.6223 0 1.1176 0.1778 0.4953 0.1651 0.7747 0.4953 0.2794 0.3175 0.2794 0.7874 0 0.4826-0.3175 0.9017-0.3048 0.4191-0.889 0.7366-0.5715 0.3048-1.3716 0.4572 0.8636-0.0381 1.5494 0.1778t1.0795 0.6604q0.4064 0.4318 0.4064 1.0922 0 0.5842-0.3175 1.0795-0.3048 0.4953-0.8509 0.8763-0.5461 0.3937-1.2446 0.6604-0.6858 0.2794-1.4478 0.4191t-1.524 0.1397v-0.254q0.5969-0.0127 1.2065-0.2159 0.6223-0.1905 1.1303-0.5588 0.5207-0.3556 0.8382-0.889 0.3175-0.5461 0.3175-1.2446 0-0.7493-0.3556-1.2319t-0.9779-0.5334q-0.1905 0.0889-0.3429 0.1524-0.1524 0.0508-0.3048 0.0508-0.1143 0-0.1778-0.0381t-0.0635-0.1397q0-0.1524 0.127-0.2159t0.2794-0.0635q0.1016 0 0.2032 0.0254 0.1143 0.0127 0.2413 0.0254 0.5461-0.381 0.762-0.8128 0.2159-0.4445 0.2159-0.889 0-0.5715-0.3048-0.8382-0.2921-0.2794-0.8255-0.2794-0.4953 0-0.9271 0.254-0.4318 0.2413-0.7239 0.7366l-0.2286-0.1143q0.2286-0.4191 0.5715-0.7747 0.3429-0.3683 0.8509-0.5842 0.508-0.2286 1.2446-0.2286zm9.2578 0q1.016 0 1.7907 0.4191 0.7747 0.4064 1.2192 1.1684 0.4445 0.7493 0.4445 1.7653t-0.4572 1.8288q-0.4445 0.8001-1.2573 1.27-0.8001 0.4699-1.8796 0.4699-0.9906 0-1.778-0.4191-0.7747-0.4191-1.2319-1.1684-0.4445-0.762-0.4445-1.778 0-1.0033 0.4445-1.8034 0.4445-0.8128 1.2573-1.2827t1.8923-0.4699zm-0.1143 0.2286q-0.6858 0-1.1303 0.8763-0.4318 0.8636-0.4318 2.413 0 1.143 0.2286 1.8415t0.5969 1.016q0.381 0.3175 0.8255 0.3175 0.6858 0 1.1176-0.8763 0.4445-0.8763 0.4445-2.4257 0-1.143-0.2286-1.8415t-0.6096-1.0033q-0.3683-0.3175-0.8128-0.3175zm14.312-2.4765q-0.0508 0.6477-0.0762 1.2446-0.0127 0.5969-0.0127 0.9144 0 0.2794 0.0127 0.5334t0.0254 0.4318h-0.2921q-0.2032-1.0668-0.5207-1.6891-0.3048-0.6223-0.7366-0.8763-0.4318-0.2667-1.016-0.2667h-0.2921v7.2517q0 0.508 0.1016 0.762 0.1143 0.254 0.4064 0.3429 0.2921 0.0762 0.8509 0.0889v0.254q-0.3937-0.0127-1.0541-0.0254-0.6477-0.0127-1.3589-0.0127-0.6985 0-1.3208 0.0127t-1.0033 0.0254v-0.254q0.5715-0.0127 0.8636-0.0889 0.2921-0.0889 0.3937-0.3429t0.1016-0.762v-7.2517h-0.2794q-0.5842 0-1.016 0.2667-0.4318 0.254-0.7366 0.8763-0.3048 0.6096-0.5334 1.6891h-0.2921q0.0254-0.1778 0.0254-0.4318 0.0127-0.254 0.0127-0.5334 0-0.3175-0.0254-0.9144-0.0127-0.5969-0.0635-1.2446 0.5842 0.0127 1.27 0.0254 0.6985 0.0127 1.397 0.0127t1.2573 0q0.5715 0 1.2573 0 0.6985 0 1.397-0.0127t1.2573-0.0254zm8.1656 8.9916v-0.254q0.4064-0.0254 0.6096-0.1016t0.2667-0.3048q0.0762-0.2286 0.0762-0.6858v-6.2992q0-0.4699-0.0762-0.6858-0.0635-0.2286-0.2794-0.3048-0.2032-0.0889-0.5969-0.1016v-0.254q0.3429 0.0127 0.889 0.0254 0.5588 0.0127 1.1049 0.0127 0.5842 0 1.0922-0.0127 0.5207-0.0127 0.8382-0.0254v0.254q-0.4064 0.0127-0.6223 0.1016-0.2032 0.0762-0.2667 0.3048-0.0635 0.2159-0.0635 0.6858v6.2992q0 0.4572 0.0635 0.6858 0.0762 0.2286 0.2794 0.3048t0.6096 0.1016v0.254q-0.3175-0.0254-0.8382-0.0254-0.508-0.0127-1.0922-0.0127-0.5461 0-1.1049 0.0127-0.5461 0-0.889 0.0254zm-5.3848 0v-0.254q0.4064-0.0254 0.6096-0.1016t0.2667-0.3048q0.0762-0.2286 0.0762-0.6858v-6.2992q0-0.4699-0.0762-0.6858-0.0635-0.2286-0.2794-0.3048-0.2032-0.0889-0.5969-0.1016v-0.254q0.3302 0.0127 0.8509 0.0254 0.5334 0.0127 1.1557 0.0127 0.5334 0 1.0541-0.0127t0.8636-0.0254v0.254q-0.4064 0.0127-0.6223 0.1016-0.2032 0.0762-0.2667 0.3048-0.0635 0.2159-0.0635 0.6858v6.2992q0 0.4572 0.0635 0.6858 0.0762 0.2286 0.2794 0.3048t0.6096 0.1016v0.254q-0.3429-0.0254-0.8636-0.0254-0.5207-0.0127-1.0541-0.0127-0.6223 0-1.1557 0.0127-0.5207 0-0.8509 0.0254zm2.1463-4.3942v-0.254h5.0165v0.254zm14.286 6.7818v-0.254q0.508-0.0508 0.8636-0.3048 0.3556-0.2413 0.5461-0.8382t0.1905-1.6764v-6.9596q0-0.4699-0.0762-0.6858-0.0635-0.2286-0.2667-0.3048-0.2032-0.0889-0.6096-0.1016v-0.254q0.3175 0.0127 0.8255 0.0254 0.5207 0.0127 1.0922 0.0127t1.1049-0.0127q0.5461-0.0127 0.9017-0.0254v0.254q-0.3937 0.0127-0.6096 0.1016-0.2032 0.0762-0.2794 0.3048-0.0635 0.2159-0.0635 0.6858v4.6482q0 0.5207 0 1.1303 0 0.5969-0.0508 1.1684-0.0381 0.5715-0.1651 1.016-0.254 0.8763-1.1049 1.4732-0.8382 0.5969-2.2987 0.5969zm15.455-11.379v0.254q-0.4064 0.0508-0.6223 0.2159-0.2032 0.1524-0.2667 0.4953t-0.0635 0.9652v3.3655q0 0.8255-0.1143 1.5113t-0.4064 1.1811q-0.3302 0.5461-0.9652 0.8636t-1.6129 0.3175q-0.5842 0-1.1938-0.1397-0.6096-0.127-1.0922-0.4953-0.4064-0.3429-0.6223-0.7747t-0.2921-1.016q-0.0762-0.5969-0.0762-1.4097v-3.9878q0-0.4699-0.0762-0.6858-0.0635-0.2286-0.2667-0.3048-0.2032-0.0889-0.6096-0.1016v-0.254q0.3175 0.0127 0.8509 0.0254 0.5461 0.0127 1.1303 0.0127t1.1176-0.0127q0.5461-0.0127 0.9017-0.0254v0.254q-0.4318 0.0127-0.6604 0.1016-0.2159 0.0762-0.2921 0.3048-0.0762 0.2159-0.0762 0.6858v4.7879q0 0.635 0.0762 1.1303 0.0889 0.4826 0.2794 0.8128 0.2032 0.3175 0.5461 0.4826t0.8509 0.1651q0.889 0 1.3843-0.4191 0.508-0.4191 0.7112-1.1557 0.2159-0.7493 0.2159-1.7145v-3.3528q0-0.6985-0.0889-1.0668-0.0889-0.381-0.3556-0.5461-0.254-0.1651-0.7874-0.2159v-0.254q0.2413 0.0127 0.635 0.0254t0.7366 0.0127q0.3048 0 0.5969-0.0127 0.3048-0.0127 0.508-0.0254zm11.048 0v0.254q-0.4064 0.0508-0.6096 0.2159-0.2032 0.1524-0.2794 0.4953-0.0635 0.3429-0.0635 0.9652v7.0866q-0.1524-0.0127-0.3175-0.0127-0.1524 0-0.3302 0.0127l-5.5118-6.985v4.8768q0 0.6985 0.0762 1.0795 0.0762 0.3683 0.3302 0.5334 0.2667 0.1524 0.8255 0.2159v0.254q-0.2413-0.0254-0.635-0.0254-0.3937-0.0127-0.7366-0.0127-0.2921 0-0.5969 0.0127-0.3048 0-0.508 0.0254v-0.254q0.4064-0.0635 0.6096-0.2159t0.2667-0.4953q0.0762-0.3556 0.0762-0.9652v-5.715q0-0.4699-0.0762-0.6858-0.0635-0.2286-0.2794-0.3048-0.2032-0.0889-0.5969-0.1016v-0.254q0.2032 0.0127 0.508 0.0254t0.5969 0.0127q0.3048 0 0.5842-0.0127t0.508-0.0254l4.9149 6.0579v-3.9751q0-0.6985-0.0762-1.0668-0.0762-0.381-0.3429-0.5461-0.254-0.1651-0.8128-0.2159v-0.254q0.2413 0.0127 0.635 0.0254t0.7366 0.0127q0.3048 0 0.5969-0.0127 0.3048-0.0127 0.508-0.0254zm9.6134 0q-0.0508 0.5588-0.0762 1.0795-0.0127 0.5207-0.0127 0.8001 0 0.254 0.0127 0.4826t0.0254 0.381h-0.2921q-0.127-0.9271-0.3937-1.4605-0.2667-0.5461-0.6985-0.762-0.4191-0.2286-0.9906-0.2286h-0.5207q-0.3683 0-0.5588 0.0635t-0.254 0.254-0.0635 0.5842v6.604q0 0.3937 0.0635 0.5842t0.254 0.254 0.5588 0.0635h0.6223q0.5715 0 1.0033-0.2413 0.4445-0.254 0.7493-0.8509 0.3175-0.5969 0.4826-1.6129h0.2921q-0.0381 0.4064-0.0381 1.0668 0 0.2921 0.0127 0.8255t0.0762 1.1049q-0.6477-0.0254-1.4605-0.0254-0.8128-0.0127-1.4478-0.0127-0.3175 0-0.8128 0t-1.0668 0.0127q-0.5715 0-1.1557 0.0127-0.5842 0-1.1049 0.0127v-0.254q0.4064-0.0254 0.6096-0.1016t0.2667-0.3048q0.0762-0.2286 0.0762-0.6858v-6.2992q0-0.4699-0.0762-0.6858-0.0635-0.2286-0.2794-0.3048-0.2032-0.0889-0.5969-0.1016v-0.254q0.5207 0.0127 1.1049 0.0254 0.5842 0 1.1557 0.0127 0.5715 0 1.0668 0t0.8128 0q0.5842 0 1.3208 0 0.7493-0.0127 1.3335-0.0381zm-1.9812 4.3434t0 0.127 0 0.127h-2.2225t0-0.127 0-0.127zm0.3683-1.6764q-0.0508 0.7239-0.0508 1.1049 0.0127 0.381 0.0127 0.6985t0.0127 0.6985 0.0635 1.1049h-0.2921q-0.0635-0.4445-0.2413-0.8255-0.1651-0.381-0.4826-0.6096-0.3175-0.2413-0.8255-0.2413v-0.254q0.381 0 0.6477-0.1524 0.2667-0.1651 0.4318-0.4191 0.1778-0.2667 0.2794-0.5588t0.1524-0.5461zm12.828-0.4191q0.9779 0 1.5494 0.4191t0.5715 1.1938q0 0.4953-0.254 0.9017-0.2413 0.4064-0.6477 0.7747-0.4064 0.3556-0.8763 0.6731-0.4572 0.3175-0.889 0.635-0.4318 0.3048-0.7366 0.635h2.7432q0.5207 0 0.6604-0.127t0.1905-0.4445h0.2667q0 0.8509 0.0127 1.3208t0.0381 0.8255q-0.1143-0.0254-0.4191-0.0381t-0.6985-0.0254q-0.3937 0-0.7747 0h-3.6957v-0.2413q0.3556-0.381 0.8763-0.8382t1.016-1.016q0.508-0.5588 0.8509-1.2065 0.3429-0.6604 0.3429-1.4097 0-0.6858-0.3048-0.9906t-0.8763-0.3048q-0.5461 0-0.9652 0.254-0.4064 0.2413-0.7366 0.7239l-0.2159-0.127q0.254-0.4318 0.635-0.7874 0.3937-0.3683 0.9652-0.5842t1.3716-0.2159zm9.334 0q1.016 0 1.7907 0.4191 0.7747 0.4064 1.2192 1.1684 0.4445 0.7493 0.4445 1.7653t-0.4572 1.8288q-0.4445 0.8001-1.2573 1.27-0.8001 0.4699-1.8796 0.4699-0.9906 0-1.778-0.4191-0.7747-0.4191-1.2319-1.1684-0.4445-0.762-0.4445-1.778 0-1.0033 0.4445-1.8034 0.4445-0.8128 1.2573-1.2827t1.8923-0.4699zm-0.1143 0.2286q-0.6858 0-1.1303 0.8763-0.4318 0.8636-0.4318 2.413 0 1.143 0.2286 1.8415t0.5969 1.016q0.381 0.3175 0.8255 0.3175 0.6858 0 1.1176-0.8763 0.4445-0.8763 0.4445-2.4257 0-1.143-0.2286-1.8415t-0.6096-1.0033q-0.3683-0.3175-0.8128-0.3175zm9.6515-0.2286q0.9779 0 1.5494 0.4191t0.5715 1.1938q0 0.4953-0.254 0.9017-0.2413 0.4064-0.6477 0.7747-0.4064 0.3556-0.8763 0.6731-0.4572 0.3175-0.889 0.635-0.4318 0.3048-0.7366 0.635h2.7432q0.5207 0 0.6604-0.127t0.1905-0.4445h0.2667q0 0.8509 0.0127 1.3208t0.0381 0.8255q-0.1143-0.0254-0.4191-0.0381t-0.6985-0.0254q-0.3937 0-0.7747 0h-3.6957v-0.2413q0.3556-0.381 0.8763-0.8382t1.016-1.016q0.508-0.5588 0.8509-1.2065 0.3429-0.6604 0.3429-1.4097 0-0.6858-0.3048-0.9906t-0.8763-0.3048q-0.5461 0-0.9652 0.254-0.4064 0.2413-0.7366 0.7239l-0.2159-0.127q0.254-0.4318 0.635-0.7874 0.3937-0.3683 0.9652-0.5842t1.3716-0.2159zm10.007 0 0.0508 0.3302-3.9624 5.08 0.1778-0.4318h4.0386q0.5207 0 0.6604-0.127t0.1905-0.4445h0.2667q0 0.762 0.0127 1.1938 0.0127 0.4191 0.0381 0.7493-0.0889-0.0254-0.3302-0.0254-0.2413-0.0127-0.5715-0.0254t-0.6731-0.0127q-0.3302 0-0.6223 0h-4.0132v-0.2667zm0.2032 0v8.5344h-1.4732v-6.7437l1.27-1.7907z" style="font-variation-settings:'wght' 700"/></g><g transform="matrix(1 0 0 -1 -1.7169 93.58)" fill="url(#linearGradient28)" aria-label="GLASTONBURY FESTIVAL LINE-UP 2024 26TH - 30TH JUNE 2024"><path d="m15.056 6.0614q0.8636 0 1.4097 0.2413t0.9779 0.5842q0.1524 0.1143 0.254 0.1143 0.2413 0 0.3175-0.762h0.2921q-0.0254 0.4953-0.0381 1.2065-0.0127 0.6985-0.0127 1.8669h-0.2921q-0.0889-0.762-0.2794-1.3208-0.1778-0.5715-0.6731-0.9779-0.3048-0.2921-0.762-0.4572-0.4445-0.1651-0.9017-0.1651-0.6985 0-1.1938 0.3683-0.4953 0.3556-0.8128 0.9779t-0.4699 1.4097q-0.1524 0.7747-0.1524 1.6129 0 2.286 0.6223 3.3401 0.635 1.0541 1.8161 1.0541 0.3048 0 0.5334-0.0762t0.3683-0.1778q0.1778-0.127 0.2413-0.2667 0.0635-0.1524 0.0635-0.3937v-1.2446q0-0.5842-0.1016-0.8636-0.0889-0.2921-0.3683-0.3937t-0.8128-0.1143v-0.254q0.2667 0.0127 0.635 0.0254 0.381 0 0.7874 0.0127 0.4064 0 0.7493 0 0.5334 0 0.9779-0.0127t0.7239-0.0254v0.254q-0.2413 0.0127-0.3683 0.0889-0.1143 0.0762-0.1651 0.3048-0.0381 0.2286-0.0381 0.6985v2.5146h-0.254q-0.0127-0.2159-0.1016-0.4699-0.0762-0.254-0.2667-0.254-0.0889 0-0.2413 0.0508-0.1397 0.0381-0.4445 0.2159-0.4699 0.2667-0.9906 0.4572-0.5207 0.1778-1.0922 0.1778-1.4732 0-2.4892-0.5461t-1.5367-1.5621q-0.508-1.0287-0.508-2.4638 0-1.4478 0.5842-2.5146 0.5969-1.0668 1.6256-1.6637 1.0414-0.5969 2.3876-0.5969zm10.642 0.1778v0.254q-0.4318 0.0127-0.6604 0.1016-0.2159 0.0762-0.2921 0.3048-0.0762 0.2159-0.0762 0.6858v6.4516q0 0.3937 0.0508 0.5842 0.0635 0.1905 0.2286 0.254 0.1778 0.0635 0.5207 0.0635h0.6223q0.4318 0 0.8128-0.2032t0.6858-0.5715q0.3048-0.381 0.508-0.9017t0.3048-1.1557h0.2921q-0.0381 0.4318-0.0381 1.1176 0 0.2921 0.0127 0.8509t0.0762 1.1557q-0.6477-0.0254-1.4605-0.0254-0.8128-0.0127-1.4478-0.0127-0.3175 0-0.8128 0t-1.0668 0.0127q-0.5715 0-1.1557 0.0127-0.5842 0-1.1049 0.0127v-0.254q0.4064-0.0254 0.6096-0.1016t0.2667-0.3048q0.0762-0.2286 0.0762-0.6858v-6.2992q0-0.4699-0.0762-0.6858-0.0635-0.2286-0.2794-0.3048-0.2032-0.0889-0.5969-0.1016v-0.254q0.3175 0.0127 0.8509 0.0254 0.5461 0.0127 1.1557 0.0127 0.5588 0 1.0922-0.0127 0.5461-0.0127 0.9017-0.0254zm10.02-0.0254 3.0861 7.9502q0.1778 0.4572 0.3937 0.635 0.2286 0.1651 0.4064 0.1778v0.254q-0.381-0.0254-0.9017-0.0254-0.508-0.0127-1.0287-0.0127-0.5842 0-1.1049 0.0127-0.5207 0-0.8255 0.0254v-0.254q0.6477-0.0254 0.8128-0.2159 0.1778-0.2032-0.0762-0.8509l-2.159-5.9055 0.2286-0.3302-1.9304 5.0292q-0.2794 0.6985-0.3429 1.143-0.0508 0.4445 0.0635 0.6858 0.127 0.2413 0.3937 0.3429 0.2794 0.0889 0.6604 0.1016v0.254q-0.4191-0.0254-0.8001-0.0254-0.381-0.0127-0.7747-0.0127-0.2794 0-0.5334 0.0127-0.2413 0-0.4318 0.0254v-0.254q0.2667-0.0508 0.5461-0.3429t0.5461-0.9906l2.8956-7.4295q0.2032 0.0127 0.4318 0.0127 0.2413 0 0.4445-0.0127zm0.889 5.3594v0.254h-3.7846l0.127-0.254zm8.5339-5.4991q0.7493 0 1.1557 0.1651 0.4064 0.1524 0.6985 0.3302 0.1524 0.0889 0.2413 0.1397 0.1016 0.0381 0.1905 0.0381 0.127 0 0.1778-0.1397 0.0635-0.1397 0.1016-0.4191h0.2921q-0.0127 0.2413-0.0381 0.5842-0.0127 0.3302-0.0254 0.8763 0 0.5461 0 1.4351h-0.2921q-0.0508-0.6604-0.3048-1.2827t-0.7239-1.016q-0.4572-0.4064-1.1303-0.4064-0.6096 0-1.0033 0.3429t-0.3937 0.9525q0 0.508 0.254 0.8763 0.254 0.3556 0.7366 0.6985 0.4953 0.3429 1.1938 0.8255 0.6096 0.3937 1.0922 0.7874t0.7747 0.889 0.2921 1.1811q0 0.8382-0.4445 1.3843-0.4318 0.5461-1.143 0.8255-0.7112 0.2667-1.5621 0.2667-0.7874 0-1.2573-0.1524t-0.7874-0.3175q-0.2794-0.1778-0.4318-0.1778-0.127 0-0.1905 0.1397-0.0508 0.1397-0.0889 0.4191h-0.2921q0.0254-0.3048 0.0254-0.7112 0.0127-0.4064 0.0127-1.0541 0.0127-0.6604 0.0127-1.6637h0.2921q0.0508 0.8382 0.2794 1.5748 0.2413 0.7239 0.7239 1.1684 0.4953 0.4445 1.3081 0.4445 0.4445 0 0.7874-0.1524 0.3556-0.1651 0.5715-0.4826t0.2159-0.7874q0-0.5334-0.254-0.9271-0.2413-0.3937-0.6731-0.7366-0.4191-0.3429-0.9779-0.6985-0.5969-0.3937-1.1176-0.7874t-0.8382-0.9017q-0.3048-0.508-0.3048-1.2065 0-0.8001 0.3937-1.3081 0.4064-0.5207 1.0541-0.762 0.6604-0.254 1.397-0.254zm13.982 0.1651q-0.0508 0.6477-0.0762 1.2446-0.0127 0.5969-0.0127 0.9144 0 0.2794 0.0127 0.5334t0.0254 0.4318h-0.2921q-0.2032-1.0668-0.5207-1.6891-0.3048-0.6223-0.7366-0.8763-0.4318-0.2667-1.016-0.2667h-0.2921v7.2517q0 0.508 0.1016 0.762 0.1143 0.254 0.4064 0.3429 0.2921 0.0762 0.8509 0.0889v0.254q-0.3937-0.0127-1.0541-0.0254-0.6477-0.0127-1.3589-0.0127-0.6985 0-1.3208 0.0127t-1.0033 0.0254v-0.254q0.5715-0.0127 0.8636-0.0889 0.2921-0.0889 0.3937-0.3429t0.1016-0.762v-7.2517h-0.2794q-0.5842 0-1.016 0.2667-0.4318 0.254-0.7366 0.8763-0.3048 0.6096-0.5334 1.6891h-0.2921q0.0254-0.1778 0.0254-0.4318 0.0127-0.254 0.0127-0.5334 0-0.3175-0.0254-0.9144-0.0127-0.5969-0.0635-1.2446 0.5842 0.0127 1.27 0.0254 0.6985 0.0127 1.397 0.0127t1.2573 0q0.5715 0 1.2573 0 0.6985 0 1.397-0.0127t1.2573-0.0254zm7.3909-0.1778q1.3462 0 2.3495 0.5461 1.016 0.5461 1.5748 1.5748 0.5588 1.016 0.5588 2.4765 0 1.4224-0.5715 2.4892t-1.6002 1.6637q-1.016 0.5969-2.3241 0.5969-1.3462 0-2.3622-0.5461-1.0033-0.5461-1.5621-1.5748t-0.5588-2.4765q0-1.4224 0.5715-2.4892 0.5842-1.0668 1.5875-1.6637 1.016-0.5969 2.3368-0.5969zm-0.0508 0.2286q-0.7112 0-1.2446 0.5715-0.5207 0.5715-0.8128 1.5748-0.2794 1.0033-0.2794 2.3241 0 1.3462 0.3175 2.3495 0.3302 0.9906 0.8763 1.5367 0.5588 0.5334 1.2319 0.5334 0.7112 0 1.2319-0.5715 0.5334-0.5715 0.8128-1.5748 0.2921-1.016 0.2921-2.3241 0-1.3589-0.3302-2.3495-0.3175-0.9906-0.8763-1.524-0.5461-0.5461-1.2192-0.5461zm15.798-0.0508v0.254q-0.4064 0.0508-0.6096 0.2159-0.2032 0.1524-0.2794 0.4953-0.0635 0.3429-0.0635 0.9652v7.0866q-0.1524-0.0127-0.3175-0.0127-0.1524 0-0.3302 0.0127l-5.5118-6.985v4.8768q0 0.6985 0.0762 1.0795 0.0762 0.3683 0.3302 0.5334 0.2667 0.1524 0.8255 0.2159v0.254q-0.2413-0.0254-0.635-0.0254-0.3937-0.0127-0.7366-0.0127-0.2921 0-0.5969 0.0127-0.3048 0-0.508 0.0254v-0.254q0.4064-0.0635 0.6096-0.2159t0.2667-0.4953q0.0762-0.3556 0.0762-0.9652v-5.715q0-0.4699-0.0762-0.6858-0.0635-0.2286-0.2794-0.3048-0.2032-0.0889-0.5969-0.1016v-0.254q0.2032 0.0127 0.508 0.0254t0.5969 0.0127q0.3048 0 0.5842-0.0127t0.508-0.0254l4.9149 6.0579v-3.9751q0-0.6985-0.0762-1.0668-0.0762-0.381-0.3429-0.5461-0.254-0.1651-0.8128-0.2159v-0.254q0.2413 0.0127 0.635 0.0254t0.7366 0.0127q0.3048 0 0.5969-0.0127 0.3048-0.0127 0.508-0.0254zm2.8189 0q0.3302 0.0127 0.8636 0.0254t1.0668 0.0127q0.6096 0 1.1811-0.0127t0.8128-0.0127q1.5748 0 2.3495 0.5588 0.7874 0.5588 0.7874 1.4351 0 0.4445-0.2667 0.9017t-0.8255 0.8128-1.4478 0.5207v0.0254q1.1938 0.0889 1.8923 0.4318t1.0033 0.8255 0.3048 1.0033q0 0.8001-0.4191 1.3462t-1.2065 0.8382q-0.7874 0.2794-1.8796 0.2794-0.3048 0-0.8763-0.0127-0.5715-0.0254-1.3843-0.0254-0.5588 0-1.0922 0.0127-0.5334 0-0.8636 0.0254v-0.254q0.4064-0.0254 0.6096-0.1016t0.2667-0.3048q0.0762-0.2286 0.0762-0.6858v-6.2992q0-0.4699-0.0762-0.6858-0.0635-0.2286-0.2794-0.3048-0.2032-0.0889-0.5969-0.1016zm3.7592 0.254q-0.4953 0-0.6477 0.2159-0.1397 0.2159-0.1397 0.8763v6.2992q0 0.4445 0.0635 0.6731 0.0762 0.2286 0.254 0.3048 0.1905 0.0762 0.5588 0.0762 0.9144 0 1.3335-0.5715 0.4318-0.5842 0.4318-1.651 0-0.9779-0.4953-1.5113-0.4826-0.5334-1.6129-0.5334h-1.0795t0-0.1016q0-0.1143 0-0.1143h1.0922q0.5969 0 0.9144-0.2794 0.3175-0.2921 0.4445-0.762 0.127-0.4826 0.127-1.0287 0-0.9398-0.2921-1.4097-0.2921-0.4826-0.9525-0.4826zm14.853-0.254v0.254q-0.4064 0.0508-0.6223 0.2159-0.2032 0.1524-0.2667 0.4953t-0.0635 0.9652v3.3655q0 0.8255-0.1143 1.5113t-0.4064 1.1811q-0.3302 0.5461-0.9652 0.8636t-1.6129 0.3175q-0.5842 0-1.1938-0.1397-0.6096-0.127-1.0922-0.4953-0.4064-0.3429-0.6223-0.7747t-0.2921-1.016q-0.0762-0.5969-0.0762-1.4097v-3.9878q0-0.4699-0.0762-0.6858-0.0635-0.2286-0.2667-0.3048-0.2032-0.0889-0.6096-0.1016v-0.254q0.3175 0.0127 0.8509 0.0254 0.5461 0.0127 1.1303 0.0127t1.1176-0.0127q0.5461-0.0127 0.9017-0.0254v0.254q-0.4318 0.0127-0.6604 0.1016-0.2159 0.0762-0.2921 0.3048-0.0762 0.2159-0.0762 0.6858v4.7879q0 0.635 0.0762 1.1303 0.0889 0.4826 0.2794 0.8128 0.2032 0.3175 0.5461 0.4826t0.8509 0.1651q0.889 0 1.3843-0.4191 0.508-0.4191 0.7112-1.1557 0.2159-0.7493 0.2159-1.7145v-3.3528q0-0.6985-0.0889-1.0668-0.0889-0.381-0.3556-0.5461-0.254-0.1651-0.7874-0.2159v-0.254q0.2413 0.0127 0.635 0.0254t0.7366 0.0127q0.3048 0 0.5969-0.0127 0.3048-0.0127 0.508-0.0254zm2.6792 0q0.3175 0.0127 0.8509 0.0254 0.5461 0.0127 1.0795 0.0127 0.6096 0 1.1811-0.0127t0.8128-0.0127q1.1811 0 1.9558 0.2667 0.7874 0.254 1.1684 0.7493 0.3937 0.4953 0.3937 1.1938 0 0.4318-0.1778 0.8763-0.1778 0.4318-0.6096 0.8128-0.4191 0.3683-1.1557 0.5969-0.7366 0.2159-1.8542 0.2159h-1.2192v-0.254h1.0922q0.7493 0 1.1303-0.2794 0.3937-0.2921 0.5334-0.762 0.1524-0.4826 0.1524-1.0668 0-1.0033-0.3556-1.5494-0.3556-0.5588-1.2192-0.5588-0.4953 0-0.6477 0.2159-0.1397 0.2159-0.1397 0.8763v6.2992q0 0.4572 0.0635 0.6858 0.0762 0.2286 0.2794 0.3048t0.6096 0.1016v0.254q-0.3429-0.0254-0.8636-0.0254-0.5207-0.0127-1.0541-0.0127-0.6096 0-1.1557 0.0127-0.5334 0-0.8509 0.0254v-0.254q0.4064-0.0254 0.6096-0.1016t0.2667-0.3048q0.0762-0.2286 0.0762-0.6858v-6.2992q0-0.4699-0.0762-0.6858-0.0635-0.2286-0.2794-0.3048-0.2032-0.0889-0.5969-0.1016zm2.4003 4.5085q0.5461 0.0127 0.9398 0.0508 0.4064 0.0381 0.7112 0.0762 0.3048 0.0254 0.5461 0.0381 1.1557 0.1016 1.7018 0.4953 0.5588 0.3937 0.7239 1.1811l0.2921 1.3081q0.1143 0.508 0.2413 0.7112t0.3683 0.2032q0.1651-0.0127 0.2667-0.0762 0.1143-0.0762 0.2413-0.2159l0.1778 0.1524q-0.3429 0.3937-0.7366 0.5588-0.3937 0.1778-0.9525 0.1778-0.6858 0-1.1303-0.2921t-0.5842-1.0795l-0.2286-1.27q-0.0889-0.5334-0.2159-0.9271-0.127-0.4064-0.3556-0.635-0.2159-0.2413-0.6096-0.2413h-1.3716zm15.341-4.5212v0.254q-0.2794 0.1143-0.5715 0.4572-0.2921 0.3302-0.6477 1.016l-2.4003 4.7498h-0.5969l-2.9718-5.4991q-0.2286-0.4318-0.4191-0.5715-0.1778-0.1397-0.3175-0.1397v-0.2667q0.3429 0.0381 0.6985 0.0508 0.3683 0.0127 0.8001 0.0127 0.5588 0 1.2065-0.0127 0.6477-0.0254 1.1811-0.0508v0.2667q-0.3175 0-0.5715 0.0508t-0.3556 0.1905q-0.1016 0.127 0.0508 0.4191l2.0066 3.8608-0.3937 0.508 1.3081-2.6289q0.4699-0.9144 0.4953-1.4351 0.0381-0.5207-0.254-0.7366-0.2794-0.2286-0.8001-0.2413v-0.254q0.4318 0.0127 0.8128 0.0254t0.7747 0.0127q0.2794 0 0.5207-0.0127 0.254-0.0127 0.4445-0.0254zm-2.7178 4.4704v3.1877q0 0.4572 0.0635 0.6858 0.0762 0.2286 0.2794 0.3048t0.6096 0.1016v0.254q-0.3429-0.0254-0.889-0.0254-0.5334-0.0127-1.0668-0.0127-0.5969 0-1.1303 0.0127-0.5334 0-0.8382 0.0254v-0.254q0.4064-0.0254 0.6096-0.1016t0.2667-0.3048q0.0762-0.2286 0.0762-0.6858v-2.6035l1.1049 0.7874zm16.854-4.4577q-0.0508 0.5715-0.0762 1.1049-0.0127 0.5334-0.0127 0.8255 0 0.2794 0.0127 0.5334t0.0254 0.4318h-0.2921q-0.1651-0.9906-0.4572-1.5494-0.2921-0.5715-0.7239-0.8128-0.4191-0.2413-1.0033-0.2413h-0.4191q-0.3683 0-0.5588 0.0635t-0.254 0.254-0.0635 0.5842v6.3754q0 0.4953 0.1016 0.7366t0.3937 0.3175 0.8636 0.0889v0.2794q-0.3937-0.0127-1.016-0.0254t-1.3081-0.0127q-0.5461 0-1.0668 0.0127t-0.9398 0.0254v-0.254q0.4064-0.0254 0.6096-0.1016t0.2667-0.3048q0.0762-0.2286 0.0762-0.6858v-6.2992q0-0.4699-0.0762-0.6858-0.0635-0.2286-0.2794-0.3048-0.2032-0.0889-0.5969-0.1016v-0.254q0.5207 0.0127 1.1049 0.0254 0.5842 0 1.1557 0.0127 0.5715 0 1.0668 0t0.8128 0q0.5842 0 1.3208 0 0.7493-0.0127 1.3335-0.0381zm-1.8923 4.3942t0 0.127 0 0.127h-2.3114t0-0.127 0-0.127zm0.3175-1.6764q-0.0508 0.7239-0.0508 1.1049 0.0127 0.381 0.0127 0.6985t0.0127 0.6985 0.0635 1.1049h-0.2921q-0.0762-0.4445-0.2413-0.8255t-0.4826-0.6096q-0.3175-0.2413-0.8255-0.2413v-0.254q0.381 0 0.635-0.1524 0.2667-0.1651 0.4445-0.4191 0.1778-0.2667 0.2794-0.5588t0.1524-0.5461zm11.112-2.7178q-0.0508 0.5588-0.0762 1.0795-0.0127 0.5207-0.0127 0.8001 0 0.254 0.0127 0.4826t0.0254 0.381h-0.2921q-0.127-0.9271-0.3937-1.4605-0.2667-0.5461-0.6985-0.762-0.4191-0.2286-0.9906-0.2286h-0.5207q-0.3683 0-0.5588 0.0635t-0.254 0.254-0.0635 0.5842v6.604q0 0.3937 0.0635 0.5842t0.254 0.254 0.5588 0.0635h0.6223q0.5715 0 1.0033-0.2413 0.4445-0.254 0.7493-0.8509 0.3175-0.5969 0.4826-1.6129h0.2921q-0.0381 0.4064-0.0381 1.0668 0 0.2921 0.0127 0.8255t0.0762 1.1049q-0.6477-0.0254-1.4605-0.0254-0.8128-0.0127-1.4478-0.0127-0.3175 0-0.8128 0t-1.0668 0.0127q-0.5715 0-1.1557 0.0127-0.5842 0-1.1049 0.0127v-0.254q0.4064-0.0254 0.6096-0.1016t0.2667-0.3048q0.0762-0.2286 0.0762-0.6858v-6.2992q0-0.4699-0.0762-0.6858-0.0635-0.2286-0.2794-0.3048-0.2032-0.0889-0.5969-0.1016v-0.254q0.5207 0.0127 1.1049 0.0254 0.5842 0 1.1557 0.0127 0.5715 0 1.0668 0t0.8128 0q0.5842 0 1.3208 0 0.7493-0.0127 1.3335-0.0381zm-1.9812 4.3434t0 0.127 0 0.127h-2.2225t0-0.127 0-0.127zm0.3683-1.6764q-0.0508 0.7239-0.0508 1.1049 0.0127 0.381 0.0127 0.6985t0.0127 0.6985 0.0635 1.1049h-0.2921q-0.0635-0.4445-0.2413-0.8255-0.1651-0.381-0.4826-0.6096-0.3175-0.2413-0.8255-0.2413v-0.254q0.381 0 0.6477-0.1524 0.2667-0.1651 0.4318-0.4191 0.1778-0.2667 0.2794-0.5588t0.1524-0.5461zm8.064-2.8321q0.7493 0 1.1557 0.1651 0.4064 0.1524 0.6985 0.3302 0.1524 0.0889 0.2413 0.1397 0.1016 0.0381 0.1905 0.0381 0.127 0 0.1778-0.1397 0.0635-0.1397 0.1016-0.4191h0.2921q-0.0127 0.2413-0.0381 0.5842-0.0127 0.3302-0.0254 0.8763 0 0.5461 0 1.4351h-0.2921q-0.0508-0.6604-0.3048-1.2827t-0.7239-1.016q-0.4572-0.4064-1.1303-0.4064-0.6096 0-1.0033 0.3429t-0.3937 0.9525q0 0.508 0.254 0.8763 0.254 0.3556 0.7366 0.6985 0.4953 0.3429 1.1938 0.8255 0.6096 0.3937 1.0922 0.7874t0.7747 0.889 0.2921 1.1811q0 0.8382-0.4445 1.3843-0.4318 0.5461-1.143 0.8255-0.7112 0.2667-1.5621 0.2667-0.7874 0-1.2573-0.1524t-0.7874-0.3175q-0.2794-0.1778-0.4318-0.1778-0.127 0-0.1905 0.1397-0.0508 0.1397-0.0889 0.4191h-0.2921q0.0254-0.3048 0.0254-0.7112 0.0127-0.4064 0.0127-1.0541 0.0127-0.6604 0.0127-1.6637h0.2921q0.0508 0.8382 0.2794 1.5748 0.2413 0.7239 0.7239 1.1684 0.4953 0.4445 1.3081 0.4445 0.4445 0 0.7874-0.1524 0.3556-0.1651 0.5715-0.4826t0.2159-0.7874q0-0.5334-0.254-0.9271-0.2413-0.3937-0.6731-0.7366-0.4191-0.3429-0.9779-0.6985-0.5969-0.3937-1.1176-0.7874t-0.8382-0.9017q-0.3048-0.508-0.3048-1.2065 0-0.8001 0.3937-1.3081 0.4064-0.5207 1.0541-0.762 0.6604-0.254 1.397-0.254zm13.982 0.1651q-0.0508 0.6477-0.0762 1.2446-0.0127 0.5969-0.0127 0.9144 0 0.2794 0.0127 0.5334t0.0254 0.4318h-0.2921q-0.2032-1.0668-0.5207-1.6891-0.3048-0.6223-0.7366-0.8763-0.4318-0.2667-1.016-0.2667h-0.2921v7.2517q0 0.508 0.1016 0.762 0.1143 0.254 0.4064 0.3429 0.2921 0.0762 0.8509 0.0889v0.254q-0.3937-0.0127-1.0541-0.0254-0.6477-0.0127-1.3589-0.0127-0.6985 0-1.3208 0.0127t-1.0033 0.0254v-0.254q0.5715-0.0127 0.8636-0.0889 0.2921-0.0889 0.3937-0.3429t0.1016-0.762v-7.2517h-0.2794q-0.5842 0-1.016 0.2667-0.4318 0.254-0.7366 0.8763-0.3048 0.6096-0.5334 1.6891h-0.2921q0.0254-0.1778 0.0254-0.4318 0.0127-0.254 0.0127-0.5334 0-0.3175-0.0254-0.9144-0.0127-0.5969-0.0635-1.2446 0.5842 0.0127 1.27 0.0254 0.6985 0.0127 1.397 0.0127t1.2573 0q0.5715 0 1.2573 0 0.6985 0 1.397-0.0127t1.2573-0.0254zm6.7051 0v0.254q-0.4064 0.0127-0.6223 0.1016-0.2032 0.0762-0.2667 0.3048-0.0635 0.2159-0.0635 0.6858v6.2992q0 0.4572 0.0635 0.6858 0.0762 0.2286 0.2794 0.3048t0.6096 0.1016v0.254q-0.3429-0.0254-0.8636-0.0254-0.5207-0.0127-1.0541-0.0127-0.6223 0-1.1557 0.0127-0.5207 0-0.8509 0.0254v-0.254q0.4064-0.0254 0.6096-0.1016t0.2667-0.3048q0.0762-0.2286 0.0762-0.6858v-6.2992q0-0.4699-0.0762-0.6858-0.0635-0.2286-0.2794-0.3048-0.2032-0.0889-0.5969-0.1016v-0.254q0.3302 0.0127 0.8509 0.0254 0.5334 0.0127 1.1557 0.0127 0.5334 0 1.0541-0.0127t0.8636-0.0254zm11.048 0v0.254q-0.2794 0.1016-0.5969 0.4445-0.3048 0.3429-0.5715 1.0668l-2.6797 7.2517q-0.1016-0.0127-0.2159-0.0127t-0.2286 0q-0.1016 0-0.2159 0t-0.2159 0.0127l-3.2385-7.9502q-0.1778-0.4572-0.3937-0.6223-0.2159-0.1778-0.4064-0.1905v-0.254q0.381 0.0127 0.889 0.0254 0.5207 0.0127 1.0414 0.0127 0.5842 0 1.0922-0.0127 0.5207-0.0127 0.8382-0.0254v0.254q-0.4064 0.0127-0.635 0.1016-0.2286 0.0762-0.254 0.3048-0.0254 0.2159 0.1524 0.6604l2.3114 5.8801-0.2667 0.3175 1.7526-4.7244q0.3429-0.9525 0.3556-1.4986t-0.2667-0.7874-0.8001-0.254v-0.254q0.4318 0.0127 0.8128 0.0254t0.7747 0.0127q0.2794 0 0.5207-0.0127 0.254-0.0127 0.4445-0.0254zm5.6306-0.0254 3.0861 7.9502q0.1778 0.4572 0.3937 0.635 0.2286 0.1651 0.4064 0.1778v0.254q-0.381-0.0254-0.9017-0.0254-0.508-0.0127-1.0287-0.0127-0.5842 0-1.1049 0.0127-0.5207 0-0.8255 0.0254v-0.254q0.6477-0.0254 0.8128-0.2159 0.1778-0.2032-0.0762-0.8509l-2.159-5.9055 0.2286-0.3302-1.9304 5.0292q-0.2794 0.6985-0.3429 1.143-0.0508 0.4445 0.0635 0.6858 0.127 0.2413 0.3937 0.3429 0.2794 0.0889 0.6604 0.1016v0.254q-0.4191-0.0254-0.8001-0.0254-0.381-0.0127-0.7747-0.0127-0.2794 0-0.5334 0.0127-0.2413 0-0.4318 0.0254v-0.254q0.2667-0.0508 0.5461-0.3429t0.5461-0.9906l2.8956-7.4295q0.2032 0.0127 0.4318 0.0127 0.2413 0 0.4445-0.0127zm0.889 5.3594v0.254h-3.7846l0.127-0.254zm9.1054-5.334v0.254q-0.4318 0.0127-0.6604 0.1016-0.2159 0.0762-0.2921 0.3048-0.0762 0.2159-0.0762 0.6858v6.4516q0 0.3937 0.0508 0.5842 0.0635 0.1905 0.2286 0.254 0.1778 0.0635 0.5207 0.0635h0.6223q0.4318 0 0.8128-0.2032t0.6858-0.5715q0.3048-0.381 0.508-0.9017t0.3048-1.1557h0.2921q-0.0381 0.4318-0.0381 1.1176 0 0.2921 0.0127 0.8509t0.0762 1.1557q-0.6477-0.0254-1.4605-0.0254-0.8128-0.0127-1.4478-0.0127-0.3175 0-0.8128 0t-1.0668 0.0127q-0.5715 0-1.1557 0.0127-0.5842 0-1.1049 0.0127v-0.254q0.4064-0.0254 0.6096-0.1016t0.2667-0.3048q0.0762-0.2286 0.0762-0.6858v-6.2992q0-0.4699-0.0762-0.6858-0.0635-0.2286-0.2794-0.3048-0.2032-0.0889-0.5969-0.1016v-0.254q0.3175 0.0127 0.8509 0.0254 0.5461 0.0127 1.1557 0.0127 0.5588 0 1.0922-0.0127 0.5461-0.0127 0.9017-0.0254z" style="font-variation-settings:'wght' 700"/><path d="m59.054 20.687v0.254q-0.4318 0.0127-0.6604 0.1016-0.2159 0.0762-0.2921 0.3048-0.0762 0.2159-0.0762 0.6858v6.4516q0 0.3937 0.0508 0.5842 0.0635 0.1905 0.2286 0.254 0.1778 0.0635 0.5207 0.0635h0.6223q0.4318 0 0.8128-0.2032t0.6858-0.5715q0.3048-0.381 0.508-0.9017t0.3048-1.1557h0.2921q-0.0381 0.4318-0.0381 1.1176 0 0.2921 0.0127 0.8509t0.0762 1.1557q-0.6477-0.0254-1.4605-0.0254-0.8128-0.0127-1.4478-0.0127-0.3175 0-0.8128 0t-1.0668 0.0127q-0.5715 0-1.1557 0.0127-0.5842 0-1.1049 0.0127v-0.254q0.4064-0.0254 0.6096-0.1016t0.2667-0.3048q0.0762-0.2286 0.0762-0.6858v-6.2992q0-0.4699-0.0762-0.6858-0.0635-0.2286-0.2794-0.3048-0.2032-0.0889-0.5969-0.1016v-0.254q0.3175 0.0127 0.8509 0.0254 0.5461 0.0127 1.1557 0.0127 0.5588 0 1.0922-0.0127 0.5461-0.0127 0.9017-0.0254zm9.7023 0v0.254q-0.4064 0.0127-0.6223 0.1016-0.2032 0.0762-0.2667 0.3048-0.0635 0.2159-0.0635 0.6858v6.2992q0 0.4572 0.0635 0.6858 0.0762 0.2286 0.2794 0.3048t0.6096 0.1016v0.254q-0.3429-0.0254-0.8636-0.0254-0.5207-0.0127-1.0541-0.0127-0.6223 0-1.1557 0.0127-0.5207 0-0.8509 0.0254v-0.254q0.4064-0.0254 0.6096-0.1016t0.2667-0.3048q0.0762-0.2286 0.0762-0.6858v-6.2992q0-0.4699-0.0762-0.6858-0.0635-0.2286-0.2794-0.3048-0.2032-0.0889-0.5969-0.1016v-0.254q0.3302 0.0127 0.8509 0.0254 0.5334 0.0127 1.1557 0.0127 0.5334 0 1.0541-0.0127t0.8636-0.0254zm11.239 0v0.254q-0.4064 0.0508-0.6096 0.2159-0.2032 0.1524-0.2794 0.4953-0.0635 0.3429-0.0635 0.9652v7.0866q-0.1524-0.0127-0.3175-0.0127-0.1524 0-0.3302 0.0127l-5.5118-6.985v4.8768q0 0.6985 0.0762 1.0795 0.0762 0.3683 0.3302 0.5334 0.2667 0.1524 0.8255 0.2159v0.254q-0.2413-0.0254-0.635-0.0254-0.3937-0.0127-0.7366-0.0127-0.2921 0-0.5969 0.0127-0.3048 0-0.508 0.0254v-0.254q0.4064-0.0635 0.6096-0.2159t0.2667-0.4953q0.0762-0.3556 0.0762-0.9652v-5.715q0-0.4699-0.0762-0.6858-0.0635-0.2286-0.2794-0.3048-0.2032-0.0889-0.5969-0.1016v-0.254q0.2032 0.0127 0.508 0.0254t0.5969 0.0127q0.3048 0 0.5842-0.0127t0.508-0.0254l4.9149 6.0579v-3.9751q0-0.6985-0.0762-1.0668-0.0762-0.381-0.3429-0.5461-0.254-0.1651-0.8128-0.2159v-0.254q0.2413 0.0127 0.635 0.0254t0.7366 0.0127q0.3048 0 0.5969-0.0127 0.3048-0.0127 0.508-0.0254zm9.6134 0q-0.0508 0.5588-0.0762 1.0795-0.0127 0.5207-0.0127 0.8001 0 0.254 0.0127 0.4826t0.0254 0.381h-0.2921q-0.127-0.9271-0.3937-1.4605-0.2667-0.5461-0.6985-0.762-0.4191-0.2286-0.9906-0.2286h-0.5207q-0.3683 0-0.5588 0.0635t-0.254 0.254-0.0635 0.5842v6.604q0 0.3937 0.0635 0.5842t0.254 0.254 0.5588 0.0635h0.6223q0.5715 0 1.0033-0.2413 0.4445-0.254 0.7493-0.8509 0.3175-0.5969 0.4826-1.6129h0.2921q-0.0381 0.4064-0.0381 1.0668 0 0.2921 0.0127 0.8255t0.0762 1.1049q-0.6477-0.0254-1.4605-0.0254-0.8128-0.0127-1.4478-0.0127-0.3175 0-0.8128 0t-1.0668 0.0127q-0.5715 0-1.1557 0.0127-0.5842 0-1.1049 0.0127v-0.254q0.4064-0.0254 0.6096-0.1016t0.2667-0.3048q0.0762-0.2286 0.0762-0.6858v-6.2992q0-0.4699-0.0762-0.6858-0.0635-0.2286-0.2794-0.3048-0.2032-0.0889-0.5969-0.1016v-0.254q0.5207 0.0127 1.1049 0.0254 0.5842 0 1.1557 0.0127 0.5715 0 1.0668 0t0.8128 0q0.5842 0 1.3208 0 0.7493-0.0127 1.3335-0.0381zm-1.9812 4.3434t0 0.127 0 0.127h-2.2225t0-0.127 0-0.127zm0.3683-1.6764q-0.0508 0.7239-0.0508 1.1049 0.0127 0.381 0.0127 0.6985t0.0127 0.6985 0.0635 1.1049h-0.2921q-0.0635-0.4445-0.2413-0.8255-0.1651-0.381-0.4826-0.6096-0.3175-0.2413-0.8255-0.2413v-0.254q0.381 0 0.6477-0.1524 0.2667-0.1651 0.4318-0.4191 0.1778-0.2667 0.2794-0.5588t0.1524-0.5461zm9.8039 2.3622v1.0541h-4.5847v-1.0541zm11.242-5.0292v0.254q-0.4064 0.0508-0.6223 0.2159-0.2032 0.1524-0.2667 0.4953t-0.0635 0.9652v3.3655q0 0.8255-0.1143 1.5113t-0.4064 1.1811q-0.3302 0.5461-0.9652 0.8636t-1.6129 0.3175q-0.5842 0-1.1938-0.1397-0.6096-0.127-1.0922-0.4953-0.4064-0.3429-0.6223-0.7747t-0.2921-1.016q-0.0762-0.5969-0.0762-1.4097v-3.9878q0-0.4699-0.0762-0.6858-0.0635-0.2286-0.2667-0.3048-0.2032-0.0889-0.6096-0.1016v-0.254q0.3175 0.0127 0.8509 0.0254 0.5461 0.0127 1.1303 0.0127t1.1176-0.0127q0.5461-0.0127 0.9017-0.0254v0.254q-0.4318 0.0127-0.6604 0.1016-0.2159 0.0762-0.2921 0.3048-0.0762 0.2159-0.0762 0.6858v4.7879q0 0.635 0.0762 1.1303 0.0889 0.4826 0.2794 0.8128 0.2032 0.3175 0.5461 0.4826t0.8509 0.1651q0.889 0 1.3843-0.4191 0.508-0.4191 0.7112-1.1557 0.2159-0.7493 0.2159-1.7145v-3.3528q0-0.6985-0.0889-1.0668-0.0889-0.381-0.3556-0.5461-0.254-0.1651-0.7874-0.2159v-0.254q0.2413 0.0127 0.635 0.0254t0.7366 0.0127q0.3048 0 0.5969-0.0127 0.3048-0.0127 0.508-0.0254zm2.6792 0q0.3175 0.0127 0.8509 0.0254 0.5461 0.0127 1.0795 0.0127 0.6096 0 1.1811-0.0127t0.8128-0.0127q1.7653 0 2.6416 0.6985t0.8763 1.8034q0 0.4572-0.1778 0.9652-0.1778 0.4953-0.6096 0.9271-0.4191 0.4191-1.1557 0.6858t-1.8542 0.2667h-1.2954v-0.254h1.1684q0.7493 0 1.1303-0.3429 0.3937-0.3429 0.5334-0.9017 0.1524-0.5588 0.1524-1.2065 0-1.2065-0.3556-1.8034t-1.2192-0.5969q-0.4953 0-0.6477 0.2159-0.1397 0.2159-0.1397 0.8763v6.223q0 0.4953 0.1016 0.7366t0.3937 0.3175 0.8636 0.0889v0.2794q-0.3937-0.0127-1.016-0.0254t-1.3081-0.0127q-0.5461 0-1.0668 0.0127t-0.9398 0.0254v-0.254q0.4064-0.0254 0.6096-0.1016t0.2667-0.3048q0.0762-0.2286 0.0762-0.6858v-6.2992q0-0.4699-0.0762-0.6858-0.0635-0.2286-0.2794-0.3048-0.2032-0.0889-0.5969-0.1016zm17.751 2.2479q0.9779 0 1.5494 0.4191t0.5715 1.1938q0 0.4953-0.254 0.9017-0.2413 0.4064-0.6477 0.7747-0.4064 0.3556-0.8763 0.6731-0.4572 0.3175-0.889 0.635-0.4318 0.3048-0.7366 0.635h2.7432q0.5207 0 0.6604-0.127t0.1905-0.4445h0.2667q0 0.8509 0.0127 1.3208t0.0381 0.8255q-0.1143-0.0254-0.4191-0.0381t-0.6985-0.0254q-0.3937 0-0.7747 0h-3.6957v-0.2413q0.3556-0.381 0.8763-0.8382t1.016-1.016q0.508-0.5588 0.8509-1.2065 0.3429-0.6604 0.3429-1.4097 0-0.6858-0.3048-0.9906t-0.8763-0.3048q-0.5461 0-0.9652 0.254-0.4064 0.2413-0.7366 0.7239l-0.2159-0.127q0.254-0.4318 0.635-0.7874 0.3937-0.3683 0.9652-0.5842t1.3716-0.2159zm9.334 0q1.016 0 1.7907 0.4191 0.7747 0.4064 1.2192 1.1684 0.4445 0.7493 0.4445 1.7653t-0.4572 1.8288q-0.4445 0.8001-1.2573 1.27-0.8001 0.4699-1.8796 0.4699-0.9906 0-1.778-0.4191-0.7747-0.4191-1.2319-1.1684-0.4445-0.762-0.4445-1.778 0-1.0033 0.4445-1.8034 0.4445-0.8128 1.2573-1.2827t1.8923-0.4699zm-0.1143 0.2286q-0.6858 0-1.1303 0.8763-0.4318 0.8636-0.4318 2.413 0 1.143 0.2286 1.8415t0.5969 1.016q0.381 0.3175 0.8255 0.3175 0.6858 0 1.1176-0.8763 0.4445-0.8763 0.4445-2.4257 0-1.143-0.2286-1.8415t-0.6096-1.0033q-0.3683-0.3175-0.8128-0.3175zm9.6515-0.2286q0.9779 0 1.5494 0.4191t0.5715 1.1938q0 0.4953-0.254 0.9017-0.2413 0.4064-0.6477 0.7747-0.4064 0.3556-0.8763 0.6731-0.4572 0.3175-0.889 0.635-0.4318 0.3048-0.7366 0.635h2.7432q0.5207 0 0.6604-0.127t0.1905-0.4445h0.2667q0 0.8509 0.0127 1.3208t0.0381 0.8255q-0.1143-0.0254-0.4191-0.0381t-0.6985-0.0254q-0.3937 0-0.7747 0h-3.6957v-0.2413q0.3556-0.381 0.8763-0.8382t1.016-1.016q0.508-0.5588 0.8509-1.2065 0.3429-0.6604 0.3429-1.4097 0-0.6858-0.3048-0.9906t-0.8763-0.3048q-0.5461 0-0.9652 0.254-0.4064 0.2413-0.7366 0.7239l-0.2159-0.127q0.254-0.4318 0.635-0.7874 0.3937-0.3683 0.9652-0.5842t1.3716-0.2159zm10.007 0 0.0508 0.3302-3.9624 5.08 0.1778-0.4318h4.0386q0.5207 0 0.6604-0.127t0.1905-0.4445h0.2667q0 0.762 0.0127 1.1938 0.0127 0.4191 0.0381 0.7493-0.0889-0.0254-0.3302-0.0254-0.2413-0.0127-0.5715-0.0254t-0.6731-0.0127q-0.3302 0-0.6223 0h-4.0132v-0.2667zm0.2032 0v8.5344h-1.4732v-6.7437l1.27-1.7907z" style="font-variation-settings:'wght' 700"/><path d="m20.751 37.383q0.9779 0 1.5494 0.4191t0.5715 1.1938q0 0.4953-0.254 0.9017-0.2413 0.4064-0.6477 0.7747-0.4064 0.3556-0.8763 0.6731-0.4572 0.3175-0.889 0.635-0.4318 0.3048-0.7366 0.635h2.7432q0.5207 0 0.6604-0.127t0.1905-0.4445h0.2667q0 0.8509 0.0127 1.3208t0.0381 0.8255q-0.1143-0.0254-0.4191-0.0381t-0.6985-0.0254q-0.3937 0-0.7747 0h-3.6957v-0.2413q0.3556-0.381 0.8763-0.8382t1.016-1.016q0.508-0.5588 0.8509-1.2065 0.3429-0.6604 0.3429-1.4097 0-0.6858-0.3048-0.9906t-0.8763-0.3048q-0.5461 0-0.9652 0.254-0.4064 0.2413-0.7366 0.7239l-0.2159-0.127q0.254-0.4318 0.635-0.7874 0.3937-0.3683 0.9652-0.5842t1.3716-0.2159zm10.833-2.4384 0.0508 0.254q-0.4572 0.1524-0.9144 0.3683t-0.8763 0.5969q-0.4064 0.381-0.7239 0.9779-0.3175 0.5842-0.508 1.4732-0.1778 0.889-0.1778 2.1463t0.1778 1.9812q0.1905 0.7112 0.4699 1.016 0.2794 0.2921 0.5461 0.2921 0.2921 0 0.5461-0.2667t0.4064-0.8509q0.1651-0.5842 0.1651-1.5367 0-0.9144-0.1524-1.4605-0.1397-0.5461-0.381-0.7874t-0.5461-0.2413q-0.2159 0-0.4826 0.127t-0.4953 0.4064-0.3302 0.7874l-0.1143-0.0508q0.0762-0.6096 0.3683-0.9652 0.3048-0.3683 0.7239-0.5207t0.8382-0.1524q0.6858 0 1.2446 0.3302t0.9017 0.9398 0.3429 1.4732q0 0.9779-0.4318 1.651t-1.1557 1.0287q-0.7239 0.3429-1.5748 0.3429-1.397 0-2.1971-0.9398-0.7874-0.9525-0.7874-2.6797 0-1.143 0.3302-2.032t0.8763-1.5367q0.5461-0.6604 1.2065-1.1049 0.6731-0.4445 1.3589-0.6985 0.6985-0.2667 1.2954-0.3683zm11.633 0.1905q-0.0508 0.6477-0.0762 1.2446-0.0127 0.5969-0.0127 0.9144 0 0.2794 0.0127 0.5334t0.0254 0.4318h-0.2921q-0.2032-1.0668-0.5207-1.6891-0.3048-0.6223-0.7366-0.8763-0.4318-0.2667-1.016-0.2667h-0.2921v7.2517q0 0.508 0.1016 0.762 0.1143 0.254 0.4064 0.3429 0.2921 0.0762 0.8509 0.0889v0.254q-0.3937-0.0127-1.0541-0.0254-0.6477-0.0127-1.3589-0.0127-0.6985 0-1.3208 0.0127t-1.0033 0.0254v-0.254q0.5715-0.0127 0.8636-0.0889 0.2921-0.0889 0.3937-0.3429t0.1016-0.762v-7.2517h-0.2794q-0.5842 0-1.016 0.2667-0.4318 0.254-0.7366 0.8763-0.3048 0.6096-0.5334 1.6891h-0.2921q0.0254-0.1778 0.0254-0.4318 0.0127-0.254 0.0127-0.5334 0-0.3175-0.0254-0.9144-0.0127-0.5969-0.0635-1.2446 0.5842 0.0127 1.27 0.0254 0.6985 0.0127 1.397 0.0127t1.2573 0q0.5715 0 1.2573 0 0.6985 0 1.397-0.0127t1.2573-0.0254zm8.1656 8.9916v-0.254q0.4064-0.0254 0.6096-0.1016t0.2667-0.3048q0.0762-0.2286 0.0762-0.6858v-6.2992q0-0.4699-0.0762-0.6858-0.0635-0.2286-0.2794-0.3048-0.2032-0.0889-0.5969-0.1016v-0.254q0.3429 0.0127 0.889 0.0254 0.5588 0.0127 1.1049 0.0127 0.5842 0 1.0922-0.0127 0.5207-0.0127 0.8382-0.0254v0.254q-0.4064 0.0127-0.6223 0.1016-0.2032 0.0762-0.2667 0.3048-0.0635 0.2159-0.0635 0.6858v6.2992q0 0.4572 0.0635 0.6858 0.0762 0.2286 0.2794 0.3048t0.6096 0.1016v0.254q-0.3175-0.0254-0.8382-0.0254-0.508-0.0127-1.0922-0.0127-0.5461 0-1.1049 0.0127-0.5461 0-0.889 0.0254zm-5.3848 0v-0.254q0.4064-0.0254 0.6096-0.1016t0.2667-0.3048q0.0762-0.2286 0.0762-0.6858v-6.2992q0-0.4699-0.0762-0.6858-0.0635-0.2286-0.2794-0.3048-0.2032-0.0889-0.5969-0.1016v-0.254q0.3302 0.0127 0.8509 0.0254 0.5334 0.0127 1.1557 0.0127 0.5334 0 1.0541-0.0127t0.8636-0.0254v0.254q-0.4064 0.0127-0.6223 0.1016-0.2032 0.0762-0.2667 0.3048-0.0635 0.2159-0.0635 0.6858v6.2992q0 0.4572 0.0635 0.6858 0.0762 0.2286 0.2794 0.3048t0.6096 0.1016v0.254q-0.3429-0.0254-0.8636-0.0254-0.5207-0.0127-1.0541-0.0127-0.6223 0-1.1557 0.0127-0.5207 0-0.8509 0.0254zm2.1463-4.3942v-0.254h5.0165v0.254zm19.925 0.4318v1.0541h-4.5847v-1.0541zm10.784-2.7813q0.6223 0 1.1176 0.1778 0.4953 0.1651 0.7747 0.4953 0.2794 0.3175 0.2794 0.7874 0 0.4826-0.3175 0.9017-0.3048 0.4191-0.889 0.7366-0.5715 0.3048-1.3716 0.4572 0.8636-0.0381 1.5494 0.1778t1.0795 0.6604q0.4064 0.4318 0.4064 1.0922 0 0.5842-0.3175 1.0795-0.3048 0.4953-0.8509 0.8763-0.5461 0.3937-1.2446 0.6604-0.6858 0.2794-1.4478 0.4191t-1.524 0.1397v-0.254q0.5969-0.0127 1.2065-0.2159 0.6223-0.1905 1.1303-0.5588 0.5207-0.3556 0.8382-0.889 0.3175-0.5461 0.3175-1.2446 0-0.7493-0.3556-1.2319t-0.9779-0.5334q-0.1905 0.0889-0.3429 0.1524-0.1524 0.0508-0.3048 0.0508-0.1143 0-0.1778-0.0381t-0.0635-0.1397q0-0.1524 0.127-0.2159t0.2794-0.0635q0.1016 0 0.2032 0.0254 0.1143 0.0127 0.2413 0.0254 0.5461-0.381 0.762-0.8128 0.2159-0.4445 0.2159-0.889 0-0.5715-0.3048-0.8382-0.2921-0.2794-0.8255-0.2794-0.4953 0-0.9271 0.254-0.4318 0.2413-0.7239 0.7366l-0.2286-0.1143q0.2286-0.4191 0.5715-0.7747 0.3429-0.3683 0.8509-0.5842 0.508-0.2286 1.2446-0.2286zm9.2578 0q1.016 0 1.7907 0.4191 0.7747 0.4064 1.2192 1.1684 0.4445 0.7493 0.4445 1.7653t-0.4572 1.8288q-0.4445 0.8001-1.2573 1.27-0.8001 0.4699-1.8796 0.4699-0.9906 0-1.778-0.4191-0.7747-0.4191-1.2319-1.1684-0.4445-0.762-0.4445-1.778 0-1.0033 0.4445-1.8034 0.4445-0.8128 1.2573-1.2827t1.8923-0.4699zm-0.1143 0.2286q-0.6858 0-1.1303 0.8763-0.4318 0.8636-0.4318 2.413 0 1.143 0.2286 1.8415t0.5969 1.016q0.381 0.3175 0.8255 0.3175 0.6858 0 1.1176-0.8763 0.4445-0.8763 0.4445-2.4257 0-1.143-0.2286-1.8415t-0.6096-1.0033q-0.3683-0.3175-0.8128-0.3175zm14.312-2.4765q-0.0508 0.6477-0.0762 1.2446-0.0127 0.5969-0.0127 0.9144 0 0.2794 0.0127 0.5334t0.0254 0.4318h-0.2921q-0.2032-1.0668-0.5207-1.6891-0.3048-0.6223-0.7366-0.8763-0.4318-0.2667-1.016-0.2667h-0.2921v7.2517q0 0.508 0.1016 0.762 0.1143 0.254 0.4064 0.3429 0.2921 0.0762 0.8509 0.0889v0.254q-0.3937-0.0127-1.0541-0.0254-0.6477-0.0127-1.3589-0.0127-0.6985 0-1.3208 0.0127t-1.0033 0.0254v-0.254q0.5715-0.0127 0.8636-0.0889 0.2921-0.0889 0.3937-0.3429t0.1016-0.762v-7.2517h-0.2794q-0.5842 0-1.016 0.2667-0.4318 0.254-0.7366 0.8763-0.3048 0.6096-0.5334 1.6891h-0.2921q0.0254-0.1778 0.0254-0.4318 0.0127-0.254 0.0127-0.5334 0-0.3175-0.0254-0.9144-0.0127-0.5969-0.0635-1.2446 0.5842 0.0127 1.27 0.0254 0.6985 0.0127 1.397 0.0127t1.2573 0q0.5715 0 1.2573 0 0.6985 0 1.397-0.0127t1.2573-0.0254zm8.1656 8.9916v-0.254q0.4064-0.0254 0.6096-0.1016t0.2667-0.3048q0.0762-0.2286 0.0762-0.6858v-6.2992q0-0.4699-0.0762-0.6858-0.0635-0.2286-0.2794-0.3048-0.2032-0.0889-0.5969-0.1016v-0.254q0.3429 0.0127 0.889 0.0254 0.5588 0.0127 1.1049 0.0127 0.5842 0 1.0922-0.0127 0.5207-0.0127 0.8382-0.0254v0.254q-0.4064 0.0127-0.6223 0.1016-0.2032 0.0762-0.2667 0.3048-0.0635 0.2159-0.0635 0.6858v6.2992q0 0.4572 0.0635 0.6858 0.0762 0.2286 0.2794 0.3048t0.6096 0.1016v0.254q-0.3175-0.0254-0.8382-0.0254-0.508-0.0127-1.0922-0.0127-0.5461 0-1.1049 0.0127-0.5461 0-0.889 0.0254zm-5.3848 0v-0.254q0.4064-0.0254 0.6096-0.1016t0.2667-0.3048q0.0762-0.2286 0.0762-0.6858v-6.2992q0-0.4699-0.0762-0.6858-0.0635-0.2286-0.2794-0.3048-0.2032-0.0889-0.5969-0.1016v-0.254q0.3302 0.0127 0.8509 0.0254 0.5334 0.0127 1.1557 0.0127 0.5334 0 1.0541-0.0127t0.8636-0.0254v0.254q-0.4064 0.0127-0.6223 0.1016-0.2032 0.0762-0.2667 0.3048-0.0635 0.2159-0.0635 0.6858v6.2992q0 0.4572 0.0635 0.6858 0.0762 0.2286 0.2794 0.3048t0.6096 0.1016v0.254q-0.3429-0.0254-0.8636-0.0254-0.5207-0.0127-1.0541-0.0127-0.6223 0-1.1557 0.0127-0.5207 0-0.8509 0.0254zm2.1463-4.3942v-0.254h5.0165v0.254zm14.286 6.7818v-0.254q0.508-0.0508 0.8636-0.3048 0.3556-0.2413 0.5461-0.8382t0.1905-1.6764v-6.9596q0-0.4699-0.0762-0.6858-0.0635-0.2286-0.2667-0.3048-0.2032-0.0889-0.6096-0.1016v-0.254q0.3175 0.0127 0.8255 0.0254 0.5207 0.0127 1.0922 0.0127t1.1049-0.0127q0.5461-0.0127 0.9017-0.0254v0.254q-0.3937 0.0127-0.6096 0.1016-0.2032 0.0762-0.2794 0.3048-0.0635 0.2159-0.0635 0.6858v4.6482q0 0.5207 0 1.1303 0 0.5969-0.0508 1.1684-0.0381 0.5715-0.1651 1.016-0.254 0.8763-1.1049 1.4732-0.8382 0.5969-2.2987 0.5969zm15.455-11.379v0.254q-0.4064 0.0508-0.6223 0.2159-0.2032 0.1524-0.2667 0.4953t-0.0635 0.9652v3.3655q0 0.8255-0.1143 1.5113t-0.4064 1.1811q-0.3302 0.5461-0.9652 0.8636t-1.6129 0.3175q-0.5842 0-1.1938-0.1397-0.6096-0.127-1.0922-0.4953-0.4064-0.3429-0.6223-0.7747t-0.2921-1.016q-0.0762-0.5969-0.0762-1.4097v-3.9878q0-0.4699-0.0762-0.6858-0.0635-0.2286-0.2667-0.3048-0.2032-0.0889-0.6096-0.1016v-0.254q0.3175 0.0127 0.8509 0.0254 0.5461 0.0127 1.1303 0.0127t1.1176-0.0127q0.5461-0.0127 0.9017-0.0254v0.254q-0.4318 0.0127-0.6604 0.1016-0.2159 0.0762-0.2921 0.3048-0.0762 0.2159-0.0762 0.6858v4.7879q0 0.635 0.0762 1.1303 0.0889 0.4826 0.2794 0.8128 0.2032 0.3175 0.5461 0.4826t0.8509 0.1651q0.889 0 1.3843-0.4191 0.508-0.4191 0.7112-1.1557 0.2159-0.7493 0.2159-1.7145v-3.3528q0-0.6985-0.0889-1.0668-0.0889-0.381-0.3556-0.5461-0.254-0.1651-0.7874-0.2159v-0.254q0.2413 0.0127 0.635 0.0254t0.7366 0.0127q0.3048 0 0.5969-0.0127 0.3048-0.0127 0.508-0.0254zm11.048 0v0.254q-0.4064 0.0508-0.6096 0.2159-0.2032 0.1524-0.2794 0.4953-0.0635 0.3429-0.0635 0.9652v7.0866q-0.1524-0.0127-0.3175-0.0127-0.1524 0-0.3302 0.0127l-5.5118-6.985v4.8768q0 0.6985 0.0762 1.0795 0.0762 0.3683 0.3302 0.5334 0.2667 0.1524 0.8255 0.2159v0.254q-0.2413-0.0254-0.635-0.0254-0.3937-0.0127-0.7366-0.0127-0.2921 0-0.5969 0.0127-0.3048 0-0.508 0.0254v-0.254q0.4064-0.0635 0.6096-0.2159t0.2667-0.4953q0.0762-0.3556 0.0762-0.9652v-5.715q0-0.4699-0.0762-0.6858-0.0635-0.2286-0.2794-0.3048-0.2032-0.0889-0.5969-0.1016v-0.254q0.2032 0.0127 0.508 0.0254t0.5969 0.0127q0.3048 0 0.5842-0.0127t0.508-0.0254l4.9149 6.0579v-3.9751q0-0.6985-0.0762-1.0668-0.0762-0.381-0.3429-0.5461-0.254-0.1651-0.8128-0.2159v-0.254q0.2413 0.0127 0.635 0.0254t0.7366 0.0127q0.3048 0 0.5969-0.0127 0.3048-0.0127 0.508-0.0254zm9.6134 0q-0.0508 0.5588-0.0762 1.0795-0.0127 0.5207-0.0127 0.8001 0 0.254 0.0127 0.4826t0.0254 0.381h-0.2921q-0.127-0.9271-0.3937-1.4605-0.2667-0.5461-0.6985-0.762-0.4191-0.2286-0.9906-0.2286h-0.5207q-0.3683 0-0.5588 0.0635t-0.254 0.254-0.0635 0.5842v6.604q0 0.3937 0.0635 0.5842t0.254 0.254 0.5588 0.0635h0.6223q0.5715 0 1.0033-0.2413 0.4445-0.254 0.7493-0.8509 0.3175-0.5969 0.4826-1.6129h0.2921q-0.0381 0.4064-0.0381 1.0668 0 0.2921 0.0127 0.8255t0.0762 1.1049q-0.6477-0.0254-1.4605-0.0254-0.8128-0.0127-1.4478-0.0127-0.3175 0-0.8128 0t-1.0668 0.0127q-0.5715 0-1.1557 0.0127-0.5842 0-1.1049 0.0127v-0.254q0.4064-0.0254 0.6096-0.1016t0.2667-0.3048q0.0762-0.2286 0.0762-0.6858v-6.2992q0-0.4699-0.0762-0.6858-0.0635-0.2286-0.2794-0.3048-0.2032-0.0889-0.5969-0.1016v-0.254q0.5207 0.0127 1.1049 0.0254 0.5842 0 1.1557 0.0127 0.5715 0 1.0668 0t0.8128 0q0.5842 0 1.3208 0 0.7493-0.0127 1.3335-0.0381zm-1.9812 4.3434t0 0.127 0 0.127h-2.2225t0-0.127 0-0.127zm0.3683-1.6764q-0.0508 0.7239-0.0508 1.1049 0.0127 0.381 0.0127 0.6985t0.0127 0.6985 0.0635 1.1049h-0.2921q-0.0635-0.4445-0.2413-0.8255-0.1651-0.381-0.4826-0.6096-0.3175-0.2413-0.8255-0.2413v-0.254q0.381 0 0.6477-0.1524 0.2667-0.1651 0.4318-0.4191 0.1778-0.2667 0.2794-0.5588t0.1524-0.5461zm12.828-0.4191q0.9779 0 1.5494 0.4191t0.5715 1.1938q0 0.4953-0.254 0.9017-0.2413 0.4064-0.6477 0.7747-0.4064 0.3556-0.8763 0.6731-0.4572 0.3175-0.889 0.635-0.4318 0.3048-0.7366 0.635h2.7432q0.5207 0 0.6604-0.127t0.1905-0.4445h0.2667q0 0.8509 0.0127 1.3208t0.0381 0.8255q-0.1143-0.0254-0.4191-0.0381t-0.6985-0.0254q-0.3937 0-0.7747 0h-3.6957v-0.2413q0.3556-0.381 0.8763-0.8382t1.016-1.016q0.508-0.5588 0.8509-1.2065 0.3429-0.6604 0.3429-1.4097 0-0.6858-0.3048-0.9906t-0.8763-0.3048q-0.5461 0-0.9652 0.254-0.4064 0.2413-0.7366 0.7239l-0.2159-0.127q0.254-0.4318 0.635-0.7874 0.3937-0.3683 0.9652-0.5842t1.3716-0.2159zm9.334 0q1.016 0 1.7907 0.4191 0.7747 0.4064 1.2192 1.1684 0.4445 0.7493 0.4445 1.7653t-0.4572 1.8288q-0.4445 0.8001-1.2573 1.27-0.8001 0.4699-1.8796 0.4699-0.9906 0-1.778-0.4191-0.7747-0.4191-1.2319-1.1684-0.4445-0.762-0.4445-1.778 0-1.0033 0.4445-1.8034 0.4445-0.8128 1.2573-1.2827t1.8923-0.4699zm-0.1143 0.2286q-0.6858 0-1.1303 0.8763-0.4318 0.8636-0.4318 2.413 0 1.143 0.2286 1.8415t0.5969 1.016q0.381 0.3175 0.8255 0.3175 0.6858 0 1.1176-0.8763 0.4445-0.8763 0.4445-2.4257 0-1.143-0.2286-1.8415t-0.6096-1.0033q-0.3683-0.3175-0.8128-0.3175zm9.6515-0.2286q0.9779 0 1.5494 0.4191t0.5715 1.1938q0 0.4953-0.254 0.9017-0.2413 0.4064-0.6477 0.7747-0.4064 0.3556-0.8763 0.6731-0.4572 0.3175-0.889 0.635-0.4318 0.3048-0.7366 0.635h2.7432q0.5207 0 0.6604-0.127t0.1905-0.4445h0.2667q0 0.8509 0.0127 1.3208t0.0381 0.8255q-0.1143-0.0254-0.4191-0.0381t-0.6985-0.0254q-0.3937 0-0.7747 0h-3.6957v-0.2413q0.3556-0.381 0.8763-0.8382t1.016-1.016q0.508-0.5588 0.8509-1.2065 0.3429-0.6604 0.3429-1.4097 0-0.6858-0.3048-0.9906t-0.8763-0.3048q-0.5461 0-0.9652 0.254-0.4064 0.2413-0.7366 0.7239l-0.2159-0.127q0.254-0.4318 0.635-0.7874 0.3937-0.3683 0.9652-0.5842t1.3716-0.2159zm10.007 0 0.0508 0.3302-3.9624 5.08 0.1778-0.4318h4.0386q0.5207 0 0.6604-0.127t0.1905-0.4445h0.2667q0 0.762 0.0127 1.1938 0.0127 0.4191 0.0381 0.7493-0.0889-0.0254-0.3302-0.0254-0.2413-0.0127-0.5715-0.0254t-0.6731-0.0127q-0.3302 0-0.6223 0h-4.0132v-0.2667zm0.2032 0v8.5344h-1.4732v-6.7437l1.27-1.7907z" style="font-variation-settings:'wght' 700"/></g></g></svg>