<?xml version="1.0" encoding="UTF-8"?><svg width="600" height="400" version="1.1" viewBox="0 0 600 400" xml:space="preserve" xmlns="http://www.w3.org/2000/svg" xmlns:xlink="http://www.w3.org/1999/xlink"><defs><linearGradient id="linearGradient23"><stop stop-color="#00f" offset="0"/><stop stop-color="#00f" stop-opacity="0" offset="1"/></linearGradient><linearGradient id="linearGradient8"><stop stop-color="#b01b5b" offset=".20747"/><stop stop-color="#ffda29" stop-opacity=".49804" offset=".71224"/><stop stop-color="#ececec" offset=".91688"/><stop stop-color="#080104" stop-opacity=".12157" offset="1"/><stop stop-color="#b01b5b" stop-opacity="0" offset="1"/></linearGradient><linearGradient id="linearGradient9" x1="859.48" x2="860.03" y1="299.79" y2="428.92" gradientUnits="userSpaceOnUse" xlink:href="#linearGradient8"/><linearGradient id="linearGradient15" x1="848.27" x2="845.75" y1="202.99" y2="236.71" gradientUnits="userSpaceOnUse" xlink:href="#linearGradient8"/><linearGradient id="linearGradient17" x1="402.9" x2="560.78" y1="183.02" y2="363.38" gradientUnits="userSpaceOnUse" spreadMethod="repeat" xlink:href="#linearGradient8"/><linearGradient id="linearGradient19" x1="243.34" x2="211.3" y1="241.35" y2="405.7" gradientUnits="userSpaceOnUse" xlink:href="#linearGradient8"/><radialGradient id="radialGradient24" cx="167.02" cy="149.41" r="165.95" gradientTransform="matrix(1 0 0 .89389 409.8 146.05)" gradientUnits="userSpaceOnUse" xlink:href="#linearGradient23"/><radialGradient id="radialGradient24-3" cx="167.02" cy="149.41" r="165.95" gradientTransform="matrix(1.7685,0,0,1.0611,7.2984,20.773)" gradientUnits="userSpaceOnUse" xlink:href="#linearGradient23"/><radialGradient id="radialGradient24-3-6" cx="167.02" cy="149.41" r="165.95" gradientTransform="matrix(1.5241,0,0,1.8199,571.93,37.765)" gradientUnits="userSpaceOnUse" xlink:href="#linearGradient23"/><linearGradient id="linearGradient19-7" x1="243.34" x2="211.3" y1="241.35" y2="405.7" gradientTransform="translate(-9.1539e-6,-678.36)" gradientUnits="userSpaceOnUse" xlink:href="#linearGradient8"/><linearGradient id="linearGradient32" x1="298.24" x2="283.03" y1="488.77" y2="60.993" gradientTransform="matrix(.81247 0 0 1.0246 57.074 -6.8014)" gradientUnits="userSpaceOnUse"><stop offset="0"/><stop stop-opacity="0" offset="1"/></linearGradient></defs><g transform="matrix(.55513 0 0 .6597 -.086399 .062309)" fill-rule="evenodd" stroke-linecap="round" stroke-miterlimit="3.7"><path d="m-0.19421 0.1831h1082.3v608.25h-1082.3z" stroke-width="6.8405"/><path d="m410.87 131.26h331.9v296.68h-331.9z" fill="url(#radialGradient24)" stroke-width="2.8761"/><path d="m9.1858 3.2213h586.96v352.17h-586.96z" fill="url(#radialGradient24-3)" opacity=".44828" stroke-width="4.1672"/><path d="m573.56 7.6601h505.85v604.03h-505.85z" fill="url(#radialGradient24-3-6)" opacity=".44828" stroke-width="5.0664"/><path d="m107.22 319.71q-4.2068 0-7.7125-2.0032t-5.6091-5.5089q-2.1034-3.5558-2.1034-8.1131v-43.47q0-4.8078 2.0533-8.4136 2.1034-3.6559 5.6091-5.6592 3.5057-2.0533 7.7626-2.0533 4.357 0 7.8126 2.0533 3.5057 2.0533 5.5089 5.7092 2.0533 3.6058 2.0533 8.3635v38.763h-7.2117l-0.85137-2.7044q-1.5525 3.3054-4.6575 3.3054-3.3554 0-4.9079-2.454t-1.5525-5.9596v-23.738q0-3.4055 1.5525-5.8595t4.9079-2.454q1.8029 0 2.9548 1.0517 1.202 1.0016 1.7028 2.2536v-2.2036q0-3.5057-2.0533-5.6091t-5.2585-2.1034-5.3086 2.2036q-2.0533 2.2036-2.0533 5.5089v43.47q0 3.3554 2.1034 5.4588 2.1034 2.0533 5.2585 2.0533 2.7044 0 4.307-0.8013 1.6026-0.80129 2.5541-2.3037l6.2601 4.2068q-1.7028 2.7044-4.7577 4.8579t-8.3635 2.1535zm5.3086-26.242q2.0032 0 2.0032-2.6042v-22.236q0-2.6042-2.0032-2.6042-1.9532 0-1.9532 2.6042v22.236q0 2.6042 1.9532 2.6042zm33.802 45.073q-3.4556 0-5.9596-1.4023-2.454-1.4023-3.8062-3.706t-1.3522-5.0081q0-2.4039 0.85138-4.2569 0.90146-1.8029 2.2036-3.105 1.3522-1.252 2.6543-1.9532-2.0032-1.0016-3.105-2.3538t-1.1018-3.9564q0-2.2536 1.252-4.2569 1.3021-2.0533 2.8546-3.4556-1.5024-1.202-2.6543-3.3054-1.1519-2.1535-1.1519-7.1115v-18.43q0-5.8595 2.4039-9.3652 2.454-3.5558 6.7108-3.5558 2.2536 0 3.7561 0.90146 1.5525 0.85138 2.454 2.504 1.3021-1.5024 2.8045-2.454t3.5057-0.95154v9.0146q-1.4023 0-2.3538 0.35057-0.95153 0.30049-1.3522 0.85138 0.15024 0.30048 0.2504 1.1519 0.15025 0.8013 0.15025 1.252v19.031q0 5.1083-2.3538 8.5638t-6.3603 3.4556q-1.0016 0-1.5024-0.25041-0.20032 0.35057-0.40065 0.95154-0.20032 0.55089-0.20032 1.3021 0 1.853 1.3522 2.6042 1.4023 0.75121 3.2553 1.2019 4.0065 1.0016 6.7609 3.4556 2.7544 2.4039 2.7544 7.7626 0 3.6559-1.4023 6.9613-1.3522 3.3554-4.1066 5.4588-2.7044 2.1034-6.811 2.1034zm0.10016-8.5138q1.6527 0 2.6543-1.202 1.0517-1.1519 1.0517-3.0049 0-2.2036-0.85138-3.2052-0.85137-0.95154-1.853-1.252l-2.4039-0.75121q-0.65105 0.75121-1.2019 2.2036-0.50081 1.4524-0.50081 3.4055 0 1.5525 0.70113 2.6543 0.75121 1.1519 2.4039 1.1519zm-0.20033-31.451q1.0517 0 1.202-1.4524 0.20032-1.5024 0.20032-2.9548v-17.528q0-1.6527-0.20032-3.0549-0.15025-1.4524-1.202-1.4524t-1.252 1.4524q-0.15024 1.4023-0.15024 3.0549v17.528q0 1.4023 0.15024 2.9047 0.20032 1.5024 1.252 1.5024zm25.539 20.333v-73.619h7.9128v73.619zm28.243 0.8013q-3.2052 0-4.958-4.357t-1.7528-10.667q0-5.7092 1.9532-10.166 2.0032-4.4572 6.16-8.063 1.0016-0.85138 2.0032-1.9532 1.0016-1.1519 1.2019-1.9532v-5.9096q0-1.3021-0.20032-2.9548-0.15025-1.6527-1.1018-1.6527-1.0016 0-1.2019 1.7528-0.20032 1.7028-0.20032 2.8546v3.6058h-7.6123v-3.8062q0-3.055 0.95154-6.0598 0.95154-3.0549 3.0049-5.0582t5.3587-2.0032q3.0549 0 4.9079 2.0533 1.853 2.0032 2.6543 4.9079 0.85138 2.9047 0.85138 5.4588v35.658q0 2.7545 0.15024 4.6575 0.15024 1.853 0.35057 2.8546h-6.7109q-0.15024-0.2504-0.55089-1.252-0.40064-1.0517-0.40064-2.0533h-0.25041q-0.60097 1.5525-1.7028 2.8546-1.1018 1.252-2.9047 1.252zm2.6543-9.5154q1.0016 0 1.4023-1.1519 0.45073-1.1519 0.45073-2.5541v-12.721q-1.3522 1.7028-2.454 4.6074-1.0517 2.9047-1.0517 6.21 0 2.3037 0.35057 3.9564 0.35056 1.6527 1.3021 1.6527zm32.6 9.5154q-3.2052 0-5.0582-1.5525-1.8029-1.5525-2.7044-4.0065-0.85137-2.504-1.1018-5.4588-0.2504-2.9548-0.2504-5.7092h7.2117q0 3.3554 0.40065 5.8595 0.45073 2.454 1.5024 2.454t1.3021-1.6527q0.30049-1.7028 0.30049-4.4572 0-2.6543-1.3021-5.4588-1.252-2.8045-3.0549-5.8094-2.3037-3.9063-4.0065-8.063-1.6527-4.2068-1.6527-9.5154 0-5.2585 2.2036-9.1147 2.2036-3.9063 6.7109-3.9063 3.105 0 4.8579 1.5525 1.8029 1.5024 2.6042 3.8562 0.85137 2.3037 1.1018 4.8579 0.2504 2.504 0.2504 4.5574h-6.811q0-2.8045-0.30049-4.6074-0.30048-1.8029-1.4524-1.8029-0.90145 0-1.3522 1.7028-0.40065 1.6527-0.40065 4.0065 0 3.2052 1.1018 6.0598 1.1519 2.8546 2.504 4.958 2.1034 3.3053 4.307 7.8126t2.2036 10.217q0 1.7528-0.35057 4.0065-0.35056 2.2536-1.3021 4.357-0.90146 2.1034-2.7044 3.5057-1.8029 1.3522-4.7577 1.3522zm34.703 0q-3.1551 0-5.1583-1.853t-2.9548-5.5089q-0.95154-3.6559-0.95154-9.0647v-30.049h-4.2068v-9.1147h4.2068v-13.522h8.3134v13.522h5.7092v9.1147h-5.7092v30.499q0 3.2052 0.50081 4.7577 0.55089 1.5024 2.3538 1.5024 0.75122 0 1.3522-0.15025 0.60097-0.15024 0.95154-0.35056v9.265q-0.8013 0.40065-1.7528 0.65105-0.95154 0.30049-2.6543 0.30049zm26.841-0.10016q-4.8579 0-7.0614-3.706-2.2036-3.706-2.2036-9.4152v-30.049q0-5.7092 2.2036-9.4152t7.0614-3.706q4.9079 0 7.0614 3.706 2.2036 3.706 2.2036 9.4152v30.049q0 5.7092-2.2036 9.4152-2.1535 3.706-7.0614 3.706zm0.0501-8.8143q1.1018 0 1.4023-1.1519 0.30049-1.2019 0.30049-3.4556v-29.448q0-2.2536-0.30049-3.4055-0.30048-1.2019-1.4023-1.2019-1.1018 0-1.4524 1.2019-0.35057 1.1519-0.35057 3.4055v29.448q0 2.2536 0.35057 3.4556 0.35056 1.1519 1.4524 1.1519zm24.186 8.1131v-45.674h-2.8546v-9.1147h2.8546v-5.7092q0-6.9112 2.1034-10.217t5.7092-3.3054q1.0016 0 2.1535 0.25041 1.1519 0.20032 2.0533 0.75121v8.3134q-0.8013-0.50081-1.6527-0.50081-1.4524 0-2.0032 1.4023-0.55089 1.3522-0.55089 3.706v5.3086h3.6058v9.1147h-3.6058v45.674zm33.852 0.8013q-4.8579 0-7.0614-3.5558-2.1535-3.5558-2.1535-9.6156v-29.498q0-5.6592 2.1535-9.6656 2.2036-4.0566 7.0614-4.0566 3.2553 0 5.3086 1.9031 2.1034 1.9031 3.105 5.0582 1.0016 3.105 1.0016 6.7609v16.326h-10.918v13.422q0 1.853 0.2504 2.9548 0.30049 1.0517 1.3522 1.0517 1.1018 0 1.4524-1.1018 0.35056-1.1018 0.35056-2.9548v-7.4621h7.5122v7.412q0 6.0598-2.2536 9.5655-2.2536 3.4556-7.1616 3.4556zm-1.5024-34.255h3.4055v-9.2149q0-2.0533-0.2504-3.0549-0.25041-1.0517-1.5525-1.0517-0.95154 0-1.3021 1.1018-0.30048 1.0517-0.30048 3.0049zm32.75 34.255q-3.2052 0-5.0582-1.5525-1.8029-1.5525-2.7044-4.0065-0.85138-2.504-1.1018-5.4588-0.25041-2.9548-0.25041-5.7092h7.2117q0 3.3554 0.40064 5.8595 0.45073 2.454 1.5024 2.454 1.0517 0 1.3021-1.6527 0.30049-1.7028 0.30049-4.4572 0-2.6543-1.3021-5.4588-1.252-2.8045-3.0549-5.8094-2.3037-3.9063-4.0065-8.063-1.6527-4.2068-1.6527-9.5154 0-5.2585 2.2036-9.1147 2.2036-3.9063 6.7108-3.9063 3.105 0 4.8579 1.5525 1.8029 1.5024 2.6042 3.8562 0.85138 2.3037 1.1018 4.8579 0.2504 2.504 0.2504 4.5574h-6.811q0-2.8045-0.30048-4.6074-0.30049-1.8029-1.4524-1.8029-0.90146 0-1.3522 1.7028-0.40065 1.6527-0.40065 4.0065 0 3.2052 1.1018 6.0598 1.1519 2.8546 2.504 4.958 2.1034 3.3053 4.307 7.8126t2.2036 10.217q0 1.7528-0.35057 4.0065-0.35057 2.2536-1.3021 4.357-0.90145 2.1034-2.7044 3.5057-1.8029 1.3522-4.7577 1.3522zm34.703 0q-3.1551 0-5.1583-1.853t-2.9548-5.5089q-0.95154-3.6559-0.95154-9.0647v-30.049h-4.2068v-9.1147h4.2068v-13.522h8.3134v13.522h5.7092v9.1147h-5.7092v30.499q0 3.2052 0.50081 4.7577 0.55089 1.5024 2.3538 1.5024 0.75122 0 1.3522-0.15025 0.60097-0.15024 0.95154-0.35056v9.265q-0.8013 0.40065-1.7528 0.65105-0.95154 0.30049-2.6543 0.30049z" fill="url(#linearGradient19)" stroke="#fff" stroke-width="1.151" aria-label="@glastofest"/><path transform="scale(1,-1)" d="m109.7-362.19c-2.955 0.19977-5.6253-0.29821-8.1276-1.389-2.4865-1.0839-4.5695-2.6193-6.232-4.5246-1.6651-1.9354-2.6918-4.1653-2.9504-6.7865-1.1963-12.128-2.2863-26.553 9.1864-55.53 2.5772-6.5092 6.3599-13.211 11.068-19.708 4.7945-6.5946 10.01-12.473 15.175-17.084 5.2414-4.7285 9.8441-7.6485 13.589-8.5337 3.8503-0.91005 6.0138 0.41103 6.7924 3.6932 0.821 3.2693 0.23093 8.0358-1.2853 13.856-1.424 5.7025-3.8053 12.099-6.7254 18.727-11.763 26.701-13.45 42.583-13.846 55.519-2.6497 0.32012-5.3063 0.65466-7.9698 1.004-0.30571-0.86015-0.60746-1.7271-0.9023-2.6031-1.2071 2.4075-2.9076 3.7005-5.208 4.0161-2.4725 0.3392-4.3322-0.18451-5.5097-1.5919-1.1791-1.4093-1.7891-3.2725-1.7041-5.7034 0.28657-8.1985 1.6589-18.13 6.1838-31.766 1.3048-3.9324 3.332-7.7838 5.9404-11.361 2.6066-3.5746 5.46-5.8512 8.2631-6.4909 1.5113-0.34487 2.4032 0.13317 2.7359 1.3841 0.40307 1.1693 0.46165 2.5495 0.2034 4.1116 0.58938-1.4519 1.2112-2.9409 1.8673-4.4685 2.0918-4.8704 3.249-8.9461 3.1178-11.877-0.13166-2.9398-1.4484-4.1939-4.2108-3.536-2.7443 0.65356-5.9455 3.0585-9.3763 6.9737-3.37 3.8841-6.0823 8.2258-7.9271 12.745-11.943 29.253-11.335 44.278-10.532 56.958 0.12813 2.022 1.0157 3.5673 2.6006 4.6799 1.5866 1.0844 3.4947 1.5402 5.7555 1.3173 1.9402-0.19133 3.4726-0.59208 4.6156-1.2196 1.141-0.62643 2.0483-1.4591 2.7217-2.4987 2.2736 1.1267 4.5114 2.3026 6.7104 3.5379-1.2408 1.9178-2.9634 3.6992-5.1562 5.3308-2.2039 1.6399-5.1392 2.5674-8.8641 2.8192zm5.6341-26.35c1.5123-0.23304 2.293-1.2522 2.4362-3.158 0.6088-8.1028 2.2424-17.751 6.5846-30.508 1.0282-3.0207 0.84975-4.4728-0.79976-4.1177-1.5853 0.34127-3.0047 2.1347-4.0071 5.1353-4.2372 12.683-5.7675 22.228-6.2798 30.219-0.1201 1.8732 0.60466 2.6546 2.0659 2.4294zm30.737 49.396c-2.3088-2e-3 -4.1001-0.74571-5.4572-2.1711-1.3197-1.4214-2.1987-3.2506-2.691-5.4042-0.49182-2.1516-0.55858-4.392-0.20581-6.7001 0.31388-2.0537 0.83072-3.7945 1.5964-5.2978 0.79387-1.4617 1.6837-2.6986 2.6873-3.7389 1.0333-1.0021 2.0254-1.7849 2.9787-2.3561-1.3162-0.6973-2.321-1.5241-3.0136-2.4759-0.69212-0.95114-0.98046-2.366-0.87494-4.2146 0.0914-1.6018 0.60627-3.1241 1.5677-4.5976 0.99838-1.5108 2.0814-2.807 3.2496-3.8897-1.0239-0.76137-1.9178-1.8491-2.6598-3.2612-0.73025-1.4288-1.0276-3.947-0.67529-7.6137 0.65853-6.8533 1.8615-14.503 4.5102-23.762 1.6925-5.9163 4.5764-11.471 8.1788-16.079 3.6582-4.6661 7.4287-7.5161 10.771-7.9838 1.7737-0.2482 2.966 0.1587 3.6227 1.185 0.72451 0.95556 0.97135 2.4498 0.81823 4.4182 1.7786-1.9924 3.549-3.7053 5.2633-5.0884 1.7178-1.386 3.365-2.182 4.9113-2.3551-2.7496 6.0073-4.9663 11.472-6.7685 16.483-1.0616 0.11606-2.0239 0.41183-2.8828 0.8811-0.83876 0.41369-1.5155 0.94092-2.0234 1.5735 3e-3 0.31452-0.11488 0.9231-0.33688 1.82-0.16631 0.83844-0.31606 1.48-0.46381 1.9488-3.0925 9.8114-4.6233 17.975-5.5712 25.325-0.51214 3.9712-1.6373 7.182-3.5367 9.8418-1.8904 2.6471-4.2265 4.0337-7.0723 4.2326-0.71124 0.0497-1.2393-2e-3 -1.5837-0.15536-0.15879 0.26095-0.32317 0.61115-0.493 1.0506-0.16756 0.40375-0.2682 0.87353-0.30303 1.4111-0.0858 1.3249 0.32847 2.233 1.2398 2.7202 0.947 0.4854 2.0558 0.85988 3.3267 1.1214 2.7429 0.58469 4.9966 1.7554 6.7069 3.5482 1.7091 1.7492 2.3344 4.732 1.6575 9.1708-0.46498 3.0491-1.4814 6.1108-3.0352 9.1808-1.5284 3.1146-3.512 5.822-5.8491 7.964-2.3166 2.1541-4.8484 3.2709-7.5889 3.2689zm2.7166-12.39c1.1194-0.0174 2.1154-0.57259 2.9816-1.6477 0.89021-1.0286 1.4698-2.3457 1.7102-3.9083 0.28519-1.854 0.16779-3.1495-0.31029-3.9367-0.48369-0.74748-1.0629-1.2222-1.7233-1.4354-0.79217-0.26803-1.5868-0.53258-2.3838-0.79361-0.51506 0.60221-1.0264 1.4776-1.5488 2.6491-0.48886 1.1725-0.83999 2.5534-1.0815 4.1903-0.19187 1.3004-0.13608 2.4377 0.17769 3.3934 0.34111 1.0009 1.0576 1.5063 2.1783 1.4888zm3.4667-35.999c0.76177-0.0686 1.2426-0.64229 1.461-1.7397 0.25872-1.1391 0.45555-2.2685 0.59106-3.3883 0.8139-6.7254 2.1506-14.179 4.7801-23.034 0.49754-1.6756 0.92888-3.269 1.2756-4.7581 0.40431-1.5535 0.23544-2.3043-0.57749-2.1949-0.8065 0.10852-1.5764 0.98521-2.2438 2.5707-0.60945 1.5221-1.1661 3.1266-1.6556 4.7976-2.5861 8.8269-3.8802 16.242-4.6536 22.926-0.1244 1.075-0.18489 2.1653-0.1835 3.2752 0.0377 1.1039 0.44724 1.6144 1.2063 1.546zm24.674 21.4c3.604-25.874 0.26072-52.535 43.381-119.26 3.0949-0.1911 6.1674-0.34899 9.2178-0.47498-43.481 66.257-40.586 93.386-44.464 119.56-2.7076 0.0515-5.419 0.10967-8.1342 0.17477zm28.762 0.55024c-2.183 0.0142-3.5376-1.7948-4.2176-5.2739-0.67144-3.4356-0.7347-7.6423-0.0615-12.5 0.61614-4.4465 1.8982-8.4564 3.9517-12.177 2.0789-3.7046 5.0056-7.2441 8.7662-10.576 0.90161-0.78657 1.8405-1.6932 2.8273-2.7298 0.99977-1.0831 1.6897-2.0122 2.0568-2.7767 0.83182-2.8042 1.7847-5.7316 2.8889-8.8038 0.48962-1.3623 0.99428-2.9098 1.5615-4.7199 0.60253-1.8095 0.60615-2.7366-0.0791-2.719-0.71267 0.0183-1.5614 1.024-2.4515 2.9485-0.8625 1.8559-1.4906 3.3768-1.9166 4.5693-0.66986 1.8756-1.2832 3.6964-1.847 5.4673-2.7004 0.0805-5.4123 0.17728-8.1358 0.29117 0.58193-1.8674 1.2191-3.7915 1.9196-5.7783 1.1247-3.1898 2.7469-6.5329 4.902-10.048 2.1804-3.5751 4.7074-6.7435 7.4188-9.3387 2.7109-2.5947 5.3482-3.9888 7.7352-4.0314 2.2196-0.0396 3.2573 1.3064 3.3173 3.8985 0.0907 2.5195-0.38171 5.5155-1.2761 8.8696-0.85987 3.3576-1.7511 6.3276-2.7636 9.0259-6.8836 18.345-8.6173 32.554-10.72 46.249-0.33358 2.1723-0.58267 4.0674-0.734 5.6003-0.14586 1.5045-0.23032 2.6815-0.24067 3.5123-2.2701 7.5e-4 -4.5429 5e-3 -6.8184 0.0144-0.0672-0.20909-0.16389-0.72155-0.30061-1.543-0.12948-0.85973-0.13155-1.6921-4e-3 -2.5003-0.0852 5.5e-4 -0.17043 1e-3 -0.25565 2e-3 -0.60676 1.2551-1.3751 2.4221-2.3024 3.498-0.92168 1.036-1.9962 1.5628-3.2205 1.5707zm4.493-11.501c0.68619-8e-3 1.2322-0.46678 1.6386-1.3747 0.4406-0.90818 0.74076-1.9109 0.90182-3.01 0.72591-4.9539 1.4932-10.006 2.5332-15.262-1.2222 1.4362-2.4315 3.3474-3.5887 5.6944-1.1235 2.3486-1.8601 4.7991-2.2385 7.3885-0.26304 1.8002-0.36176 3.3493-0.30623 4.6368 0.0556 1.2907 0.40812 1.935 1.0599 1.9272zm31.2 11.584c-2.1534-0.0229-3.7227-0.68933-4.7374-1.9852-0.97882-1.2927-1.6021-2.9421-1.8784-4.9229-0.23546-2.0188-0.25815-4.2015-0.0534-6.5378 0.2054-2.3438 0.47972-4.5891 0.84684-6.7807 2.4518 0.01 4.8978 0.0273 7.3379 0.0521-0.45355 2.6539-0.69448 4.9903-0.74832 6.9665-0.0139 1.9485 0.33024 2.933 1.0382 2.9411 0.70809 8e-3 1.2559-0.64552 1.6408-1.9553 0.42727-1.3558 0.81284-3.1032 1.179-5.2898 0.35201-2.1022 0.28443-4.2729-0.18362-6.5385-0.43548-2.2722-1.0092-4.6327-1.6991-7.1585-0.86544-3.2675-1.4103-6.7573-1.5225-10.527-0.065-3.8035 0.76731-8.3497 2.8439-13.829 2.0687-5.4588 5.1143-10.623 8.8966-15.24 3.8384-4.7101 7.5651-7.1819 10.657-7.0514 2.1433 0.0904 3.2489 1.1712 3.4449 3.1587 0.2621 1.9234-0.0408 4.3013-0.79661 7.0547-0.69284 2.6917-1.541 5.4206-2.5188 8.156-0.981 2.7541-1.7508 4.9504-2.5317 7.0699-2.3024-0.0766-4.6143-0.14298-6.9357-0.19868 1.0296-2.8194 1.8953-5.2337 2.5017-7.187s0.56697-2.9756-0.22779-2.9984c-0.61441-0.0176-1.5045 0.92111-2.5839 2.76-1.0186 1.7788-2.0048 3.8953-2.8919 6.2856-1.2066 3.2514-1.8009 6.1866-1.8656 8.8566-0.0306 2.6625 0.21626 4.9109 0.65122 6.7635 0.64341 2.7997 1.3781 6.3966 2.088 9.9855 0.73232 3.7025 0.75114 7.8119-3e-3 12.302-0.23246 1.3834-0.61395 2.9682-1.1484 4.7516-0.53531 1.7864-1.267 3.5192-2.2027 5.2097-0.90185 1.6903-2.0692 3.1134-3.4934 4.2571-1.4181 1.1035-3.12 1.651-5.1033 1.6299zm34.731 0.61218c-2.0967-0.0504-3.6516-0.8547-4.7007-2.3993-1.0454-1.5392-1.624-3.7966-1.7562-6.7104-0.13087-2.8851 0.13878-6.5142 0.88319-10.739 2.0532-11.653 4.6969-24.275 11.478-39.969-1.3932-0.0866-2.7904-0.16956-4.1914-0.24872 2.082-4.8379 4.5774-10.028 7.6049-15.637 1.4 0.10559 2.7955 0.21549 4.1863 0.32955 4.4843-8.2666 10.174-17.51 17.484-27.942 2.739 0.34641 5.4561 0.71198 8.1513 1.0953-7.2952 10.28-12.971 19.402-17.443 27.571 1.8631 0.17628 3.7177 0.35965 5.564 0.54972-3.0091 5.464-5.4875 10.531-7.5541 15.266-1.8555-0.14853-3.7181-0.29117-5.5879-0.42758-6.8578 15.767-9.4667 28.469-11.521 40.225-0.43756 2.5043-0.58287 4.3848-0.45751 5.6036 0.16596 1.1889 0.84498 1.803 2.0369 1.8425 0.49658 0.0165 0.95324-0.0274 1.37-0.13145 0.4168-0.10409 0.75402-0.23034 1.0118-0.37888-0.61284 3.641-1.228 7.2509-1.9515 11.044-0.59292 0.3123-1.2248 0.56352-1.8952 0.75281-0.67849 0.23038-1.5823 0.33227-2.712 0.30509zm26.615 0.62945c-3.2031-0.10294-5.2237-1.6703-6.1594-4.6552-0.92801-2.9603-1.0542-6.6817-0.32906-11.063 1.8831-11.378 4.0057-23.424 9.7666-37.878 2.2237-5.5793 5.3326-10.545 8.8895-14.538 3.5818-4.0214 7.1094-5.9442 10.131-5.5363 3.0926 0.41749 3.9281 2.916 3.1409 7.1614-0.74805 4.2051-2.4247 9.2126-4.567 14.613-5.5797 14.066-7.5352 25.885-9.2731 37.057-0.67393 4.3324-1.9279 7.8553-3.8692 10.698-1.8996 2.831-4.5048 4.2446-7.7307 4.1409zm1.8341-10.344c0.71953 0.0313 1.2485-0.39135 1.5854-1.2646 0.34421-0.9147 0.64937-2.2242 0.92618-3.9477 1.7739-11.045 3.7966-22.734 9.2737-36.629 0.85442-2.1677 1.4793-3.8492 1.7993-5.035 0.34005-1.2289 0.187-1.894-0.50974-1.969-0.69261-0.0746-1.4373 0.49466-2.1918 1.6868-0.7273 1.1337-1.5735 2.8327-2.4275 4.9973-5.5106 13.967-7.5643 25.698-9.3652 36.782-0.28015 1.7241-0.37834 3.0594-0.29859 3.9902 0.0862 0.89518 0.48848 1.3587 1.2082 1.39zm22.118 10.36c2.8416-16.675 3.521-33.818 12.714-54.911-0.87058-0.11052-1.7429-0.22027-2.617-0.3292 1.9334-4.4276 4.2727-9.1437 7.137-14.203 0.86035 0.13445 1.7187 0.26983 2.5749 0.40609 1.7858-3.1519 3.7811-6.4432 6.0167-9.887 5.4176-8.3453 11.445-15.278 16.358-19.639 4.9725-4.4141 8.733-6.4372 10.765-5.8792 0.56738 0.15579 1.0182 0.50749 1.3592 1.0514 0.40284 0.47114 0.51809 1.1747 0.36447 2.1021-4.9779 5.9457-9.2834 11.506-13.018 16.719-0.01-0.73013-0.25166-1.1533-0.74256-1.2616-0.83329-0.1838-2.0686 0.58476-3.6203 2.2732-1.4976 1.6149-3.234 3.8736-5.0252 6.6453-2.0214 3.1281-3.8376 6.1291-5.4732 9.0131 1.0675 0.17772 2.1317 0.35662 3.1927 0.53661-2.7858 4.9122-5.049 9.4992-6.9089 13.812-1.0821-0.14654-2.1669-0.29213-3.2546-0.43667-9.0018 20.794-9.495 37.789-12.194 54.287 0.0988 4e-3 -7.7274-0.30401-7.6286-0.30006zm32.79 2.2432c-3.1464-0.13089-5.2168-1.549-6.3005-4.2337-1.0411-2.657-1.3295-6.2215-0.8387-10.556 1.1809-10.428 2.4924-21.423 7.1839-34.215 1.828-4.9841 4.5627-9.4856 7.8618-13.274 3.3794-3.8624 6.6959-5.6244 9.4245-5.107 1.8489 0.35058 2.7382 1.6254 2.8643 3.7432 0.15408 2.119-0.24487 4.73-1.0056 7.7437-0.73556 2.951-1.6695 6.0197-2.7382 9.106-2.3899 6.9015-3.7082 13.203-4.5585 19.139-3.3086-0.31024-6.6334-0.6192-9.9745-0.92523-0.80288 4.9532-1.306 9.7901-1.7855 14.532-0.13313 1.3166-0.16002 2.3762-0.0815 3.1697 0.11411 0.76142 0.50412 1.1614 1.1717 1.2004 0.69903 0.0407 1.1988-0.32493 1.4965-1.0934 0.29821-0.7699 0.50727-1.8065 0.63251-3.119 0.25109-2.6314 0.50947-5.2898 0.81942-7.9572 2.323 0.18617 4.6395 0.37335 6.9494 0.56106-0.26828 2.6185-0.48617 5.229-0.69773 7.8127-0.34798 4.2499-1.3314 7.5402-3.0584 10.007-1.7097 2.4119-4.1986 3.5964-7.3649 3.4647zm3.7465-37.661c1.0231 0.11272 2.0444 0.22577 3.0637 0.3391 0.86746-3.6204 1.98-7.4081 3.4505-11.409 0.66008-1.7961 1.137-3.1546 1.37-4.0915 0.24949-0.97302 0.0159-1.5253-0.74014-1.6403-0.54969-0.0836-1.1532 0.36691-1.7758 1.3397-0.57068 0.92546-1.2131 2.274-1.8463 3.9801-1.495 4.0283-2.6314 7.8401-3.5219 11.482zm26.355 38.932c-2.0522-0.0868-3.6148-0.70197-4.7074-1.8478-1.0589-1.1424-1.8075-2.5864-2.2621-4.3178-0.41988-1.7616-0.65464-3.6672-0.69751-5.7011-0.043-2.0407-0.015-3.9935 0.10147-5.8923 2.2182 0.16582 4.4311 0.33143 6.6386 0.49644-0.10102 2.2704-0.0489 4.2834 0.13247 5.9868 0.21505 1.6827 0.64787 2.5445 1.3067 2.5832 0.65802 0.0386 1.0873-0.49879 1.2808-1.6058 0.22732-1.1468 0.36225-2.6273 0.42113-4.4919 0.0566-1.7915-0.28025-3.6613-0.97078-5.6421-0.66396-1.9897-1.4407-4.0491-2.3134-6.2789-1.1024-2.8755-1.8966-5.921-2.2823-9.1549-0.34802-3.2573 0.0721-7.0578 1.5577-11.452 1.4803-4.3789 3.8528-8.3377 6.8267-11.701 3.0198-3.4361 5.962-4.9741 8.3492-4.4934 1.6626 0.33477 2.5143 1.3407 2.6918 2.969 0.22825 1.5843 0.0455 3.4697-0.44772 5.6164-0.44529 2.1012-0.98192 4.2325-1.593 6.361-0.5685 1.9895-1.1115 4.0285-1.5274 5.5398-1.9008-0.26089-3.8103-0.52363-5.7284-0.78767 0.64851-2.2418 1.213-4.1433 1.6058-5.6904 0.3922-1.5446 0.32294-2.3875-0.31754-2.4911-0.49275-0.0797-1.1772 0.5961-1.9702 2.0032-0.74614 1.3635-1.4462 3.0188-2.0313 4.9222-0.79625 2.5902-1.0771 4.9981-0.90248 7.2379 0.20273 2.2362 0.63578 4.1562 1.2065 5.7551 0.88897 2.524 1.8785 5.4034 3.0219 8.6061 1.1358 3.1813 1.7618 6.6897 1.7198 10.467-0.0129 1.1645-0.13464 2.4973-0.37706 3.9875-0.24306 1.4942-0.68325 2.933-1.3343 4.3284-0.61923 1.3963-1.5366 2.5562-2.7445 3.4743-1.2061 0.88372-2.7649 1.2947-4.653 1.2149zm33.085 1.3608c-1.9994-0.0785-3.6213-0.75833-4.8899-2.041-1.2659-1.28-2.2084-3.1424-2.8637-5.5578-0.6472-2.3852-1.0685-5.4035-1.1865-8.8875-0.32646-9.6377-0.39281-19.913 3.4906-31.804-1.1234-0.171-2.2505-0.3433-3.3811-0.51677 1.2371-3.6798 2.8575-7.5565 4.9831-11.666 1.0835 0.21252 2.1627 0.42371 3.2378 0.63341 3.0785-6.0273 7.2838-12.592 13.045-19.807 1.9725 0.56781 3.9248 1.1287 5.8568 1.6811-5.5989 7.035-9.6482 13.45-12.577 19.351 1.4364 0.27574 2.865 0.54815 4.2859 0.81684-1.9037 3.9226-3.3079 7.6352-4.335 11.169-1.4922-0.2182-2.991-0.43965-4.4964-0.664-3.6242 11.843-3.202 22.116-2.5992 31.764 0.12817 2.0513 0.38351 3.5962 0.75058 4.6032 0.39788 0.98322 1.1475 1.505 2.2519 1.567 0.45954 0.0258 0.86966 9.1e-4 1.2297-0.0743 0.36009-0.0753 0.64197-0.17066 0.84581-0.28617 0.23152 2.959 0.42698 5.9068 0.50734 8.9456-0.49734 0.24175-1.0456 0.43355-1.6434 0.57465-0.59726 0.17403-1.4352 0.24079-2.5115 0.19851z" fill="url(#linearGradient19-7)" stroke="#fff" stroke-width="1.151" aria-label="@glastofest"/></g><g transform="matrix(.54961 0 0 .57677 57.027 21.113)" fill="none" stroke-linecap="round" stroke-miterlimit="3.7"><path d="m440.62 196.62h79.233c12.48 0 24.893 5.0983 33.718 13.923l1e-5 2e-5c8.8246 8.8246 13.923 21.238 13.923 33.718v69.628c0 12.48-5.0983 24.893-13.923 33.718s-21.238 13.923-33.718 13.923h-79.233c-6.9917 0-13.962-1.6002-20.293-4.5593-4.9692-2.3228-9.5438-5.4829-13.425-9.3636-8.8246-8.8246-13.923-21.238-13.923-33.718v-69.628c0-12.48 5.0983-24.893 13.923-33.718s21.238-13.923 33.718-13.923z" stroke="url(#linearGradient17)" stroke-width="7.9056"/><path d="m512.79 279.07c0 17.043-15.507 32.549-32.549 32.549s-32.549-15.507-32.549-32.549c0-17.043 15.507-32.549 32.549-32.549h1e-5c17.043 0 32.549 15.507 32.549 32.549z" stroke="#b01b5b" stroke-width="7.4"/><path d="m535.73 232.65c0 2.2351-2.0336 4.2688-4.2688 4.2688-2.2351 0-4.2688-2.0336-4.2688-4.2688 0-2.2351 2.0336-4.2688 4.2688-4.2688 2.2351 0 4.2688 2.0336 4.2688 4.2688z" stroke="#b01b5b" stroke-width="7.4"/></g><g transform="matrix(.55513 0 0 .6597 -.086399 .062309)" fill-rule="evenodd"><path transform="matrix(2.3745,0,0,1.2273,-1257.8,-163.11)" d="m780.73 246.61 9.7926-50.655 7.87 0.29406-1.5161 7.9182-4.053-0.29099-2.6026 13.526 2.7098 0.35893-1.5098 7.873-2.6968-0.45252-4.3152 22.427zm18.413 5.6304c-1.1077-0.30379-1.8858-1.0763-2.3349-2.3131-0.44989-1.2309-0.66477-2.7167-0.64445-4.4588 0.0346-1.7342 0.22822-3.5292 0.58139-5.388l6.3152-33.238c0.33923-1.7854 0.81116-3.5001 1.4162-5.1471 0.62083-1.6503 1.3691-3.0015 2.245-4.0551 0.88142-1.0844 1.8946-1.6089 3.0389-1.569 1.2206 0.0426 2.0522 0.64125 2.4942 1.8005 0.46114 1.1407 0.65109 2.5806 0.57013 4.3178-0.0662 1.7416-0.27393 3.5407-0.62268 5.3949l-6.4926 34.517c-0.36309 1.9303-0.848 3.725-1.4543 5.381-0.60574 1.652-1.3363 2.9352-2.1914 3.8483-0.83957 0.91117-1.8129 1.2127-2.9206 0.9089zm1.529-7.8425c0.34126 0.0819 0.6053-0.20751 0.79216-0.86832 0.20175-0.65769 0.38295-1.4119 0.54356-2.2622l6.4194-33.989c0.16533-0.87536 0.27146-1.641 0.31836-2.2966 0.0668-0.67914-0.0746-1.0304-0.42391-1.0539-0.33416-0.0225-0.60797 0.28655-0.8214 0.9269-0.21335 0.63986-0.40465 1.407-0.57392 2.3018l-6.3902 33.779c-0.18809 0.99423-0.29401 1.8-0.3178 2.4177-0.0239 0.61812 0.1274 0.96649 0.45383 1.0448zm9.265 10.145 10.736-57.461 3.7977 0.1419-9.3783 50.384 3.8286 0.91451-1.4936 8.0554zm14.094 3.8282 11.192-60.746 3.7977 0.14189-9.7717 53.222 3.8286 0.91451-1.5556 8.5023zm18.221 5.6916c-1.1077-0.30379-1.8722-1.1743-2.2941-2.6071-0.42273-1.4268-0.60253-3.1656-0.53924-5.2176 0.0775-2.0442 0.31669-4.1673 0.71788-6.3725l7.174-39.432c0.38536-2.1181 0.90184-4.1541 1.5499-6.1111 0.6638-1.9602 1.4475-3.5667 2.3512-4.8208 0.90986-1.2895 1.9373-1.9166 3.0816-1.8766 1.2206 0.0426 2.0379 0.7438 2.4515 2.1082 0.43334 1.3412 0.58791 3.0364 0.46397 5.0835-0.10921 2.0515-0.36144 4.172-0.75633 6.3588l-7.3514 40.711c-0.41112 2.2767-0.94152 4.3996-1.5908 6.3655-0.64871 1.9619-1.4143 3.4981-2.2967 4.6072-0.86674 1.1072-1.8537 1.5067-2.9614 1.2029zm1.728-9.2782c0.34126 0.0819 0.61384-0.26904 0.81775-1.0529 0.21882-0.78075 0.41929-1.674 0.60138-2.6793l7.2782-40.183c0.18744-1.0349 0.31284-1.9395 0.37617-2.7136 0.0838-0.80221-0.049-1.215-0.39832-1.2385-0.33415-0.0225-0.61618 0.34581-0.84604 1.1047-0.22978 0.75836-0.44067 1.6668-0.63269 2.7257l-7.249 39.973c-0.21336 1.1765-0.3395 2.1282-0.37846 2.8552-0.039 0.7275 0.10465 1.1306 0.43108 1.2089zm10.987 11.989 9.6518-68.05 3.7291 0.13933-5.7703 35.55-0.33246 2.2432 0.24731 0.0408 0.49025-2.2203 7.5386-35.532 3.2716 0.12224-5.2963 36.277-0.29364 2.295 0.22482 0.0371 0.45142-2.2719 7.0871-36.256 3.7291 0.13933-15.066 70.112-3.3464-0.90896 4.6313-33.068 0.51998-4.0746-0.11271-0.0164-0.90229 4.0123-7.1059 32.34zm31.789 9.4943c-1.1816-0.32405-1.9735-1.2356-2.3765-2.7308-0.39772-1.5238-0.51322-3.4635-0.34629-5.8207 0.16645-2.3538 0.49571-4.9292 0.98811-7.7288l10.572-60.107 3.7977 0.1419-10.668 60.8c-0.25143 1.433-0.40144 2.5523-0.45008 3.3581-0.0339 0.80984 0.0901 1.2488 0.37207 1.3164 0.26707 0.064 0.51416-0.28701 0.74131-1.0535 0.23321-0.80119 0.47298-1.9044 0.71925-3.3092l10.704-61.059 3.7977 0.1419-10.8 61.751c-0.50302 2.8762-1.0792 5.4637-1.7283 7.7599-0.62775 2.2621-1.3805 3.9998-2.258 5.2115-0.86195 1.2104-1.8834 1.6516-3.065 1.3275zm14.576 3.9976c-0.97478-0.26734-1.6505-1.1417-2.0277-2.6195-0.35691-1.5046-0.50736-3.3943-0.45132-5.6695 0.0703-2.2673 0.27641-4.7369 0.61864-7.4105 0.34812-2.7069 0.75553-5.3993 1.2224-8.0785l3.8456-0.54093c-0.10534 0.60574-0.27758 1.6406-0.51673 3.1047-0.23297 1.4286-0.45914 2.9512-0.67854 4.5684-0.21948 1.6177-0.36162 3.0128-0.42643 4.1856-0.065 1.1737 0.0212 1.7896 0.25854 1.847 0.34118 0.0825 0.66078-0.51155 0.95888-1.7826 0.31302-1.2681 0.68732-3.156 1.1228-5.663 0.53506-3.0801 0.90355-6.2675 1.1048-9.5574 0.20649-3.3188 0.22668-7.2498 0.0588-11.78-0.0733-2.2363-0.0785-4.7297-0.0157-7.4796 0.0619-2.7435 0.19833-5.4717 0.40953-8.1864 0.2168-2.7459 0.51556-5.211 0.8967-7.3984 0.34426-1.9757 0.7615-4.0173 1.2519-6.126 0.49057-2.1102 1.0449-4.0576 1.6632-5.8435 0.64012-1.8237 1.3409-3.2913 2.1025-4.4029 0.78351-1.1503 1.6332-1.711 2.5486-1.679 1.0985 0.0383 1.8438 0.69692 2.2353 1.979 0.4124 1.2511 0.58465 2.9138 0.51684 4.9875-0.0683 2.077-0.28858 4.3669-0.66067 6.8679-0.35078 2.4669-0.73956 4.9314-1.1662 7.393l-3.9462 0.93478c0.12443-0.71629 0.28796-1.7019 0.49057-2.9568 0.21774-1.2534 0.41586-2.5266 0.59432-3.8194 0.18464-1.3282 0.30155-2.4435 0.35072-3.3457 0.0705-0.93643 0.0146-1.4104-0.16774-1.4224-0.27347-0.0179-0.57539 0.70233-0.90568 2.1603-0.32401 1.4216-0.68754 3.2916-1.0907 5.6105-0.44655 2.5685-0.74895 5.37-0.90787 8.4091-0.15358 3.0096-0.18693 6.4808-0.10114 10.422 0.11989 4.8133 0.10172 9.183-0.0531 13.099-0.15009 3.8909-0.57404 7.8501-1.2707 11.869-0.32636 1.8828-0.74668 3.9513-1.2608 6.2042-0.4928 2.2187-1.0778 4.3001-1.7547 6.2422-0.6553 1.9061-1.3912 3.4288-2.2075 4.5677-0.80095 1.1384-1.6812 1.5742-2.6412 1.311zm25.12 6.8893c-1.1077-0.30379-1.8457-1.3657-2.2145-3.1813-0.36965-1.8097-0.48095-4.0425-0.33373-6.6999 0.16147-2.6495 0.48949-5.4136 0.98449-8.2954l8.8514-51.53c0.47546-2.768 1.079-5.4316 1.8109-7.9939 0.74773-2.5656 1.6005-4.6706 2.5585-6.3164 0.9654-1.6901 2.0206-2.5175 3.1649-2.4775 1.2206 0.0426 2.0102 0.9441 2.3682 2.7091 0.37903 1.733 0.46447 3.9266 0.25661 6.5791-0.19314 2.6568-0.53239 5.405-1.0174 8.2417l-9.0288 52.81c-0.50493 2.9533-1.1242 5.7171-1.8574 8.2885-0.73264 2.5673-1.5668 4.5976-2.5022 6.0894-0.91982 1.49-1.9333 2.0809-3.041 1.7771zm2.1168-12.082c0.34126 0.0819 0.6305-0.38921 0.86774-1.4134 0.25214-1.0211 0.49026-2.1858 0.71432-3.4938l8.9555-52.281c0.23065-1.3465 0.3937-2.5226 0.48912-3.5282 0.11713-1.0426 1e-3 -1.5755-0.34833-1.5991-0.33416-0.0225-0.63224 0.46153-0.89418 1.4518-0.26188 0.98983-0.51102 2.1742-0.74748 3.5536l-8.9264 52.071c-0.26274 1.5326-0.42837 2.7691-0.49696 3.7098-0.0686 0.94116 0.0602 1.451 0.38665 1.5293zm8.7219 14.062 14.851-87.141 3.4317 0.12822-4.2828 38.337-0.67439 5.327 0.0676 0.0102 7.4062-43.58 3.5232 0.13164-15.148 89.279-3.1027-0.84275 4.0672-38.356 0.91329-6.8626-0.0676-0.0102-7.5724 44.507z" fill="url(#linearGradient15)" stroke="#fff" stroke-linecap="round" stroke-miterlimit="3.7" stroke-width="1.151" aria-label="FOLLOW US ON "/><text fill="#ffffff" font-family="'League Gothic Condensed'" font-size="144px" letter-spacing="7.63px" text-align="center" style="font-variant-caps:normal;font-variant-east-asian:normal;font-variant-ligatures:normal;font-variant-numeric:normal;line-height:113.22%;shape-inside:url(#rect4);white-space:pre" xml:space="preserve"/><path d="m689.12 388.39 28.886-87.624 11.423 3.7656-28.886 87.624zm24.22 7.9842 28.886-87.624 10.322 3.4026-5.8226 40.111-1.0411 5.4724 0.20644 0.068 14.227-43.156 10.597 3.4934-28.886 87.624-9.6338-3.1758c1.6951-13.319 3.3902-26.638 5.0854-39.958 0.49439-2.3483 0.98879-4.6966 1.4832-7.0448l-0.20645-0.0681-14.62 44.348zm52.669 18.42c-3.0278-0.99811-5.2397-2.5424-6.6359-4.6327-1.3372-2.115-2.1043-4.5707-2.3014-7.3672-0.15118-2.7814 0.081-5.7228 0.69649-8.8242 0.6286-3.1411 1.4407-6.2218 2.4363-9.2419l11.619 2.2443c-0.2227 0.67556-0.57965 1.8356-1.0708 3.48-0.4781 1.6047-0.92016 3.3314-1.3262 5.1801-0.40601 1.8487-0.61217 3.477-0.6185 4.8847-6e-3 1.4077 0.35752 2.2326 1.0915 2.4746 1.0551 0.34782 1.9332-0.15575 2.6342-1.5107 0.74685-1.3399 1.5788-3.4006 2.4958-6.1824 1.1266-3.4175 1.7289-7.096 1.8069-11.035 0.0911-3.9792-0.47983-8.8815-1.7128-14.707-0.57715-2.8778-0.98724-6.0309-1.2303-9.4593-0.24302-3.4285-0.25667-6.7813-0.041-10.059 0.22883-3.317 0.74934-6.2074 1.5615-8.6712 0.7336-2.2254 1.6769-4.4697 2.8299-6.7331 1.153-2.2633 2.5223-4.2571 4.1079-5.9813 1.6446-1.7488 3.5252-2.9793 5.6417-3.6914 2.1756-0.73671 4.6396-0.65138 7.3921 0.25599 3.303 1.0888 5.6428 2.6312 7.0193 4.6269 1.4355 1.9712 2.2157 4.233 2.3406 6.7854 0.12492 2.5524-0.17281 5.2299-0.89322 8.0324-0.66142 2.7778-1.4375 5.5179-2.3283 8.2201-3.919-0.76322-7.8379-1.5264-11.757-2.2896 0.26201-0.79477 0.5993-1.8952 1.0119-3.3011 0.4585-1.3909 0.85474-2.8243 1.1887-4.3002 0.34707-1.5157 0.5238-2.8232 0.53018-3.9226 0.0653-1.1239-0.17722-1.7766-0.72772-1.9581-0.82576-0.27222-1.6219 0.36851-2.3884 1.9222-0.75337 1.5139-1.5558 3.5624-2.4073 6.1454-0.94321 2.8612-1.4145 6.1423-1.4139 9.8433 0.0137 3.6613 0.46658 7.996 1.3586 13.004 1.1413 6.1037 1.7975 11.519 1.9686 16.245 0.18426 4.6868-0.45067 9.2356-1.9048 13.647-0.6812 2.0664-1.618 4.2909-2.8103 6.6735-1.1333 2.358-2.5714 4.4832-4.3143 6.3759-1.6839 1.8681-3.6791 3.2149-5.9857 4.0406-2.2607 0.84081-4.882 0.76972-7.8639-0.21327zm35.407 10.615 24.523-74.391-8.3952-2.7675 4.3623-13.233 28.213 9.3006-4.3623 13.233-8.3951-2.7675-24.523 74.391zm24.358 8.0296c12.932-28.119 25.863-56.238 38.795-84.357l13.35 4.4008c-6.3714 30.282-12.743 60.563-19.114 90.845l-11.836-3.9017c1.4604-6.1272 2.9208-12.254 4.3811-18.382l-6.3308-2.087c-2.4696 5.7945-4.9393 11.589-7.4089 17.383zm24.187-25.466 4.6793 1.5425c3.0093-11.674 6.0186-23.349 9.0279-35.023l0.60915-1.8478-0.27525-0.0907-0.60915 1.8479c-4.4773 11.19-8.9546 22.381-13.432 33.571zm31.097 44.748c-3.3948-1.1191-5.6395-2.8724-6.7343-5.2599-1.0817-2.4273-1.4458-5.1026-1.0924-8.0261 0.3534-2.9234 0.96895-5.7164 1.8467-8.3789l17.803-54.005c0.8646-2.6228 2.1617-5.169 3.8914-7.6388 1.7755-2.4546 3.9574-4.2907 6.5458-5.5081s5.6028-1.259 9.0434-0.12483c2.7525 0.90737 4.8039 2.2445 6.1541 4.0113 1.4092 1.7422 2.3172 3.6937 2.7238 5.8544 0.40665 2.1607 0.45288 4.3347 0.13868 6.5221-0.25522 2.1628-0.67104 4.1184-1.2474 5.8669l-4.8339 14.664-11.423-3.7656 4.9911-15.14c0.3275-0.99347 0.55342-2.0645 0.67774-3.2131 0.13742-1.1883-0.29849-1.9488-1.3077-2.2815-0.96338-0.31758-1.7366 0.0223-2.3197 1.0196-0.53719 1.0124-0.97609 2.0353-1.3167 3.0685l-18.471 56.032c-0.4192 1.2716-0.64838 2.4297-0.68753 3.4742 7e-3 1.0596 0.51472 1.7558 1.524 2.0884 1.101 0.36295 1.9758 0.10062 2.6244-0.78699 0.70761-0.91223 1.2514-1.9446 1.6313-3.097l5.3841-16.333-2.4773-0.81664 3.9693-12.041 13.074 4.31-14.384 43.633-5.9179-1.9509-0.17753-3.6272c-1.0418 1.1545-2.4375 1.8399-4.1872 2.0562-1.7038 0.23137-3.5191 0.0295-5.4458-0.60569zm28.526 8.3462 28.886-87.624 10.872 3.5841c5.3674 1.7694 8.6282 5.2234 9.7824 10.362 1.2132 5.1141 0.45082 11.824-2.2871 20.129-1.3755 4.1726-3.0951 7.9233-5.1588 11.252-2.0178 3.344-4.2292 5.655-6.634 6.9329l-6.9719 44.755-11.836-3.9017 7.6903-39.76-0.34407-0.11342-12.576 38.149zm27.339-44.517c1.2386 0.40832 2.3723 0.0551 3.401-1.0597 1.0877-1.1394 2.0868-2.7045 2.9974-4.6953 0.92368-2.0305 1.7523-4.1585 2.4859-6.3839 1.1004-3.3381 1.8142-6.4291 2.1414-9.273s-0.42671-4.5684-2.2617-5.1733zm11.194 57.22 38.795-84.357 13.35 4.4008-19.114 90.845-11.836-3.9017 4.3811-18.382-6.3308-2.087-7.4089 17.383zm24.187-25.466 4.6793 1.5425 9.028-35.023 0.60915-1.8479-0.27526-0.0907-0.60915 1.8478zm20.264 40.12 28.886-87.624 13.694 4.5142-9.0858 41.679-1.5228 5.3136 0.2753 0.0907 1.9356-5.1775 17.481-38.911 13.694 4.5142-28.886 87.624-10.941-3.6068 14.62-44.348-0.2065-0.0681-0.7371 2.0039-17.805 41.051-6.1931-2.0416 9.9603-43.637 0.5993-2.0494-0.2064-0.0681-14.62 44.348z" fill="url(#linearGradient9)" stroke="#fff" stroke-linecap="round" stroke-miterlimit="3.7" stroke-width="1.151" aria-label="INSTAGRAM"/><text fill="#ffffff" font-family="'League Gothic Condensed'" font-size="72px" letter-spacing="7.63px" text-align="center" style="font-variant-caps:normal;font-variant-east-asian:normal;font-variant-ligatures:normal;font-variant-numeric:normal;line-height:113.22%;shape-inside:url(#rect7);white-space:pre" xml:space="preserve"/><path d="m89.183 339.84h360.64v157.38h-360.64z" fill="url(#linearGradient32)" stroke-linecap="round" stroke-miterlimit="3.7" stroke-width="1.1135"/></g></svg>