<svg width="100mm" height="110mm" viewBox="0 0 100 110" xmlns:xlink="http://www.w3.org/1999/xlink" xmlns="http://www.w3.org/2000/svg"><defs><linearGradient xlink:href="#prefix__a" id="prefix__d" x1="43.145" y1="-40.596" x2="43.671" y2="79.515" gradientUnits="userSpaceOnUse" gradientTransform="matrix(.7804 0 0 .42206 17.236 9.515)"/><linearGradient id="prefix__a"><stop offset=".099" stop-color="#0aa"/><stop offset=".209" stop-color="#00bebe"/><stop offset=".354" stop-color="#0ff" stop-opacity=".688"/><stop offset=".512" stop-color="#0ff" stop-opacity=".43"/><stop offset=".664" stop-color="#0ff" stop-opacity=".247"/><stop offset="1" stop-color="#0ff" stop-opacity="0"/></linearGradient><linearGradient id="prefix__b"><stop offset="0" stop-color="#0ff"/><stop offset=".177" stop-color="#007272"/><stop offset=".492" stop-color="#0ff"/><stop offset=".7" stop-color="#0ff" stop-opacity=".247"/><stop offset="1" stop-color="#0ff" stop-opacity="0"/></linearGradient><linearGradient xlink:href="#prefix__b" id="prefix__g" gradientUnits="userSpaceOnUse" x1="14.321" y1="-56.719" x2="79.479" y2="118.785" gradientTransform="matrix(.99358 -.06671 .06671 .99358 -1.409 8.289)"/><linearGradient xlink:href="#prefix__a" id="prefix__f" x1="43.145" y1="-40.596" x2="43.671" y2="79.515" gradientUnits="userSpaceOnUse" gradientTransform="matrix(.17228 0 0 .1772 43.437 5.729)"/><linearGradient xlink:href="#prefix__a" id="prefix__h" gradientUnits="userSpaceOnUse" gradientTransform="matrix(.90944 -.01266 .01266 .90944 3.005 8.102)" x1="79.437" y1="-5.391" x2="-22.895" y2="120.957"/><linearGradient xlink:href="#prefix__a" id="prefix__e" gradientUnits="userSpaceOnUse" gradientTransform="matrix(.46217 0 0 .2048 30.63 6.085)" x1="43.145" y1="-40.596" x2="43.671" y2="79.515"/><linearGradient xlink:href="#prefix__a" id="prefix__i" gradientUnits="userSpaceOnUse" gradientTransform="matrix(.24915 0 0 .19 69.813 31.021)" x1="43.145" y1="-40.596" x2="43.671" y2="79.515"/><linearGradient xlink:href="#prefix__a" id="prefix__k" gradientUnits="userSpaceOnUse" gradientTransform="matrix(.7804 0 0 .42206 17.292 65.542)" x1="43.145" y1="-40.596" x2="43.671" y2="79.515"/><linearGradient xlink:href="#prefix__a" id="prefix__j" gradientUnits="userSpaceOnUse" gradientTransform="matrix(.34991 0 0 .19 10.1 31.021)" x1="43.145" y1="-40.596" x2="43.671" y2="79.515"/><path id="prefix__c" d="M22.627 231.224h83.439v40.305H22.627z"/></defs><path d="M0 .066h100v53.7H0z" fill-rule="evenodd"/><path d="M99.206 27.124a49.262 26.642 0 01-49.262 26.642A49.262 26.642 0 01.68 27.124 49.262 26.642 0 0149.944.482a49.262 26.642 0 0149.262 26.642z" opacity=".587" fill="url(#prefix__d)" fill-rule="evenodd"/><path d="M60.656 30.137a13.37 9.615 0 00-13.396 9.595 13.37 9.615 0 0013.344 9.634A13.37 9.615 0 0074 39.77a13.37 9.615 0 00-13.344-9.633z" opacity=".587" fill="none"/><path d="M79.174 14.63A29.174 12.927 0 0150 27.557 29.174 12.927 0 0120.826 14.63 29.174 12.927 0 0150 1.703 29.174 12.927 0 0179.174 14.63z" opacity=".293" fill="url(#prefix__e)" fill-rule="evenodd"/><path d="M61.532 13.122a10.875 11.185 0 01-10.875 11.185 10.875 11.185 0 01-10.875-11.185A10.875 11.185 0 0150.657 1.936a10.875 11.185 0 0110.875 11.186z" opacity=".587" fill="url(#prefix__f)" fill-rule="evenodd" stroke="#fff" stroke-width=".253" stroke-linecap="round"/><g stroke="#fff" stroke-width="1.2" fill-rule="evenodd" stroke-linecap="round"><path style="line-height:113.22%;-inkscape-font-specification:'Microsoft Himalaya, Normal'" d="M73.746 82.539c-5.989 4.31-15.122 2.78-21.466-3.324-7.516-7.224-6.674-18.794-11.854-23.458-4.31-4.247-9.997-2.7-15.186-1.494 9.234-6.277 8.924-13.945 2.58-22.772-3.333-4.574-15.592-23.58 3.115-33.107-11.57 11.228-1.718 20.63 3.892 31.416 3.445 6.779 2.14 14.749-2.816 20.972 2.815-.096 7.235.27 11.402 2.787 8.473 4.53 9.402 14.848 13.015 22.783 3.806 7.328 10.174 6.63 17.318 6.197z" aria-label="{" font-size="38.1" font-family="Microsoft Himalaya" letter-spacing=".529" fill="url(#prefix__g)" transform="matrix(.17228 0 0 .1772 43.437 5.729)"/><path d="M22.662 71.47c2.133 3.512-2.566 3.906-2.54 6.238.031 2.783-2.88 4.598-6.041 4.218-5.294-.635-6.667-2.22-4.4-2.371 3.22-.214 4.973-2.775 3.863-6.045-.79-4.994 3.664-3.881 5.976-4.647 2.892-1.24 45.692-65.714 50.685-61.756C75.458 11.27 22.18 69.405 22.662 71.47c0 0 0 0 0 0z" fill="url(#prefix__h)" transform="matrix(.17228 0 0 .1772 43.437 5.729)"/></g><path d="M95.982 38.948a15.727 11.993 0 01-15.727 11.994 15.727 11.993 0 01-15.727-11.994 15.727 11.993 0 0115.727-11.993 15.727 11.993 0 0115.727 11.993z" opacity=".587" fill="url(#prefix__i)" fill-rule="evenodd"/><g font-family="Arial" text-anchor="middle" fill="#fff" fill-rule="evenodd" stroke="#fff" stroke-width=".051" stroke-linecap="round" stroke-linejoin="bevel" stroke-miterlimit="3.7"><path style="line-height:113.22%;-inkscape-font-specification:'Arial, Normal';text-align:center" d="M74.248 38.716l.124.019q.007.057.043.083.047.035.128.035.088 0 .136-.035.048-.035.065-.099.01-.038.01-.162-.084.098-.208.098-.154 0-.238-.112-.085-.111-.085-.267 0-.107.039-.197.039-.09.112-.14.074-.049.173-.049.132 0 .218.107v-.09h.117v.646q0 .175-.036.247-.035.073-.112.116-.077.042-.19.042-.134 0-.216-.06-.082-.06-.08-.182zm.105-.449q0 .147.059.215.058.068.146.068t.147-.067q.059-.068.059-.211 0-.138-.061-.207-.061-.07-.147-.07-.084 0-.143.069-.06.068-.06.203zm1.389.295q-.07.06-.136.085-.065.024-.14.024-.123 0-.189-.06t-.066-.154q0-.055.024-.1.026-.045.066-.073.04-.027.091-.041.038-.01.113-.02.154-.018.226-.043v-.033q0-.078-.035-.11-.049-.042-.144-.042-.09 0-.133.032-.042.03-.062.11l-.124-.017q.017-.08.055-.128.039-.05.112-.075.073-.027.17-.027.096 0 .155.022.06.023.088.058.029.033.04.085.006.033.006.117v.17q0 .176.008.223.008.047.032.09h-.132q-.02-.04-.025-.093zm-.01-.283q-.07.028-.208.048-.078.011-.11.025-.033.014-.05.042-.018.027-.018.06 0 .05.038.084.039.034.113.034.073 0 .13-.032.057-.032.084-.088.02-.043.02-.126zm.453.152l.125-.02q.011.076.059.116.048.04.135.04.087 0 .13-.035.042-.036.042-.084 0-.043-.037-.067-.027-.017-.13-.043-.14-.035-.194-.06-.053-.027-.081-.072-.028-.046-.028-.1 0-.05.023-.093t.062-.07q.03-.023.08-.038.052-.015.11-.015.089 0 .155.025.067.026.098.07.032.042.044.115l-.124.017q-.008-.058-.05-.09-.04-.033-.113-.033-.088 0-.125.03-.037.028-.037.067 0 .024.015.044.016.02.049.034.019.007.112.032.134.036.187.06.054.022.084.065.03.044.03.109 0 .063-.037.12-.037.055-.106.086-.07.03-.158.03-.146 0-.223-.06-.076-.06-.097-.18zm.952.51v-1.034h.115v.097q.041-.057.093-.085.051-.029.124-.029.096 0 .17.05.072.049.11.139.037.09.037.196 0 .115-.041.207-.041.092-.12.14-.078.05-.165.05-.063 0-.114-.027-.05-.027-.082-.068v.364zm.115-.656q0 .144.058.213.059.07.142.07.084 0 .144-.072.06-.072.06-.222 0-.143-.059-.214-.058-.07-.14-.07-.08 0-.143.075-.062.076-.062.22zm1.355.277q-.07.06-.136.085-.065.024-.14.024-.123 0-.189-.06t-.066-.154q0-.055.025-.1.025-.045.065-.073.041-.027.092-.041.037-.01.112-.02.154-.018.226-.043l.001-.033q0-.078-.036-.11-.048-.042-.144-.042-.09 0-.133.032-.042.03-.062.11l-.124-.017q.017-.08.056-.128.038-.05.111-.075.074-.027.17-.027.096 0 .156.022.06.023.088.058.028.033.04.085.005.033.005.117v.17q0 .176.008.223.009.047.033.09h-.133q-.02-.04-.025-.093zm-.01-.283q-.07.028-.208.048-.078.011-.11.025-.033.014-.05.042-.018.027-.018.06 0 .05.038.084.039.034.113.034.073 0 .13-.032.057-.032.084-.088.02-.043.02-.126zm.503.376v-.748h.114v.113q.043-.08.08-.105.037-.025.082-.025.064 0 .13.04l-.044.118q-.046-.027-.093-.027-.041 0-.074.025-.033.025-.047.07-.022.067-.022.147v.391zm1.173-.241l.131.016q-.03.115-.115.178-.083.063-.214.063-.164 0-.26-.1-.096-.102-.096-.284 0-.189.097-.293.097-.104.252-.104.15 0 .245.102t.095.287v.034h-.558q.007.123.07.189.062.065.156.065.07 0 .12-.036.048-.037.077-.117zm-.416-.205h.418q-.009-.094-.048-.142-.06-.073-.157-.073-.088 0-.147.059-.06.058-.066.156zm.77.732v-.091h.84v.091zm1.375-.4l.019.112q-.054.011-.096.011-.07 0-.107-.021-.038-.022-.054-.057-.015-.036-.015-.15v-.43h-.093v-.1h.093v-.184l.126-.076v.26h.127v.1h-.127v.437q0 .054.006.07.007.015.022.024.015.009.044.009.02 0 .055-.005zm.257-.26q0-.208.116-.308.096-.083.235-.083.154 0 .252.101t.098.28q0 .143-.044.227-.043.082-.126.128-.082.045-.18.045-.157 0-.254-.1t-.097-.29zm.13 0q0 .143.063.215.063.071.158.071.094 0 .157-.072.062-.071.062-.219 0-.138-.063-.21-.063-.071-.156-.071-.095 0-.158.071t-.063.215zm1.387.1l.125.016q-.02.129-.105.202-.084.072-.206.072-.154 0-.247-.1t-.093-.287q0-.122.04-.212.04-.091.122-.136.082-.046.178-.046.122 0 .2.062.077.061.099.175l-.123.019q-.018-.076-.063-.114-.044-.038-.108-.038-.095 0-.155.07-.06.067-.06.216 0 .15.058.219.057.068.15.068.075 0 .125-.046.05-.045.063-.14zm.901 0l.125.016q-.02.129-.105.202-.084.072-.206.072-.154 0-.247-.1t-.093-.287q0-.122.04-.212.04-.091.122-.136.082-.046.179-.046.121 0 .199.062.077.061.099.175l-.123.019q-.018-.076-.063-.114-.044-.038-.108-.038-.095 0-.155.07-.06.067-.06.216 0 .15.058.219.057.068.15.068.075 0 .125-.046.05-.045.063-.14zm.414-.613v-.146h.127v.146zm0 .887v-.748h.127v.748zm1.222-.115q-.045.053-.102.085-.057.032-.114.032-.062 0-.122-.037-.059-.037-.096-.113-.037-.076-.037-.166 0-.112.057-.224.058-.113.143-.17.086-.056.166-.056.061 0 .117.033.055.031.095.097l.024-.11h.126l-.101.473q-.021.099-.021.11 0 .018.014.032.015.014.035.014.037 0 .098-.043.08-.056.127-.15.047-.096.047-.197 0-.117-.06-.22-.06-.101-.18-.162-.12-.062-.264-.062-.164 0-.3.078-.137.076-.212.22-.075.144-.075.31 0 .172.075.296.075.125.217.184.142.06.314.06.185 0 .31-.062.124-.062.186-.15h.127q-.035.073-.123.15-.087.077-.207.12-.12.046-.29.046-.157 0-.29-.04-.13-.04-.224-.121-.093-.08-.14-.185-.059-.133-.059-.288 0-.171.07-.327.086-.19.244-.292.159-.102.384-.102.174 0 .313.072.14.071.22.213.068.122.068.265 0 .204-.144.362-.128.142-.28.142-.048 0-.079-.014-.03-.015-.043-.043-.01-.017-.014-.06zm-.34-.191q0 .096.045.15.046.053.105.053.04 0 .083-.023.044-.024.083-.07.04-.047.066-.118.025-.072.025-.143 0-.096-.048-.149-.047-.053-.115-.053-.045 0-.085.023-.04.023-.077.074-.037.05-.06.123-.022.072-.022.133zm1.256.593l-.014-.119q.042.012.073.012.042 0 .067-.014.026-.014.042-.04.012-.019.039-.094l.01-.031-.283-.749h.137l.155.433q.03.082.055.173.021-.087.052-.17l.16-.436h.126l-.284.76q-.046.123-.071.17-.034.063-.078.091-.043.03-.104.03-.037 0-.082-.015zm1.395-.38q-.07.06-.136.085-.065.024-.14.024-.123 0-.189-.06t-.066-.154q0-.055.025-.1.025-.045.065-.073.041-.027.092-.041.037-.01.112-.02.154-.018.226-.043l.001-.033q0-.078-.036-.11-.048-.042-.144-.042-.09 0-.133.032-.042.03-.062.11l-.124-.017q.017-.08.056-.128.038-.05.111-.075.074-.027.17-.027.096 0 .156.022.06.023.088.058.028.033.04.085.005.033.005.117v.17q0 .176.008.223.009.047.033.09h-.133q-.02-.04-.025-.093zm-.01-.283q-.07.028-.208.048-.078.011-.11.025-.033.014-.05.042-.018.027-.018.06 0 .05.038.084.039.034.113.034.073 0 .13-.032.057-.032.084-.088.02-.043.02-.126zm.504.375v-1.032h.127v.37q.089-.102.224-.102.083 0 .144.033.061.032.087.09.027.058.027.168v.474H89.6v-.474q0-.095-.041-.138-.041-.044-.116-.044-.057 0-.107.03-.049.029-.07.079-.021.05-.021.137v.41zm.935-.373q0-.208.115-.308.097-.083.236-.083.154 0 .252.101.097.101.097.28 0 .143-.043.227-.043.082-.126.128-.083.045-.18.045-.157 0-.255-.1-.096-.1-.096-.29zm.13 0q0 .143.063.215.063.071.158.071.094 0 .157-.072.062-.071.062-.219 0-.138-.063-.21-.063-.071-.156-.071-.095 0-.158.071t-.063.215zm.852 0q0-.208.116-.308.096-.083.235-.083.154 0 .252.101t.098.28q0 .143-.044.227-.043.082-.126.128-.083.045-.18.045-.157 0-.255-.1-.096-.1-.096-.29zm.13 0q0 .143.063.215.063.071.158.071.094 0 .157-.072.062-.071.062-.219 0-.138-.063-.21-.063-.071-.156-.071-.095 0-.158.071t-.063.215zm.935.374v-.145h.144v.145zm.546-.887v-.146h.126v.146zm0 .887v-.748h.126v.748zm.776-.114l.019.112q-.054.011-.096.011-.07 0-.107-.021-.038-.022-.054-.057-.015-.036-.015-.15v-.43h-.093v-.1h.093v-.184l.126-.076v.26h.127v.1h-.127v.437q0 .054.006.07.007.015.022.024.015.009.044.009.02 0 .055-.005z" aria-label="gaspare_tocci@yahoo.it" font-size=".998" letter-spacing=".125" stroke-width=".07367052"/><path style="line-height:113.22%;-inkscape-font-specification:'Arial, Normal';text-align:center" d="M67.097 38.85v-1.157h.836v.136h-.683v.355h.64v.135h-.64v.394h.71v.137zm1.46 0v-.838h.127v.117q.04-.061.105-.098.066-.038.15-.038.093 0 .152.038.06.039.084.108.1-.146.26-.146.124 0 .19.07.068.068.068.211v.576h-.141v-.528q0-.086-.014-.123-.014-.037-.05-.06-.036-.023-.085-.023-.089 0-.147.059-.059.058-.059.188v.487h-.142v-.545q0-.095-.034-.142-.035-.047-.114-.047-.06 0-.111.031-.05.032-.074.093-.023.06-.023.175v.435zm2.298-.104q-.08.067-.153.095-.072.028-.156.028-.138 0-.212-.067-.074-.068-.074-.173 0-.062.027-.112.029-.052.074-.082.045-.031.102-.047.042-.011.127-.021.172-.02.253-.05v-.036q0-.087-.04-.123-.054-.048-.161-.048-.1 0-.149.036-.047.034-.07.124l-.139-.02q.02-.088.062-.143.044-.055.126-.084.082-.03.19-.03t.175.025q.067.025.098.064.032.038.044.096.008.036.008.131v.19q0 .198.008.25.01.053.036.1h-.148q-.022-.044-.028-.103zm-.012-.317q-.077.032-.232.054-.088.012-.124.028-.036.016-.056.047-.02.03-.02.067 0 .057.043.094.043.038.126.038.082 0 .146-.035.064-.036.094-.099.023-.048.023-.142zm.769-.573v-.163h.142v.163zm0 .994v-.838h.142v.838zm.759 0v-1.157h.142v1.157zm.806-.677v-.161h.161v.161zm0 .677v-.162h.161v.162z" aria-label="Email:" font-size="1.119" letter-spacing=".28" stroke-width=".07367052"/></g><g font-family="Arial" text-anchor="middle" fill="#fff" fill-rule="evenodd" stroke="#fff" stroke-width=".051" stroke-linecap="round" stroke-linejoin="bevel" stroke-miterlimit="3.7"><path d="M46.756 35.983v-.756h.285q.075 0 .115.007.056.01.093.035.038.026.06.073.024.047.024.103 0 .097-.062.164-.06.066-.221.066h-.194v.308zm.1-.397h.195q.097 0 .138-.036.04-.036.04-.102 0-.047-.024-.08-.023-.035-.062-.045-.026-.007-.094-.007h-.193zm.822.397v-.756h.093v.271q.065-.075.164-.075.06 0 .105.024t.064.066q.02.042.02.123v.347h-.093v-.347q0-.07-.03-.101-.03-.032-.085-.032-.042 0-.078.021t-.052.058q-.015.037-.015.101v.3zm.782-.274q0-.152.085-.225.07-.061.172-.061.113 0 .185.074.071.074.071.204 0 .106-.032.167-.031.06-.092.094-.06.033-.132.033-.115 0-.186-.073-.07-.074-.07-.213zm.096 0q0 .105.045.158.046.052.116.052t.115-.053q.046-.052.046-.16 0-.102-.046-.154-.046-.052-.115-.052-.07 0-.116.052-.045.052-.045.157zm.756.274v-.548h.083v.078q.06-.09.175-.09.049 0 .09.018.042.017.063.046.02.029.029.069.005.026.005.09v.337h-.093v-.333q0-.057-.01-.085-.012-.028-.04-.045-.027-.017-.064-.017-.06 0-.103.038-.043.037-.043.143v.299zm1.192-.176l.095.011q-.022.084-.084.13-.061.047-.156.047-.12 0-.191-.073-.07-.075-.07-.208 0-.139.07-.215.072-.076.185-.076.11 0 .18.074.07.075.07.211v.025h-.41q.006.09.052.138.045.048.114.048.051 0 .087-.027t.058-.085zm-.305-.15h.306q-.007-.07-.036-.104-.044-.054-.115-.054-.064 0-.107.043-.044.043-.048.114zm.772-.116v-.106h.106v.106zm0 .442v-.106h.106v.106z" style="line-height:113.22%;-inkscape-font-specification:'Arial, Normal';text-align:center" transform="matrix(1.45777 0 0 1.48997 -1.062 -12.963)" aria-label="Phone:" font-size="1.057" letter-spacing=".229"/><path d="M52.36 35.57v-.151h-.15v-.063h.15v-.15h.063v.15h.15v.063h-.15v.15zm.671.089v-.132h-.239v-.062l.251-.356h.056v.356h.074v.062h-.074v.132zm0-.194v-.248l-.172.248zm.594.194v-.132h-.239v-.062l.251-.356h.056v.356h.074v.062h-.074v.132zm0-.194v-.248l-.172.248zm.758-.078q0-.097.02-.156.02-.06.06-.092.039-.033.099-.033.044 0 .078.019.033.017.055.05.022.034.034.083.012.048.012.13 0 .096-.02.156t-.06.092q-.039.032-.099.032-.08 0-.125-.057-.054-.069-.054-.224zm.07 0q0 .136.03.18.033.046.079.046.047 0 .078-.045.032-.045.032-.18 0-.136-.032-.181-.031-.045-.079-.045-.046 0-.074.04-.035.05-.035.185zm.528-.206v-.065h.356v.052q-.052.056-.104.149-.051.093-.08.19-.02.07-.025.152h-.07q.001-.065.026-.157.024-.092.07-.177.045-.086.097-.144zm.694.18q-.042-.016-.063-.044-.02-.029-.02-.069 0-.06.043-.1.043-.042.115-.042.072 0 .116.043.044.041.044.101 0 .038-.02.067-.02.028-.061.043.05.017.077.054.026.037.026.088 0 .07-.05.118-.05.048-.13.048-.082 0-.132-.048t-.05-.12q0-.054.027-.09t.078-.05zm-.014-.115q0 .04.025.064.025.025.066.025.039 0 .063-.025.025-.025.025-.06 0-.037-.025-.062-.026-.026-.064-.026-.039 0-.064.025-.026.025-.026.059zm-.022.254q0 .029.014.056t.04.042q.028.015.059.015.048 0 .08-.032.031-.03.031-.079 0-.048-.032-.08-.033-.032-.081-.032t-.08.031q-.03.032-.03.079zm.526.014l.068-.01q.011.058.039.083.028.026.068.026.048 0 .08-.033.034-.033.034-.082 0-.047-.03-.077-.031-.03-.078-.03-.02 0-.048.007l.008-.059h.01q.044 0 .078-.022.035-.022.035-.07 0-.036-.025-.06-.025-.025-.065-.025t-.066.025q-.026.025-.034.074l-.067-.012q.012-.068.056-.105.044-.037.11-.037.044 0 .082.019.038.02.058.053.02.033.02.07 0 .036-.019.065-.019.03-.057.047.05.011.076.047.027.035.027.088 0 .072-.052.123-.053.05-.133.05-.072 0-.12-.044-.048-.043-.055-.111zm.594 0l.068-.01q.011.058.04.083.027.026.067.026.048 0 .08-.033.034-.033.034-.082 0-.047-.03-.077-.031-.03-.078-.03-.02 0-.048.007l.008-.059h.01q.044 0 .078-.022.035-.022.035-.07 0-.036-.025-.06-.025-.025-.065-.025t-.066.025q-.026.025-.034.074l-.067-.012q.012-.068.056-.105.044-.037.11-.037.044 0 .082.019.038.02.058.053.02.033.02.07 0 .036-.019.065-.019.03-.057.047.05.011.076.047.027.035.027.088 0 .072-.052.123-.053.05-.133.05-.072 0-.12-.044-.048-.043-.055-.111zm.949.08v.065h-.364q0-.025.008-.047.014-.037.044-.073.031-.036.089-.084.09-.073.121-.116.032-.043.032-.081 0-.04-.03-.068-.028-.028-.074-.028-.049 0-.078.03-.03.029-.03.08l-.07-.006q.008-.078.055-.119.046-.04.125-.04t.125.043q.046.044.046.11 0 .032-.014.064-.013.032-.045.067-.03.036-.104.097-.06.051-.078.07-.017.017-.028.036zm.243-.413v-.065h.356v.052q-.052.056-.104.149-.051.093-.08.19-.02.07-.025.152h-.07q.001-.065.026-.157.024-.092.07-.177.045-.086.097-.144zm.694.18q-.042-.016-.063-.044-.02-.029-.02-.069 0-.06.043-.1.043-.042.115-.042.072 0 .116.043.044.041.044.101 0 .038-.02.067-.02.028-.061.043.05.017.077.054.026.037.026.088 0 .07-.05.118-.05.048-.13.048-.082 0-.132-.048t-.05-.12q0-.054.027-.09t.078-.05zm-.014-.115q0 .04.025.064.025.025.066.025.039 0 .063-.025.026-.025.026-.06 0-.037-.026-.062-.026-.026-.064-.026-.039 0-.064.025-.026.025-.026.059zm-.022.254q0 .029.014.056t.04.042q.028.015.059.015.048 0 .08-.032.031-.03.031-.079 0-.048-.032-.08t-.081-.032q-.048 0-.08.031-.03.032-.03.079zm.536.032l.065-.006q.008.045.031.066.024.02.06.02.031 0 .054-.014.024-.014.039-.038t.025-.064q.01-.04.01-.083V35.4q-.02.032-.056.052-.034.02-.075.02-.069 0-.116-.05-.047-.049-.047-.13 0-.083.049-.135.05-.05.124-.05.053 0 .098.028.044.03.067.083.023.053.023.154 0 .106-.022.169-.023.062-.069.094-.045.033-.106.033-.064 0-.105-.036-.04-.036-.05-.1zm.276-.243q0-.058-.03-.092-.031-.035-.075-.035-.045 0-.078.037-.034.037-.034.095 0 .053.032.086.032.033.078.033.047 0 .077-.033t.03-.091zm.308.098q0-.097.02-.156.02-.06.06-.092.04-.033.1-.033.043 0 .077.018.033.018.055.052.022.033.034.082.012.048.012.13 0 .096-.02.156t-.06.092q-.038.032-.099.032-.08 0-.125-.057-.054-.069-.054-.224zm.07 0q0 .136.03.18.033.046.08.046.046 0 .077-.045.032-.045.032-.18 0-.136-.032-.181-.031-.045-.079-.045-.046 0-.074.04-.035.05-.035.185zm.524 0q0-.097.02-.156.02-.06.06-.092.04-.033.1-.033.043 0 .077.018.033.018.055.052.022.033.034.082.012.048.012.13 0 .096-.02.156t-.06.092q-.038.032-.099.032-.08 0-.125-.057-.054-.069-.054-.224zm.07 0q0 .136.03.18.033.046.08.046.046 0 .077-.045.032-.045.032-.18 0-.136-.032-.181-.031-.045-.079-.045-.046 0-.074.04-.035.05-.035.185z" style="line-height:113.22%;-inkscape-font-specification:'Arial, Normal';text-align:center" aria-label="+44 07833278900" font-size=".768" letter-spacing=".167" transform="matrix(1.4444 0 0 1.50375 -1.062 -12.963)"/></g><path d="M46.854 38.948a22.088 11.993 0 01-22.088 11.994A22.088 11.993 0 012.678 38.948a22.088 11.993 0 0122.088-11.993 22.088 11.993 0 0122.088 11.993z" opacity=".587" fill="url(#prefix__j)" fill-rule="evenodd"/><path d="M8.185 40.745q-.174 0-.297-.046-.195-.072-.282-.17-.092-.092-.092-.2 0-.138.138-.291.134-.15.375-.293.24-.138.553-.246.313-.102.667-.154.159-.025.348-.04l.39-.031q.2-.01.359-.01.19-.324.308-.61.123-.288.215-.662l.02-.082q-.097.092-.276.225-.175.129-.41.262-.231.128-.498.215-.261.087-.538.087-.216 0-.416-.066-.215-.077-.39-.257-.168-.184-.271-.45-.097-.272-.097-.6 0-.242.061-.513.062-.277.2-.564-.159-.164-.251-.364-.087-.2-.087-.41 0-.185.077-.364.077-.185.24-.354.047-.052.088-.052.02 0 .02.021 0 .03-.036.072-.118.143-.174.302-.056.16-.056.318 0 .18.066.354.072.174.2.323l.052-.103.061-.102q.246-.4.6-.687.359-.287.764-.441.405-.16.79-.16.066 0 .128.006.066.005.133.016.497.076.743.333.246.256.246.574 0 .22-.123.44-.118.221-.364.406-.24.185-.605.297-.359.113-.835.123-.375.006-.739-.092-.364-.102-.615-.266-.128.271-.19.533-.056.256-.056.482 0 .379.159.65.159.273.44.365.083.025.165.036.087.01.17.01.23 0 .46-.067.236-.072.436-.184.2-.113.339-.236.143-.128.19-.236.117-.267.23-.37.118-.107.21-.107.077 0 .129.072.056.067.04.185-.05.425-.235.825-.18.4-.467.866.349.006.626.036.282.036.507.093.062.015.082.036.026.025.026.04 0 .036-.062.036-.03 0-.087-.015-.118-.03-.313-.056-.194-.02-.42-.031-.22-.01-.426-.01-.215.307-.512.553-.292.252-.62.431-.329.18-.647.272-.312.097-.564.097zm1.605-4.102h.113l.113-.01q.518-.051.877-.236.364-.19.548-.446.19-.256.19-.502 0-.241-.185-.426-.18-.19-.553-.246-.052-.01-.088-.01h-.087q-.333 0-.692.159-.354.159-.677.446-.318.282-.548.656l-.087.149-.072.123q.21.159.507.251.303.092.641.092zm-1.61 3.943q.2 0 .472-.077.272-.072.564-.225.297-.149.57-.37.27-.22.476-.512-.246.005-.487.02-.236.02-.472.062-.251.04-.523.138-.266.103-.497.236-.226.133-.37.267-.138.138-.138.25 0 .068.057.119.061.051.19.077.071.015.158.015zm5.214-1.753q-.056.005-.128-.026-.071-.03-.128-.113-.051-.082-.051-.23 0-.124.046-.298-.062.098-.159.241-.097.139-.21.246-.098.093-.185.134-.087.04-.159.04-.133 0-.215-.117-.082-.123-.082-.318 0-.205.103-.467.102-.261.333-.543.148-.18.359-.287.215-.113.42-.113.118 0 .226.04.107.037.19.124.035.036.035.082 0 .03-.025.051-.026.02-.067.01-.056-.179-.241-.179-.087 0-.2.056-.174.093-.364.303-.185.21-.323.436-.02.03-.067.118-.04.087-.082.194-.04.108-.056.21-.005.031-.005.047v.036q0 .169.128.169.154 0 .349-.226.133-.164.24-.343.108-.18.221-.385.077-.138.144-.23.066-.093.19-.093.056 0 .112.016.057.015.118.005-.041.04-.113.154-.066.112-.143.256-.077.144-.139.292-.061.149-.087.257l-.015.087q-.005.056-.005.082 0 .143.082.143t.174-.097q.097-.098.19-.241.092-.144.169-.287l.123-.241q.02-.051.061-.051.026 0 .026.035 0 .016-.015.057-.062.128-.149.292-.087.16-.19.313-.102.149-.215.251-.108.098-.22.108zm1.457.005q-.252 0-.36-.128-.102-.134-.102-.277 0-.118.057-.215.061-.098.143-.103.103-.2.22-.436.124-.236.226-.456.072-.149.18-.287.112-.139.246-.16h.05q.042 0 .073.006.036.005.071.02.057.026.057.077 0 .031-.036.031-.015 0-.041-.015-.062-.026-.108-.026-.03 0-.056.016-.097.05-.139.143-.035.092-.035.195 0 .082.015.17.02.081.046.148.057.143.118.282.067.138.067.297 0 .154-.103.328-.102.17-.261.272l.036.005q.025.005.035.005h.016q.118 0 .22-.066.108-.072.19-.175.082-.102.185-.287.107-.184.205-.39.015-.025.036-.025.025 0 .035.02.016.016.006.042-.067.143-.154.312-.082.164-.19.318-.108.149-.251.246-.139.093-.313.093-.04 0-.087-.006-.046-.005-.092-.02-.052.02-.108.03-.051.016-.097.016zm.153-.154q.088-.072.154-.21.072-.139.072-.364 0-.2-.041-.426-.041-.225-.041-.4v-.061l.01-.057-.154.323q-.087.18-.174.35l-.149.286.026.005q.03 0 .056.036.026.031.02.128-.004.129.057.241.067.108.164.15zm-.194.072q.03 0 .056-.005l.046-.016q-.077-.056-.138-.148-.057-.098-.067-.246-.092.097-.092.21 0 .082.051.143.051.062.144.062zm1.102 1.461q-.062 0-.123-.02-.067-.016-.134-.006.031-.03.118-.18.088-.143.205-.358.113-.215.241-.467.129-.25.241-.492.113-.246.19-.446.082-.205.103-.323-.046.067-.093.077-.04.005-.02-.03.01-.021.04-.098l.062-.138q.041-.103.067-.226.03-.123.03-.236 0-.072-.015-.123-.015-.051-.056-.056l.056-.01.118-.021q.062-.01.082-.01.031-.006.057-.006.025-.005.046-.005.046 0 .061.036.02.03.02.133 0 .129-.045.329-.041.194-.098.343l.144-.236q.092-.143.21-.292t.246-.246q.128-.103.251-.103.026 0 .067.01.144.036.2.144.062.103.062.246 0 .154-.062.339-.056.184-.154.364-.097.174-.215.318-.144.179-.344.287-.2.107-.41.107-.19 0-.354-.097l-.487 1.225q-.071.154-.138.21-.067.057-.17.057zm.984-1.502q.144 0 .323-.133.18-.134.344-.339.169-.21.282-.42.077-.144.113-.262.035-.123.035-.21 0-.2-.143-.2-.067 0-.174.072-.103.072-.241.261-.15.205-.329.518-.174.308-.358.651.061.062.148.062zm3.276.118q-.056.005-.128-.026-.072-.03-.128-.113-.051-.082-.051-.23 0-.123.046-.298-.062.098-.16.241-.096.139-.21.246-.097.093-.184.134-.087.04-.159.04-.133 0-.215-.117-.082-.123-.082-.318 0-.205.102-.467.103-.261.334-.543.148-.18.359-.287.215-.113.42-.113.118 0 .226.04.107.037.19.124.035.036.035.082 0 .03-.026.051-.025.02-.066.01-.057-.179-.241-.179-.087 0-.2.056-.174.093-.364.303-.185.21-.323.436-.02.03-.067.118-.04.087-.082.195-.04.107-.056.21-.005.03-.005.046v.036q0 .169.128.169.154 0 .348-.226.134-.164.241-.343.108-.18.22-.385.078-.138.144-.23.067-.093.19-.093.057 0 .113.016.056.015.118.005-.041.04-.113.154-.067.113-.144.256-.076.144-.138.292-.061.149-.087.257l-.015.087q-.006.056-.006.082 0 .143.082.143t.175-.097q.097-.097.19-.241.092-.144.169-.287l.123-.241q.02-.051.061-.051.026 0 .026.036 0 .015-.016.056-.061.128-.148.292-.087.16-.19.313-.103.149-.215.251-.108.098-.22.108zm1.949-.01q-.098 0-.195-.077-.098-.082-.098-.262 0-.138.067-.318.062-.174.164-.338.108-.164.154-.267.015-.04.015-.071 0-.093-.118-.134-.112-.04-.297-.046l-.062.17q-.056.163-.158.384-.098.22-.22.425-.119.205-.247.328-.01.01-.026.01-.02 0-.025-.025-.01-.026.02-.061.2-.267.36-.59.158-.328.266-.667.112-.338.164-.625.015-.082.056-.118.041-.041.087-.041.067 0 .123.067.057.061.057.18 0 .02-.005.045 0 .026-.006.051-.02.108-.123.206-.097.092-.159.138l.108.01h.123q.241 0 .477-.03.01.03.01.046 0 .066-.04.169-.037.102-.078.184-.02.047-.082.17-.061.118-.133.271-.072.149-.123.298-.046.143-.046.246 0 .133.102.133.077 0 .17-.097.092-.103.179-.246.092-.15.164-.288.077-.143.118-.225.02-.051.056-.051.02 0 .02.035 0 .021-.015.062-.056.118-.133.267-.077.148-.174.292-.093.143-.205.251-.108.103-.236.133-.016.006-.057.006zm1.733.015q-.19 0-.344-.123-.149-.123-.149-.374 0-.231.113-.493.113-.266.287-.466.149-.174.334-.287.184-.113.348-.113.113 0 .195.061.087.067.087.19 0 .128-.097.282-.098.154-.277.287-.077.057-.195.108-.118.051-.236.087-.118.03-.195.03-.025.062-.05.165-.021.102-.021.21 0 .128.05.23.052.103.19.103.17 0 .308-.097.139-.097.246-.241.108-.149.18-.297.077-.15.123-.252.03-.071.082-.071.025 0 .025.025 0 .02-.015.052l-.154.328q-.082.169-.195.323-.112.148-.271.24-.154.093-.37.093zm-.093-.902q.072 0 .241-.052.17-.056.308-.174.133-.118.205-.256.072-.144.072-.241 0-.113-.082-.113-.062 0-.17.082-.107.082-.266.277-.098.123-.185.266-.087.144-.123.21zm7.383 1.363q-.369 0-.713-.092-.343-.087-.615-.267-.272-.179-.436-.45-.159-.272-.159-.642 0-.271.098-.579.056-.174.159-.297.108-.123.22-.19.113-.067.18-.067.087 0 .072.082-.031.036-.108.088-.072.046-.16.123-.081.076-.158.2-.072.117-.103.302l-.02.133q-.005.067-.005.128 0 .334.143.59.144.256.375.426.235.169.512.25.282.088.554.083.415-.01.738-.118.323-.103.575-.277.25-.174.44-.384.16-.175.318-.426.16-.251.308-.538.154-.293.287-.58.138-.287.256-.543.118-.256.205-.436.088-.184.144-.256-.405-.123-.78-.19-.368-.072-.789-.092-.384-.02-.687.087-.297.108-.507.292-.206.18-.318.395-.108.215-.108.415 0 .175.087.313.092.133.277.195.123.036.241.036.185 0 .323-.077t.23-.185q.098-.113.144-.21.052-.103.052-.149v-.005q.025-.03.05-.03.052 0 .052.071-.026.22-.159.385-.128.164-.313.25-.184.088-.39.088-.143 0-.276-.046-.282-.103-.426-.328-.143-.23-.143-.498 0-.225.097-.446.098-.225.298-.41.2-.19.497-.302.297-.113.697-.113h.108q.04 0 .138.01.241.02.487.082.246.057.472.128.226.072.415.139.19.067.313.097.015-.02.087-.072.077-.05.154-.107.082-.057.128-.098.046-.04.005-.04h-.005q.016-.006.041-.006.051 0 .077.036.026.03.026.067 0 .066-.062.066-.01 0-.04-.01-.021-.02-.078.02-.05.042-.107.098-.052.051-.082.087.112.036.282.087l.369.098q.2.046.39.077.19.03.338.03.143 0 .225-.035.088-.036.088-.118 0-.031.01-.052.015-.025.051-.025.026 0 .036.046.01.04.01.067 0 .123-.133.2-.128.076-.323.076h-.062l-.066-.01q-.575-.072-.898-.184-.317-.113-.4-.15-.23.37-.379.76t-.282.779q-.128.39-.302.754-.17.364-.451.687-.206.23-.503.39-.292.158-.636.235-.343.082-.697.082zm3.825-.482q-.195 0-.287-.128-.093-.133-.093-.323 0-.23.108-.482.103-.236.262-.43.159-.195.343-.313.185-.123.359-.123.195 0 .287.128.092.128.092.323 0 .236-.107.482-.062.138-.175.308-.112.164-.256.302.03.056.087.097.057.036.154.036.123 0 .23-.102.114-.103.206-.246.092-.149.164-.298l.118-.24q.015-.031.051-.031.02 0 .03.02.011.016-.004.051-.031.077-.103.231-.072.149-.174.313-.103.159-.236.272-.133.112-.297.112-.113 0-.195-.035-.082-.042-.134-.098-.107.082-.215.128t-.215.046zm.077-.112q.138 0 .297-.134-.04-.061-.061-.128-.02-.067-.02-.123 0-.092.04-.159.046-.067.139-.067.066 0 .107.052.046.046.046.107 0 .016-.005.031 0 .01-.005.026.087-.118.164-.277.17-.364.17-.6 0-.118-.047-.184-.046-.067-.138-.067-.108 0-.236.092-.123.092-.241.246-.113.154-.2.344-.082.174-.133.338-.047.16-.047.277 0 .103.041.164.041.062.129.062zm2.46.133q-.292 0-.41-.139-.117-.143-.117-.348 0-.226.102-.482.108-.256.251-.446.15-.2.329-.308.179-.113.364-.113.194 0 .287.098.092.097.071.261-.01.103-.097.205-.087.098-.174.098-.041 0-.072-.03.04-.052.087-.124.046-.072.067-.138.02-.062.02-.123 0-.129-.123-.129-.138 0-.292.144-.149.138-.262.302-.046.062-.112.195-.062.128-.113.287-.051.154-.051.303 0 .154.066.277.072.118.236.118.226 0 .385-.139.164-.143.287-.354.128-.21.23-.41.031-.061.062-.061.026 0 .026.04 0 .021-.016.052-.123.267-.251.487-.128.22-.313.349-.18.128-.466.128zm1.98 0q-.293 0-.41-.139-.118-.143-.118-.348 0-.226.102-.482.108-.256.251-.446.15-.2.329-.308.179-.113.364-.113.194 0 .287.098.092.097.071.261-.01.103-.097.205-.087.098-.174.098-.041 0-.072-.03.04-.052.087-.124.046-.072.067-.138.02-.062.02-.123 0-.129-.123-.129-.138 0-.292.144-.149.138-.262.302-.046.062-.112.195-.062.128-.113.287-.051.154-.051.303 0 .154.066.277.072.118.236.118.226 0 .385-.139.164-.143.287-.354.128-.21.23-.41.031-.061.062-.061.026 0 .026.04 0 .021-.016.052-.123.267-.251.487-.128.22-.313.349-.18.128-.466.128zm2.127-2.102q-.076 0-.128-.051-.046-.057-.046-.134 0-.097.077-.169.077-.072.17-.072.081 0 .132.052.052.05.052.123 0 .097-.077.174-.077.077-.18.077zm-.415 2.081q-.19 0-.266-.107-.077-.113-.077-.257 0-.077.015-.153.02-.082.046-.15l.344-.876q.015-.04.015-.072 0-.05-.026-.087l-.035-.056.281-.01q.077-.006.108.02.036.02.036.051 0 .031-.036.113l-.425 1-.031.067q-.026.061-.03.082l-.021.097q-.006.02-.006.026v.04q0 .067.031.113.036.047.118.047.051 0 .118-.031.067-.03.097-.062.129-.133.252-.348.128-.22.235-.436.021-.051.052-.051.025 0 .025.036 0 .02-.015.061l-.128.267q-.077.159-.185.318-.102.153-.225.256-.123.102-.267.102z" style="line-height:113.22%;-inkscape-font-specification:'Great Vibes, Normal';text-align:center" aria-label="Gaspare Tocci" font-size="4.656" font-family="Great Vibes" letter-spacing=".582" text-anchor="middle" fill="#fff" fill-rule="evenodd" stroke="#fff" stroke-width=".089" stroke-linecap="round" stroke-linejoin="bevel" stroke-miterlimit="3.7"/><path d="M12.327 42.969l-.308-1.162h.157l.177.761q.028.12.049.238l.052-.215.221-.784h.186l.166.588q.063.219.09.411.023-.11.058-.253l.183-.746h.154l-.318 1.162h-.149l-.244-.885-.037-.137q-.018.08-.034.137l-.246.885zm2.21-.271l.146.018q-.034.129-.129.2-.094.072-.24.072-.185 0-.294-.114-.107-.114-.107-.319 0-.212.109-.33.11-.117.284-.117.168 0 .275.115.107.115.107.323v.038h-.628q.008.139.078.213.07.073.176.073.079 0 .134-.04.056-.042.088-.132zm-.47-.231h.47q-.009-.106-.053-.16-.068-.082-.177-.082-.098 0-.165.066t-.074.176zm1.28.502h-.133v-1.162h.142v.414q.09-.113.231-.113.078 0 .147.032.07.03.114.088.045.056.07.136.026.08.026.171 0 .216-.107.335-.107.118-.257.118-.149 0-.234-.125zm-.002-.427q0 .15.04.218.068.11.183.11.094 0 .162-.08.068-.082.068-.243 0-.165-.066-.243-.065-.079-.158-.079t-.161.082q-.068.08-.068.235zm1.945.427v-1.162h.4q.136 0 .207.017.1.023.17.083.093.078.138.199.046.12.046.275 0 .133-.031.235-.031.102-.08.17-.048.066-.106.105-.057.038-.138.058-.081.02-.186.02zm.154-.137h.248q.115 0 .18-.022.066-.021.105-.06.054-.055.084-.147.031-.092.031-.224 0-.182-.06-.28-.06-.098-.145-.131-.062-.024-.199-.024h-.244zm1.928-.134l.148.018q-.035.129-.13.2-.094.072-.24.072-.185 0-.294-.114-.107-.114-.107-.319 0-.212.109-.33.11-.117.284-.117.168 0 .275.115.107.115.107.323v.038h-.628q.008.139.078.213.071.073.176.073.079 0 .134-.04.056-.042.088-.132zm-.468-.231h.47q-.01-.106-.054-.16-.068-.082-.177-.082-.098 0-.165.066t-.074.176zm1.09.25l.14-.022q.013.085.067.13.054.045.152.045t.145-.04q.048-.04.048-.094 0-.048-.042-.076-.03-.019-.146-.048-.157-.04-.218-.068-.06-.03-.092-.08-.03-.052-.03-.113 0-.057.025-.104.026-.049.07-.08.034-.025.09-.041.059-.018.124-.018.1 0 .174.029.075.028.11.077.036.049.05.13l-.14.02q-.01-.066-.055-.102-.045-.037-.128-.037-.099 0-.14.033-.043.032-.043.076 0 .028.018.05.017.023.054.038.022.008.126.036.152.04.211.067.06.025.095.074.034.05.034.122t-.042.135q-.042.063-.12.098-.078.034-.178.034-.164 0-.25-.069-.085-.068-.11-.202zm1.221-.746v-.164h.143v.164zm0 .998v-.842h.143v.842zm.686.07l.138.02q.01.064.049.093.053.04.145.04.099 0 .153-.04.054-.04.073-.11.01-.044.01-.184-.094.11-.233.11-.174 0-.269-.125-.095-.125-.095-.3 0-.12.044-.222.043-.102.126-.157.083-.056.195-.056.149 0 .245.12v-.1h.132v.727q0 .196-.04.278-.04.082-.127.13-.087.047-.213.047-.151 0-.244-.068-.092-.067-.09-.204zm.118-.506q0 .165.066.241.065.077.164.077t.165-.076q.067-.076.067-.237 0-.155-.07-.233-.067-.079-.164-.079-.095 0-.162.078-.066.077-.066.229zm1.162.436v-.842h.129v.12q.092-.139.268-.139.076 0 .14.028.063.027.095.071.032.045.044.106.008.04.008.138v.518h-.142v-.512q0-.087-.017-.13-.017-.044-.06-.07-.041-.025-.099-.025-.09 0-.157.058-.066.057-.066.219v.46zm1.831-.271l.147.018q-.034.129-.129.2-.094.072-.24.072-.185 0-.294-.114-.108-.114-.108-.319 0-.212.11-.33.11-.117.283-.117.17 0 .276.115.107.115.107.323v.038h-.628q.008.139.078.213.07.073.176.073.079 0 .134-.04.056-.042.088-.132zm-.468-.231h.47q-.01-.106-.054-.16-.068-.082-.177-.082-.098 0-.166.066-.066.066-.073.176zm1.145.502v-.842h.128v.128q.05-.09.09-.118.043-.029.093-.029.072 0 .146.046l-.049.132q-.052-.03-.105-.03-.046 0-.084.028-.037.028-.053.078-.023.076-.023.166v.44zm.787.02l.337-1.202h.114l-.336 1.201zm.928-.02v-1.162h.4q.136 0 .207.017.1.023.17.083.092.078.138.199.046.12.046.275 0 .133-.031.235-.031.102-.08.17-.048.066-.106.105-.057.038-.138.058-.081.02-.187.02zm.154-.137h.248q.115 0 .18-.022.066-.021.104-.06.055-.055.085-.147.031-.092.031-.224 0-.182-.06-.28-.06-.098-.145-.131-.062-.024-.199-.024h-.244zm1.928-.134l.147.018q-.034.129-.129.2-.094.072-.24.072-.185 0-.294-.114-.108-.114-.108-.319 0-.212.11-.33.11-.117.283-.117.17 0 .276.115.107.115.107.323v.038h-.628q.008.139.078.213.07.073.176.073.079 0 .134-.04.056-.042.088-.132zm-.468-.231h.47q-.01-.106-.054-.16-.068-.082-.177-.082-.098 0-.166.066-.066.066-.073.176zm1.38.502l-.32-.842h.15l.181.504q.03.082.054.17.02-.067.053-.16l.187-.514h.147l-.319.842zm1.506-.271l.147.018q-.034.129-.129.2-.094.072-.24.072-.185 0-.294-.114-.108-.114-.108-.319 0-.212.11-.33.11-.117.283-.117.17 0 .276.115.107.115.107.323v.038h-.628q.008.139.078.213.07.073.176.073.079 0 .134-.04.056-.042.088-.132zm-.468-.231h.47q-.01-.106-.054-.16-.068-.082-.177-.082-.098 0-.166.066-.066.066-.073.176zm1.143.502v-1.162h.143v1.162zm.663-.421q0-.234.13-.346.109-.094.265-.094.173 0 .283.114.11.114.11.314 0 .162-.049.256-.048.093-.141.144-.093.052-.203.052-.177 0-.286-.114-.109-.113-.109-.326zm.147 0q0 .162.07.242.07.08.178.08.106 0 .176-.08.07-.081.07-.247 0-.156-.07-.236-.07-.08-.176-.08-.107 0-.178.08-.07.08-.07.24zm1.16.743v-1.164h.13v.11q.047-.065.104-.096.058-.033.14-.033.108 0 .19.056.083.055.125.156.042.101.042.222 0 .129-.046.232-.046.103-.135.159-.088.055-.186.055-.07 0-.128-.03-.056-.03-.093-.077v.41zm.13-.738q0 .162.066.24.065.077.159.077.095 0 .162-.08.069-.08.069-.25 0-.16-.067-.24-.066-.08-.158-.08-.09 0-.161.085-.07.085-.07.248zm1.701.145l.148.018q-.035.129-.13.2-.094.072-.24.072-.185 0-.293-.114-.108-.114-.108-.319 0-.212.11-.33.108-.117.283-.117.169 0 .276.115.106.115.106.323v.038h-.628q.008.139.079.213.07.073.176.073.078 0 .133-.04.056-.042.088-.132zm-.468-.231h.47q-.01-.106-.054-.16-.068-.082-.177-.082-.098 0-.165.066t-.074.176zm1.145.502v-.842h.129v.128q.049-.09.09-.118.042-.029.092-.029.072 0 .146.046l-.049.132q-.052-.03-.104-.03-.047 0-.084.028-.037.028-.053.078-.024.076-.024.166v.44z" style="line-height:113.22%;-inkscape-font-specification:'Arial, Normal';text-align:center" aria-label="Web Designer/Developer" font-size="1.474" font-family="Arial" letter-spacing=".32" text-anchor="middle" fill="#fff" fill-rule="evenodd" stroke="#fff" stroke-width=".056" stroke-linecap="round" stroke-linejoin="bevel" stroke-miterlimit="3.7"/><path d="M0 56.302h100V110H0z" fill-rule="evenodd"/><path d="M99.262 83.151A49.262 26.642 0 0150 109.793 49.262 26.642 0 01.738 83.151 49.262 26.642 0 0150 56.51a49.262 26.642 0 0149.262 26.642z" opacity=".587" fill="url(#prefix__k)" fill-rule="evenodd"/><path d="M75.437 90.97a18.047 9.195 0 00-18.082 9.176 18.047 9.195 0 0018.012 9.213 18.047 9.195 0 0018.082-9.177 18.047 9.195 0 00-18.012-9.213z" opacity=".587" fill="none"/><g><path d="M41.198 68.151h17.604c3.434 0 6.198 2.742 6.198 6.148v17.705c0 3.405-2.764 6.147-6.198 6.147H41.198c-3.434 0-6.198-2.742-6.198-6.147V74.299c0-3.406 2.764-6.148 6.198-6.148z" fill-rule="evenodd"/><path d="M38.099000000000004 71.102c.274 0 .496.22.496.492a.494.494 0 01-.496.492.494.494 0 01-.496-.492c0-.272.222-.492.496-.492zm.992 0c.274 0 .496.22.496.492a.494.494 0 01-.496.492.494.494 0 01-.496-.492c0-.272.222-.492.496-.492zm.992 0c.274 0 .496.22.496.492a.494.494 0 01-.496.492.494.494 0 01-.496-.492c0-.272.222-.492.496-.492zm.991 0c.274 0 .496.22.496.492a.494.494 0 01-.496.492.494.494 0 01-.495-.492c0-.272.222-.492.495-.492zm.992 0c.274 0 .496.22.496.492a.494.494 0 01-.496.492.494.494 0 01-.496-.492c0-.272.222-.492.496-.492zm.992 0c.274 0 .496.22.496.492a.494.494 0 01-.496.492.494.494 0 01-.496-.492c0-.272.222-.492.496-.492zm.992 0c.273 0 .495.22.495.492a.494.494 0 01-.495.492.494.494 0 01-.496-.492c0-.272.222-.492.496-.492zm1.983 0c.274 0 .496.22.496.492a.494.494 0 01-.496.492.494.494 0 01-.496-.492c0-.272.222-.492.496-.492zm2.975 0c.274 0 .496.22.496.492a.494.494 0 01-.496.492.494.494 0 01-.496-.492c0-.272.222-.492.496-.492zm.992 0c.274 0 .496.22.496.492a.494.494 0 01-.496.492.494.494 0 01-.496-.492c0-.272.222-.492.496-.492zm.992 0c.274 0 .496.22.496.492a.494.494 0 01-.496.492.494.494 0 01-.496-.492c0-.272.222-.492.496-.492zm.991 0c.274 0 .496.22.496.492a.494.494 0 01-.496.492.494.494 0 01-.495-.492c0-.272.222-.492.495-.492zm3.967 0c.274 0 .496.22.496.492a.494.494 0 01-.496.492.494.494 0 01-.495-.492c0-.272.222-.492.495-.492zm.992 0c.274 0 .496.22.496.492a.494.494 0 01-.496.492.494.494 0 01-.496-.492c0-.272.222-.492.496-.492zm.992 0c.274 0 .496.22.496.492a.494.494 0 01-.496.492.494.494 0 01-.496-.492c0-.272.222-.492.496-.492zm.992 0c.273 0 .495.22.495.492a.494.494 0 01-.495.492.494.494 0 01-.496-.492c0-.272.222-.492.496-.492zm.991 0c.274 0 .496.22.496.492a.494.494 0 01-.496.492.494.494 0 01-.496-.492c0-.272.222-.492.496-.492zm.992 0c.274 0 .496.22.496.492a.494.494 0 01-.496.492.494.494 0 01-.496-.492c0-.272.222-.492.496-.492zm.992 0c.274 0 .496.22.496.492a.494.494 0 01-.496.492.494.494 0 01-.496-.492c0-.272.222-.492.496-.492zm-23.802.984c.274 0 .496.22.496.491a.494.494 0 01-.496.492.494.494 0 01-.496-.492c0-.271.222-.491.496-.491zM44.05 72.086c.273 0 .495.22.495.491a.494.494 0 01-.495.492.494.494 0 01-.496-.492c0-.271.222-.491.496-.491zm1.983 0c.274 0 .496.22.496.491a.494.494 0 01-.496.492.494.494 0 01-.496-.492c0-.271.222-.491.496-.491zm.992 0c.274 0 .496.22.496.491a.494.494 0 01-.496.492.494.494 0 01-.496-.492c0-.271.222-.491.496-.491zm.992 0c.273 0 .495.22.495.491a.494.494 0 01-.495.492.494.494 0 01-.496-.492c0-.271.222-.491.496-.491zm1.983 0c.274 0 .496.22.496.491a.494.494 0 01-.496.492.494.494 0 01-.496-.492c0-.271.222-.491.496-.491zm.992 0c.274 0 .496.22.496.491a.494.494 0 01-.496.492.494.494 0 01-.496-.492c0-.271.222-.491.496-.491zm.991 0c.274 0 .496.22.496.491a.494.494 0 01-.496.492.494.494 0 01-.495-.492c0-.271.222-.491.495-.491zm3.967 0c.274 0 .496.22.496.491a.494.494 0 01-.496.492.494.494 0 01-.495-.492c0-.271.222-.491.495-.491zM61.901 72.086c.274 0 .496.22.496.491a.494.494 0 01-.496.492.494.494 0 01-.496-.492c0-.271.222-.491.496-.491zm-23.802.983c.274 0 .496.22.496.492a.494.494 0 01-.496.492.494.494 0 01-.496-.492c0-.272.222-.492.496-.492zm1.984 0c.274 0 .496.22.496.492a.494.494 0 01-.496.492.494.494 0 01-.496-.492c0-.272.222-.492.496-.492zm.991 0c.274 0 .496.22.496.492a.494.494 0 01-.496.492.494.494 0 01-.495-.492c0-.272.222-.492.495-.492zm.992 0c.274 0 .496.22.496.492a.494.494 0 01-.496.492.494.494 0 01-.496-.492c0-.272.222-.492.496-.492zm1.984 0c.273 0 .495.22.495.492a.494.494 0 01-.495.492.494.494 0 01-.496-.492c0-.272.222-.492.496-.492zm3.967 0c.273 0 .495.22.495.492a.494.494 0 01-.495.492.494.494 0 01-.496-.492c0-.272.222-.492.496-.492zm.991 0c.274 0 .496.22.496.492a.494.494 0 01-.496.492.494.494 0 01-.496-.492c0-.272.222-.492.496-.492zm.992 0c.274 0 .496.22.496.492a.494.494 0 01-.496.492.494.494 0 01-.496-.492c0-.272.222-.492.496-.492zm.992 0c.274 0 .496.22.496.492a.494.494 0 01-.496.492.494.494 0 01-.496-.492c0-.272.222-.492.496-.492zm4.958 0c.274 0 .496.22.496.492a.494.494 0 01-.496.492.494.494 0 01-.495-.492c0-.272.222-.492.495-.492zm1.984 0c.274 0 .496.22.496.492a.494.494 0 01-.496.492.494.494 0 01-.496-.492c0-.272.222-.492.496-.492zm.992 0c.273 0 .495.22.495.492a.494.494 0 01-.495.492.494.494 0 01-.496-.492c0-.272.222-.492.496-.492zm.991 0c.274 0 .496.22.496.492a.494.494 0 01-.496.492.494.494 0 01-.496-.492c0-.272.222-.492.496-.492zm1.984 0c.274 0 .496.22.496.492a.494.494 0 01-.496.492.494.494 0 01-.496-.492c0-.272.222-.492.496-.492zm-23.802.984c.274 0 .496.22.496.492a.494.494 0 01-.496.491.494.494 0 01-.496-.491c0-.272.222-.492.496-.492zm1.984 0c.274 0 .496.22.496.492a.494.494 0 01-.496.491.494.494 0 01-.496-.491c0-.272.222-.492.496-.492zm.991 0c.274 0 .496.22.496.492a.494.494 0 01-.496.491.494.494 0 01-.495-.491c0-.272.222-.492.495-.492zm.992 0c.274 0 .496.22.496.492a.494.494 0 01-.496.491.494.494 0 01-.496-.491c0-.272.222-.492.496-.492zm1.984 0c.273 0 .495.22.495.492a.494.494 0 01-.495.491.494.494 0 01-.496-.491c0-.272.222-.492.496-.492zm3.967 0c.273 0 .495.22.495.492a.494.494 0 01-.495.491.494.494 0 01-.496-.491c0-.272.222-.492.496-.492zm2.975 0c.274 0 .496.22.496.492a.494.494 0 01-.496.491.494.494 0 01-.496-.491c0-.272.222-.492.496-.492zm.991 0c.274 0 .496.22.496.492a.494.494 0 01-.496.491.494.494 0 01-.495-.491c0-.272.222-.492.495-.492zm.992 0c.274 0 .496.22.496.492a.494.494 0 01-.496.491.494.494 0 01-.496-.491c0-.272.222-.492.496-.492zm2.975 0c.274 0 .496.22.496.492a.494.494 0 01-.496.491.494.494 0 01-.495-.491c0-.272.222-.492.495-.492zm1.984 0c.274 0 .496.22.496.492a.494.494 0 01-.496.491.494.494 0 01-.496-.491c0-.272.222-.492.496-.492zm.992 0c.273 0 .495.22.495.492a.494.494 0 01-.495.491.494.494 0 01-.496-.491c0-.272.222-.492.496-.492zm.991 0c.274 0 .496.22.496.492a.494.494 0 01-.496.491.494.494 0 01-.496-.491c0-.272.222-.492.496-.492zm1.984 0c.274 0 .496.22.496.492a.494.494 0 01-.496.491.494.494 0 01-.496-.491c0-.272.222-.492.496-.492zm-23.802.983c.274 0 .496.22.496.492a.494.494 0 01-.496.492.494.494 0 01-.496-.492c0-.271.222-.492.496-.492zm1.984 0c.274 0 .496.22.496.492a.494.494 0 01-.496.492.494.494 0 01-.496-.492c0-.271.222-.492.496-.492zm.991 0c.274 0 .496.22.496.492a.494.494 0 01-.496.492.494.494 0 01-.495-.492c0-.271.222-.492.495-.492zm.992 0c.274 0 .496.22.496.492a.494.494 0 01-.496.492.494.494 0 01-.496-.492c0-.271.222-.492.496-.492zm1.984 0c.273 0 .495.22.495.492a.494.494 0 01-.495.492.494.494 0 01-.496-.492c0-.271.222-.492.496-.492zm1.983 0c.274 0 .496.22.496.492a.494.494 0 01-.496.492.494.494 0 01-.496-.492c0-.271.222-.492.496-.492zm.992 0c.274 0 .496.22.496.492a.494.494 0 01-.496.492.494.494 0 01-.496-.492c0-.271.222-.492.496-.492zm.992 0c.273 0 .495.22.495.492a.494.494 0 01-.495.492.494.494 0 01-.496-.492c0-.271.222-.492.496-.492zm.991 0c.274 0 .496.22.496.492a.494.494 0 01-.496.492.494.494 0 01-.496-.492c0-.271.222-.492.496-.492zm2.975 0c.274 0 .496.22.496.492a.494.494 0 01-.496.492.494.494 0 01-.495-.492c0-.271.222-.492.495-.492zm1.984 0c.274 0 .496.22.496.492a.494.494 0 01-.496.492.494.494 0 01-.496-.492c0-.271.222-.492.496-.492zm1.983 0c.274 0 .496.22.496.492a.494.494 0 01-.496.492.494.494 0 01-.495-.492c0-.271.222-.492.495-.492zm1.984 0c.274 0 .496.22.496.492a.494.494 0 01-.496.492.494.494 0 01-.496-.492c0-.271.222-.492.496-.492zm.992 0c.273 0 .495.22.495.492a.494.494 0 01-.495.492.494.494 0 01-.496-.492c0-.271.222-.492.496-.492zm.991 0c.274 0 .496.22.496.492a.494.494 0 01-.496.492.494.494 0 01-.496-.492c0-.271.222-.492.496-.492zm1.984 0c.274 0 .496.22.496.492a.494.494 0 01-.496.492.494.494 0 01-.496-.492c0-.271.222-.492.496-.492zm-23.802.984c.274 0 .496.22.496.492a.494.494 0 01-.496.492.494.494 0 01-.496-.492c0-.272.222-.492.496-.492zM44.05 76.02c.273 0 .495.22.495.492a.494.494 0 01-.495.492.494.494 0 01-.496-.492c0-.272.222-.492.496-.492zm1.983 0c.274 0 .496.22.496.492a.494.494 0 01-.496.492.494.494 0 01-.496-.492c0-.272.222-.492.496-.492zm2.975 0c.274 0 .496.22.496.492a.494.494 0 01-.496.492.494.494 0 01-.496-.492c0-.272.222-.492.496-.492zm6.942 0c.274 0 .496.22.496.492a.494.494 0 01-.496.492.494.494 0 01-.495-.492c0-.272.222-.492.495-.492zM61.901 76.02c.274 0 .496.22.496.492a.494.494 0 01-.496.492.494.494 0 01-.496-.492c0-.272.222-.492.496-.492zm-23.802.984c.274 0 .496.22.496.491a.494.494 0 01-.496.492.494.494 0 01-.496-.492c0-.271.222-.491.496-.491zm.992 0c.274 0 .496.22.496.491a.494.494 0 01-.496.492.494.494 0 01-.496-.492c0-.271.222-.491.496-.491zm.992 0c.274 0 .496.22.496.491a.494.494 0 01-.496.492.494.494 0 01-.496-.492c0-.271.222-.491.496-.491zm.991 0c.274 0 .496.22.496.491a.494.494 0 01-.496.492.494.494 0 01-.495-.492c0-.271.222-.491.495-.491zm.992 0c.274 0 .496.22.496.491a.494.494 0 01-.496.492.494.494 0 01-.496-.492c0-.271.222-.491.496-.491zm.992 0c.274 0 .496.22.496.491a.494.494 0 01-.496.492.494.494 0 01-.496-.492c0-.271.222-.491.496-.491zm.992 0c.273 0 .495.22.495.491a.494.494 0 01-.495.492.494.494 0 01-.496-.492c0-.271.222-.491.496-.491zm1.983 0c.274 0 .496.22.496.491a.494.494 0 01-.496.492.494.494 0 01-.496-.492c0-.271.222-.491.496-.491zm1.984 0c.273 0 .495.22.495.491a.494.494 0 01-.495.492.494.494 0 01-.496-.492c0-.271.222-.491.496-.491zm1.983 0c.274 0 .496.22.496.491a.494.494 0 01-.496.492.494.494 0 01-.496-.492c0-.271.222-.491.496-.491zm1.983 0c.274 0 .496.22.496.491a.494.494 0 01-.496.492.494.494 0 01-.495-.492c0-.271.222-.491.495-.491zm1.984 0c.274 0 .496.22.496.491a.494.494 0 01-.496.492.494.494 0 01-.496-.492c0-.271.222-.491.496-.491zm1.983 0c.274 0 .496.22.496.491a.494.494 0 01-.496.492.494.494 0 01-.495-.492c0-.271.222-.491.495-.491zm.992 0c.274 0 .496.22.496.491a.494.494 0 01-.496.492.494.494 0 01-.496-.492c0-.271.222-.491.496-.491zm.992 0c.274 0 .496.22.496.491a.494.494 0 01-.496.492.494.494 0 01-.496-.492c0-.271.222-.491.496-.491zm.992 0c.273 0 .495.22.495.491a.494.494 0 01-.495.492.494.494 0 01-.496-.492c0-.271.222-.491.496-.491zm.991 0c.274 0 .496.22.496.491a.494.494 0 01-.496.492.494.494 0 01-.496-.492c0-.271.222-.491.496-.491zm.992 0c.274 0 .496.22.496.491a.494.494 0 01-.496.492.494.494 0 01-.496-.492c0-.271.222-.491.496-.491zm.992 0c.274 0 .496.22.496.491a.494.494 0 01-.496.492.494.494 0 01-.496-.492c0-.271.222-.491.496-.491zm-15.868.983c.274 0 .496.22.496.492a.494.494 0 01-.496.492.494.494 0 01-.496-.492c0-.272.222-.492.496-.492zm1.984 0c.273 0 .495.22.495.492a.494.494 0 01-.495.492.494.494 0 01-.496-.492c0-.272.222-.492.496-.492zm.991 0c.274 0 .496.22.496.492a.494.494 0 01-.496.492.494.494 0 01-.496-.492c0-.272.222-.492.496-.492zm.992 0c.274 0 .496.22.496.492a.494.494 0 01-.496.492.494.494 0 01-.496-.492c0-.272.222-.492.496-.492zm1.983 0c.274 0 .496.22.496.492a.494.494 0 01-.496.492.494.494 0 01-.495-.492c0-.272.222-.492.495-.492zm.992 0c.274 0 .496.22.496.492a.494.494 0 01-.496.492.494.494 0 01-.496-.492c0-.272.222-.492.496-.492zm.992 0c.274 0 .496.22.496.492a.494.494 0 01-.496.492.494.494 0 01-.496-.492c0-.272.222-.492.496-.492zm-15.868.984c.274 0 .496.22.496.492a.494.494 0 01-.496.491.494.494 0 01-.496-.491c0-.272.222-.492.496-.492zm.992 0c.274 0 .496.22.496.492a.494.494 0 01-.496.491.494.494 0 01-.496-.491c0-.272.222-.492.496-.492zm.992 0c.274 0 .496.22.496.492a.494.494 0 01-.496.491.494.494 0 01-.496-.491c0-.272.222-.492.496-.492zm2.975 0c.274 0 .496.22.496.492a.494.494 0 01-.496.491.494.494 0 01-.496-.491c0-.272.222-.492.496-.492zm.992 0c.273 0 .495.22.495.492a.494.494 0 01-.495.491.494.494 0 01-.496-.491c0-.272.222-.492.496-.492zm1.983 0c.274 0 .496.22.496.492a.494.494 0 01-.496.491.494.494 0 01-.496-.491c0-.272.222-.492.496-.492zm.992 0c.274 0 .496.22.496.492a.494.494 0 01-.496.491.494.494 0 01-.496-.491c0-.272.222-.492.496-.492zm.992 0c.273 0 .495.22.495.492a.494.494 0 01-.495.491.494.494 0 01-.496-.491c0-.272.222-.492.496-.492zm1.983 0c.274 0 .496.22.496.492a.494.494 0 01-.496.491.494.494 0 01-.496-.491c0-.272.222-.492.496-.492zm2.975 0c.274 0 .496.22.496.492a.494.494 0 01-.496.491.494.494 0 01-.496-.491c0-.272.222-.492.496-.492zm1.984 0c.274 0 .496.22.496.492a.494.494 0 01-.496.491.494.494 0 01-.496-.491c0-.272.222-.492.496-.492zm.991 0c.274 0 .496.22.496.492a.494.494 0 01-.496.491.494.494 0 01-.495-.491c0-.272.222-.492.495-.492zm.992 0c.274 0 .496.22.496.492a.494.494 0 01-.496.491.494.494 0 01-.496-.491c0-.272.222-.492.496-.492zm.992 0c.274 0 .496.22.496.492a.494.494 0 01-.496.491.494.494 0 01-.496-.491c0-.272.222-.492.496-.492zm2.975 0c.274 0 .496.22.496.492a.494.494 0 01-.496.491.494.494 0 01-.496-.491c0-.272.222-.492.496-.492zm.992 0c.274 0 .496.22.496.492a.494.494 0 01-.496.491.494.494 0 01-.496-.491c0-.272.222-.492.496-.492zm-23.802.983c.274 0 .496.22.496.492a.494.494 0 01-.496.492.494.494 0 01-.496-.492c0-.271.222-.492.496-.492zm1.984 0c.274 0 .496.22.496.492a.494.494 0 01-.496.492.494.494 0 01-.496-.492c0-.271.222-.492.496-.492zm2.975 0c.274 0 .496.22.496.492a.494.494 0 01-.496.492.494.494 0 01-.496-.492c0-.271.222-.492.496-.492zm1.983 0c.274 0 .496.22.496.492a.494.494 0 01-.496.492.494.494 0 01-.496-.492c0-.271.222-.492.496-.492zm1.984 0c.274 0 .496.22.496.492a.494.494 0 01-.496.492.494.494 0 01-.496-.492c0-.271.222-.492.496-.492zm.992 0c.273 0 .495.22.495.492a.494.494 0 01-.495.492.494.494 0 01-.496-.492c0-.271.222-.492.496-.492zm3.966 0c.274 0 .496.22.496.492a.494.494 0 01-.496.492.494.494 0 01-.495-.492c0-.271.222-.492.495-.492zm.992 0c.274 0 .496.22.496.492a.494.494 0 01-.496.492.494.494 0 01-.496-.492c0-.271.222-.492.496-.492zm2.975 0c.274 0 .496.22.496.492a.494.494 0 01-.496.492.494.494 0 01-.495-.492c0-.271.222-.492.495-.492zm.992 0c.274 0 .496.22.496.492a.494.494 0 01-.496.492.494.494 0 01-.496-.492c0-.271.222-.492.496-.492zm1.984 0c.273 0 .495.22.495.492a.494.494 0 01-.495.492.494.494 0 01-.496-.492c0-.271.222-.492.496-.492zm1.983 0c.274 0 .496.22.496.492a.494.494 0 01-.496.492.494.494 0 01-.496-.492c0-.271.222-.492.496-.492zm.992 0c.274 0 .496.22.496.492a.494.494 0 01-.496.492.494.494 0 01-.496-.492c0-.271.222-.492.496-.492zm-23.802.984c.274 0 .496.22.496.492a.494.494 0 01-.496.492.494.494 0 01-.496-.492c0-.272.222-.492.496-.492zm2.975 0c.274 0 .496.22.496.492a.494.494 0 01-.496.492.494.494 0 01-.495-.492c0-.272.222-.492.495-.492zm1.984 0c.274 0 .496.22.496.492a.494.494 0 01-.496.492.494.494 0 01-.496-.492c0-.272.222-.492.496-.492zm.992 0c.273 0 .495.22.495.492a.494.494 0 01-.495.492.494.494 0 01-.496-.492c0-.272.222-.492.496-.492zm.991 0c.274 0 .496.22.496.492a.494.494 0 01-.496.492.494.494 0 01-.496-.492c0-.272.222-.492.496-.492zm.992 0c.274 0 .496.22.496.492a.494.494 0 01-.496.492.494.494 0 01-.496-.492c0-.272.222-.492.496-.492zm2.975 0c.274 0 .496.22.496.492a.494.494 0 01-.496.492.494.494 0 01-.496-.492c0-.272.222-.492.496-.492zm1.984 0c.274 0 .496.22.496.492a.494.494 0 01-.496.492.494.494 0 01-.496-.492c0-.272.222-.492.496-.492zm1.983 0c.274 0 .496.22.496.492a.494.494 0 01-.496.492.494.494 0 01-.496-.492c0-.272.222-.492.496-.492zm1.984 0c.274 0 .496.22.496.492a.494.494 0 01-.496.492.494.494 0 01-.496-.492c0-.272.222-.492.496-.492zm1.983 0c.274 0 .496.22.496.492a.494.494 0 01-.496.492.494.494 0 01-.496-.492c0-.272.222-.492.496-.492zm1.984 0c.273 0 .495.22.495.492a.494.494 0 01-.495.492.494.494 0 01-.496-.492c0-.272.222-.492.496-.492zm.991 0c.274 0 .496.22.496.492a.494.494 0 01-.496.492.494.494 0 01-.496-.492c0-.272.222-.492.496-.492zm1.984 0c.274 0 .496.22.496.492a.494.494 0 01-.496.492.494.494 0 01-.496-.492c0-.272.222-.492.496-.492zm-23.802.984c.274 0 .496.22.496.491a.494.494 0 01-.496.492.494.494 0 01-.496-.492c0-.271.222-.491.496-.491zm.992 0c.274 0 .496.22.496.491a.494.494 0 01-.496.492.494.494 0 01-.496-.492c0-.271.222-.491.496-.491zm.992 0c.274 0 .496.22.496.491a.494.494 0 01-.496.492.494.494 0 01-.496-.492c0-.271.222-.491.496-.491zm2.975 0c.274 0 .496.22.496.491a.494.494 0 01-.496.492.494.494 0 01-.496-.492c0-.271.222-.491.496-.491zm2.975 0c.274 0 .496.22.496.491a.494.494 0 01-.496.492.494.494 0 01-.496-.492c0-.271.222-.491.496-.491zm.992 0c.274 0 .496.22.496.491a.494.494 0 01-.496.492.494.494 0 01-.496-.492c0-.271.222-.491.496-.491zm1.983 0c.274 0 .496.22.496.491a.494.494 0 01-.496.492.494.494 0 01-.496-.492c0-.271.222-.491.496-.491zm.992 0c.274 0 .496.22.496.491a.494.494 0 01-.496.492.494.494 0 01-.496-.492c0-.271.222-.491.496-.491zm2.975 0c.274 0 .496.22.496.491a.494.494 0 01-.496.492.494.494 0 01-.496-.492c0-.271.222-.491.496-.491zm.992 0c.274 0 .496.22.496.491a.494.494 0 01-.496.492.494.494 0 01-.496-.492c0-.271.222-.491.496-.491zm.992 0c.274 0 .496.22.496.491a.494.494 0 01-.496.492.494.494 0 01-.496-.492c0-.271.222-.491.496-.491zm3.967 0c.273 0 .495.22.495.491a.494.494 0 01-.495.492.494.494 0 01-.496-.492c0-.271.222-.491.496-.491zm-18.843.983c.274 0 .496.22.496.492a.494.494 0 01-.496.492.494.494 0 01-.496-.492c0-.272.222-.492.496-.492zm.991 0c.274 0 .496.22.496.492a.494.494 0 01-.496.492.494.494 0 01-.495-.492c0-.272.222-.492.495-.492zm1.984 0c.274 0 .496.22.496.492a.494.494 0 01-.496.492.494.494 0 01-.496-.492c0-.272.222-.492.496-.492zm.992 0c.273 0 .495.22.495.492a.494.494 0 01-.495.492.494.494 0 01-.496-.492c0-.272.222-.492.496-.492zm1.983 0c.274 0 .496.22.496.492a.494.494 0 01-.496.492.494.494 0 01-.496-.492c0-.272.222-.492.496-.492zm.992 0c.274 0 .496.22.496.492a.494.494 0 01-.496.492.494.494 0 01-.496-.492c0-.272.222-.492.496-.492zm2.975 0c.274 0 .496.22.496.492a.494.494 0 01-.496.492.494.494 0 01-.496-.492c0-.272.222-.492.496-.492zm2.975 0c.274 0 .496.22.496.492a.494.494 0 01-.496.492.494.494 0 01-.496-.492c0-.272.222-.492.496-.492zm2.975 0c.274 0 .496.22.496.492a.494.494 0 01-.496.492.494.494 0 01-.495-.492c0-.272.222-.492.495-.492zM61.901 82.905c.274 0 .496.22.496.492a.494.494 0 01-.496.492.494.494 0 01-.496-.492c0-.272.222-.492.496-.492zm-21.818.984c.274 0 .496.22.496.492a.494.494 0 01-.496.491.494.494 0 01-.496-.491c0-.272.222-.492.496-.492zm.991 0c.274 0 .496.22.496.492a.494.494 0 01-.496.491.494.494 0 01-.495-.491c0-.272.222-.492.495-.492zM49.008 83.889c.274 0 .496.22.496.492a.494.494 0 01-.496.491.494.494 0 01-.496-.491c0-.272.222-.492.496-.492zm1.984 0c.274 0 .496.22.496.492a.494.494 0 01-.496.491.494.494 0 01-.496-.491c0-.272.222-.492.496-.492zm1.983 0c.274 0 .496.22.496.492a.494.494 0 01-.496.491.494.494 0 01-.496-.491c0-.272.222-.492.496-.492zm2.975 0c.274 0 .496.22.496.492a.494.494 0 01-.496.491.494.494 0 01-.495-.491c0-.272.222-.492.495-.492zm.992 0c.274 0 .496.22.496.492a.494.494 0 01-.496.491.494.494 0 01-.496-.491c0-.272.222-.492.496-.492zm3.967 0c.274 0 .496.22.496.492a.494.494 0 01-.496.491.494.494 0 01-.496-.491c0-.272.222-.492.496-.492zm.992 0c.274 0 .496.22.496.492a.494.494 0 01-.496.491.494.494 0 01-.496-.491c0-.272.222-.492.496-.492zm-23.802.983c.274 0 .496.22.496.492a.494.494 0 01-.496.492.494.494 0 01-.496-.492c0-.271.222-.492.496-.492zm.992 0c.274 0 .496.22.496.492a.494.494 0 01-.496.492.494.494 0 01-.496-.492c0-.271.222-.492.496-.492zm1.983 0c.274 0 .496.22.496.492a.494.494 0 01-.496.492.494.494 0 01-.495-.492c0-.271.222-.492.495-.492zm2.976 0c.273 0 .495.22.495.492a.494.494 0 01-.495.492.494.494 0 01-.496-.492c0-.271.222-.492.496-.492zm1.983 0c.274 0 .496.22.496.492a.494.494 0 01-.496.492.494.494 0 01-.496-.492c0-.271.222-.492.496-.492zm1.984 0c.273 0 .495.22.495.492a.494.494 0 01-.495.492.494.494 0 01-.496-.492c0-.271.222-.492.496-.492zm.991 0c.274 0 .496.22.496.492a.494.494 0 01-.496.492.494.494 0 01-.496-.492c0-.271.222-.492.496-.492zm1.984 0c.274 0 .496.22.496.492a.494.494 0 01-.496.492.494.494 0 01-.496-.492c0-.271.222-.492.496-.492zm.991 0c.274 0 .496.22.496.492a.494.494 0 01-.496.492.494.494 0 01-.495-.492c0-.271.222-.492.495-.492zm.992 0c.274 0 .496.22.496.492a.494.494 0 01-.496.492.494.494 0 01-.496-.492c0-.271.222-.492.496-.492zm2.975 0c.274 0 .496.22.496.492a.494.494 0 01-.496.492.494.494 0 01-.495-.492c0-.271.222-.492.495-.492zm2.976 0c.273 0 .495.22.495.492a.494.494 0 01-.495.492.494.494 0 01-.496-.492c0-.271.222-.492.496-.492zm.991 0c.274 0 .496.22.496.492a.494.494 0 01-.496.492.494.494 0 01-.496-.492c0-.271.222-.492.496-.492zm1.984 0c.274 0 .496.22.496.492a.494.494 0 01-.496.492.494.494 0 01-.496-.492c0-.271.222-.492.496-.492zM42.066 85.856c.274 0 .496.22.496.492a.494.494 0 01-.496.492.494.494 0 01-.496-.492c0-.272.222-.492.496-.492zm2.975 0c.274 0 .496.22.496.492a.494.494 0 01-.496.492.494.494 0 01-.496-.492c0-.272.222-.492.496-.492zm3.967 0c.274 0 .496.22.496.492a.494.494 0 01-.496.492.494.494 0 01-.496-.492c0-.272.222-.492.496-.492zm.992 0c.274 0 .496.22.496.492a.494.494 0 01-.496.492.494.494 0 01-.496-.492c0-.272.222-.492.496-.492zm2.975 0c.274 0 .496.22.496.492a.494.494 0 01-.496.492.494.494 0 01-.496-.492c0-.272.222-.492.496-.492zm.992 0c.274 0 .496.22.496.492a.494.494 0 01-.496.492.494.494 0 01-.496-.492c0-.272.222-.492.496-.492zm.992 0c.274 0 .496.22.496.492a.494.494 0 01-.496.492.494.494 0 01-.496-.492c0-.272.222-.492.496-.492zm1.983 0c.274 0 .496.22.496.492a.494.494 0 01-.496.492.494.494 0 01-.496-.492c0-.272.222-.492.496-.492zm.992 0c.274 0 .496.22.496.492a.494.494 0 01-.496.492.494.494 0 01-.496-.492c0-.272.222-.492.496-.492zm.992 0c.273 0 .495.22.495.492a.494.494 0 01-.495.492.494.494 0 01-.496-.492c0-.272.222-.492.496-.492zm-20.827.984c.274 0 .496.22.496.491a.494.494 0 01-.496.492.494.494 0 01-.496-.492c0-.271.222-.491.496-.491zm.992 0c.274 0 .496.22.496.491a.494.494 0 01-.496.492.494.494 0 01-.496-.492c0-.271.222-.491.496-.491zm2.975 0c.274 0 .496.22.496.491a.494.494 0 01-.496.492.494.494 0 01-.496-.492c0-.271.222-.491.496-.491zm1.984 0c.273 0 .495.22.495.491a.494.494 0 01-.495.492.494.494 0 01-.496-.492c0-.271.222-.491.496-.491zm2.975 0c.274 0 .496.22.496.491a.494.494 0 01-.496.492.494.494 0 01-.496-.492c0-.271.222-.491.496-.491zm2.975 0c.274 0 .496.22.496.491a.494.494 0 01-.496.492.494.494 0 01-.496-.492c0-.271.222-.491.496-.491zm3.967 0c.274 0 .496.22.496.491a.494.494 0 01-.496.492.494.494 0 01-.496-.492c0-.271.222-.491.496-.491zm.992 0c.274 0 .496.22.496.491a.494.494 0 01-.496.492.494.494 0 01-.496-.492c0-.271.222-.491.496-.491zm.991 0c.274 0 .496.22.496.491a.494.494 0 01-.496.492.494.494 0 01-.495-.492c0-.271.222-.491.495-.491zm.992 0c.274 0 .496.22.496.491a.494.494 0 01-.496.492.494.494 0 01-.496-.492c0-.271.222-.491.496-.491zm.992 0c.274 0 .496.22.496.491a.494.494 0 01-.496.492.494.494 0 01-.496-.492c0-.271.222-.491.496-.491zm2.975 0c.274 0 .496.22.496.491a.494.494 0 01-.496.492.494.494 0 01-.496-.492c0-.271.222-.491.496-.491zm-14.876.983c.274 0 .496.22.496.492a.494.494 0 01-.496.492.494.494 0 01-.496-.492c0-.272.222-.492.496-.492zm.992 0c.274 0 .496.22.496.492a.494.494 0 01-.496.492.494.494 0 01-.496-.492c0-.272.222-.492.496-.492zm1.983 0c.274 0 .496.22.496.492a.494.494 0 01-.496.492.494.494 0 01-.496-.492c0-.272.222-.492.496-.492zm.992 0c.274 0 .496.22.496.492a.494.494 0 01-.496.492.494.494 0 01-.496-.492c0-.272.222-.492.496-.492zm1.983 0c.274 0 .496.22.496.492a.494.494 0 01-.496.492.494.494 0 01-.495-.492c0-.272.222-.492.495-.492zm1.984 0c.274 0 .496.22.496.492a.494.494 0 01-.496.492.494.494 0 01-.496-.492c0-.272.222-.492.496-.492zm3.967 0c.274 0 .496.22.496.492a.494.494 0 01-.496.492.494.494 0 01-.496-.492c0-.272.222-.492.496-.492zm3.967 0c.274 0 .496.22.496.492a.494.494 0 01-.496.492.494.494 0 01-.496-.492c0-.272.222-.492.496-.492zm-23.802.984c.274 0 .496.22.496.492a.494.494 0 01-.496.491.494.494 0 01-.496-.491c0-.272.222-.492.496-.492zm.992 0c.274 0 .496.22.496.492a.494.494 0 01-.496.491.494.494 0 01-.496-.491c0-.272.222-.492.496-.492zm.992 0c.274 0 .496.22.496.492a.494.494 0 01-.496.491.494.494 0 01-.496-.491c0-.272.222-.492.496-.492zm.991 0c.274 0 .496.22.496.492a.494.494 0 01-.496.491.494.494 0 01-.495-.491c0-.272.222-.492.495-.492zm.992 0c.274 0 .496.22.496.492a.494.494 0 01-.496.491.494.494 0 01-.496-.491c0-.272.222-.492.496-.492zm.992 0c.274 0 .496.22.496.492a.494.494 0 01-.496.491.494.494 0 01-.496-.491c0-.272.222-.492.496-.492zm.992 0c.273 0 .495.22.495.492a.494.494 0 01-.495.491.494.494 0 01-.496-.491c0-.272.222-.492.496-.492zm3.967 0c.273 0 .495.22.495.492a.494.494 0 01-.495.491.494.494 0 01-.496-.491c0-.272.222-.492.496-.492zm.991 0c.274 0 .496.22.496.492a.494.494 0 01-.496.491.494.494 0 01-.496-.491c0-.272.222-.492.496-.492zm1.984 0c.274 0 .496.22.496.492a.494.494 0 01-.496.491.494.494 0 01-.496-.491c0-.272.222-.492.496-.492zm2.975 0c.274 0 .496.22.496.492a.494.494 0 01-.496.491.494.494 0 01-.496-.491c0-.272.222-.492.496-.492zm1.983 0c.274 0 .496.22.496.492a.494.494 0 01-.496.491.494.494 0 01-.495-.491c0-.272.222-.492.495-.492zm1.984 0c.274 0 .496.22.496.492a.494.494 0 01-.496.491.494.494 0 01-.496-.491c0-.272.222-.492.496-.492zm3.967 0c.274 0 .496.22.496.492a.494.494 0 01-.496.491.494.494 0 01-.496-.491c0-.272.222-.492.496-.492zm-23.802.983c.274 0 .496.22.496.492a.494.494 0 01-.496.492.494.494 0 01-.496-.492c0-.271.222-.492.496-.492zM44.05 89.79c.273 0 .495.22.495.492a.494.494 0 01-.495.492.494.494 0 01-.496-.492c0-.271.222-.492.496-.492zm1.983 0c.274 0 .496.22.496.492a.494.494 0 01-.496.492.494.494 0 01-.496-.492c0-.271.222-.492.496-.492zm5.95 0c.274 0 .496.22.496.492a.494.494 0 01-.496.492.494.494 0 01-.495-.492c0-.271.222-.492.495-.492zm.992 0c.274 0 .496.22.496.492a.494.494 0 01-.496.492.494.494 0 01-.496-.492c0-.271.222-.492.496-.492zm.992 0c.274 0 .496.22.496.492a.494.494 0 01-.496.492.494.494 0 01-.496-.492c0-.271.222-.492.496-.492zm3.967 0c.274 0 .496.22.496.492a.494.494 0 01-.496.492.494.494 0 01-.496-.492c0-.271.222-.492.496-.492zm2.975 0c.274 0 .496.22.496.492a.494.494 0 01-.496.492.494.494 0 01-.496-.492c0-.271.222-.492.496-.492zm.992 0c.274 0 .496.22.496.492a.494.494 0 01-.496.492.494.494 0 01-.496-.492c0-.271.222-.492.496-.492zm-23.802.984c.274 0 .496.22.496.492a.494.494 0 01-.496.492.494.494 0 01-.496-.492c0-.272.222-.492.496-.492zm1.984 0c.274 0 .496.22.496.492a.494.494 0 01-.496.492.494.494 0 01-.496-.492c0-.272.222-.492.496-.492zm.991 0c.274 0 .496.22.496.492a.494.494 0 01-.496.492.494.494 0 01-.495-.492c0-.272.222-.492.495-.492zm.992 0c.274 0 .496.22.496.492a.494.494 0 01-.496.492.494.494 0 01-.496-.492c0-.272.222-.492.496-.492zm1.984 0c.273 0 .495.22.495.492a.494.494 0 01-.495.492.494.494 0 01-.496-.492c0-.272.222-.492.496-.492zm2.975 0c.274 0 .496.22.496.492a.494.494 0 01-.496.492.494.494 0 01-.496-.492c0-.272.222-.492.496-.492zm.992 0c.273 0 .495.22.495.492a.494.494 0 01-.495.492.494.494 0 01-.496-.492c0-.272.222-.492.496-.492zm1.983 0c.274 0 .496.22.496.492a.494.494 0 01-.496.492.494.494 0 01-.496-.492c0-.272.222-.492.496-.492zm2.975 0c.274 0 .496.22.496.492a.494.494 0 01-.496.492.494.494 0 01-.496-.492c0-.272.222-.492.496-.492zm.992 0c.274 0 .496.22.496.492a.494.494 0 01-.496.492.494.494 0 01-.496-.492c0-.272.222-.492.496-.492zm.992 0c.274 0 .496.22.496.492a.494.494 0 01-.496.492.494.494 0 01-.496-.492c0-.272.222-.492.496-.492zm.991 0c.274 0 .496.22.496.492a.494.494 0 01-.496.492.494.494 0 01-.495-.492c0-.272.222-.492.495-.492zm.992 0c.274 0 .496.22.496.492a.494.494 0 01-.496.492.494.494 0 01-.496-.492c0-.272.222-.492.496-.492zm.992 0c.274 0 .496.22.496.492a.494.494 0 01-.496.492.494.494 0 01-.496-.492c0-.272.222-.492.496-.492zm2.975 0c.274 0 .496.22.496.492a.494.494 0 01-.496.492.494.494 0 01-.496-.492c0-.272.222-.492.496-.492zM38.1 91.758c.274 0 .496.22.496.491a.494.494 0 01-.496.492.494.494 0 01-.496-.492c0-.271.222-.491.496-.491zm1.984 0c.274 0 .496.22.496.491a.494.494 0 01-.496.492.494.494 0 01-.496-.492c0-.271.222-.491.496-.491zm.991 0c.274 0 .496.22.496.491a.494.494 0 01-.496.492.494.494 0 01-.495-.492c0-.271.222-.491.495-.491zm.992 0c.274 0 .496.22.496.491a.494.494 0 01-.496.492.494.494 0 01-.496-.492c0-.271.222-.491.496-.491zm1.984 0c.273 0 .495.22.495.491a.494.494 0 01-.495.492.494.494 0 01-.496-.492c0-.271.222-.491.496-.491zm4.958 0c.274 0 .496.22.496.491a.494.494 0 01-.496.492.494.494 0 01-.496-.492c0-.271.222-.491.496-.491zm.992 0c.274 0 .496.22.496.491a.494.494 0 01-.496.492.494.494 0 01-.496-.492c0-.271.222-.491.496-.491zm4.959 0c.274 0 .496.22.496.491a.494.494 0 01-.496.492.494.494 0 01-.496-.492c0-.271.222-.491.496-.491zm2.975 0c.274 0 .496.22.496.491a.494.494 0 01-.496.492.494.494 0 01-.496-.492c0-.271.222-.491.496-.491zm1.983 0c.274 0 .496.22.496.491a.494.494 0 01-.496.492.494.494 0 01-.496-.492c0-.271.222-.491.496-.491zm.992 0c.274 0 .496.22.496.491a.494.494 0 01-.496.492.494.494 0 01-.496-.492c0-.271.222-.491.496-.491zM38.1 92.74c.274 0 .496.22.496.492a.494.494 0 01-.496.492.494.494 0 01-.496-.492c0-.272.222-.492.496-.492zm1.984 0c.274 0 .496.22.496.492a.494.494 0 01-.496.492.494.494 0 01-.496-.492c0-.272.222-.492.496-.492zm.991 0c.274 0 .496.22.496.492a.494.494 0 01-.496.492.494.494 0 01-.495-.492c0-.272.222-.492.495-.492zm.992 0c.274 0 .496.22.496.492a.494.494 0 01-.496.492.494.494 0 01-.496-.492c0-.272.222-.492.496-.492zm1.984 0c.273 0 .495.22.495.492a.494.494 0 01-.495.492.494.494 0 01-.496-.492c0-.272.222-.492.496-.492zm1.983 0c.274 0 .496.22.496.492a.494.494 0 01-.496.492.494.494 0 01-.496-.492c0-.272.222-.492.496-.492zm.992 0c.274 0 .496.22.496.492a.494.494 0 01-.496.492.494.494 0 01-.496-.492c0-.272.222-.492.496-.492zm.992 0c.273 0 .495.22.495.492a.494.494 0 01-.495.492.494.494 0 01-.496-.492c0-.272.222-.492.496-.492zm.991 0c.274 0 .496.22.496.492a.494.494 0 01-.496.492.494.494 0 01-.496-.492c0-.272.222-.492.496-.492zm.992 0c.274 0 .496.22.496.492a.494.494 0 01-.496.492.494.494 0 01-.496-.492c0-.272.222-.492.496-.492zm1.983 0c.274 0 .496.22.496.492a.494.494 0 01-.496.492.494.494 0 01-.495-.492c0-.272.222-.492.495-.492zm2.976 0c.274 0 .496.22.496.492a.494.494 0 01-.496.492.494.494 0 01-.496-.492c0-.272.222-.492.496-.492zm1.983 0c.274 0 .496.22.496.492a.494.494 0 01-.496.492.494.494 0 01-.496-.492c0-.272.222-.492.496-.492zm.992 0c.274 0 .496.22.496.492a.494.494 0 01-.496.492.494.494 0 01-.496-.492c0-.272.222-.492.496-.492zm.992 0c.273 0 .495.22.495.492a.494.494 0 01-.495.492.494.494 0 01-.496-.492c0-.272.222-.492.496-.492zm1.983 0c.274 0 .496.22.496.492a.494.494 0 01-.496.492.494.494 0 01-.496-.492c0-.272.222-.492.496-.492zm.992 0c.274 0 .496.22.496.492a.494.494 0 01-.496.492.494.494 0 01-.496-.492c0-.272.222-.492.496-.492zm-23.802.984c.274 0 .496.22.496.492a.494.494 0 01-.496.491.494.494 0 01-.496-.491c0-.272.222-.492.496-.492zM44.05 93.725c.273 0 .495.22.495.492a.494.494 0 01-.495.491.494.494 0 01-.496-.491c0-.272.222-.492.496-.492zm1.983 0c.274 0 .496.22.496.492a.494.494 0 01-.496.491.494.494 0 01-.496-.491c0-.272.222-.492.496-.492zm2.975 0c.274 0 .496.22.496.492a.494.494 0 01-.496.491.494.494 0 01-.496-.491c0-.272.222-.492.496-.492zm.992 0c.274 0 .496.22.496.492a.494.494 0 01-.496.491.494.494 0 01-.496-.491c0-.272.222-.492.496-.492zm3.967 0c.274 0 .496.22.496.492a.494.494 0 01-.496.491.494.494 0 01-.496-.491c0-.272.222-.492.496-.492zm.992 0c.274 0 .496.22.496.492a.494.494 0 01-.496.491.494.494 0 01-.496-.491c0-.272.222-.492.496-.492zm.991 0c.274 0 .496.22.496.492a.494.494 0 01-.496.491.494.494 0 01-.495-.491c0-.272.222-.492.495-.492zm.992 0c.274 0 .496.22.496.492a.494.494 0 01-.496.491.494.494 0 01-.496-.491c0-.272.222-.492.496-.492zm.992 0c.274 0 .496.22.496.492a.494.494 0 01-.496.491.494.494 0 01-.496-.491c0-.272.222-.492.496-.492zM38.099 94.708c.274 0 .496.22.496.492a.494.494 0 01-.496.492.494.494 0 01-.496-.492c0-.271.222-.492.496-.492zm.992 0c.274 0 .496.22.496.492a.494.494 0 01-.496.492.494.494 0 01-.496-.492c0-.271.222-.492.496-.492zm.992 0c.274 0 .496.22.496.492a.494.494 0 01-.496.492.494.494 0 01-.496-.492c0-.271.222-.492.496-.492zm.991 0c.274 0 .496.22.496.492a.494.494 0 01-.496.492.494.494 0 01-.495-.492c0-.271.222-.492.495-.492zm.992 0c.274 0 .496.22.496.492a.494.494 0 01-.496.492.494.494 0 01-.496-.492c0-.271.222-.492.496-.492zm.992 0c.274 0 .496.22.496.492a.494.494 0 01-.496.492.494.494 0 01-.496-.492c0-.271.222-.492.496-.492zm.992 0c.273 0 .495.22.495.492a.494.494 0 01-.495.492.494.494 0 01-.496-.492c0-.271.222-.492.496-.492zm1.983 0c.274 0 .496.22.496.492a.494.494 0 01-.496.492.494.494 0 01-.496-.492c0-.271.222-.492.496-.492zm.992 0c.274 0 .496.22.496.492a.494.494 0 01-.496.492.494.494 0 01-.496-.492c0-.271.222-.492.496-.492zm.992 0c.273 0 .495.22.495.492a.494.494 0 01-.495.492.494.494 0 01-.496-.492c0-.271.222-.492.496-.492zm1.983 0c.274 0 .496.22.496.492a.494.494 0 01-.496.492.494.494 0 01-.496-.492c0-.271.222-.492.496-.492zm1.983 0c.274 0 .496.22.496.492a.494.494 0 01-.496.492.494.494 0 01-.495-.492c0-.271.222-.492.495-.492zm1.984 0c.274 0 .496.22.496.492a.494.494 0 01-.496.492.494.494 0 01-.496-.492c0-.271.222-.492.496-.492zm.992 0c.274 0 .496.22.496.492a.494.494 0 01-.496.492.494.494 0 01-.496-.492c0-.271.222-.492.496-.492zm.991 0c.274 0 .496.22.496.492a.494.494 0 01-.496.492.494.494 0 01-.495-.492c0-.271.222-.492.495-.492zm2.976 0c.273 0 .495.22.495.492a.494.494 0 01-.495.492.494.494 0 01-.496-.492c0-.271.222-.492.496-.492zm2.975 0c.274 0 .496.22.496.492a.494.494 0 01-.496.492.494.494 0 01-.496-.492c0-.271.222-.492.496-.492z" fill="#fff"/></g></svg>