<svg width="100mm" height="110mm" viewBox="0 0 100 110" xmlns:xlink="http://www.w3.org/1999/xlink" xmlns="http://www.w3.org/2000/svg"><defs><path id="prefix__h" d="M-315 193h120v75h-120z"/><path id="prefix__g" d="M176.709 227.887h289.687v132.29H176.709z"/><path id="prefix__f" d="M195.056 367.902h271.34v117.806h-271.34z"/><path id="prefix__e" d="M175.743 66.628h333.14v107.184h-333.14z"/><path id="prefix__d" d="M1159.391 518.926h479.324v512.098h-479.324z"/><path id="prefix__c" d="M695.088 230.786h445.184v99.688H695.088z"/><path id="prefix__b" d="M630.905 107.882h540.776v367.345H630.905z"/><path id="prefix__o" d="M-315 193h120v75h-120z"/><path id="prefix__n" d="M176.709 227.887h289.687v132.29H176.709z"/><path id="prefix__m" d="M195.056 367.902h271.34v117.806h-271.34z"/><path id="prefix__l" d="M175.743 66.628h333.14v107.184h-333.14z"/><path id="prefix__k" d="M1159.391 518.926h479.324v512.098h-479.324z"/><path id="prefix__j" d="M695.088 230.786h445.184v99.688H695.088z"/><path id="prefix__i" d="M630.905 107.882h540.776v367.345H630.905z"/><linearGradient id="prefix__a"><stop offset=".03" stop-color="#303030" stop-opacity=".769"/><stop offset=".178"/><stop offset=".5"/><stop offset=".816"/><stop offset=".973" stop-color="#313131" stop-opacity=".771"/></linearGradient><linearGradient xlink:href="#prefix__a" id="prefix__p" x1="-.092" y1="83.152" x2="100.092" y2="83.152" gradientUnits="userSpaceOnUse" gradientTransform="matrix(.99816 0 0 1 0 0)"/><linearGradient xlink:href="#prefix__a" id="prefix__q" x1=".31" y1="27.337" x2="53.123" y2="27.337" gradientUnits="userSpaceOnUse" gradientTransform="matrix(.83395 0 0 1 -.259 -.517)"/></defs><text style="line-height:94.42%;-inkscape-font-specification:'Microsoft Himalaya'" x="23.232" y="129.913" font-weight="400" font-size="4.371" font-family="Microsoft Himalaya" letter-spacing=".437" fill="#fff" fill-rule="evenodd" stroke="#fff" stroke-width=".111" stroke-linecap="square" paint-order="fill markers stroke"/><text style="line-height:94.42%;-inkscape-font-specification:'Microsoft Himalaya'" x="109.985" y="125.129" transform="rotate(-4.318)" font-size="19.756" font-family="Microsoft Himalaya" letter-spacing="1.974" fill="#fff" fill-rule="evenodd" stroke-width=".5" stroke-linecap="square" paint-order="fill markers stroke"/><text style="line-height:94.42%;-inkscape-font-specification:'Microsoft Himalaya'" x="42.322" y="190.014" font-weight="400" font-size="6.379" font-family="Microsoft Himalaya" letter-spacing=".637" fill="#fff" fill-rule="evenodd" stroke="#fff" stroke-width=".161" stroke-linecap="square" paint-order="fill markers stroke"/><text style="line-height:94.42%;-inkscape-font-specification:'Source Sans Pro, Light';font-variant-ligatures:normal;font-variant-caps:normal;font-variant-numeric:normal;font-variant-east-asian:normal" x="41.505" y="68.23" font-weight="300" font-size="19.756" font-family="Source Sans Pro" letter-spacing="1.974" fill="#fff" fill-rule="evenodd" stroke-width=".3" stroke-linecap="square"/><text style="line-height:94.42%;-inkscape-font-specification:'Arial, Normal';font-variant-ligatures:normal;font-variant-caps:normal;font-variant-numeric:normal;font-variant-east-asian:normal" x="128.314" y="127.537" font-weight="400" font-size="3.528" font-family="Arial" letter-spacing="0" fill="#fff" fill-rule="evenodd" stroke="#fff" stroke-width=".1" stroke-linecap="square"/><text style="line-height:94.42%;-inkscape-font-specification:'Source Sans Pro'" x="106.196" y="125.861" font-weight="400" font-size="49.884" font-family="Source Sans Pro" letter-spacing="0" fill="#fff" fill-rule="evenodd" stroke-width=".589" stroke-linecap="round" stroke-linejoin="round" paint-order="fill markers stroke"/><g transform="matrix(1 0 0 .99038 .092 1.059)"><rect width="100" height="53.696" x="-.092" y="56.304" ry="0" fill="url(#prefix__p)" fill-rule="evenodd"/><path d="M33.354 68.18h33.292v29.943H33.354z"/><path d="M61.5 94.494h-1.815c-.056 0-.101-.04-.101-.09v-.727c0-.05-.045-.09-.1-.09h-.909v-.817c0-.05.045-.09.101-.09h.807c.056 0 .101-.041.101-.092v-.816h.908c.056 0 .1.04.1.09v.726c0 .05.046.091.102.091h1.816c.055 0 .1.04.1.09v.727c0 .05-.045.09-.1.09h-.807c-.056 0-.101.041-.101.091v.726c0 .05-.045.09-.101.09zm-3.026 0h-1.816c-.055 0-.1-.04-.1-.09v-.727c0-.05.045-.09.1-.09h1.917v.816c0 .05-.045.09-.1.09zm-5.044 0h-.807c-.056 0-.1-.04-.1-.09v-.727c0-.05-.046-.09-.102-.09h-.807c-.056 0-.1.04-.1.09v.726c0 .05-.046.09-.102.09h-.807c-.055 0-.1-.04-.1-.09v-4.355c0-.05-.046-.09-.101-.09h-.808c-.055 0-.1.04-.1.09v.726c0 .05-.046.09-.101.09h-.908v-.816c0-.05-.045-.09-.101-.09h-1.917v-.818c0-.05-.045-.09-.1-.09h-.808c-.056 0-.1.04-.1.09v.726c0 .05.044.091.1.091h.908v.817c0 .05.045.09.1.09h1.918v.817c0 .05-.045.09-.101.09H45.56c-.056 0-.1.041-.1.092v2.54c0 .05-.046.09-.102.09h-.807c-.055 0-.1-.04-.1-.09v-6.17c0-.05-.046-.09-.102-.09h-6.86c-.055 0-.1-.041-.1-.091v-.726c0-.05.045-.091.1-.091h1.816c.056 0 .101-.04.101-.09v-.727c0-.05-.045-.09-.1-.09H37.49c-.055 0-.1-.041-.1-.091v-.726c0-.05.045-.09.1-.09h1.816c.056 0 .101-.041.101-.091v-.817h.908c.056 0 .101.04.101.09v.727c0 .05.045.09.1.09h.909v1.724c0 .05.045.091.1.091h.808c.055 0 .1-.04.1-.09V85.51c0-.05-.045-.09-.1-.09h-.908v-2.632c0-.05-.045-.09-.101-.09h-.807c-.056 0-.101-.041-.101-.092v-.816h.908c.056 0 .1-.04.1-.09v-.727c0-.05-.044-.09-.1-.09h-.908V79.16c0-.05-.045-.091-.1-.091H37.49c-.055 0-.1-.04-.1-.09v-.727c0-.05.045-.09.1-.09h6.86c.056 0 .101-.041.101-.091V71.9c0-.05.046-.091.101-.091h.807c.056 0 .101.04.101.09v1.634c0 .05.045.09.101.09h1.816c.056 0 .1.041.1.091v1.634c0 .05-.044.09-.1.09h-1.816c-.056 0-.1.041-.1.091v4.446h-1.01v-.816c0-.05-.045-.091-.1-.091h-1.816c-.056 0-.101.04-.101.09v4.356c0 .05.045.09.1.09h1.816c.056 0 .101-.04.101-.09v-.726c0-.05-.045-.09-.1-.09h-.808c-.055 0-.1-.041-.1-.092v-.725c0-.05.045-.091.1-.091h1.816c.056 0 .101.04.101.09v1.634c0 .05.045.09.101.09h1.816c.056 0 .1-.04.1-.09v-1.633c0-.05-.044-.091-.1-.091h-.807c-.056 0-.101-.04-.101-.09v-.817h2.018v1.723c0 .05.045.091.1.091h.808c.055 0 .1.04.1.091v.817h-.907c-.056 0-.101.04-.101.09v.726c0 .05-.045.09-.101.09h-.807c-.056 0-.101.042-.101.092v.726c0 .05.045.09.1.09h.808c.056 0 .1.04.1.091v.726c0 .05.046.09.102.09h.807c.055 0 .1.041.1.091v.726c0 .05-.045.091-.1.091h-.807c-.056 0-.101.04-.101.09v.727c0 .05-.045.09-.101.09h-.908v-1.724c0-.05-.045-.09-.101-.09h-.807c-.056 0-.101.04-.101.09v.726c0 .05-.045.091-.1.091h-.808c-.056 0-.1.04-.1.09v.727c0 .05.044.09.1.09h1.917v.817c0 .05.045.09.1.09h1.817c.055 0 .1-.04.1-.09v-.726c0-.05.046-.09.101-.09h.908v.816c0 .05.046.09.101.09h.908v.817c0 .05.045.091.101.091h.807c.056 0 .101.04.101.09v.727c0 .05.045.09.101.09h1.816c.056 0 .1.041.1.091v1.633c0 .05-.044.091-.1.091h-.807c-.056 0-.101.04-.101.09v1.634c0 .05-.045.09-.1.09zm-4.035 0h-.807c-.056 0-.101-.04-.101-.09v-.818h.908c.055 0 .1.041.1.091v.726c0 .05-.045.09-.1.09zm-1.01-.908H46.57c-.056 0-.101-.04-.101-.09v-.726c0-.05.045-.09.1-.09h1.817c.056 0 .1.04.1.09v.816zm-5.043 0h-4.843c-.056 0-.1-.04-.1-.09V89.14c0-.05.044-.09.1-.09h4.843c.055 0 .1.04.1.09v4.356c0 .05-.045.09-.1.09zm13.115-.907h-.807c-.056 0-.101-.04-.101-.09v-1.634c0-.05.045-.09.1-.09h1.816c.056 0 .101.04.101.09v.726c0 .05-.045.09-.1.09h-.808c-.055 0-.1.041-.1.092v.725c0 .05-.046.091-.101.091zm-3.935-.09v-.726c0-.05-.045-.091-.1-.091h-.808c-.056 0-.1.04-.1.09v.726c0 .05.044.091.1.091h.807c.056 0 .101-.04.101-.09zm-10.088 0v-2.541c0-.05-.046-.09-.101-.09h-2.825c-.056 0-.1.04-.1.09v2.54c0 .05.044.091.1.091h2.825c.055 0 .1-.04.1-.09zm20.076-.817h-.807c-.056 0-.101-.04-.101-.091v-1.633c0-.05.045-.09.1-.09h.808c.055 0 .1.04.1.09v1.633c0 .05-.045.09-.1.09zm-3.027 0h-.807c-.056 0-.1-.04-.1-.091v-5.263c0-.05.044-.09.1-.09h.807c.056 0 .101-.041.101-.091v-.726c0-.05.045-.09.1-.09h.808c.056 0 .1-.041.1-.091v-.817h.909c.056 0 .1.04.1.09v.727c0 .05.046.09.102.09h.807c.055 0 .1.04.1.091v1.633c0 .05-.045.091-.1.091h-.908v-.817c0-.05-.045-.09-.101-.09h-.807c-.056 0-.101.04-.101.09v.726c0 .05.045.091.1.091h.909v1.724c0 .05-.045.09-.101.09h-.807c-.056 0-.101.041-.101.091v1.634c0 .05-.045.09-.101.09h-.807c-.056 0-.101.041-.101.091v.817zm-2.018-1.815h-2.824c-.056 0-.101-.04-.101-.09v-2.541c0-.05.045-.091.1-.091h2.825c.056 0 .101.04.101.09v2.541c0 .05-.045.091-.1.091zm-.908-.998v-.726c0-.05-.045-.09-.1-.09h-.807c-.056 0-.101.04-.101.09v.726c0 .05.045.09.1.09h.808c.055 0 .1-.04.1-.09zm-3.127.09h-1.917v-.907h.908c.056 0 .101-.04.101-.09v-.726c0-.05-.045-.091-.1-.091h-.808c-.056 0-.1.04-.1.09v.817h-1.01V85.42h1.917c.056 0 .101.04.101.091v.726c0 .05.045.09.101.09h.807c.056 0 .101.041.101.091v2.541c0 .05-.045.09-.1.09zm-8.979-1.905v-.816h.908c.056 0 .101-.041.101-.091v-.817h.908c.056 0 .101-.04.101-.09v-.726c0-.05-.045-.091-.1-.091h-.808c-.056 0-.1.04-.1.09v.817h-1.01v-.816c0-.05-.045-.091-.1-.091h-.808c-.055 0-.1.04-.1.09v.727c0 .05.045.09.1.09h.908v.908h-.908c-.055 0-.1.04-.1.09v.726c0 .05.045.091.1.091h.807c.056 0 .101-.04.101-.09zm12.006-.816h-.807c-.056 0-.101-.041-.101-.091v-.817h1.008v.817c0 .05-.045.09-.1.09zm2.017-.908h-1.917v-.816c0-.05.046-.091.101-.091h.807c.056 0 .101-.04.101-.09v-.727c0-.05-.045-.09-.1-.09h-.808c-.055 0-.1-.041-.1-.091v-.726c0-.05-.046-.09-.101-.09h-.908v-1.815h.908c.055 0 .1.04.1.09v.726c0 .05.046.09.101.09h.807c.056 0 .101-.04.101-.09v-1.633c0-.05.046-.09.101-.09h.908v2.63c0 .05.045.091.101.091h.807c.056 0 .101-.04.101-.09v-.726c0-.05.045-.091.1-.091h.808c.056 0 .1-.04.1-.09v-.817h.909c.056 0 .1.04.1.09v.726c0 .05.046.09.102.09h.807c.055 0 .1.041.1.092v.725c0 .05-.045.091-.1.091h-.807c-.056 0-.101.04-.101.091v.726c0 .05-.045.09-.101.09h-.807c-.056 0-.101.041-.101.091v.817h-1.917c-.056 0-.1.04-.1.09v.727c0 .05-.046.09-.102.09zm-3.026 0h-1.816c-.056 0-.101-.04-.101-.09v-2.541c0-.05.045-.09.1-.09h1.918v2.721zm-5.044 0h-.808c-.055 0-.1-.04-.1-.09v-1.724h1.008v1.814zm2.017-.907h-.807c-.056 0-.1-.04-.1-.09v-.727c0-.05-.046-.09-.102-.09h-.908V81.79h.908c.056 0 .101-.04.101-.09v-.817h.908c.056 0 .101.04.101.09v3.448c0 .05-.045.09-.1.09zm-13.115 0H37.49c-.055 0-.1-.04-.1-.09v-1.634c0-.05.045-.09.1-.09h1.816c.056 0 .101.04.101.09v1.724zM54.44 81.79h-.807c-.056 0-.101-.04-.101-.09V79.16c0-.05.045-.091.1-.091h.909v.816c0 .05.045.091.1.091h.808c.055 0 .1.04.1.09v.818h-.907c-.056 0-.101.04-.101.09v.726c0 .05-.045.09-.101.09zm-4.035 0h-.808c-.055 0-.1-.04-.1-.09v-.727c0-.05-.046-.09-.101-.09h-.908V79.16c0-.05.045-.091.1-.091h.808c.055 0 .1.04.1.09v.726c0 .05.046.091.101.091h.808c.055 0 .1-.04.1-.09v-2.541c0-.05-.045-.09-.1-.09h-.908V75.53c0-.05-.046-.09-.101-.09h-.807c-.056 0-.101-.041-.101-.091v-.726c0-.05.045-.091.1-.091h1.817c.055 0 .1.04.1.09v.727c0 .05.046.09.101.09h.807c.056 0 .101.041.101.091v.726c0 .05.045.09.101.09h.807c.056 0 .101-.04.101-.09v-.726c0-.05.045-.09.101-.09h.908v.816c0 .05.045.09.1.09h.808c.056 0 .1-.04.1-.09v-.726c0-.05-.044-.09-.1-.09h-.908v-.817c0-.05-.045-.091-.1-.091h-1.817c-.056 0-.1-.04-.1-.09v-.727c0-.05.044-.09.1-.09h.807c.056 0 .101-.041.101-.091V71.9c0-.05.045-.091.101-.091h2.825c.055 0 .1.04.1.09v6.17c0 .05.046.091.102.091h6.86c.055 0 .1.041.1.091v.726c0 .05-.045.09-.1.09h-1.816c-.056 0-.101.041-.101.092v1.724h-.908c-.056 0-.101-.041-.101-.091v-.726c0-.05-.045-.09-.1-.09h-.909v-.817c0-.05-.045-.091-.1-.091H54.54v-1.724c0-.05-.045-.09-.101-.09h-.807c-.056 0-.101.04-.101.09v.726c0 .05-.045.09-.1.09h-.808c-.056 0-.1-.04-.1-.09v-.726c0-.05-.046-.09-.102-.09h-.807c-.056 0-.1.04-.1.09v1.633c0 .05.044.09.1.09h.807c.056 0 .101.041.101.092v.725c0 .05-.045.091-.1.091h-.808c-.056 0-.1.04-.1.09v.818h-.909c-.055 0-.1.04-.1.09v.817zm-10.089 0H38.5c-.056 0-.1-.04-.1-.09v-1.634c0-.05.044-.09.1-.09h.807c.056 0 .101.04.101.09v.726c0 .05.045.09.101.09h.908v.908zm6.053-.907h-.807c-.056 0-.1-.041-.1-.091v-.817h.907c.056 0 .101.04.101.09v.818zm-2.018 0h-.807c-.055 0-.1-.041-.1-.091v-.726c0-.05.045-.09.1-.09h.908v.816c0 .05-.045.09-.1.09zm3.027-1.815h-.807c-.056 0-.101-.04-.101-.09v-2.542c0-.05.045-.09.1-.09h1.817c.056 0 .1.04.1.09v.817h-.907c-.056 0-.101.04-.101.09v1.634c0 .05-.045.09-.101.09zm2.018-.908h-.807c-.056 0-.101-.04-.101-.09v-.817h1.009v.817c0 .05-.046.09-.101.09zm12.106-.907h-4.843c-.055 0-.1-.04-.1-.09v-4.356c0-.05.045-.09.1-.09h4.843c.056 0 .1.04.1.09v4.355c0 .05-.044.091-.1.091zm-18.16 0H38.5c-.056 0-.1-.04-.1-.09v-4.356c0-.05.044-.09.1-.09h4.843c.055 0 .1.04.1.09v4.355c0 .05-.045.091-.1.091zm17.252-.998v-2.54c0-.05-.045-.091-.101-.091h-2.825c-.055 0-.1.04-.1.09v2.541c0 .05.045.09.1.09h2.825c.056 0 .1-.04.1-.09zm-18.16 0v-2.54c0-.05-.045-.091-.1-.091h-2.825c-.056 0-.1.04-.1.09v2.541c0 .05.044.09.1.09h2.825c.055 0 .1-.04.1-.09zm6.962-2.631h-.807c-.056 0-.101-.041-.101-.091v-.817h.908c.055 0 .1.04.1.091v.726c0 .05-.045.09-.1.09zm-1.01-.908H46.57c-.056 0-.101-.04-.101-.09V71.9c0-.05.045-.091.1-.091h1.817c.056 0 .1.04.1.09v.817z" fill="#fff"/></g><path d="M0 0s35.32.014 44.044 0c8.724-.014 9.756-.246 8.145.362-1.61.607-7.6 8.083-8.205 10.174-.024.084-.08.138-.122.218-.06.112-.11.25-.167.36-.158.307-.299.61-.435.902-.647 1.384-1.363 2.746-2.09 5.447-.974 3.624-1.267 5.872-1.365 8.554-.098 2.682.256 4.886.75 7.413.493 2.527 1.24 5.029 2.345 7.494a39.52 39.52 0 004.16 7.098c.928 1.25 2.563 3.095 3.78 4.293.804.79 1.484 1.33 1.4 1.33l-8.196-.005c-8.657-.005-44.044 0-44.044 0z" fill="url(#prefix__q)" fill-rule="evenodd"/><path d="M51.487 53.625H100V0H51.487A41.872 37.656 0 0038.98 26.812a41.872 37.656 0 0012.506 26.813z" fill="#fff" fill-rule="evenodd" paint-order="fill markers stroke"/><g font-family="Microsoft Himalaya" fill="#fff" fill-rule="evenodd" paint-order="fill markers stroke"><path style="line-height:94.42%;-inkscape-font-specification:'Microsoft Himalaya'" d="M10.527 39.319l-.817.76-.064-.062c.191-.232.288-.457.292-.673a.757.757 0 00-.257-.574.609.609 0 00-.196-.128.67.67 0 00-.214-.047.52.52 0 00-.202.023.441.441 0 00-.166.096.41.41 0 00-.1.14c-.02.052-.028.16-.022.322.053.23.107.431.161.6.049.161.105.388.168.68a.802.802 0 01-.549.88.967.967 0 01-.362.05 1.039 1.039 0 01-.372-.09 1.144 1.144 0 01-.352-.233 1.497 1.497 0 01-.174-.196 37.418 37.418 0 00-.314-.526.137.137 0 00-.096-.042c-.033 0-.081.024-.145.067l-.064-.061.812-.755.064.062a1.647 1.647 0 00-.262.47.627.627 0 00-.022.2c.006.072.02.144.042.217.025.073.06.145.102.215.044.069.096.131.156.189.072.068.147.12.224.155a.664.664 0 00.23.062.523.523 0 00.217-.028.471.471 0 00.31-.317.687.687 0 00.015-.314 47.06 47.06 0 00-.103-.398 10.22 10.22 0 01-.19-.795.956.956 0 01.028-.39.788.788 0 01.495-.484.937.937 0 01.695.032c.116.049.224.12.321.214.123.117.224.27.302.46l.048.11c.014.029.028.049.044.06.03.03.064.046.1.047.036.002.087-.018.153-.06zm1.9 1.37c.176.11.32.252.43.421a1.48 1.48 0 01.205 1.159 1.569 1.569 0 01-.268.598c-.14.196-.306.355-.499.477-.19.123-.391.207-.603.253a1.71 1.71 0 01-.637.016 1.593 1.593 0 01-.598-.23 1.542 1.542 0 01-.456-.434 1.418 1.418 0 01-.228-.55 1.583 1.583 0 01.024-.616c.05-.211.148-.418.292-.62.134-.187.293-.34.479-.46a1.739 1.739 0 011.235-.256c.218.035.426.116.624.242zm-.14.115a.945.945 0 00-.878-.083 1.517 1.517 0 00-.436.271c-.143.123-.28.276-.412.461-.13.183-.232.363-.304.538a1.52 1.52 0 00-.113.498c-.003.156.03.299.095.429a.862.862 0 00.313.327c.127.08.261.132.4.154a.965.965 0 00.437-.031c.15-.046.3-.13.451-.25a2.38 2.38 0 00.453-.493c.14-.197.246-.384.317-.563.075-.18.113-.347.112-.502a.798.798 0 00-.107-.425.93.93 0 00-.327-.331zm3.425 4.005l.069.04-.602.69-2.386-.909.034-.08.118.045c.127.048.236.044.329-.012.052-.035.113-.134.183-.298l.803-1.875c.077-.18.104-.3.081-.363-.031-.087-.105-.152-.22-.195l-.118-.046.034-.08 1.396.532-.034.08a1.568 1.568 0 00-.216-.067.563.563 0 00-.149-.02.267.267 0 00-.183.06c-.041.034-.1.14-.175.316l-.782 1.824a.778.778 0 00-.07.226.151.151 0 00.056.13c.035.028.151.08.348.154l.223.085c.237.09.41.138.519.142.054.003.108 0 .163-.012a.736.736 0 00.172-.061c.06-.03.123-.069.188-.118.066-.05.139-.112.219-.188zm3.474-1.511l.016-.085 1.155.194-.016.084-.122-.02a.355.355 0 00-.324.103c-.042.04-.08.146-.113.32l-.236 1.249c-.057.302-.136.538-.237.705a.904.904 0 01-.464.373 1.365 1.365 0 01-.362.073 1.784 1.784 0 01-.45-.023 2.236 2.236 0 01-.462-.123 1.162 1.162 0 01-.321-.187.83.83 0 01-.2-.244 1.021 1.021 0 01-.1-.293c-.027-.147-.005-.404.064-.773l.228-1.204c.018-.095.025-.173.022-.234a.309.309 0 00-.035-.153.206.206 0 00-.098-.086.519.519 0 00-.151-.047l-.126-.02.016-.085 1.414.237-.016.085-.126-.021a.624.624 0 00-.154-.01.215.215 0 00-.12.05.352.352 0 00-.095.128 1.068 1.068 0 00-.067.234l-.254 1.343c-.025.135-.04.27-.046.401a.953.953 0 00.054.366.66.66 0 00.21.284.966.966 0 00.43.163c.105.018.209.023.311.017.103-.009.198-.026.285-.053a.915.915 0 00.24-.11.616.616 0 00.17-.168c.087-.123.162-.35.225-.683l.235-1.248c.036-.19.036-.314 0-.371-.05-.078-.135-.128-.258-.148zm4.599.009l.024.736-.054.001c-.034-.196-.1-.333-.2-.41-.098-.08-.241-.118-.429-.112l-.467.014.08 2.393c.003.105.013.189.03.25.02.06.044.104.074.133a.21.21 0 00.112.055.93.93 0 00.153.005l.114-.003.003.086-1.407.042-.003-.087.117-.003a.788.788 0 00.153-.018.205.205 0 00.108-.062.31.31 0 00.06-.14.926.926 0 00.018-.245l-.08-2.392-.398.011c-.1.003-.189.014-.266.032a.468.468 0 00-.195.089.412.412 0 00-.13.17.77.77 0 00-.049.27l-.09.002-.025-.736zm2.709 2.635l.017.085-1.397.253-.017-.085.115-.02a.939.939 0 00.149-.038.205.205 0 00.1-.078.309.309 0 00.036-.15 1.04 1.04 0 00-.027-.259l-.404-1.985a1.746 1.746 0 00-.043-.172.47.47 0 00-.041-.111.14.14 0 00-.05-.061.284.284 0 00-.078-.039.502.502 0 00-.234-.014l-.115.021-.017-.084 1.397-.253.017.085-.115.02a.769.769 0 00-.152.042.193.193 0 00-.095.08.309.309 0 00-.04.151c-.002.064.008.147.029.251l.404 1.986c.015.072.028.13.04.175.012.045.025.081.04.109a.199.199 0 00.054.064.486.486 0 00.312.048zm1-3.66c.198-.07.402-.099.613-.086a1.706 1.706 0 011.121.514c.156.153.277.337.363.552a1.633 1.633 0 01-.006 1.269 1.517 1.517 0 01-.9.826 1.674 1.674 0 01-1.248-.045 1.774 1.774 0 01-.519-.375 1.82 1.82 0 01-.367-.583 1.622 1.622 0 01-.122-.634 1.532 1.532 0 01.494-1.097c.157-.147.347-.26.57-.34zm.018.174c-.168 0-.284.139-.381.247a.866.866 0 00-.2.38c-.035.146-.04.31-.016.493.023.18.076.375.16.584.083.206.18.387.29.545.11.154.233.279.365.374.133.092.275.15.426.176a.95.95 0 00.464-.052c.144-.051.265-.124.365-.219a.852.852 0 00.226-.353c.047-.142.062-.306.045-.49a2.22 2.22 0 00-.165-.635 2.729 2.729 0 00-.303-.57 1.394 1.394 0 00-.37-.375.922.922 0 00-.43-.164c-.15-.02-.298.06-.475.06zm1.647-.682l.75-.467 3.07.904-1.056-1.506a1.059 1.059 0 00-.168-.197.298.298 0 00-.139-.078.202.202 0 00-.124.01.72.72 0 00-.133.067l-.097.06-.05-.071.966-.602.05.072-.1.062a.711.711 0 00-.12.092.182.182 0 00-.055.108.311.311 0 00.025.15c.023.057.065.129.125.215l1.544 2.201-.074.046-3.301-.966 1.128 1.61c.063.09.119.156.167.2.05.041.095.067.137.076.042.01.083.005.124-.01a.936.936 0 00.13-.07l.098-.06.05.071-.963.6-.05-.072.097-.06a.712.712 0 00.12-.091.19.19 0 00.058-.106.278.278 0 00-.023-.151 1.117 1.117 0 00-.125-.216l-1.273-1.816a2.23 2.23 0 00-.18-.045.788.788 0 00-.123-.019.445.445 0 00-.11.007 2.24 2.24 0 00-.133.03.82.82 0 00-.192.094zm4.697-3.58l.811.765-.065.06c-.247-.178-.486-.269-.715-.27a.85.85 0 00-.608.245.57.57 0 00-.184.387.438.438 0 00.026.19c.022.06.057.112.103.156.043.04.093.072.15.093.055.02.169.026.341.02.245-.052.457-.104.636-.156.17-.047.411-.101.721-.162a.943.943 0 01.409.034.828.828 0 01.527.478.818.818 0 01.056.34.898.898 0 01-.093.351c-.055.12-.137.232-.246.334a1.54 1.54 0 01-.207.165 40.184 40.184 0 00-.556.3.122.122 0 00-.044.09c.002.03.026.076.072.136l-.064.061-.806-.76.065-.061c.196.127.363.208.5.244a.744.744 0 00.213.02c.075-.008.152-.02.23-.042a1.086 1.086 0 00.427-.246.754.754 0 00.162-.211.574.574 0 00.065-.217.453.453 0 00-.03-.205.445.445 0 00-.114-.17.514.514 0 00-.225-.12.82.82 0 00-.333-.012c-.12.027-.26.06-.422.1-.306.077-.587.139-.842.184-.152.016-.29.008-.414-.025a.806.806 0 01-.516-.463.794.794 0 01.029-.655c.052-.11.127-.212.225-.305.124-.116.286-.212.486-.287a4.51 4.51 0 00.116-.046.17.17 0 00.065-.041.14.14 0 00.05-.095c.001-.034-.02-.082-.065-.144z" aria-label="SOLUTIONS" font-size="19.756" letter-spacing="1.974" fill-opacity=".996" stroke="#fff" stroke-width=".289" stroke-linecap="square"/><path style="line-height:94.42%;-inkscape-font-specification:'Microsoft Himalaya';white-space:pre" d="M23.618 14.664c-2.694 1.271-6.775 3.833-5.116 7.151.125.252.3.539.525.862.238.318.482.633.734.947.257.324.486.625.688.903.22.283.376.517.468.7.137.273.198.569.182.885-.033 1.362-1.36 2.193-2.447 3.014 1.433-.139 3.074-.338 4.234.559.278.209.485.45.622.724.091.183.18.44.268.773.096.317.192.667.289 1.05.091.372.19.742.294 1.109.118.362.24.669.365.92 1.81 3.464 6.132 2.573 9.57 1.754-4.473.766-6.373.71-7.21-1.953-.087-.332-.179-.69-.276-1.074-.097-.383-.202-.75-.314-1.101a5.045 5.045 0 00-.328-.893 3.507 3.507 0 00-.834-1.052 5.246 5.246 0 00-1.316-.835 6.749 6.749 0 00-1.707-.528 9.346 9.346 0 00-1.804-.134c.45-.39.83-.793 1.131-1.212.345-.478.588-.953.73-1.424.157-.477.224-.94.203-1.393a3.065 3.065 0 00-.314-1.243 5.416 5.416 0 00-.528-.82c-.218-.311-.456-.63-.713-.954-.257-.324-.496-.629-.717-.912-1.6-2.254-.67-3.417 3.321-5.823z" font-size="74.667" letter-spacing="7.46"/><path style="line-height:94.42%;-inkscape-font-specification:'Microsoft Himalaya';white-space:pre" d="M19.094 14.664c2.694 1.271 6.775 3.833 5.116 7.151-.126.252-.3.539-.525.862-.238.318-.483.633-.734.947-.257.324-.486.625-.688.903-.22.283-.377.517-.468.7-.137.273-.198.569-.183.885.034 1.362 1.36 2.193 2.448 3.014-1.433-.139-3.075-.338-4.234.559-.278.209-.485.45-.622.724-.092.183-.181.44-.269.773-.095.317-.19.667-.288 1.05-.091.372-.19.742-.294 1.109-.118.362-.24.669-.365.92-1.81 3.464-6.132 2.573-9.57 1.754 4.473.766 6.373.71 7.21-1.953.087-.332.179-.69.276-1.074.097-.383.202-.75.314-1.101.099-.356.208-.653.328-.893.189-.377.467-.728.834-1.052a5.246 5.246 0 011.316-.835 6.749 6.749 0 011.707-.528 9.347 9.347 0 011.803-.134c-.449-.39-.829-.793-1.13-1.212a4.862 4.862 0 01-.731-1.424 3.876 3.876 0 01-.203-1.393c.021-.452.126-.866.314-1.243.12-.24.296-.513.529-.82.218-.311.456-.63.713-.954.257-.324.496-.629.717-.912 1.6-2.254.67-3.417-3.321-5.823z" font-size="74.667" letter-spacing="7.46" fill-opacity=".46"/><path style="line-height:94.42%;-inkscape-font-specification:'Microsoft Himalaya'" d="M16.195 8.565l.032.079a.645.645 0 00-.147.068.226.226 0 00-.08.11.62.62 0 00-.036.198 4.212 4.212 0 00-.003.33l.063 2.599-.092.031-1.435-1.585.034 2.066-.085.029-1.868-2.06-.164-.179a.713.713 0 00-.09-.087.333.333 0 00-.173-.077.476.476 0 00-.227.032l-.031-.079 1.141-.391.032.078-.054.019c-.08.027-.134.065-.164.113a.154.154 0 00-.015.145c.02.05.1.152.238.304l1.25 1.395-.037-1.539-.335-.375a1.602 1.602 0 00-.13-.112.504.504 0 00-.126-.072.333.333 0 00-.136-.021.518.518 0 00-.165.031l-.031-.078 1.2-.412.031.08-.082.027c-.086.03-.141.068-.166.114a.178.178 0 00-.002.158c.028.072.112.185.251.34l1.214 1.35-.043-1.777a4.83 4.83 0 00-.013-.245.531.531 0 00-.03-.151.158.158 0 00-.15-.106.665.665 0 00-.265.044l-.031-.078zm3.331 1.596l-1.267.14-.161.5a.731.731 0 00-.046.272c.003.025.01.046.02.066a.155.155 0 00.061.05c.03.013.071.023.12.03.053.006.12.007.202.002l.01.083-1.029.114-.01-.084a.742.742 0 00.191-.071.393.393 0 00.118-.104.598.598 0 00.077-.164c.024-.066.05-.147.082-.242l.831-2.614.083-.01 1.461 2.388c.06.1.112.18.159.24a.736.736 0 00.141.132c.048.03.097.05.146.058a.832.832 0 00.183.004l.011.084-1.292.142-.01-.083c.128-.019.213-.047.255-.085.043-.041.062-.086.055-.135a1.048 1.048 0 00-.137-.302zm-.09-.16l-.711-1.16-.412 1.285zM22 11.015l.009-.083.126.01a.734.734 0 00.15 0 .202.202 0 00.114-.05.31.31 0 00.08-.13.954.954 0 00.05-.242l.204-1.96c.02-.186.01-.306-.032-.36-.055-.071-.144-.113-.267-.124l-.126-.011.009-.084 1.335.12c.486.042.853.128 1.102.256.246.127.434.317.563.568.131.257.18.54.148.852a1.586 1.586 0 01-.184.607c-.096.18-.23.331-.4.453-.168.122-.37.21-.607.266-.236.055-.506.07-.809.042zm.961-.137c.195.06.364.097.506.11.185.016.36 0 .525-.048.166-.05.312-.129.44-.234.13-.107.236-.242.318-.403.085-.16.138-.345.16-.551.022-.21.009-.4-.039-.573a1.166 1.166 0 00-.62-.76 1.452 1.452 0 00-.52-.14 2.198 2.198 0 00-.501.023zm5.777.28l-1.212-.368-.376.39a.782.782 0 00-.165.23.207.207 0 00-.012.066.139.139 0 00.032.07.535.535 0 00.096.075c.044.025.104.052.181.08l-.028.08-.985-.3.028-.08c.082.013.151.016.207.01a.433.433 0 00.154-.048.66.66 0 00.145-.118c.051-.05.113-.113.185-.188l1.948-2.044.08.025.232 2.735c.008.113.02.206.034.279.018.071.04.13.067.176.03.046.065.083.106.11a.79.79 0 00.164.074l-.028.08-1.236-.376.029-.08c.125.034.215.041.27.022.058-.02.095-.053.112-.1.02-.062.024-.171.014-.327zm-.01-.178l-.114-1.33-.96 1.003z" aria-label="WADA" font-size="19.756" letter-spacing="1.974" fill-opacity=".996" stroke="#fff" stroke-width=".289" stroke-linecap="square"/></g><g font-weight="400" font-family="Arial" letter-spacing="0" fill-rule="evenodd" stroke-linecap="square"><text style="line-height:94.42%;-inkscape-font-specification:'Arial, Normal';font-variant-ligatures:normal;font-variant-caps:normal;font-variant-numeric:normal;font-variant-east-asian:normal" x="57.269" y="51.363" transform="scale(1.0301 .97078)" font-size="2.585" stroke-width=".109"><tspan style="-inkscape-font-specification:'Arial Bold'" x="57.269" y="51.363" font-weight="700">wadasolutions@email.com</tspan></text><text style="line-height:94.42%;-inkscape-font-specification:'Arial, Normal';font-variant-ligatures:normal;font-variant-caps:normal;font-variant-numeric:normal;font-variant-east-asian:normal;white-space:pre;inline-size:26.7911" x="45.694" y="39.139" transform="matrix(1.11986 0 0 1.05537 7.777 5.221)" font-size="2.378" stroke-width=".1"><tspan x="45.694" y="39.139"><tspan style="-inkscape-font-specification:'Arial Bold'" font-weight="700">TEL. +00 123456789</tspan></tspan></text></g><g font-weight="400" font-family="Arial" fill-rule="evenodd" stroke="#000" stroke-width=".109" stroke-linecap="square"><text style="line-height:94.42%;-inkscape-font-specification:'Arial, Normal';font-variant-ligatures:normal;font-variant-caps:normal;font-variant-numeric:normal;font-variant-east-asian:normal" x="52.133" y="12.496" font-size="4.595" letter-spacing=".032" transform="matrix(1.0301 0 0 .97078 5.363 0)"><tspan style="-inkscape-font-specification:'Arial Bold'" x="52.133" y="12.496" font-weight="700">Your Name</tspan></text><text style="line-height:94.42%;-inkscape-font-specification:'Arial, Normal';font-variant-ligatures:normal;font-variant-caps:normal;font-variant-numeric:normal;font-variant-east-asian:normal" x="52.274" y="16.05" font-size="2.585" letter-spacing="0" transform="matrix(1.0301 0 0 .97078 5.363 0)"><tspan style="-inkscape-font-specification:'Arial Bold'" x="52.274" y="16.05" font-weight="700">FOUNDER &amp; CEO</tspan></text></g><path d="M94.2 18.852l-40.767.2z" fill="#fff" fill-rule="evenodd" paint-order="fill markers stroke"/></svg>