<?xml version="1.0" encoding="UTF-8" standalone="no"?><svg version="1.1" id="svg1" width="533.33331" height="533.33331" viewBox="0 0 533.33331 533.33331" sodipodi:docname="discord.svg" inkscape:version="1.3.1 (91b66b0783, 2023-11-16)" xmlns:inkscape="http://www.inkscape.org/namespaces/inkscape" xmlns:sodipodi="http://sodipodi.sourceforge.net/DTD/sodipodi-0.dtd" xmlns="http://www.w3.org/2000/svg" xmlns:svg="http://www.w3.org/2000/svg"><defs id="defs1" /><sodipodi:namedview id="namedview1" pagecolor="#505050" bordercolor="#eeeeee" borderopacity="1" inkscape:showpageshadow="0" inkscape:pageopacity="0" inkscape:pagecheckerboard="0" inkscape:deskcolor="#505050" inkscape:zoom="0.76781253" inkscape:cx="109.40171" inkscape:cy="235.08343" inkscape:window-width="1920" inkscape:window-height="1017" inkscape:window-x="1912" inkscape:window-y="-8" inkscape:window-maximized="1" inkscape:current-layer="g1" /><g inkscape:groupmode="layer" inkscape:label="Image" id="g1"><path style="opacity:0.921769;fill:#78e40c;fill-rule:evenodd;stroke:none;stroke-width:10.7466;stroke-linecap:round" d="m 180.96915,386.6948 c -30.84628,-5.4608 -58.52781,-19.29984 -77.7531,-38.87172 l -5.420474,-5.51819 2.097595,-18.57184 c 6.558369,-58.06696 17.918299,-99.51229 37.878529,-138.19519 5.27213,-10.21739 8.40053,-13.31011 21.09491,-20.85432 12.00117,-7.13224 27.90051,-13.65316 41.92541,-17.1952 15.34293,-3.8749 19.20911,-3.92902 20.86623,-0.29206 0.68082,1.49426 1.10421,2.82064 0.94085,2.94751 -0.16336,0.12688 -2.622,0.7917 -5.46363,1.47739 -6.68223,1.61241 -27.59262,9.91477 -33.58301,13.33395 -13.15065,7.5061 -33.53062,22.94134 -31.28084,23.69127 0.62195,0.20731 5.92366,-2.02823 11.78158,-4.96787 34.41581,-17.27066 63.65204,-24.14053 102.68178,-24.12796 38.00364,0.0122 61.59721,5.34742 99.63467,22.53021 7.05952,3.18903 13.28051,5.79823 13.82441,5.79823 1.86987,0 -8.0735,-8.29849 -17.93443,-14.96765 -11.63233,-7.86718 -23.04271,-13.37834 -38.69187,-18.68796 -6.25161,-2.12112 -11.75839,-4.20133 -12.23728,-4.62269 -0.47889,-0.42136 -0.34628,-1.74602 0.29469,-2.94369 1.5985,-2.98684 7.47697,-2.87635 19.99387,0.37582 16.69124,4.33675 35.65191,12.73583 49.66714,22.00123 7.99421,5.28493 11.7371,10.36917 18.7933,25.52818 17.22215,36.9988 28.4533,81.2077 34.0039,133.84871 l 1.47091,13.94987 -6.35842,6.45273 c -20.34165,20.6434 -54.62962,36.31768 -85.47831,39.07526 l -7.74993,0.69277 -5.44659,-7.53722 c -2.99563,-4.14548 -5.08811,-7.89014 -4.64996,-8.32148 0.43815,-0.43134 4.65128,-2.43081 9.3625,-4.44325 10.96588,-4.68421 20.84752,-10.47137 30.94494,-18.12276 10.54664,-7.9918 22.67781,-19.25501 21.76246,-20.2054 -0.39938,-0.41466 -5.28183,2.04357 -10.84989,5.46273 -24.3797,14.97076 -46.8105,23.12037 -76.05874,27.63384 -9.08681,1.40224 -16.40665,1.63548 -39.26628,1.25119 -25.54002,-0.42935 -29.2731,-0.72486 -41.01398,-3.24671 -25.31946,-5.43841 -45.30695,-13.5172 -65.96004,-26.66056 -5.30981,-3.37909 -9.85733,-5.94066 -10.10562,-5.69238 -0.24828,0.24828 3.94393,4.6534 9.31603,9.78916 14.03352,13.41613 32.28467,25.22178 50.54153,32.69249 l 3.94169,1.61294 -3.06974,4.46173 c -1.68837,2.45395 -4.46243,5.95259 -6.1646,7.77476 -3.5539,3.80447 -5.29625,3.96306 -18.28219,1.66413 z m 41.88924,-74.95096 c 6.03274,-1.80746 13.34223,-8.00353 16.90811,-14.33257 2.95722,-5.24873 3.20198,-6.43386 3.20127,-15.49985 -6.1e-4,-7.80027 -0.44753,-10.78245 -2.17582,-14.51903 -4.92744,-10.6531 -13.66657,-16.68733 -24.1676,-16.68733 -7.16345,0 -12.76911,2.26257 -17.91793,7.23205 -4.9409,4.76882 -7.32772,9.34368 -8.93327,17.12262 -2.30714,11.17818 1.15394,22.14789 9.6014,30.43122 6.90673,6.77252 14.76539,8.86499 23.48384,6.25289 z m 100.82528,-0.35943 c 23.07705,-6.85314 27.18538,-43.35616 6.42586,-57.09446 -3.58317,-2.37129 -5.68176,-2.92334 -12.24869,-3.22208 -9.37837,-0.42664 -13.94549,1.40524 -19.87987,7.97389 -4.84669,5.3647 -6.44411,8.58066 -7.99201,16.08969 -3.02442,14.67164 3.93847,29.09516 17.04563,35.30978 6.01047,2.84981 9.55301,3.05049 16.64908,0.94318 z" id="path2-5" /></g></svg>