<?xml version="1.0" encoding="UTF-8" standalone="no"?><svg version="1.1" id="svg1" width="533.33331" height="533.33331" viewBox="0 0 533.33331 533.33331" sodipodi:docname="trovo.svg" inkscape:version="1.3.1 (91b66b0783, 2023-11-16)" xmlns:inkscape="http://www.inkscape.org/namespaces/inkscape" xmlns:sodipodi="http://sodipodi.sourceforge.net/DTD/sodipodi-0.dtd" xmlns="http://www.w3.org/2000/svg" xmlns:svg="http://www.w3.org/2000/svg"><defs id="defs1" /><sodipodi:namedview id="namedview1" pagecolor="#505050" bordercolor="#eeeeee" borderopacity="1" inkscape:showpageshadow="0" inkscape:pageopacity="0" inkscape:pagecheckerboard="0" inkscape:deskcolor="#505050" inkscape:zoom="0.76781253" inkscape:cx="98.331294" inkscape:cy="291.08668" inkscape:window-width="1920" inkscape:window-height="1017" inkscape:window-x="1912" inkscape:window-y="-8" inkscape:window-maximized="1" inkscape:current-layer="g1" /><g inkscape:groupmode="layer" inkscape:label="Image" id="g1"><path style="opacity:0.921769;fill:#78e40c;fill-rule:evenodd;stroke:none;stroke-width:13.545;stroke-linecap:round" d="m 270.31007,375.19037 c -26.05456,-5.97475 -43.03903,-17.26795 -54.06584,-35.94907 -7.06154,-11.96335 -10.32285,-32.95571 -8.14406,-52.42165 0.74163,-6.62597 1.66597,-13.07286 2.05408,-14.32642 0.65511,-2.1159 -1.09691,-2.28063 -24.45332,-2.29914 -13.83744,-0.011 -25.96785,-0.53226 -26.95646,-1.15841 -2.21094,-1.40034 -1.81686,-4.43807 5.25391,-40.49849 2.87937,-14.68458 5.8422,-27.43183 6.58406,-28.32723 0.9571,-1.15517 6.88197,-1.66541 20.39981,-1.7568 10.47802,-0.0708 22.27438,-0.51041 26.21415,-0.9768 l 7.16321,-0.848 4.98081,-15.62882 c 6.91601,-21.70108 7.25071,-22.44888 10.42904,-23.30142 3.76399,-1.00963 67.81163,-1.01187 70.4421,-0.002 2.70654,1.03859 2.59896,4.6121 -0.54467,18.09428 -1.43264,6.1442 -2.60481,13.11637 -2.60481,15.49371 v 4.32244 l 8.00546,0.83673 c 4.403,0.46021 18.943,0.83674 32.3111,0.83674 19.00045,0 24.85747,0.40558 26.83378,1.85814 2.48002,1.82278 2.42048,2.38662 -3.12934,29.62963 -3.11161,15.27432 -6.62809,30.70189 -7.81441,34.28349 l -2.15693,6.51201 -25.39683,-0.46275 c -23.50844,-0.42834 -25.94955,-0.25345 -32.83054,2.35217 -14.8723,5.63167 -23.7993,20.33917 -23.77249,39.16587 0.0122,8.52809 0.53546,10.72201 4.03857,16.93122 5.03876,8.9311 14.09303,14.29676 24.12503,14.29676 7.90024,0 12.20333,-2.12891 18.58838,-9.19639 4.73004,-5.23559 4.90843,-5.76736 4.38095,-13.05953 -0.68051,-9.40809 -3.41259,-12.91719 -10.03497,-12.88898 -5.37258,0.0229 -6.98099,0.85515 -8.97312,4.64305 -1.0764,2.04672 -0.97859,3.56964 0.39989,6.22669 2.16014,4.16365 1.3922,6.92811 -2.24523,8.08259 -6.94965,2.20573 -13.46036,-7.19847 -12.42725,-17.95019 1.15317,-12.00136 10.9972,-19.76191 25.01576,-19.72125 21.66153,0.0628 35.93667,20.72958 30.08788,43.55959 -6.69695,26.14073 -30.16119,42.63465 -63.58348,44.69531 -6.60084,0.40698 -13.59079,0.004 -18.17422,-1.04662 z" id="path2" /></g></svg>