<?xml version="1.0" encoding="UTF-8" standalone="no"?><svg version="1.1" id="svg1" width="533.33331" height="533.33331" viewBox="0 0 533.33331 533.33331" sodipodi:docname="twitch.svg" inkscape:version="1.3.1 (91b66b0783, 2023-11-16)" xmlns:inkscape="http://www.inkscape.org/namespaces/inkscape" xmlns:sodipodi="http://sodipodi.sourceforge.net/DTD/sodipodi-0.dtd" xmlns="http://www.w3.org/2000/svg" xmlns:svg="http://www.w3.org/2000/svg"><defs id="defs1" /><sodipodi:namedview id="namedview1" pagecolor="#505050" bordercolor="#eeeeee" borderopacity="1" inkscape:showpageshadow="0" inkscape:pageopacity="0" inkscape:pagecheckerboard="0" inkscape:deskcolor="#505050" inkscape:zoom="1.0858509" inkscape:cx="81.502902" inkscape:cy="300.22538" inkscape:window-width="1395" inkscape:window-height="1040" inkscape:window-x="454" inkscape:window-y="3" inkscape:window-maximized="0" inkscape:current-layer="g4" /><g inkscape:groupmode="layer" inkscape:label="Image" id="g1"><g id="g4" transform="matrix(1.0060025,0,0,0.74763941,522.64535,-476.36668)"><path style="opacity:0.921769;fill:#78e40c;fill-rule:evenodd;stroke:none;stroke-width:11.497;stroke-linecap:round" d="m -307.19989,1140.48 c -0.33642,-0.7642 -0.84335,-9.6058 -1.1265,-19.648 l -0.51484,-18.2584 h -26.45154 -26.45154 V 1000.0313 897.48904 l 7.28667,-25.49683 7.28667,-25.49682 100.00629,-0.33336 100.00629,-0.33336 v 90.29454 90.29449 l -28.98011,38.078 -28.98009,38.0779 -22.10067,0.063 -22.10069,0.063 -14.87921,19.5846 -14.87921,19.5847 h -13.75494 c -8.68897,0 -13.9802,-0.5118 -14.36658,-1.3895 z m 39.2203,-64.1036 13.99473,-18.2935 27.05648,-0.087 27.05649,-0.087 16.98336,-22.5304 16.98336,-22.5304 0.0436,-71.06002 0.0436,-71.06006 h -80.70296 -80.70296 v 93.65519 93.65519 h 21.92507 21.9251 v 18.3381 c 0,10.0859 0.31487,18.328 0.69973,18.3157 0.38485,-0.012 6.99736,-8.2543 14.69448,-18.3157 z" id="path2-9" /><path style="opacity:0.921769;fill:#78e40c;fill-rule:evenodd;stroke:#78e40c;stroke-width:11.497;stroke-linecap:round" d="m -219.93101,961.10839 v -37.98601 h 9.79632 9.79631 v 37.98601 37.98603 h -9.79631 -9.79632 z" id="path3-4" /><path style="opacity:0.921769;fill:#78e40c;fill-rule:evenodd;stroke:#78e40c;stroke-width:11.497;stroke-linecap:round" d="m -274.04398,961.10839 v -37.98601 h 9.79631 9.79632 v 37.98601 37.98603 h -9.79632 -9.79631 z" id="path4-5" /></g></g></svg>