<?xml version="1.0" encoding="UTF-8" standalone="no"?><svg version="1.1" id="svg1" width="533.33331" height="533.33331" viewBox="0 0 533.33331 533.33331" sodipodi:docname="whatsapp.svg" inkscape:version="1.3.1 (91b66b0783, 2023-11-16)" xmlns:inkscape="http://www.inkscape.org/namespaces/inkscape" xmlns:sodipodi="http://sodipodi.sourceforge.net/DTD/sodipodi-0.dtd" xmlns="http://www.w3.org/2000/svg" xmlns:svg="http://www.w3.org/2000/svg"><defs id="defs1" /><sodipodi:namedview id="namedview1" pagecolor="#505050" bordercolor="#eeeeee" borderopacity="1" inkscape:showpageshadow="0" inkscape:pageopacity="0" inkscape:pagecheckerboard="0" inkscape:deskcolor="#505050" inkscape:zoom="0.76781253" inkscape:cx="-31.25763" inkscape:cy="98.331295" inkscape:window-width="1920" inkscape:window-height="1017" inkscape:window-x="1912" inkscape:window-y="-8" inkscape:window-maximized="1" inkscape:current-layer="g1" /><g inkscape:groupmode="layer" inkscape:label="Image" id="g1"><path id="path3" style="fill:none;fill-rule:evenodd;stroke:#80ff00;stroke-width:8.437;stroke-linecap:round" d="m 432.07161,266.66665 c 10e-6,91.35064 -74.05431,165.40495 -165.40495,165.40496 -32.50899,0 -62.82751,-9.37851 -88.39754,-25.57753 -7.27748,-4.6104 -39.03561,15.09202 -45.48484,9.43563 -7.07028,-6.20109 11.25789,-37.8606 5.33164,-45.17025 -23.04621,-28.42603 -36.85422,-64.6469 -36.85422,-104.09281 10e-6,-91.35064 74.05432,-165.40496 165.40496,-165.40495 91.35063,0 165.40495,74.05432 165.40495,165.40495 z" sodipodi:nodetypes="ssssssss" /><path style="opacity:1;fill:#80ff00;fill-opacity:1;fill-rule:evenodd;stroke:none;stroke-width:10.9884;stroke-linecap:round;stroke-dasharray:none;stroke-opacity:1" d="m 299.84285,373.54184 c -30.31121,-11.28358 -55.65185,-35.01556 -76.83903,-59.24997 -15.8288,-18.10537 -26.42691,-38.47355 -37.91215,-72.86224 -7.60542,-22.77185 -9.14294,-32.04052 -7.18248,-43.2983 2.77171,-15.91633 13.45882,-31.54295 25.22654,-36.88607 6.18111,-2.80653 16.84672,-3.31261 18.75865,-0.89011 0.70669,0.89541 5.72106,14.9813 11.14306,31.30198 l 9.85817,29.67398 -6.89711,4.57942 c -11.69561,7.76545 -12.69723,14.45467 -4.50116,30.06038 8.70385,16.57253 18.45497,30.18579 31.77825,44.36472 17.13546,18.23592 22.37087,19.73332 34.89065,9.97926 l 6.14239,-4.7855 25.53756,19.36414 c 14.04566,10.65029 25.81474,20.08644 26.15351,20.96926 1.01665,2.64936 -2.82404,10.78607 -6.18501,15.03844 -3.1975,4.04555 -7.85493,6.92159 -12.56079,9.02999 -6.37837,2.85774 -13.50043,3.98825 -20.46646,4.55821 -5.63818,0.46131 -11.64299,1.02597 -16.94459,-0.94759 z" id="path7" sodipodi:nodetypes="asssssscsssscssaaaa" /></g></svg>