<?xml version="1.0" standalone="no"?>
<!DOCTYPE svg PUBLIC "-//W3C//DTD SVG 20010904//EN"
 "http://www.w3.org/TR/2001/REC-SVG-20010904/DTD/svg10.dtd">
<svg version="1.0" xmlns="http://www.w3.org/2000/svg"
 width="3840.000000pt" height="2160.000000pt" viewBox="0 0 3840.000000 2160.000000"
 preserveAspectRatio="xMidYMid meet">

<g transform="translate(0.000000,2160.000000) scale(0.100000,-0.100000)"
fill="#000000" stroke="none">
<path d="M0 10800 l0 -10800 19200 0 19200 0 0 3645 c0 2571 -3 3645 -11 3645
-6 0 -31 -9 -57 -19 -26 -11 -101 -41 -167 -66 -66 -25 -129 -50 -140 -55 -11
-6 -69 -28 -129 -50 -59 -23 -125 -50 -146 -60 -39 -20 -123 -86 -194 -153
-21 -20 -41 -37 -44 -37 -2 0 -20 -13 -39 -30 -32 -28 -73 -40 -73 -22 0 5 31
40 68 78 38 38 80 84 95 102 28 34 28 56 2 46 -9 -4 -18 1 -22 12 -5 12 3 25
25 44 34 28 33 40 -4 40 -24 0 -38 32 -21 49 15 15 -17 19 -188 26 -82 3 -164
8 -181 11 -20 4 -36 1 -45 -9 -10 -9 -36 -13 -85 -13 -68 1 -73 -1 -147 -49
-72 -46 -245 -171 -257 -185 -3 -3 -34 -28 -69 -55 -35 -28 -98 -79 -141 -115
-43 -36 -106 -87 -141 -115 -129 -101 -314 -257 -328 -276 -7 -10 -19 -19 -27
-19 -12 0 -25 -10 -94 -73 -14 -12 -47 -40 -75 -62 -27 -22 -56 -47 -63 -57
-7 -10 -17 -18 -22 -18 -5 0 -56 -37 -114 -82 -57 -46 -135 -105 -171 -133
-37 -27 -77 -59 -88 -71 -12 -11 -37 -31 -55 -44 -29 -20 -32 -24 -19 -37 8
-8 38 -18 68 -22 30 -5 99 -21 154 -36 55 -15 116 -31 135 -36 39 -9 191 -77
290 -130 36 -18 70 -36 75 -38 6 -2 28 -11 50 -21 43 -19 117 -41 205 -60 30
-7 71 -18 91 -26 83 -30 252 -64 469 -94 47 -7 102 -21 123 -31 27 -13 49 -18
71 -13 24 4 38 1 51 -12 17 -18 76 -31 168 -39 36 -3 58 -12 84 -35 19 -17 52
-38 73 -46 47 -19 69 -60 48 -93 -7 -12 -20 -21 -28 -21 -8 0 -31 -10 -50 -23
-19 -13 -54 -33 -76 -44 -37 -19 -43 -20 -57 -6 -9 10 -23 13 -37 8 -19 -6
-21 -12 -16 -44 5 -35 4 -37 -22 -36 -25 0 -27 4 -32 50 l-5 50 -40 1 c-39 2
-180 39 -238 62 -16 7 -34 12 -40 12 -7 0 -24 8 -37 18 -18 12 -44 17 -90 17
-37 0 -90 8 -124 19 -51 17 -66 18 -112 8 -177 -39 -162 -38 -212 -18 -26 10
-85 22 -133 25 -82 6 -139 27 -139 51 0 6 -7 10 -15 10 -8 0 -15 -4 -15 -9 0
-5 -16 -19 -35 -31 -32 -20 -36 -20 -57 -6 -12 9 -32 16 -43 16 -12 0 -31 13
-43 30 -21 27 -26 30 -63 24 l-40 -7 3 58 c2 46 0 60 -14 69 -14 8 -23 8 -39
-2 -11 -7 -29 -10 -39 -7 -12 4 -48 -9 -95 -35 -85 -44 -112 -49 -145 -22 -21
17 -21 21 -12 107 6 50 9 91 8 92 -1 1 -16 -7 -34 -19 -18 -11 -52 -48 -75
-82 -91 -135 -156 -181 -158 -113 -3 71 3 154 13 189 9 31 8 41 -4 55 -9 10
-19 28 -22 40 -7 23 -33 42 -86 63 -36 14 -64 33 -127 85 -32 27 -42 29 -117
31 -44 0 -117 6 -161 13 -44 7 -91 12 -104 12 -14 -1 -34 5 -45 12 -28 19
-116 28 -116 13 0 -6 14 -27 30 -46 17 -19 29 -41 28 -49 -2 -8 -23 -20 -48
-27 -25 -6 -58 -17 -75 -24 -35 -15 -34 -15 -142 1 -77 11 -83 13 -83 35 0 15
-6 24 -15 24 -8 0 -15 3 -15 8 0 9 38 43 70 63 33 21 149 49 201 49 28 0 67
12 118 38 l76 37 157 -2 c101 -2 183 -8 230 -19 40 -9 88 -19 106 -21 33 -5
76 10 97 33 14 15 158 134 196 161 17 12 47 37 67 55 20 18 69 56 107 83 39
27 99 73 135 102 145 117 275 214 332 247 27 16 48 32 48 37 0 5 6 9 13 9 8 0
24 9 37 20 12 11 27 17 32 14 5 -4 16 3 24 15 8 12 22 21 29 21 8 0 22 14 30
31 12 22 21 28 34 24 10 -3 24 1 31 10 7 8 19 15 27 15 8 0 22 9 31 20 10 11
31 22 47 23 42 5 65 17 65 33 0 8 7 14 15 14 22 0 78 30 88 46 4 8 19 14 32
14 13 0 27 5 30 10 3 6 15 10 26 10 11 0 22 7 25 15 4 8 11 15 18 15 6 0 27
13 46 30 19 16 40 29 47 30 6 0 13 4 15 8 2 4 17 17 34 27 68 44 189 127 204
141 43 41 72 64 82 64 7 0 32 17 57 38 25 21 81 60 124 88 44 27 96 63 117 79
20 17 46 36 56 42 36 24 309 219 369 263 80 60 120 87 153 104 15 8 66 45 113
82 48 38 140 107 204 154 65 47 147 109 183 138 36 29 78 60 93 68 28 14 29
17 29 94 0 44 -2 80 -5 80 -3 0 -51 -35 -106 -78 -56 -42 -111 -84 -123 -92
-11 -8 -75 -55 -141 -105 -66 -49 -130 -97 -142 -105 -12 -8 -75 -55 -139
-105 -139 -107 -216 -166 -264 -199 -19 -14 -64 -47 -100 -75 -89 -69 -244
-183 -348 -256 -48 -34 -125 -89 -171 -123 -86 -65 -296 -208 -404 -276 -44
-27 -74 -39 -102 -40 -34 -1 -41 -5 -43 -24 -5 -30 -29 -39 -50 -19 -17 18
-16 23 30 111 24 47 12 68 -25 43 -23 -15 -87 -100 -87 -115 0 -4 -13 -20 -30
-35 -16 -16 -42 -50 -57 -77 -15 -27 -35 -51 -45 -53 -26 -7 -33 -26 65 172
36 72 45 101 29 101 -4 0 -15 -8 -24 -17 -8 -10 -51 -52 -93 -93 -43 -41 -95
-101 -116 -134 -28 -42 -40 -54 -45 -43 -9 25 96 176 165 235 33 30 61 58 61
63 0 13 -32 11 -55 -4 -11 -7 -38 -18 -60 -26 -37 -11 -135 -54 -194 -84 -13
-7 -29 -21 -35 -32 -6 -11 -32 -50 -58 -86 -27 -37 -48 -71 -48 -77 0 -19 79
-78 120 -91 37 -11 40 -14 34 -39 -10 -41 -23 -52 -60 -52 -29 0 -34 -3 -34
-24 0 -34 -13 -39 -43 -16 -14 11 -29 20 -33 20 -4 0 -19 10 -32 23 -21 20
-33 22 -112 21 -60 -1 -107 -8 -148 -23 -34 -11 -96 -30 -139 -41 -43 -12
-121 -36 -173 -55 -52 -19 -133 -43 -180 -55 -47 -11 -113 -34 -146 -50 -57
-28 -78 -47 -166 -150 -18 -21 -34 -30 -49 -28 -36 5 -33 24 8 49 21 12 40 24
42 26 8 6 -32 43 -47 43 -17 0 -50 -15 -212 -94 -130 -63 -199 -103 -319 -184
-174 -118 -340 -259 -391 -333 -14 -20 -59 -68 -101 -108 -93 -86 -123 -143
-140 -263 -11 -81 -10 -92 10 -154 12 -36 35 -85 51 -109 39 -56 122 -130 171
-151 21 -10 39 -23 39 -30 0 -7 7 -20 16 -28 14 -15 13 -19 -17 -44 -18 -15
-51 -46 -74 -69 -23 -23 -71 -64 -106 -89 -35 -26 -75 -58 -89 -70 -95 -88
-117 -101 -105 -64 8 24 -20 29 -29 5 -3 -8 -10 -15 -16 -15 -5 0 -20 -9 -32
-19 -33 -28 -101 -82 -193 -152 -99 -76 -116 -95 -110 -123 7 -28 3 -32 -85
-101 -41 -32 -80 -63 -85 -69 -16 -17 -105 -76 -115 -76 -13 0 -171 -165 -217
-226 -21 -29 -66 -84 -101 -123 -60 -69 -71 -97 -34 -84 9 3 24 12 32 18 29
24 125 70 185 89 33 10 69 22 80 26 11 4 45 15 75 24 63 21 135 66 200 126 25
22 72 62 105 88 33 25 62 49 65 52 13 16 40 17 66 3 16 -9 51 -15 77 -15 48 1
87 23 156 89 36 35 55 31 46 -10 -4 -17 -9 -83 -12 -144 -4 -109 -3 -115 30
-200 18 -49 38 -102 44 -120 l11 -31 -87 -1 c-110 0 -132 -3 -215 -30 -78 -25
-96 -22 -96 14 0 18 -5 25 -20 25 -21 0 -24 -4 -34 -52 -5 -21 -3 -28 8 -28
23 0 30 -20 12 -38 -15 -15 -18 -15 -46 2 -28 16 -33 16 -55 2 -27 -18 -39 -4
-23 27 10 20 3 37 -17 37 -14 0 -29 -45 -20 -60 7 -12 -59 -80 -78 -80 -8 0
-22 11 -31 25 -19 28 -38 32 -56 10 -7 -8 -21 -15 -31 -15 -23 0 -34 -17 -20
-34 17 -20 -9 -36 -53 -33 -28 1 -41 -3 -47 -15 -5 -10 -13 -26 -18 -35 -9
-18 -14 -19 -63 -7 -33 8 -104 -36 -87 -53 8 -8 5 -17 -10 -32 -26 -26 -27
-51 -2 -58 26 -7 34 -41 12 -52 -10 -6 -23 -6 -32 0 -18 11 -60 11 -78 0 -11
-7 -11 -12 2 -31 19 -28 13 -47 -24 -65 -33 -17 -49 -19 -49 -5 0 6 12 10 26
10 23 0 25 3 22 33 -3 28 -7 32 -35 35 -20 2 -33 -1 -33 -8 0 -6 -11 -22 -25
-36 -30 -30 -46 -59 -38 -68 3 -3 23 -6 44 -6 42 0 57 -13 39 -35 -17 -21 14
-77 42 -73 11 2 26 -5 32 -14 8 -14 7 -20 -8 -31 -27 -20 -2 -32 25 -13 17 11
24 12 34 3 15 -14 1 -37 -21 -37 -7 0 -18 -9 -24 -19 -8 -16 -6 -23 12 -35 19
-14 20 -18 9 -39 -19 -35 7 -82 50 -91 l32 -6 -23 -25 c-16 -17 -27 -22 -34
-15 -22 22 -44 10 -50 -26 -8 -40 1 -94 15 -94 5 0 9 5 9 10 0 19 18 10 23
-12 4 -13 16 -27 28 -33 29 -13 34 -29 14 -49 -22 -21 -13 -32 32 -41 24 -4
48 -19 70 -43 31 -34 33 -35 33 -12 0 23 14 20 16 -3 0 -7 2 -20 2 -30 1 -11
7 -15 14 -11 8 5 9 0 5 -17 -4 -13 -7 -28 -7 -32 0 -5 -5 -5 -10 -2 -5 3 -10
0 -10 -8 0 -22 30 -30 31 -9 1 39 19 -31 20 -81 2 -73 -10 -129 -33 -151 -28
-26 -90 -33 -111 -11 -22 21 -23 75 -2 75 29 0 30 32 2 54 -26 21 -27 24 -19
89 10 77 -2 114 -34 109 -39 -7 -44 -23 -47 -167 -2 -154 7 -187 59 -222 76
-50 209 11 255 116 12 29 30 56 38 59 29 10 42 42 17 42 -8 0 -16 -8 -19 -17
-3 -14 -6 -11 -12 10 -5 19 -2 35 9 52 17 26 49 25 39 -1 -6 -16 29 -59 60
-76 13 -6 23 -6 33 2 11 10 15 9 20 -4 3 -9 4 -22 1 -29 -3 -8 3 -20 13 -27
15 -11 17 -18 9 -32 -8 -14 -6 -26 6 -44 15 -24 15 -26 -17 -54 -18 -17 -28
-30 -21 -30 6 0 16 7 23 15 7 8 22 15 34 15 56 0 84 59 51 107 -10 15 -12 24
-4 28 5 4 9 23 7 43 -3 36 -3 37 40 40 46 3 49 1 27 -22 -14 -13 -13 -17 10
-39 19 -17 25 -31 23 -57 -3 -31 1 -36 35 -52 43 -21 47 -39 12 -62 -14 -9
-25 -26 -25 -38 l0 -22 -16 22 c-17 24 -54 30 -54 8 0 -29 11 -44 31 -39 20 6
25 -12 10 -35 -7 -11 -12 -12 -29 -1 -27 17 -75 -2 -66 -26 3 -8 10 -15 15
-15 22 0 6 -30 -18 -36 -57 -12 -64 -16 -61 -32 2 -9 18 -26 35 -37 38 -24 39
-29 13 -57 -11 -12 -20 -32 -20 -45 0 -13 -4 -23 -9 -23 -5 0 -11 -7 -15 -15
-8 -21 31 -54 55 -48 27 7 44 40 29 58 -16 20 3 51 37 60 26 6 26 8 10 19 -21
16 -22 30 -1 51 12 12 19 13 30 4 8 -6 14 -17 14 -25 0 -7 6 -19 13 -26 7 -7
18 -32 25 -55 7 -23 17 -45 23 -48 14 -9 37 13 60 58 17 32 23 36 35 27 18
-16 18 -34 -1 -50 -8 -7 -21 -25 -29 -40 -12 -26 -12 -30 8 -49 29 -30 12 -56
-37 -56 -26 -1 -45 -9 -67 -30 -32 -30 -42 -69 -15 -59 8 4 15 12 15 19 0 20
90 48 107 34 8 -7 29 -9 53 -5 45 7 46 5 24 -29 -18 -28 -12 -42 22 -56 20 -7
23 -12 15 -28 -22 -39 -87 -36 -113 6 -13 21 -23 26 -62 27 -46 1 -57 -9 -34
-32 9 -9 9 -12 0 -12 -7 0 -12 -7 -12 -15 0 -8 -8 -15 -17 -15 -17 -1 -17 -1
0 -11 25 -15 21 -36 -11 -47 -21 -7 -31 -6 -41 6 -12 13 -12 17 4 28 30 22 10
27 -44 11 -32 -9 -53 -11 -59 -5 -6 6 -15 7 -20 4 -16 -10 -3 -41 21 -51 29
-13 29 -49 0 -53 -13 -2 -23 -10 -23 -18 0 -19 -46 -37 -68 -25 -27 14 -88 -1
-77 -19 12 -20 85 -50 125 -52 29 -1 47 5 63 20 24 23 71 29 96 13 9 -6 12
-19 8 -40 -5 -26 -2 -34 19 -48 20 -12 24 -22 19 -40 -10 -43 3 -63 41 -63 26
0 34 4 34 18 0 9 16 34 35 54 19 20 35 40 35 43 0 4 7 13 15 22 20 20 32 9 15
-13 -11 -13 -11 -17 0 -24 12 -8 11 -36 -5 -72 -14 -34 39 -20 86 22 48 43 66
46 61 9 -8 -67 -9 -64 28 -64 32 0 35 3 40 35 8 46 27 80 45 80 8 0 28 -15 44
-32 23 -24 31 -43 31 -69 0 -39 11 -53 48 -62 17 -4 32 2 54 22 36 32 31 51
-13 51 -17 0 -29 5 -29 13 0 7 -8 17 -18 24 -14 8 -18 20 -14 42 2 17 10 31
17 31 7 0 27 3 44 6 l32 7 -7 -50 c-7 -56 2 -69 48 -64 17 1 34 -5 47 -18 12
-12 43 -26 70 -32 28 -6 55 -17 61 -25 8 -8 21 -12 36 -8 15 4 24 2 24 -5 0
-6 7 -11 15 -11 23 0 38 -36 25 -61 -15 -27 -7 -47 22 -51 32 -4 36 -36 6 -47
-13 -5 -30 -16 -38 -25 -11 -15 -11 -19 1 -31 8 -7 28 -15 44 -17 l30 -3 -3
70 c-2 41 -10 76 -18 86 -24 27 -16 49 22 65 44 18 59 8 45 -28 -9 -23 -7 -26
17 -31 33 -6 48 5 62 49 14 42 24 37 40 -21 12 -42 11 -47 -9 -69 -24 -26 -27
-54 -7 -82 12 -15 28 -19 88 -20 82 -2 104 -8 118 -34 15 -27 2 -48 -36 -60
-19 -7 -32 -16 -29 -21 9 -14 59 -11 81 6 10 8 27 15 37 15 13 0 17 9 17 40 0
37 2 40 28 40 15 0 33 -4 39 -8 7 -5 42 -4 78 2 36 5 67 7 70 4 3 -3 -2 -21
-10 -41 -21 -52 -19 -64 15 -76 22 -7 30 -16 30 -33 0 -13 5 -29 12 -36 18
-18 -15 -26 -56 -12 -40 13 -56 7 -56 -21 0 -10 -4 -19 -8 -19 -5 0 -15 -11
-22 -25 -16 -31 0 -55 39 -56 l26 0 -24 -10 c-14 -5 -51 -7 -82 -3 -58 6 -59
7 -65 43 -10 57 -44 86 -44 39 0 -31 -8 -39 -59 -67 -52 -28 -138 -31 -195 -7
-21 9 -43 13 -48 10 -5 -4 -21 -1 -34 7 -21 11 -27 10 -44 -8 -29 -32 -197
-38 -915 -34 -416 3 -700 17 -756 39 -15 6 -31 7 -40 1 -18 -11 -252 -11 -303
1 -21 4 -42 13 -45 19 -9 13 -31 14 -246 6 -175 -6 -298 3 -443 33 -30 7 -60
5 -105 -5 -50 -12 -79 -13 -152 -4 -49 6 -164 16 -255 21 -91 6 -278 17 -416
26 -138 8 -268 20 -290 26 -23 6 -102 9 -199 6 -193 -5 -213 -12 -252 -93 -20
-40 -35 -58 -57 -66 -31 -12 -565 -32 -701 -27 -96 4 -376 3 -455 -1 -158 -9
-1287 6 -1340 17 -62 14 -73 24 -153 147 -74 115 -73 113 -113 190 -39 74
-129 213 -148 230 -15 12 -106 161 -106 173 0 4 -12 24 -26 43 -14 19 -32 51
-41 72 -8 20 -19 37 -24 37 -5 0 -9 4 -9 9 0 9 -55 105 -92 160 -13 19 -61 72
-107 119 -89 91 -131 162 -131 222 0 20 -7 88 -15 152 -9 64 -15 129 -15 145
3 113 -2 274 -9 358 -19 219 -116 351 -361 492 -19 11 -65 30 -101 42 -81 27
-100 39 -101 71 -1 40 -27 123 -46 151 -9 15 -29 44 -44 66 -27 41 -72 75
-118 88 -14 4 -32 13 -40 20 -22 20 -101 47 -132 46 -23 -1 -31 6 -44 36 -25
57 -25 61 9 87 38 28 77 42 77 27 0 -6 10 -11 23 -11 24 0 59 31 70 62 4 10
10 18 14 18 11 0 102 -47 119 -61 11 -9 14 -7 14 13 0 40 30 59 91 59 46 -1
166 5 192 8 5 1 6 5 3 10 -7 10 58 51 81 51 8 0 17 -9 20 -20 3 -11 9 -18 13
-15 5 3 6 13 3 23 -5 22 16 42 49 46 13 1 30 6 38 12 38 24 106 41 127 31 16
-7 30 -5 56 12 27 16 44 20 78 15 32 -4 50 -1 64 10 18 14 18 15 3 16 -11 0
-18 8 -18 19 0 24 18 36 47 33 14 -2 23 4 28 18 6 18 13 21 38 17 21 -3 36 1
43 11 14 19 34 8 34 -19 0 -31 30 -22 37 11 3 17 9 30 14 30 5 0 23 13 42 29
33 30 33 30 51 10 15 -18 24 -20 69 -13 29 5 69 7 91 6 36 -2 38 0 33 23 -6
32 22 49 69 42 33 -6 51 8 84 62 7 12 13 13 35 3 39 -18 51 -15 65 17 14 35
41 44 69 24 17 -11 32 -12 81 -3 33 6 65 8 70 5 6 -3 10 4 10 17 0 36 16 45
63 38 54 -8 67 -4 67 22 0 17 2 18 15 8 13 -11 20 -11 39 0 18 9 28 9 46 0 19
-10 27 -9 52 10 27 20 31 21 47 6 16 -15 19 -15 31 -1 14 17 56 20 65 5 9 -15
25 -12 25 4 0 13 34 23 100 29 14 1 38 10 53 21 22 15 39 18 84 13 60 -6 82 6
83 45 0 9 4 19 9 22 14 9 42 -5 39 -18 -4 -16 11 -18 50 -5 21 7 32 17 32 29
0 21 53 37 88 26 23 -8 47 17 39 38 -8 20 32 33 44 15 5 -8 10 -18 12 -24 2
-5 13 1 25 15 16 20 23 22 33 13 7 -7 18 -9 28 -4 9 5 31 11 50 15 19 3 40 14
46 23 12 16 14 16 32 -6 13 -16 26 -22 36 -18 21 8 22 27 1 27 -22 0 -15 54 8
58 10 2 33 -8 51 -22 40 -31 61 -34 52 -7 -9 30 20 44 88 44 34 0 65 5 69 11
7 10 28 13 141 19 37 1 57 9 85 33 21 17 68 40 109 52 64 20 72 25 75 50 3 26
6 27 57 27 51 0 55 2 64 30 17 53 37 68 81 61 27 -5 46 -2 62 9 13 8 57 18 96
21 170 14 183 16 204 36 15 13 24 16 29 8 4 -6 14 -8 24 -4 44 18 114 23 142
9 37 -20 36 -20 44 16 6 28 10 30 37 27 24 -4 31 0 38 17 7 19 15 22 47 19 89
-10 98 -9 98 5 0 23 22 24 28 1 7 -26 33 -26 47 0 6 11 16 20 23 20 7 0 31 9
52 20 27 14 49 18 68 14 22 -5 35 0 55 19 21 19 42 26 95 31 38 4 79 14 92 22
18 12 28 13 44 5 29 -16 35 -14 77 24 21 19 46 35 55 35 9 0 19 6 22 14 3 8
26 18 51 21 25 4 46 12 46 18 0 7 35 8 104 4 l104 -7 31 33 c17 17 43 44 57
59 36 38 70 37 78 -2 4 -21 11 -30 26 -30 16 0 20 7 20 34 0 19 4 37 10 41 5
3 39 8 75 12 56 5 68 9 75 28 7 17 19 23 61 28 28 4 59 13 68 21 9 8 36 16 61
17 29 2 60 13 88 32 l42 28 26 -20 c15 -12 33 -21 40 -21 17 0 84 39 107 62
10 10 31 18 47 18 18 0 35 9 48 24 19 25 138 80 152 71 5 -3 22 6 38 20 16 14
35 25 41 25 17 0 13 20 -5 27 -8 3 -45 -2 -82 -12 -37 -10 -98 -23 -137 -31
-38 -7 -97 -22 -130 -32 -33 -11 -105 -31 -160 -46 -55 -15 -114 -31 -131 -36
-17 -6 -39 -10 -50 -10 -10 -1 -37 -8 -59 -16 -22 -8 -58 -19 -80 -24 -22 -5
-87 -20 -145 -33 -97 -22 -220 -56 -331 -92 -26 -8 -55 -15 -65 -15 -11 0 -50
-12 -89 -26 -38 -14 -85 -30 -103 -35 -17 -6 -56 -21 -85 -34 -39 -19 -69 -25
-120 -25 -55 0 -78 -6 -127 -30 -59 -30 -122 -50 -230 -74 -65 -15 -255 -69
-520 -149 -63 -19 -160 -48 -215 -65 -55 -16 -152 -42 -215 -57 -63 -14 -149
-35 -190 -46 -41 -12 -97 -27 -125 -34 -27 -7 -75 -21 -105 -29 -30 -9 -93
-25 -140 -37 -47 -11 -105 -26 -130 -34 -25 -8 -133 -37 -240 -65 -107 -27
-247 -64 -310 -81 -63 -17 -131 -35 -150 -39 -19 -4 -48 -13 -63 -19 -16 -6
-41 -11 -57 -11 -16 0 -47 -6 -67 -14 -44 -16 -131 -39 -218 -57 -33 -7 -71
-19 -85 -26 -14 -7 -37 -13 -53 -13 -15 0 -35 -4 -45 -9 -31 -18 -146 -50
-202 -57 -30 -4 -73 -16 -95 -27 -22 -11 -60 -24 -85 -27 -25 -4 -88 -19 -140
-34 -117 -33 -183 -50 -279 -72 -41 -9 -86 -23 -100 -30 -14 -8 -36 -14 -47
-14 -12 0 -55 -11 -95 -23 -75 -24 -141 -42 -259 -72 -36 -9 -96 -28 -134 -41
-38 -13 -85 -29 -105 -34 -177 -44 -248 -63 -263 -71 -9 -5 -34 -11 -55 -14
-21 -3 -45 -9 -53 -12 -8 -3 -35 -9 -60 -14 -69 -11 -123 -27 -154 -43 -16 -8
-42 -12 -60 -9 -23 4 -36 0 -50 -16 -23 -26 -56 -30 -35 -5 7 8 13 27 14 40 1
27 39 63 66 64 21 0 24 71 4 110 -9 17 -13 39 -10 49 3 10 -1 44 -9 77 -8 32
-17 71 -20 87 -4 15 -10 27 -15 27 -15 0 -31 -50 -31 -98 -1 -26 -7 -81 -14
-122 -7 -41 -11 -81 -9 -87 3 -7 2 -21 -2 -30 -5 -10 -9 -31 -9 -48 -1 -22 -9
-33 -29 -43 -15 -7 -27 -17 -27 -21 0 -15 -83 -46 -122 -46 -26 0 -42 6 -52
20 -24 35 -70 80 -119 119 -66 52 -119 127 -155 216 -16 42 -41 93 -56 114
-14 21 -26 47 -26 56 0 10 -7 23 -15 30 -8 7 -15 17 -15 22 0 6 -13 38 -30 73
-16 34 -37 92 -45 128 -8 37 -19 77 -24 89 -7 21 -17 119 -26 253 -1 28 -7 68
-13 90 -25 92 -25 90 -36 255 -7 102 0 189 35 430 18 118 26 143 65 193 29 37
48 50 99 69 53 18 64 27 69 49 8 40 55 57 356 129 30 7 87 24 125 37 39 13
111 30 160 39 50 8 137 26 194 40 81 20 116 24 162 19 51 -6 65 -4 107 18 26
13 63 28 82 32 19 4 62 15 95 25 68 21 298 71 420 90 124 20 403 83 508 115
26 8 100 21 165 30 64 8 189 31 277 50 88 20 180 40 205 45 214 44 296 67 322
88 9 7 61 18 120 23 56 5 132 16 167 25 64 14 219 38 356 54 318 36 362 43
410 65 75 33 84 36 167 45 43 5 88 15 100 23 13 8 41 18 63 22 99 17 295 92
295 113 0 16 24 42 39 42 17 0 13 18 -6 28 -14 9 -14 11 5 21 15 8 34 8 62 2
51 -11 60 -20 37 -32 -56 -32 46 -35 158 -4 28 7 91 21 140 29 50 9 113 21
140 26 61 13 181 35 295 56 103 18 217 43 485 104 133 30 207 45 375 75 52 10
124 24 159 32 75 17 375 81 441 93 25 5 88 18 140 30 115 25 305 65 380 80
207 40 667 135 920 191 80 17 170 35 200 41 30 5 118 24 195 43 77 18 194 43
260 55 66 12 230 44 365 71 135 28 283 57 330 64 75 13 343 66 485 97 76 16
145 44 201 81 38 26 56 32 72 26 24 -9 175 11 257 35 28 7 86 21 130 30 197
41 330 72 505 116 41 10 98 21 125 24 28 4 103 20 169 36 65 17 131 30 146 30
15 0 47 7 71 15 24 9 54 16 67 18 13 1 32 14 43 28 17 24 22 26 47 17 24 -9
33 -8 60 12 18 13 32 27 32 31 0 5 11 20 25 35 26 28 41 83 31 110 -8 20 -26
9 -26 -16 0 -34 -18 -31 -37 8 -11 20 -28 39 -38 40 -30 6 -66 -20 -82 -60 -8
-21 -20 -38 -26 -38 -5 0 -25 11 -43 25 -35 27 -63 32 -81 14 -6 -6 -44 -11
-84 -11 -43 0 -87 -6 -105 -14 -73 -34 -294 -59 -336 -38 -42 22 -72 17 -104
-17 -49 -51 -94 -74 -149 -75 -142 -2 -251 -15 -277 -34 -16 -12 -43 -20 -67
-20 -22 0 -43 -4 -46 -10 -11 -17 -73 -11 -121 12 -46 23 -46 23 -60 3 -29
-39 -46 -123 -39 -185 4 -33 3 -66 -3 -76 -8 -14 -13 -10 -36 28 -16 27 -26
60 -26 84 0 21 -11 62 -25 89 -13 28 -25 63 -25 79 0 15 -7 49 -15 75 -8 25
-19 65 -25 88 -6 23 -27 63 -46 89 -33 43 -36 51 -30 91 3 25 2 53 -4 62 -5
10 -19 54 -30 97 -43 163 -52 184 -96 240 -31 41 -44 67 -44 90 0 17 -6 37
-14 43 -12 10 -15 6 -18 -26 -3 -36 -4 -38 -36 -35 -19 1 -50 13 -70 27 -38
26 -76 32 -87 15 -9 -15 12 -47 74 -114 31 -34 62 -74 68 -91 6 -16 20 -55 32
-85 11 -30 26 -77 32 -105 6 -27 16 -54 20 -60 5 -5 9 -21 9 -37 0 -29 19 -78
30 -78 18 0 51 -44 46 -63 -3 -11 2 -33 10 -50 16 -29 16 -30 -35 -81 -36 -37
-53 -63 -60 -94 -5 -24 -16 -51 -25 -61 -9 -10 -16 -23 -16 -29 0 -7 -16 -30
-36 -52 -30 -33 -43 -40 -75 -40 -21 0 -40 -4 -43 -9 -3 -5 -18 -12 -33 -15
-16 -4 -48 -17 -73 -30 -25 -13 -63 -26 -85 -30 -22 -4 -55 -16 -73 -27 -18
-10 -48 -19 -66 -19 -18 0 -52 -9 -76 -21 -24 -12 -74 -25 -111 -30 -63 -9
-69 -8 -105 16 -24 16 -47 24 -59 21 -92 -24 -143 -41 -164 -55 -19 -12 -49
-16 -124 -16 -84 0 -101 -3 -112 -19 -8 -10 -49 -30 -92 -45 -43 -15 -92 -35
-110 -44 -19 -10 -55 -17 -90 -17 -40 0 -68 -6 -91 -20 -41 -25 -107 -36 -126
-21 -8 6 -17 28 -21 47 -3 19 -13 38 -21 41 -19 7 -54 -25 -54 -49 0 -26 -18
-58 -33 -58 -7 0 -25 -7 -41 -15 -18 -9 -52 -15 -85 -14 -31 1 -77 -4 -103
-11 -39 -11 -48 -18 -48 -35 0 -43 -60 -62 -68 -22 -3 12 6 21 27 28 17 6 31
14 31 18 0 13 -43 29 -87 34 -38 5 -43 3 -43 -15 0 -12 8 -27 17 -34 16 -11
15 -13 -10 -25 -21 -9 -33 -10 -45 -2 -14 9 -17 29 -17 124 0 121 -5 139 -35
139 -22 0 -45 -66 -34 -95 5 -11 -9 -30 -49 -66 -34 -30 -58 -60 -62 -79 -9
-43 -61 -110 -85 -110 -13 0 -28 13 -41 35 -11 19 -30 37 -42 41 -12 3 -38 18
-57 33 -19 15 -47 34 -62 44 -16 10 -34 33 -42 52 -18 43 -51 57 -100 44 -33
-9 -34 -11 -25 -38 8 -22 6 -43 -5 -82 -9 -29 -16 -72 -16 -96 0 -37 -4 -45
-25 -55 -22 -10 -28 -8 -46 10 -31 34 -52 25 -64 -26 -5 -23 -14 -34 -33 -39
-38 -9 -112 14 -134 42 -22 28 -59 33 -79 9 -7 -9 -12 -34 -12 -55 2 -44 3
-43 -32 -27 -21 9 -28 9 -35 -1 -4 -8 -25 -14 -45 -15 -30 -1 -43 -8 -70 -41
-29 -34 -38 -39 -71 -37 -50 4 -69 15 -84 52 -9 22 -22 33 -42 37 -15 3 -30 9
-33 13 -8 13 16 124 36 164 21 43 15 56 -28 56 -47 0 -73 -18 -73 -50 0 -33
-23 -119 -43 -159 -7 -14 -25 -32 -40 -40 -20 -11 -34 -32 -46 -66 -10 -27
-28 -66 -40 -85 -16 -27 -20 -44 -15 -76 5 -36 3 -41 -21 -52 -34 -16 -41 -11
-49 37 -6 37 -10 41 -49 53 -23 6 -56 22 -73 35 -17 13 -45 23 -63 23 -24 0
-34 5 -38 20 -5 20 -33 29 -33 10 0 -5 -7 -10 -15 -10 -8 0 -15 4 -15 9 0 12
-73 38 -127 45 -52 7 -75 -11 -67 -54 5 -21 0 -37 -15 -56 -11 -15 -21 -36
-21 -48 0 -22 -57 -86 -77 -86 -6 0 -35 -11 -64 -24 -37 -16 -63 -37 -84 -66
-52 -74 -97 -120 -115 -120 -10 0 -20 -7 -24 -15 -9 -25 -40 -17 -76 20 -20
21 -44 35 -58 35 -13 0 -32 5 -44 11 -12 7 -34 8 -57 3 -21 -4 -29 -9 -19 -11
17 -4 17 -6 1 -31 -10 -15 -22 -30 -28 -34 -16 -12 -40 -4 -40 12 0 18 -33 26
-48 11 -7 -7 -6 -16 6 -29 38 -41 6 -44 -43 -4 -24 20 -56 32 -103 40 -37 7
-93 26 -125 43 -70 36 -152 124 -182 193 -12 28 -26 58 -30 67 -4 8 -13 42
-20 75 -16 76 -46 167 -75 224 -38 76 -57 149 -61 244 -7 160 -25 244 -78 358
-27 59 -77 289 -72 333 3 22 8 83 11 135 11 164 24 294 34 325 20 65 60 156
82 187 64 91 83 108 164 139 44 17 89 41 100 54 32 36 259 103 457 134 64 11
122 22 128 26 10 6 77 18 253 46 32 5 86 15 120 23 34 8 107 18 162 22 55 3
129 13 165 20 74 16 200 38 310 53 172 24 317 49 336 59 22 11 180 39 299 53
226 25 277 33 365 50 52 11 124 24 160 30 36 5 112 19 170 29 58 11 118 20
133 20 16 0 26 4 22 9 -9 15 7 20 91 25 84 6 215 29 249 45 31 15 229 51 275
51 23 0 39 4 36 9 -10 15 21 21 107 21 45 1 102 5 127 11 25 5 64 12 88 16 23
3 45 10 48 14 3 5 26 9 52 9 42 1 45 2 29 14 -16 12 -14 14 20 20 21 4 54 7
73 7 19 0 79 7 132 17 79 14 98 20 102 36 4 17 7 18 28 5 21 -13 70 -16 143
-6 19 2 34 12 40 26 12 26 37 34 91 29 36 -3 39 -6 42 -36 3 -31 5 -32 47 -32
46 0 75 -7 75 -20 0 -4 -11 -5 -25 -2 -13 2 -33 1 -42 -3 -16 -7 -15 -9 7 -15
14 -5 58 -8 98 -9 51 -1 78 -6 88 -16 9 -8 30 -15 47 -16 18 0 70 -2 117 -5
47 -2 95 -4 107 -4 13 0 22 -4 22 -8 -4 -24 4 -41 21 -47 11 -3 20 -13 20 -20
0 -17 36 -38 50 -30 16 10 11 23 -11 30 -13 4 -18 12 -15 21 4 9 -12 34 -39
63 -25 26 -42 51 -39 54 3 3 -11 13 -31 21 -32 14 -36 19 -31 40 5 20 1 26
-25 35 -19 6 -28 15 -23 22 3 6 0 15 -7 20 -25 15 4 27 86 34 44 4 82 9 84 11
3 3 -43 4 -103 3 -67 -1 -111 2 -118 9 -16 16 -4 18 138 31 66 6 177 8 247 4
93 -4 127 -3 127 5 0 15 56 16 65 2 7 -12 75 -14 75 -2 0 25 202 36 305 15 45
-9 243 2 295 17 19 5 53 12 75 15 70 9 110 17 120 25 17 13 63 20 148 25 45 3
116 7 157 10 41 2 127 7 190 11 103 5 239 26 260 39 5 3 11 1 15 -5 6 -10 106
-7 260 9 50 6 158 13 240 16 83 3 200 15 262 26 62 10 165 24 230 29 65 5 134
14 153 20 19 6 71 13 115 15 211 12 273 19 440 52 75 14 107 23 147 44 10 5
35 9 55 9 21 0 48 3 60 6 l23 6 0 5404 0 5404 -19200 0 -19200 0 0 -10800z
m29940 5713 c447 -208 630 -303 630 -327 0 -4 6 -14 14 -22 8 -8 18 -38 21
-68 7 -52 -10 -1977 -18 -2026 -5 -36 -26 -71 -58 -100 -28 -26 -227 -130
-248 -130 -6 0 -11 -5 -11 -11 0 -6 -7 -8 -16 -5 -8 3 -12 2 -9 -4 3 -5 -14
-14 -37 -20 -24 -7 -50 -18 -58 -25 -8 -7 -27 -16 -42 -20 -15 -4 -32 -13 -39
-21 -6 -8 -17 -14 -24 -14 -10 0 -108 -44 -159 -72 -17 -9 -18 -7 -11 19 4 15
7 173 6 350 -2 252 1 345 14 430 13 88 16 190 14 568 -1 253 -6 521 -11 595
-6 74 -13 302 -17 507 -6 367 -6 372 -28 395 -13 14 -23 28 -23 32 0 12 47 -2
110 -31z m-9495 -1160 c198 -80 495 -199 660 -265 165 -66 424 -169 575 -230
258 -104 335 -135 403 -160 40 -15 35 -31 -66 -240 -47 -95 -115 -236 -152
-313 -37 -77 -102 -212 -145 -300 -43 -88 -111 -230 -153 -315 -114 -236 -229
-474 -339 -700 -55 -113 -127 -260 -159 -327 -33 -67 -64 -125 -68 -128 -5 -3
-114 10 -243 29 -128 19 -345 51 -483 70 -182 26 -262 42 -292 57 -24 12 -43
26 -43 30 0 5 -6 9 -14 9 -8 0 -16 4 -18 8 -3 7 -128 102 -567 432 -84 63
-127 102 -129 117 -3 23 70 242 418 1253 33 96 98 283 153 445 72 207 208 600
227 653 11 30 15 33 44 26 17 -3 193 -72 391 -151z m14566 -1366 c54 -110 99
-206 99 -213 0 -14 -414 -229 -462 -240 -26 -6 -26 -5 -21 35 5 37 -4 60 -86
226 -51 102 -89 190 -86 195 3 5 101 56 217 114 167 83 215 103 226 94 7 -7
58 -102 113 -211z m-21588 -67 c21 -1 57 -95 51 -129 -5 -24 -3 -31 9 -31 11
0 14 -5 10 -15 -5 -13 -8 -12 -20 5 -8 12 -13 30 -10 41 3 10 2 19 -3 19 -4 0
-13 14 -20 30 -7 17 -16 30 -20 30 -4 0 -10 9 -13 20 -5 20 -37 29 -37 10 0
-5 5 -10 10 -10 6 0 10 -4 10 -10 0 -5 -7 -10 -15 -10 -8 0 -15 -6 -15 -14 0
-14 28 -15 49 -1 5 3 12 1 16 -5 3 -6 -1 -13 -9 -16 -20 -8 -20 -28 -1 -44 8
-7 15 -19 15 -26 0 -11 -7 -10 -35 3 -19 9 -35 22 -35 29 0 24 -22 26 -44 4
l-21 -23 22 6 c14 3 31 -2 44 -14 12 -10 26 -19 31 -19 4 0 8 -7 8 -15 0 -18
17 -20 22 -3 3 8 14 2 31 -16 15 -16 27 -26 27 -22 0 4 7 0 16 -9 18 -18 18
-18 -13 -34 -31 -16 -29 -28 6 -36 19 -4 28 -11 25 -19 -3 -8 2 -20 10 -28 8
-9 16 -35 18 -59 3 -39 6 -44 30 -47 31 -4 33 16 5 49 -21 24 -21 29 -3 29 18
0 60 -85 50 -101 -4 -7 -3 -9 3 -6 6 4 15 -11 22 -33 6 -22 16 -40 21 -40 6 0
10 -8 10 -17 0 -10 7 -31 15 -47 19 -35 19 -36 -1 -36 -13 0 -15 -7 -10 -30 3
-20 1 -30 -6 -30 -21 0 7 -21 31 -23 24 -1 26 -9 11 -38 -9 -15 -7 -19 5 -19
11 0 14 -7 10 -22 -2 -13 2 -36 9 -53 8 -16 15 -23 15 -14 1 10 9 15 24 14 15
-1 22 -8 21 -23 0 -12 2 -19 6 -17 6 4 39 -61 44 -88 9 -42 31 -107 36 -107 3
0 6 -8 7 -18 1 -10 18 -42 37 -71 37 -54 40 -62 36 -95 -1 -11 3 -16 10 -11 7
4 11 1 9 -6 -3 -29 2 -47 21 -69 11 -13 20 -27 20 -31 0 -4 16 -43 36 -86 66
-142 82 -181 77 -186 -2 -3 12 -36 31 -73 20 -37 41 -85 48 -106 6 -21 15 -38
20 -38 17 0 7 -16 -19 -32 -16 -10 -55 -42 -88 -72 -33 -31 -65 -56 -72 -56
-6 0 -13 -4 -15 -9 -5 -15 -81 -92 -137 -141 -29 -25 -87 -78 -129 -117 -42
-40 -81 -73 -86 -73 -5 0 -14 -7 -20 -16 -19 -26 -40 -7 -78 71 l-37 73 -63
-14 c-35 -8 -88 -19 -118 -24 -30 -5 -89 -16 -130 -25 -41 -9 -97 -20 -125
-25 -27 -5 -93 -19 -145 -30 l-95 -20 -27 32 c-16 18 -28 37 -28 42 0 9 -58
105 -70 116 -3 3 -21 37 -40 75 -19 39 -38 72 -42 73 -5 2 -8 7 -8 12 0 4 -17
37 -38 71 -21 35 -46 81 -57 102 -11 20 -23 37 -27 37 -4 0 -3 10 3 23 13 26
283 162 305 153 8 -3 20 -19 25 -36 6 -16 14 -30 18 -30 3 0 12 -15 20 -32 8
-18 20 -40 26 -48 7 -8 35 -58 63 -110 l50 -95 48 1 c49 2 123 12 242 35 48 9
62 16 62 30 0 9 -3 19 -7 21 -8 3 -73 133 -204 405 -45 93 -69 133 -81 133
-17 0 -68 -20 -78 -30 -3 -3 -34 -19 -70 -37 -36 -17 -157 -77 -270 -132 -179
-89 -250 -115 -243 -89 1 4 -27 55 -62 114 -35 59 -76 132 -92 163 -15 31 -30
58 -33 61 -14 14 -100 169 -100 180 0 6 -4 10 -10 10 -5 0 -10 4 -10 10 0 5
-17 38 -38 72 -20 35 -46 81 -57 103 -11 22 -23 42 -27 43 -5 2 -8 8 -8 14 0
5 -9 23 -21 39 -11 16 -18 37 -15 46 7 20 8 21 399 212 158 78 287 146 287
151 0 6 -4 18 -10 28 -5 9 -14 28 -20 42 -5 14 -16 33 -22 43 -18 24 4 40 150
107 65 29 169 78 232 109 63 30 116 55 117 53 2 -1 33 14 70 33 36 19 70 32
74 30 4 -3 20 2 35 10 16 8 39 15 52 15 13 0 21 4 17 9 -3 5 5 11 17 13 13 2
24 -3 26 -9 2 -7 9 -13 15 -13z m20 -121 c4 -16 3 -18 -9 -8 -7 6 -11 15 -8
20 8 13 11 11 17 -12z m21807 -299 c67 -134 101 -213 95 -219 -17 -16 -894
-451 -909 -451 -15 0 -216 391 -216 420 0 16 897 470 915 464 6 -3 58 -99 115
-214z m-21700 107 c0 -4 -7 -2 -15 7 -8 8 -15 21 -15 28 1 14 30 -20 30 -35z
m20 -33 c0 -8 -4 -12 -10 -9 -5 3 -10 10 -10 16 0 5 5 9 10 9 6 0 10 -7 10
-16z m161 -345 c12 -20 11 -29 -3 -29 -7 0 -18 11 -24 24 -9 19 -8 23 3 22 8
-1 19 -9 24 -17z m44 -137 c-8 -8 -13 0 -20 33 l-7 30 16 -29 c9 -16 14 -31
11 -34z m19578 -276 c117 -26 459 -112 582 -148 39 -11 79 -22 90 -25 153 -41
533 -164 720 -233 77 -29 181 -67 230 -85 50 -18 146 -56 215 -85 427 -178
548 -233 556 -254 10 -25 -57 -144 -118 -211 -66 -72 -163 -134 -263 -167 -99
-32 -224 -31 -364 6 -123 31 -1261 410 -1406 468 -261 103 -387 245 -430 486
-13 75 -6 191 15 247 12 32 29 32 173 1z m-8505 -1849 c-97 -88 -166 -200
-210 -337 -30 -97 -32 -289 -5 -390 53 -195 193 -368 377 -464 188 -99 458
-103 645 -10 118 60 235 160 293 251 15 24 32 45 39 47 24 10 162 -17 256 -48
125 -43 242 -113 332 -201 113 -109 212 -277 244 -412 20 -82 7 -84 -32 -5
-166 339 -515 500 -867 402 -345 -97 -572 -444 -521 -797 7 -49 24 -119 37
-158 41 -114 41 -112 -14 -185 -121 -160 -283 -267 -484 -322 -151 -42 -458
-25 -526 29 -15 12 -9 13 43 6 333 -42 626 110 773 403 153 303 63 690 -208
899 -111 85 -248 138 -397 151 l-75 7 -25 55 c-46 101 -73 233 -73 357 0 216
51 379 170 541 72 97 219 224 259 224 10 0 -2 -16 -31 -43z m8847 -717 c3 -5
1 -10 -4 -10 -6 0 -11 5 -11 10 0 6 2 10 4 10 3 0 8 -4 11 -10z m610 -99 c-18
-18 -131 -18 -120 -1 3 6 34 10 68 10 38 0 57 -4 52 -9z m-14517 -1075 c64 -1
76 -4 93 -25 20 -25 16 -46 -7 -37 -8 3 -17 -1 -19 -9 -16 -52 -16 -51 -31
-22 -8 15 -22 27 -31 27 -13 0 -14 -3 -5 -12 7 -7 12 -20 12 -30 0 -10 5 -18
10 -18 6 0 10 -7 10 -15 0 -8 5 -15 10 -15 6 0 10 -7 10 -16 0 -8 5 -12 11 -8
6 3 9 18 6 33 -4 17 1 35 12 49 17 23 17 22 14 -40 -1 -35 -2 -83 -3 -109 0
-45 0 -45 -35 -46 -19 -1 -32 3 -29 8 3 5 -2 9 -10 9 -11 0 -16 11 -18 38 -1
36 -1 36 -5 5 -3 -19 3 -43 14 -60 24 -37 34 -43 54 -32 15 8 19 3 23 -33 4
-24 3 -83 -1 -133 -7 -83 -10 -90 -30 -93 -20 -3 -23 -9 -23 -48 0 -27 -5 -44
-12 -44 -6 0 -4 -7 5 -18 14 -15 16 -31 11 -80 -5 -46 -4 -62 5 -62 10 0 12
-30 8 -126 -3 -69 -8 -129 -11 -132 -3 -3 -6 -60 -6 -126 -1 -79 -5 -129 -13
-144 -9 -16 -11 -43 -6 -90 4 -37 5 -89 2 -117 -2 -27 -9 -166 -15 -307 -6
-142 -15 -258 -19 -258 -5 0 -9 5 -9 11 0 6 -7 4 -15 -5 -9 -8 -22 -13 -30 -9
-9 3 -39 -6 -68 -19 -28 -13 -88 -33 -132 -42 -44 -10 -93 -24 -110 -31 -16
-7 -50 -18 -75 -24 -25 -7 -60 -16 -77 -21 -132 -39 -214 -60 -233 -60 -18 0
-20 7 -17 94 2 87 0 95 -18 100 -11 3 -47 12 -80 21 -86 23 -175 46 -210 52
-16 3 -34 9 -40 13 -5 5 -31 11 -58 15 -26 4 -50 11 -53 16 -3 5 -14 9 -25 9
-11 0 -44 7 -72 15 -29 9 -63 19 -77 23 -32 9 -39 41 -50 237 -5 83 -13 211
-18 285 -5 74 -7 141 -4 148 5 16 327 18 337 1 4 -5 8 -42 9 -82 2 -40 7 -129
11 -199 9 -149 5 -143 128 -173 42 -10 77 -23 77 -28 0 -6 18 -7 43 -3 29 4
38 3 27 -4 -12 -8 -11 -10 7 -10 12 0 25 -5 28 -11 4 -5 14 -9 22 -7 13 3 15
45 15 327 -1 178 -4 326 -7 330 -4 3 -163 7 -353 8 l-347 2 -7 48 c-15 95 -23
285 -13 291 10 6 62 27 135 53 19 7 49 18 65 25 41 16 117 46 190 74 19 7 86
33 130 50 11 4 55 21 97 36 42 15 74 32 71 37 -3 5 4 6 15 3 15 -5 21 -1 25
16 4 12 1 25 -6 30 -6 4 -171 7 -367 7 -195 0 -363 1 -372 1 -16 0 -18 12 -18
108 -1 59 -5 127 -10 152 -5 29 -5 49 2 58 8 9 99 12 393 12 l383 0 -5 71 c-3
48 -1 75 8 86 12 13 53 14 359 8 190 -4 378 -8 418 -9z m17592 -2305 c0 -5 -9
-11 -20 -14 -20 -5 -26 3 -13 16 9 10 33 8 33 -2z m-24602 -44 c8 4 13 2 10
-3 -9 -13 18 -47 31 -40 12 8 33 -28 23 -39 -4 -5 1 -5 11 -2 14 6 21 0 30
-23 7 -18 17 -28 24 -26 8 3 13 -2 13 -14 0 -13 5 -17 14 -14 9 3 17 -3 21
-15 3 -11 10 -20 14 -18 5 1 20 -11 35 -26 14 -15 26 -26 26 -23 0 2 16 -11
36 -30 20 -19 41 -34 46 -34 12 0 87 -77 112 -114 22 -35 18 -116 -8 -144 -9
-10 -16 -27 -16 -38 0 -10 -11 -38 -24 -61 -25 -43 -46 -101 -28 -75 7 11 12
6 20 -17 6 -17 14 -31 17 -31 3 0 3 4 0 10 -3 5 -2 17 2 25 6 10 9 -1 9 -31 0
-25 5 -48 11 -52 6 -4 16 -33 23 -65 12 -58 32 -73 38 -29 2 12 7 22 12 22 4
0 10 10 14 23 10 40 106 130 176 165 56 27 206 50 223 33 6 -6 21 -11 34 -11
28 0 103 -29 121 -47 7 -7 17 -13 22 -13 17 0 96 -93 129 -153 34 -60 35 -66
35 -172 1 -121 -10 -161 -65 -241 -43 -63 -86 -101 -154 -137 -57 -29 -66 -31
-179 -31 -87 -1 -120 2 -124 12 -2 6 -10 12 -19 12 -24 0 -97 47 -141 92 -56
56 -102 154 -112 237 -4 36 -8 60 -9 53 -5 -57 -94 -173 -156 -204 -76 -39
-91 -43 -164 -43 -42 1 -65 -2 -51 -5 24 -6 24 -6 4 -12 -15 -4 -23 -16 -27
-41 -3 -20 -17 -51 -30 -69 -14 -18 -28 -44 -32 -58 -4 -14 -18 -43 -31 -66
-13 -22 -24 -50 -24 -62 0 -11 -7 -27 -15 -35 -7 -8 -17 -28 -21 -43 -8 -30
-52 -115 -64 -124 -4 -3 -9 -14 -11 -25 -5 -25 -90 -45 -118 -28 -9 6 -41 14
-70 18 -36 5 -49 10 -40 16 11 7 10 9 -4 9 -15 0 -16 3 -7 20 6 11 17 20 25
20 9 0 12 6 9 15 -4 10 -14 13 -29 9 -13 -3 -26 -1 -29 5 -9 14 -64 39 -95 43
l-23 3 25 28 c15 15 33 27 42 27 8 0 15 8 16 18 0 10 3 12 6 5 7 -18 23 -16
23 2 0 17 36 56 54 59 6 1 20 9 31 19 58 52 90 77 97 77 5 0 16 8 27 18 43 40
86 67 102 64 14 -2 19 7 25 43 4 27 2 63 -4 83 -6 21 -14 51 -17 67 -4 17 -20
58 -36 91 -75 159 3 368 166 446 49 23 74 28 132 28 70 0 73 1 79 26 4 14 2
35 -4 47 -6 12 -14 32 -17 45 -4 12 -11 20 -16 17 -5 -4 -9 5 -9 18 0 14 -7
30 -16 38 -9 7 -23 30 -31 51 -8 21 -20 38 -25 38 -6 0 -8 7 -4 15 3 8 1 15
-3 15 -5 0 -12 7 -15 16 -4 10 -2 13 7 8 6 -4 4 2 -5 13 -29 32 -68 116 -68
146 0 15 -4 27 -9 27 -12 0 -41 98 -41 136 0 21 3 25 11 17 6 -6 18 -9 27 -6z
m22792 -182 c0 -8 -4 -15 -10 -15 -5 0 -10 7 -10 15 0 8 5 15 10 15 6 0 10 -7
10 -15z m685 -195 c3 -5 1 -10 -4 -10 -6 0 -11 5 -11 10 0 6 2 10 4 10 3 0 8
-4 11 -10z m103 -43 c3 -15 0 -16 -25 -5 -46 19 -51 30 -13 26 24 -2 36 -9 38
-21z m76 -33 c9 -3 16 -10 16 -16 0 -14 -43 -5 -48 10 -4 13 7 15 32 6z
m-24247 -536 c30 -28 29 -69 -2 -106 -69 -82 -195 -23 -150 71 27 58 107 77
152 35z m2563 -812 c97 -3 172 -10 200 -19 25 -8 95 -17 155 -21 143 -9 237
-25 233 -40 -2 -6 -12 -36 -22 -68 -24 -70 -16 -69 -285 -57 -135 6 -208 6
-216 -1 -14 -12 -210 -6 -275 9 -92 21 -99 23 -102 40 -2 9 -1 32 3 51 4 19 9
51 11 70 3 35 4 35 58 40 30 3 62 4 70 3 8 -2 85 -5 170 -7z m15995 -56 c-3
-5 -12 -10 -18 -10 -7 0 -6 4 3 10 19 12 23 12 15 0z m3093 -35 c2 -15 -13
-33 -49 -63 -28 -23 -57 -42 -64 -42 -6 0 -32 -20 -56 -43 -24 -24 -80 -68
-124 -97 -44 -30 -84 -60 -88 -67 -4 -7 -22 -20 -39 -29 -17 -9 -43 -29 -59
-45 -16 -17 -60 -46 -97 -66 -37 -19 -76 -44 -88 -54 -21 -20 -44 -25 -44 -11
0 10 182 172 249 221 70 52 212 162 232 180 9 9 40 34 68 56 29 22 64 50 79
62 33 28 76 27 80 -2z m-19725 -21 c24 -7 22 -13 -21 -80 -45 -69 -86 -112
-148 -155 -74 -51 -115 -60 -289 -66 -166 -5 -240 3 -240 26 0 8 32 30 72 50
115 58 239 111 259 111 8 0 14 5 14 10 0 6 5 10 12 10 6 0 32 9 57 21 25 11
64 29 86 39 22 10 50 21 63 25 12 3 19 11 16 17 -6 10 74 4 119 -8z m19747
-44 c0 -5 -4 -10 -10 -10 -5 0 -10 5 -10 10 0 6 5 10 10 10 6 0 10 -4 10 -10z
m3217 -105 c3 -9 3 -18 1 -21 -9 -9 -38 8 -38 22 0 19 29 18 37 -1z m-4507
-770 c0 -19 -43 -59 -88 -81 -40 -20 -57 -8 -22 15 14 9 41 31 60 48 39 36 50
40 50 18z m-12554 -50 c27 -13 60 -35 74 -47 14 -13 87 -70 164 -127 76 -58
143 -109 150 -115 6 -6 65 -52 131 -102 160 -120 299 -227 305 -234 3 -3 50
-38 105 -79 55 -41 102 -77 105 -81 3 -3 30 -25 60 -47 208 -154 358 -380 415
-628 23 -99 23 -356 0 -445 -55 -215 -146 -374 -300 -523 -205 -200 -477 -322
-771 -346 -233 -18 -459 23 -663 120 -130 62 -216 123 -327 234 -191 190 -301
423 -306 649 -1 48 -6 89 -10 92 -8 5 -232 -171 -473 -371 -247 -205 -279
-225 -371 -233 -74 -6 -140 21 -176 71 -27 38 -36 128 -18 183 20 63 51 95
207 218 139 108 478 371 553 426 33 25 360 277 435 334 21 17 53 44 71 59 17
15 40 34 50 42 11 7 15 17 11 22 -5 4 -174 10 -375 13 -400 5 -404 6 -451 66
-45 57 -14 155 66 212 72 51 85 52 817 52 375 0 687 4 695 9 12 8 -98 106
-362 320 -89 72 -111 106 -101 156 20 109 170 160 290 100z m12624 -495 c0 -5
-4 -10 -10 -10 -5 0 -10 5 -10 10 0 6 5 10 10 10 6 0 10 -4 10 -10z m-7645
-139 c3 -5 1 -12 -5 -16 -5 -3 -10 1 -10 9 0 18 6 21 15 7z m7326 -64 c-10 -9
-11 -8 -5 6 3 10 9 15 12 12 3 -3 0 -11 -7 -18z m-23 -85 c6 -18 -15 -14 -22
4 -4 10 -1 14 6 12 6 -2 14 -10 16 -16z m22 -363 c0 -12 -47 -11 -55 0 -9 15
28 31 42 19 7 -6 13 -14 13 -19z m328 -537 c41 3 52 -2 52 -27 0 -26 -9 -29
-47 -19 -14 4 -23 14 -23 25 0 18 -10 23 -35 20 -5 -1 -1 6 10 14 18 14 20 14
23 1 2 -9 11 -15 20 -14z m429 -474 c-3 -8 -6 -5 -6 6 -1 11 2 17 5 13 3 -3 4
-12 1 -19z m290 -370 c-3 -8 -6 -5 -6 6 -1 11 2 17 5 13 3 -3 4 -12 1 -19z
m-37 -12 c0 -3 -4 -8 -10 -11 -5 -3 -10 -1 -10 4 0 6 5 11 10 11 6 0 10 -2 10
-4z m-24 -308 c9 -15 -50 -68 -76 -68 -28 0 -37 28 -14 45 10 7 22 11 25 9 4
-2 12 3 19 11 15 18 36 19 46 3z m-77 -103 c3 -19 -23 -45 -46 -45 -18 0 -16
17 5 45 19 27 35 27 41 0z m241 -27 c0 -3 2 -13 6 -21 4 -10 -5 -16 -33 -20
-50 -9 -60 4 -34 42 19 27 25 29 42 18 10 -6 19 -15 19 -19z m-450 -45 c0 -5
-4 -15 -10 -23 -11 -18 -25 -7 -17 15 6 15 27 21 27 8z m1344 -331 c3 -5 -8
-16 -25 -26 -31 -18 -35 -16 -19 15 11 19 35 26 44 11z m436 -226 c0 -20 -28
-46 -50 -46 -31 0 -32 17 -4 39 31 24 54 27 54 7z m95 5 c3 -5 1 -12 -5 -16
-5 -3 -10 1 -10 9 0 18 6 21 15 7z m-15 -101 c0 -5 9 -10 21 -10 18 0 17 -3
-10 -32 -17 -18 -31 -39 -31 -45 0 -8 -13 -13 -30 -13 -38 0 -40 25 -7 75 20
32 57 48 57 25z"/>
<path d="M13335 13900 c3 -5 11 -10 16 -10 6 0 7 5 4 10 -3 6 -11 10 -16 10
-6 0 -7 -4 -4 -10z"/>
<path d="M13266 13865 c4 -8 8 -15 10 -15 2 0 4 7 4 15 0 8 -4 15 -10 15 -5 0
-7 -7 -4 -15z"/>
<path d="M13431 13703 c-1 -6 -4 -20 -7 -30 -5 -17 -5 -17 6 0 6 10 9 23 6 30
-3 9 -5 9 -5 0z"/>
<path d="M13431 13613 c-1 -16 5 -23 17 -23 10 0 13 3 6 8 -6 4 -14 14 -17 22
-4 10 -6 8 -6 -7z"/>
<path d="M13491 13544 c0 -11 3 -14 6 -6 3 7 2 16 -1 19 -3 4 -6 -2 -5 -13z"/>
<path d="M13492 13470 c0 -14 2 -19 5 -12 2 6 2 18 0 25 -3 6 -5 1 -5 -13z"/>
<path d="M13547 13426 c-7 -19 13 -35 41 -33 27 2 39 27 12 27 -10 0 -22 5
-25 10 -9 14 -22 12 -28 -4z"/>
<path d="M13560 13180 c0 -5 -10 -10 -22 -10 -12 0 -19 -3 -16 -6 3 -3 23 -2
43 2 26 5 33 9 23 15 -18 12 -28 11 -28 -1z"/>
<path d="M13486 13141 c-3 -4 6 -6 19 -3 14 2 25 6 25 8 0 8 -39 4 -44 -5z"/>
<path d="M13666 13141 c-3 -5 1 -11 9 -14 9 -4 12 -1 8 9 -6 16 -10 17 -17 5z"/>
<path d="M12685 13060 c-77 -38 -144 -70 -150 -70 -5 0 -20 -8 -33 -18 l-23
-18 37 -74 c20 -41 41 -84 47 -95 6 -11 19 -37 29 -57 12 -24 25 -38 37 -38
21 0 84 30 89 43 2 4 8 7 14 7 5 0 61 25 123 57 l113 56 -27 56 c-15 31 -45
93 -67 138 -21 45 -41 82 -44 82 -3 1 -68 -31 -145 -69z"/>
<path d="M13676 13064 c-10 -25 -7 -34 9 -34 8 0 15 9 15 19 0 26 -16 35 -24
15z"/>
<path d="M13801 12754 c0 -11 3 -14 6 -6 3 7 2 16 -1 19 -3 4 -6 -2 -5 -13z"/>
<path d="M13940 12420 c0 -5 5 -10 10 -10 6 0 10 5 10 10 0 6 -4 10 -10 10 -5
0 -10 -4 -10 -10z"/>
<path d="M14037 12394 c3 -8 11 -14 19 -14 21 0 17 17 -5 23 -14 3 -18 1 -14
-9z"/>
<path d="M14051 12184 c0 -11 3 -14 6 -6 3 7 2 16 -1 19 -3 4 -6 -2 -5 -13z"/>
<path d="M14060 12139 c0 -11 4 -18 10 -14 5 3 7 12 3 20 -7 21 -13 19 -13 -6z"/>
<path d="M14060 12080 c-8 -5 -12 -12 -9 -15 4 -3 12 1 19 10 14 17 11 19 -10
5z"/>
<path d="M34133 12342 c-29 -14 -53 -32 -53 -39 0 -7 29 -72 65 -143 72 -144
64 -139 145 -93 26 15 35 26 33 44 -2 26 -120 259 -131 258 -4 0 -31 -12 -59
-27z"/>
<path d="M34363 12263 c-29 -14 -53 -30 -53 -37 1 -25 129 -261 143 -264 23
-5 101 42 105 62 4 20 -119 266 -133 265 -5 0 -34 -12 -62 -26z"/>
<path d="M34605 12191 c-74 -41 -69 -32 -45 -89 12 -28 28 -56 34 -61 14 -12
114 32 122 54 3 7 -6 36 -20 64 -29 55 -41 60 -91 32z"/>
<path d="M19758 9042 c-5 -17 -1 -18 41 -11 25 3 53 4 61 1 13 -5 13 -3 1 11
-20 25 -97 24 -103 -1z"/>
<path d="M19685 9000 l-70 -6 73 -2 c42 -1 72 2 72 8 0 6 -1 9 -2 8 -2 -1 -34
-4 -73 -8z"/>
<path d="M19740 8944 c0 -8 5 -12 11 -9 5 4 15 -7 22 -24 12 -34 27 -41 27
-13 0 22 -9 34 -37 50 -20 10 -23 10 -23 -4z"/>
<path d="M19820 8887 c0 -23 11 -47 21 -47 15 0 10 37 -6 50 -12 10 -15 10
-15 -3z"/>
<path d="M19730 8573 c0 -10 4 -14 8 -8 4 6 11 13 16 18 5 4 2 7 -7 7 -10 0
-17 -8 -17 -17z"/>
<path d="M19643 8533 c9 -2 23 -2 30 0 6 3 -1 5 -18 5 -16 0 -22 -2 -12 -5z"/>
<path d="M19700 8524 c0 -9 5 -14 12 -12 18 6 21 28 4 28 -9 0 -16 -7 -16 -16z"/>
<path d="M19660 8499 c0 -5 5 -7 10 -4 6 3 10 8 10 11 0 2 -4 4 -10 4 -5 0
-10 -5 -10 -11z"/>
<path d="M19558 8493 c7 -3 16 -2 19 1 4 3 -2 6 -13 5 -11 0 -14 -3 -6 -6z"/>
<path d="M19410 8406 c0 -2 9 -6 20 -9 11 -3 20 -1 20 4 0 5 -9 9 -20 9 -11 0
-20 -2 -20 -4z"/>
<path d="M19720 8346 c0 -8 -6 -17 -12 -19 -7 -3 -4 -6 7 -6 34 -1 47 13 25
27 -16 10 -20 10 -20 -2z"/>
<path d="M19561 8326 c8 -8 108 -10 116 -3 3 4 -22 7 -57 7 -35 0 -61 -2 -59
-4z"/>
<path d="M19700 8290 c0 -5 6 -10 14 -10 8 0 18 5 21 10 3 6 -3 10 -14 10 -12
0 -21 -4 -21 -10z"/>
<path d="M19615 8280 c3 -5 13 -10 21 -10 8 0 12 5 9 10 -3 6 -13 10 -21 10
-8 0 -12 -4 -9 -10z"/>
<path d="M19720 8255 c0 -2 9 -9 20 -15 16 -9 18 -8 14 5 -5 13 -34 22 -34 10z"/>
<path d="M19790 8105 c0 -83 4 -135 10 -135 6 0 10 52 10 135 0 83 -4 135 -10
135 -6 0 -10 -52 -10 -135z"/>
<path d="M19721 8214 c0 -11 3 -14 6 -6 3 7 2 16 -1 19 -3 4 -6 -2 -5 -13z"/>
<path d="M19718 8130 c-1 -28 0 -50 5 -50 4 0 7 23 7 50 0 65 -7 65 -12 0z"/>
<path d="M19740 8060 c-1 -51 -4 -59 -11 -40 l-8 25 2 -24 c1 -13 9 -25 17
-26 12 -2 14 7 12 44 -5 80 -9 88 -12 21z"/>
<path d="M19712 7960 c0 -14 2 -19 5 -12 2 6 2 18 0 25 -3 6 -5 1 -5 -13z"/>
<path d="M19762 7950 c0 -14 2 -19 5 -12 2 6 2 18 0 25 -3 6 -5 1 -5 -13z"/>
<path d="M19731 7894 c0 -11 3 -14 6 -6 3 7 2 16 -1 19 -3 4 -6 -2 -5 -13z"/>
<path d="M19783 7800 c0 -25 2 -35 4 -22 2 12 2 32 0 45 -2 12 -4 2 -4 -23z"/>
<path d="M19710 7691 c0 -11 5 -23 12 -27 8 -5 9 -2 5 9 -3 9 -2 19 3 22 5 3
12 -6 16 -20 3 -14 8 -24 11 -22 2 3 1 16 -3 31 -8 31 -44 37 -44 7z"/>
<path d="M19688 7634 c-5 -4 -8 -19 -8 -33 0 -18 3 -22 11 -14 6 6 9 21 7 33
-1 12 -6 18 -10 14z"/>
<path d="M19731 7598 c1 -24 3 -35 6 -25 2 9 8 17 13 17 10 0 1 38 -11 46 -5
3 -8 -14 -8 -38z"/>
<path d="M19732 7530 c0 -14 2 -19 5 -12 2 6 2 18 0 25 -3 6 -5 1 -5 -13z"/>
<path d="M19691 7428 c0 -18 4 -51 8 -73 7 -35 8 -32 8 28 0 37 -4 70 -9 73
-4 3 -8 -10 -7 -28z"/>
<path d="M19672 7300 c0 -14 2 -19 5 -12 2 6 2 18 0 25 -3 6 -5 1 -5 -13z"/>
<path d="M19708 7194 c-9 -14 7 -50 16 -36 4 7 3 19 -2 28 -5 9 -12 13 -14 8z"/>
<path d="M19660 7141 c0 -10 7 -18 15 -18 8 0 15 6 15 13 0 6 -7 14 -15 18
-10 3 -15 -1 -15 -13z"/>
<path d="M19712 7118 c2 -6 12 -12 22 -14 14 -2 15 0 5 12 -14 17 -32 19 -27
2z"/>
<path d="M19650 7095 c0 -8 7 -15 15 -15 9 0 12 6 9 15 -4 8 -10 15 -15 15 -5
0 -9 -7 -9 -15z"/>
<path d="M19603 7083 c9 -2 23 -2 30 0 6 3 -1 5 -18 5 -16 0 -22 -2 -12 -5z"/>
<path d="M19548 7073 c7 -3 16 -2 19 1 4 3 -2 6 -13 5 -11 0 -14 -3 -6 -6z"/>
<path d="M19398 7023 c6 -2 18 -2 25 0 6 3 1 5 -13 5 -14 0 -19 -2 -12 -5z"/>
<path d="M13098 6053 c7 -3 16 -2 19 1 4 3 -2 6 -13 5 -11 0 -14 -3 -6 -6z"/>
<path d="M12950 5790 l-35 -19 32 -1 c62 0 95 -74 57 -128 -10 -15 -25 -22
-49 -22 -45 0 -70 35 -62 88 l5 37 -19 -45 c-13 -29 -18 -56 -14 -76 15 -81
97 -145 159 -124 60 20 106 84 106 148 0 113 -96 189 -180 142z"/>
<path d="M13694 5710 c-12 -5 -25 -13 -28 -19 -4 -6 -1 -9 7 -5 45 17 107 -56
93 -111 -11 -43 -55 -78 -90 -71 -41 8 -54 22 -68 70 l-13 41 -7 -40 c-34
-192 173 -295 286 -142 17 23 21 43 21 106 0 70 -3 81 -28 114 -46 60 -112 82
-173 57z"/>
<path d="M12628 5263 c-11 -14 -11 -16 3 -11 9 4 22 1 28 -5 6 -6 11 -8 11 -3
0 4 -6 14 -14 21 -12 12 -16 12 -28 -2z"/>
<path d="M12618 5203 c7 -3 16 -2 19 1 4 3 -2 6 -13 5 -11 0 -14 -3 -6 -6z"/>
<path d="M12580 5108 c0 -4 4 -8 9 -8 6 0 12 4 15 8 3 5 -1 9 -9 9 -8 0 -15
-4 -15 -9z"/>
<path d="M12490 5030 c-8 -5 -10 -10 -5 -10 6 0 17 5 25 10 8 5 11 10 5 10 -5
0 -17 -5 -25 -10z"/>
<path d="M12506 5004 c-5 -14 -4 -15 9 -4 17 14 19 20 6 20 -5 0 -12 -7 -15
-16z"/>
<path d="M12495 4970 c-3 -5 -1 -10 4 -10 6 0 11 5 11 10 0 6 -2 10 -4 10 -3
0 -8 -4 -11 -10z"/>
<path d="M20201 2910 c-402 -85 -655 -434 -575 -793 54 -241 269 -449 529
-513 106 -26 298 -23 399 5 308 85 519 333 531 621 7 164 -55 327 -173 451
-99 106 -170 151 -322 204 -63 22 -96 27 -210 30 -74 2 -155 0 -179 -5z"/>
<path d="M34488 10353 c6 -2 18 -2 25 0 6 3 1 5 -13 5 -14 0 -19 -2 -12 -5z"/>
<path d="M34566 9803 c4 -10 9 -40 12 -66 5 -60 -9 -79 -55 -75 -60 5 -75 -63
-24 -110 58 -55 121 -94 153 -96 l32 -1 -3 95 c-1 52 -5 104 -8 115 -8 30 -93
155 -105 155 -6 0 -7 -7 -2 -17z"/>
<path d="M30756 7665 c-3 -8 -2 -15 3 -15 5 0 14 7 21 15 10 12 10 15 -3 15
-8 0 -17 -7 -21 -15z"/>
<path d="M37610 7299 c-47 -4 -121 -8 -165 -8 -44 -1 -86 -5 -94 -10 -58 -37
280 -47 392 -12 18 6 44 13 60 16 15 3 27 10 27 15 0 11 -90 11 -220 -1z"/>
<path d="M29400 7171 c0 -6 5 -13 10 -16 6 -3 10 1 10 9 0 9 -4 16 -10 16 -5
0 -10 -4 -10 -9z"/>
<path d="M29390 7110 c-12 -8 -10 -10 8 -10 13 0 20 4 17 10 -7 12 -6 12 -25
0z"/>
<path d="M29377 7038 c-6 -41 0 -48 36 -41 26 5 39 23 16 23 -5 0 -9 10 -7 23
2 16 -3 23 -18 25 -18 2 -23 -3 -27 -30z"/>
<path d="M35634 6936 c-15 -12 -16 -17 -7 -27 10 -10 17 -9 33 6 36 33 14 50
-26 21z"/>
<path d="M35500 6890 c-19 -11 -80 -40 -135 -66 -55 -25 -105 -54 -112 -64 -7
-10 -30 -24 -51 -31 -20 -6 -68 -29 -105 -50 -38 -22 -73 -39 -78 -39 -5 0 -9
-5 -9 -10 0 -12 -4 -13 185 34 82 20 164 47 199 65 42 22 71 31 107 31 62 0
82 25 77 97 -4 57 -22 65 -78 33z"/>
<path d="M30737 5844 c-11 -11 3 -24 24 -24 12 0 19 5 17 13 -5 14 -31 21 -41
11z"/>
<path d="M33180 5685 l-25 -14 36 -1 c21 0 42 7 49 15 10 13 9 15 -11 15 -13
-1 -35 -7 -49 -15z"/>
<path d="M32880 5603 c-14 -3 -29 -9 -35 -13 -5 -4 -41 -11 -80 -14 -56 -5
-75 -11 -94 -31 l-24 -24 27 -12 c23 -11 30 -10 57 10 18 14 57 27 97 33 38 6
73 18 80 26 13 18 16 33 5 31 -5 -1 -19 -4 -33 -6z"/>
<path d="M32505 5505 c-33 -6 -68 -16 -78 -20 -32 -14 -12 -30 42 -33 40 -2
60 2 87 19 32 20 41 40 18 45 -5 1 -36 -4 -69 -11z"/>
<path d="M30489 5245 c-92 -68 -112 -95 -68 -95 27 0 24 -17 -8 -44 -31 -27
-24 -46 18 -46 31 0 85 43 74 59 -6 11 33 81 45 81 15 0 22 41 10 55 -17 21
-31 19 -71 -10z"/>
<path d="M30325 5230 c20 -22 50 -26 61 -9 9 15 -15 29 -50 29 -28 0 -29 0
-11 -20z"/>
<path d="M30775 4776 c-29 -68 -32 -402 -5 -446 17 -28 45 2 43 46 -6 158 -5
238 6 299 16 86 12 129 -12 133 -12 3 -22 -7 -32 -32z"/>
<path d="M30873 4695 c-7 -20 20 -42 72 -56 60 -17 85 -28 85 -37 0 -5 -22
-43 -50 -85 -55 -84 -59 -97 -30 -97 13 0 32 19 56 58 20 31 52 76 71 99 19
23 33 47 31 53 -3 10 -190 79 -216 80 -7 0 -15 -7 -19 -15z"/>
<path d="M30547 4538 c-14 -18 -33 -59 -43 -90 -10 -32 -23 -58 -30 -58 -7 0
-15 21 -19 50 -7 51 -25 80 -50 80 -19 0 -56 -47 -84 -108 -14 -29 -27 -52
-31 -52 -3 0 -4 27 -2 60 4 49 1 61 -12 66 -9 3 -24 0 -32 -7 -14 -12 -16 -31
-10 -143 4 -92 10 -134 20 -144 21 -22 32 -9 55 66 30 100 69 184 84 179 7 -2
15 -31 19 -65 11 -96 35 -124 71 -84 9 10 31 60 49 111 18 51 38 94 43 95 6 0
18 -30 27 -68 20 -84 37 -104 73 -88 30 14 31 24 5 60 -11 15 -24 51 -30 80
-5 29 -14 61 -20 72 -17 31 -55 25 -83 -12z"/>
<path d="M30062 4528 c-5 -7 -13 -29 -17 -48 -12 -64 -16 -70 -52 -85 -40 -17
-40 -38 2 -43 l28 -4 -5 -70 c-12 -159 38 -201 125 -106 22 25 37 51 37 66 0
26 0 26 -39 -12 -54 -53 -71 -45 -70 31 2 97 8 110 69 146 30 18 55 40 55 48
0 15 -9 15 -62 4 l-33 -7 0 46 c0 47 -16 61 -38 34z"/>
<path d="M29693 4488 c-6 -8 -12 -102 -14 -233 -5 -255 2 -271 56 -138 75 187
109 208 130 81 3 -21 17 -50 30 -65 22 -26 25 -27 40 -12 16 15 15 19 -4 58
-12 23 -26 64 -31 93 -12 60 -24 78 -56 78 -26 0 -63 -43 -92 -109 -11 -24
-23 -38 -26 -32 -4 6 -2 55 4 108 14 121 11 177 -11 181 -9 2 -20 -3 -26 -10z"/>
<path d="M29340 4323 c-29 -9 -165 -65 -190 -77 -17 -8 -24 -19 -21 -32 5 -30
6 -90 1 -219 -6 -144 -10 -141 127 -99 84 25 143 56 143 74 0 21 -37 17 -102
-10 -38 -17 -81 -30 -95 -30 -25 0 -25 2 -20 47 6 52 17 64 86 90 59 21 101
50 101 69 0 21 -31 17 -92 -11 -74 -35 -88 -33 -88 9 0 59 15 83 67 106 26 12
60 24 75 27 32 6 63 37 53 52 -7 12 -20 13 -45 4z"/>
<path d="M28905 4197 c-53 -21 -109 -54 -129 -76 -17 -19 -18 -25 -7 -62 7
-23 12 -86 11 -143 -3 -170 -3 -168 23 -164 20 3 22 10 27 73 l5 70 62 40 c76
50 98 70 134 119 35 47 40 113 11 139 -22 20 -92 21 -137 4z m79 -43 c10 -4
16 -18 16 -38 0 -25 -10 -42 -47 -77 -62 -59 -102 -84 -115 -71 -6 6 -7 36 -3
76 l7 66 52 24 c55 27 66 29 90 20z"/>
<path d="M28699 4150 c-9 -5 -44 -57 -78 -115 -35 -58 -65 -105 -68 -105 -3 0
-31 22 -62 49 -71 61 -93 69 -127 42 -15 -12 -35 -21 -46 -21 -11 0 -70 -20
-131 -44 -62 -24 -129 -49 -151 -55 -21 -5 -46 -17 -56 -26 -17 -15 -19 -15
-25 4 -16 50 -93 38 -157 -25 -90 -88 -157 -261 -135 -347 18 -73 104 -87 184
-31 53 38 97 94 83 108 -7 7 -23 -4 -51 -33 -23 -24 -57 -50 -76 -58 -31 -12
-38 -12 -58 1 -37 24 -42 75 -15 149 29 81 61 134 104 176 37 36 73 38 61 2
-7 -23 3 -51 20 -51 17 0 45 33 45 53 0 11 8 17 23 17 12 0 47 9 77 19 30 11
58 17 62 15 5 -3 8 -58 9 -122 1 -137 7 -166 36 -170 28 -4 34 17 24 96 -10
79 -3 212 11 229 6 7 40 22 76 33 36 11 71 25 78 31 17 14 54 -7 119 -66 l50
-45 0 -84 c0 -90 6 -107 33 -90 13 9 18 32 23 105 5 92 6 95 57 174 79 123 95
155 85 176 -6 13 -12 15 -24 9z"/>
<path d="M27424 3751 c-76 -34 -146 -140 -166 -251 -13 -70 -6 -104 32 -141
34 -34 59 -36 115 -9 112 54 218 234 199 337 -14 74 -95 102 -180 64z m101
-57 c60 -45 -19 -249 -117 -300 -62 -32 -98 -6 -98 71 0 67 66 207 108 230 35
19 82 18 107 -1z"/>
<path d="M30676 3703 c-2 -10 -8 -53 -12 -95 -6 -75 -5 -78 15 -78 25 0 30 17
33 115 3 58 0 70 -14 73 -9 2 -19 -5 -22 -15z"/>
<path d="M30576 3673 c-5 -18 -10 -120 -7 -156 1 -12 7 -17 19 -15 18 4 30 54
31 141 1 40 -2 47 -18 47 -11 0 -22 -8 -25 -17z"/>
<path d="M30777 3673 c-22 -21 11 -49 84 -69 34 -9 63 -23 66 -30 3 -8 -8 -31
-24 -51 -46 -59 -75 -112 -68 -123 14 -23 36 -6 80 63 26 39 59 84 72 99 14
14 23 32 21 38 -2 7 -49 27 -103 46 -106 35 -118 38 -128 27z"/>
<path d="M26982 3624 c-50 -13 -101 -28 -112 -34 -23 -12 -26 -36 -6 -55 11
-11 14 -51 12 -185 -1 -195 5 -213 55 -169 13 12 47 36 74 53 71 46 148 134
175 201 21 52 22 61 11 111 -21 93 -73 112 -209 78z m113 -40 c8 -4 23 -20 31
-37 19 -36 11 -107 -16 -152 -39 -63 -158 -155 -172 -132 -9 15 -11 186 -2
250 6 43 9 47 48 61 45 16 85 19 111 10z"/>
<path d="M33093 3615 c-3 -9 -3 -18 0 -22 10 -10 37 6 37 22 0 20 -29 20 -37
0z"/>
<path d="M32624 3609 c-11 -18 13 -34 31 -19 8 7 15 16 15 21 0 13 -38 11 -46
-2z"/>
<path d="M26711 3531 c-14 -25 -21 -201 -10 -229 5 -13 15 -22 21 -20 13 5 21
53 34 196 6 69 6 72 -14 72 -12 0 -26 -8 -31 -19z"/>
<path d="M30350 3459 c-16 -23 -32 -50 -35 -60 -10 -31 -25 -12 -25 31 0 45
-15 59 -38 37 -12 -13 -15 -39 -14 -131 0 -64 4 -121 7 -126 16 -26 35 -3 69
83 61 154 93 174 116 75 7 -29 17 -61 22 -70 11 -23 50 -23 71 0 20 22 22 44
5 41 -31 -4 -37 4 -48 59 -16 77 -33 102 -70 102 -23 0 -36 -9 -60 -41z"/>
<path d="M29872 3463 c-14 -26 -24 -156 -14 -171 7 -11 12 -10 26 3 11 11 17
36 18 76 1 32 2 69 2 81 1 27 -20 35 -32 11z"/>
<path d="M26503 3388 c-76 -98 -113 -151 -113 -164 0 -22 27 -34 114 -53 77
-16 89 -16 102 -4 23 23 1 39 -71 53 -36 7 -68 16 -71 21 -3 5 22 44 55 87 59
76 76 122 47 122 -8 0 -36 -28 -63 -62z"/>
<path d="M29771 3427 c-5 -12 -8 -54 -7 -92 1 -55 4 -70 16 -70 11 0 17 19 24
77 4 43 6 84 2 93 -8 22 -25 18 -35 -8z"/>
<path d="M30084 3440 c-42 -17 -104 -110 -118 -177 -10 -43 10 -110 36 -124
45 -24 125 17 168 86 35 57 13 60 -39 5 -45 -48 -71 -59 -99 -42 -18 12 -7 34
27 53 16 9 48 41 71 70 35 44 41 58 36 83 -10 48 -38 64 -82 46z m26 -73 c0
-23 -51 -87 -69 -87 -18 0 -13 32 10 70 33 55 59 62 59 17z"/>
<path d="M32370 3400 c0 -5 4 -10 9 -10 6 0 13 5 16 10 3 6 -1 10 -9 10 -9 0
-16 -4 -16 -10z"/>
<path d="M32230 3345 c0 -8 2 -15 4 -15 2 0 6 7 10 15 3 8 1 15 -4 15 -6 0
-10 -7 -10 -15z"/>
<path d="M32131 3294 c-14 -30 -11 -37 13 -28 16 6 23 54 8 54 -5 0 -14 -12
-21 -26z"/>
<path d="M29558 3266 c-89 -29 -118 -46 -118 -68 0 -25 16 -23 103 12 42 17
89 30 106 30 24 0 31 4 31 19 0 18 -20 32 -43 30 -7 -1 -42 -11 -79 -23z"/>
<path d="M26702 3208 c-17 -17 -16 -68 2 -68 20 0 38 26 34 51 -4 27 -19 34
-36 17z"/>
<path d="M29272 3171 c-95 -69 -165 -231 -117 -271 22 -18 53 -6 110 41 l50
42 3 -41 c4 -52 -12 -112 -39 -146 -23 -29 -61 -34 -115 -14 -79 28 -77 -29 3
-64 39 -17 51 -19 84 -9 40 12 78 53 100 106 6 17 15 95 19 175 4 80 10 152
14 161 9 21 -18 49 -48 49 -13 0 -41 -13 -64 -29z m49 -77 c-20 -76 -99 -170
-123 -146 -18 18 20 107 68 158 52 56 72 52 55 -12z"/>
<path d="M29591 3144 c-116 -31 -160 -61 -131 -90 17 -17 224 47 228 70 4 18
-13 36 -33 35 -5 0 -34 -7 -64 -15z"/>
<path d="M28410 3080 c-32 -60 -40 -424 -10 -454 26 -26 45 -4 40 46 -5 61 -5
237 0 337 4 59 2 85 -7 88 -6 2 -17 -5 -23 -17z"/>
<path d="M28928 3043 c-14 -16 -31 -42 -39 -60 -16 -38 -29 -34 -29 10 0 18
-4 38 -9 46 -13 20 -41 6 -41 -21 -1 -13 -2 -67 -3 -122 -3 -151 22 -167 69
-43 42 113 74 164 94 152 5 -3 19 -37 30 -74 23 -77 41 -92 79 -63 34 25 37
40 9 44 -18 2 -26 13 -36 48 -26 89 -39 110 -70 110 -18 0 -38 -10 -54 -27z"/>
<path d="M28605 2976 c-94 -97 -135 -266 -69 -282 31 -8 67 16 100 66 29 44
51 51 56 19 5 -34 34 -47 55 -27 16 16 16 19 -3 39 -15 17 -19 37 -20 111 -1
49 -3 90 -5 91 -2 1 -14 8 -26 15 -34 19 -43 15 -88 -32z m63 -45 c4 -37 -35
-127 -68 -156 -28 -25 -52 -13 -44 22 13 62 26 93 55 133 34 47 53 48 57 1z"/>
<path d="M28072 2987 c-21 -24 -33 -156 -30 -306 3 -156 11 -187 42 -162 13
11 14 35 9 145 -4 83 -1 163 6 214 15 104 4 147 -27 109z"/>
<path d="M32027 2774 c-4 -4 -4 -10 -1 -15 6 -10 34 0 34 12 0 10 -24 12 -33
3z"/>
<path d="M27832 2733 c-11 -16 -30 -56 -42 -91 -33 -91 -38 -91 -54 7 -17 98
-66 79 -129 -49 l-32 -65 -5 70 c-4 62 -7 70 -25 70 -19 0 -20 -8 -23 -125 -3
-148 1 -173 29 -168 15 2 27 23 49 88 36 107 57 157 69 165 15 9 31 -29 31
-74 0 -55 15 -91 39 -91 28 0 39 19 74 122 39 115 56 121 75 28 7 -37 21 -73
32 -84 19 -19 20 -19 40 -1 25 22 25 29 1 63 -11 15 -25 52 -31 82 -7 30 -17
61 -23 68 -17 21 -54 14 -75 -15z"/>
<path d="M27340 2711 c-5 -11 -10 -30 -10 -43 0 -46 -12 -65 -46 -77 -41 -15
-44 -46 -4 -46 24 0 24 0 21 -95 -3 -116 8 -136 70 -131 34 2 114 109 96 128
-4 3 -24 -10 -47 -30 -61 -56 -74 -44 -66 56 4 44 9 84 12 88 2 4 29 22 59 39
30 17 55 38 55 47 0 16 -14 15 -78 -3 -22 -6 -24 -4 -22 27 1 19 2 40 1 47 -2
19 -29 14 -41 -7z"/>
<path d="M26980 2680 c-12 -7 -17 -52 -24 -230 -4 -122 -6 -223 -3 -226 15
-15 45 10 56 47 21 71 79 189 96 195 22 9 24 5 41 -67 15 -66 43 -103 69 -92
17 6 20 44 6 59 -5 5 -19 43 -30 84 -12 41 -29 81 -38 87 -25 19 -69 -12 -100
-67 -42 -76 -44 -73 -41 74 3 140 -1 156 -32 136z"/>
<path d="M32140 2630 c0 -13 11 -13 30 0 12 8 11 10 -7 10 -13 0 -23 -4 -23
-10z"/>
<path d="M32095 2548 c-10 -15 -11 -24 -5 -26 14 -5 51 28 44 39 -9 15 -22 10
-39 -13z"/>
<path d="M26768 2453 c-91 -114 -110 -142 -105 -157 7 -17 90 -44 163 -52 42
-5 52 -4 58 11 9 26 0 33 -52 41 -63 9 -92 21 -92 37 0 7 25 44 55 82 54 68
69 105 41 105 -7 0 -38 -30 -68 -67z"/>
<path d="M32022 2433 c2 -10 10 -18 18 -18 22 0 18 29 -3 33 -14 3 -18 -1 -15
-15z"/>
<path d="M32096 2143 c-2 -10 -8 -53 -12 -96 -6 -74 2 -107 27 -107 19 0 39
35 39 69 0 21 5 53 11 70 15 44 -1 81 -35 81 -15 0 -27 -7 -30 -17z"/>
<path d="M32011 2117 c-6 -8 -12 -54 -13 -103 -3 -86 -2 -89 19 -92 28 -4 38
18 47 112 5 46 3 73 -5 82 -14 18 -33 18 -48 1z"/>
<path d="M28320 2075 c-7 -8 -16 -52 -21 -96 -9 -89 -10 -91 -41 -96 -52 -8
-107 -69 -139 -153 -33 -88 -17 -160 36 -160 28 0 78 40 102 81 l17 29 27 -30
c19 -21 33 -28 46 -23 29 10 53 35 53 55 0 14 -6 18 -27 16 -24 -3 -28 1 -35
37 -8 38 2 169 23 277 13 70 -8 102 -41 63z m-43 -260 c8 -23 -22 -94 -58
-138 -53 -64 -79 -42 -52 44 26 80 93 138 110 94z"/>
<path d="M28446 1981 c-17 -26 16 -51 94 -72 74 -20 74 -22 14 -109 -59 -86
-65 -103 -32 -98 14 2 37 25 62 64 23 33 54 75 69 93 15 19 27 40 25 48 -2 9
-44 29 -103 49 -107 36 -121 39 -129 25z"/>
<path d="M31512 1963 c-5 -10 -13 -40 -16 -66 -7 -42 -11 -50 -37 -59 -30 -10
-54 -40 -42 -52 3 -3 16 -6 29 -6 22 0 22 -3 21 -101 -2 -90 0 -102 18 -115
13 -10 31 -13 50 -9 58 11 134 111 106 138 -10 9 -20 3 -46 -27 -45 -54 -65
-45 -64 26 2 94 9 109 64 139 57 31 75 53 59 69 -8 8 -19 8 -38 0 -15 -5 -36
-10 -46 -10 -16 0 -17 4 -10 31 5 16 6 37 3 45 -7 20 -40 18 -51 -3z"/>
<path d="M31865 1961 c-3 -6 -24 -13 -48 -16 -51 -8 -127 -44 -141 -67 -8 -13
-7 -21 2 -30 10 -10 28 -7 90 16 42 15 94 30 115 33 30 4 37 9 37 27 0 36 -39
62 -55 37z"/>
<path d="M31787 1800 c-88 -31 -100 -40 -95 -66 5 -27 87 -28 136 -3 21 11 54
26 75 34 31 12 38 19 35 37 -4 34 -56 33 -151 -2z"/>
<path d="M27906 1780 c-67 -59 -122 -250 -84 -288 29 -29 90 1 128 63 26 43
34 44 50 4 14 -33 45 -37 64 -7 8 13 6 22 -9 38 -16 18 -20 37 -21 107 0 80
-2 86 -25 99 -38 21 -65 17 -103 -16z m71 -36 c15 -39 -62 -188 -95 -182 -32
7 -3 105 49 172 23 30 37 33 46 10z"/>
<path d="M31255 1775 c-45 -47 -78 -119 -83 -180 -4 -44 0 -56 20 -80 28 -32
68 -36 115 -12 43 23 92 79 99 115 8 38 -8 43 -34 10 -37 -46 -77 -78 -99 -78
-35 0 -28 17 31 71 35 31 61 66 72 94 15 42 15 46 0 70 -26 39 -79 35 -121
-10z m65 -47 c0 -15 -49 -78 -61 -78 -16 0 -10 22 17 57 25 33 44 43 44 21z"/>
<path d="M27252 1767 c-17 -20 -21 -54 -27 -264 -6 -201 -6 -203 15 -203 15 0
26 12 41 48 51 120 93 202 104 202 8 0 18 -27 25 -65 9 -49 19 -70 38 -85 28
-22 40 -22 55 2 7 11 4 28 -11 59 -11 24 -23 60 -27 79 -11 53 -33 90 -54 90
-29 0 -80 -48 -98 -91 -18 -45 -33 -51 -28 -11 11 91 16 202 11 220 -8 25 -31
35 -44 19z"/>
<path d="M31051 1739 c-34 -21 -65 -53 -88 -93 -7 -12 -12 -16 -13 -11 0 6 -9
16 -21 23 -42 26 -88 -11 -139 -112 l-15 -29 -3 51 c-3 43 -6 52 -22 52 -30 0
-40 -32 -40 -132 0 -114 13 -168 40 -168 24 0 35 22 44 84 6 49 40 133 68 170
20 25 87 31 95 8 10 -25 34 -40 75 -47 60 -11 55 -31 -16 -65 -63 -30 -77 -43
-69 -67 16 -45 170 31 194 94 18 47 2 71 -59 90 -35 11 -58 24 -60 35 -4 20
32 55 76 74 26 10 33 19 30 36 -4 31 -35 33 -77 7z"/>
<path d="M27655 1721 c-45 -28 -71 -60 -100 -123 -61 -134 24 -238 131 -159
52 37 71 60 79 94 10 38 -3 34 -54 -18 -32 -32 -52 -45 -73 -45 -40 0 -35 16
24 68 49 45 87 107 88 145 0 20 -34 57 -52 57 -7 0 -26 -8 -43 -19z m35 -64
c0 -21 -50 -87 -65 -87 -20 0 -19 6 10 57 24 41 55 58 55 30z"/>
<path d="M30101 1601 c-6 -11 -11 -59 -12 -108 0 -48 -4 -137 -8 -198 -9 -128
-6 -147 21 -143 15 2 27 20 42 63 35 94 81 180 98 183 13 2 19 -11 28 -55 15
-69 24 -89 50 -103 14 -7 23 -6 34 6 14 14 14 19 -3 53 -11 20 -26 63 -35 96
-8 32 -22 65 -31 74 -14 14 -18 14 -43 1 -14 -9 -37 -31 -49 -50 -54 -84 -52
-87 -50 60 2 119 0 135 -15 138 -9 2 -21 -6 -27 -17z"/>
<path d="M27054 1562 c-71 -82 -127 -169 -121 -186 8 -20 38 -32 128 -51 83
-17 101 -12 97 24 -3 24 -9 27 -70 40 -39 8 -68 19 -68 26 0 7 25 45 55 86 30
41 54 81 52 89 -5 29 -33 19 -73 -28z"/>
<path d="M30535 1571 c-45 -28 -71 -60 -101 -126 -49 -107 -42 -195 16 -195
23 0 77 45 101 84 l18 30 18 -32 c20 -35 43 -41 64 -16 10 13 10 20 -5 46 -14
22 -18 50 -17 112 0 81 -1 84 -27 97 -15 7 -29 15 -32 16 -3 2 -18 -5 -35 -16z
m35 -77 c0 -26 -42 -118 -68 -146 -23 -27 -42 -22 -42 10 0 29 42 127 67 154
20 22 43 12 43 -18z"/>
<path d="M32423 1570 c1 -11 6 -20 12 -20 6 0 11 9 12 20 1 11 -4 20 -12 20
-8 0 -13 -9 -12 -20z"/>
<path d="M32514 1575 c-11 -28 4 -45 40 -45 30 0 34 3 29 18 -16 40 -58 57
-69 27z"/>
<path d="M32360 1500 c0 -12 10 -24 24 -30 13 -5 27 -14 31 -19 9 -16 52 -13
59 4 10 26 -5 44 -42 55 -56 15 -72 13 -72 -10z"/>
<path d="M32655 1499 c-8 -12 14 -31 30 -26 6 2 10 10 10 18 0 17 -31 24 -40
8z"/>
<path d="M32515 1450 c-8 -13 4 -32 16 -25 12 8 12 35 0 35 -6 0 -13 -4 -16
-10z"/>
<path d="M29907 1380 c-14 -12 -41 -51 -59 -88 -27 -54 -33 -78 -33 -131 0
-57 3 -66 26 -83 24 -18 31 -19 64 -8 46 15 115 80 115 108 0 30 -6 28 -56
-18 -49 -45 -81 -51 -93 -18 -11 31 11 117 41 161 23 33 30 34 43 5 16 -36 40
-29 43 14 2 27 -3 43 -17 57 -26 26 -42 26 -74 1z"/>
<path d="M32310 1360 c-26 -26 -16 -50 21 -50 22 0 32 6 38 23 17 43 -24 62
-59 27z"/>
<path d="M32960 1370 c0 -5 9 -10 21 -10 11 0 17 5 14 10 -3 6 -13 10 -21 10
-8 0 -14 -4 -14 -10z"/>
<path d="M29146 1262 c-7 -11 -21 -94 -18 -105 1 -5 -16 -16 -38 -24 -48 -19
-51 -46 -6 -51 l28 -4 -7 -79 c-8 -92 4 -136 41 -145 35 -9 84 24 111 75 32
62 15 78 -31 28 -45 -49 -66 -42 -65 22 1 101 9 120 69 155 30 18 57 41 59 51
3 19 -8 18 -78 -1 -23 -7 -24 -5 -19 27 3 19 3 40 1 47 -5 14 -39 17 -47 4z"/>
<path d="M29445 1254 c-34 -17 -78 -81 -111 -163 -39 -93 -28 -161 24 -161 32
1 72 32 98 78 22 38 32 40 40 7 8 -31 41 -42 62 -22 14 14 13 19 -4 44 -15 22
-19 46 -19 111 0 81 -1 83 -30 102 -28 17 -33 18 -60 4z m35 -82 c-1 -52 -72
-172 -102 -172 -18 0 -7 78 18 125 43 82 84 106 84 47z"/>
<path d="M32588 1192 c-31 -19 -42 -66 -21 -88 19 -19 24 -18 56 11 31 29 32
34 15 70 -13 29 -14 29 -50 7z"/>
<path d="M32690 1186 c0 -21 21 -31 30 -15 5 7 6 17 4 21 -9 14 -34 9 -34 -6z"/>
<path d="M28914 1088 c-96 -68 -139 -245 -70 -290 18 -12 65 -9 95 7 37 19
101 93 101 117 0 28 -16 22 -46 -18 -32 -42 -77 -67 -104 -59 -29 9 -25 19 21
56 61 48 99 105 99 149 0 62 -40 78 -96 38z m46 -58 c0 -23 -56 -90 -76 -90
-12 0 -12 6 1 37 27 65 75 99 75 53z"/>
<path d="M32679 1054 c-6 -8 -8 -26 -4 -44 6 -26 11 -31 33 -28 32 4 57 44 39
63 -20 19 -55 24 -68 9z"/>
<path d="M28636 987 c-12 -12 -35 -55 -50 -95 -15 -40 -31 -72 -36 -72 -4 0
-10 23 -12 51 -11 110 -71 106 -130 -9 l-38 -73 0 60 c0 49 -4 62 -19 70 -36
20 -43 -8 -39 -153 2 -92 7 -139 16 -148 19 -19 45 2 54 45 11 51 67 195 79
203 15 9 18 3 28 -70 10 -71 23 -96 50 -96 22 0 43 37 76 138 14 45 32 82 39
82 7 0 17 -25 24 -62 14 -77 39 -107 77 -90 28 13 33 39 10 56 -9 6 -24 44
-34 84 -28 106 -50 124 -95 79z"/>
<path d="M28096 829 c-42 -55 -76 -109 -76 -120 0 -25 39 -42 133 -59 60 -11
71 -11 84 3 14 13 14 19 3 31 -7 9 -23 16 -37 16 -37 0 -113 21 -113 31 0 5
27 43 60 85 62 78 75 114 41 114 -12 0 -46 -35 -95 -101z"/>
<path d="M31834 573 c-2 -7 -6 -19 -8 -27 -6 -19 13 -36 40 -36 26 0 104 48
104 64 0 17 -131 16 -136 -1z"/>
<path d="M33727 563 c-14 -13 -6 -33 13 -33 13 0 20 7 20 20 0 19 -20 27 -33
13z"/>
<path d="M34460 338 c-14 -13 -27 -22 -30 -20 -3 2 -6 -4 -8 -13 -3 -12 2 -14
22 -9 17 4 31 1 41 -10 9 -9 29 -16 45 -16 27 0 28 1 20 31 -18 63 -49 75 -90
37z"/>
<path d="M34183 264 c-7 -18 11 -39 26 -30 17 11 13 46 -4 46 -9 0 -18 -7 -22
-16z"/>
</g>
</svg>
