<?xml version="1.0" encoding="UTF-8" standalone="no"?>
<!-- Created with Inkscape (http://www.inkscape.org/) -->

<svg
   width="1122.5197"
   height="500"
   viewBox="0 0 296.99998 132.29166"
   version="1.1"
   id="svg1"
   xml:space="preserve"
   inkscape:version="1.3.2 (091e20e, 2023-11-25, custom)"
   sodipodi:docname="LinkedIn banner.svg"
   inkscape:export-filename="GitHub-Logo.png"
   inkscape:export-xdpi="600"
   inkscape:export-ydpi="600"
   xmlns:inkscape="http://www.inkscape.org/namespaces/inkscape"
   xmlns:sodipodi="http://sodipodi.sourceforge.net/DTD/sodipodi-0.dtd"
   xmlns="http://www.w3.org/2000/svg"
   xmlns:svg="http://www.w3.org/2000/svg"><sodipodi:namedview
     id="namedview1"
     pagecolor="#505050"
     bordercolor="#eeeeee"
     borderopacity="1"
     inkscape:showpageshadow="0"
     inkscape:pageopacity="0"
     inkscape:pagecheckerboard="0"
     inkscape:deskcolor="#505050"
     inkscape:document-units="mm"
     inkscape:zoom="0.74564394"
     inkscape:cx="459.33452"
     inkscape:cy="170.99314"
     inkscape:window-width="1920"
     inkscape:window-height="1017"
     inkscape:window-x="1912"
     inkscape:window-y="-8"
     inkscape:window-maximized="1"
     inkscape:current-layer="g26" /><defs
     id="defs1" /><g
     inkscape:label="Livello 1"
     inkscape:groupmode="layer"
     id="layer1"><g
       inkscape:label="Image"
       id="g1"
       transform="matrix(0.26458333,0,0,0.26458333,82.629839,126.275)"><g
         id="g8"
         transform="matrix(-1.0769871,-0.52259263,-0.52259263,1.0769871,145.31643,185.79931)"
         style="fill:#ffa500;fill-opacity:1" /><rect
         style="opacity:1;fill:#000000;fill-opacity:1;fill-rule:nonzero;stroke:none;stroke-width:3.87362;stroke-linecap:round;stroke-dasharray:none"
         id="rect25"
         width="1118.4963"
         height="254.14275"
         x="-310.2901"
         y="-354.33121" /><g
         id="g26"
         transform="translate(-1.8966339,6.6382187)"><g
           id="g25"
           transform="translate(2.8449495,-249.73548)"><g
             id="g2"
             transform="matrix(0.66022246,0,0,0.66022246,190.65444,-101.34238)"
             style="fill:#000000;fill-opacity:1;fill-rule:nonzero;stroke:#ce8500;stroke-opacity:1"><ellipse
               style="opacity:1;fill:#000000;fill-opacity:1;fill-rule:nonzero;stroke:#ce8500;stroke-width:2.899;stroke-linecap:round;stroke-dasharray:none;stroke-opacity:1"
               id="path8"
               cx="84"
               cy="84"
               rx="80.359146"
               ry="79.54332" /></g><g
             id="g7"
             transform="matrix(-0.78896861,0.04654046,0.04654046,0.78896861,297.69506,-4.4574042)"
             style="fill:#ffa500;fill-opacity:1"><path
               id="path4"
               style="opacity:1;fill:#ffa500;fill-opacity:1;fill-rule:evenodd;stroke-width:5.08346;stroke-linecap:round"
               d="m 70.81664,-13.702814 a 1.5257286,1.5257286 0 0 1 -1.525728,1.52573 1.5257286,1.5257286 0 0 1 -1.525729,-1.52573 1.5257286,1.5257286 0 0 1 1.525729,-1.52573 1.5257286,1.5257286 0 0 1 1.525728,1.52573 z" /><path
               id="path5"
               style="opacity:1;fill:#ffa500;fill-opacity:1;fill-rule:evenodd;stroke-width:5.08346;stroke-linecap:round"
               d="m 74.719671,-13.596364 a 0.92253357,0.92253357 0 0 1 -0.922534,0.92253 0.92253357,0.92253357 0 0 1 -0.922533,-0.92253 0.92253357,0.92253357 0 0 1 0.922533,-0.92254 0.92253357,0.92253357 0 0 1 0.922534,0.92254 z" /><path
               id="path6"
               style="opacity:1;fill:#ffa500;fill-opacity:1;fill-rule:evenodd;stroke-width:5.08346;stroke-linecap:round"
               d="m 65.483868,-16.207874 a 1.2043011,1.2043011 0 0 1 -1.204301,1.2043 1.2043011,1.2043011 0 0 1 -1.204301,-1.2043 1.2043011,1.2043011 0 0 1 1.204301,-1.2043 1.2043011,1.2043011 0 0 1 1.204301,1.2043 z" /></g><path
             d="m 236.47199,-11.348569 -3.44798,-0.05434 c -2.03813,-0.259401 -3.90953,-0.852314 -5.61416,-1.778745 -1.70464,-0.889379 -3.18693,-1.982562 -4.44687,-3.279569 -1.22289,-1.297 -2.18638,-2.760766 -2.89047,-4.391285 -0.66703,-1.59346 -1.00054,-3.223978 -1.00054,-4.891555 0,-0.815256 0.0741,-1.778745 0.22234,-2.890461 0.18528,-1.111722 0.3891,-2.223437 0.61144,-3.335153 0.22234,-1.148774 0.40764,-2.204905 0.55586,-3.168394 0.18529,-1.000548 0.27793,-1.797278 0.27793,-2.39019 0,-0.889373 -0.20381,-1.76022 -0.61145,-2.61254 -0.37057,-0.852315 -0.92642,-1.630519 -1.66757,-2.334606 -0.70409,-0.74114 -1.59346,-1.352585 -2.66812,-1.834336 -2.15112,-0.971544 -4.53651,-1.280508 -6.8318,-1.778309 2.29011,-0.659312 4.70345,-0.793383 6.88738,-1.779181 1.03761,-0.518803 1.90845,-1.130248 2.61254,-1.834336 0.74115,-0.741146 1.297,-1.537876 1.66757,-2.39019 0.40764,-0.889372 0.61145,-1.778751 0.61145,-2.668124 0,-0.592913 -0.0926,-1.371117 -0.27793,-2.334606 -0.14822,-0.963489 -0.33352,-2.001088 -0.55586,-3.11281 -0.22234,-1.111716 -0.42616,-2.223431 -0.61144,-3.335153 -0.14823,-1.111716 -0.22234,-2.093731 -0.22234,-2.946045 0,-1.704635 0.33351,-3.353686 1.00054,-4.947146 0.70409,-1.59346 1.66758,-3.038694 2.89047,-4.335694 1.25994,-1.297007 2.74223,-2.39019 4.44687,-3.279563 1.70463,-0.889379 3.57603,-1.482298 5.61416,-1.778758 l 3.32315,-0.0053 c -3.3162,1.506648 -7.10357,1.997662 -9.71552,4.729999 -1.33406,1.556408 -2.00109,3.279569 -2.00109,5.169489 0,0.667036 0.0741,1.51935 0.22234,2.556949 0.18529,1.037606 0.38911,2.130796 0.61145,3.279569 0.22235,1.111716 0.40763,2.223432 0.55586,3.335154 0.18529,1.074657 0.27793,2.001088 0.27793,2.779292 0,1.259942 -0.24088,2.519891 -0.72262,3.77984 -0.44469,1.222884 -1.13024,2.39019 -2.05668,3.501905 -0.88937,1.111716 -2.01962,2.149322 -3.39074,3.112811 -1.37111,0.92643 -2.96457,1.723161 -4.78038,2.39019 1.77875,0.667029 3.35368,1.482292 4.7248,2.445781 1.37112,0.963489 2.50137,2.01962 3.39074,3.168394 0.92643,1.148774 1.63052,2.353132 2.11226,3.613081 0.48174,1.259949 0.72262,2.501358 0.72262,3.724249 0,0.778204 -0.0926,1.704635 -0.27793,2.779292 -0.14823,1.074664 -0.33351,2.186379 -0.55586,3.335153 -0.22234,1.148774 -0.42616,2.223438 -0.61145,3.223979 -0.14822,1.037605 -0.22234,1.88992 -0.22234,2.556956 0,1.889919 0.66703,3.61308 2.00109,5.169482 2.60968,2.684524 6.43302,3.517976 9.84035,4.835067 z"
             id="text1"
             style="font-size:684.152px;line-height:113.22%;font-family:'Microsoft Himalaya';-inkscape-font-specification:'Microsoft Himalaya, Normal';letter-spacing:3.58px;fill:#ffa500;fill-opacity:1;fill-rule:evenodd;stroke:#ffffff;stroke-width:0.0973181;stroke-linecap:round;stroke-dasharray:none"
             aria-label="{"
             sodipodi:nodetypes="cccccscccsccccsscscscsccscccscccsccccscsscscscc" /><g
             id="g3"
             transform="matrix(0.57398779,-0.32623874,0.32623874,0.57398779,173.41959,-57.497432)"><g
               id="g4"
               transform="rotate(30.397075,111.79446,87.921985)"><g
                 id="g6"
                 transform="rotate(28.388681,111.07912,86.839377)"><path
                   id="path1"
                   style="fill:#ffa500;fill-opacity:1;fill-rule:evenodd;stroke-width:5.08327;stroke-linecap:round"
                   d="m 116.54595,54.760384 -0.0454,13.242739 -8.80201,-0.246426 0.14928,-13.221433 c 0.35689,-24.856026 8.49863,-24.104931 8.69813,0.22512 z"
                   sodipodi:nodetypes="sccss" /><path
                   id="rect1-5"
                   style="fill:#ffa500;fill-opacity:1;fill-rule:evenodd;stroke-width:7.59181;stroke-linecap:round"
                   d="m 107.4951,98.696055 0.099,-20.328252 8.81298,0.174068 -0.10151,20.173644 z"
                   sodipodi:nodetypes="ccccc" /><path
                   id="rect1-8"
                   style="fill:#ffa500;fill-opacity:1;fill-rule:evenodd;stroke-width:4.59977;stroke-linecap:round"
                   d="m 107.3232,111.45487 0.0705,-7.67828 8.87205,0.12067 -0.0489,7.66205 z"
                   sodipodi:nodetypes="ccccc" /><path
                   id="rect1-4"
                   style="fill:#ffa500;fill-opacity:1;fill-rule:evenodd;stroke-width:2.32506;stroke-linecap:round"
                   d="m 107.42386,102.20208 0.0194,-2.02633 8.8618,0.11477 -0.005,2.02523 z"
                   sodipodi:nodetypes="ccccc" /><g
                   id="g5"
                   transform="translate(-0.26626652,-2.1302677)"><path
                     id="path2"
                     style="fill:#ffa500;fill-opacity:1;fill-rule:evenodd;stroke-width:5.08327;stroke-linecap:round"
                     d="m 107.84298,139.62633 c -1.68832,0.31679 0.61325,-3.98943 -0.37303,-9.7602 -0.24239,-1.41826 -1.3161,-3.10265 -1.77886,-4.70129 -0.62363,-2.15444 -0.77252,-3.76715 -0.35027,-5.67292 0.20172,-0.91043 2.88098,-6.40685 6.5274,-4.92924 0.63536,0.25746 -2.26957,2.74772 -1.21974,8.00027 0.68259,3.41518 1.25217,8.95809 -0.2711,12.59053 -0.81767,1.94982 -0.99951,4.18485 -2.5344,4.47285 z"
                     sodipodi:nodetypes="ssssssss" /><path
                     id="path3"
                     style="fill:#ffa500;fill-opacity:1;fill-rule:evenodd;stroke-width:5.08327;stroke-linecap:round"
                     d="m 109.84648,139.33442 c -0.37732,-0.27292 1.14382,-2.76246 1.94487,-6.06952 0.22007,-0.90854 0.27904,-1.86797 0.32902,-2.87768 0.033,-0.66691 0.11036,-1.37325 0.0554,-2.03886 -0.10539,-1.27687 -0.24044,-3.07324 -0.5429,-4.90108 -0.25373,-1.53335 -0.4413,-3.02614 -0.27939,-4.3063 0.23956,-1.89423 0.91097,-3.32502 1.60206,-4.34765 0.21068,-0.31176 6.1118,0.29339 5.48525,8.34458 -1.0192,4.1982 -3.10139,12.32698 -6.03378,14.67346 -0.78579,0.62878 -1.66267,2.17248 -2.56055,1.52305 z"
                     sodipodi:nodetypes="ssssssscss" /></g><rect
                   style="fill:#ffa500;fill-opacity:1;fill-rule:evenodd;stroke-width:5.40489;stroke-linecap:round"
                   id="rect7"
                   width="8.8140516"
                   height="7.3282442"
                   x="108.18245"
                   y="68.028915"
                   transform="matrix(0.99991189,0.01327454,-0.00753697,0.9999716,0,0)" /></g></g></g></g><path
           d="m -16.344329,-130.84686 q -3.883208,0 -6.624296,-1.02791 -4.340056,-1.59897 -6.28166,-3.769 -2.055816,-2.05581 -2.055816,-4.45426 0,-3.08373 3.083724,-6.51009 2.969512,-3.31215 8.337476,-6.51008 5.367964,-3.08373 12.3348957,-5.48218 6.96693184,-2.28424 14.8475597,-3.42636 3.5405716,-0.57106 7.7664156,-0.91369 4.340056,-0.34264 8.680112,-0.68528 4.454268,-0.22842 7.99484,-0.22842 4.225844,-7.19536 6.85272,-13.59123 2.741088,-6.39587 4.796904,-14.73334 l 0.456848,-1.8274 q -2.170028,2.05582 -6.167448,5.02533 -3.883208,2.8553 -9.13696,5.82481 -5.13954,2.8553 -11.078564,4.79691 -5.824812,1.9416 -11.9922596,1.9416 -4.79690389,0 -9.2511718,-1.48476 -4.7969039,-1.71318 -8.6801116,-5.71059 -3.768996,-4.11164 -6.053236,-10.05066 -2.170028,-6.05324 -2.170028,-13.3628 0,-5.36797 1.370544,-11.4212 1.370544,-6.16745 4.454268,-12.56332 -3.540572,-3.65479 -5.596388,-8.10906 -1.941604,-4.45426 -1.941604,-9.13696 0,-4.11163 1.71318,-8.10905 1.71318,-4.11163 5.367964,-7.88063 1.027908,-1.14212 1.941604,-1.14212 0.456848,0 0.456848,0.45685 0,0.68527 -0.799484,1.59897 -2.626876,3.19794 -3.883208,6.73851 -1.256332,3.54057 -1.256332,7.08114 0,3.99742 1.484756,7.88063 1.598968,3.88321 4.454268,7.19536 0.57106,-1.14212 1.14212,-2.28424 0.685272,-1.14212 1.370544,-2.28424 5.4821756,-8.90854 13.3628035,-15.30441 7.9948395,-6.39587 17.0175875,-9.82223 9.022748,-3.54058 17.588648,-3.54058 1.484756,0 2.8553,0.11422 1.484756,0.11421 2.969512,0.34263 11.078564,1.71318 16.560739,7.42378 5.482176,5.7106 5.482176,12.79175 0,4.91111 -2.741088,9.82223 -2.626876,4.91111 -8.109051,9.02275 -5.367964,4.11163 -13.477016,6.62429 -7.99484,2.51267 -18.616556,2.74109 -8.337476,0.11421 -16.4465276,-2.05582 -8.1090518,-2.28424 -13.7054397,-5.93902 -2.8552997,6.05324 -4.2258437,11.87805 -1.256332,5.7106 -1.256332,10.73593 0,8.45168 3.5405717,14.50492 3.5405719,6.05324 9.82223182,8.10905 1.82739198,0.57106 3.65478398,0.79949 1.9416039,0.22842 3.7689959,0.22842 5.1395396,0 10.2790796,-1.48476 5.253752,-1.59896 9.70802,-4.11163 4.454268,-2.51266 7.537992,-5.25375 3.197936,-2.8553 4.225844,-5.25375 2.626876,-5.93903 5.13954,-8.22327 2.626876,-2.39845 4.682692,-2.39845 1.71318,0 2.8553,1.59897 1.256332,1.48476 0.913696,4.11163 -1.14212,9.4796 -5.253752,18.38813 -3.99742,8.90854 -10.393292,19.30183 7.766416,0.11421 13.933864,0.79948 6.28166,0.79949 11.306987,2.05582 1.370544,0.34264 1.827392,0.79948 0.57106,0.57106 0.57106,0.9137 0,0.79948 -1.370544,0.79948 -0.685272,0 -1.941604,-0.34263 -2.626876,-0.68527 -6.966931,-1.25633 -4.340056,-0.45685 -9.365384,-0.68528 -4.911116,-0.22842 -9.479596,-0.22842 -4.796904,6.85272 -11.4212,12.3349 -6.510084,5.59638 -13.819652,9.5938 -7.3095675,3.99742 -14.3907114,6.05324 -6.9669316,2.17003 -12.5633196,2.17003 z m 35.748355,-91.3696 q 1.256332,0 2.512664,0 1.256332,-0.11421 2.512664,-0.22842 11.535412,-1.14212 19.530252,-5.25376 8.109052,-4.22584 12.220684,-9.93644 4.225843,-5.7106 4.225843,-11.19278 0,-5.36796 -4.111631,-9.47959 -3.99742,-4.22585 -12.334896,-5.48218 -1.14212,-0.22842 -1.941604,-0.22842 -0.685272,0 -1.941604,0 -7.42378,0 -15.41862,3.54057 -7.880628,3.54057 -15.0759836,9.93644 -7.0811439,6.28166 -12.2206838,14.61914 -1.256332,2.17003 -1.941604,3.31215 -0.685272,1.14212 -1.598968,2.74109 4.682692,3.54057 11.3069878,5.59638 6.7385076,2.05582 14.2764996,2.05582 z m -35.862567,87.82903 q 4.454268,0 10.5075036,-1.71318 6.05323592,-1.59897 12.5633198,-5.02533 6.6242956,-3.31215 12.6775316,-8.22327 6.053236,-4.91111 10.621716,-11.4212 -5.482176,0.11422 -10.85014,0.45685 -5.253752,0.45685 -10.5075036,1.37055 -5.5963879,0.91369 -11.6496238,3.08372 -5.9390239,2.28424 -11.0785636,5.25375 -5.025328,2.96951 -8.223264,5.93903 -3.083724,3.08372 -3.083724,5.59638 0,1.48476 1.256332,2.62688 1.370544,1.14212 4.225844,1.71318 1.598968,0.34264 3.540572,0.34264 z m 102.474709,-39.06051 q -1.256332,0.11421 -2.8553,-0.57106 -1.598968,-0.68527 -2.8553,-2.51266 -1.14212,-1.82739 -1.14212,-5.13954 0,-2.74109 1.027908,-6.6243 -1.370544,2.17003 -3.540572,5.36797 -2.170028,3.08372 -4.682692,5.48217 -2.170028,2.05582 -4.111632,2.96951 -1.941604,0.9137 -3.540572,0.9137 -2.969512,0 -4.796904,-2.62688 -1.827392,-2.74108 -1.827392,-7.08114 0,-4.56848 2.28424,-10.39329 2.28424,-5.82481 7.42378,-12.10647 3.312148,-3.99742 7.99484,-6.39587 4.796904,-2.51267 9.365384,-2.51267 2.626876,0 5.025328,0.9137 2.398452,0.79948 4.225844,2.74109 0.799484,0.79948 0.799484,1.82739 0,0.68527 -0.57106,1.14212 -0.57106,0.45685 -1.484756,0.22842 -1.256332,-3.99742 -5.367964,-3.99742 -1.941604,0 -4.454268,1.25633 -3.883208,2.05582 -8.109052,6.73851 -4.111632,4.68269 -7.195356,9.70802 -0.456848,0.68527 -1.484756,2.62688 -0.913696,1.9416 -1.827392,4.34005 -0.913696,2.39846 -1.256332,4.6827 -0.114212,0.68527 -0.114212,1.0279 0,0.22843 0,0.79949 0,3.76899 2.8553,3.76899 3.42636,0 7.766416,-5.02532 2.969512,-3.65479 5.367964,-7.65221 2.398452,-3.99742 4.911116,-8.5659 1.71318,-3.08372 3.197936,-5.13954 1.484756,-2.05581 4.225844,-2.05581 1.256332,0 2.512664,0.34263 1.256332,0.34264 2.626876,0.11421 -0.913696,0.9137 -2.512664,3.42636 -1.484756,2.51267 -3.197936,5.7106 -1.71318,3.19794 -3.083724,6.51009 -1.370544,3.31215 -1.941604,5.7106 -0.114212,0.68527 -0.342636,1.9416 -0.114212,1.25633 -0.114212,1.82739 0,3.19794 1.827392,3.19794 1.827392,0 3.883208,-2.17003 2.170028,-2.17003 4.225844,-5.36796 2.055816,-3.19794 3.768996,-6.39587 1.713176,-3.31215 2.741086,-5.36797 0.45685,-1.14212 1.37055,-1.14212 0.57106,0 0.57106,0.79949 0,0.34263 -0.34264,1.25633 -1.37054,2.8553 -3.312148,6.51008 -1.941604,3.54057 -4.225844,6.96693 -2.28424,3.31215 -4.796904,5.59639 -2.398452,2.17003 -4.911116,2.39845 z m 18.757272,0.11421 q -5.59639,0 -7.994842,-2.8553 -2.28424,-2.96951 -2.28424,-6.16744 0,-2.62688 1.256332,-4.79691 1.370544,-2.17002 3.197936,-2.28424 2.284244,-4.45426 4.911114,-9.70802 2.74109,-5.25375 5.02533,-10.16486 1.59897,-3.31215 3.99742,-6.39588 2.51266,-3.08372 5.48218,-3.54057 h 1.14212 q 0.91369,0 1.59896,0.11421 0.79949,0.11422 1.59897,0.45685 1.25633,0.57106 1.25633,1.71318 0,0.68527 -0.79948,0.68527 -0.34264,0 -0.9137,-0.34263 -1.37054,-0.57106 -2.39845,-0.57106 -0.68527,0 -1.25633,0.34263 -2.17003,1.14212 -3.08372,3.19794 -0.79949,2.05582 -0.79949,4.34006 0,1.82739 0.34264,3.76899 0.45685,1.82739 1.02791,3.31215 1.25633,3.19794 2.62687,6.28166 1.48476,3.08372 1.48476,6.6243 0,3.42636 -2.28424,7.30956 -2.28424,3.769 -5.82481,6.05324 l 0.79948,0.11421 q 0.57106,0.11421 0.79948,0.11421 0.22843,0 0.34264,0 2.62688,0 4.91112,-1.48475 2.39845,-1.59897 4.22584,-3.88321 1.82739,-2.28424 4.11163,-6.39587 2.39845,-4.11163 4.56848,-8.68011 0.34264,-0.57106 0.79949,-0.57106 0.57106,0 0.79948,0.45684 0.34264,0.34264 0.11421,0.9137 -1.48475,3.19794 -3.42636,6.96693 -1.82739,3.65479 -4.22584,7.08115 -2.39845,3.31214 -5.59639,5.48217 -3.08372,2.05582 -6.96693,2.05582 -0.9137,0 -1.94161,-0.11422 -1.0279,-0.11421 -2.05581,-0.45684 -1.14212,0.45684 -2.39845,0.68527 -1.14212,0.34263 -2.17003,0.34263 z m 3.42636,-3.42636 q 1.9416,-1.59896 3.42636,-4.68269 1.59897,-3.08372 1.59897,-8.10905 0,-4.45427 -0.9137,-9.47959 -0.9137,-5.02533 -0.9137,-8.90854 0,-0.79948 0,-1.37054 0.11422,-0.68528 0.22843,-1.25634 -1.48476,3.08373 -3.42636,7.19536 -1.94161,3.99742 -3.88321,7.76642 -1.9416,3.76899 -3.31215,6.39587 0,0 0.57106,0.11421 0.68527,0 1.25633,0.79948 0.57106,0.68528 0.45685,2.8553 -0.11421,2.8553 1.25633,5.36797 1.48476,2.39845 3.65479,3.31214 z m -4.34006,1.59897 q 0.68527,0 1.25633,-0.11421 0.57106,-0.22842 1.02791,-0.34264 -1.71318,-1.25633 -3.08372,-3.31214 -1.25633,-2.17003 -1.48476,-5.48218 -2.055814,2.17003 -2.055814,4.68269 0,1.82739 1.142124,3.19794 1.14212,1.37054 3.19793,1.37054 z m 10.87672,32.55042 q -1.37055,0 -2.74109,-0.45685 -1.48476,-0.34263 -2.96951,-0.11421 0.68527,-0.68527 2.62687,-3.99742 1.94161,-3.19793 4.56848,-7.99484 2.51267,-4.7969 5.36797,-10.39329 2.8553,-5.59639 5.36796,-10.96435 2.51267,-5.48218 4.22585,-9.93644 1.82739,-4.56848 2.28424,-7.19536 -1.02791,1.48476 -2.05582,1.71318 -0.9137,0.11421 -0.45685,-0.68527 0.22843,-0.45685 0.9137,-2.17003 0.79948,-1.82739 1.37054,-3.08372 0.9137,-2.28424 1.48476,-5.02533 0.68527,-2.74109 0.68527,-5.25375 0,-1.59897 -0.34264,-2.74109 -0.34263,-1.14212 -1.25633,-1.25633 0,0 1.25633,-0.22843 1.25634,-0.22842 2.62688,-0.45685 1.37054,-0.22842 1.82739,-0.22842 0.68527,-0.11421 1.25633,-0.11421 0.57106,-0.11421 1.02791,-0.11421 1.02791,0 1.37055,0.79948 0.45684,0.68527 0.45684,2.96951 0,2.8553 -1.0279,7.30957 -0.9137,4.34006 -2.17003,7.6522 1.25633,-2.05581 3.19793,-5.25375 2.05582,-3.19793 4.6827,-6.51008 2.62687,-3.31215 5.48217,-5.48218 2.8553,-2.28424 5.59639,-2.28424 0.57106,0 1.48475,0.22843 3.19794,0.79948 4.45427,3.19793 1.37055,2.28424 1.37055,5.48218 0,3.42636 -1.37055,7.53799 -1.25633,4.11163 -3.42636,8.10905 -2.17003,3.88321 -4.7969,7.08115 -3.19794,3.99741 -7.6522,6.39587 -4.45427,2.39845 -9.13696,2.39845 -4.22585,0 -7.88063,-2.17003 l -10.85014,27.29667 q -1.59897,3.42636 -3.08373,4.68269 -1.48475,1.25633 -3.76899,1.25633 z m 21.9287,-33.46411 q 3.19794,0 7.19536,-2.96952 3.99742,-2.96951 7.6522,-7.53799 3.769,-4.68269 6.28166,-9.36538 1.71318,-3.19794 2.51266,-5.82481 0.79949,-2.74109 0.79949,-4.68269 0,-4.45427 -3.19794,-4.45427 -1.48475,0 -3.88321,1.59897 -2.28423,1.59896 -5.36796,5.82481 -3.31215,4.56848 -7.30957,11.53541 -3.8832,6.85272 -7.99484,14.50492 1.37055,1.37055 3.31215,1.37055 z m 59.30255,2.62687 q -1.25634,0.11421 -2.8553,-0.57106 -1.59897,-0.68527 -2.8553,-2.51266 -1.14212,-1.82739 -1.14212,-5.13954 0,-2.74109 1.0279,-6.6243 -1.37054,2.17003 -3.54057,5.36797 -2.17003,3.08372 -4.68269,5.48217 -2.17003,2.05582 -4.11163,2.96951 -1.94161,0.9137 -3.54057,0.9137 -2.96952,0 -4.79691,-2.62688 -1.82739,-2.74108 -1.82739,-7.08114 0,-4.56848 2.28424,-10.39329 2.28424,-5.82481 7.42378,-12.10647 3.31215,-3.99742 7.99484,-6.39587 4.7969,-2.51267 9.36538,-2.51267 2.62688,0 5.02533,0.9137 2.39845,0.79948 4.22585,2.74109 0.79948,0.79948 0.79948,1.82739 0,0.68527 -0.57106,1.14212 -0.57106,0.45685 -1.48476,0.22842 -1.25633,-3.99742 -5.36796,-3.99742 -1.9416,0 -4.45427,1.25633 -3.88321,2.05582 -8.10905,6.73851 -4.11163,4.68269 -7.19536,9.70802 -0.45684,0.68527 -1.48475,2.62688 -0.9137,1.9416 -1.82739,4.34005 -0.9137,2.39846 -1.25634,4.6827 -0.11421,0.68527 -0.11421,1.0279 0,0.22843 0,0.79949 0,3.76899 2.8553,3.76899 3.42636,0 7.76642,-5.02532 2.96951,-3.65479 5.36796,-7.65221 2.39845,-3.99742 4.91112,-8.5659 1.71318,-3.08372 3.19793,-5.13954 1.48476,-2.05581 4.22585,-2.05581 1.25633,0 2.51266,0.34263 1.25633,0.34264 2.62688,0.11421 -0.9137,0.9137 -2.51267,3.42636 -1.48475,2.51267 -3.19793,5.7106 -1.71318,3.19794 -3.08373,6.51009 -1.37054,3.31215 -1.9416,5.7106 -0.11421,0.68527 -0.34264,1.9416 -0.11421,1.25633 -0.11421,1.82739 0,3.19794 1.82739,3.19794 1.8274,0 3.88321,-2.17003 2.17003,-2.17003 4.22585,-5.36796 2.05581,-3.19794 3.76899,-6.39587 1.71318,-3.31215 2.74109,-5.36797 0.45685,-1.14212 1.37054,-1.14212 0.57106,0 0.57106,0.79949 0,0.34263 -0.34263,1.25633 -1.37055,2.8553 -3.31215,6.51008 -1.9416,3.54057 -4.22584,6.96693 -2.28424,3.31215 -4.79691,5.59639 -2.39845,2.17003 -4.91111,2.39845 z m 29.72162,-0.22842 q -2.17003,0 -4.34006,-1.71318 -2.17003,-1.82739 -2.17003,-5.82481 0,-3.08373 1.48476,-7.08115 1.37054,-3.8832 3.65478,-7.53799 2.39846,-3.65478 3.42636,-5.93902 0.34264,-0.9137 0.34264,-1.59897 0,-2.05582 -2.62688,-2.96951 -2.51266,-0.9137 -6.62429,-1.02791 l -1.37055,3.769 q -1.25633,3.65478 -3.54057,8.5659 -2.17003,4.91111 -4.91111,9.47959 -2.62688,4.56848 -5.48218,7.30957 -0.22842,0.22842 -0.57106,0.22842 -0.45685,0 -0.57106,-0.57106 -0.22842,-0.57106 0.45685,-1.37054 4.45427,-5.93902 7.99484,-13.13438 3.54057,-7.30957 5.93902,-14.84756 2.51267,-7.53799 3.65479,-13.93386 0.34263,-1.8274 1.25633,-2.62688 0.91369,-0.9137 1.9416,-0.9137 1.48476,0 2.74109,1.48476 1.25633,1.37054 1.25633,3.99742 0,0.45685 -0.11421,1.02791 0,0.57106 -0.11421,1.14212 -0.45685,2.39845 -2.74109,4.56848 -2.17003,2.05581 -3.54057,3.08372 1.14212,0.11421 2.39845,0.22843 1.25633,0 2.74109,0 5.36796,0 10.62171,-0.68528 0.22843,0.68528 0.22843,1.02791 0,1.48476 -0.9137,3.769 -0.79948,2.28424 -1.71318,4.11163 -0.45685,1.02791 -1.82739,3.769 -1.37054,2.62687 -2.96951,6.05323 -1.59897,3.31215 -2.74109,6.6243 -1.02791,3.19793 -1.02791,5.48217 0,2.96951 2.28424,2.96951 1.71318,0 3.769,-2.17002 2.05581,-2.28424 3.99742,-5.48218 2.05581,-3.31215 3.65478,-6.39587 1.71318,-3.19794 2.62688,-5.02533 0.45685,-1.14212 1.25633,-1.14212 0.45685,0 0.45685,0.79949 0,0.45684 -0.34264,1.37054 -1.25633,2.62688 -2.96951,5.93902 -1.71318,3.31215 -3.88321,6.51009 -2.05581,3.19793 -4.56848,5.59638 -2.39845,2.28424 -5.25375,2.96952 -0.34264,0.11421 -1.25633,0.11421 z m 24.92474,0.34263 q -4.22584,0 -7.6522,-2.74108 -3.31215,-2.74109 -3.31215,-8.33748 0,-5.13954 2.51267,-10.96435 2.51266,-5.93902 6.39587,-10.39329 3.31215,-3.88321 7.42378,-6.39587 4.11163,-2.51267 7.76641,-2.51267 2.51267,0 4.34006,1.37055 1.9416,1.48475 1.9416,4.22584 0,2.8553 -2.17002,6.28166 -2.17003,3.42636 -6.16745,6.39587 -1.71318,1.25633 -4.34006,2.39845 -2.62687,1.14212 -5.25375,1.94161 -2.62688,0.68527 -4.34006,0.68527 -0.57106,1.37054 -1.14212,3.65478 -0.45684,2.28424 -0.45684,4.6827 0,2.85529 1.14212,5.13953 1.14212,2.28424 4.22584,2.28424 3.769,0 6.85272,-2.17002 3.08372,-2.17003 5.48218,-5.36797 2.39845,-3.31214 3.99742,-6.62429 1.71318,-3.31215 2.74108,-5.59639 0.68528,-1.59897 1.8274,-1.59897 0.57106,0 0.57106,0.57106 0,0.45685 -0.34264,1.14212 -1.59897,3.42636 -3.42636,7.30957 -1.82739,3.769 -4.34006,7.19536 -2.51266,3.31214 -6.05323,5.36796 -3.42636,2.05581 -8.22327,2.05581 z m -2.05581,-20.10131 q 1.59897,0 5.36796,-1.14212 3.769,-1.25633 6.85272,-3.8832 2.96951,-2.62688 4.56848,-5.7106 1.59897,-3.19794 1.59897,-5.36797 0,-2.51266 -1.82739,-2.51266 -1.37055,0 -3.769,1.82739 -2.39845,1.82739 -5.93902,6.16745 -2.17003,2.74109 -4.11163,5.93902 -1.94161,3.19794 -2.74109,4.68269 z m 93.1359,30.38039 q -8.22327,0 -15.87547,-2.05581 -7.65221,-1.94161 -13.70544,-5.93903 -6.05324,-3.99742 -9.70802,-10.05065 -3.54057,-6.05324 -3.54057,-14.2765 0,-6.05324 2.17003,-12.90596 1.25633,-3.8832 3.54057,-6.62429 2.39845,-2.74109 4.91111,-4.22585 2.51267,-1.48475 3.99742,-1.48475 1.94161,0 1.59897,1.82739 -0.68527,0.79948 -2.39845,1.9416 -1.59897,1.02791 -3.54057,2.74109 -1.82739,1.71318 -3.54057,4.45427 -1.59897,2.62688 -2.28424,6.73851 -0.22843,1.48475 -0.45685,2.96951 -0.11421,1.48476 -0.11421,2.8553 0,7.42378 3.19793,13.13438 3.19794,5.7106 8.33748,9.47959 5.25375,3.769 11.4212,5.59639 6.28166,1.94161 12.33489,1.82739 9.25117,-0.22842 16.44653,-2.62687 7.19536,-2.28424 12.79174,-6.16745 5.59639,-3.88321 9.82224,-8.5659 3.54057,-3.88321 7.08114,-9.47959 3.54057,-5.59639 6.85272,-11.99226 3.42636,-6.51009 6.39587,-12.90596 3.08373,-6.39587 5.7106,-12.10647 2.62688,-5.7106 4.56848,-9.70802 1.94161,-4.11163 3.19794,-5.7106 -9.02275,-2.74109 -17.36023,-4.22585 -8.22326,-1.59896 -17.58864,-2.05581 -8.5659,-0.45685 -15.30441,1.9416 -6.6243,2.39845 -11.30699,6.51009 -4.56848,3.99742 -7.08114,8.79432 -2.39846,4.7969 -2.39846,9.25117 0,3.88321 1.94161,6.96693 2.05581,2.96952 6.16745,4.34006 2.74108,0.79948 5.36796,0.79948 4.11163,0 7.19536,-1.71318 3.08372,-1.71318 5.13954,-4.11163 2.17002,-2.51266 3.19793,-4.68269 1.14212,-2.28424 1.14212,-3.31215 v -0.11421 q 0.57106,-0.68527 1.14212,-0.68527 1.14212,0 1.14212,1.59897 -0.57106,4.91111 -3.54057,8.5659 -2.8553,3.65478 -6.96693,5.59638 -4.11163,1.94161 -8.68011,1.94161 -3.19794,0 -6.16745,-1.02791 -6.28166,-2.28424 -9.4796,-7.30957 -3.19793,-5.13954 -3.19793,-11.07856 0,-5.02533 2.17002,-9.93645 2.17003,-5.02532 6.6243,-9.13696 4.45427,-4.22584 11.07856,-6.7385 6.6243,-2.51267 15.53284,-2.51267 1.48475,0 2.39845,0 0.91369,0 3.08372,0.22843 5.36797,0.45684 10.85014,1.82739 5.48218,1.25633 10.50751,2.8553 5.02532,1.59897 9.25117,3.08372 4.22584,1.48476 6.96693,2.17003 0.34264,-0.45685 1.9416,-1.59897 1.71318,-1.14212 3.42636,-2.39845 1.8274,-1.25633 2.8553,-2.17003 1.02791,-0.91369 0.11422,-0.91369 h -0.11422 q 0.34264,-0.11422 0.9137,-0.11422 1.14212,0 1.71318,0.79949 0.57106,0.68527 0.57106,1.48475 0,1.48476 -1.37055,1.48476 -0.22842,0 -0.91369,-0.22842 -0.45685,-0.45685 -1.71318,0.45684 -1.14212,0.9137 -2.39845,2.17003 -1.14212,1.14212 -1.82739,1.94161 2.51266,0.79948 6.28165,1.9416 3.88321,1.02791 8.22327,2.17003 4.45427,1.02791 8.68011,1.71318 4.22584,0.68527 7.53799,0.68527 3.19794,0 5.02533,-0.79948 1.9416,-0.79949 1.9416,-2.62688 0,-0.68527 0.22843,-1.14212 0.34263,-0.57106 1.14212,-0.57106 0.57106,0 0.79948,1.02791 0.22843,0.91369 0.22843,1.48475 0,2.74109 -2.96952,4.45427 -2.8553,1.71318 -7.19535,1.71318 -0.68527,0 -1.37055,0 -0.68527,-0.11421 -1.48475,-0.22842 -12.79175,-1.59897 -19.9871,-4.11163 -7.08114,-2.51267 -8.90854,-3.31215 -5.13954,8.22326 -8.45168,16.90337 -3.31215,8.68012 -6.28166,17.36023 -2.8553,8.68011 -6.73851,16.78916 -3.769,8.10905 -10.05066,15.30441 -4.56848,5.13954 -11.19277,8.68011 -6.51009,3.54057 -14.16229,5.25375 -7.65221,1.82739 -15.53283,1.82739 z m 71.52332,-10.73592 q -4.34005,0 -6.39587,-2.8553 -2.05581,-2.96952 -2.05581,-7.19536 0,-5.13954 2.39845,-10.73593 2.28424,-5.25375 5.82481,-9.5938 3.54057,-4.34006 7.6522,-6.96694 4.11164,-2.74108 7.99484,-2.74108 4.34006,0 6.39587,2.8553 2.05582,2.8553 2.05582,7.19535 0,5.25375 -2.39845,10.73593 -1.37054,3.08372 -3.88321,6.85272 -2.51266,3.65478 -5.7106,6.73851 0.68527,1.25633 1.94161,2.17002 1.25633,0.79949 3.42636,0.79949 2.74108,0 5.13953,-2.28424 2.51267,-2.28424 4.56848,-5.48218 2.05582,-3.31214 3.65479,-6.62429 1.59897,-3.31215 2.62687,-5.36797 0.34264,-0.68527 1.14212,-0.68527 0.45685,0 0.68528,0.45685 0.22842,0.34264 -0.11422,1.14212 -0.68527,1.71318 -2.28424,5.13954 -1.59896,3.31215 -3.8832,6.96693 -2.28424,3.54057 -5.25376,6.05324 -2.96951,2.51266 -6.62429,2.51266 -2.51266,0 -4.34006,-0.79948 -1.82739,-0.9137 -2.96951,-2.17003 -2.39845,1.82739 -4.7969,2.8553 -2.39845,1.02791 -4.79691,1.02791 z m 1.71318,-2.51267 q 3.08373,0 6.6243,-2.96951 -0.9137,-1.37054 -1.37054,-2.8553 -0.45685,-1.48475 -0.45685,-2.74109 0,-2.05581 0.91369,-3.54057 1.02791,-1.48475 3.08373,-1.48475 1.48475,0 2.39845,1.14212 1.02791,1.0279 1.02791,2.39845 0,0.34263 -0.11421,0.68527 0,0.22842 -0.11422,0.57106 1.94161,-2.62688 3.65479,-6.16745 3.76899,-8.10905 3.76899,-13.3628 0,-2.62688 -1.0279,-4.11163 -1.02791,-1.48476 -3.08373,-1.48476 -2.39845,0 -5.25375,2.05582 -2.74109,2.05581 -5.36796,5.48217 -2.51267,3.42636 -4.45427,7.65221 -1.82739,3.8832 -2.96951,7.53799 -1.02791,3.54057 -1.02791,6.16745 0,2.28423 0.91369,3.65478 0.9137,1.37054 2.8553,1.37054 z m 41.14279,2.96951 q -6.51008,0 -9.13696,-3.08372 -2.62687,-3.19794 -2.62687,-7.76641 0,-5.02533 2.28424,-10.73593 2.39845,-5.7106 5.59639,-9.93645 3.31214,-4.45426 7.30956,-6.85272 3.99742,-2.51266 8.10906,-2.51266 4.34005,0 6.39587,2.17003 2.05581,2.17003 1.59897,5.82481 -0.22843,2.28424 -2.17003,4.56848 -1.94161,2.17003 -3.88321,2.17003 -0.9137,0 -1.59897,-0.68527 0.9137,-1.14212 1.94161,-2.74109 1.0279,-1.59897 1.48475,-3.08373 0.45685,-1.37054 0.45685,-2.74108 0,-2.8553 -2.74109,-2.8553 -3.08372,0 -6.51008,3.19793 -3.31215,3.08373 -5.82481,6.73851 -1.02791,1.37054 -2.51267,4.34006 -1.37054,2.8553 -2.51266,6.39587 -1.14212,3.42636 -1.14212,6.73851 0,3.42636 1.48475,6.16744 1.59897,2.62688 5.25376,2.62688 5.02532,0 8.5659,-3.08373 3.65478,-3.19793 6.39587,-7.88062 2.8553,-4.68269 5.13954,-9.13696 0.68527,-1.37055 1.37054,-1.37055 0.57106,0 0.57106,0.9137 0,0.45685 -0.34263,1.14212 -2.74109,5.93902 -5.59639,10.85014 -2.8553,4.91111 -6.96693,7.76641 -3.99742,2.8553 -10.3933,2.8553 z m 30.40696,0 q -6.51009,0 -9.13696,-3.08372 -2.62688,-3.19794 -2.62688,-7.76641 0,-5.02533 2.28424,-10.73593 2.39845,-5.7106 5.59639,-9.93645 3.31215,-4.45426 7.30957,-6.85272 3.99742,-2.51266 8.10905,-2.51266 4.34005,0 6.39587,2.17003 2.05582,2.17003 1.59897,5.82481 -0.22843,2.28424 -2.17003,4.56848 -1.9416,2.17003 -3.88321,2.17003 -0.91369,0 -1.59897,-0.68527 0.9137,-1.14212 1.94161,-2.74109 1.02791,-1.59897 1.48475,-3.08373 0.45685,-1.37054 0.45685,-2.74108 0,-2.8553 -2.74109,-2.8553 -3.08372,0 -6.51008,3.19793 -3.31215,3.08373 -5.82481,6.73851 -1.02791,1.37054 -2.51267,4.34006 -1.37054,2.8553 -2.51266,6.39587 -1.14212,3.42636 -1.14212,6.73851 0,3.42636 1.48476,6.16744 1.59896,2.62688 5.25375,2.62688 5.02533,0 8.5659,-3.08373 3.65478,-3.19793 6.39587,-7.88062 2.8553,-4.68269 5.13954,-9.13696 0.68527,-1.37055 1.37054,-1.37055 0.57106,0 0.57106,0.9137 0,0.45685 -0.34263,1.14212 -2.74109,5.93902 -5.59639,10.85014 -2.8553,4.91111 -6.96693,7.76641 -3.99742,2.8553 -10.39329,2.8553 z m 33.7191,-46.82691 q -1.71318,0 -2.8553,-1.14212 -1.02791,-1.25634 -1.02791,-2.96952 0,-2.17002 1.71318,-3.76899 1.71318,-1.59897 3.76899,-1.59897 1.8274,0 2.96952,1.14212 1.14212,1.14212 1.14212,2.74109 0,2.17003 -1.71318,3.88321 -1.71318,1.71318 -3.99742,1.71318 z m -9.25118,46.37007 q -4.22584,0 -5.93902,-2.39846 -1.71318,-2.51266 -1.71318,-5.71059 0,-1.71318 0.34264,-3.42636 0.45684,-1.8274 1.0279,-3.31215 l 7.65221,-19.53025 q 0.34263,-0.9137 0.34263,-1.59897 0,-1.14212 -0.57106,-1.94161 -0.57106,-0.91369 -0.79948,-1.25633 l 6.28166,-0.22842 q 1.71318,-0.11421 2.39845,0.45685 0.79949,0.45684 0.79949,1.14212 0,0.68527 -0.79949,2.51266 l -9.47959,22.27134 q 0,0 -0.68528,1.48476 -0.57106,1.37054 -0.68527,1.82739 -0.34263,1.71318 -0.45685,2.17003 -0.11421,0.45684 -0.11421,0.57106 0,0.11421 0,0.91369 0,1.48476 0.68527,2.51266 0.79949,1.02791 2.62688,1.02791 1.14212,0 2.62688,-0.68527 1.48475,-0.68527 2.17002,-1.37054 2.8553,-2.96951 5.59639,-7.76642 2.8553,-4.91111 5.25375,-9.70802 0.45685,-1.14212 1.14212,-1.14212 0.57106,0 0.57106,0.79949 0,0.45684 -0.34263,1.37054 -1.14212,2.39845 -2.8553,5.93902 -1.71318,3.54058 -4.11163,7.08115 -2.28424,3.42636 -5.02533,5.7106 -2.74109,2.28424 -5.93903,2.28424 z"
           id="text25"
           style="font-size:114.212px;line-height:113.22%;font-family:'Great Vibes';-inkscape-font-specification:'Great Vibes, Normal';letter-spacing:0.597645px;fill:#ffa500;stroke-width:0.0877023;stroke-linecap:round"
           aria-label="Gaspare Tocci" /></g></g></g></svg>
