<?xml version="1.0" encoding="UTF-8" standalone="no"?>
<!-- Created with Inkscape (http://www.inkscape.org/) -->

<svg
   width="650"
   height="300"
   viewBox="0 0 171.97915 79.375"
   version="1.1"
   id="svg1"
   inkscape:version="1.3.1 (91b66b0783, 2023-11-16)"
   sodipodi:docname="bg-home.svg"
   xmlns:inkscape="http://www.inkscape.org/namespaces/inkscape"
   xmlns:sodipodi="http://sodipodi.sourceforge.net/DTD/sodipodi-0.dtd"
   xmlns:xlink="http://www.w3.org/1999/xlink"
   xmlns="http://www.w3.org/2000/svg"
   xmlns:svg="http://www.w3.org/2000/svg">
  <sodipodi:namedview
     id="namedview1"
     pagecolor="#505050"
     bordercolor="#eeeeee"
     borderopacity="1"
     inkscape:showpageshadow="0"
     inkscape:pageopacity="0"
     inkscape:pagecheckerboard="0"
     inkscape:deskcolor="#505050"
     inkscape:document-units="mm"
     inkscape:zoom="0.51780096"
     inkscape:cx="897.06284"
     inkscape:cy="639.24177"
     inkscape:window-width="1920"
     inkscape:window-height="1017"
     inkscape:window-x="1912"
     inkscape:window-y="-8"
     inkscape:window-maximized="1"
     inkscape:current-layer="layer1" />
  <defs
     id="defs1">
    <inkscape:path-effect
       effect="bend_path"
       id="path-effect2"
       is_visible="true"
       lpeversion="1"
       bendpath="M 387.97057,508.34378 H 548.57682"
       prop_scale="1"
       scale_y_rel="false"
       vertical="false"
       hide_knot="false" />
    <inkscape:path-effect
       effect="perspective-envelope"
       up_left_point="386.52229,496.33362"
       up_right_point="548.57682,496.33362"
       down_left_point="386.52229,520.35393"
       down_right_point="548.57682,520.35393"
       id="path-effect1"
       is_visible="true"
       lpeversion="1"
       deform_type="perspective"
       horizontal_mirror="false"
       vertical_mirror="false"
       overflow_perspective="false" />
    <linearGradient
       id="linearGradient18"
       inkscape:collect="always">
      <stop
         style="stop-color:#000000;stop-opacity:0.16666667"
         offset="0.73652422"
         id="stop19" />
      <stop
         style="stop-color:#ffffff;stop-opacity:1;"
         offset="0.95476657"
         id="stop18" />
    </linearGradient>
    <rect
       x="241.4055"
       y="36.693638"
       width="1311.3147"
       height="816.9162"
       id="rect106" />
    <rect
       x="554.43188"
       y="223.9577"
       width="813.89502"
       height="355.0549"
       id="rect83" />
    <linearGradient
       id="linearGradient3"
       inkscape:collect="always">
      <stop
         style="stop-color:#fcfcfc;stop-opacity:0.88541669;"
         offset="0.45890194"
         id="stop9" />
      <stop
         style="stop-color:#f7f7f7;stop-opacity:0;"
         offset="0.31020808"
         id="stop71" />
      <stop
         style="stop-color:#c3c3c3;stop-opacity:1;"
         offset="0.45890194"
         id="stop70" />
      <stop
         style="stop-color:#656565;stop-opacity:1;"
         offset="0.50228059"
         id="stop69" />
      <stop
         style="stop-color:#2c2c2c;stop-opacity:1;"
         offset="0.57123506"
         id="stop68" />
      <stop
         style="stop-color:#d8d8d8;stop-opacity:1;"
         offset="0.66802508"
         id="stop75" />
      <stop
         style="stop-color:#e9e9e9;stop-opacity:1;"
         offset="0.66802508"
         id="stop76" />
      <stop
         style="stop-color:#000000;stop-opacity:1;"
         offset="0.95476657"
         id="stop5" />
    </linearGradient>
    <rect
       x="158.4091"
       y="508.00162"
       width="391.92596"
       height="248.53842"
       id="rect2" />
    <rect
       x="15.021553"
       y="473.86172"
       width="716.93774"
       height="222.5921"
       id="rect1" />
    <linearGradient
       inkscape:collect="always"
       xlink:href="#linearGradient3"
       id="linearGradient4-7"
       x1="450.02621"
       y1="469.31384"
       x2="450.72052"
       y2="545.39636"
       gradientUnits="userSpaceOnUse" />
    <rect
       x="158.4091"
       y="508.00162"
       width="391.92596"
       height="248.53842"
       id="rect2-7" />
    <linearGradient
       inkscape:collect="always"
       xlink:href="#linearGradient18"
       id="linearGradient4-7-7"
       x1="449.47318"
       y1="449.77325"
       x2="449.98315"
       y2="511.84552"
       gradientUnits="userSpaceOnUse" />
    <rect
       x="158.4091"
       y="508.00162"
       width="391.92596"
       height="248.53842"
       id="rect2-7-8" />
  </defs>
  <g
     inkscape:label="Livello 1"
     inkscape:groupmode="layer"
     id="layer1"
     style="display:inline">
    <rect
       style="fill:none;fill-rule:evenodd;stroke:#000000;stroke-width:0.517001;stroke-linecap:round;stroke-linejoin:round;stroke-dasharray:none;paint-order:markers stroke fill"
       id="rect76"
       width="507.28467"
       height="286.16055"
       x="-9.3508587"
       y="-119.26244" />
    <text
       xml:space="preserve"
       transform="scale(0.26458333)"
       id="text1"
       style="font-size:53.3333px;line-height:0.416667%;font-family:'Great Vibes';-inkscape-font-specification:'Great Vibes';text-align:end;white-space:pre;shape-inside:url(#rect1);display:inline;fill:#ffffff;fill-rule:evenodd;stroke:#000000;stroke-width:4.6;stroke-linecap:square;paint-order:stroke markers fill" />
    <g
       id="g2"
       transform="translate(-3.5768249,-210.01072)">
      <path
         style="font-size:25.9186px;line-height:0.416667%;font-family:Arial;-inkscape-font-specification:Arial;text-align:end;white-space:pre;fill:url(#linearGradient4-7);fill-rule:evenodd;stroke:#000000;stroke-width:1.95402;stroke-linecap:round;stroke-linejoin:round;paint-order:markers stroke fill"
         d="m 395.82413,507.92617 v -2.17676 l 7.8591,-0.0127 v 6.88462 q -1.80974,1.44274 -3.73339,2.17676 -1.92364,0.72137 -3.94854,0.72137 -2.7336,0 -4.97363,-1.16431 -2.22738,-1.17697 -3.36638,-3.3917 -1.139,-2.21472 -1.139,-4.94832 0,-2.70829 1.12634,-5.04957 1.139,-2.35394 3.26514,-3.49294 2.12613,-1.139 4.8977,-1.139 2.01224,0 3.63215,0.65809 1.63257,0.64543 2.55642,1.80974 0.92386,1.16432 1.40477,3.03734 l -2.21472,0.60747 q -0.41764,-1.41743 -1.03776,-2.22738 -0.62012,-0.80996 -1.77178,-1.29087 -1.15166,-0.49357 -2.55642,-0.49357 -1.68319,0 -2.91078,0.51888 -1.22759,0.50622 -1.98693,1.34149 -0.74668,0.83527 -1.16431,1.83506 -0.70871,1.72116 -0.70871,3.73339 0,2.48049 0.84792,4.15103 0.86058,1.67053 2.49315,2.48049 1.63257,0.80995 3.46762,0.80995 1.5946,0 3.11327,-0.60746 1.51867,-0.62013 2.30332,-1.31618 v -3.45497 z m 19.95782,5.61907 q -1.26555,1.07572 -2.44252,1.51867 -1.16431,0.44294 -2.5058,0.44294 -2.21473,0 -3.40435,-1.07572 -1.18962,-1.08838 -1.18962,-2.77157 0,-0.98713 0.44294,-1.79709 0.4556,-0.82261 1.17697,-1.31618 0.73402,-0.49357 1.64522,-0.74668 0.67075,-0.17718 2.02489,-0.3417 2.75892,-0.32904 4.06244,-0.78464 0.0127,-0.46826 0.0127,-0.59481 0,-1.39212 -0.64544,-1.96162 -0.87323,-0.77199 -2.59439,-0.77199 -1.60726,0 -2.37925,0.5695 -0.75933,0.55685 -1.12634,1.98693 l -2.22738,-0.30374 q 0.30373,-1.43008 0.99979,-2.30331 0.69606,-0.88589 2.01223,-1.35414 1.31618,-0.48092 3.05,-0.48092 1.72115,0 2.79688,0.40498 1.07572,0.40498 1.58194,1.0251 0.50622,0.60747 0.70871,1.54398 0.1139,0.58216 0.1139,2.10083 v 3.03733 q 0,3.17655 0.13921,4.02447 0.15187,0.83527 0.58216,1.60726 h -2.37925 q -0.35435,-0.70871 -0.4556,-1.65788 z m -0.18983,-5.08754 q -1.24024,0.50622 -3.72074,0.86058 -1.40476,0.20249 -1.98692,0.4556 -0.58216,0.25311 -0.89855,0.74668 -0.31638,0.48091 -0.31638,1.07572 0,0.9112 0.6834,1.51867 0.69605,0.60747 2.02489,0.60747 1.31618,0 2.34128,-0.5695 1.0251,-0.58216 1.50601,-1.58195 0.36701,-0.77199 0.36701,-2.278 z m 4.92301,2.7336 2.25269,-0.35435 q 0.18984,1.35414 1.05042,2.07551 0.87323,0.72137 2.42987,0.72137 1.56929,0 2.32862,-0.63278 0.75933,-0.64543 0.75933,-1.50601 0,-0.77199 -0.67074,-1.21494 -0.46826,-0.30373 -2.32863,-0.77199 -2.5058,-0.63277 -3.48028,-1.08837 -0.96182,-0.46826 -1.46804,-1.27822 -0.49357,-0.82261 -0.49357,-1.80974 0,-0.89855 0.40498,-1.65788 0.41763,-0.77199 1.12634,-1.27821 0.53154,-0.39233 1.44274,-0.65809 0.92386,-0.27843 1.97427,-0.27843 1.58194,0 2.77157,0.4556 1.20228,0.4556 1.77178,1.24025 0.5695,0.77199 0.78464,2.07551 l -2.22738,0.30374 q -0.15187,-1.03776 -0.88589,-1.61992 -0.72137,-0.58215 -2.0502,-0.58215 -1.56929,0 -2.24004,0.51888 -0.67074,0.51887 -0.67074,1.21493 0,0.44294 0.27842,0.7973 0.27842,0.36701 0.87324,0.60747 0.3417,0.12655 2.01223,0.58215 2.41721,0.64544 3.36638,1.06307 0.96182,0.40498 1.50601,1.18962 0.54419,0.78465 0.54419,1.94896 0,1.139 -0.67074,2.15145 -0.65809,0.99979 -1.91099,1.55663 -1.2529,0.54419 -2.83485,0.54419 -2.6197,0 -3.99916,-1.08838 -1.3668,-1.08837 -1.74647,-3.22717 z m 13.87051,9.16263 v -18.59102 h 2.07551 v 1.74647 q 0.73402,-1.02511 1.65788,-1.53133 0.92385,-0.51888 2.24003,-0.51888 1.72116,0 3.03734,0.88589 1.31618,0.88589 1.98692,2.50581 0.67075,1.60725 0.67075,3.5309 0,2.06286 -0.74668,3.72074 -0.73402,1.64522 -2.15145,2.53111 -1.40476,0.87323 -2.9614,0.87323 -1.139,0 -2.0502,-0.48091 -0.89855,-0.48091 -1.4807,-1.21493 v 6.54292 z m 2.06285,-11.79498 q 0,2.59439 1.05042,3.83463 1.05041,1.24025 2.54376,1.24025 1.51867,0 2.5944,-1.27821 1.08837,-1.29087 1.08837,-3.98651 0,-2.56908 -1.06306,-3.84729 -1.05042,-1.27821 -2.51846,-1.27821 -1.45539,0 -2.58174,1.3668 -1.11369,1.35415 -1.11369,3.94854 z m 21.12215,4.98629 q -1.26556,1.07572 -2.44253,1.51867 -1.16431,0.44294 -2.5058,0.44294 -2.21473,0 -3.40435,-1.07572 -1.18962,-1.08838 -1.18962,-2.77157 0,-0.98713 0.44294,-1.79709 0.4556,-0.82261 1.17697,-1.31618 0.73402,-0.49357 1.64522,-0.74668 0.67075,-0.17718 2.02489,-0.3417 2.75892,-0.32904 4.06244,-0.78464 0.0127,-0.46826 0.0127,-0.59481 0,-1.39212 -0.64544,-1.96162 -0.87323,-0.77199 -2.59439,-0.77199 -1.60725,0 -2.37924,0.5695 -0.75934,0.55685 -1.12635,1.98693 l -2.22738,-0.30374 q 0.30373,-1.43008 0.99979,-2.30331 0.69606,-0.88589 2.01224,-1.35414 1.31617,-0.48092 3.04999,-0.48092 1.72115,0 2.79688,0.40498 1.07572,0.40498 1.58194,1.0251 0.50623,0.60747 0.70871,1.54398 0.1139,0.58216 0.1139,2.10083 v 3.03733 q 0,3.17655 0.13922,4.02447 0.15186,0.83527 0.58215,1.60726 h -2.37924 q -0.35436,-0.70871 -0.4556,-1.65788 z m -0.18984,-5.08754 q -1.24024,0.50622 -3.72073,0.86058 -1.40477,0.20249 -1.98693,0.4556 -0.58215,0.25311 -0.89854,0.74668 -0.31639,0.48091 -0.31639,1.07572 0,0.9112 0.6834,1.51867 0.69605,0.60747 2.02489,0.60747 1.31618,0 2.34128,-0.5695 1.0251,-0.58216 1.50601,-1.58195 0.36701,-0.77199 0.36701,-2.278 z m 5.8089,6.74542 v -13.44021 h 2.05021 v 2.03754 q 0.78464,-1.43008 1.44273,-1.88568 0.67075,-0.4556 1.46805,-0.4556 1.15165,0 2.34128,0.73403 l -0.78465,2.11348 q -0.83527,-0.49357 -1.67053,-0.49357 -0.74668,0 -1.34149,0.4556 -0.59482,0.44294 -0.84793,1.24024 -0.37966,1.21494 -0.37966,2.65767 v 7.0365 z m 17.85701,-4.3282 2.35393,0.29107 q -0.55684,2.06286 -2.06285,3.20186 -1.50602,1.139 -3.8473,1.139 -2.94874,0 -4.68256,-1.80974 -1.72115,-1.82241 -1.72115,-5.1002 0,-3.39169 1.74647,-5.26471 1.74646,-1.87303 4.53069,-1.87303 2.69563,0 4.40414,1.83506 1.7085,1.83506 1.7085,5.16347 0,0.20249 -0.0127,0.60747 h -10.02321 q 0.12656,2.21472 1.2529,3.39169 1.12635,1.17697 2.80954,1.17697 1.2529,0 2.13879,-0.65809 0.88589,-0.65809 1.40477,-2.10082 z m -7.47944,-3.68277 h 7.50475 q -0.15187,-1.69585 -0.86058,-2.54377 -1.08838,-1.31618 -2.82219,-1.31618 -1.56929,0 -2.64501,1.05041 -1.06307,1.05041 -1.17697,2.80954 z m 24.4379,8.01097 v -16.36365 h -6.11264 v -2.18941 h 14.70577 v 2.18941 h -6.13795 v 16.36365 z m 7.09977,-6.72011 q 0,-3.73339 2.07551,-5.53048 1.73381,-1.49336 4.22696,-1.49336 2.77157,0 4.53069,1.82241 1.75913,1.80974 1.75913,5.0116 0,2.59439 -0.78465,4.08775 -0.77199,1.4807 -2.26534,2.30331 -1.4807,0.82261 -3.23983,0.82261 -2.82219,0 -4.56866,-1.80974 -1.73381,-1.80975 -1.73381,-5.2141 z m 2.34128,0 q 0,2.58174 1.12634,3.87261 1.12635,1.27821 2.83485,1.27821 1.69585,0 2.82219,-1.29087 1.12635,-1.29087 1.12635,-3.93588 0,-2.49315 -1.139,-3.77136 -1.12635,-1.29087 -2.80954,-1.29087 -1.7085,0 -2.83485,1.27822 -1.12634,1.27821 -1.12634,3.85994 z m 21.69164,1.79709 2.24003,0.29108 q -0.36701,2.31597 -1.88568,3.63215 -1.50601,1.30352 -3.70808,1.30352 -2.75891,0 -4.4421,-1.79709 -1.67054,-1.80974 -1.67054,-5.17612 0,-2.17676 0.72137,-3.80933 0.72137,-1.63257 2.18941,-2.44252 1.48071,-0.82262 3.21452,-0.82262 2.18941,0 3.58152,1.11369 1.39212,1.10104 1.78444,3.13858 l -2.21473,0.3417 q -0.31638,-1.35414 -1.12634,-2.03754 -0.7973,-0.6834 -1.9363,-0.6834 -1.72116,0 -2.79688,1.24024 -1.07573,1.22759 -1.07573,3.89792 0,2.70829 1.03776,3.93588 1.03776,1.22759 2.70829,1.22759 1.34149,0 2.24004,-0.82261 0.89854,-0.82262 1.139,-2.53112 z m 12.9593,0 2.24004,0.29108 q -0.36701,2.31597 -1.88568,3.63215 -1.50601,1.30352 -3.70808,1.30352 -2.75892,0 -4.44211,-1.79709 -1.67053,-1.80974 -1.67053,-5.17612 0,-2.17676 0.72137,-3.80933 0.72136,-1.63257 2.18941,-2.44252 1.4807,-0.82262 3.21451,-0.82262 2.18942,0 3.58153,1.11369 1.39211,1.10104 1.78443,3.13858 l -2.21472,0.3417 q -0.31639,-1.35414 -1.12635,-2.03754 -0.7973,-0.6834 -1.9363,-0.6834 -1.72116,0 -2.79688,1.24024 -1.07572,1.22759 -1.07572,3.89792 0,2.70829 1.03776,3.93588 1.03775,1.22759 2.70829,1.22759 1.34149,0 2.24003,-0.82261 0.89855,-0.82262 1.139,-2.53112 z m 4.20166,-11.01034 v -2.6197 h 2.278 v 2.6197 z m 0,15.93336 v -13.44021 h 2.278 v 13.44021 z"
         id="text2-0"
         transform="matrix(0.97999247,0,0,0.97999247,-366.71251,-262.87524)"
         aria-label="Gaspare Tocci" />
      <path
         style="font-size:25.9186px;line-height:0.416667%;font-family:Arial;-inkscape-font-specification:Arial;text-align:end;white-space:pre;opacity:0.193878;fill:url(#linearGradient4-7-7);fill-rule:evenodd;stroke:#000000;stroke-width:1.95402;stroke-linecap:round;stroke-linejoin:round;paint-order:markers stroke fill"
         d="m 397.09018,507.92617 v -2.17676 l 7.78886,-0.0127 0,6.88462 c -1.19571,0.96183 -2.42905,1.68741 -3.70003,2.17676 -1.27096,0.48091 -2.57538,0.72137 -3.91325,0.72137 -1.80611,0 -3.44917,-0.3881 -4.92918,-1.16431 -1.47165,-0.78465 -2.58375,-1.91521 -3.33629,-3.3917 -0.75255,-1.47648 -1.12882,-3.12592 -1.12882,-4.94832 0,-1.80553 0.37209,-3.48872 1.11627,-5.04957 0.75255,-1.56929 1.8312,-2.73361 3.23596,-3.49294 1.40475,-0.75933 3.02273,-1.139 4.85393,-1.139 1.3295,0 2.5294,0.21936 3.59969,0.65809 1.07865,0.43029 1.92318,1.03353 2.53357,1.80974 0.6104,0.77621 1.07448,1.78866 1.39222,3.03734 l -2.19493,0.60747 c -0.27594,-0.94495 -0.61877,-1.68741 -1.02849,-2.22738 -0.40971,-0.53997 -0.99503,-0.97026 -1.75594,-1.29087 -0.76091,-0.32905 -1.60544,-0.49357 -2.53357,-0.49357 -1.1121,0 -2.07369,0.17296 -2.88477,0.51888 -0.81108,0.33748 -1.46747,0.78464 -1.96917,1.34149 -0.49334,0.55685 -0.87798,1.16853 -1.15391,1.83506 -0.46825,1.14744 -0.70237,2.3919 -0.70237,3.73339 0,1.65366 0.28011,3.03734 0.84034,4.15103 0.56859,1.11369 1.39221,1.94052 2.47087,2.48049 1.07865,0.53997 2.22419,0.80995 3.43663,0.80995 1.05356,0 2.08204,-0.20249 3.08544,-0.60746 1.0034,-0.41342 1.76431,-0.85215 2.28274,-1.31618 v -3.45497 z m 19.77945,5.61907 c -0.83616,0.71715 -1.64305,1.22337 -2.42069,1.51867 -0.76927,0.29529 -1.59707,0.44294 -2.4834,0.44294 -1.4633,0 -2.58794,-0.35857 -3.37393,-1.07572 -0.78599,-0.72559 -1.17899,-1.64944 -1.17899,-2.77157 0,-0.65809 0.14633,-1.25712 0.43898,-1.79709 0.30102,-0.54841 0.68984,-0.98713 1.16645,-1.31618 0.48498,-0.32905 1.02848,-0.57794 1.63052,-0.74668 0.44317,-0.11812 1.1121,-0.23202 2.00679,-0.3417 1.82285,-0.21936 3.16489,-0.48091 4.02614,-0.78464 0.008,-0.31217 0.0126,-0.51044 0.0126,-0.59481 0,-0.92808 -0.21323,-1.58195 -0.63968,-1.96162 -0.57695,-0.51466 -1.43401,-0.77199 -2.5712,-0.77199 -1.06193,0 -1.84793,0.18983 -2.35799,0.5695 -0.50169,0.37123 -0.87378,1.03354 -1.11627,1.98693 l -2.20747,-0.30374 c 0.20067,-0.95339 0.53096,-1.72116 0.99085,-2.30331 0.45989,-0.59059 1.12464,-1.04197 1.99425,-1.35414 0.86961,-0.32061 1.87719,-0.48092 3.02274,-0.48092 1.13718,0 2.06114,0.13499 2.77188,0.40498 0.71074,0.26999 1.23334,0.61169 1.56781,1.0251 0.33446,0.40498 0.56858,0.91964 0.70237,1.54398 0.0753,0.38811 0.11288,1.08838 0.11288,2.10083 l 0,3.03733 c 0,2.1177 0.046,3.45919 0.13797,4.02447 0.10034,0.55685 0.29266,1.0926 0.57696,1.60726 l -2.35799,0 c -0.23412,-0.47247 -0.38463,-1.0251 -0.45153,-1.65788 z m -0.18813,-5.08754 c -0.81944,0.33748 -2.0486,0.62434 -3.68749,0.86058 -0.92814,0.13499 -1.58452,0.28686 -1.96916,0.4556 -0.38464,0.16874 -0.68148,0.41763 -0.89052,0.74668 -0.20904,0.32061 -0.31355,0.67918 -0.31355,1.07572 0,0.60747 0.22576,1.11369 0.67729,1.51867 0.45988,0.40498 1.12882,0.60747 2.00679,0.60747 0.86961,0 1.64307,-0.18983 2.32036,-0.5695 0.67729,-0.38811 1.17481,-0.91542 1.49255,-1.58195 0.24249,-0.51466 0.36373,-1.27399 0.36373,-2.278 z m 4.87901,2.7336 2.23256,-0.35435 c 0.12543,0.90276 0.47244,1.5946 1.04103,2.07551 0.57695,0.48091 1.37967,0.72137 2.40816,0.72137 1.03684,0 1.80611,-0.21093 2.30781,-0.63278 0.50169,-0.43029 0.75254,-0.93229 0.75254,-1.50601 0,-0.51466 -0.22158,-0.91964 -0.66475,-1.21494 -0.30938,-0.20249 -1.07865,-0.45982 -2.30782,-0.77199 -1.6556,-0.42185 -2.80532,-0.78464 -3.44917,-1.08837 -0.63548,-0.31217 -1.12046,-0.73825 -1.45492,-1.27822 -0.32611,-0.54841 -0.48916,-1.15165 -0.48916,-1.80974 0,-0.59903 0.13379,-1.15166 0.40136,-1.65788 0.27593,-0.51466 0.64802,-0.94073 1.11627,-1.27821 0.3512,-0.26155 0.82781,-0.48092 1.42985,-0.65809 0.6104,-0.18562 1.26261,-0.27843 1.95663,-0.27843 1.0452,0 1.9608,0.15187 2.7468,0.4556 0.79435,0.30373 1.37967,0.71715 1.75594,1.24025 0.37628,0.51466 0.63548,1.2065 0.77763,2.07551 l -2.20747,0.30374 c -0.10035,-0.69184 -0.393,-1.23181 -0.87798,-1.61992 -0.47661,-0.3881 -1.15391,-0.58215 -2.03187,-0.58215 -1.03685,0 -1.77686,0.17296 -2.22003,0.51888 -0.44316,0.34591 -0.66474,0.75089 -0.66474,1.21493 0,0.29529 0.092,0.56106 0.27593,0.7973 0.18396,0.24467 0.47243,0.44716 0.86544,0.60747 0.22576,0.0844 0.89051,0.27842 1.99424,0.58215 1.59707,0.43029 2.70917,0.78465 3.3363,1.06307 0.63548,0.26999 1.133,0.66653 1.49255,1.18962 0.35955,0.5231 0.53933,1.17275 0.53933,1.94896 0,0.75933 -0.22159,1.47648 -0.66475,2.15145 -0.43481,0.66653 -1.06611,1.1854 -1.89391,1.55663 -0.8278,0.36279 -1.76431,0.54419 -2.80952,0.54419 -1.73086,0 -3.052,-0.36279 -3.96342,-1.08838 -0.90305,-0.72558 -1.48001,-1.8013 -1.73086,-3.22717 z m 13.74655,9.16263 0,-18.59102 2.05696,0 v 1.74647 c 0.48498,-0.68341 1.03266,-1.19385 1.64307,-1.53133 0.61039,-0.34592 1.3504,-0.51888 2.22001,-0.51888 1.13718,0 2.14058,0.2953 3.01019,0.88589 0.86961,0.59059 1.526,1.42586 1.96916,2.50581 0.44318,1.0715 0.66476,2.24847 0.66476,3.5309 0,1.37524 -0.24667,2.61549 -0.74001,3.72074 -0.48497,1.09681 -1.19571,1.94052 -2.13222,2.53111 -0.92814,0.58215 -1.90645,0.87323 -2.93493,0.87323 -0.75255,0 -1.42984,-0.1603 -2.03188,-0.48091 -0.59368,-0.32061 -1.08284,-0.72558 -1.46747,-1.21493 v 6.54292 z m 2.04442,-11.79498 c 0,1.72959 0.34701,3.0078 1.04103,3.83463 0.69401,0.82683 1.53435,1.24025 2.52102,1.24025 1.0034,0 1.86047,-0.42607 2.57122,-1.27821 0.71909,-0.86058 1.07864,-2.18942 1.07864,-3.98651 0,-1.71272 -0.35119,-2.99515 -1.05356,-3.84729 -0.69402,-0.85214 -1.526,-1.27821 -2.49595,-1.27821 -0.96159,0 -1.81448,0.4556 -2.55867,1.3668 -0.73582,0.90277 -1.10373,2.21895 -1.10373,3.94854 z m 20.93338,4.98629 c -0.83617,0.71715 -1.64307,1.22337 -2.4207,1.51867 -0.76927,0.29529 -1.59708,0.44294 -2.48341,0.44294 -1.46329,0 -2.58793,-0.35857 -3.37393,-1.07572 -0.78599,-0.72559 -1.17898,-1.64944 -1.17898,-2.77157 0,-0.65809 0.14632,-1.25712 0.43898,-1.79709 0.30102,-0.54841 0.68983,-0.98713 1.16645,-1.31618 0.48497,-0.32905 1.02848,-0.57794 1.63052,-0.74668 0.44317,-0.11812 1.1121,-0.23202 2.00679,-0.3417 1.82284,-0.21936 3.16489,-0.48091 4.02613,-0.78464 0.008,-0.31217 0.0126,-0.51044 0.0126,-0.59481 0,-0.92808 -0.21322,-1.58195 -0.63967,-1.96162 -0.57695,-0.51466 -1.43402,-0.77199 -2.57121,-0.77199 -1.06192,0 -1.84791,0.18983 -2.35797,0.5695 -0.50171,0.37123 -0.8738,1.03354 -1.11629,1.98693 l -2.20747,-0.30374 c 0.20068,-0.95339 0.53096,-1.72116 0.99085,-2.30331 0.4599,-0.59059 1.12465,-1.04197 1.99426,-1.35414 0.86961,-0.32061 1.87718,-0.48092 3.02273,-0.48092 1.13718,0 2.06114,0.13499 2.77189,0.40498 0.71074,0.26999 1.23334,0.61169 1.5678,1.0251 0.33447,0.40498 0.5686,0.91964 0.70238,1.54398 0.0753,0.38811 0.11288,1.08838 0.11288,2.10083 l 0,3.03733 c 0,2.1177 0.046,3.45919 0.13797,4.02447 0.10034,0.55685 0.29265,1.0926 0.57695,1.60726 h -2.35798 c -0.23412,-0.47247 -0.38463,-1.0251 -0.45152,-1.65788 z m -0.18815,-5.08754 c -0.81943,0.33748 -2.04859,0.62434 -3.68747,0.86058 -0.92815,0.13499 -1.58454,0.28686 -1.96918,0.4556 -0.38463,0.16874 -0.68147,0.41763 -0.89051,0.74668 -0.20904,0.32061 -0.31356,0.67918 -0.31356,1.07572 0,0.60747 0.22576,1.11369 0.67729,1.51867 0.45989,0.40498 1.12882,0.60747 2.0068,0.60747 0.86961,0 1.64306,-0.18983 2.32035,-0.5695 0.67729,-0.38811 1.17481,-0.91542 1.49255,-1.58195 0.24249,-0.51466 0.36373,-1.27399 0.36373,-2.278 z m 5.75699,6.74542 0,-13.44021 2.03189,0 0,2.03754 c 0.51841,-0.95339 0.99503,-1.58195 1.42983,-1.88568 0.44317,-0.30373 0.92815,-0.4556 1.45493,-0.4556 0.76091,0 1.53436,0.24468 2.32036,0.73403 l -0.77764,2.11348 c -0.55187,-0.32905 -1.10374,-0.49357 -1.6556,-0.49357 -0.49334,0 -0.9365,0.15187 -1.3295,0.4556 -0.393,0.29529 -0.67312,0.70871 -0.84035,1.24024 -0.25085,0.80996 -0.37627,1.69585 -0.37627,2.65767 l 0,7.0365 z m 17.69742,-4.3282 2.33289,0.29107 c -0.36791,1.37524 -1.04938,2.44253 -2.04441,3.20186 -0.99504,0.75933 -2.26601,1.139 -3.81292,1.139 -1.94826,0 -3.49516,-0.60325 -4.64071,-1.80974 -1.13718,-1.21494 -1.70577,-2.91501 -1.70577,-5.1002 0,-2.26113 0.57696,-4.01603 1.73086,-5.26471 1.15391,-1.24869 2.65064,-1.87303 4.4902,-1.87303 1.78103,0 3.23596,0.61169 4.36478,1.83506 1.12882,1.22337 1.69324,2.94453 1.69324,5.16347 0,0.13499 -0.004,0.33748 -0.0126,0.60747 l -9.93363,0 c 0.0836,1.47648 0.49752,2.60704 1.2417,3.39169 0.74419,0.78465 1.67233,1.17697 2.78443,1.17697 0.8278,0 1.53436,-0.21936 2.11968,-0.65809 0.58531,-0.43873 1.04938,-1.139 1.39221,-2.10082 z m -7.4126,-3.68277 7.43768,0 c -0.10034,-1.13057 -0.38463,-1.97849 -0.85288,-2.54377 -0.71911,-0.87745 -1.65143,-1.31618 -2.79697,-1.31618 -1.03685,0 -1.91064,0.35014 -2.62137,1.05041 -0.70238,0.70027 -1.0912,1.63679 -1.16646,2.80954 z m 24.2195,8.01097 0,-16.36365 -6.05801,0 v -2.18941 l 14.57435,0 v 2.18941 h -6.0831 l 0,16.36365 z m 7.03632,-6.72011 c 0,-2.48893 0.68566,-4.33242 2.05696,-5.53048 1.14555,-0.99557 2.54194,-1.49336 4.18919,-1.49336 1.8312,0 3.32793,0.60747 4.4902,1.82241 1.16227,1.20649 1.7434,2.87703 1.7434,5.0116 0,1.72959 -0.25921,3.09218 -0.77763,4.08775 -0.51006,0.98713 -1.25843,1.7549 -2.2451,2.30331 -0.97831,0.54841 -2.0486,0.82261 -3.21087,0.82261 -1.86465,0 -3.37393,-0.60325 -4.52783,-1.80974 -1.14555,-1.2065 -1.71832,-2.94453 -1.71832,-5.2141 z m 2.32036,0 c 0,1.72116 0.37209,3.01203 1.11627,3.87261 0.74419,0.85214 1.6807,1.27821 2.80952,1.27821 1.12046,0 2.05278,-0.43029 2.79697,-1.29087 0.74418,-0.86058 1.11628,-2.17254 1.11628,-3.93588 0,-1.6621 -0.37627,-2.91922 -1.12882,-3.77136 -0.74419,-0.86058 -1.67233,-1.29087 -2.78443,-1.29087 -1.12882,0 -2.06533,0.42607 -2.80952,1.27822 -0.74418,0.85214 -1.11627,2.13879 -1.11627,3.85994 z m 21.49778,1.79709 2.22001,0.29108 c -0.24249,1.54398 -0.86543,2.7547 -1.86883,3.63215 -0.99503,0.86901 -2.22001,1.30352 -3.67494,1.30352 -1.82283,0 -3.2903,-0.59903 -4.4024,-1.79709 -1.10374,-1.20649 -1.65561,-2.93187 -1.65561,-5.17612 0,-1.45117 0.23831,-2.72095 0.71492,-3.80933 0.47662,-1.08838 1.1999,-1.90255 2.16985,-2.44252 0.97832,-0.54841 2.04025,-0.82262 3.18579,-0.82262 1.44656,0 2.62973,0.37123 3.54951,1.11369 0.91979,0.73403 1.50928,1.78022 1.76849,3.13858 l -2.19493,0.3417 c -0.20904,-0.90276 -0.58113,-1.58194 -1.11628,-2.03754 -0.52678,-0.4556 -1.16645,-0.6834 -1.91899,-0.6834 -1.13719,0 -2.06115,0.41341 -2.77189,1.24024 -0.71074,0.81839 -1.06611,2.1177 -1.06611,3.89792 0,1.80553 0.34283,3.11749 1.02848,3.93588 0.68566,0.81839 1.58035,1.22759 2.68409,1.22759 0.88633,0 1.62634,-0.2742 2.22002,-0.82261 0.59367,-0.54841 0.96995,-1.39212 1.12882,-2.53112 z m 12.84348,0 2.22002,0.29108 c -0.24248,1.54398 -0.86543,2.7547 -1.86882,3.63215 -0.99504,0.86901 -2.22002,1.30352 -3.67495,1.30352 -1.82284,0 -3.29031,-0.59903 -4.40241,-1.79709 -1.10373,-1.20649 -1.6556,-2.93187 -1.6556,-5.17612 0,-1.45117 0.23831,-2.72095 0.71493,-3.80933 0.47661,-1.08838 1.19989,-1.90255 2.16984,-2.44252 0.97831,-0.54841 2.04024,-0.82262 3.18578,-0.82262 1.44657,0 2.62974,0.37123 3.54952,1.11369 0.91978,0.73403 1.50928,1.78022 1.76849,3.13858 l -2.19493,0.3417 c -0.20904,-0.90276 -0.58114,-1.58194 -1.11628,-2.03754 -0.52679,-0.4556 -1.16645,-0.6834 -1.919,-0.6834 -1.13719,0 -2.06115,0.41341 -2.77188,1.24024 -0.71074,0.81839 -1.06611,2.1177 -1.06611,3.89792 0,1.80553 0.34283,3.11749 1.02848,3.93588 0.68566,0.81839 1.58035,1.22759 2.68409,1.22759 0.88633,0 1.62634,-0.2742 2.22001,-0.82261 0.59368,-0.54841 0.96996,-1.39212 1.12882,-2.53112 z m 4.16411,-11.01034 v -2.6197 l 2.25764,0 0,2.6197 z m 0,15.93336 v -13.44021 l 2.25764,0 v 13.44021 z"
         id="text2-0-8"
         transform="matrix(0.97999247,0,0,-0.97999247,-366.85303,758.6428)"
         aria-label="Gaspare Tocci"
         inkscape:path-effect="#path-effect1;#path-effect2"
         inkscape:original-d="m 395.82413,507.92617 v -2.17676 l 7.8591,-0.0127 v 6.88462 q -1.80974,1.44274 -3.73339,2.17676 -1.92364,0.72137 -3.94854,0.72137 -2.7336,0 -4.97363,-1.16431 -2.22738,-1.17697 -3.36638,-3.3917 -1.139,-2.21472 -1.139,-4.94832 0,-2.70829 1.12634,-5.04957 1.139,-2.35394 3.26514,-3.49294 2.12613,-1.139 4.8977,-1.139 2.01224,0 3.63215,0.65809 1.63257,0.64543 2.55642,1.80974 0.92386,1.16432 1.40477,3.03734 l -2.21472,0.60747 q -0.41764,-1.41743 -1.03776,-2.22738 -0.62012,-0.80996 -1.77178,-1.29087 -1.15166,-0.49357 -2.55642,-0.49357 -1.68319,0 -2.91078,0.51888 -1.22759,0.50622 -1.98693,1.34149 -0.74668,0.83527 -1.16431,1.83506 -0.70871,1.72116 -0.70871,3.73339 0,2.48049 0.84792,4.15103 0.86058,1.67053 2.49315,2.48049 1.63257,0.80995 3.46762,0.80995 1.5946,0 3.11327,-0.60746 1.51867,-0.62013 2.30332,-1.31618 v -3.45497 z m 19.95782,5.61907 q -1.26555,1.07572 -2.44252,1.51867 -1.16431,0.44294 -2.5058,0.44294 -2.21473,0 -3.40435,-1.07572 -1.18962,-1.08838 -1.18962,-2.77157 0,-0.98713 0.44294,-1.79709 0.4556,-0.82261 1.17697,-1.31618 0.73402,-0.49357 1.64522,-0.74668 0.67075,-0.17718 2.02489,-0.3417 2.75892,-0.32904 4.06244,-0.78464 0.0127,-0.46826 0.0127,-0.59481 0,-1.39212 -0.64544,-1.96162 -0.87323,-0.77199 -2.59439,-0.77199 -1.60726,0 -2.37925,0.5695 -0.75933,0.55685 -1.12634,1.98693 l -2.22738,-0.30374 q 0.30373,-1.43008 0.99979,-2.30331 0.69606,-0.88589 2.01223,-1.35414 1.31618,-0.48092 3.05,-0.48092 1.72115,0 2.79688,0.40498 1.07572,0.40498 1.58194,1.0251 0.50622,0.60747 0.70871,1.54398 0.1139,0.58216 0.1139,2.10083 v 3.03733 q 0,3.17655 0.13921,4.02447 0.15187,0.83527 0.58216,1.60726 h -2.37925 q -0.35435,-0.70871 -0.4556,-1.65788 z m -0.18983,-5.08754 q -1.24024,0.50622 -3.72074,0.86058 -1.40476,0.20249 -1.98692,0.4556 -0.58216,0.25311 -0.89855,0.74668 -0.31638,0.48091 -0.31638,1.07572 0,0.9112 0.6834,1.51867 0.69605,0.60747 2.02489,0.60747 1.31618,0 2.34128,-0.5695 1.0251,-0.58216 1.50601,-1.58195 0.36701,-0.77199 0.36701,-2.278 z m 4.92301,2.7336 2.25269,-0.35435 q 0.18984,1.35414 1.05042,2.07551 0.87323,0.72137 2.42987,0.72137 1.56929,0 2.32862,-0.63278 0.75933,-0.64543 0.75933,-1.50601 0,-0.77199 -0.67074,-1.21494 -0.46826,-0.30373 -2.32863,-0.77199 -2.5058,-0.63277 -3.48028,-1.08837 -0.96182,-0.46826 -1.46804,-1.27822 -0.49357,-0.82261 -0.49357,-1.80974 0,-0.89855 0.40498,-1.65788 0.41763,-0.77199 1.12634,-1.27821 0.53154,-0.39233 1.44274,-0.65809 0.92386,-0.27843 1.97427,-0.27843 1.58194,0 2.77157,0.4556 1.20228,0.4556 1.77178,1.24025 0.5695,0.77199 0.78464,2.07551 l -2.22738,0.30374 q -0.15187,-1.03776 -0.88589,-1.61992 -0.72137,-0.58215 -2.0502,-0.58215 -1.56929,0 -2.24004,0.51888 -0.67074,0.51887 -0.67074,1.21493 0,0.44294 0.27842,0.7973 0.27842,0.36701 0.87324,0.60747 0.3417,0.12655 2.01223,0.58215 2.41721,0.64544 3.36638,1.06307 0.96182,0.40498 1.50601,1.18962 0.54419,0.78465 0.54419,1.94896 0,1.139 -0.67074,2.15145 -0.65809,0.99979 -1.91099,1.55663 -1.2529,0.54419 -2.83485,0.54419 -2.6197,0 -3.99916,-1.08838 -1.3668,-1.08837 -1.74647,-3.22717 z m 13.87051,9.16263 v -18.59102 h 2.07551 v 1.74647 q 0.73402,-1.02511 1.65788,-1.53133 0.92385,-0.51888 2.24003,-0.51888 1.72116,0 3.03734,0.88589 1.31618,0.88589 1.98692,2.50581 0.67075,1.60725 0.67075,3.5309 0,2.06286 -0.74668,3.72074 -0.73402,1.64522 -2.15145,2.53111 -1.40476,0.87323 -2.9614,0.87323 -1.139,0 -2.0502,-0.48091 -0.89855,-0.48091 -1.4807,-1.21493 v 6.54292 z m 2.06285,-11.79498 q 0,2.59439 1.05042,3.83463 1.05041,1.24025 2.54376,1.24025 1.51867,0 2.5944,-1.27821 1.08837,-1.29087 1.08837,-3.98651 0,-2.56908 -1.06306,-3.84729 -1.05042,-1.27821 -2.51846,-1.27821 -1.45539,0 -2.58174,1.3668 -1.11369,1.35415 -1.11369,3.94854 z m 21.12215,4.98629 q -1.26556,1.07572 -2.44253,1.51867 -1.16431,0.44294 -2.5058,0.44294 -2.21473,0 -3.40435,-1.07572 -1.18962,-1.08838 -1.18962,-2.77157 0,-0.98713 0.44294,-1.79709 0.4556,-0.82261 1.17697,-1.31618 0.73402,-0.49357 1.64522,-0.74668 0.67075,-0.17718 2.02489,-0.3417 2.75892,-0.32904 4.06244,-0.78464 0.0127,-0.46826 0.0127,-0.59481 0,-1.39212 -0.64544,-1.96162 -0.87323,-0.77199 -2.59439,-0.77199 -1.60725,0 -2.37924,0.5695 -0.75934,0.55685 -1.12635,1.98693 l -2.22738,-0.30374 q 0.30373,-1.43008 0.99979,-2.30331 0.69606,-0.88589 2.01224,-1.35414 1.31617,-0.48092 3.04999,-0.48092 1.72115,0 2.79688,0.40498 1.07572,0.40498 1.58194,1.0251 0.50623,0.60747 0.70871,1.54398 0.1139,0.58216 0.1139,2.10083 v 3.03733 q 0,3.17655 0.13922,4.02447 0.15186,0.83527 0.58215,1.60726 h -2.37924 q -0.35436,-0.70871 -0.4556,-1.65788 z m -0.18984,-5.08754 q -1.24024,0.50622 -3.72073,0.86058 -1.40477,0.20249 -1.98693,0.4556 -0.58215,0.25311 -0.89854,0.74668 -0.31639,0.48091 -0.31639,1.07572 0,0.9112 0.6834,1.51867 0.69605,0.60747 2.02489,0.60747 1.31618,0 2.34128,-0.5695 1.0251,-0.58216 1.50601,-1.58195 0.36701,-0.77199 0.36701,-2.278 z m 5.8089,6.74542 v -13.44021 h 2.05021 v 2.03754 q 0.78464,-1.43008 1.44273,-1.88568 0.67075,-0.4556 1.46805,-0.4556 1.15165,0 2.34128,0.73403 l -0.78465,2.11348 q -0.83527,-0.49357 -1.67053,-0.49357 -0.74668,0 -1.34149,0.4556 -0.59482,0.44294 -0.84793,1.24024 -0.37966,1.21494 -0.37966,2.65767 v 7.0365 z m 17.85701,-4.3282 2.35393,0.29107 q -0.55684,2.06286 -2.06285,3.20186 -1.50602,1.139 -3.8473,1.139 -2.94874,0 -4.68256,-1.80974 -1.72115,-1.82241 -1.72115,-5.1002 0,-3.39169 1.74647,-5.26471 1.74646,-1.87303 4.53069,-1.87303 2.69563,0 4.40414,1.83506 1.7085,1.83506 1.7085,5.16347 0,0.20249 -0.0127,0.60747 h -10.02321 q 0.12656,2.21472 1.2529,3.39169 1.12635,1.17697 2.80954,1.17697 1.2529,0 2.13879,-0.65809 0.88589,-0.65809 1.40477,-2.10082 z m -7.47944,-3.68277 h 7.50475 q -0.15187,-1.69585 -0.86058,-2.54377 -1.08838,-1.31618 -2.82219,-1.31618 -1.56929,0 -2.64501,1.05041 -1.06307,1.05041 -1.17697,2.80954 z m 24.4379,8.01097 v -16.36365 h -6.11264 v -2.18941 h 14.70577 v 2.18941 h -6.13795 v 16.36365 z m 7.09977,-6.72011 q 0,-3.73339 2.07551,-5.53048 1.73381,-1.49336 4.22696,-1.49336 2.77157,0 4.53069,1.82241 1.75913,1.80974 1.75913,5.0116 0,2.59439 -0.78465,4.08775 -0.77199,1.4807 -2.26534,2.30331 -1.4807,0.82261 -3.23983,0.82261 -2.82219,0 -4.56866,-1.80974 -1.73381,-1.80975 -1.73381,-5.2141 z m 2.34128,0 q 0,2.58174 1.12634,3.87261 1.12635,1.27821 2.83485,1.27821 1.69585,0 2.82219,-1.29087 1.12635,-1.29087 1.12635,-3.93588 0,-2.49315 -1.139,-3.77136 -1.12635,-1.29087 -2.80954,-1.29087 -1.7085,0 -2.83485,1.27822 -1.12634,1.27821 -1.12634,3.85994 z m 21.69164,1.79709 2.24003,0.29108 q -0.36701,2.31597 -1.88568,3.63215 -1.50601,1.30352 -3.70808,1.30352 -2.75891,0 -4.4421,-1.79709 -1.67054,-1.80974 -1.67054,-5.17612 0,-2.17676 0.72137,-3.80933 0.72137,-1.63257 2.18941,-2.44252 1.48071,-0.82262 3.21452,-0.82262 2.18941,0 3.58152,1.11369 1.39212,1.10104 1.78444,3.13858 l -2.21473,0.3417 q -0.31638,-1.35414 -1.12634,-2.03754 -0.7973,-0.6834 -1.9363,-0.6834 -1.72116,0 -2.79688,1.24024 -1.07573,1.22759 -1.07573,3.89792 0,2.70829 1.03776,3.93588 1.03776,1.22759 2.70829,1.22759 1.34149,0 2.24004,-0.82261 0.89854,-0.82262 1.139,-2.53112 z m 12.9593,0 2.24004,0.29108 q -0.36701,2.31597 -1.88568,3.63215 -1.50601,1.30352 -3.70808,1.30352 -2.75892,0 -4.44211,-1.79709 -1.67053,-1.80974 -1.67053,-5.17612 0,-2.17676 0.72137,-3.80933 0.72136,-1.63257 2.18941,-2.44252 1.4807,-0.82262 3.21451,-0.82262 2.18942,0 3.58153,1.11369 1.39211,1.10104 1.78443,3.13858 l -2.21472,0.3417 q -0.31639,-1.35414 -1.12635,-2.03754 -0.7973,-0.6834 -1.9363,-0.6834 -1.72116,0 -2.79688,1.24024 -1.07572,1.22759 -1.07572,3.89792 0,2.70829 1.03776,3.93588 1.03775,1.22759 2.70829,1.22759 1.34149,0 2.24003,-0.82261 0.89855,-0.82262 1.139,-2.53112 z m 4.20166,-11.01034 v -2.6197 h 2.278 v 2.6197 z m 0,15.93336 v -13.44021 h 2.278 v 13.44021 z" />
    </g>
    <text
       xml:space="preserve"
       transform="scale(0.26458333)"
       id="text83"
       style="font-style:normal;font-variant:normal;font-weight:normal;font-stretch:normal;font-size:53.3333px;line-height:0.416667%;font-family:'Edwardian Script ITC';-inkscape-font-specification:'Edwardian Script ITC';text-align:end;white-space:pre;shape-inside:url(#rect83);fill:#ffffff;fill-rule:evenodd;stroke:#000000;stroke-width:1.95402;stroke-linecap:round;stroke-linejoin:round;stroke-dasharray:none;paint-order:markers stroke fill" />
    <text
       xml:space="preserve"
       style="font-style:normal;font-variant:normal;font-weight:normal;font-stretch:normal;font-size:14.1111px;line-height:0.416667%;font-family:Arial;-inkscape-font-specification:Arial;text-align:end;text-anchor:end;fill:#ffffff;fill-rule:evenodd;stroke:#000000;stroke-width:0.517001;stroke-linecap:round;stroke-linejoin:round;stroke-dasharray:none;paint-order:markers stroke fill"
       x="171.9854"
       y="114.17519"
       id="text84"><tspan
         sodipodi:role="line"
         id="tspan84"
         style="font-style:normal;font-variant:normal;font-weight:normal;font-stretch:normal;font-family:Arial;-inkscape-font-specification:Arial;stroke-width:0.517"
         x="171.9854"
         y="114.17519" /></text>
    <text
       xml:space="preserve"
       style="font-style:normal;font-variant:normal;font-weight:normal;font-stretch:normal;font-size:14.1111px;line-height:0.416667%;font-family:Arial;-inkscape-font-specification:Arial;text-align:end;text-anchor:end;fill:#ffffff;fill-rule:evenodd;stroke:#000000;stroke-width:0.517001;stroke-linecap:round;stroke-linejoin:round;stroke-dasharray:none;paint-order:markers stroke fill"
       x="180.11867"
       y="111.64803"
       id="text85"><tspan
         sodipodi:role="line"
         id="tspan85"
         style="stroke-width:0.517"
         x="180.11867"
         y="111.64803" /></text>
  </g>
</svg>
