<?xml version="1.0" encoding="UTF-8" standalone="no"?>
<!-- Created with Inkscape (http://www.inkscape.org/) -->

<svg
   width="200"
   height="200"
   viewBox="0 0 52.916665 52.916667"
   version="1.1"
   id="svg1"
   xml:space="preserve"
   inkscape:version="1.3.2 (091e20e, 2023-11-25, custom)"
   sodipodi:docname="GitHub-Logo.svg"
   xmlns:inkscape="http://www.inkscape.org/namespaces/inkscape"
   xmlns:sodipodi="http://sodipodi.sourceforge.net/DTD/sodipodi-0.dtd"
   xmlns="http://www.w3.org/2000/svg"
   xmlns:svg="http://www.w3.org/2000/svg"><sodipodi:namedview
     id="namedview1"
     pagecolor="#505050"
     bordercolor="#eeeeee"
     borderopacity="1"
     inkscape:showpageshadow="0"
     inkscape:pageopacity="0"
     inkscape:pagecheckerboard="0"
     inkscape:deskcolor="#505050"
     inkscape:document-units="mm"
     inkscape:zoom="2.1089995"
     inkscape:cx="113.56095"
     inkscape:cy="129.68234"
     inkscape:window-width="1920"
     inkscape:window-height="1017"
     inkscape:window-x="1912"
     inkscape:window-y="-8"
     inkscape:window-maximized="1"
     inkscape:current-layer="g1" /><defs
     id="defs1"><filter
       inkscape:label="Button"
       inkscape:menu="Bevels"
       inkscape:menu-tooltip="Soft bevel, slightly depressed middle"
       style="color-interpolation-filters:sRGB;"
       id="filter22"
       x="-0.15156955"
       y="-0.1531241"
       width="1.3031391"
       height="1.3062482"><feGaussianBlur
         stdDeviation="2.3"
         in="SourceAlpha"
         result="result0"
         id="feGaussianBlur19" /><feMorphology
         in="SourceAlpha"
         radius="6.6"
         result="result1"
         id="feMorphology19" /><feGaussianBlur
         stdDeviation="8.9"
         in="result1"
         id="feGaussianBlur20" /><feColorMatrix
         values="1 0 0 0 0 0 1 0 0 0 0 0 1 0 0 0 0 0 0.3 0"
         result="result91"
         id="feColorMatrix20" /><feComposite
         in="result0"
         operator="out"
         result="result2"
         in2="result91"
         id="feComposite20" /><feGaussianBlur
         stdDeviation="1.7"
         result="result4"
         id="feGaussianBlur21" /><feDiffuseLighting
         surfaceScale="10"
         id="feDiffuseLighting21"><feDistantLight
           azimuth="225"
           elevation="45"
           id="feDistantLight21" /></feDiffuseLighting><feBlend
         in2="SourceGraphic"
         mode="multiply"
         id="feBlend21" /><feComposite
         in2="SourceAlpha"
         operator="in"
         result="result3"
         id="feComposite21" /><feSpecularLighting
         in="result4"
         surfaceScale="5"
         specularExponent="17.9"
         id="feSpecularLighting22"><feDistantLight
           azimuth="225"
           elevation="45"
           id="feDistantLight22" /></feSpecularLighting><feComposite
         in2="result3"
         operator="atop"
         id="feComposite22" /></filter><filter
       inkscape:label="Button"
       inkscape:menu="Bevels"
       inkscape:menu-tooltip="Soft bevel, slightly depressed middle"
       style="color-interpolation-filters:sRGB;"
       id="filter25"
       x="-0.17603122"
       y="-0.17025972"
       width="1.3520624"
       height="1.3405194"><feGaussianBlur
         stdDeviation="2.3"
         in="SourceAlpha"
         result="result0"
         id="feGaussianBlur22" /><feMorphology
         in="SourceAlpha"
         radius="6.6"
         result="result1"
         id="feMorphology22" /><feGaussianBlur
         stdDeviation="8.9"
         in="result1"
         id="feGaussianBlur23" /><feColorMatrix
         values="1 0 0 0 0 0 1 0 0 0 0 0 1 0 0 0 0 0 0.3 0"
         result="result91"
         id="feColorMatrix23" /><feComposite
         in="result0"
         operator="out"
         result="result2"
         in2="result91"
         id="feComposite23" /><feGaussianBlur
         stdDeviation="1.7"
         result="result4"
         id="feGaussianBlur24" /><feDiffuseLighting
         surfaceScale="10"
         id="feDiffuseLighting24"><feDistantLight
           azimuth="225"
           elevation="45"
           id="feDistantLight24" /></feDiffuseLighting><feBlend
         in2="SourceGraphic"
         mode="multiply"
         id="feBlend24" /><feComposite
         in2="SourceAlpha"
         operator="in"
         result="result3"
         id="feComposite24" /><feSpecularLighting
         in="result4"
         surfaceScale="5"
         specularExponent="17.9"
         id="feSpecularLighting25"><feDistantLight
           azimuth="225"
           elevation="45"
           id="feDistantLight25" /></feSpecularLighting><feComposite
         in2="result3"
         operator="atop"
         id="feComposite25" /></filter></defs><g
     inkscape:label="Livello 1"
     inkscape:groupmode="layer"
     id="layer1"><g
       inkscape:label="Image"
       id="g1"
       transform="matrix(0.26458333,0,0,0.26458333,82.629839,126.275)"><g
         id="g8"
         transform="matrix(-1.0769871,-0.52259263,-0.52259263,1.0769871,145.31643,185.79931)"
         style="fill:#ffa500;fill-opacity:1" /><g
         id="g2"
         transform="translate(-296.30176,-461.25985)"
         style="fill-rule:nonzero;fill:#000000;fill-opacity:1;filter:url(#filter22)"><ellipse
           style="opacity:1;fill:#000000;fill-opacity:1;fill-rule:nonzero;stroke:none;stroke-width:2.899;stroke-linecap:round;stroke-dasharray:none;stroke-opacity:1"
           id="path8"
           cx="84"
           cy="84"
           rx="80.359146"
           ry="79.54332" /></g><g
         id="g7"
         transform="matrix(-1.1950042,0.07049209,0.07049209,1.1950042,-134.17366,-314.51389)"
         style="fill:#ffa500;fill-opacity:1"><path
           id="path4"
           style="opacity:1;fill:#ffa500;fill-opacity:1;fill-rule:evenodd;stroke-width:5.08346;stroke-linecap:round"
           d="m 70.81664,-13.702814 a 1.5257286,1.5257286 0 0 1 -1.525728,1.52573 1.5257286,1.5257286 0 0 1 -1.525729,-1.52573 1.5257286,1.5257286 0 0 1 1.525729,-1.52573 1.5257286,1.5257286 0 0 1 1.525728,1.52573 z" /><path
           id="path5"
           style="opacity:1;fill:#ffa500;fill-opacity:1;fill-rule:evenodd;stroke-width:5.08346;stroke-linecap:round"
           d="m 74.719671,-13.596364 a 0.92253357,0.92253357 0 0 1 -0.922534,0.92253 0.92253357,0.92253357 0 0 1 -0.922533,-0.92253 0.92253357,0.92253357 0 0 1 0.922533,-0.92254 0.92253357,0.92253357 0 0 1 0.922534,0.92254 z" /><path
           id="path6"
           style="opacity:1;fill:#ffa500;fill-opacity:1;fill-rule:evenodd;stroke-width:5.08346;stroke-linecap:round"
           d="m 65.483868,-16.207874 a 1.2043011,1.2043011 0 0 1 -1.204301,1.2043 1.2043011,1.2043011 0 0 1 -1.204301,-1.2043 1.2043011,1.2043011 0 0 1 1.204301,-1.2043 1.2043011,1.2043011 0 0 1 1.204301,1.2043 z" /></g><path
         d="m -226.90463,-324.95153 -5.22244,-0.0823 c -3.08705,-0.3929 -5.92154,-1.29095 -8.50345,-2.69416 -2.58191,-1.34709 -4.82705,-3.00287 -6.73541,-4.96737 -1.85224,-1.96449 -3.31158,-4.18157 -4.37802,-6.65122 -1.01031,-2.41352 -1.51546,-4.88317 -1.51546,-7.40895 0,-1.23482 0.11225,-2.69416 0.33676,-4.37801 0.28064,-1.68386 0.58935,-3.36771 0.92612,-5.05156 0.33677,-1.73998 0.61742,-3.33964 0.84192,-4.79898 0.28065,-1.51547 0.42097,-2.72223 0.42097,-3.62028 0,-1.34708 -0.3087,-2.6661 -0.92612,-3.95706 -0.56128,-1.29095 -1.4032,-2.46965 -2.52577,-3.53609 -1.06645,-1.12256 -2.41353,-2.04868 -4.04125,-2.77836 -3.25818,-1.47154 -6.87119,-1.93951 -10.34772,-2.6935 3.46869,-0.99862 7.12404,-1.20169 10.43191,-2.69482 1.5716,-0.7858 2.89061,-1.71192 3.95706,-2.77836 1.12257,-1.12257 1.96449,-2.32933 2.52577,-3.62028 0.61742,-1.34708 0.92612,-2.69417 0.92612,-4.04125 0,-0.89805 -0.14032,-2.07675 -0.42097,-3.53609 -0.2245,-1.45934 -0.50515,-3.03093 -0.84192,-4.71479 -0.33677,-1.68385 -0.64548,-3.3677 -0.92612,-5.05156 -0.22451,-1.68385 -0.33676,-3.17125 -0.33676,-4.4622 0,-2.58191 0.50515,-5.07963 1.51546,-7.49315 1.06644,-2.41352 2.52578,-4.60253 4.37802,-6.56702 1.90836,-1.9645 4.1535,-3.62028 6.73541,-4.96736 2.58191,-1.34709 5.4164,-2.24515 8.50345,-2.69418 l 5.03337,-0.008 c -5.02285,2.28203 -10.75936,3.02574 -14.71552,7.16425 -2.02062,2.3574 -3.03094,4.96737 -3.03094,7.82992 0,1.01032 0.11227,2.30127 0.33677,3.87286 0.28065,1.5716 0.58936,3.22739 0.92613,4.96737 0.33677,1.68385 0.61741,3.3677 0.84192,5.05156 0.28065,1.62772 0.42097,3.03093 0.42097,4.20963 0,1.90836 -0.36484,3.81673 -1.09451,5.7251 -0.67354,1.85223 -1.71191,3.62028 -3.11513,5.30413 -1.34708,1.68385 -3.059,3.25545 -5.13575,4.71479 -2.07675,1.40321 -4.49027,2.60997 -7.24056,3.62028 2.69416,1.01031 5.07962,2.24514 7.15637,3.70448 2.07675,1.45934 3.78867,3.059 5.13576,4.79898 1.4032,1.73998 2.46965,3.56415 3.19931,5.47252 0.72967,1.90837 1.09451,3.78866 1.09451,5.6409 0,1.1787 -0.14032,2.58191 -0.42097,4.20963 -0.22451,1.62773 -0.50515,3.31158 -0.84192,5.05156 -0.33677,1.73998 -0.64548,3.36771 -0.92613,4.88317 -0.2245,1.5716 -0.33677,2.86255 -0.33677,3.87287 0,2.86255 1.01032,5.47252 3.03094,7.82991 3.95272,4.06609 9.74372,5.32847 14.90459,7.32339 z"
         id="text1"
         style="font-size:684.152px;line-height:113.22%;font-family:'Microsoft Himalaya';-inkscape-font-specification:'Microsoft Himalaya, Normal';letter-spacing:3.58px;fill:#ffa500;fill-opacity:1;fill-rule:evenodd;stroke:#ffffff;stroke-width:0.147402;stroke-linecap:round;stroke-dasharray:none"
         aria-label="{"
         sodipodi:nodetypes="cccccscccsccccsscscscsccscccscccsccccscsscscscc" /><g
         id="g3"
         transform="rotate(-29.612699,-908.0926,412.43068)"><g
           id="g4"
           transform="rotate(30.397075,111.79446,87.921985)"><g
             id="g6"
             transform="rotate(28.388681,111.07912,86.839377)"><path
               id="path1"
               style="fill:#ffa500;fill-opacity:1;fill-rule:evenodd;stroke-width:5.08327;stroke-linecap:round"
               d="m 116.54595,54.760384 -0.0454,13.242739 -8.80201,-0.246426 0.14928,-13.221433 c 0.35689,-24.856026 8.49863,-24.104931 8.69813,0.22512 z"
               sodipodi:nodetypes="sccss" /><path
               id="rect1-5"
               style="fill:#ffa500;fill-opacity:1;fill-rule:evenodd;stroke-width:7.59181;stroke-linecap:round"
               d="m 107.4951,98.696055 0.099,-20.328252 8.81298,0.174068 -0.10151,20.173644 z"
               sodipodi:nodetypes="ccccc" /><path
               id="rect1-8"
               style="fill:#ffa500;fill-opacity:1;fill-rule:evenodd;stroke-width:4.59977;stroke-linecap:round"
               d="m 107.3232,111.45487 0.0705,-7.67828 8.87205,0.12067 -0.0489,7.66205 z"
               sodipodi:nodetypes="ccccc" /><path
               id="rect1-4"
               style="fill:#ffa500;fill-opacity:1;fill-rule:evenodd;stroke-width:2.32506;stroke-linecap:round"
               d="m 107.42386,102.20208 0.0194,-2.02633 8.8618,0.11477 -0.005,2.02523 z"
               sodipodi:nodetypes="ccccc" /><g
               id="g5"
               transform="translate(-0.26626652,-2.1302677)"><path
                 id="path2"
                 style="fill:#ffa500;fill-opacity:1;fill-rule:evenodd;stroke-width:5.08327;stroke-linecap:round"
                 d="m 107.84298,139.62633 c -1.68832,0.31679 0.61325,-3.98943 -0.37303,-9.7602 -0.24239,-1.41826 -1.3161,-3.10265 -1.77886,-4.70129 -0.62363,-2.15444 -0.77252,-3.76715 -0.35027,-5.67292 0.20172,-0.91043 2.88098,-6.40685 6.5274,-4.92924 0.63536,0.25746 -2.26957,2.74772 -1.21974,8.00027 0.68259,3.41518 1.25217,8.95809 -0.2711,12.59053 -0.81767,1.94982 -0.99951,4.18485 -2.5344,4.47285 z"
                 sodipodi:nodetypes="ssssssss" /><path
                 id="path3"
                 style="fill:#ffa500;fill-opacity:1;fill-rule:evenodd;stroke-width:5.08327;stroke-linecap:round"
                 d="m 109.84648,139.33442 c -0.37732,-0.27292 1.14382,-2.76246 1.94487,-6.06952 0.22007,-0.90854 0.27904,-1.86797 0.32902,-2.87768 0.033,-0.66691 0.11036,-1.37325 0.0554,-2.03886 -0.10539,-1.27687 -0.24044,-3.07324 -0.5429,-4.90108 -0.25373,-1.53335 -0.4413,-3.02614 -0.27939,-4.3063 0.23956,-1.89423 0.91097,-3.32502 1.60206,-4.34765 0.21068,-0.31176 6.1118,0.29339 5.48525,8.34458 -1.0192,4.1982 -3.10139,12.32698 -6.03378,14.67346 -0.78579,0.62878 -1.66267,2.17248 -2.56055,1.52305 z"
                 sodipodi:nodetypes="ssssssscss" /></g><rect
               style="fill:#ffa500;fill-opacity:1;fill-rule:evenodd;stroke-width:5.40489;stroke-linecap:round"
               id="rect7"
               width="8.8140516"
               height="7.3282442"
               x="108.18245"
               y="68.028915"
               transform="matrix(0.99991189,0.01327454,-0.00753697,0.9999716,0,0)" /></g></g></g></g></g></svg>
